<svg width="337" height="282" viewBox="0 0 337 282" fill="none" xmlns="http://www.w3.org/2000/svg">
<path d="M134.099 43.0798C171.09 31.3317 204.787 25.4493 229.359 25.4262C241.648 25.4146 251.627 26.8695 258.592 29.7683C265.569 32.6721 269.429 36.9826 269.696 42.6038C269.964 48.2248 266.624 54.822 260.127 62.0052C253.642 69.1756 244.096 76.8305 232.173 84.5086C208.331 99.8615 175.086 115.24 138.096 126.989C101.105 138.737 67.409 144.618 42.8371 144.641C30.5481 144.652 20.5684 143.199 13.6033 140.3C6.62601 137.396 2.76647 133.086 2.49865 127.465C2.23091 121.843 5.57092 115.246 12.0678 108.063C18.5533 100.893 28.0991 93.2368 40.0229 85.5584C63.8647 70.2056 97.1087 54.8278 134.099 43.0798Z" stroke="black"/>
<path d="M134.099 97.9763C171.09 86.2282 204.787 80.3458 229.359 80.3227C241.648 80.3111 251.627 81.766 258.592 84.6648C265.569 87.5686 269.429 91.8791 269.696 97.5002C269.964 103.121 266.624 109.718 260.127 116.902C253.642 124.072 244.096 131.727 232.173 139.405C208.331 154.758 175.086 170.137 138.096 181.885C101.105 193.633 67.409 199.514 42.8371 199.537C30.5481 199.549 20.5684 198.095 13.6033 195.197C6.62601 192.293 2.76647 187.982 2.49865 182.361C2.23091 176.74 5.57092 170.143 12.0678 162.96C18.5533 155.789 28.0991 148.133 40.0229 140.455C63.8647 125.102 97.1087 109.724 134.099 97.9763Z" stroke="black"/>
<path d="M134.099 154.246C171.09 142.498 204.787 136.615 229.359 136.592C241.648 136.581 251.627 138.036 258.592 140.934C265.569 143.838 269.429 148.149 269.696 153.77C269.964 159.391 266.624 165.988 260.127 173.171C253.642 180.342 244.096 187.997 232.173 195.675C208.331 211.028 175.086 226.407 138.096 238.155C101.105 249.903 67.409 255.784 42.8371 255.807C30.5481 255.818 20.5684 254.365 13.6033 251.466C6.62601 248.562 2.76647 244.252 2.49865 238.631C2.23091 233.009 5.57092 226.412 12.0678 219.229C18.5533 212.059 28.0991 204.403 40.0229 196.724C63.8647 181.372 97.1087 165.994 134.099 154.246Z" stroke="black"/>
<path d="M263.113 172.595L316.961 150.569L261.456 157.048L274.033 120.876L243.473 148.209L223.601 117.081L226.658 155.659L204.402 149.753L218.399 169.155L172.623 189.256L219.003 190.814L196.937 240.737L235.105 197.991L252.532 232.829L252.952 189.944L276.04 194.909L263.113 172.595Z" fill="#B1C2FC" stroke="black" stroke-linejoin="round"/>
</svg>
