<svg width="52" height="53" viewBox="0 0 52 53" fill="none" xmlns="http://www.w3.org/2000/svg">
<path d="M21.8783 2.34572C21.7749 1.71332 21.6887 1.12367 21.6195 0.588996C21.7129 1.18716 21.7991 1.77268 21.8783 2.34572C22.9075 8.64229 25.6377 19.1767 30.2752 21.8746C31.408 22.7962 37.148 24.0952 51.0462 21.9185C45.3036 22.9101 33.1947 25.7896 30.6994 29.3745C29.6146 31.0314 28.0204 37.8444 30.3224 51.8419C29.3109 45.8999 26.1045 33.2779 21.371 30.3264C20.0944 29.3926 14.7483 28.2223 3.28293 30.4119C2.28638 30.6313 1.3702 30.8179 0.577565 30.9675C1.5149 30.762 2.41639 30.5774 3.28293 30.4119C9.39791 29.0655 18.5387 26.4848 20.7257 23.6612C21.8982 21.973 23.684 15.4032 21.8783 2.34572Z" fill="#F9DBE9"/>
<path d="M21.6195 0.588996C22.3783 6.44718 25.1719 18.9058 30.2752 21.8746C31.408 22.7962 37.148 24.0952 51.0462 21.9185C45.3036 22.9101 33.1947 25.7896 30.6994 29.3745C29.6146 31.0314 28.0204 37.8444 30.3224 51.8419C29.3109 45.8999 26.1045 33.2779 21.371 30.3264C19.9979 29.322 13.9169 28.044 0.577564 30.9675C6.23388 29.9002 18.1823 26.9449 20.7257 23.6612C21.9496 21.8989 23.8419 14.8172 21.6195 0.588996Z" stroke="black" stroke-linejoin="round"/>
</svg>
