<svg width="68" height="68" viewBox="0 0 68 68" fill="none" xmlns="http://www.w3.org/2000/svg">
<rect x="0.402487" y="0.353659" width="67.1951" height="67.1951" rx="10.2561" fill="#DF4286" stroke="black" stroke-width="0.707317"/>
<mask id="path-2-outside-1_394_3666" maskUnits="userSpaceOnUse" x="14.6094" y="16.9023" width="36" height="32" fill="black">
<rect fill="white" x="14.6094" y="16.9023" width="36" height="32"/>
<path d="M29.7916 21.3206L20.1365 47.9023H16.1903L27.3077 18.7366H29.8517L29.7916 21.3206ZM37.8843 47.9023L28.2092 21.3206L28.1491 18.7366H30.693L41.8506 47.9023H37.8843ZM37.3835 37.1054V40.2704H20.9978V37.1054H37.3835ZM49.2221 26.2283V47.9023H45.4963V26.2283H49.2221ZM45.2158 20.4793C45.2158 19.8784 45.3961 19.3709 45.7567 18.9569C46.1306 18.5429 46.6781 18.3359 47.3993 18.3359C48.107 18.3359 48.6479 18.5429 49.0218 18.9569C49.4091 19.3709 49.6027 19.8784 49.6027 20.4793C49.6027 21.0535 49.4091 21.5476 49.0218 21.9616C48.6479 22.3623 48.107 22.5626 47.3993 22.5626C46.6781 22.5626 46.1306 22.3623 45.7567 21.9616C45.3961 21.5476 45.2158 21.0535 45.2158 20.4793Z"/>
</mask>
<path d="M29.7916 21.3206L20.1365 47.9023H16.1903L27.3077 18.7366H29.8517L29.7916 21.3206ZM37.8843 47.9023L28.2092 21.3206L28.1491 18.7366H30.693L41.8506 47.9023H37.8843ZM37.3835 37.1054V40.2704H20.9978V37.1054H37.3835ZM49.2221 26.2283V47.9023H45.4963V26.2283H49.2221ZM45.2158 20.4793C45.2158 19.8784 45.3961 19.3709 45.7567 18.9569C46.1306 18.5429 46.6781 18.3359 47.3993 18.3359C48.107 18.3359 48.6479 18.5429 49.0218 18.9569C49.4091 19.3709 49.6027 19.8784 49.6027 20.4793C49.6027 21.0535 49.4091 21.5476 49.0218 21.9616C48.6479 22.3623 48.107 22.5626 47.3993 22.5626C46.6781 22.5626 46.1306 22.3623 45.7567 21.9616C45.3961 21.5476 45.2158 21.0535 45.2158 20.4793Z" fill="white"/>
<path d="M29.7916 21.3206L30.4565 21.5621L30.4961 21.4531L30.4988 21.3371L29.7916 21.3206ZM20.1365 47.9023V48.6097H20.6321L20.8013 48.1438L20.1365 47.9023ZM16.1903 47.9023L15.5294 47.6504L15.1637 48.6097H16.1903V47.9023ZM27.3077 18.7366V18.0293H26.8204L26.6468 18.4846L27.3077 18.7366ZM29.8517 18.7366L30.5589 18.753L30.5757 18.0293H29.8517V18.7366ZM37.8843 47.9023L37.2197 48.1443L37.3891 48.6097H37.8843V47.9023ZM28.2092 21.3206L27.502 21.3371L27.5047 21.4533L27.5445 21.5625L28.2092 21.3206ZM28.1491 18.7366V18.0293H27.4251L27.4419 18.753L28.1491 18.7366ZM30.693 18.7366L31.3537 18.4838L31.1798 18.0293H30.693V18.7366ZM41.8506 47.9023V48.6097H42.8785L42.5112 47.6496L41.8506 47.9023ZM37.3835 37.1054H38.0909V36.3981H37.3835V37.1054ZM37.3835 40.2704V40.9777H38.0909V40.2704H37.3835ZM20.9978 40.2704H20.2905V40.9777H20.9978V40.2704ZM20.9978 37.1054V36.3981H20.2905V37.1054H20.9978ZM29.7916 21.3206L29.1268 21.0791L19.4717 47.6609L20.1365 47.9023L20.8013 48.1438L30.4565 21.5621L29.7916 21.3206ZM20.1365 47.9023V47.195H16.1903V47.9023V48.6097H20.1365V47.9023ZM16.1903 47.9023L16.8512 48.1543L27.9687 18.9885L27.3077 18.7366L26.6468 18.4846L15.5294 47.6504L16.1903 47.9023ZM27.3077 18.7366V19.4439H29.8517V18.7366V18.0293H27.3077V18.7366ZM29.8517 18.7366L29.1446 18.7201L29.0845 21.3042L29.7916 21.3206L30.4988 21.3371L30.5589 18.753L29.8517 18.7366ZM37.8843 47.9023L38.549 47.6604L28.8738 21.0787L28.2092 21.3206L27.5445 21.5625L37.2197 48.1443L37.8843 47.9023ZM28.2092 21.3206L28.9163 21.3042L28.8562 18.7201L28.1491 18.7366L27.4419 18.753L27.502 21.3371L28.2092 21.3206ZM28.1491 18.7366V19.4439H30.693V18.7366V18.0293H28.1491V18.7366ZM30.693 18.7366L30.0324 18.9893L41.1899 48.1551L41.8506 47.9023L42.5112 47.6496L31.3537 18.4838L30.693 18.7366ZM41.8506 47.9023V47.195H37.8843V47.9023V48.6097H41.8506V47.9023ZM37.3835 37.1054H36.6762V40.2704H37.3835H38.0909V37.1054H37.3835ZM37.3835 40.2704V39.563H20.9978V40.2704V40.9777H37.3835V40.2704ZM20.9978 40.2704H21.7051V37.1054H20.9978H20.2905V40.2704H20.9978ZM20.9978 37.1054V37.8127H37.3835V37.1054V36.3981H20.9978V37.1054ZM49.2221 26.2283H49.9294V25.521H49.2221V26.2283ZM49.2221 47.9023V48.6097H49.9294V47.9023H49.2221ZM45.4963 47.9023H44.789V48.6097H45.4963V47.9023ZM45.4963 26.2283V25.521H44.789V26.2283H45.4963ZM45.7567 18.9569L45.2317 18.4827L45.2233 18.4924L45.7567 18.9569ZM49.0218 18.9569L48.4968 19.4311L48.5053 19.4401L49.0218 18.9569ZM49.0218 21.9616L48.5053 21.4784L48.5047 21.479L49.0218 21.9616ZM45.7567 21.9616L45.2233 22.4262L45.2313 22.4354L45.2396 22.4442L45.7567 21.9616ZM49.2221 26.2283H48.5148V47.9023H49.2221H49.9294V26.2283H49.2221ZM49.2221 47.9023V47.195H45.4963V47.9023V48.6097H49.2221V47.9023ZM45.4963 47.9023H46.2036V26.2283H45.4963H44.789V47.9023H45.4963ZM45.4963 26.2283V26.9356H49.2221V26.2283V25.521H45.4963V26.2283ZM45.2158 20.4793H45.9232C45.9232 20.0317 46.0526 19.6941 46.2901 19.4215L45.7567 18.9569L45.2233 18.4924C44.7397 19.0477 44.5085 19.725 44.5085 20.4793H45.2158ZM45.7567 18.9569L46.2816 19.431C46.4847 19.2061 46.816 19.0433 47.3993 19.0433V18.3359V17.6286C46.5402 17.6286 45.7765 17.8797 45.2318 18.4828L45.7567 18.9569ZM47.3993 18.3359V19.0433C47.9644 19.0433 48.2913 19.2034 48.4969 19.431L49.0218 18.9569L49.5467 18.4828C49.0045 17.8825 48.2497 17.6286 47.3993 17.6286V18.3359ZM49.0218 18.9569L48.5053 19.4401C48.7621 19.7147 48.8954 20.046 48.8954 20.4793H49.6027H50.31C50.31 19.7108 50.0561 19.0271 49.5383 18.4737L49.0218 18.9569ZM49.6027 20.4793H48.8954C48.8954 20.8767 48.7682 21.1974 48.5053 21.4784L49.0218 21.9616L49.5383 22.4448C50.05 21.8979 50.31 21.2304 50.31 20.4793H49.6027ZM49.0218 21.9616L48.5047 21.479C48.3008 21.6975 47.9714 21.8553 47.3993 21.8553V22.5626V23.2699C48.2427 23.2699 48.9949 23.0271 49.5389 22.4442L49.0218 21.9616ZM47.3993 22.5626V21.8553C46.8092 21.8553 46.4752 21.6949 46.2738 21.479L45.7567 21.9616L45.2396 22.4442C45.786 23.0297 46.5471 23.2699 47.3993 23.2699V22.5626ZM45.7567 21.9616L46.2901 21.4971C46.0472 21.2182 45.9232 20.8913 45.9232 20.4793H45.2158H44.5085C44.5085 21.2157 44.7451 21.8771 45.2233 22.4262L45.7567 21.9616Z" fill="black" mask="url(#path-2-outside-1_394_3666)"/>
</svg>
