<svg width="96" height="96" viewBox="0 0 96 96" fill="none" xmlns="http://www.w3.org/2000/svg">
<g clip-path="url(#clip0_513_2509)">
<rect x="0.5" y="0.5" width="95" height="95" rx="14.5" fill="#FBE3A4" stroke="black"/>
<mask id="path-2-outside-1_513_2509" maskUnits="userSpaceOnUse" x="17" y="33" width="61" height="30" fill="black">
<rect fill="white" x="17" y="33" width="61" height="30"/>
<path d="M34.9336 52.6353H38.4023C38.2217 54.2974 37.7459 55.7848 36.9751 57.0977C36.2043 58.4105 35.1143 59.4523 33.7051 60.2231C32.2959 60.9819 30.5374 61.3613 28.4297 61.3613C26.888 61.3613 25.4849 61.0723 24.2202 60.4941C22.9676 59.916 21.8896 59.097 20.9863 58.0371C20.083 56.9652 19.3844 55.6825 18.8906 54.189C18.4089 52.6834 18.168 51.0093 18.168 49.1665V46.5469C18.168 44.7041 18.4089 43.036 18.8906 41.5425C19.3844 40.0369 20.089 38.7482 21.0044 37.6763C21.9318 36.6043 23.0459 35.7793 24.3467 35.2012C25.6475 34.623 27.1108 34.334 28.7368 34.334C30.7241 34.334 32.4043 34.7074 33.7773 35.4541C35.1504 36.2008 36.2163 37.2367 36.9751 38.5615C37.7459 39.8743 38.2217 41.3979 38.4023 43.1323H34.9336C34.765 41.9038 34.4518 40.8499 33.9941 39.9707C33.5365 39.0794 32.8861 38.3929 32.043 37.9111C31.1999 37.4294 30.0978 37.1885 28.7368 37.1885C27.5685 37.1885 26.5387 37.4113 25.6475 37.8569C24.7682 38.3026 24.0275 38.9349 23.4253 39.7539C22.8351 40.5729 22.3895 41.5545 22.0884 42.6987C21.7873 43.8429 21.6367 45.1136 21.6367 46.5107V49.1665C21.6367 50.4552 21.7692 51.6657 22.0342 52.7979C22.3112 53.93 22.7267 54.9237 23.2808 55.7788C23.8348 56.634 24.5394 57.3084 25.3945 57.8022C26.2497 58.284 27.2614 58.5249 28.4297 58.5249C29.9111 58.5249 31.0915 58.29 31.9707 57.8203C32.8499 57.3506 33.5124 56.6761 33.958 55.7969C34.4157 54.9176 34.7409 53.8638 34.9336 52.6353ZM54.0298 55.8149C54.0298 55.3332 53.9214 54.8875 53.7046 54.478C53.4998 54.0565 53.0723 53.6771 52.4219 53.3398C51.7835 52.9906 50.82 52.6895 49.5312 52.4365C48.4473 52.2077 47.4657 51.9367 46.5864 51.6235C45.7192 51.3104 44.9785 50.931 44.3643 50.4854C43.762 50.0397 43.2983 49.5158 42.9731 48.9136C42.6479 48.3114 42.4854 47.6068 42.4854 46.7998C42.4854 46.029 42.654 45.3003 42.9912 44.6138C43.3405 43.9272 43.8283 43.319 44.4546 42.7891C45.0929 42.2591 45.8577 41.8436 46.749 41.5425C47.6403 41.2414 48.634 41.0908 49.73 41.0908C51.2957 41.0908 52.6326 41.3678 53.7407 41.9219C54.8488 42.4759 55.6979 43.2166 56.2881 44.144C56.8783 45.0594 57.1733 46.0771 57.1733 47.1973H53.8311C53.8311 46.6553 53.6685 46.1313 53.3433 45.6255C53.0301 45.1076 52.5664 44.68 51.9521 44.3428C51.3499 44.0055 50.6092 43.8369 49.73 43.8369C48.8026 43.8369 48.0498 43.9814 47.4717 44.2705C46.9056 44.5475 46.4901 44.9028 46.2251 45.3364C45.9722 45.77 45.8457 46.2277 45.8457 46.7095C45.8457 47.0708 45.9059 47.396 46.0264 47.6851C46.1589 47.9621 46.3877 48.221 46.7129 48.4619C47.0381 48.6908 47.4958 48.9076 48.0859 49.1123C48.6761 49.3171 49.4289 49.5218 50.3442 49.7266C51.9461 50.0879 53.265 50.5215 54.3008 51.0273C55.3366 51.5332 56.1074 52.1535 56.6133 52.8882C57.1191 53.6229 57.3721 54.5142 57.3721 55.562C57.3721 56.4172 57.1914 57.2 56.8301 57.9106C56.4808 58.6213 55.9689 59.2355 55.2944 59.7534C54.632 60.2593 53.8371 60.6567 52.9097 60.9458C51.9943 61.2228 50.9645 61.3613 49.8203 61.3613C48.098 61.3613 46.6406 61.0542 45.4482 60.4399C44.2559 59.8257 43.3525 59.0308 42.7383 58.0552C42.124 57.0796 41.8169 56.0498 41.8169 54.9658H45.1772C45.2254 55.8812 45.4904 56.6099 45.9722 57.1519C46.4539 57.6818 47.0441 58.0612 47.7427 58.29C48.4412 58.5068 49.1338 58.6152 49.8203 58.6152C50.7357 58.6152 51.5005 58.4948 52.1147 58.2539C52.741 58.013 53.2168 57.6818 53.542 57.2603C53.8672 56.8387 54.0298 56.3569 54.0298 55.8149ZM73.144 55.8149C73.144 55.3332 73.0356 54.8875 72.8188 54.478C72.6141 54.0565 72.1865 53.6771 71.5361 53.3398C70.8978 52.9906 69.9342 52.6895 68.6455 52.4365C67.5615 52.2077 66.5799 51.9367 65.7007 51.6235C64.8335 51.3104 64.0928 50.931 63.4785 50.4854C62.8763 50.0397 62.4126 49.5158 62.0874 48.9136C61.7622 48.3114 61.5996 47.6068 61.5996 46.7998C61.5996 46.029 61.7682 45.3003 62.1055 44.6138C62.4548 43.9272 62.9425 43.319 63.5688 42.7891C64.2072 42.2591 64.972 41.8436 65.8633 41.5425C66.7546 41.2414 67.7482 41.0908 68.8442 41.0908C70.41 41.0908 71.7469 41.3678 72.855 41.9219C73.9631 42.4759 74.8122 43.2166 75.4023 44.144C75.9925 45.0594 76.2876 46.0771 76.2876 47.1973H72.9453C72.9453 46.6553 72.7827 46.1313 72.4575 45.6255C72.1444 45.1076 71.6807 44.68 71.0664 44.3428C70.4642 44.0055 69.7235 43.8369 68.8442 43.8369C67.9168 43.8369 67.1641 43.9814 66.5859 44.2705C66.0199 44.5475 65.6043 44.9028 65.3394 45.3364C65.0864 45.77 64.96 46.2277 64.96 46.7095C64.96 47.0708 65.0202 47.396 65.1406 47.6851C65.2731 47.9621 65.502 48.221 65.8271 48.4619C66.1523 48.6908 66.61 48.9076 67.2002 49.1123C67.7904 49.3171 68.5431 49.5218 69.4585 49.7266C71.0604 50.0879 72.3792 50.5215 73.415 51.0273C74.4508 51.5332 75.2217 52.1535 75.7275 52.8882C76.2334 53.6229 76.4863 54.5142 76.4863 55.562C76.4863 56.4172 76.3057 57.2 75.9443 57.9106C75.5951 58.6213 75.0832 59.2355 74.4087 59.7534C73.7463 60.2593 72.9513 60.6567 72.0239 60.9458C71.1086 61.2228 70.0788 61.3613 68.9346 61.3613C67.2122 61.3613 65.7549 61.0542 64.5625 60.4399C63.3701 59.8257 62.4668 59.0308 61.8525 58.0552C61.2383 57.0796 60.9312 56.0498 60.9312 54.9658H64.2915C64.3397 55.8812 64.6047 56.6099 65.0864 57.1519C65.5682 57.6818 66.1584 58.0612 66.8569 58.29C67.5555 58.5068 68.248 58.6152 68.9346 58.6152C69.8499 58.6152 70.6147 58.4948 71.229 58.2539C71.8553 58.013 72.3311 57.6818 72.6562 57.2603C72.9814 56.8387 73.144 56.3569 73.144 55.8149Z"/>
</mask>
<path d="M34.9336 52.6353H38.4023C38.2217 54.2974 37.7459 55.7848 36.9751 57.0977C36.2043 58.4105 35.1143 59.4523 33.7051 60.2231C32.2959 60.9819 30.5374 61.3613 28.4297 61.3613C26.888 61.3613 25.4849 61.0723 24.2202 60.4941C22.9676 59.916 21.8896 59.097 20.9863 58.0371C20.083 56.9652 19.3844 55.6825 18.8906 54.189C18.4089 52.6834 18.168 51.0093 18.168 49.1665V46.5469C18.168 44.7041 18.4089 43.036 18.8906 41.5425C19.3844 40.0369 20.089 38.7482 21.0044 37.6763C21.9318 36.6043 23.0459 35.7793 24.3467 35.2012C25.6475 34.623 27.1108 34.334 28.7368 34.334C30.7241 34.334 32.4043 34.7074 33.7773 35.4541C35.1504 36.2008 36.2163 37.2367 36.9751 38.5615C37.7459 39.8743 38.2217 41.3979 38.4023 43.1323H34.9336C34.765 41.9038 34.4518 40.8499 33.9941 39.9707C33.5365 39.0794 32.8861 38.3929 32.043 37.9111C31.1999 37.4294 30.0978 37.1885 28.7368 37.1885C27.5685 37.1885 26.5387 37.4113 25.6475 37.8569C24.7682 38.3026 24.0275 38.9349 23.4253 39.7539C22.8351 40.5729 22.3895 41.5545 22.0884 42.6987C21.7873 43.8429 21.6367 45.1136 21.6367 46.5107V49.1665C21.6367 50.4552 21.7692 51.6657 22.0342 52.7979C22.3112 53.93 22.7267 54.9237 23.2808 55.7788C23.8348 56.634 24.5394 57.3084 25.3945 57.8022C26.2497 58.284 27.2614 58.5249 28.4297 58.5249C29.9111 58.5249 31.0915 58.29 31.9707 57.8203C32.8499 57.3506 33.5124 56.6761 33.958 55.7969C34.4157 54.9176 34.7409 53.8638 34.9336 52.6353ZM54.0298 55.8149C54.0298 55.3332 53.9214 54.8875 53.7046 54.478C53.4998 54.0565 53.0723 53.6771 52.4219 53.3398C51.7835 52.9906 50.82 52.6895 49.5312 52.4365C48.4473 52.2077 47.4657 51.9367 46.5864 51.6235C45.7192 51.3104 44.9785 50.931 44.3643 50.4854C43.762 50.0397 43.2983 49.5158 42.9731 48.9136C42.6479 48.3114 42.4854 47.6068 42.4854 46.7998C42.4854 46.029 42.654 45.3003 42.9912 44.6138C43.3405 43.9272 43.8283 43.319 44.4546 42.7891C45.0929 42.2591 45.8577 41.8436 46.749 41.5425C47.6403 41.2414 48.634 41.0908 49.73 41.0908C51.2957 41.0908 52.6326 41.3678 53.7407 41.9219C54.8488 42.4759 55.6979 43.2166 56.2881 44.144C56.8783 45.0594 57.1733 46.0771 57.1733 47.1973H53.8311C53.8311 46.6553 53.6685 46.1313 53.3433 45.6255C53.0301 45.1076 52.5664 44.68 51.9521 44.3428C51.3499 44.0055 50.6092 43.8369 49.73 43.8369C48.8026 43.8369 48.0498 43.9814 47.4717 44.2705C46.9056 44.5475 46.4901 44.9028 46.2251 45.3364C45.9722 45.77 45.8457 46.2277 45.8457 46.7095C45.8457 47.0708 45.9059 47.396 46.0264 47.6851C46.1589 47.9621 46.3877 48.221 46.7129 48.4619C47.0381 48.6908 47.4958 48.9076 48.0859 49.1123C48.6761 49.3171 49.4289 49.5218 50.3442 49.7266C51.9461 50.0879 53.265 50.5215 54.3008 51.0273C55.3366 51.5332 56.1074 52.1535 56.6133 52.8882C57.1191 53.6229 57.3721 54.5142 57.3721 55.562C57.3721 56.4172 57.1914 57.2 56.8301 57.9106C56.4808 58.6213 55.9689 59.2355 55.2944 59.7534C54.632 60.2593 53.8371 60.6567 52.9097 60.9458C51.9943 61.2228 50.9645 61.3613 49.8203 61.3613C48.098 61.3613 46.6406 61.0542 45.4482 60.4399C44.2559 59.8257 43.3525 59.0308 42.7383 58.0552C42.124 57.0796 41.8169 56.0498 41.8169 54.9658H45.1772C45.2254 55.8812 45.4904 56.6099 45.9722 57.1519C46.4539 57.6818 47.0441 58.0612 47.7427 58.29C48.4412 58.5068 49.1338 58.6152 49.8203 58.6152C50.7357 58.6152 51.5005 58.4948 52.1147 58.2539C52.741 58.013 53.2168 57.6818 53.542 57.2603C53.8672 56.8387 54.0298 56.3569 54.0298 55.8149ZM73.144 55.8149C73.144 55.3332 73.0356 54.8875 72.8188 54.478C72.6141 54.0565 72.1865 53.6771 71.5361 53.3398C70.8978 52.9906 69.9342 52.6895 68.6455 52.4365C67.5615 52.2077 66.5799 51.9367 65.7007 51.6235C64.8335 51.3104 64.0928 50.931 63.4785 50.4854C62.8763 50.0397 62.4126 49.5158 62.0874 48.9136C61.7622 48.3114 61.5996 47.6068 61.5996 46.7998C61.5996 46.029 61.7682 45.3003 62.1055 44.6138C62.4548 43.9272 62.9425 43.319 63.5688 42.7891C64.2072 42.2591 64.972 41.8436 65.8633 41.5425C66.7546 41.2414 67.7482 41.0908 68.8442 41.0908C70.41 41.0908 71.7469 41.3678 72.855 41.9219C73.9631 42.4759 74.8122 43.2166 75.4023 44.144C75.9925 45.0594 76.2876 46.0771 76.2876 47.1973H72.9453C72.9453 46.6553 72.7827 46.1313 72.4575 45.6255C72.1444 45.1076 71.6807 44.68 71.0664 44.3428C70.4642 44.0055 69.7235 43.8369 68.8442 43.8369C67.9168 43.8369 67.1641 43.9814 66.5859 44.2705C66.0199 44.5475 65.6043 44.9028 65.3394 45.3364C65.0864 45.77 64.96 46.2277 64.96 46.7095C64.96 47.0708 65.0202 47.396 65.1406 47.6851C65.2731 47.9621 65.502 48.221 65.8271 48.4619C66.1523 48.6908 66.61 48.9076 67.2002 49.1123C67.7904 49.3171 68.5431 49.5218 69.4585 49.7266C71.0604 50.0879 72.3792 50.5215 73.415 51.0273C74.4508 51.5332 75.2217 52.1535 75.7275 52.8882C76.2334 53.6229 76.4863 54.5142 76.4863 55.562C76.4863 56.4172 76.3057 57.2 75.9443 57.9106C75.5951 58.6213 75.0832 59.2355 74.4087 59.7534C73.7463 60.2593 72.9513 60.6567 72.0239 60.9458C71.1086 61.2228 70.0788 61.3613 68.9346 61.3613C67.2122 61.3613 65.7549 61.0542 64.5625 60.4399C63.3701 59.8257 62.4668 59.0308 61.8525 58.0552C61.2383 57.0796 60.9312 56.0498 60.9312 54.9658H64.2915C64.3397 55.8812 64.6047 56.6099 65.0864 57.1519C65.5682 57.6818 66.1584 58.0612 66.8569 58.29C67.5555 58.5068 68.248 58.6152 68.9346 58.6152C69.8499 58.6152 70.6147 58.4948 71.229 58.2539C71.8553 58.013 72.3311 57.6818 72.6562 57.2603C72.9814 56.8387 73.144 56.3569 73.144 55.8149Z" fill="white"/>
<path d="M34.9336 52.6353V51.6353H34.0782L33.9457 52.4803L34.9336 52.6353ZM38.4023 52.6353L39.3965 52.7433L39.5169 51.6353H38.4023V52.6353ZM33.7051 60.2231L34.1792 61.1036L34.185 61.1005L33.7051 60.2231ZM24.2202 60.4941L23.8012 61.4021L23.8045 61.4036L24.2202 60.4941ZM20.9863 58.0371L20.2216 58.6815L20.2252 58.6858L20.9863 58.0371ZM18.8906 54.189L17.9382 54.4938L17.9412 54.5029L18.8906 54.189ZM18.8906 41.5425L17.9404 41.2308L17.9389 41.2355L18.8906 41.5425ZM21.0044 37.6763L20.2481 37.022L20.2439 37.0269L21.0044 37.6763ZM36.9751 38.5615L36.1073 39.0585L36.1128 39.0679L36.9751 38.5615ZM38.4023 43.1323V44.1323H39.5119L39.397 43.0287L38.4023 43.1323ZM34.9336 43.1323L33.9429 43.2683L34.0615 44.1323H34.9336V43.1323ZM33.9941 39.9707L33.1046 40.4275L33.1071 40.4324L33.9941 39.9707ZM25.6475 37.8569L25.2002 36.9625L25.1954 36.965L25.6475 37.8569ZM23.4253 39.7539L22.6196 39.1615L22.614 39.1693L23.4253 39.7539ZM22.0884 42.6987L21.1213 42.4442L22.0884 42.6987ZM22.0342 52.7979L21.0604 53.0257L21.0628 53.0355L22.0342 52.7979ZM25.3945 57.8022L24.8944 58.6683L24.9037 58.6735L25.3945 57.8022ZM33.958 55.7969L33.0709 55.3351L33.066 55.3448L33.958 55.7969ZM34.9336 52.6353V53.6353H38.4023V52.6353V51.6353H34.9336V52.6353ZM38.4023 52.6353L37.4082 52.5272C37.2413 54.0627 36.8052 55.412 36.1128 56.5913L36.9751 57.0977L37.8374 57.604C38.6866 56.1577 39.2021 54.5321 39.3965 52.7433L38.4023 52.6353ZM36.9751 57.0977L36.1128 56.5913C35.4386 57.7395 34.4848 58.6568 33.2252 59.3458L33.7051 60.2231L34.185 61.1005C35.7437 60.2478 36.9699 59.0815 37.8374 57.604L36.9751 57.0977ZM33.7051 60.2231L33.231 59.3427C32.0064 60.0021 30.4226 60.3613 28.4297 60.3613V61.3613V62.3613C30.6523 62.3613 32.5854 61.9618 34.1792 61.1036L33.7051 60.2231ZM28.4297 61.3613V60.3613C27.0158 60.3613 25.7566 60.0969 24.636 59.5847L24.2202 60.4941L23.8045 61.4036C25.2132 62.0476 26.7603 62.3613 28.4297 62.3613V61.3613ZM24.2202 60.4941L24.6393 59.5862C23.5194 59.0693 22.5578 58.3393 21.7474 57.3885L20.9863 58.0371L20.2252 58.6858C21.2215 59.8548 22.4158 60.7627 23.8012 61.4021L24.2202 60.4941ZM20.9863 58.0371L21.751 57.3927C20.9392 56.4293 20.2988 55.2623 19.8401 53.875L18.8906 54.189L17.9412 54.5029C18.4701 56.1026 19.2268 57.501 20.2216 58.6815L20.9863 58.0371ZM18.8906 54.189L19.843 53.8842C19.3975 52.4919 19.168 50.9226 19.168 49.1665H18.168H17.168C17.168 51.096 17.4202 52.8749 17.9382 54.4937L18.8906 54.189ZM18.168 49.1665H19.168V46.5469H18.168H17.168V49.1665H18.168ZM18.168 46.5469H19.168C19.168 44.7906 19.3976 43.2282 19.8423 41.8495L18.8906 41.5425L17.9389 41.2355C17.4201 42.8437 17.168 44.6176 17.168 46.5469H18.168ZM18.8906 41.5425L19.8408 41.8541C20.299 40.4572 20.944 39.2869 21.7649 38.3257L21.0044 37.6763L20.2439 37.0269C19.234 38.2095 18.4698 39.6167 17.9404 41.2308L18.8906 41.5425ZM21.0044 37.6763L21.7606 38.3306C22.5914 37.3703 23.5858 36.6337 24.7528 36.115L24.3467 35.2012L23.9405 34.2874C22.506 34.9249 21.2722 35.8384 20.2481 37.022L21.0044 37.6763ZM24.3467 35.2012L24.7528 36.115C25.9088 35.6012 27.2309 35.334 28.7368 35.334V34.334V33.334C26.9908 33.334 25.3862 33.6449 23.9405 34.2874L24.3467 35.2012ZM28.7368 34.334V35.334C30.6015 35.334 32.1077 35.6844 33.2996 36.3326L33.7773 35.4541L34.2551 34.5756C32.7009 33.7304 30.8467 33.334 28.7368 33.334V34.334ZM33.7773 35.4541L33.2996 36.3326C34.5138 36.993 35.443 37.8985 36.1073 39.0585L36.9751 38.5615L37.8429 38.0645C36.9897 36.5748 35.7869 35.4087 34.2551 34.5756L33.7773 35.4541ZM36.9751 38.5615L36.1128 39.0679C36.8014 40.2407 37.2397 41.6231 37.4077 43.2359L38.4023 43.1323L39.397 43.0287C39.2036 41.1728 38.6904 39.508 37.8374 38.0552L36.9751 38.5615ZM38.4023 43.1323V42.1323H34.9336V43.1323V44.1323H38.4023V43.1323ZM34.9336 43.1323L35.9243 42.9963C35.7438 41.6815 35.4033 40.512 34.8812 39.509L33.9941 39.9707L33.1071 40.4324C33.5004 41.1879 33.7861 42.1261 33.9429 43.2683L34.9336 43.1323ZM33.9941 39.9707L34.8837 39.5139C34.3405 38.4561 33.556 37.624 32.5391 37.0429L32.043 37.9111L31.5468 38.7794C32.2161 39.1618 32.7324 39.7028 33.1046 40.4275L33.9941 39.9707ZM32.043 37.9111L32.5391 37.0429C31.4962 36.447 30.2055 36.1885 28.7368 36.1885V37.1885V38.1885C29.9901 38.1885 30.9035 38.4118 31.5468 38.7794L32.043 37.9111ZM28.7368 37.1885V36.1885C27.44 36.1885 26.2524 36.4364 25.2002 36.9625L25.6475 37.8569L26.0947 38.7514C26.8251 38.3862 27.6971 38.1885 28.7368 38.1885V37.1885ZM25.6475 37.8569L25.1954 36.965C24.172 37.4837 23.3116 38.2204 22.6196 39.1615L23.4253 39.7539L24.2309 40.3463C24.7434 39.6494 25.3645 39.1215 26.0996 38.7489L25.6475 37.8569ZM23.4253 39.7539L22.614 39.1693C21.9409 40.1034 21.4484 41.2014 21.1213 42.4442L22.0884 42.6987L23.0555 42.9532C23.3306 41.9076 23.7294 41.0424 24.2366 40.3385L23.4253 39.7539ZM22.0884 42.6987L21.1213 42.4442C20.7948 43.6849 20.6367 45.0427 20.6367 46.5107H21.6367H22.6367C22.6367 45.1845 22.7797 44.001 23.0555 42.9532L22.0884 42.6987ZM21.6367 46.5107H20.6367V49.1665H21.6367H22.6367V46.5107H21.6367ZM21.6367 49.1665H20.6367C20.6367 50.5238 20.7763 51.8113 21.0605 53.0257L22.0342 52.7979L23.0079 52.57C22.7621 51.5201 22.6367 50.3867 22.6367 49.1665H21.6367ZM22.0342 52.7979L21.0628 53.0355C21.3627 54.261 21.8186 55.361 22.4415 56.3225L23.2808 55.7788L24.12 55.2351C23.6349 54.4863 23.2597 53.599 23.0055 52.5602L22.0342 52.7979ZM23.2808 55.7788L22.4415 56.3225C23.0787 57.306 23.8979 58.0928 24.8945 58.6682L25.3945 57.8022L25.8946 56.9363C25.1809 56.5241 24.5909 55.9619 24.12 55.2351L23.2808 55.7788ZM25.3945 57.8022L24.9037 58.6735C25.9348 59.2544 27.1222 59.5249 28.4297 59.5249V58.5249V57.5249C27.4006 57.5249 26.5645 57.3136 25.8854 56.931L25.3945 57.8022ZM28.4297 58.5249V59.5249C30.0017 59.5249 31.3642 59.2781 32.4419 58.7023L31.9707 57.8203L31.4995 56.9383C30.8187 57.302 29.8205 57.5249 28.4297 57.5249V58.5249ZM31.9707 57.8203L32.4419 58.7023C33.5 58.137 34.3104 57.3135 34.85 56.249L33.958 55.7969L33.066 55.3448C32.7143 56.0387 32.1999 56.5641 31.4995 56.9383L31.9707 57.8203ZM33.958 55.7969L34.845 56.2586C35.3636 55.2624 35.7161 54.0997 35.9215 52.7902L34.9336 52.6353L33.9457 52.4803C33.7657 53.6278 33.4678 54.5729 33.071 55.3351L33.958 55.7969ZM53.7046 54.478L52.8051 54.9149L52.8127 54.9306L52.8208 54.9459L53.7046 54.478ZM52.4219 53.3398L51.9419 54.2171L51.9517 54.2225L51.9616 54.2276L52.4219 53.3398ZM49.5312 52.4365L49.3247 53.415L49.3317 53.4164L49.3387 53.4178L49.5312 52.4365ZM46.5864 51.6235L46.2468 52.5641L46.2509 52.5656L46.5864 51.6235ZM44.3643 50.4854L43.7694 51.2892L43.777 51.2948L44.3643 50.4854ZM42.9912 44.6138L42.0998 44.1603L42.0937 44.1729L42.9912 44.6138ZM44.4546 42.7891L43.8158 42.0196L43.8086 42.0257L44.4546 42.7891ZM56.2881 44.144L55.4444 44.6809L55.4476 44.6859L56.2881 44.144ZM57.1733 47.1973V48.1973H58.1733V47.1973H57.1733ZM53.8311 47.1973H52.8311V48.1973H53.8311V47.1973ZM53.3433 45.6255L52.4875 46.1429L52.4946 46.1547L52.5021 46.1662L53.3433 45.6255ZM51.9521 44.3428L51.4635 45.2153L51.4709 45.2194L51.9521 44.3428ZM47.4717 44.2705L47.9112 45.1688L47.9189 45.1649L47.4717 44.2705ZM46.2251 45.3364L45.3718 44.815L45.3665 44.8237L45.3613 44.8326L46.2251 45.3364ZM46.0264 47.6851L45.1033 48.0697L45.1132 48.0934L45.1242 48.1165L46.0264 47.6851ZM46.7129 48.4619L46.1177 49.2655L46.1274 49.2727L46.1374 49.2797L46.7129 48.4619ZM50.3442 49.7266L50.5643 48.7511L50.5625 48.7507L50.3442 49.7266ZM56.8301 57.9106L55.9386 57.4574L55.9326 57.4695L56.8301 57.9106ZM55.2944 59.7534L55.9013 60.5482L55.9035 60.5466L55.2944 59.7534ZM52.9097 60.9458L53.1993 61.903L53.2072 61.9005L52.9097 60.9458ZM41.8169 54.9658V53.9658H40.8169V54.9658H41.8169ZM45.1772 54.9658L46.1759 54.9133L46.126 53.9658H45.1772V54.9658ZM45.9722 57.1519L45.2247 57.8163L45.2322 57.8245L45.9722 57.1519ZM47.7427 58.29L47.4314 59.2403L47.4388 59.2428L47.4463 59.2451L47.7427 58.29ZM52.1147 58.2539L51.7558 57.3205L51.7497 57.3229L52.1147 58.2539ZM54.0298 55.8149H55.0298C55.0298 55.1768 54.8846 54.5696 54.5884 54.0101L53.7046 54.478L52.8208 54.9459C52.9582 55.2054 53.0298 55.4896 53.0298 55.8149H54.0298ZM53.7046 54.478L54.6041 54.0411C54.2656 53.3442 53.6231 52.8363 52.8822 52.4521L52.4219 53.3398L51.9616 54.2276C52.5214 54.5179 52.7341 54.7688 52.8051 54.9149L53.7046 54.478ZM52.4219 53.3398L52.9019 52.4626C52.1287 52.0395 51.046 51.7147 49.7238 51.4552L49.5312 52.4365L49.3387 53.4178C50.5939 53.6642 51.4384 53.9416 51.9419 54.2171L52.4219 53.3398ZM49.5312 52.4365L49.7378 51.4581C48.6897 51.2368 47.7521 50.9772 46.9219 50.6815L46.5864 51.6235L46.2509 52.5656C47.1792 52.8962 48.2048 53.1785 49.3247 53.415L49.5312 52.4365ZM46.5864 51.6235L46.9261 50.683C46.1289 50.3951 45.4755 50.0561 44.9515 49.6759L44.3643 50.4854L43.777 51.2948C44.4815 51.8059 45.3096 52.2256 46.2468 52.5641L46.5864 51.6235ZM44.3643 50.4854L44.9591 49.6815C44.4636 49.3148 44.1021 48.8997 43.853 48.4384L42.9731 48.9136L42.0932 49.3887C42.4946 50.1319 43.0605 50.7646 43.7694 51.2892L44.3643 50.4854ZM42.9731 48.9136L43.853 48.4384C43.6197 48.0063 43.4854 47.4706 43.4854 46.7998H42.4854H41.4854C41.4854 47.7429 41.6762 48.6164 42.0932 49.3887L42.9731 48.9136ZM42.4854 46.7998H43.4854C43.4854 46.1806 43.6195 45.6029 43.8888 45.0547L42.9912 44.6138L42.0937 44.1729C41.6885 44.9977 41.4854 45.8773 41.4854 46.7998H42.4854ZM42.9912 44.6138L43.8825 45.0672C44.1676 44.5069 44.5691 44.0021 45.1005 43.5524L44.4546 42.7891L43.8086 42.0257C43.0875 42.6359 42.5134 43.3476 42.0999 44.1603L42.9912 44.6138ZM44.4546 42.7891L45.0933 43.5585C45.6255 43.1167 46.2786 42.7569 47.0691 42.4899L46.749 41.5425L46.429 40.5951C45.4369 40.9303 44.5604 41.4016 43.8158 42.0197L44.4546 42.7891ZM46.749 41.5425L47.0691 42.4899C47.8418 42.2288 48.7252 42.0908 49.73 42.0908V41.0908V40.0908C48.5427 40.0908 47.4388 40.2539 46.429 40.5951L46.749 41.5425ZM49.73 41.0908V42.0908C51.1804 42.0908 52.356 42.3476 53.2935 42.8163L53.7407 41.9219L54.1879 41.0274C52.9093 40.3881 51.4111 40.0908 49.73 40.0908V41.0908ZM53.7407 41.9219L53.2935 42.8163C54.2605 43.2998 54.9635 43.9251 55.4444 44.6809L56.2881 44.144L57.1317 43.6072C56.4324 42.5081 55.437 41.652 54.1879 41.0274L53.7407 41.9219ZM56.2881 44.144L55.4476 44.6859C55.9306 45.435 56.1733 46.2636 56.1733 47.1973H57.1733H58.1733C58.1733 45.8907 57.826 44.6839 57.1285 43.6022L56.2881 44.144ZM57.1733 47.1973V46.1973H53.8311V47.1973V48.1973H57.1733V47.1973ZM53.8311 47.1973H54.8311C54.8311 46.4429 54.6016 45.7336 54.1844 45.0847L53.3433 45.6255L52.5021 46.1662C52.7353 46.5291 52.8311 46.8677 52.8311 47.1973H53.8311ZM53.3433 45.6255L54.199 45.1081C53.7813 44.4172 53.1773 43.8746 52.4334 43.4662L51.9521 44.3428L51.4709 45.2194C51.9555 45.4854 52.2789 45.7979 52.4875 46.1429L53.3433 45.6255ZM51.9521 44.3428L52.4408 43.4703C51.6538 43.0296 50.7344 42.8369 49.73 42.8369V43.8369V44.8369C50.484 44.8369 51.0461 44.9815 51.4635 45.2153L51.9521 44.3428ZM49.73 43.8369V42.8369C48.7102 42.8369 47.7885 42.9941 47.0245 43.3761L47.4717 44.2705L47.9189 45.1649C48.3112 44.9688 48.895 44.8369 49.73 44.8369V43.8369ZM47.4717 44.2705L47.0321 43.3723C46.3361 43.7129 45.7574 44.1839 45.3718 44.815L46.2251 45.3364L47.0784 45.8579C47.2227 45.6217 47.4751 45.3822 47.9112 45.1687L47.4717 44.2705ZM46.2251 45.3364L45.3613 44.8326C45.0231 45.4124 44.8457 46.0431 44.8457 46.7095H45.8457H46.8457C46.8457 46.4123 46.9213 46.1276 47.0889 45.8403L46.2251 45.3364ZM45.8457 46.7095H44.8457C44.8457 47.1827 44.9249 47.6415 45.1033 48.0697L46.0264 47.6851L46.9494 47.3004C46.887 47.1505 46.8457 46.9589 46.8457 46.7095H45.8457ZM46.0264 47.6851L45.1242 48.1165C45.3459 48.5801 45.7015 48.9572 46.1177 49.2655L46.7129 48.4619L47.3081 47.6584C47.0739 47.4848 46.9718 47.3441 46.9285 47.2536L46.0264 47.6851ZM46.7129 48.4619L46.1374 49.2797C46.5694 49.5837 47.124 49.837 47.7582 50.0571L48.0859 49.1123L48.4137 48.1675C47.8675 47.9781 47.5068 47.7978 47.2884 47.6441L46.7129 48.4619ZM48.0859 49.1123L47.7582 50.0571C48.3972 50.2788 49.1899 50.4931 50.1259 50.7024L50.3442 49.7266L50.5625 48.7507C49.6678 48.5505 48.955 48.3554 48.4137 48.1675L48.0859 49.1123ZM50.3442 49.7266L50.1242 50.7021C51.6795 51.0529 52.9183 51.4651 53.8619 51.9259L54.3008 51.0273L54.7396 50.1288C53.6116 49.5779 52.2127 49.1229 50.5643 48.7511L50.3442 49.7266ZM54.3008 51.0273L53.8619 51.9259C54.7872 52.3778 55.4059 52.8979 55.7896 53.4553L56.6133 52.8882L57.4369 52.3211C56.809 51.409 55.886 50.6886 54.7396 50.1288L54.3008 51.0273ZM56.6133 52.8882L55.7896 53.4553C56.1617 53.9956 56.3721 54.6804 56.3721 55.562H57.3721H58.3721C58.3721 54.3479 58.0766 53.2502 57.4369 52.3211L56.6133 52.8882ZM57.3721 55.562H56.3721C56.3721 56.2714 56.2235 56.8973 55.9387 57.4574L56.8301 57.9106L57.7215 58.3639C58.1593 57.5028 58.3721 56.563 58.3721 55.562H57.3721ZM56.8301 57.9106L55.9326 57.4695C55.6561 58.0321 55.2472 58.5289 54.6854 58.9603L55.2944 59.7534L55.9035 60.5466C56.6906 59.9421 57.3055 59.2104 57.7275 58.3518L56.8301 57.9106ZM55.2944 59.7534L54.6875 58.9587C54.132 59.3828 53.446 59.7312 52.6121 59.9911L52.9097 60.9458L53.2072 61.9005C54.2282 61.5823 55.132 61.1357 55.9013 60.5482L55.2944 59.7534ZM52.9097 60.9458L52.62 59.9887C51.8149 60.2323 50.885 60.3613 49.8203 60.3613V61.3613V62.3613C51.044 62.3613 52.1737 62.2133 53.1993 61.9029L52.9097 60.9458ZM49.8203 61.3613V60.3613C48.2134 60.3613 46.9225 60.0745 45.9062 59.551L45.4482 60.4399L44.9903 61.3289C46.3588 62.0339 47.9826 62.3613 49.8203 62.3613V61.3613ZM45.4482 60.4399L45.9062 59.551C44.8464 59.005 44.0889 58.3234 43.5845 57.5224L42.7383 58.0552L41.892 58.588C42.6162 59.7381 43.6653 60.6463 44.9903 61.3289L45.4482 60.4399ZM42.7383 58.0552L43.5845 57.5224C43.064 56.6957 42.8169 55.8491 42.8169 54.9658H41.8169H40.8169C40.8169 56.2505 41.184 57.4634 41.892 58.588L42.7383 58.0552ZM41.8169 54.9658V55.9658H45.1772V54.9658V53.9658H41.8169V54.9658ZM45.1772 54.9658L44.1786 55.0184C44.2355 56.0993 44.5562 57.0641 45.2248 57.8162L45.9722 57.1519L46.7196 56.4875C46.4246 56.1556 46.2153 55.6631 46.1759 54.9133L45.1772 54.9658ZM45.9722 57.1519L45.2322 57.8245C45.8336 58.486 46.5728 58.9591 47.4314 59.2403L47.7427 58.29L48.054 57.3397C47.5154 57.1633 47.0743 56.8776 46.7121 56.4792L45.9722 57.1519ZM47.7427 58.29L47.4463 59.2451C48.2345 59.4897 49.0269 59.6152 49.8203 59.6152V58.6152V57.6152C49.2407 57.6152 48.6479 57.5239 48.0391 57.335L47.7427 58.29ZM49.8203 58.6152V59.6152C50.8156 59.6152 51.7137 59.4853 52.4798 59.1849L52.1147 58.2539L51.7497 57.3229C51.2873 57.5042 50.6557 57.6152 49.8203 57.6152V58.6152ZM52.1147 58.2539L52.4737 59.1873C53.227 58.8975 53.8709 58.4711 54.3338 57.8711L53.542 57.2603L52.7502 56.6495C52.5627 56.8925 52.2551 57.1285 51.7558 57.3206L52.1147 58.2539ZM53.542 57.2603L54.3338 57.8711C54.7966 57.2711 55.0298 56.5736 55.0298 55.8149H54.0298H53.0298C53.0298 56.1402 52.9378 56.4063 52.7502 56.6495L53.542 57.2603ZM72.8188 54.478L71.9193 54.9149L71.9269 54.9306L71.9351 54.9459L72.8188 54.478ZM71.5361 53.3398L71.0561 54.2171L71.0659 54.2225L71.0758 54.2276L71.5361 53.3398ZM68.6455 52.4365L68.4389 53.415L68.4459 53.4164L68.4529 53.4178L68.6455 52.4365ZM65.7007 51.6235L65.361 52.5641L65.3652 52.5656L65.7007 51.6235ZM63.4785 50.4854L62.8836 51.2892L62.8913 51.2948L63.4785 50.4854ZM62.1055 44.6138L61.2141 44.1603L61.2079 44.1729L62.1055 44.6138ZM63.5688 42.7891L62.9301 42.0196L62.9229 42.0257L63.5688 42.7891ZM75.4023 44.144L74.5587 44.6809L74.5619 44.6859L75.4023 44.144ZM76.2876 47.1973V48.1973H77.2876V47.1973H76.2876ZM72.9453 47.1973H71.9453V48.1973H72.9453V47.1973ZM72.4575 45.6255L71.6018 46.1429L71.6089 46.1547L71.6163 46.1662L72.4575 45.6255ZM71.0664 44.3428L70.5778 45.2153L70.5851 45.2194L71.0664 44.3428ZM66.5859 44.2705L67.0255 45.1688L67.0332 45.1649L66.5859 44.2705ZM65.3394 45.3364L64.4861 44.815L64.4807 44.8237L64.4756 44.8326L65.3394 45.3364ZM65.1406 47.6851L64.2175 48.0697L64.2274 48.0934L64.2385 48.1165L65.1406 47.6851ZM65.8271 48.4619L65.2319 49.2655L65.2417 49.2727L65.2517 49.2797L65.8271 48.4619ZM69.4585 49.7266L69.6785 48.7511L69.6768 48.7507L69.4585 49.7266ZM75.9443 57.9106L75.0529 57.4574L75.0469 57.4695L75.9443 57.9106ZM74.4087 59.7534L75.0156 60.5482L75.0177 60.5466L74.4087 59.7534ZM72.0239 60.9458L72.3136 61.903L72.3215 61.9005L72.0239 60.9458ZM60.9312 54.9658V53.9658H59.9312V54.9658H60.9312ZM64.2915 54.9658L65.2901 54.9133L65.2403 53.9658H64.2915V54.9658ZM65.0864 57.1519L64.339 57.8163L64.3465 57.8245L65.0864 57.1519ZM66.8569 58.29L66.5456 59.2403L66.5531 59.2428L66.5605 59.2451L66.8569 58.29ZM71.229 58.2539L70.87 57.3205L70.8639 57.3229L71.229 58.2539ZM73.144 55.8149H74.144C74.144 55.1768 73.9988 54.5696 73.7026 54.0101L72.8188 54.478L71.9351 54.9459C72.0725 55.2054 72.144 55.4896 72.144 55.8149H73.144ZM72.8188 54.478L73.7184 54.0411C73.3798 53.3442 72.7374 52.8363 71.9964 52.4521L71.5361 53.3398L71.0758 54.2276C71.6357 54.5179 71.8483 54.7688 71.9193 54.9149L72.8188 54.478ZM71.5361 53.3398L72.0161 52.4626C71.2429 52.0395 70.1603 51.7147 68.8381 51.4552L68.6455 52.4365L68.4529 53.4178C69.7082 53.6642 70.5526 53.9416 71.0561 54.2171L71.5361 53.3398ZM68.6455 52.4365L68.8521 51.4581C67.804 51.2368 66.8664 50.9772 66.0362 50.6815L65.7007 51.6235L65.3652 52.5656C66.2934 52.8962 67.319 53.1785 68.4389 53.415L68.6455 52.4365ZM65.7007 51.6235L66.0403 50.683C65.2432 50.3951 64.5898 50.0561 64.0657 49.6759L63.4785 50.4854L62.8913 51.2948C63.5957 51.8059 64.4238 52.2256 65.361 52.5641L65.7007 51.6235ZM63.4785 50.4854L64.0734 49.6815C63.5778 49.3148 63.2164 48.8997 62.9673 48.4384L62.0874 48.9136L61.2075 49.3887C61.6088 50.1319 62.1748 50.7646 62.8837 51.2892L63.4785 50.4854ZM62.0874 48.9136L62.9673 48.4384C62.7339 48.0063 62.5996 47.4706 62.5996 46.7998H61.5996H60.5996C60.5996 47.7429 60.7905 48.6164 61.2075 49.3887L62.0874 48.9136ZM61.5996 46.7998H62.5996C62.5996 46.1806 62.7337 45.6029 63.003 45.0547L62.1055 44.6138L61.2079 44.1729C60.8027 44.9977 60.5996 45.8773 60.5996 46.7998H61.5996ZM62.1055 44.6138L62.9967 45.0672C63.2818 44.5069 63.6834 44.0021 64.2148 43.5524L63.5688 42.7891L62.9229 42.0257C62.2017 42.6359 61.6277 43.3476 61.2142 44.1603L62.1055 44.6138ZM63.5688 42.7891L64.2076 43.5585C64.7398 43.1167 65.3929 42.7569 66.1833 42.4899L65.8633 41.5425L65.5432 40.5951C64.5511 40.9303 63.6746 41.4016 62.9301 42.0197L63.5688 42.7891ZM65.8633 41.5425L66.1833 42.4899C66.9561 42.2288 67.8395 42.0908 68.8442 42.0908V41.0908V40.0908C67.6569 40.0908 66.553 40.2539 65.5432 40.5951L65.8633 41.5425ZM68.8442 41.0908V42.0908C70.2946 42.0908 71.4703 42.3476 72.4078 42.8163L72.855 41.9219L73.3022 41.0274C72.0235 40.3881 70.5254 40.0908 68.8442 40.0908V41.0908ZM72.855 41.9219L72.4078 42.8163C73.3748 43.2998 74.0777 43.9251 74.5587 44.6809L75.4023 44.144L76.246 43.6072C75.5466 42.5081 74.5513 41.652 73.3022 41.0274L72.855 41.9219ZM75.4023 44.144L74.5619 44.6859C75.0448 45.435 75.2876 46.2636 75.2876 47.1973H76.2876H77.2876C77.2876 45.8907 76.9402 44.6839 76.2428 43.6022L75.4023 44.144ZM76.2876 47.1973V46.1973H72.9453V47.1973V48.1973H76.2876V47.1973ZM72.9453 47.1973H73.9453C73.9453 46.4429 73.7158 45.7336 73.2987 45.0847L72.4575 45.6255L71.6163 46.1662C71.8496 46.5291 71.9453 46.8677 71.9453 47.1973H72.9453ZM72.4575 45.6255L73.3133 45.1081C72.8955 44.4172 72.2915 43.8746 71.5477 43.4662L71.0664 44.3428L70.5851 45.2194C71.0698 45.4854 71.3932 45.7979 71.6018 46.1429L72.4575 45.6255ZM71.0664 44.3428L71.555 43.4703C70.768 43.0296 69.8487 42.8369 68.8442 42.8369V43.8369V44.8369C69.5983 44.8369 70.1604 44.9815 70.5778 45.2153L71.0664 44.3428ZM68.8442 43.8369V42.8369C67.8244 42.8369 66.9027 42.9941 66.1387 43.3761L66.5859 44.2705L67.0332 45.1649C67.4254 44.9688 68.0092 44.8369 68.8442 44.8369V43.8369ZM66.5859 44.2705L66.1464 43.3723C65.4504 43.7129 64.8717 44.1839 64.4861 44.815L65.3394 45.3364L66.1926 45.8579C66.337 45.6217 66.5893 45.3822 67.0255 45.1687L66.5859 44.2705ZM65.3394 45.3364L64.4756 44.8326C64.1373 45.4124 63.96 46.0431 63.96 46.7095H64.96H65.96C65.96 46.4123 66.0355 46.1276 66.2031 45.8403L65.3394 45.3364ZM64.96 46.7095H63.96C63.96 47.1827 64.0391 47.6415 64.2175 48.0697L65.1406 47.6851L66.0637 47.3004C66.0012 47.1505 65.96 46.9589 65.96 46.7095H64.96ZM65.1406 47.6851L64.2385 48.1165C64.4602 48.5801 64.8158 48.9572 65.2319 49.2655L65.8271 48.4619L66.4224 47.6584C66.1881 47.4848 66.086 47.3441 66.0428 47.2536L65.1406 47.6851ZM65.8271 48.4619L65.2517 49.2797C65.6836 49.5837 66.2383 49.837 66.8724 50.0571L67.2002 49.1123L67.528 48.1675C66.9818 47.9781 66.621 47.7978 66.4026 47.6441L65.8271 48.4619ZM67.2002 49.1123L66.8724 50.0571C67.5114 50.2788 68.3042 50.4931 69.2402 50.7024L69.4585 49.7266L69.6768 48.7507C68.7821 48.5505 68.0693 48.3554 67.528 48.1675L67.2002 49.1123ZM69.4585 49.7266L69.2385 50.7021C70.7938 51.0529 72.0326 51.4651 72.9762 51.9259L73.415 51.0273L73.8539 50.1288C72.7259 49.5779 71.327 49.1229 69.6785 48.7511L69.4585 49.7266ZM73.415 51.0273L72.9762 51.9259C73.9014 52.3778 74.5201 52.8979 74.9039 53.4553L75.7275 52.8882L76.5512 52.3211C75.9232 51.409 75.0003 50.6886 73.8539 50.1288L73.415 51.0273ZM75.7275 52.8882L74.9039 53.4553C75.2759 53.9956 75.4863 54.6804 75.4863 55.562H76.4863H77.4863C77.4863 54.3479 77.1909 53.2502 76.5512 52.3211L75.7275 52.8882ZM76.4863 55.562H75.4863C75.4863 56.2714 75.3377 56.8973 75.053 57.4574L75.9443 57.9106L76.8357 58.3639C77.2736 57.5028 77.4863 56.563 77.4863 55.562H76.4863ZM75.9443 57.9106L75.0469 57.4695C74.7704 58.0321 74.3614 58.5289 73.7997 58.9603L74.4087 59.7534L75.0177 60.5466C75.8049 59.9421 76.4198 59.2104 76.8418 58.3518L75.9443 57.9106ZM74.4087 59.7534L73.8018 58.9587C73.2463 59.3828 72.5602 59.7312 71.7264 59.9911L72.0239 60.9458L72.3215 61.9005C73.3424 61.5823 74.2462 61.1357 75.0156 60.5482L74.4087 59.7534ZM72.0239 60.9458L71.7343 59.9887C70.9291 60.2323 69.9993 60.3613 68.9346 60.3613V61.3613V62.3613C70.1583 62.3613 71.288 62.2133 72.3136 61.9029L72.0239 60.9458ZM68.9346 61.3613V60.3613C67.3276 60.3613 66.0367 60.0745 65.0205 59.551L64.5625 60.4399L64.1045 61.3289C65.473 62.0339 67.0968 62.3613 68.9346 62.3613V61.3613ZM64.5625 60.4399L65.0205 59.551C63.9607 59.005 63.2032 58.3234 62.6988 57.5224L61.8525 58.0552L61.0063 58.588C61.7304 59.7381 62.7795 60.6463 64.1045 61.3289L64.5625 60.4399ZM61.8525 58.0552L62.6988 57.5224C62.1783 56.6957 61.9312 55.8491 61.9312 54.9658H60.9312H59.9312C59.9312 56.2505 60.2983 57.4634 61.0063 58.588L61.8525 58.0552ZM60.9312 54.9658V55.9658H64.2915V54.9658V53.9658H60.9312V54.9658ZM64.2915 54.9658L63.2929 55.0184C63.3498 56.0993 63.6705 57.0641 64.339 57.8162L65.0864 57.1519L65.8338 56.4875C65.5389 56.1556 65.3296 55.6631 65.2901 54.9133L64.2915 54.9658ZM65.0864 57.1519L64.3465 57.8245C64.9479 58.486 65.6871 58.9591 66.5456 59.2403L66.8569 58.29L67.1682 57.3397C66.6296 57.1633 66.1885 56.8776 65.8264 56.4792L65.0864 57.1519ZM66.8569 58.29L66.5605 59.2451C67.3488 59.4897 68.1412 59.6152 68.9346 59.6152V58.6152V57.6152C68.3549 57.6152 67.7622 57.5239 67.1533 57.335L66.8569 58.29ZM68.9346 58.6152V59.6152C69.9299 59.6152 70.8279 59.4853 71.5941 59.1849L71.229 58.2539L70.8639 57.3229C70.4016 57.5042 69.77 57.6152 68.9346 57.6152V58.6152ZM71.229 58.2539L71.588 59.1873C72.3413 58.8975 72.9851 58.4711 73.448 57.8711L72.6562 57.2603L71.8645 56.6495C71.677 56.8925 71.3693 57.1285 70.87 57.3206L71.229 58.2539ZM72.6562 57.2603L73.448 57.8711C73.9108 57.2711 74.144 56.5736 74.144 55.8149H73.144H72.144C72.144 56.1402 72.0521 56.4063 71.8645 56.6495L72.6562 57.2603Z" fill="black" mask="url(#path-2-outside-1_513_2509)"/>
</g>
<defs>
<clipPath id="clip0_513_2509">
<rect width="96" height="96" fill="white"/>
</clipPath>
</defs>
</svg>
