<svg width="96" height="96" viewBox="0 0 96 96" fill="none" xmlns="http://www.w3.org/2000/svg">
<g clip-path="url(#clip0_584_2218)">
<rect x="0.5" y="0.5" width="95" height="95" rx="14.5" fill="#3A36A5" stroke="black"/>
<mask id="path-2-outside-1_584_2218" maskUnits="userSpaceOnUse" x="8" y="35" width="79" height="24" fill="black">
<rect fill="white" x="8" y="35" width="79" height="24"/>
<path d="M11.7725 37.8047V57H9.22803V37.8047H11.7725ZM19.8145 46.4399V48.5229H11.2188V46.4399H19.8145ZM21.1196 37.8047V39.8877H11.2188V37.8047H21.1196ZM26.4326 36.75V57H23.9805V36.75H26.4326ZM38.7593 54.561V47.2178C38.7593 46.6553 38.645 46.1675 38.4165 45.7544C38.1968 45.3325 37.8628 45.0073 37.4146 44.7788C36.9663 44.5503 36.4126 44.436 35.7534 44.436C35.1382 44.436 34.5977 44.5415 34.1318 44.7524C33.6748 44.9634 33.3145 45.2402 33.0508 45.583C32.7959 45.9258 32.6685 46.2949 32.6685 46.6904H30.2295C30.2295 46.1807 30.3613 45.6753 30.625 45.1743C30.8887 44.6733 31.2666 44.2207 31.7588 43.8164C32.2598 43.4033 32.8574 43.0781 33.5518 42.8408C34.2549 42.5947 35.0371 42.4717 35.8984 42.4717C36.9355 42.4717 37.8496 42.6475 38.6406 42.999C39.4404 43.3506 40.0645 43.8823 40.5127 44.5942C40.9697 45.2974 41.1982 46.1807 41.1982 47.2441V53.8887C41.1982 54.3633 41.2378 54.8687 41.3169 55.4048C41.4048 55.9409 41.5322 56.4023 41.6992 56.7891V57H39.1548C39.0317 56.7188 38.9351 56.3452 38.8647 55.8794C38.7944 55.4048 38.7593 54.9653 38.7593 54.561ZM39.1812 48.3516L39.2075 50.0654H36.7422C36.0479 50.0654 35.4282 50.1226 34.8833 50.2368C34.3384 50.3423 33.8813 50.5049 33.5122 50.7246C33.1431 50.9443 32.8618 51.2212 32.6685 51.5552C32.4751 51.8804 32.3784 52.2627 32.3784 52.7021C32.3784 53.1504 32.4795 53.5591 32.6816 53.9282C32.8838 54.2974 33.187 54.5918 33.5913 54.8115C34.0044 55.0225 34.5098 55.1279 35.1074 55.1279C35.8545 55.1279 36.5137 54.9697 37.085 54.6533C37.6562 54.3369 38.1089 53.9502 38.4429 53.4932C38.7856 53.0361 38.9702 52.5923 38.9966 52.1616L40.0381 53.335C39.9766 53.7041 39.8096 54.1128 39.5371 54.561C39.2646 55.0093 38.8999 55.4399 38.4429 55.853C37.9946 56.2573 37.4585 56.5957 36.8345 56.8682C36.2192 57.1318 35.5249 57.2637 34.7515 57.2637C33.7847 57.2637 32.9365 57.0747 32.207 56.6968C31.4863 56.3188 30.9238 55.8135 30.5195 55.1807C30.124 54.5391 29.9263 53.8228 29.9263 53.0317C29.9263 52.2671 30.0757 51.5947 30.3745 51.0146C30.6733 50.4258 31.104 49.938 31.6665 49.5513C32.229 49.1558 32.9058 48.8569 33.6968 48.6548C34.4878 48.4526 35.3711 48.3516 36.3467 48.3516H39.1812ZM47.4604 45.5698V57H45.0083V42.7354H47.3286L47.4604 45.5698ZM46.9595 49.3271L45.8257 49.2876C45.8345 48.312 45.9619 47.4111 46.208 46.585C46.4541 45.75 46.8188 45.0249 47.3022 44.4097C47.7856 43.7944 48.3877 43.3198 49.1084 42.9858C49.8291 42.6431 50.6641 42.4717 51.6133 42.4717C52.2812 42.4717 52.8965 42.5684 53.459 42.7617C54.0215 42.9463 54.5093 43.2407 54.9224 43.645C55.3354 44.0493 55.6562 44.5679 55.8848 45.2007C56.1133 45.8335 56.2275 46.5981 56.2275 47.4946V57H53.7886V47.6133C53.7886 46.8662 53.6611 46.2686 53.4062 45.8203C53.1602 45.3721 52.8086 45.0469 52.3516 44.8447C51.8945 44.6338 51.3584 44.5283 50.7432 44.5283C50.0225 44.5283 49.4204 44.6558 48.937 44.9106C48.4536 45.1655 48.0669 45.5171 47.7769 45.9653C47.4868 46.4136 47.2759 46.9277 47.144 47.5078C47.021 48.0791 46.9595 48.6855 46.9595 49.3271ZM56.2012 47.9824L54.5664 48.4834C54.5752 47.7012 54.7026 46.9497 54.9487 46.229C55.2036 45.5083 55.5684 44.8667 56.043 44.3042C56.5264 43.7417 57.1196 43.2979 57.8228 42.9727C58.5259 42.6387 59.3301 42.4717 60.2354 42.4717C61 42.4717 61.6768 42.5728 62.2656 42.7749C62.8633 42.9771 63.3643 43.2891 63.7686 43.7109C64.1816 44.124 64.4937 44.6558 64.7046 45.3062C64.9155 45.9565 65.021 46.73 65.021 47.6265V57H62.5688V47.6001C62.5688 46.8003 62.4414 46.1807 62.1865 45.7412C61.9404 45.293 61.5889 44.981 61.1318 44.8052C60.6836 44.6206 60.1475 44.5283 59.5234 44.5283C58.9873 44.5283 58.5127 44.6206 58.0996 44.8052C57.6865 44.9897 57.3394 45.2446 57.0581 45.5698C56.7769 45.8862 56.5615 46.251 56.4121 46.6641C56.2715 47.0771 56.2012 47.5166 56.2012 47.9824ZM74.6318 57.2637C73.6387 57.2637 72.7378 57.0967 71.9292 56.7627C71.1294 56.4199 70.4395 55.9409 69.8594 55.3257C69.2881 54.7104 68.8486 53.981 68.541 53.1372C68.2334 52.2935 68.0796 51.3706 68.0796 50.3687V49.8149C68.0796 48.6548 68.251 47.6221 68.5938 46.7168C68.9365 45.8027 69.4023 45.0293 69.9912 44.3965C70.5801 43.7637 71.248 43.2847 71.9951 42.9595C72.7422 42.6343 73.5156 42.4717 74.3154 42.4717C75.335 42.4717 76.2139 42.6475 76.9521 42.999C77.6992 43.3506 78.3101 43.8428 78.7847 44.4756C79.2593 45.0996 79.6108 45.8379 79.8394 46.6904C80.0679 47.5342 80.1821 48.457 80.1821 49.459V50.5532H69.5298V48.5625H77.7432V48.3779C77.708 47.7451 77.5762 47.1299 77.3477 46.5322C77.1279 45.9346 76.7764 45.4424 76.293 45.0557C75.8096 44.6689 75.1504 44.4756 74.3154 44.4756C73.7617 44.4756 73.252 44.5942 72.7861 44.8315C72.3203 45.0601 71.9204 45.4028 71.5864 45.8599C71.2524 46.3169 70.9932 46.875 70.8086 47.5342C70.624 48.1934 70.5317 48.9536 70.5317 49.8149V50.3687C70.5317 51.0454 70.624 51.6826 70.8086 52.2803C71.002 52.8691 71.2788 53.3877 71.6392 53.8359C72.0083 54.2842 72.4521 54.6357 72.9707 54.8906C73.498 55.1455 74.0957 55.2729 74.7637 55.2729C75.625 55.2729 76.3545 55.0972 76.9521 54.7456C77.5498 54.394 78.0728 53.9238 78.521 53.335L79.9976 54.5083C79.6899 54.9741 79.2988 55.418 78.8242 55.8398C78.3496 56.2617 77.7651 56.6045 77.0708 56.8682C76.3853 57.1318 75.5723 57.2637 74.6318 57.2637ZM85.6797 36.75V57H83.2275V36.75H85.6797Z"/>
</mask>
<path d="M11.7725 37.8047V57H9.22803V37.8047H11.7725ZM19.8145 46.4399V48.5229H11.2188V46.4399H19.8145ZM21.1196 37.8047V39.8877H11.2188V37.8047H21.1196ZM26.4326 36.75V57H23.9805V36.75H26.4326ZM38.7593 54.561V47.2178C38.7593 46.6553 38.645 46.1675 38.4165 45.7544C38.1968 45.3325 37.8628 45.0073 37.4146 44.7788C36.9663 44.5503 36.4126 44.436 35.7534 44.436C35.1382 44.436 34.5977 44.5415 34.1318 44.7524C33.6748 44.9634 33.3145 45.2402 33.0508 45.583C32.7959 45.9258 32.6685 46.2949 32.6685 46.6904H30.2295C30.2295 46.1807 30.3613 45.6753 30.625 45.1743C30.8887 44.6733 31.2666 44.2207 31.7588 43.8164C32.2598 43.4033 32.8574 43.0781 33.5518 42.8408C34.2549 42.5947 35.0371 42.4717 35.8984 42.4717C36.9355 42.4717 37.8496 42.6475 38.6406 42.999C39.4404 43.3506 40.0645 43.8823 40.5127 44.5942C40.9697 45.2974 41.1982 46.1807 41.1982 47.2441V53.8887C41.1982 54.3633 41.2378 54.8687 41.3169 55.4048C41.4048 55.9409 41.5322 56.4023 41.6992 56.7891V57H39.1548C39.0317 56.7188 38.9351 56.3452 38.8647 55.8794C38.7944 55.4048 38.7593 54.9653 38.7593 54.561ZM39.1812 48.3516L39.2075 50.0654H36.7422C36.0479 50.0654 35.4282 50.1226 34.8833 50.2368C34.3384 50.3423 33.8813 50.5049 33.5122 50.7246C33.1431 50.9443 32.8618 51.2212 32.6685 51.5552C32.4751 51.8804 32.3784 52.2627 32.3784 52.7021C32.3784 53.1504 32.4795 53.5591 32.6816 53.9282C32.8838 54.2974 33.187 54.5918 33.5913 54.8115C34.0044 55.0225 34.5098 55.1279 35.1074 55.1279C35.8545 55.1279 36.5137 54.9697 37.085 54.6533C37.6562 54.3369 38.1089 53.9502 38.4429 53.4932C38.7856 53.0361 38.9702 52.5923 38.9966 52.1616L40.0381 53.335C39.9766 53.7041 39.8096 54.1128 39.5371 54.561C39.2646 55.0093 38.8999 55.4399 38.4429 55.853C37.9946 56.2573 37.4585 56.5957 36.8345 56.8682C36.2192 57.1318 35.5249 57.2637 34.7515 57.2637C33.7847 57.2637 32.9365 57.0747 32.207 56.6968C31.4863 56.3188 30.9238 55.8135 30.5195 55.1807C30.124 54.5391 29.9263 53.8228 29.9263 53.0317C29.9263 52.2671 30.0757 51.5947 30.3745 51.0146C30.6733 50.4258 31.104 49.938 31.6665 49.5513C32.229 49.1558 32.9058 48.8569 33.6968 48.6548C34.4878 48.4526 35.3711 48.3516 36.3467 48.3516H39.1812ZM47.4604 45.5698V57H45.0083V42.7354H47.3286L47.4604 45.5698ZM46.9595 49.3271L45.8257 49.2876C45.8345 48.312 45.9619 47.4111 46.208 46.585C46.4541 45.75 46.8188 45.0249 47.3022 44.4097C47.7856 43.7944 48.3877 43.3198 49.1084 42.9858C49.8291 42.6431 50.6641 42.4717 51.6133 42.4717C52.2812 42.4717 52.8965 42.5684 53.459 42.7617C54.0215 42.9463 54.5093 43.2407 54.9224 43.645C55.3354 44.0493 55.6562 44.5679 55.8848 45.2007C56.1133 45.8335 56.2275 46.5981 56.2275 47.4946V57H53.7886V47.6133C53.7886 46.8662 53.6611 46.2686 53.4062 45.8203C53.1602 45.3721 52.8086 45.0469 52.3516 44.8447C51.8945 44.6338 51.3584 44.5283 50.7432 44.5283C50.0225 44.5283 49.4204 44.6558 48.937 44.9106C48.4536 45.1655 48.0669 45.5171 47.7769 45.9653C47.4868 46.4136 47.2759 46.9277 47.144 47.5078C47.021 48.0791 46.9595 48.6855 46.9595 49.3271ZM56.2012 47.9824L54.5664 48.4834C54.5752 47.7012 54.7026 46.9497 54.9487 46.229C55.2036 45.5083 55.5684 44.8667 56.043 44.3042C56.5264 43.7417 57.1196 43.2979 57.8228 42.9727C58.5259 42.6387 59.3301 42.4717 60.2354 42.4717C61 42.4717 61.6768 42.5728 62.2656 42.7749C62.8633 42.9771 63.3643 43.2891 63.7686 43.7109C64.1816 44.124 64.4937 44.6558 64.7046 45.3062C64.9155 45.9565 65.021 46.73 65.021 47.6265V57H62.5688V47.6001C62.5688 46.8003 62.4414 46.1807 62.1865 45.7412C61.9404 45.293 61.5889 44.981 61.1318 44.8052C60.6836 44.6206 60.1475 44.5283 59.5234 44.5283C58.9873 44.5283 58.5127 44.6206 58.0996 44.8052C57.6865 44.9897 57.3394 45.2446 57.0581 45.5698C56.7769 45.8862 56.5615 46.251 56.4121 46.6641C56.2715 47.0771 56.2012 47.5166 56.2012 47.9824ZM74.6318 57.2637C73.6387 57.2637 72.7378 57.0967 71.9292 56.7627C71.1294 56.4199 70.4395 55.9409 69.8594 55.3257C69.2881 54.7104 68.8486 53.981 68.541 53.1372C68.2334 52.2935 68.0796 51.3706 68.0796 50.3687V49.8149C68.0796 48.6548 68.251 47.6221 68.5938 46.7168C68.9365 45.8027 69.4023 45.0293 69.9912 44.3965C70.5801 43.7637 71.248 43.2847 71.9951 42.9595C72.7422 42.6343 73.5156 42.4717 74.3154 42.4717C75.335 42.4717 76.2139 42.6475 76.9521 42.999C77.6992 43.3506 78.3101 43.8428 78.7847 44.4756C79.2593 45.0996 79.6108 45.8379 79.8394 46.6904C80.0679 47.5342 80.1821 48.457 80.1821 49.459V50.5532H69.5298V48.5625H77.7432V48.3779C77.708 47.7451 77.5762 47.1299 77.3477 46.5322C77.1279 45.9346 76.7764 45.4424 76.293 45.0557C75.8096 44.6689 75.1504 44.4756 74.3154 44.4756C73.7617 44.4756 73.252 44.5942 72.7861 44.8315C72.3203 45.0601 71.9204 45.4028 71.5864 45.8599C71.2524 46.3169 70.9932 46.875 70.8086 47.5342C70.624 48.1934 70.5317 48.9536 70.5317 49.8149V50.3687C70.5317 51.0454 70.624 51.6826 70.8086 52.2803C71.002 52.8691 71.2788 53.3877 71.6392 53.8359C72.0083 54.2842 72.4521 54.6357 72.9707 54.8906C73.498 55.1455 74.0957 55.2729 74.7637 55.2729C75.625 55.2729 76.3545 55.0972 76.9521 54.7456C77.5498 54.394 78.0728 53.9238 78.521 53.335L79.9976 54.5083C79.6899 54.9741 79.2988 55.418 78.8242 55.8398C78.3496 56.2617 77.7651 56.6045 77.0708 56.8682C76.3853 57.1318 75.5723 57.2637 74.6318 57.2637ZM85.6797 36.75V57H83.2275V36.75H85.6797Z" fill="white"/>
<path d="M11.7725 37.8047H12.7725V36.8047H11.7725V37.8047ZM11.7725 57V58H12.7725V57H11.7725ZM9.22803 57H8.22803V58H9.22803V57ZM9.22803 37.8047V36.8047H8.22803V37.8047H9.22803ZM19.8145 46.4399H20.8145V45.4399H19.8145V46.4399ZM19.8145 48.5229V49.5229H20.8145V48.5229H19.8145ZM11.2188 48.5229H10.2188V49.5229H11.2188V48.5229ZM11.2188 46.4399V45.4399H10.2188V46.4399H11.2188ZM21.1196 37.8047H22.1196V36.8047H21.1196V37.8047ZM21.1196 39.8877V40.8877H22.1196V39.8877H21.1196ZM11.2188 39.8877H10.2188V40.8877H11.2188V39.8877ZM11.2188 37.8047V36.8047H10.2188V37.8047H11.2188ZM11.7725 37.8047H10.7725V57H11.7725H12.7725V37.8047H11.7725ZM11.7725 57V56H9.22803V57V58H11.7725V57ZM9.22803 57H10.228V37.8047H9.22803H8.22803V57H9.22803ZM9.22803 37.8047V38.8047H11.7725V37.8047V36.8047H9.22803V37.8047ZM19.8145 46.4399H18.8145V48.5229H19.8145H20.8145V46.4399H19.8145ZM19.8145 48.5229V47.5229H11.2188V48.5229V49.5229H19.8145V48.5229ZM11.2188 48.5229H12.2188V46.4399H11.2188H10.2188V48.5229H11.2188ZM11.2188 46.4399V47.4399H19.8145V46.4399V45.4399H11.2188V46.4399ZM21.1196 37.8047H20.1196V39.8877H21.1196H22.1196V37.8047H21.1196ZM21.1196 39.8877V38.8877H11.2188V39.8877V40.8877H21.1196V39.8877ZM11.2188 39.8877H12.2188V37.8047H11.2188H10.2188V39.8877H11.2188ZM11.2188 37.8047V38.8047H21.1196V37.8047V36.8047H11.2188V37.8047ZM26.4326 36.75H27.4326V35.75H26.4326V36.75ZM26.4326 57V58H27.4326V57H26.4326ZM23.9805 57H22.9805V58H23.9805V57ZM23.9805 36.75V35.75H22.9805V36.75H23.9805ZM26.4326 36.75H25.4326V57H26.4326H27.4326V36.75H26.4326ZM26.4326 57V56H23.9805V57V58H26.4326V57ZM23.9805 57H24.9805V36.75H23.9805H22.9805V57H23.9805ZM23.9805 36.75V37.75H26.4326V36.75V35.75H23.9805V36.75ZM38.4165 45.7544L37.5296 46.2163L37.5354 46.2275L37.5415 46.2385L38.4165 45.7544ZM34.1318 44.7524L33.7193 43.8415L33.7128 43.8445L34.1318 44.7524ZM33.0508 45.583L32.2582 44.9733L32.2532 44.9798L32.2483 44.9863L33.0508 45.583ZM32.6685 46.6904V47.6904H33.6685V46.6904H32.6685ZM30.2295 46.6904H29.2295V47.6904H30.2295V46.6904ZM31.7588 43.8164L32.3935 44.5891L32.395 44.5879L31.7588 43.8164ZM33.5518 42.8408L33.8752 43.7871L33.8821 43.7847L33.5518 42.8408ZM38.6406 42.999L38.2345 43.9128L38.2382 43.9145L38.6406 42.999ZM40.5127 44.5942L39.6665 45.1271L39.6703 45.1332L39.6743 45.1392L40.5127 44.5942ZM41.3169 55.4048L40.3276 55.5507L40.3288 55.5587L40.3301 55.5666L41.3169 55.4048ZM41.6992 56.7891H42.6992V56.5824L42.6173 56.3926L41.6992 56.7891ZM41.6992 57V58H42.6992V57H41.6992ZM39.1548 57L38.2386 57.4008L38.5008 58H39.1548V57ZM38.8647 55.8794L37.8755 56.0259L37.8759 56.0286L38.8647 55.8794ZM39.1812 48.3516L40.181 48.3362L40.1659 47.3516H39.1812V48.3516ZM39.2075 50.0654V51.0654H40.223L40.2074 50.05L39.2075 50.0654ZM34.8833 50.2368L35.0733 51.2186L35.0809 51.2171L35.0885 51.2155L34.8833 50.2368ZM32.6685 51.5552L33.5281 52.0663L33.5339 52.0562L32.6685 51.5552ZM32.6816 53.9282L31.8045 54.4085L32.6816 53.9282ZM33.5913 54.8115L33.1138 55.6901L33.1251 55.6963L33.1365 55.7021L33.5913 54.8115ZM38.4429 53.4932L37.6428 52.8931L37.6355 52.9031L38.4429 53.4932ZM38.9966 52.1616L39.7445 51.4978L38.1456 49.6966L37.9985 52.1005L38.9966 52.1616ZM40.0381 53.335L41.0245 53.4994L41.103 53.0283L40.786 52.6711L40.0381 53.335ZM38.4429 55.853L39.1126 56.5956L39.1134 56.5949L38.4429 55.853ZM36.8345 56.8682L37.2284 57.7873L37.2346 57.7846L36.8345 56.8682ZM32.207 56.6968L31.7426 57.5824L31.747 57.5847L32.207 56.6968ZM30.5195 55.1807L29.6683 55.7054L29.6725 55.7123L29.6768 55.7191L30.5195 55.1807ZM30.3745 51.0146L31.2635 51.4726L31.2663 51.4672L30.3745 51.0146ZM31.6665 49.5513L32.2331 50.3754L32.2417 50.3693L31.6665 49.5513ZM38.7593 54.561H39.7593V47.2178H38.7593H37.7593V54.561H38.7593ZM38.7593 47.2178H39.7593C39.7593 46.5184 39.6164 45.8576 39.2915 45.2703L38.4165 45.7544L37.5415 46.2385C37.6736 46.4774 37.7593 46.7922 37.7593 47.2178H38.7593ZM38.4165 45.7544L39.3034 45.2925C38.9819 44.6751 38.491 44.2051 37.8687 43.8879L37.4146 44.7788L36.9604 45.6697C37.2346 45.8095 37.4117 45.99 37.5296 46.2163L38.4165 45.7544ZM37.4146 44.7788L37.8687 43.8879C37.2431 43.569 36.5233 43.436 35.7534 43.436V44.436V45.436C36.3019 45.436 36.6895 45.5316 36.9604 45.6697L37.4146 44.7788ZM35.7534 44.436V43.436C35.0243 43.436 34.3383 43.5612 33.7193 43.8415L34.1318 44.7524L34.5443 45.6634C34.857 45.5218 35.2521 45.436 35.7534 45.436V44.436ZM34.1318 44.7524L33.7128 43.8445C33.1331 44.112 32.6354 44.4828 32.2582 44.9733L33.0508 45.583L33.8434 46.1927C33.9935 45.9976 34.2165 45.8147 34.5509 45.6604L34.1318 44.7524ZM33.0508 45.583L32.2483 44.9863C31.876 45.487 31.6685 46.0624 31.6685 46.6904H32.6685H33.6685C33.6685 46.5274 33.7158 46.3646 33.8532 46.1797L33.0508 45.583ZM32.6685 46.6904V45.6904H30.2295V46.6904V47.6904H32.6685V46.6904ZM30.2295 46.6904H31.2295C31.2295 46.3603 31.3133 46.0136 31.5099 45.6401L30.625 45.1743L29.7401 44.7086C29.4093 45.337 29.2295 46.0011 29.2295 46.6904H30.2295ZM30.625 45.1743L31.5099 45.6401C31.7042 45.271 31.9915 44.9194 32.3935 44.5891L31.7588 43.8164L31.124 43.0437C30.5417 43.522 30.0732 44.0757 29.7401 44.7086L30.625 45.1743ZM31.7588 43.8164L32.395 44.5879C32.7918 44.2607 33.2801 43.9905 33.8752 43.7871L33.5518 42.8408L33.2284 41.8946C32.4348 42.1658 31.7277 42.5459 31.1226 43.0449L31.7588 43.8164ZM33.5518 42.8408L33.8821 43.7847C34.4639 43.581 35.1323 43.4717 35.8984 43.4717V42.4717V41.4717C34.9419 41.4717 34.0459 41.6084 33.2214 41.897L33.5518 42.8408ZM35.8984 42.4717V43.4717C36.8229 43.4717 37.5941 43.6282 38.2345 43.9128L38.6406 42.999L39.0468 42.0852C38.1051 41.6667 37.0482 41.4717 35.8984 41.4717V42.4717ZM38.6406 42.999L38.2382 43.9145C38.8627 44.189 39.3289 44.5909 39.6665 45.1271L40.5127 44.5942L41.3589 44.0614C40.8 43.1737 40.0182 42.5122 39.043 42.0836L38.6406 42.999ZM40.5127 44.5942L39.6743 45.1392C40.0009 45.6417 40.1982 46.3225 40.1982 47.2441H41.1982H42.1982C42.1982 46.0388 41.9386 44.953 41.3511 44.0492L40.5127 44.5942ZM41.1982 47.2441H40.1982V53.8887H41.1982H42.1982V47.2441H41.1982ZM41.1982 53.8887H40.1982C40.1982 54.4184 40.2424 54.9729 40.3276 55.5507L41.3169 55.4048L42.3062 55.2588C42.2332 54.7644 42.1982 54.3081 42.1982 53.8887H41.1982ZM41.3169 55.4048L40.3301 55.5666C40.4276 56.1615 40.574 56.7057 40.7812 57.1855L41.6992 56.7891L42.6173 56.3926C42.4905 56.099 42.382 55.7204 42.3037 55.243L41.3169 55.4048ZM41.6992 56.7891H40.6992V57H41.6992H42.6992V56.7891H41.6992ZM41.6992 57V56H39.1548V57V58H41.6992V57ZM39.1548 57L40.0709 56.5992C39.9965 56.4289 39.917 56.1502 39.8535 55.7301L38.8647 55.8794L37.8759 56.0286C37.9532 56.5402 38.067 57.0086 38.2386 57.4008L39.1548 57ZM38.8647 55.8794L39.8539 55.7328C39.7895 55.2981 39.7593 54.9082 39.7593 54.561H38.7593H37.7593C37.7593 55.0224 37.7993 55.5115 37.8755 56.0259L38.8647 55.8794ZM39.1812 48.3516L38.1813 48.3669L38.2076 50.0808L39.2075 50.0654L40.2074 50.05L40.181 48.3362L39.1812 48.3516ZM39.2075 50.0654V49.0654H36.7422V50.0654V51.0654H39.2075V50.0654ZM36.7422 50.0654V49.0654C35.995 49.0654 35.3046 49.1267 34.6781 49.2581L34.8833 50.2368L35.0885 51.2155C35.5518 51.1184 36.1007 51.0654 36.7422 51.0654V50.0654ZM34.8833 50.2368L34.6933 49.255C34.0664 49.3764 33.4934 49.5721 33.0007 49.8653L33.5122 50.7246L34.0237 51.5839C34.2693 51.4377 34.6104 51.3082 35.0733 51.2186L34.8833 50.2368ZM33.5122 50.7246L33.0007 49.8653C32.5019 50.1622 32.0912 50.5563 31.803 51.0541L32.6685 51.5552L33.5339 52.0562C33.6324 51.8861 33.7842 51.7264 34.0237 51.5839L33.5122 50.7246ZM32.6685 51.5552L31.8089 51.0441C31.5097 51.5474 31.3784 52.1123 31.3784 52.7021H32.3784H33.3784C33.3784 52.4131 33.4405 52.2133 33.528 52.0663L32.6685 51.5552ZM32.3784 52.7021H31.3784C31.3784 53.307 31.5165 53.8826 31.8045 54.4085L32.6816 53.9282L33.5587 53.4479C33.4425 53.2356 33.3784 52.9938 33.3784 52.7021H32.3784ZM32.6816 53.9282L31.8045 54.4085C32.1075 54.9617 32.5572 55.3876 33.1138 55.6901L33.5913 54.8115L34.0688 53.9329C33.8168 53.7959 33.6601 53.6331 33.5587 53.4479L32.6816 53.9282ZM33.5913 54.8115L33.1365 55.7021C33.7251 56.0027 34.3958 56.1279 35.1074 56.1279V55.1279V54.1279C34.6237 54.1279 34.2837 54.0422 34.0461 53.9209L33.5913 54.8115ZM35.1074 55.1279V56.1279C35.9993 56.1279 36.8297 55.9378 37.5695 55.5281L37.085 54.6533L36.6005 53.7785C36.1977 54.0016 35.7097 54.1279 35.1074 54.1279V55.1279ZM37.085 54.6533L37.5695 55.5281C38.2483 55.1521 38.8184 54.6742 39.2503 54.0832L38.4429 53.4932L37.6355 52.9031C37.3994 53.2262 37.0642 53.5217 36.6005 53.7785L37.085 54.6533ZM38.4429 53.4932L39.2429 54.0932C39.6656 53.5295 39.9531 52.9025 39.9947 52.2227L38.9966 52.1616L37.9985 52.1005C37.9873 52.2821 37.9056 52.5428 37.6429 52.8932L38.4429 53.4932ZM38.9966 52.1616L38.2487 52.8255L39.2902 53.9988L40.0381 53.335L40.786 52.6711L39.7445 51.4978L38.9966 52.1616ZM40.0381 53.335L39.0517 53.1706C39.0177 53.3745 38.9135 53.6617 38.6826 54.0416L39.5371 54.561L40.3916 55.0805C40.7056 54.5639 40.9354 54.0337 41.0245 53.4994L40.0381 53.335ZM39.5371 54.561L38.6826 54.0416C38.4682 54.3943 38.1698 54.7519 37.7723 55.1112L38.4429 55.853L39.1134 56.5949C39.63 56.1279 40.0611 55.6243 40.3916 55.0805L39.5371 54.561ZM38.4429 55.853L37.7731 55.1105C37.4143 55.4341 36.9722 55.7169 36.4343 55.9517L36.8345 56.8682L37.2346 57.7846C37.9448 57.4745 38.575 57.0806 39.1126 56.5956L38.4429 55.853ZM36.8345 56.8682L36.4406 55.949C35.9677 56.1517 35.4104 56.2637 34.7515 56.2637V57.2637V58.2637C35.6394 58.2637 36.4708 58.112 37.2284 57.7873L36.8345 56.8682ZM34.7515 57.2637V56.2637C33.9165 56.2637 33.2313 56.1012 32.667 55.8089L32.207 56.6968L31.747 57.5847C32.6418 58.0482 33.6528 58.2637 34.7515 58.2637V57.2637ZM32.207 56.6968L32.6714 55.8112C32.0916 55.5071 31.665 55.1162 31.3622 54.6423L30.5195 55.1807L29.6768 55.7191C30.1826 56.5107 30.881 57.1306 31.7426 57.5824L32.207 56.6968ZM30.5195 55.1807L31.3708 54.6559C31.0774 54.18 30.9263 53.647 30.9263 53.0317H29.9263H28.9263C28.9263 53.9985 29.1706 54.8981 29.6683 55.7054L30.5195 55.1807ZM29.9263 53.0317H30.9263C30.9263 52.3991 31.0492 51.8886 31.2635 51.4726L30.3745 51.0146L29.4855 50.5567C29.1022 51.3009 28.9263 52.1351 28.9263 53.0317H29.9263ZM30.3745 51.0146L31.2663 51.4672C31.4868 51.0325 31.8035 50.6706 32.233 50.3753L31.6665 49.5513L31.1 48.7272C30.4045 49.2053 29.8598 49.819 29.4828 50.5621L30.3745 51.0146ZM31.6665 49.5513L32.2417 50.3693C32.6884 50.0552 33.2493 49.8013 33.9444 49.6236L33.6968 48.6548L33.4492 47.6859C32.5622 47.9126 31.7696 48.2563 31.0913 48.7332L31.6665 49.5513ZM33.6968 48.6548L33.9444 49.6236C34.6406 49.4457 35.4389 49.3516 36.3467 49.3516V48.3516V47.3516C35.3033 47.3516 34.335 47.4595 33.4492 47.6859L33.6968 48.6548ZM36.3467 48.3516V49.3516H39.1812V48.3516V47.3516H36.3467V48.3516ZM47.4604 45.5698H48.4604V45.5466L48.4594 45.5234L47.4604 45.5698ZM47.4604 57V58H48.4604V57H47.4604ZM45.0083 57H44.0083V58H45.0083V57ZM45.0083 42.7354V41.7354H44.0083V42.7354H45.0083ZM47.3286 42.7354L48.3275 42.6889L48.2832 41.7354H47.3286V42.7354ZM46.9595 49.3271L46.9246 50.3265L47.9595 50.3626V49.3271H46.9595ZM45.8257 49.2876L44.8257 49.2786L44.8169 50.253L45.7908 50.287L45.8257 49.2876ZM46.208 46.585L47.1664 46.8704L47.1672 46.8677L46.208 46.585ZM49.1084 42.9858L49.5289 43.8932L49.5379 43.8889L49.1084 42.9858ZM53.459 42.7617L53.1339 43.7075L53.1472 43.7119L53.459 42.7617ZM54.9224 43.645L54.2229 44.3597L54.9224 43.645ZM56.2275 57V58H57.2275V57H56.2275ZM53.7886 57H52.7886V58H53.7886V57ZM53.4062 45.8203L52.5297 46.3016L52.5333 46.3081L52.537 46.3146L53.4062 45.8203ZM52.3516 44.8447L51.9325 45.7527L51.9398 45.756L51.9471 45.7593L52.3516 44.8447ZM47.144 47.5078L46.1688 47.2862L46.1665 47.2973L47.144 47.5078ZM56.2012 47.9824L56.4942 48.9385L57.2012 48.7219V47.9824H56.2012ZM54.5664 48.4834L53.5665 48.4722L53.5511 49.8404L54.8594 49.4395L54.5664 48.4834ZM54.9487 46.229L54.0059 45.8956L54.0024 45.9059L54.9487 46.229ZM56.043 44.3042L55.2845 43.6524L55.2787 43.6593L56.043 44.3042ZM57.8228 42.9727L58.2426 43.8803L58.2518 43.8759L57.8228 42.9727ZM62.2656 42.7749L61.9409 43.7207L61.9452 43.7222L62.2656 42.7749ZM63.7686 43.7109L63.0466 44.4028L63.0539 44.4105L63.0614 44.418L63.7686 43.7109ZM65.021 57V58H66.021V57H65.021ZM62.5688 57H61.5688V58H62.5688V57ZM62.1865 45.7412L61.3099 46.2225L61.3156 46.2328L61.3215 46.2429L62.1865 45.7412ZM61.1318 44.8052L60.7511 45.7299L60.7619 45.7343L60.7729 45.7385L61.1318 44.8052ZM57.0581 45.5698L57.8056 46.2342L57.8145 46.224L57.0581 45.5698ZM56.4121 46.6641L55.4717 46.3239L55.4685 46.3328L55.4655 46.3418L56.4121 46.6641ZM47.4604 45.5698H46.4604V57H47.4604H48.4604V45.5698H47.4604ZM47.4604 57V56H45.0083V57V58H47.4604V57ZM45.0083 57H46.0083V42.7354H45.0083H44.0083V57H45.0083ZM45.0083 42.7354V43.7354H47.3286V42.7354V41.7354H45.0083V42.7354ZM47.3286 42.7354L46.3297 42.7818L46.4615 45.6163L47.4604 45.5698L48.4594 45.5234L48.3275 42.6889L47.3286 42.7354ZM46.9595 49.3271L46.9943 48.3278L45.8605 48.2882L45.8257 49.2876L45.7908 50.287L46.9246 50.3265L46.9595 49.3271ZM45.8257 49.2876L46.8256 49.2966C46.8337 48.4026 46.9503 47.5959 47.1664 46.8704L46.208 46.585L45.2496 46.2995C44.9735 47.2263 44.8352 48.2215 44.8257 49.2786L45.8257 49.2876ZM46.208 46.585L47.1672 46.8677C47.3815 46.1407 47.6919 45.5324 48.0886 45.0275L47.3022 44.4097L46.5159 43.7918C45.9458 44.5174 45.5267 45.3593 45.2488 46.3022L46.208 46.585ZM47.3022 44.4097L48.0886 45.0275C48.473 44.5382 48.949 44.1619 49.5289 43.8932L49.1084 42.9858L48.6879 42.0785C47.8264 42.4778 47.0983 43.0507 46.5159 43.7918L47.3022 44.4097ZM49.1084 42.9858L49.5379 43.8889C50.1014 43.6209 50.7848 43.4717 51.6133 43.4717V42.4717V41.4717C50.5433 41.4717 49.5568 41.6652 48.6789 42.0828L49.1084 42.9858ZM51.6133 42.4717V43.4717C52.1841 43.4717 52.688 43.5541 53.1339 43.7074L53.459 42.7617L53.7841 41.816C53.1049 41.5826 52.3784 41.4717 51.6133 41.4717V42.4717ZM53.459 42.7617L53.1472 43.7119C53.5678 43.8499 53.922 44.0652 54.2229 44.3597L54.9224 43.645L55.6218 42.9304C55.0965 42.4162 54.4752 42.0427 53.7708 41.8116L53.459 42.7617ZM54.9224 43.645L54.2229 44.3597C54.5121 44.6428 54.7585 45.0259 54.9442 45.5403L55.8848 45.2007L56.8253 44.861C56.554 44.1098 56.1588 43.4559 55.6218 42.9304L54.9224 43.645ZM55.8848 45.2007L54.9442 45.5403C55.1227 46.0347 55.2275 46.6778 55.2275 47.4946H56.2275H57.2275C57.2275 46.5185 57.1038 45.6323 56.8253 44.861L55.8848 45.2007ZM56.2275 47.4946H55.2275V57H56.2275H57.2275V47.4946H56.2275ZM56.2275 57V56H53.7886V57V58H56.2275V57ZM53.7886 57H54.7886V47.6133H53.7886H52.7886V57H53.7886ZM53.7886 47.6133H54.7886C54.7886 46.7658 54.6461 45.9776 54.2755 45.326L53.4062 45.8203L52.537 46.3146C52.6762 46.5595 52.7886 46.9666 52.7886 47.6133H53.7886ZM53.4062 45.8203L54.2828 45.3391C53.9338 44.7033 53.4187 44.2233 52.7561 43.9302L52.3516 44.8447L51.9471 45.7593C52.1985 45.8705 52.3865 46.0408 52.5297 46.3016L53.4062 45.8203ZM52.3516 44.8447L52.7706 43.9368C52.1563 43.6533 51.4716 43.5283 50.7432 43.5283V44.5283V45.5283C51.2452 45.5283 51.6327 45.6143 51.9325 45.7527L52.3516 44.8447ZM50.7432 44.5283V43.5283C49.9098 43.5283 49.1363 43.6751 48.4706 44.0261L48.937 44.9106L49.4034 45.7952C49.7046 45.6364 50.1351 45.5283 50.7432 45.5283V44.5283ZM48.937 44.9106L48.4706 44.0261C47.8394 44.3589 47.3227 44.8265 46.9373 45.4221L47.7769 45.9653L48.6164 46.5086C48.8111 46.2077 49.0679 45.9721 49.4034 45.7952L48.937 44.9106ZM47.7769 45.9653L46.9373 45.4221C46.5767 45.9793 46.3238 46.6048 46.1689 47.2862L47.144 47.5078L48.1192 47.7294C48.228 47.2507 48.3969 46.8478 48.6164 46.5086L47.7769 45.9653ZM47.144 47.5078L46.1665 47.2973C46.0271 47.9441 45.9595 48.6216 45.9595 49.3271H46.9595H47.9595C47.9595 48.7495 48.0149 48.2141 48.1216 47.7184L47.144 47.5078ZM56.2012 47.9824L55.9082 47.0263L54.2734 47.5273L54.5664 48.4834L54.8594 49.4395L56.4942 48.9385L56.2012 47.9824ZM54.5664 48.4834L55.5663 48.4946C55.574 47.8156 55.6842 47.1697 55.8951 46.5521L54.9487 46.229L54.0024 45.9059C53.721 46.7298 53.5764 47.5867 53.5665 48.4722L54.5664 48.4834ZM54.9487 46.229L55.8915 46.5624C56.1077 45.951 56.4134 45.4158 56.8073 44.9491L56.043 44.3042L55.2787 43.6593C54.7233 44.3176 54.2995 45.0656 54.006 45.8956L54.9487 46.229ZM56.043 44.3042L56.8014 44.956C57.1874 44.5068 57.6634 44.1481 58.2425 43.8803L57.8228 42.9727L57.403 42.065C56.5759 42.4476 55.8654 42.9766 55.2845 43.6524L56.043 44.3042ZM57.8228 42.9727L58.2518 43.8759C58.8007 43.6152 59.4544 43.4717 60.2354 43.4717V42.4717V41.4717C59.2057 41.4717 58.2511 41.6621 57.3937 42.0694L57.8228 42.9727ZM60.2354 42.4717V43.4717C60.9138 43.4717 61.4773 43.5616 61.9409 43.7207L62.2656 42.7749L62.5903 41.8291C61.8762 41.5839 61.0862 41.4717 60.2354 41.4717V42.4717ZM62.2656 42.7749L61.9452 43.7222C62.4029 43.877 62.7624 44.1063 63.0466 44.4028L63.7686 43.7109L64.4905 43.019C63.9661 42.4718 63.3237 42.0771 62.586 41.8276L62.2656 42.7749ZM63.7686 43.7109L63.0614 44.418C63.3452 44.7018 63.5829 45.089 63.7534 45.6147L64.7046 45.3062L65.6558 44.9976C65.4044 44.2225 65.018 43.5462 64.4757 43.0038L63.7686 43.7109ZM64.7046 45.3062L63.7534 45.6147C63.9237 46.1399 64.021 46.8041 64.021 47.6265H65.021H66.021C66.021 46.6559 65.9073 45.7732 65.6558 44.9976L64.7046 45.3062ZM65.021 47.6265H64.021V57H65.021H66.021V47.6265H65.021ZM65.021 57V56H62.5688V57V58H65.021V57ZM62.5688 57H63.5688V47.6001H62.5688H61.5688V57H62.5688ZM62.5688 47.6001H63.5688C63.5688 46.716 63.4317 45.895 63.0516 45.2395L62.1865 45.7412L61.3215 46.2429C61.4511 46.4664 61.5688 46.8846 61.5688 47.6001H62.5688ZM62.1865 45.7412L63.0631 45.26C62.7088 44.6146 62.1788 44.1364 61.4908 43.8718L61.1318 44.8052L60.7729 45.7385C60.999 45.8255 61.1721 45.9714 61.3099 46.2225L62.1865 45.7412ZM61.1318 44.8052L61.5126 43.8805C60.9143 43.6341 60.2422 43.5283 59.5234 43.5283V44.5283V45.5283C60.0527 45.5283 60.4529 45.6071 60.7511 45.7299L61.1318 44.8052ZM59.5234 44.5283V43.5283C58.8724 43.5283 58.2546 43.6406 57.6917 43.8922L58.0996 44.8052L58.5075 45.7182C58.7708 45.6006 59.1022 45.5283 59.5234 45.5283V44.5283ZM58.0996 44.8052L57.6917 43.8922C57.1521 44.1333 56.6838 44.4739 56.3017 44.9157L57.0581 45.5698L57.8145 46.224C57.9949 46.0153 58.221 45.8462 58.5075 45.7182L58.0996 44.8052ZM57.0581 45.5698L56.3107 44.9055C55.942 45.3203 55.6627 45.7961 55.4717 46.3239L56.4121 46.6641L57.3525 47.0042C57.4604 46.7059 57.6118 46.4522 57.8055 46.2342L57.0581 45.5698ZM56.4121 46.6641L55.4655 46.3418C55.2872 46.8655 55.2012 47.4144 55.2012 47.9824H56.2012H57.2012C57.2012 47.6188 57.2558 47.2888 57.3588 46.9863L56.4121 46.6641ZM71.9292 56.7627L71.5352 57.6819L71.5474 57.687L71.9292 56.7627ZM69.8594 55.3257L69.1266 56.0062L69.1318 56.0117L69.8594 55.3257ZM68.5938 46.7168L69.529 47.0709L69.5301 47.0679L68.5938 46.7168ZM76.9521 42.999L76.5222 43.9019L76.5264 43.9038L76.9521 42.999ZM78.7847 44.4756L77.9846 45.0756L77.9887 45.081L78.7847 44.4756ZM79.8394 46.6904L78.8734 46.9493L78.8741 46.9518L79.8394 46.6904ZM80.1821 50.5532V51.5532H81.1821V50.5532H80.1821ZM69.5298 50.5532H68.5298V51.5532H69.5298V50.5532ZM69.5298 48.5625V47.5625H68.5298V48.5625H69.5298ZM77.7432 48.5625V49.5625H78.7432V48.5625H77.7432ZM77.7432 48.3779H78.7432V48.3502L78.7416 48.3225L77.7432 48.3779ZM77.3477 46.5322L76.409 46.8773L76.4136 46.8894L77.3477 46.5322ZM72.7861 44.8315L73.2266 45.7293L73.2333 45.726L73.2401 45.7226L72.7861 44.8315ZM70.8086 52.2803L69.8531 52.5753L69.8557 52.5838L69.8585 52.5922L70.8086 52.2803ZM71.6392 53.8359L70.8597 54.4625L70.8672 54.4716L71.6392 53.8359ZM72.9707 54.8906L72.5296 55.7881L72.5355 55.791L72.9707 54.8906ZM78.521 53.335L79.1431 52.5521L78.3437 51.9168L77.7253 52.7293L78.521 53.335ZM79.9976 54.5083L80.832 55.0594L81.3367 54.2951L80.6197 53.7254L79.9976 54.5083ZM77.0708 56.8682L76.7158 55.9333L76.7118 55.9348L77.0708 56.8682ZM74.6318 57.2637V56.2637C73.752 56.2637 72.9832 56.1161 72.311 55.8384L71.9292 56.7627L71.5474 57.687C72.4924 58.0773 73.5253 58.2637 74.6318 58.2637V57.2637ZM71.9292 56.7627L72.3231 55.8436C71.6456 55.5532 71.0702 55.1522 70.587 54.6397L69.8594 55.3257L69.1318 56.0117C69.8087 56.7296 70.6132 57.2867 71.5353 57.6818L71.9292 56.7627ZM69.8594 55.3257L70.5922 54.6452C70.1178 54.1344 69.7457 53.522 69.4805 52.7947L68.541 53.1372L67.6015 53.4797C67.9516 54.4399 68.4584 55.2865 69.1266 56.0061L69.8594 55.3257ZM68.541 53.1372L69.4805 52.7947C69.2173 52.0726 69.0796 51.2672 69.0796 50.3687H68.0796H67.0796C67.0796 51.474 67.2495 52.5143 67.6015 53.4797L68.541 53.1372ZM68.0796 50.3687H69.0796V49.8149H68.0796H67.0796V50.3687H68.0796ZM68.0796 49.8149H69.0796C69.0796 48.7524 69.2366 47.843 69.529 47.0709L68.5938 46.7168L67.6585 46.3627C67.2654 47.4011 67.0796 48.5572 67.0796 49.8149H68.0796ZM68.5938 46.7168L69.5301 47.0679C69.8329 46.2604 70.2342 45.6033 70.7233 45.0777L69.9912 44.3965L69.2591 43.7153C68.5705 44.4553 68.0402 45.345 67.6574 46.3657L68.5938 46.7168ZM69.9912 44.3965L70.7233 45.0777C71.2243 44.5393 71.7807 44.1434 72.3942 43.8764L71.9951 42.9595L71.596 42.0426C70.7154 42.4259 69.9358 42.9881 69.2591 43.7153L69.9912 44.3965ZM71.9951 42.9595L72.3942 43.8764C73.0178 43.6049 73.6556 43.4717 74.3154 43.4717V42.4717V41.4717C73.3757 41.4717 72.4666 41.6636 71.596 42.0426L71.9951 42.9595ZM74.3154 42.4717V43.4717C75.222 43.4717 75.9472 43.6281 76.5222 43.9019L76.9521 42.999L77.3821 42.0962C76.4806 41.6669 75.4479 41.4717 74.3154 41.4717V42.4717ZM76.9521 42.999L76.5264 43.9038C77.1324 44.189 77.6124 44.5792 77.9847 45.0756L78.7847 44.4756L79.5847 43.8756C79.0077 43.1063 78.2661 42.5121 77.3779 42.0942L76.9521 42.999ZM78.7847 44.4756L77.9887 45.081C78.3754 45.5894 78.6743 46.2065 78.8735 46.9493L79.8394 46.6904L80.8053 46.4315C80.5473 45.4693 80.1431 44.6098 79.5806 43.8702L78.7847 44.4756ZM79.8394 46.6904L78.8741 46.9518C79.0765 47.699 79.1821 48.5327 79.1821 49.459H80.1821H81.1821C81.1821 48.3813 81.0593 47.3693 80.8046 46.429L79.8394 46.6904ZM80.1821 49.459H79.1821V50.5532H80.1821H81.1821V49.459H80.1821ZM80.1821 50.5532V49.5532H69.5298V50.5532V51.5532H80.1821V50.5532ZM69.5298 50.5532H70.5298V48.5625H69.5298H68.5298V50.5532H69.5298ZM69.5298 48.5625V49.5625H77.7432V48.5625V47.5625H69.5298V48.5625ZM77.7432 48.5625H78.7432V48.3779H77.7432H76.7432V48.5625H77.7432ZM77.7432 48.3779L78.7416 48.3225C78.7007 47.5854 78.5468 46.8684 78.2817 46.1751L77.3477 46.5322L76.4136 46.8894C76.6055 47.3913 76.7153 47.9049 76.7447 48.4334L77.7432 48.3779ZM77.3477 46.5322L78.2862 46.1872C78.0055 45.4235 77.5477 44.7788 76.9177 44.2748L76.293 45.0557L75.6683 45.8365C76.005 46.1059 76.2504 46.4457 76.4091 46.8773L77.3477 46.5322ZM76.293 45.0557L76.9177 44.2748C76.2038 43.7037 75.2985 43.4756 74.3154 43.4756V44.4756V45.4756C75.0023 45.4756 75.4153 45.6342 75.6683 45.8365L76.293 45.0557ZM74.3154 44.4756V43.4756C73.6135 43.4756 72.9469 43.6273 72.3322 43.9405L72.7861 44.8315L73.2401 45.7226C73.557 45.5611 73.9099 45.4756 74.3154 45.4756V44.4756ZM72.7861 44.8315L72.3457 43.9338C71.7215 44.24 71.1997 44.6942 70.779 45.2698L71.5864 45.8599L72.3938 46.4499C72.6411 46.1115 72.9191 45.8801 73.2266 45.7293L72.7861 44.8315ZM71.5864 45.8599L70.779 45.2698C70.3614 45.8414 70.0559 46.5136 69.8456 47.2645L70.8086 47.5342L71.7716 47.8038C71.9304 47.2364 72.1435 46.7924 72.3938 46.4499L71.5864 45.8599ZM70.8086 47.5342L69.8456 47.2645C69.6311 48.0307 69.5317 48.8848 69.5317 49.8149H70.5317H71.5317C71.5317 49.0224 71.6169 48.356 71.7716 47.8038L70.8086 47.5342ZM70.5317 49.8149H69.5317V50.3687H70.5317H71.5317V49.8149H70.5317ZM70.5317 50.3687H69.5317C69.5317 51.1373 69.6367 51.8746 69.8531 52.5753L70.8086 52.2803L71.7641 51.9852C71.6113 51.4906 71.5317 50.9535 71.5317 50.3687H70.5317ZM70.8086 52.2803L69.8585 52.5922C70.0865 53.2865 70.4184 53.9135 70.8598 54.4625L71.6392 53.8359L72.4185 53.2094C72.1392 52.8619 71.9175 52.4518 71.7587 51.9683L70.8086 52.2803ZM71.6392 53.8359L70.8672 54.4716C71.3263 55.0291 71.8827 55.4701 72.5296 55.7881L72.9707 54.8906L73.4118 53.9932C73.0215 53.8013 72.6903 53.5393 72.4111 53.2002L71.6392 53.8359ZM72.9707 54.8906L72.5355 55.791C73.2165 56.1201 73.9662 56.2729 74.7637 56.2729V55.2729V54.2729C74.2252 54.2729 73.7796 54.1709 73.4059 53.9903L72.9707 54.8906ZM74.7637 55.2729V56.2729C75.7605 56.2729 76.6747 56.069 77.4592 55.6075L76.9521 54.7456L76.4451 53.8837C76.0343 54.1253 75.4895 54.2729 74.7637 54.2729V55.2729ZM76.9521 54.7456L77.4592 55.6075C78.1762 55.1858 78.7951 54.6258 79.3167 53.9406L78.521 53.335L77.7253 52.7293C77.3504 53.2218 76.9234 53.6023 76.4451 53.8837L76.9521 54.7456ZM78.521 53.335L77.8989 54.1179L79.3754 55.2912L79.9976 54.5083L80.6197 53.7254L79.1431 52.5521L78.521 53.335ZM79.9976 54.5083L79.1631 53.9572C78.9094 54.3413 78.5782 54.7206 78.1599 55.0924L78.8242 55.8398L79.4886 56.5873C80.0194 56.1154 80.4704 55.6069 80.832 55.0594L79.9976 54.5083ZM78.8242 55.8398L78.1599 55.0924C77.7901 55.4211 77.3154 55.7056 76.7158 55.9333L77.0708 56.8682L77.4258 57.803C78.2149 57.5034 78.9091 57.1023 79.4886 56.5873L78.8242 55.8398ZM77.0708 56.8682L76.7118 55.9348C76.1679 56.144 75.4824 56.2637 74.6318 56.2637V57.2637V58.2637C75.6621 58.2637 76.6026 58.1197 77.4298 57.8015L77.0708 56.8682ZM85.6797 36.75H86.6797V35.75H85.6797V36.75ZM85.6797 57V58H86.6797V57H85.6797ZM83.2275 57H82.2275V58H83.2275V57ZM83.2275 36.75V35.75H82.2275V36.75H83.2275ZM85.6797 36.75H84.6797V57H85.6797H86.6797V36.75H85.6797ZM85.6797 57V56H83.2275V57V58H85.6797V57ZM83.2275 57H84.2275V36.75H83.2275H82.2275V57H83.2275ZM83.2275 36.75V37.75H85.6797V36.75V35.75H83.2275V36.75Z" fill="black" mask="url(#path-2-outside-1_584_2218)"/>
</g>
<defs>
<clipPath id="clip0_584_2218">
<rect width="96" height="96" fill="white"/>
</clipPath>
</defs>
</svg>
