<svg width="69" height="69" viewBox="0 0 69 69" fill="none" xmlns="http://www.w3.org/2000/svg">
<path d="M19.5 13L20.5 19L18.5 17L15 15.5H13L8.5 17L5.5 20L2 26L1.5 30.5L3 34L6.5 37L12 38.5L14.5 39L12.5 40L10.5 41L8.5 43.5L7 46.5L7.5 52L10.5 57L15.5 61L19.5 62L24 60.5L27 57.5L28.5 56V60L30.5 64.5L33 66.5L38.5 67.5L43 67L46 65.5L48.5 62.5L50 58L48.5 50L51.5 52.5L56.5 53.5L61 52L64.5 48L67.5 42L68 38L66 35L64 33L60.5 31.5L57.5 30.5H55.5L54.5 30L55.5 29.5L58 28.5L60 26.5L61.5 24.5L62.5 22L62 19L61 15.5L59.5 13.5L57 10.5L53 8L51.5 7.5H50.5H49L47.5 8L45.5 8.5L44 10.5L41.5 13L40 15L40.5 13.5L41 11L40 7L38 3.5L35 2L31 1.5L26.5 2L22.5 4L20 8.5L19.5 13Z" fill="#DF4287"/>
<path d="M28.1067 1.26962C30.8315 0.761792 34.778 0.822269 37.6623 2.7745C39.1225 3.7629 40.2962 5.22795 40.8879 7.30771C41.2958 8.74152 41.4222 10.4528 41.1916 12.4845C42.5744 10.4366 44.506 8.4221 46.8713 7.40341C48.5771 6.66882 50.5051 6.45442 52.5823 7.11728C54.6496 7.77711 56.824 9.29265 59.0637 11.9395H59.0627C60.9337 14.0681 62.9921 17.5797 62.9573 21.1798C62.9396 22.9986 62.3859 24.8334 61.0178 26.4972C59.9656 27.7767 58.4453 28.9356 56.3537 29.9142C59.5404 30.2782 63.2084 31.321 65.6408 33.503C67.1643 34.8697 68.2046 36.6869 68.3215 39.0362C68.4375 41.3695 67.64 44.1713 65.6096 47.5216C64.4885 49.6638 62.2671 52.3852 59.1955 53.5431C57.6418 54.1287 55.8776 54.3107 53.9533 53.8175C52.5597 53.4601 51.0983 52.7513 49.5803 51.6085C50.2672 54.0765 50.6637 57.2892 49.9739 60.2276C49.5545 62.0135 48.7303 63.713 47.3127 65.0714C45.8934 66.4314 43.9105 67.4201 41.2258 67.8331V67.8321C38.501 68.3399 34.5545 68.2796 31.6701 66.3272C30.21 65.3388 29.0362 63.8738 28.4446 61.794C28.0367 60.3602 27.9103 58.6489 28.1408 56.6173C26.758 58.6652 24.8266 60.6797 22.4612 61.6983C20.7553 62.4329 18.8274 62.6474 16.7502 61.9845C14.6829 61.3246 12.5085 59.8091 10.2688 57.1622H10.2698C8.39883 55.0336 6.34037 51.522 6.37522 47.922C6.39293 46.1032 6.94666 44.2683 8.31468 42.6046C9.36682 41.3251 10.8872 40.1661 12.9787 39.1876C9.79202 38.8235 6.12404 37.7808 3.69163 35.5987C2.16826 34.232 1.12784 32.4148 1.01097 30.0655C0.894974 27.7322 1.69251 24.9304 3.72288 21.5802C4.84392 19.438 7.06551 16.7165 10.1369 15.5587C11.6906 14.973 13.4549 14.7911 15.3791 15.2843C16.7724 15.6415 18.2337 16.35 19.7512 17.4923C19.0645 15.0244 18.6689 11.812 19.3586 8.87411C19.7779 7.08825 20.6022 5.3887 22.0198 4.03036C23.4391 2.67035 25.422 1.6817 28.1067 1.26864V1.26962ZM37.1018 3.60263C34.5255 1.85894 30.8822 1.76603 28.2746 2.25497C28.2695 2.2559 28.2641 2.25614 28.259 2.25693C25.7439 2.6439 23.9595 3.5559 22.7112 4.75204C21.4611 5.9499 20.7171 7.46361 20.3323 9.10263C19.5583 12.3993 20.2556 16.1444 21.1526 18.5909C21.1632 18.6199 21.17 18.6495 21.175 18.6788C21.2813 18.7761 21.3885 18.8749 21.4953 18.9767C21.6952 19.167 21.7032 19.4837 21.5129 19.6837C21.3225 19.8835 21.0058 19.8915 20.8059 19.7013C18.7521 17.7453 16.8477 16.6931 15.1311 16.253C13.4193 15.8142 11.8647 15.9758 10.4895 16.4942C7.71647 17.5396 5.64444 20.0493 4.59397 22.0694L4.57835 22.0977C2.60896 25.3472 1.90634 27.9502 2.00901 30.0157C2.11092 32.0651 3.00823 33.6422 4.3596 34.8546C7.10108 37.3138 11.7031 38.2565 15.1623 38.339C15.4033 38.3447 15.6066 38.5218 15.6448 38.7599C15.6828 38.998 15.5449 39.23 15.3176 39.3106C12.2769 40.3897 10.3033 41.7604 9.08714 43.2393C7.87615 44.712 7.3909 46.3215 7.37522 47.9317C7.34376 51.1858 9.23169 54.4702 11.0256 56.5089L11.0324 56.5157C13.1924 59.0684 15.2183 60.4453 17.0539 61.0313C18.8796 61.6141 20.5591 61.4281 22.0657 60.7794C25.1151 59.466 27.47 56.2448 28.6975 53.6261C28.8064 53.3937 29.0745 53.2823 29.3166 53.3673C29.5586 53.4525 29.6972 53.7068 29.6369 53.9561C28.8504 57.2008 28.8788 59.6655 29.4065 61.5206C29.9313 63.3655 30.958 64.6376 32.2307 65.4991C34.8069 67.2429 38.4502 67.3357 41.0578 66.8468C41.0629 66.8458 41.0683 66.8456 41.0735 66.8448C43.5887 66.4579 45.373 65.5459 46.6213 64.3497C47.8714 63.1518 48.6154 61.6382 49.0002 59.9991C49.7742 56.7024 49.077 52.9573 48.1799 50.5108C48.1693 50.4818 48.1625 50.4523 48.1574 50.4229C48.0512 50.3257 47.9439 50.2267 47.8371 50.1251C47.6374 49.9347 47.6294 49.618 47.8196 49.4181C48.0099 49.2182 48.3266 49.2104 48.5266 49.4005C50.5803 51.3564 52.4848 52.4086 54.2014 52.8487C55.9132 53.2876 57.4678 53.1259 58.843 52.6075C61.6161 51.5622 63.688 49.0525 64.7385 47.0323L64.7541 47.004C66.7236 43.7544 67.4262 41.1516 67.3235 39.086C67.2215 37.0367 66.3243 35.4595 64.9729 34.2472C62.2313 31.788 57.6293 30.8452 54.1701 30.7628C53.9292 30.7569 53.7258 30.5799 53.6877 30.3419C53.6497 30.1039 53.7877 29.8718 54.0149 29.7911C57.0556 28.7121 59.0291 27.3413 60.2453 25.8624C61.4564 24.3897 61.9416 22.7803 61.9573 21.17C61.9887 17.9159 60.1008 14.6315 58.3069 12.5929L58.3 12.586C56.14 10.0333 54.1142 8.65635 52.2785 8.0704C50.4529 7.48776 48.7733 7.6736 47.2668 8.32236C44.2175 9.63574 41.8625 12.857 40.635 15.4757C40.526 15.7081 40.2581 15.8196 40.0158 15.7345C39.774 15.6491 39.6352 15.3949 39.6955 15.1456C40.4821 11.9009 40.4537 9.43626 39.926 7.58114C39.4011 5.73622 38.3746 4.46415 37.1018 3.60263Z" fill="black"/>
<mask id="path-3-outside-1_518_2542" maskUnits="userSpaceOnUse" x="25" y="23" width="18" height="24" fill="black">
<rect fill="white" x="25" y="23" width="18" height="24"/>
<path d="M26.875 46V43.6562L34.2285 36.2441C36.543 33.8125 37.7148 32.4648 37.7148 30.6191C37.7148 28.5391 36.0156 27.1914 33.7891 27.1914C31.4453 27.1914 29.9219 28.6855 29.9219 30.9414H26.875C26.8457 27.0742 29.8047 24.4961 33.8477 24.4961C37.9492 24.4961 40.7617 27.0742 40.791 30.5312C40.7617 32.9043 39.6484 34.7793 35.6641 38.7051L31.3574 43.0703V43.2461H41.1426V46H26.875Z"/>
</mask>
<path d="M26.875 46V43.6562L34.2285 36.2441C36.543 33.8125 37.7148 32.4648 37.7148 30.6191C37.7148 28.5391 36.0156 27.1914 33.7891 27.1914C31.4453 27.1914 29.9219 28.6855 29.9219 30.9414H26.875C26.8457 27.0742 29.8047 24.4961 33.8477 24.4961C37.9492 24.4961 40.7617 27.0742 40.791 30.5312C40.7617 32.9043 39.6484 34.7793 35.6641 38.7051L31.3574 43.0703V43.2461H41.1426V46H26.875Z" fill="white"/>
<path d="M26.875 46H25.875V47H26.875V46ZM26.875 43.6562L26.1651 42.952L25.875 43.2444V43.6562H26.875ZM34.2285 36.2441L34.9384 36.9484L34.9457 36.9411L34.9529 36.9336L34.2285 36.2441ZM29.9219 30.9414V31.9414H30.9219V30.9414H29.9219ZM26.875 30.9414L25.875 30.949L25.8825 31.9414H26.875V30.9414ZM40.791 30.5312L41.7909 30.5436L41.7911 30.5332L41.791 30.5228L40.791 30.5312ZM35.6641 38.7051L34.9622 37.9928L34.9572 37.9977L34.9522 38.0028L35.6641 38.7051ZM31.3574 43.0703L30.6456 42.368L30.3574 42.6601V43.0703H31.3574ZM31.3574 43.2461H30.3574V44.2461H31.3574V43.2461ZM41.1426 43.2461H42.1426V42.2461H41.1426V43.2461ZM41.1426 46V47H42.1426V46H41.1426ZM26.875 46H27.875V43.6562H26.875H25.875V46H26.875ZM26.875 43.6562L27.5849 44.3605L34.9384 36.9484L34.2285 36.2441L33.5186 35.5398L26.1651 42.952L26.875 43.6562ZM34.2285 36.2441L34.9529 36.9336C36.0981 35.7304 37.0325 34.7233 37.6711 33.7674C38.3326 32.7772 38.7148 31.7885 38.7148 30.6191H37.7148H36.7148C36.7148 31.2955 36.5111 31.9034 36.0081 32.6564C35.4821 33.4437 34.6734 34.3263 33.5042 35.5547L34.2285 36.2441ZM37.7148 30.6191H38.7148C38.7148 29.2848 38.1605 28.1494 37.2341 27.3629C36.3215 26.5882 35.0988 26.1914 33.7891 26.1914V27.1914V28.1914C34.7059 28.1914 35.4461 28.4685 35.9397 28.8876C36.4196 29.295 36.7148 29.8734 36.7148 30.6191H37.7148ZM33.7891 27.1914V26.1914C32.4022 26.1914 31.17 26.6372 30.2793 27.5037C29.3861 28.3726 28.9219 29.5817 28.9219 30.9414H29.9219H30.9219C30.9219 30.0452 31.2194 29.3794 31.6739 28.9372C32.1308 28.4927 32.8322 28.1914 33.7891 28.1914V27.1914ZM29.9219 30.9414V29.9414H26.875V30.9414V31.9414H29.9219V30.9414ZM26.875 30.9414L27.875 30.9338C27.8624 29.2727 28.4845 27.9374 29.5067 27.0087C30.5379 26.0717 32.0371 25.4961 33.8477 25.4961V24.4961V23.4961C31.6153 23.4961 29.6134 24.2095 28.1618 25.5284C26.701 26.8556 25.8583 28.7429 25.875 30.949L26.875 30.9414ZM33.8477 24.4961V25.4961C37.512 25.4961 39.7673 27.7371 39.7911 30.5397L40.791 30.5312L41.791 30.5228C41.7561 26.4113 38.3864 23.4961 33.8477 23.4961V24.4961ZM40.791 30.5312L39.7911 30.5189C39.7673 32.4496 38.9448 34.0688 34.9622 37.9928L35.6641 38.7051L36.3659 39.4174C40.3521 35.4898 41.7562 33.359 41.7909 30.5436L40.791 30.5312ZM35.6641 38.7051L34.9522 38.0028L30.6456 42.368L31.3574 43.0703L32.0693 43.7726L36.3759 39.4074L35.6641 38.7051ZM31.3574 43.0703H30.3574V43.2461H31.3574H32.3574V43.0703H31.3574ZM31.3574 43.2461V44.2461H41.1426V43.2461V42.2461H31.3574V43.2461ZM41.1426 43.2461H40.1426V46H41.1426H42.1426V43.2461H41.1426ZM41.1426 46V45H26.875V46V47H41.1426V46Z" fill="black" mask="url(#path-3-outside-1_518_2542)"/>
</svg>
