<svg width="69" height="69" viewBox="0 0 69 69" fill="none" xmlns="http://www.w3.org/2000/svg">
<path d="M19.5 13L20.5 19L18.5 17L15 15.5H13L8.5 17L5.5 20L2 26L1.5 30.5L3 34L6.5 37L12 38.5L14.5 39L12.5 40L10.5 41L8.5 43.5L7 46.5L7.5 52L10.5 57L15.5 61L19.5 62L24 60.5L27 57.5L28.5 56V60L30.5 64.5L33 66.5L38.5 67.5L43 67L46 65.5L48.5 62.5L50 58L48.5 50L51.5 52.5L56.5 53.5L61 52L64.5 48L67.5 42L68 38L66 35L64 33L60.5 31.5L57.5 30.5H55.5L54.5 30L55.5 29.5L58 28.5L60 26.5L61.5 24.5L62.5 22L62 19L61 15.5L59.5 13.5L57 10.5L53 8L51.5 7.5H50.5H49L47.5 8L45.5 8.5L44 10.5L41.5 13L40 15L40.5 13.5L41 11L40 7L38 3.5L35 2L31 1.5L26.5 2L22.5 4L20 8.5L19.5 13Z" fill="#DF4287"/>
<path d="M28.1064 1.26953C30.8312 0.761702 34.7777 0.82218 37.6621 2.77441C39.1223 3.76281 40.296 5.22786 40.8877 7.30762C41.2956 8.74143 41.4219 10.4528 41.1914 12.4844C42.5742 10.4365 44.5058 8.42201 46.8711 7.40332C48.5769 6.66873 50.5048 6.45433 52.582 7.11719C54.6494 7.77703 56.8237 9.29256 59.0635 11.9395H59.0625C60.9335 14.068 62.9918 17.5796 62.957 21.1797C62.9394 22.9985 62.3856 24.8334 61.0176 26.4971C59.9654 27.7766 58.4451 28.9356 56.3535 29.9141C59.5402 30.2782 63.2082 31.3209 65.6406 33.5029C67.1641 34.8696 68.2044 36.6868 68.3213 39.0361C68.4373 41.3695 67.6398 44.1712 65.6094 47.5215C64.4883 49.6637 62.2668 52.3851 59.1953 53.543C57.6416 54.1286 55.8774 54.3106 53.9531 53.8174C52.5595 53.46 51.0981 52.7513 49.5801 51.6084C50.267 54.0764 50.6635 57.2891 49.9736 60.2275C49.5543 62.0135 48.7301 63.7129 47.3125 65.0713C45.8931 66.4313 43.9103 67.42 41.2256 67.833V67.832C38.5007 68.3398 34.5542 68.2795 31.6699 66.3271C30.2098 65.3387 29.036 63.8737 28.4443 61.7939C28.0365 60.3601 27.9101 58.6488 28.1406 56.6172C26.7578 58.6651 24.8263 60.6796 22.4609 61.6982C20.7551 62.4328 18.8272 62.6473 16.75 61.9844C14.6827 61.3245 12.5083 59.809 10.2686 57.1621H10.2695C8.3986 55.0335 6.34015 51.5219 6.375 47.9219C6.3927 46.1031 6.94644 44.2682 8.31445 42.6045C9.36659 41.325 10.887 40.166 12.9785 39.1875C9.7918 38.8234 6.12381 37.7807 3.69141 35.5986C2.16804 34.2319 1.12762 32.4147 1.01074 30.0654C0.894751 27.7321 1.69228 24.9303 3.72266 21.5801C4.8437 19.4379 7.06528 16.7165 10.1367 15.5586C11.6904 14.9729 13.4546 14.791 15.3789 15.2842C16.7722 15.6414 18.2334 16.3499 19.751 17.4922C19.0643 15.0243 18.6686 11.8119 19.3584 8.87402C19.7777 7.08816 20.602 5.38861 22.0195 4.03027C23.4389 2.67026 25.4218 1.68161 28.1064 1.26855V1.26953ZM37.1016 3.60254C34.5253 1.85885 30.882 1.76594 28.2744 2.25488C28.2693 2.25581 28.2639 2.25605 28.2588 2.25684C25.7437 2.64381 23.9592 3.55581 22.7109 4.75195C21.4609 5.94981 20.7169 7.46352 20.332 9.10254C19.558 12.3992 20.2553 16.1443 21.1523 18.5908C21.163 18.6198 21.1698 18.6494 21.1748 18.6787C21.2811 18.776 21.3883 18.8749 21.4951 18.9766C21.695 19.167 21.703 19.4836 21.5127 19.6836C21.3223 19.8835 21.0056 19.8914 20.8057 19.7012C18.7519 17.7452 16.8475 16.693 15.1309 16.2529C13.4191 15.8141 11.8645 15.9758 10.4893 16.4941C7.71625 17.5395 5.64422 20.0492 4.59375 22.0693L4.57812 22.0977C2.60873 25.3472 1.90611 27.9501 2.00879 30.0156C2.1107 32.065 3.008 33.6421 4.35938 34.8545C7.10085 37.3137 11.7029 38.2564 15.1621 38.3389C15.4031 38.3446 15.6063 38.5217 15.6445 38.7598C15.6826 38.9979 15.5447 39.2299 15.3174 39.3105C12.2767 40.3896 10.3031 41.7604 9.08691 43.2393C7.87593 44.7119 7.39068 46.3214 7.375 47.9316C7.34353 51.1857 9.23147 54.4702 11.0254 56.5088L11.0322 56.5156C13.1922 59.0683 15.2181 60.4452 17.0537 61.0312C18.8794 61.614 20.5589 61.428 22.0654 60.7793C25.1148 59.466 27.4698 56.2447 28.6973 53.626C28.8062 53.3936 29.0743 53.2822 29.3164 53.3672C29.5583 53.4524 29.697 53.7067 29.6367 53.9561C28.8501 57.2007 28.8786 59.6654 29.4062 61.5205C29.9311 63.3654 30.9578 64.6375 32.2305 65.499C34.8067 67.2428 38.45 67.3356 41.0576 66.8467C41.0627 66.8457 41.0681 66.8455 41.0732 66.8447C43.5884 66.4578 45.3728 65.5458 46.6211 64.3496C47.8712 63.1517 48.6152 61.6381 49 59.999C49.774 56.7023 49.0767 52.9572 48.1797 50.5107C48.1691 50.4818 48.1623 50.4522 48.1572 50.4229C48.051 50.3256 47.9436 50.2266 47.8369 50.125C47.6372 49.9346 47.6292 49.6179 47.8193 49.418C48.0097 49.2181 48.3264 49.2103 48.5264 49.4004C50.5801 51.3563 52.4846 52.4085 54.2012 52.8486C55.913 53.2875 57.4675 53.1258 58.8428 52.6074C61.6159 51.5621 63.6878 49.0524 64.7383 47.0322L64.7539 47.0039C66.7233 43.7543 67.426 41.1515 67.3232 39.0859C67.2213 37.0366 66.3241 35.4595 64.9727 34.2471C62.2311 31.7879 57.6291 30.8451 54.1699 30.7627C53.929 30.7568 53.7256 30.5798 53.6875 30.3418C53.6495 30.1038 53.7875 29.8717 54.0146 29.791C57.0554 28.712 59.0289 27.3412 60.2451 25.8623C61.4562 24.3896 61.9414 22.7802 61.957 21.1699C61.9884 17.9158 60.1006 14.6314 58.3066 12.5928L58.2998 12.5859C56.1398 10.0332 54.1139 8.65626 52.2783 8.07031C50.4527 7.48767 48.7731 7.67351 47.2666 8.32227C44.2173 9.63565 41.8622 12.8569 40.6348 15.4756C40.5258 15.708 40.2578 15.8195 40.0156 15.7344C39.7738 15.6491 39.635 15.3948 39.6953 15.1455C40.4819 11.9008 40.4535 9.43617 39.9258 7.58105C39.4009 5.73613 38.3743 4.46406 37.1016 3.60254Z" fill="black"/>
<mask id="path-3-outside-1_518_2541" maskUnits="userSpaceOnUse" x="27.5" y="22.5" width="11" height="24" fill="black">
<rect fill="white" x="27.5" y="22.5" width="11" height="24"/>
<path d="M37.4316 24.2891V45.5H34.1797V27.5117H34.0625L28.9941 30.8223V27.7461L34.2676 24.2891H37.4316Z"/>
</mask>
<path d="M37.4316 24.2891V45.5H34.1797V27.5117H34.0625L28.9941 30.8223V27.7461L34.2676 24.2891H37.4316Z" fill="white"/>
<path d="M37.4316 24.2891H38.4316V23.2891H37.4316V24.2891ZM37.4316 45.5V46.5H38.4316V45.5H37.4316ZM34.1797 45.5H33.1797V46.5H34.1797V45.5ZM34.1797 27.5117H35.1797V26.5117H34.1797V27.5117ZM34.0625 27.5117V26.5117H33.7648L33.5156 26.6745L34.0625 27.5117ZM28.9941 30.8223H27.9941V32.6699L29.541 31.6595L28.9941 30.8223ZM28.9941 27.7461L28.4459 26.9098L27.9941 27.2059V27.7461H28.9941ZM34.2676 24.2891V23.2891H33.969L33.7193 23.4527L34.2676 24.2891ZM37.4316 24.2891H36.4316V45.5H37.4316H38.4316V24.2891H37.4316ZM37.4316 45.5V44.5H34.1797V45.5V46.5H37.4316V45.5ZM34.1797 45.5H35.1797V27.5117H34.1797H33.1797V45.5H34.1797ZM34.1797 27.5117V26.5117H34.0625V27.5117V28.5117H34.1797V27.5117ZM34.0625 27.5117L33.5156 26.6745L28.4473 29.985L28.9941 30.8223L29.541 31.6595L34.6094 28.3489L34.0625 27.5117ZM28.9941 30.8223H29.9941V27.7461H28.9941H27.9941V30.8223H28.9941ZM28.9941 27.7461L29.5424 28.5824L34.8158 25.1254L34.2676 24.2891L33.7193 23.4527L28.4459 26.9098L28.9941 27.7461ZM34.2676 24.2891V25.2891H37.4316V24.2891V23.2891H34.2676V24.2891Z" fill="black" mask="url(#path-3-outside-1_518_2541)"/>
</svg>
