<svg width="69" height="69" viewBox="0 0 69 69" fill="none" xmlns="http://www.w3.org/2000/svg">
<path d="M19.5 13L20.5 19L18.5 17L15 15.5H13L8.5 17L5.5 20L2 26L1.5 30.5L3 34L6.5 37L12 38.5L14.5 39L12.5 40L10.5 41L8.5 43.5L7 46.5L7.5 52L10.5 57L15.5 61L19.5 62L24 60.5L27 57.5L28.5 56V60L30.5 64.5L33 66.5L38.5 67.5L43 67L46 65.5L48.5 62.5L50 58L48.5 50L51.5 52.5L56.5 53.5L61 52L64.5 48L67.5 42L68 38L66 35L64 33L60.5 31.5L57.5 30.5H55.5L54.5 30L55.5 29.5L58 28.5L60 26.5L61.5 24.5L62.5 22L62 19L61 15.5L59.5 13.5L57 10.5L53 8L51.5 7.5H50.5H49L47.5 8L45.5 8.5L44 10.5L41.5 13L40 15L40.5 13.5L41 11L40 7L38 3.5L35 2L31 1.5L26.5 2L22.5 4L20 8.5L19.5 13Z" fill="#DF4287"/>
<path d="M28.1067 1.26962C30.8315 0.761792 34.778 0.822269 37.6623 2.7745C39.1225 3.7629 40.2962 5.22795 40.8879 7.30771C41.2958 8.74152 41.4222 10.4528 41.1916 12.4845C42.5744 10.4366 44.506 8.4221 46.8713 7.40341C48.5771 6.66882 50.5051 6.45442 52.5823 7.11728C54.6496 7.77711 56.824 9.29265 59.0637 11.9395H59.0627C60.9337 14.0681 62.9921 17.5797 62.9573 21.1798C62.9396 22.9986 62.3859 24.8334 61.0178 26.4972C59.9656 27.7767 58.4453 28.9356 56.3537 29.9142C59.5404 30.2782 63.2084 31.321 65.6408 33.503C67.1643 34.8697 68.2046 36.6869 68.3215 39.0362C68.4375 41.3695 67.64 44.1713 65.6096 47.5216C64.4885 49.6638 62.2671 52.3852 59.1955 53.5431C57.6418 54.1287 55.8776 54.3107 53.9533 53.8175C52.5597 53.4601 51.0983 52.7513 49.5803 51.6085C50.2672 54.0765 50.6637 57.2892 49.9739 60.2276C49.5545 62.0135 48.7303 63.713 47.3127 65.0714C45.8934 66.4314 43.9105 67.4201 41.2258 67.8331V67.8321C38.501 68.3399 34.5545 68.2796 31.6701 66.3272C30.21 65.3388 29.0362 63.8738 28.4446 61.794C28.0367 60.3602 27.9103 58.6489 28.1408 56.6173C26.758 58.6652 24.8266 60.6797 22.4612 61.6983C20.7553 62.4329 18.8274 62.6474 16.7502 61.9845C14.6829 61.3246 12.5085 59.8091 10.2688 57.1622H10.2698C8.39883 55.0336 6.34037 51.522 6.37522 47.922C6.39293 46.1032 6.94666 44.2683 8.31468 42.6046C9.36682 41.3251 10.8872 40.1661 12.9787 39.1876C9.79202 38.8235 6.12404 37.7808 3.69163 35.5987C2.16826 34.232 1.12784 32.4148 1.01097 30.0655C0.894974 27.7322 1.69251 24.9304 3.72288 21.5802C4.84392 19.438 7.06551 16.7165 10.1369 15.5587C11.6906 14.973 13.4549 14.7911 15.3791 15.2843C16.7724 15.6415 18.2337 16.35 19.7512 17.4923C19.0645 15.0244 18.6689 11.812 19.3586 8.87411C19.7779 7.08825 20.6022 5.3887 22.0198 4.03036C23.4391 2.67035 25.422 1.6817 28.1067 1.26864V1.26962ZM37.1018 3.60263C34.5255 1.85894 30.8822 1.76603 28.2746 2.25497C28.2695 2.2559 28.2641 2.25614 28.259 2.25693C25.7439 2.6439 23.9595 3.5559 22.7112 4.75204C21.4611 5.9499 20.7171 7.46361 20.3323 9.10263C19.5583 12.3993 20.2556 16.1444 21.1526 18.5909C21.1632 18.6199 21.17 18.6495 21.175 18.6788C21.2813 18.7761 21.3885 18.8749 21.4953 18.9767C21.6952 19.167 21.7032 19.4837 21.5129 19.6837C21.3225 19.8835 21.0058 19.8915 20.8059 19.7013C18.7521 17.7453 16.8477 16.6931 15.1311 16.253C13.4193 15.8142 11.8647 15.9758 10.4895 16.4942C7.71647 17.5396 5.64444 20.0493 4.59397 22.0694L4.57835 22.0977C2.60896 25.3472 1.90634 27.9502 2.00901 30.0157C2.11092 32.0651 3.00823 33.6422 4.3596 34.8546C7.10108 37.3138 11.7031 38.2565 15.1623 38.339C15.4033 38.3447 15.6066 38.5218 15.6448 38.7599C15.6828 38.998 15.5449 39.23 15.3176 39.3106C12.2769 40.3897 10.3033 41.7604 9.08714 43.2393C7.87615 44.712 7.3909 46.3215 7.37522 47.9317C7.34376 51.1858 9.23169 54.4702 11.0256 56.5089L11.0324 56.5157C13.1924 59.0684 15.2183 60.4453 17.0539 61.0313C18.8796 61.6141 20.5591 61.4281 22.0657 60.7794C25.1151 59.466 27.47 56.2448 28.6975 53.6261C28.8064 53.3937 29.0745 53.2823 29.3166 53.3673C29.5586 53.4525 29.6972 53.7068 29.6369 53.9561C28.8504 57.2008 28.8788 59.6655 29.4065 61.5206C29.9313 63.3655 30.958 64.6376 32.2307 65.4991C34.8069 67.2429 38.4502 67.3357 41.0578 66.8468C41.0629 66.8458 41.0683 66.8456 41.0735 66.8448C43.5887 66.4579 45.373 65.5459 46.6213 64.3497C47.8714 63.1518 48.6154 61.6382 49.0002 59.9991C49.7742 56.7024 49.077 52.9573 48.1799 50.5108C48.1693 50.4818 48.1625 50.4523 48.1574 50.4229C48.0512 50.3257 47.9439 50.2267 47.8371 50.1251C47.6374 49.9347 47.6294 49.618 47.8196 49.4181C48.0099 49.2182 48.3266 49.2104 48.5266 49.4005C50.5803 51.3564 52.4848 52.4086 54.2014 52.8487C55.9132 53.2876 57.4678 53.1259 58.843 52.6075C61.6161 51.5622 63.688 49.0525 64.7385 47.0323L64.7541 47.004C66.7236 43.7544 67.4262 41.1516 67.3235 39.086C67.2215 37.0367 66.3243 35.4595 64.9729 34.2472C62.2313 31.788 57.6293 30.8452 54.1701 30.7628C53.9292 30.7569 53.7258 30.5799 53.6877 30.3419C53.6497 30.1039 53.7877 29.8718 54.0149 29.7911C57.0556 28.7121 59.0291 27.3413 60.2453 25.8624C61.4564 24.3897 61.9416 22.7803 61.9573 21.17C61.9887 17.9159 60.1008 14.6315 58.3069 12.5929L58.3 12.586C56.14 10.0333 54.1142 8.65635 52.2785 8.0704C50.4529 7.48776 48.7733 7.6736 47.2668 8.32236C44.2175 9.63574 41.8625 12.857 40.635 15.4757C40.526 15.7081 40.2581 15.8196 40.0158 15.7345C39.774 15.6491 39.6352 15.3949 39.6955 15.1456C40.4821 11.9009 40.4537 9.43626 39.926 7.58114C39.4011 5.73622 38.3746 4.46415 37.1018 3.60263Z" fill="black"/>
<mask id="path-3-outside-1_518_2549" maskUnits="userSpaceOnUse" x="25" y="23" width="19" height="25" fill="black">
<rect fill="white" x="25" y="23" width="19" height="25"/>
<path d="M34.4043 46.293C30.0098 46.293 26.875 43.9199 26.7578 40.4629H30.0391C30.1562 42.3379 32.002 43.5098 34.375 43.5098C36.9238 43.5098 38.7988 42.1035 38.7988 40.0527C38.7988 37.9727 37.041 36.4492 34.0234 36.4492H32.207V33.8125H34.0234C36.4258 33.8125 38.125 32.4648 38.125 30.4434C38.125 28.5098 36.6895 27.1914 34.4336 27.1914C32.2949 27.1914 30.4199 28.3633 30.332 30.2969H27.2266C27.3145 26.8398 30.5078 24.4961 34.4629 24.4961C38.623 24.4961 41.2598 27.1328 41.2305 30.2676C41.2598 32.6699 39.7656 34.4277 37.4805 34.9844V35.1309C40.3809 35.541 42.0508 37.4746 42.0508 40.1699C42.0508 43.7148 38.7988 46.293 34.4043 46.293Z"/>
</mask>
<path d="M34.4043 46.293C30.0098 46.293 26.875 43.9199 26.7578 40.4629H30.0391C30.1562 42.3379 32.002 43.5098 34.375 43.5098C36.9238 43.5098 38.7988 42.1035 38.7988 40.0527C38.7988 37.9727 37.041 36.4492 34.0234 36.4492H32.207V33.8125H34.0234C36.4258 33.8125 38.125 32.4648 38.125 30.4434C38.125 28.5098 36.6895 27.1914 34.4336 27.1914C32.2949 27.1914 30.4199 28.3633 30.332 30.2969H27.2266C27.3145 26.8398 30.5078 24.4961 34.4629 24.4961C38.623 24.4961 41.2598 27.1328 41.2305 30.2676C41.2598 32.6699 39.7656 34.4277 37.4805 34.9844V35.1309C40.3809 35.541 42.0508 37.4746 42.0508 40.1699C42.0508 43.7148 38.7988 46.293 34.4043 46.293Z" fill="white"/>
<path d="M26.7578 40.4629V39.4629H25.7233L25.7584 40.4968L26.7578 40.4629ZM30.0391 40.4629L31.0371 40.4005L30.9785 39.4629H30.0391V40.4629ZM32.207 36.4492H31.207V37.4492H32.207V36.4492ZM32.207 33.8125V32.8125H31.207V33.8125H32.207ZM30.332 30.2969V31.2969H31.2876L31.331 30.3423L30.332 30.2969ZM27.2266 30.2969L26.2269 30.2715L26.2008 31.2969H27.2266V30.2969ZM41.2305 30.2676L40.2305 30.2582L40.2304 30.269L40.2305 30.2798L41.2305 30.2676ZM37.4805 34.9844L37.2438 34.0128L36.4805 34.1987V34.9844H37.4805ZM37.4805 35.1309H36.4805V35.9994L37.3404 36.121L37.4805 35.1309ZM34.4043 46.293V45.293C30.3171 45.293 27.8492 43.1423 27.7572 40.429L26.7578 40.4629L25.7584 40.4968C25.9008 44.6975 29.7024 47.293 34.4043 47.293V46.293ZM26.7578 40.4629V41.4629H30.0391V40.4629V39.4629H26.7578V40.4629ZM30.0391 40.4629L29.041 40.5253C29.2073 43.1864 31.7804 44.5098 34.375 44.5098V43.5098V42.5098C32.2236 42.5098 31.1052 41.4894 31.0371 40.4005L30.0391 40.4629ZM34.375 43.5098V44.5098C37.2202 44.5098 39.7988 42.8809 39.7988 40.0527H38.7988H37.7988C37.7988 41.3261 36.6275 42.5098 34.375 42.5098V43.5098ZM38.7988 40.0527H39.7988C39.7988 38.7051 39.2179 37.5144 38.1601 36.6843C37.1222 35.8697 35.691 35.4492 34.0234 35.4492V36.4492V37.4492C35.3735 37.4492 36.33 37.7904 36.9254 38.2576C37.5009 38.7093 37.7988 39.3203 37.7988 40.0527H38.7988ZM34.0234 36.4492V35.4492H32.207V36.4492V37.4492H34.0234V36.4492ZM32.207 36.4492H33.207V33.8125H32.207H31.207V36.4492H32.207ZM32.207 33.8125V34.8125H34.0234V33.8125V32.8125H32.207V33.8125ZM34.0234 33.8125V34.8125C35.4044 34.8125 36.6673 34.4251 37.606 33.6619C38.5612 32.8851 39.125 31.7595 39.125 30.4434H38.125H37.125C37.125 31.1487 36.8392 31.7076 36.3442 32.1101C35.8327 32.526 35.0448 32.8125 34.0234 32.8125V33.8125ZM38.125 30.4434H39.125C39.125 29.2149 38.6613 28.1219 37.7907 27.3458C36.9302 26.5788 35.7533 26.1914 34.4336 26.1914V27.1914V28.1914C35.3698 28.1914 36.0386 28.4632 36.4598 28.8388C36.8709 29.2052 37.125 29.7382 37.125 30.4434H38.125ZM34.4336 27.1914V26.1914C32.0397 26.1914 29.4562 27.5432 29.3331 30.2515L30.332 30.2969L31.331 30.3423C31.3837 29.1833 32.5502 28.1914 34.4336 28.1914V27.1914ZM30.332 30.2969V29.2969H27.2266V30.2969V31.2969H30.332V30.2969ZM27.2266 30.2969L28.2262 30.3223C28.2955 27.5998 30.8348 25.4961 34.4629 25.4961V24.4961V23.4961C30.1808 23.4961 26.3335 26.0799 26.2269 30.2715L27.2266 30.2969ZM34.4629 24.4961V25.4961C38.1852 25.4961 40.2536 27.7906 40.2305 30.2582L41.2305 30.2676L42.2304 30.2769C42.266 26.4751 39.0609 23.4961 34.4629 23.4961V24.4961ZM41.2305 30.2676L40.2305 30.2798C40.2537 32.1813 39.1116 33.5578 37.2438 34.0128L37.4805 34.9844L37.7171 35.956C40.4196 35.2977 42.2658 33.1586 42.2304 30.2554L41.2305 30.2676ZM37.4805 34.9844H36.4805V35.1309H37.4805H38.4805V34.9844H37.4805ZM37.4805 35.1309L37.3404 36.121C38.5989 36.299 39.5114 36.7936 40.1081 37.4603C40.703 38.125 41.0508 39.0348 41.0508 40.1699H42.0508H43.0508C43.0508 38.6097 42.5636 37.2051 41.5984 36.1266C40.6351 35.0502 39.2624 34.3729 37.6205 34.1407L37.4805 35.1309ZM42.0508 40.1699H41.0508C41.0508 42.9642 38.4684 45.293 34.4043 45.293V46.293V47.293C39.1293 47.293 43.0508 44.4655 43.0508 40.1699H42.0508Z" fill="black" mask="url(#path-3-outside-1_518_2549)"/>
</svg>
