<svg width="578" height="277" viewBox="0 0 578 277" fill="none" xmlns="http://www.w3.org/2000/svg">
<g clip-path="url(#clip0_450_2296)">
<mask id="path-1-outside-1_450_2296" maskUnits="userSpaceOnUse" x="8.34465e-07" y="4.99999" width="576" height="272" fill="black">
<rect fill="white" x="8.34465e-07" y="4.99999" width="576" height="272"/>
<path d="M330.8 35.2C308 43.6 267.2 42.4 202.4 40C132.8 37.6 71.6 64.6 71.6 124C71.6 144.4 86 172 115.4 181.6C120.8 183.4 123.2 182.8 122.6 184.6C122 186.4 115.4 186.4 111.2 185.2C80.6 176.2 60.8 149.8 59.6 122.8C57.8 68.2 103.4 25 194.6 27.4C235.4 28.6 317.6 39.4 336.8 28.6C345.2 23.8 352.4 19 356.6 21.4C360.2 23.8 354.8 26.2 348.8 32.2C333.8 46.6 320.6 60.4 305.6 79.6C287.6 101.8 275 119.8 263.6 134.2H349.4C359 122.8 370.4 109 399.8 82C428 55.6 459.2 33.4 475.4 24.4C491.6 15.4 515.6 6.39997 535.4 6.39997C557.6 6.39997 570.2 17.2 573.2 25.6C575 30.4 574.4 34 572.6 34.6C571.4 35.2 571.4 32.8 569.6 29.2C564.8 19.6 555.2 12.4 536 12.4C516.8 12.4 496.4 22 481.4 32.8C465.8 44.2 450.8 58 426.8 83.8C411.2 100.6 393.2 122.8 384.8 134.2C401 134.8 422 135.4 432.8 136.6C437.6 137.2 446.6 137.8 446.6 139.6C446.6 142 437.6 141.4 433.4 141.4C412.4 141.4 392.6 141.4 378.8 142C351.8 176.2 313.4 226 313.4 248.2C313.4 255.4 318.8 258.4 324.8 258.4C335 258.4 348.8 253 367.4 239.8C375.8 233.8 392.6 219.4 401.6 211.6C405.2 208.6 407.6 207.4 408.8 208.6C410 209.8 408.8 211.6 405.2 215.2C397.4 222.4 380 237.4 370.4 244.6C361.4 251.2 338 268.6 314.6 268.6C297.2 268.6 285.8 259.6 285.8 242.2C285.8 211 327.8 160 342.8 142L258.2 142.6C200 214 146.6 275.8 61.4 275.8C32.6 275.8 1.4 263.2 1.4 229C1.4 212.8 14.6 197.2 32.6 197.8C44.6 198.4 53 207.4 51.8 220C51.2 227.2 47.6 233.2 42.2 238C36.8 242.8 34.4 247.6 34.4 253C35.6 265.6 51.8 270.4 64.4 270.4C128.6 270.4 186.8 186.4 221 142.6C211.4 142.6 197.6 143.2 176.6 143.8C172.4 143.8 164 144.4 165.2 140.8C165.8 138.4 174.2 137.8 182.6 137.2C193.4 136 209.6 135.4 227 134.8C258.8 96.4 306.2 51.4 330.8 35.2Z"/>
</mask>
<path d="M330.8 35.2C308 43.6 267.2 42.4 202.4 40C132.8 37.6 71.6 64.6 71.6 124C71.6 144.4 86 172 115.4 181.6C120.8 183.4 123.2 182.8 122.6 184.6C122 186.4 115.4 186.4 111.2 185.2C80.6 176.2 60.8 149.8 59.6 122.8C57.8 68.2 103.4 25 194.6 27.4C235.4 28.6 317.6 39.4 336.8 28.6C345.2 23.8 352.4 19 356.6 21.4C360.2 23.8 354.8 26.2 348.8 32.2C333.8 46.6 320.6 60.4 305.6 79.6C287.6 101.8 275 119.8 263.6 134.2H349.4C359 122.8 370.4 109 399.8 82C428 55.6 459.2 33.4 475.4 24.4C491.6 15.4 515.6 6.39997 535.4 6.39997C557.6 6.39997 570.2 17.2 573.2 25.6C575 30.4 574.4 34 572.6 34.6C571.4 35.2 571.4 32.8 569.6 29.2C564.8 19.6 555.2 12.4 536 12.4C516.8 12.4 496.4 22 481.4 32.8C465.8 44.2 450.8 58 426.8 83.8C411.2 100.6 393.2 122.8 384.8 134.2C401 134.8 422 135.4 432.8 136.6C437.6 137.2 446.6 137.8 446.6 139.6C446.6 142 437.6 141.4 433.4 141.4C412.4 141.4 392.6 141.4 378.8 142C351.8 176.2 313.4 226 313.4 248.2C313.4 255.4 318.8 258.4 324.8 258.4C335 258.4 348.8 253 367.4 239.8C375.8 233.8 392.6 219.4 401.6 211.6C405.2 208.6 407.6 207.4 408.8 208.6C410 209.8 408.8 211.6 405.2 215.2C397.4 222.4 380 237.4 370.4 244.6C361.4 251.2 338 268.6 314.6 268.6C297.2 268.6 285.8 259.6 285.8 242.2C285.8 211 327.8 160 342.8 142L258.2 142.6C200 214 146.6 275.8 61.4 275.8C32.6 275.8 1.4 263.2 1.4 229C1.4 212.8 14.6 197.2 32.6 197.8C44.6 198.4 53 207.4 51.8 220C51.2 227.2 47.6 233.2 42.2 238C36.8 242.8 34.4 247.6 34.4 253C35.6 265.6 51.8 270.4 64.4 270.4C128.6 270.4 186.8 186.4 221 142.6C211.4 142.6 197.6 143.2 176.6 143.8C172.4 143.8 164 144.4 165.2 140.8C165.8 138.4 174.2 137.8 182.6 137.2C193.4 136 209.6 135.4 227 134.8C258.8 96.4 306.2 51.4 330.8 35.2Z" fill="#B4C372"/>
<path d="M330.8 35.2L331.35 36.0351L330.454 34.2616L330.8 35.2ZM202.4 40L202.437 39.0006L202.434 39.0006L202.4 40ZM115.4 181.6L115.716 180.651L115.71 180.649L115.4 181.6ZM122.6 184.6L123.549 184.916L123.549 184.916L122.6 184.6ZM111.2 185.2L110.918 186.159L110.925 186.162L111.2 185.2ZM59.6 122.8L58.6005 122.833L58.601 122.844L59.6 122.8ZM194.6 27.4L194.629 26.4004L194.626 26.4003L194.6 27.4ZM336.8 28.6L337.29 29.4716L337.296 29.4682L336.8 28.6ZM356.6 21.4L357.155 20.5679L357.126 20.5488L357.096 20.5317L356.6 21.4ZM348.8 32.2L349.493 32.9214L349.5 32.9143L349.507 32.9071L348.8 32.2ZM305.6 79.6L306.377 80.2298L306.382 80.2227L306.388 80.2156L305.6 79.6ZM263.6 134.2L262.816 133.579L261.533 135.2H263.6V134.2ZM349.4 134.2V135.2H349.865L350.165 134.844L349.4 134.2ZM399.8 82L400.476 82.7365L400.483 82.73L399.8 82ZM475.4 24.4L474.914 23.5258L474.914 23.5258L475.4 24.4ZM573.2 25.6L572.258 25.9363L572.261 25.9437L572.264 25.9511L573.2 25.6ZM572.6 34.6L572.284 33.6513L572.216 33.6738L572.153 33.7056L572.6 34.6ZM569.6 29.2L570.494 28.7528L570.494 28.7528L569.6 29.2ZM481.4 32.8L480.816 31.9884L480.81 31.9926L481.4 32.8ZM426.8 83.8L426.068 83.1189L426.067 83.1195L426.8 83.8ZM384.8 134.2L383.995 133.607L382.873 135.129L384.763 135.199L384.8 134.2ZM432.8 136.6L432.924 135.608L432.91 135.606L432.8 136.6ZM378.8 142L378.757 141.001L378.299 141.021L378.015 141.38L378.8 142ZM367.4 239.8L367.979 240.615L367.981 240.614L367.4 239.8ZM401.6 211.6L400.96 210.832L400.952 210.838L400.945 210.844L401.6 211.6ZM408.8 208.6L409.507 207.893L409.507 207.893L408.8 208.6ZM405.2 215.2L405.878 215.935L405.893 215.921L405.907 215.907L405.2 215.2ZM370.4 244.6L370.991 245.406L371 245.4L370.4 244.6ZM342.8 142L343.568 142.64L344.948 140.985L342.793 141L342.8 142ZM258.2 142.6L258.193 141.6L257.722 141.603L257.425 141.968L258.2 142.6ZM32.6 197.8L32.6499 196.801L32.6416 196.801L32.6333 196.801L32.6 197.8ZM51.8 220L50.8044 219.905L50.8035 219.917L51.8 220ZM34.4 253H33.4V253.047L33.4045 253.095L34.4 253ZM221 142.6L221.788 143.215L223.05 141.6H221V142.6ZM176.6 143.8V144.8H176.614L176.629 144.8L176.6 143.8ZM165.2 140.8L166.149 141.116L166.161 141.08L166.17 141.043L165.2 140.8ZM182.6 137.2L182.671 138.197L182.691 138.196L182.71 138.194L182.6 137.2ZM227 134.8L227.034 135.799L227.484 135.784L227.77 135.438L227 134.8ZM330.8 35.2L330.454 34.2616C319.22 38.4004 303.463 40.2005 282.329 40.6502C261.214 41.0995 234.845 40.201 202.437 39.0007L202.4 40L202.363 40.9993C234.755 42.199 261.186 43.1005 282.371 42.6497C303.537 42.1994 319.58 40.3995 331.146 36.1383L330.8 35.2ZM202.4 40L202.434 39.0006C167.517 37.7965 134.613 43.9608 110.399 57.9592C86.1431 71.9825 70.6 93.8859 70.6 124H71.6H72.6C72.6 94.714 87.6569 73.4175 111.401 59.6907C135.187 45.9391 167.683 39.8034 202.366 40.9994L202.4 40ZM71.6 124H70.6C70.6 144.785 85.2348 172.802 115.09 182.551L115.4 181.6L115.71 180.649C86.7652 171.198 72.6 144.015 72.6 124H71.6ZM115.4 181.6L115.084 182.549C117.827 183.463 119.91 183.796 121.007 184.07C121.291 184.141 121.49 184.202 121.631 184.26C121.776 184.319 121.8 184.351 121.78 184.332C121.739 184.291 121.7 184.216 121.691 184.145C121.686 184.104 121.701 184.134 121.651 184.284L122.6 184.6L123.549 184.916C123.649 184.616 123.72 184.271 123.678 183.911C123.632 183.521 123.461 183.184 123.195 182.918C122.95 182.674 122.655 182.518 122.388 182.409C122.116 182.298 121.809 182.209 121.493 182.13C120.19 181.804 118.373 181.537 115.716 180.651L115.4 181.6ZM122.6 184.6L121.651 184.284C121.666 184.24 121.674 184.278 121.542 184.369C121.409 184.46 121.19 184.566 120.865 184.665C120.213 184.864 119.297 184.989 118.217 185.026C116.06 185.097 113.465 184.807 111.475 184.238L111.2 185.2L110.925 186.162C113.135 186.793 115.94 187.103 118.283 187.024C119.453 186.985 120.562 186.848 121.448 186.578C121.891 186.443 122.319 186.263 122.678 186.015C123.039 185.766 123.384 185.41 123.549 184.916L122.6 184.6ZM111.2 185.2L111.482 184.241C81.272 175.355 61.7791 149.308 60.599 122.756L59.6 122.8L58.601 122.844C59.8209 150.292 79.928 177.045 110.918 186.159L111.2 185.2ZM59.6 122.8L60.5995 122.767C59.7098 95.7808 70.5213 71.6419 92.8338 54.5183C115.172 37.3749 149.123 27.2035 194.574 28.3996L194.6 27.4L194.626 26.4003C148.877 25.1964 114.428 35.4251 91.6162 52.9317C68.7787 70.4581 57.6902 95.2191 58.6005 122.833L59.6 122.8ZM194.6 27.4L194.571 28.3995C214.977 28.9997 245.605 31.9936 273.747 33.4985C287.781 34.2491 301.17 34.6262 312.263 34.1365C317.809 33.8917 322.802 33.4294 327.025 32.6832C331.234 31.9395 334.746 30.9025 337.29 29.4715L336.8 28.6L336.31 27.7284C334.054 28.9974 330.798 29.9855 326.677 30.7137C322.57 31.4393 317.672 31.8958 312.175 32.1384C301.18 32.6238 287.869 32.2509 273.853 31.5014C245.895 30.0063 215.023 27.0002 194.629 26.4004L194.6 27.4ZM336.8 28.6L337.296 29.4682C341.545 27.0403 345.367 24.6865 348.681 23.2138C350.329 22.4812 351.787 21.998 353.049 21.8286C354.301 21.6604 355.3 21.8089 356.104 22.2682L356.6 21.4L357.096 20.5317C355.8 19.7911 354.324 19.6395 352.783 19.8464C351.251 20.052 349.596 20.6187 347.869 21.3862C344.433 22.9134 340.455 25.3597 336.304 27.7317L336.8 28.6ZM356.6 21.4L356.045 22.232C356.8 22.7353 356.769 23.0115 356.754 23.1148C356.712 23.4102 356.421 23.9145 355.593 24.7429C354.804 25.5321 353.722 26.4338 352.406 27.5587C351.108 28.669 349.621 29.9645 348.093 31.4929L348.8 32.2L349.507 32.9071C350.979 31.4355 352.417 30.1809 353.706 29.0788C354.978 27.9912 356.146 27.0178 357.007 26.1571C357.829 25.3355 358.588 24.4147 358.734 23.3977C358.906 22.1884 358.2 21.2646 357.155 20.5679L356.6 21.4ZM348.8 32.2L348.107 31.4786C333.084 45.9015 319.849 59.737 304.812 78.9843L305.6 79.6L306.388 80.2156C321.351 61.063 334.516 47.2984 349.493 32.9214L348.8 32.2ZM305.6 79.6L304.823 78.9702C295.812 90.0842 288.153 100.145 281.326 109.224C274.494 118.308 268.506 126.392 262.816 133.579L263.6 134.2L264.384 134.821C270.094 127.608 276.106 119.492 282.924 110.426C289.747 101.355 297.388 91.3158 306.377 80.2298L305.6 79.6ZM263.6 134.2V135.2H349.4V134.2V133.2H263.6V134.2ZM349.4 134.2L350.165 134.844C359.748 123.464 371.118 109.698 400.476 82.7365L399.8 82L399.124 81.2634C369.682 108.302 358.252 122.136 348.635 133.556L349.4 134.2ZM399.8 82L400.483 82.73C428.636 56.3745 459.771 34.227 475.886 25.2741L475.4 24.4L474.914 23.5258C458.629 32.573 427.364 54.8255 399.117 81.27L399.8 82ZM475.4 24.4L475.886 25.2741C492.014 16.314 515.84 7.39997 535.4 7.39997V6.39997V5.39997C515.36 5.39997 491.186 14.486 474.914 23.5258L475.4 24.4ZM535.4 6.39997V7.39997C557.31 7.39997 569.44 18.046 572.258 25.9363L573.2 25.6L574.142 25.2636C570.96 16.354 557.89 5.39997 535.4 5.39997V6.39997ZM573.2 25.6L572.264 25.9511C573.127 28.2523 573.386 30.1966 573.254 31.5802C573.116 33.0386 572.601 33.5456 572.284 33.6513L572.6 34.6L572.916 35.5487C574.399 35.0544 575.084 33.4613 575.245 31.7698C575.414 30.0033 575.073 27.7476 574.136 25.2488L573.2 25.6ZM572.6 34.6L572.153 33.7056C572.117 33.7235 572.189 33.6782 572.328 33.6961C572.479 33.7155 572.567 33.7908 572.585 33.8085C572.591 33.8139 572.555 33.7776 572.486 33.6452C572.421 33.5186 572.347 33.3471 572.258 33.116C571.913 32.2191 571.423 30.6097 570.494 28.7528L569.6 29.2L568.706 29.6472C569.577 31.3902 569.987 32.7809 570.392 33.834C570.569 34.2964 570.802 34.8537 571.171 35.2227C571.386 35.4373 571.685 35.6297 572.073 35.6797C572.448 35.7281 572.783 35.6265 573.047 35.4944L572.6 34.6ZM569.6 29.2L570.494 28.7528C568.015 23.7939 564.282 19.4347 558.686 16.3258C553.1 13.2228 545.722 11.4 536 11.4V12.4V13.4C545.478 13.4 552.5 15.1772 557.714 18.0741C562.918 20.9652 566.385 25.006 568.706 29.6472L569.6 29.2ZM536 12.4V11.4C516.505 11.4 495.9 21.1279 480.816 31.9884L481.4 32.8L481.984 33.6115C496.9 22.8721 517.095 13.4 536 13.4V12.4ZM481.4 32.8L480.81 31.9926C465.136 43.4463 450.087 57.2981 426.068 83.1189L426.8 83.8L427.532 84.4811C451.513 58.7018 466.463 44.9537 481.99 33.6074L481.4 32.8ZM426.8 83.8L426.067 83.1195C410.441 99.9482 392.417 122.177 383.995 133.607L384.8 134.2L385.605 134.793C393.983 123.422 411.959 101.252 427.533 84.4804L426.8 83.8ZM384.8 134.2L384.763 135.199C400.996 135.801 421.938 136.399 432.69 137.594L432.8 136.6L432.91 135.606C422.062 134.401 401.004 133.799 384.837 133.201L384.8 134.2ZM432.8 136.6L432.676 137.592C435.141 137.9 438.508 138.19 441.344 138.638C442.757 138.861 443.96 139.113 444.791 139.401C445.212 139.547 445.472 139.681 445.607 139.782C445.754 139.891 445.6 139.837 445.6 139.6H446.6H447.6C447.6 138.913 447.164 138.447 446.8 138.176C446.425 137.897 445.944 137.684 445.447 137.511C444.44 137.162 443.093 136.889 441.656 136.662C438.792 136.21 435.259 135.9 432.924 135.608L432.8 136.6ZM446.6 139.6H445.6C445.6 139.538 445.646 139.53 445.562 139.6C445.454 139.691 445.229 139.816 444.833 139.938C444.046 140.182 442.891 140.327 441.521 140.401C438.778 140.55 435.575 140.4 433.4 140.4V141.4V142.4C435.425 142.4 438.822 142.55 441.629 142.399C443.034 142.323 444.392 142.168 445.424 141.849C445.937 141.69 446.448 141.468 446.848 141.133C447.273 140.776 447.6 140.262 447.6 139.6H446.6ZM433.4 141.4V140.4C412.409 140.4 392.584 140.4 378.757 141.001L378.8 142L378.843 142.999C392.616 142.4 412.391 142.4 433.4 142.4V141.4ZM378.8 142L378.015 141.38C364.516 158.479 348.143 179.508 335.142 199.046C328.643 208.814 322.971 218.232 318.921 226.615C314.887 234.967 312.4 242.413 312.4 248.2H313.4H314.4C314.4 242.887 316.713 235.783 320.722 227.485C324.716 219.218 330.332 209.886 336.808 200.154C349.757 180.692 366.084 159.721 379.585 142.62L378.8 142ZM313.4 248.2H312.4C312.4 252.079 313.87 254.93 316.232 256.786C318.559 258.615 321.65 259.4 324.8 259.4V258.4V257.4C321.95 257.4 319.341 256.685 317.468 255.214C315.63 253.77 314.4 251.521 314.4 248.2H313.4ZM324.8 258.4V259.4C335.319 259.4 349.332 253.849 367.979 240.615L367.4 239.8L366.821 238.984C348.268 252.151 334.681 257.4 324.8 257.4V258.4ZM367.4 239.8L367.981 240.614C376.428 234.58 393.269 220.143 402.255 212.356L401.6 211.6L400.945 210.844C391.931 218.657 375.172 233.02 366.819 238.986L367.4 239.8ZM401.6 211.6L402.24 212.368C404.027 210.879 405.437 209.907 406.501 209.441C407.597 208.961 407.949 209.163 408.093 209.307L408.8 208.6L409.507 207.893C408.451 206.836 407.003 207.038 405.699 207.609C404.363 208.193 402.773 209.321 400.96 210.832L401.6 211.6ZM408.8 208.6L408.093 209.307C408.227 209.441 408.25 209.531 408.25 209.631C408.25 209.779 408.19 210.051 407.932 210.504C407.407 211.422 406.301 212.685 404.493 214.493L405.2 215.2L405.907 215.907C407.699 214.115 408.993 212.678 409.668 211.496C410.01 210.899 410.25 210.271 410.25 209.631C410.25 208.944 409.973 208.359 409.507 207.893L408.8 208.6ZM405.2 215.2L404.522 214.465C396.735 221.652 379.363 236.628 369.8 243.8L370.4 244.6L371 245.4C380.637 238.172 398.065 223.147 405.878 215.935L405.2 215.2ZM370.4 244.6L369.809 243.794C365.307 247.095 357.262 253.053 347.437 258.189C337.6 263.33 326.068 267.6 314.6 267.6V268.6V269.6C326.532 269.6 338.4 265.17 348.363 259.961C358.338 254.747 366.493 248.705 370.991 245.406L370.4 244.6ZM314.6 268.6V267.6C306.061 267.6 299.125 265.392 294.336 261.174C289.566 256.974 286.8 250.67 286.8 242.2H285.8H284.8C284.8 251.13 287.734 258.026 293.014 262.675C298.275 267.308 305.739 269.6 314.6 269.6V268.6ZM285.8 242.2H286.8C286.8 234.602 289.363 225.713 293.512 216.316C297.654 206.934 303.341 197.122 309.512 187.698C321.852 168.85 336.07 151.638 343.568 142.64L342.8 142L342.032 141.36C334.53 150.362 320.248 167.65 307.838 186.602C301.634 196.078 295.884 205.991 291.682 215.509C287.487 225.012 284.8 234.198 284.8 242.2H285.8ZM342.8 142L342.793 141L258.193 141.6L258.2 142.6L258.207 143.6L342.807 143L342.8 142ZM258.2 142.6L257.425 141.968C199.166 213.441 146.053 274.8 61.4 274.8V275.8V276.8C147.147 276.8 200.834 214.559 258.975 143.232L258.2 142.6ZM61.4 275.8V274.8C47.1225 274.8 32.3325 271.673 21.1458 264.387C10.0081 257.133 2.4 245.737 2.4 229H1.4H0.4C0.4 246.462 8.39193 258.467 20.0542 266.063C31.6675 273.627 46.8775 276.8 61.4 276.8V275.8ZM1.4 229H2.4C2.4 213.281 15.2123 198.221 32.5667 198.799L32.6 197.8L32.6333 196.801C13.9877 196.179 0.4 212.319 0.4 229H1.4ZM32.6 197.8L32.5501 198.799C38.309 199.087 43.1469 201.384 46.401 205.063C49.6518 208.737 51.3806 213.856 50.8045 219.905L51.8 220L52.7955 220.095C53.4194 213.544 51.5482 207.863 47.899 203.737C44.2531 199.616 38.891 197.113 32.6499 196.801L32.6 197.8ZM51.8 220L50.8035 219.917C50.2292 226.808 46.7878 232.584 41.5356 237.253L42.2 238L42.8644 238.747C48.4122 233.816 52.1708 227.592 52.7965 220.083L51.8 220ZM42.2 238L41.5356 237.253C35.9842 242.187 33.4 247.241 33.4 253H34.4H35.4C35.4 247.959 37.6158 243.413 42.8644 238.747L42.2 238ZM34.4 253L33.4045 253.095C34.0503 259.875 38.7422 264.467 44.6919 267.326C50.6376 270.183 57.9952 271.4 64.4 271.4V270.4V269.4C58.2048 269.4 51.1624 268.217 45.5581 265.524C39.9578 262.833 35.9497 258.725 35.3955 252.905L34.4 253ZM64.4 270.4V271.4C96.9188 271.4 127.768 250.146 154.652 223.637C181.562 197.103 204.72 165.074 221.788 143.215L221 142.6L220.212 141.985C203.08 163.926 180.038 195.797 153.248 222.213C126.432 248.654 96.0812 269.4 64.4 269.4V270.4ZM221 142.6V141.6C211.381 141.6 197.546 142.201 176.571 142.8L176.6 143.8L176.629 144.8C197.654 144.199 211.419 143.6 221 143.6V142.6ZM176.6 143.8V142.8C174.419 142.8 171.39 142.948 168.995 142.657C167.782 142.51 166.913 142.267 166.434 141.952C166.214 141.807 166.138 141.688 166.109 141.611C166.084 141.543 166.054 141.4 166.149 141.116L165.2 140.8L164.251 140.484C164.046 141.1 164.016 141.726 164.237 142.314C164.454 142.894 164.87 143.318 165.335 143.623C166.225 144.208 167.493 144.49 168.755 144.643C171.31 144.952 174.581 144.8 176.6 144.8V143.8ZM165.2 140.8L166.17 141.043C166.177 141.015 166.212 140.915 166.407 140.756C166.604 140.595 166.914 140.418 167.364 140.237C168.263 139.876 169.546 139.571 171.136 139.312C174.306 138.796 178.455 138.499 182.671 138.197L182.6 137.2L182.529 136.203C178.345 136.501 174.094 136.804 170.814 137.338C169.179 137.604 167.724 137.937 166.618 138.381C166.064 138.604 165.554 138.872 165.144 139.206C164.731 139.542 164.373 139.985 164.23 140.557L165.2 140.8ZM182.6 137.2L182.71 138.194C193.464 136.999 209.62 136.4 227.034 135.799L227 134.8L226.966 133.801C209.58 134.4 193.336 135.001 182.49 136.206L182.6 137.2ZM227 134.8L227.77 135.438C259.538 97.0769 306.865 52.1593 331.35 36.0351L330.8 35.2L330.25 34.3648C305.535 50.6407 258.062 95.723 226.23 134.162L227 134.8Z" fill="black" mask="url(#path-1-outside-1_450_2296)"/>
</g>
<defs>
<clipPath id="clip0_450_2296">
<rect width="578" height="277" fill="white"/>
</clipPath>
</defs>
</svg>
