<svg width="429" height="201" viewBox="0 0 429 201" fill="none" xmlns="http://www.w3.org/2000/svg">
<g clip-path="url(#clip0_481_2213)">
<mask id="path-1-outside-1_481_2213" maskUnits="userSpaceOnUse" x="34" y="9.99999" width="385" height="183" fill="black">
<rect fill="white" x="34" y="9.99999" width="385" height="183"/>
<path d="M255.2 30.8C240 36.4 212.8 35.6 169.6 34C123.2 32.4 82.4 50.4 82.4 90C82.4 103.6 92 122 111.6 128.4C115.2 129.6 116.8 129.2 116.4 130.4C116 131.6 111.6 131.6 108.8 130.8C88.4 124.8 75.2 107.2 74.4 89.2C73.2 52.8 103.6 24 164.4 25.6C191.6 26.4 246.4 33.6 259.2 26.4C264.8 23.2 269.6 20 272.4 21.6C274.8 23.2 271.2 24.8 267.2 28.8C257.2 38.4 248.4 47.6 238.4 60.4C226.4 75.2 218 87.2 210.4 96.8H267.6C274 89.2 281.6 80 301.2 62C320 44.4 340.8 29.6 351.6 23.6C362.4 17.6 378.4 11.6 391.6 11.6C406.4 11.6 414.8 18.8 416.8 24.4C418 27.6 417.6 30 416.4 30.4C415.6 30.8 415.6 29.2 414.4 26.8C411.2 20.4 404.8 15.6 392 15.6C379.2 15.6 365.6 22 355.6 29.2C345.2 36.8 335.2 46 319.2 63.2C308.8 74.4 296.8 89.2 291.2 96.8C302 97.2 316 97.6 323.2 98.4C326.4 98.8 332.4 99.2 332.4 100.4C332.4 102 326.4 101.6 323.6 101.6C309.6 101.6 296.4 101.6 287.2 102C269.2 124.8 243.6 158 243.6 172.8C243.6 177.6 247.2 179.6 251.2 179.6C258 179.6 267.2 176 279.6 167.2C285.2 163.2 296.4 153.6 302.4 148.4C304.8 146.4 306.4 145.6 307.2 146.4C308 147.2 307.2 148.4 304.8 150.8C299.6 155.6 288 165.6 281.6 170.4C275.6 174.8 260 186.4 244.4 186.4C232.8 186.4 225.2 180.4 225.2 168.8C225.2 148 253.2 114 263.2 102L206.8 102.4C168 150 132.4 191.2 75.6 191.2C56.4 191.2 35.6 182.8 35.6 160C35.6 149.2 44.4 138.8 56.4 139.2C64.4 139.6 70 145.6 69.2 154C68.8 158.8 66.4 162.8 62.8 166C59.2 169.2 57.6 172.4 57.6 176C58.4 184.4 69.2 187.6 77.6 187.6C120.4 187.6 159.2 131.6 182 102.4C175.6 102.4 166.4 102.8 152.4 103.2C149.6 103.2 144 103.6 144.8 101.2C145.2 99.6 150.8 99.2 156.4 98.8C163.6 98 174.4 97.6 186 97.2C207.2 71.6 238.8 41.6 255.2 30.8Z"/>
</mask>
<path d="M255.2 30.8C240 36.4 212.8 35.6 169.6 34C123.2 32.4 82.4 50.4 82.4 90C82.4 103.6 92 122 111.6 128.4C115.2 129.6 116.8 129.2 116.4 130.4C116 131.6 111.6 131.6 108.8 130.8C88.4 124.8 75.2 107.2 74.4 89.2C73.2 52.8 103.6 24 164.4 25.6C191.6 26.4 246.4 33.6 259.2 26.4C264.8 23.2 269.6 20 272.4 21.6C274.8 23.2 271.2 24.8 267.2 28.8C257.2 38.4 248.4 47.6 238.4 60.4C226.4 75.2 218 87.2 210.4 96.8H267.6C274 89.2 281.6 80 301.2 62C320 44.4 340.8 29.6 351.6 23.6C362.4 17.6 378.4 11.6 391.6 11.6C406.4 11.6 414.8 18.8 416.8 24.4C418 27.6 417.6 30 416.4 30.4C415.6 30.8 415.6 29.2 414.4 26.8C411.2 20.4 404.8 15.6 392 15.6C379.2 15.6 365.6 22 355.6 29.2C345.2 36.8 335.2 46 319.2 63.2C308.8 74.4 296.8 89.2 291.2 96.8C302 97.2 316 97.6 323.2 98.4C326.4 98.8 332.4 99.2 332.4 100.4C332.4 102 326.4 101.6 323.6 101.6C309.6 101.6 296.4 101.6 287.2 102C269.2 124.8 243.6 158 243.6 172.8C243.6 177.6 247.2 179.6 251.2 179.6C258 179.6 267.2 176 279.6 167.2C285.2 163.2 296.4 153.6 302.4 148.4C304.8 146.4 306.4 145.6 307.2 146.4C308 147.2 307.2 148.4 304.8 150.8C299.6 155.6 288 165.6 281.6 170.4C275.6 174.8 260 186.4 244.4 186.4C232.8 186.4 225.2 180.4 225.2 168.8C225.2 148 253.2 114 263.2 102L206.8 102.4C168 150 132.4 191.2 75.6 191.2C56.4 191.2 35.6 182.8 35.6 160C35.6 149.2 44.4 138.8 56.4 139.2C64.4 139.6 70 145.6 69.2 154C68.8 158.8 66.4 162.8 62.8 166C59.2 169.2 57.6 172.4 57.6 176C58.4 184.4 69.2 187.6 77.6 187.6C120.4 187.6 159.2 131.6 182 102.4C175.6 102.4 166.4 102.8 152.4 103.2C149.6 103.2 144 103.6 144.8 101.2C145.2 99.6 150.8 99.2 156.4 98.8C163.6 98 174.4 97.6 186 97.2C207.2 71.6 238.8 41.6 255.2 30.8Z" fill="#B4C372"/>
<path d="M255.2 30.8L255.75 31.6352L254.854 29.8616L255.2 30.8ZM169.6 34L169.637 33.0007L169.634 33.0006L169.6 34ZM111.6 128.4L111.916 127.451L111.91 127.449L111.6 128.4ZM116.4 130.4L117.349 130.716L117.349 130.716L116.4 130.4ZM108.8 130.8L108.518 131.759L108.525 131.762L108.8 130.8ZM74.4 89.2L73.4005 89.2329L73.401 89.2444L74.4 89.2ZM164.4 25.6L164.429 24.6004L164.426 24.6003L164.4 25.6ZM259.2 26.4L259.69 27.2716L259.696 27.2682L259.2 26.4ZM272.4 21.6L272.955 20.7679L272.926 20.7488L272.896 20.7317L272.4 21.6ZM267.2 28.8L267.893 29.5214L267.9 29.5143L267.907 29.5071L267.2 28.8ZM238.4 60.4L239.177 61.0298L239.182 61.0228L239.188 61.0156L238.4 60.4ZM210.4 96.8L209.616 96.1793L208.333 97.8H210.4V96.8ZM267.6 96.8V97.8H268.065L268.365 97.4441L267.6 96.8ZM301.2 62L301.876 62.7365L301.883 62.73L301.2 62ZM351.6 23.6L351.114 22.7258L351.114 22.7258L351.6 23.6ZM416.8 24.4L415.858 24.7363L415.861 24.7437L415.864 24.7511L416.8 24.4ZM416.4 30.4L416.084 29.4513L416.016 29.4738L415.953 29.5056L416.4 30.4ZM414.4 26.8L415.294 26.3528L415.294 26.3528L414.4 26.8ZM355.6 29.2L355.016 28.3884L355.01 28.3926L355.6 29.2ZM319.2 63.2L318.468 62.5189L318.467 62.5195L319.2 63.2ZM291.2 96.8L290.395 96.2068L289.273 97.7293L291.163 97.7993L291.2 96.8ZM323.2 98.4L323.324 97.4076L323.31 97.4061L323.2 98.4ZM287.2 102L287.157 101.001L286.699 101.021L286.415 101.38L287.2 102ZM279.6 167.2L280.179 168.015L280.181 168.014L279.6 167.2ZM302.4 148.4L301.76 147.632L301.752 147.638L301.745 147.644L302.4 148.4ZM307.2 146.4L307.907 145.693L307.907 145.693L307.2 146.4ZM304.8 150.8L305.478 151.535L305.493 151.521L305.507 151.507L304.8 150.8ZM281.6 170.4L282.191 171.206L282.2 171.2L281.6 170.4ZM263.2 102L263.968 102.64L265.348 100.985L263.193 101L263.2 102ZM206.8 102.4L206.793 101.4L206.322 101.403L206.025 101.768L206.8 102.4ZM56.4 139.2L56.4499 138.201L56.4416 138.201L56.4333 138.201L56.4 139.2ZM69.2 154L68.2044 153.905L68.2035 153.917L69.2 154ZM57.6 176H56.6V176.047L56.6045 176.095L57.6 176ZM182 102.4L182.788 103.015L184.05 101.4H182V102.4ZM152.4 103.2V104.2H152.414L152.429 104.2L152.4 103.2ZM144.8 101.2L145.749 101.516L145.761 101.48L145.77 101.443L144.8 101.2ZM156.4 98.8L156.471 99.7974L156.491 99.796L156.51 99.7939L156.4 98.8ZM186 97.2L186.034 98.1994L186.484 98.1839L186.77 97.8378L186 97.2ZM255.2 30.8L254.854 29.8616C247.42 32.6004 236.963 33.8005 222.879 34.1002C208.814 34.3995 191.245 33.801 169.637 33.0007L169.6 34L169.563 34.9993C191.155 35.799 208.786 36.4005 222.921 36.0998C237.037 35.7994 247.78 34.5995 255.546 31.7383L255.2 30.8ZM169.6 34L169.634 33.0006C146.317 32.1965 124.313 36.3108 108.099 45.6842C91.8431 55.0825 81.4 69.7859 81.4 90H82.4H83.4C83.4 70.614 93.3569 56.5175 109.101 47.4157C124.887 38.2891 146.483 34.2035 169.566 34.9994L169.6 34ZM82.4 90H81.4C81.4 103.985 91.2348 122.802 111.29 129.351L111.6 128.4L111.91 127.449C92.7652 121.198 83.4 103.215 83.4 90H82.4ZM111.6 128.4L111.284 129.349C113.127 129.963 114.56 130.196 115.257 130.37C115.441 130.416 115.556 130.452 115.628 130.482C115.704 130.513 115.675 130.514 115.618 130.457C115.539 130.378 115.478 130.26 115.463 130.136C115.452 130.041 115.476 130.009 115.451 130.084L116.4 130.4L117.349 130.716C117.424 130.491 117.485 130.209 117.449 129.902C117.41 129.565 117.261 129.271 117.032 129.043C116.825 128.836 116.583 128.712 116.385 128.631C116.182 128.548 115.959 128.484 115.743 128.43C114.84 128.204 113.673 128.037 111.916 127.451L111.6 128.4ZM116.4 130.4L115.451 130.084C115.491 129.965 115.555 129.937 115.505 129.972C115.455 130.007 115.344 130.064 115.146 130.125C114.751 130.245 114.172 130.327 113.467 130.351C112.06 130.397 110.365 130.207 109.075 129.838L108.8 130.8L108.525 131.762C110.035 132.193 111.94 132.403 113.533 132.349C114.328 132.323 115.099 132.23 115.729 132.038C116.044 131.942 116.364 131.809 116.642 131.617C116.92 131.425 117.209 131.135 117.349 130.716L116.4 130.4ZM108.8 130.8L109.082 129.841C89.072 123.955 76.1791 106.708 75.399 89.1556L74.4 89.2L73.401 89.2444C74.2209 107.692 87.728 125.645 108.518 131.759L108.8 130.8ZM74.4 89.2L75.3995 89.167C74.8098 71.2809 81.9713 55.2919 96.7588 43.9433C111.572 32.5749 134.123 25.8036 164.374 26.5996L164.4 25.6L164.426 24.6003C133.877 23.7964 110.828 30.6251 95.5412 42.3567C80.2287 54.1081 72.7902 70.7191 73.4005 89.2329L74.4 89.2ZM164.4 25.6L164.371 26.5995C177.977 26.9997 198.355 28.9936 217.147 29.9986C226.506 30.4991 235.445 30.7512 242.857 30.424C246.563 30.2604 249.906 29.9513 252.741 29.4504C255.562 28.952 257.946 28.2525 259.69 27.2716L259.2 26.4L258.71 25.5284C257.254 26.3474 255.126 26.998 252.393 27.4809C249.675 27.9612 246.425 28.2645 242.768 28.426C235.455 28.7488 226.594 28.5009 217.253 28.0014C198.645 27.0063 178.023 25.0002 164.429 24.6004L164.4 25.6ZM259.2 26.4L259.696 27.2682C262.545 25.6403 265.067 24.0865 267.256 23.1138C268.342 22.6313 269.28 22.323 270.077 22.2161C270.864 22.1104 271.45 22.2089 271.904 22.4682L272.4 21.6L272.896 20.7317C271.95 20.1911 270.886 20.0895 269.811 20.2339C268.745 20.377 267.608 20.7687 266.444 21.2862C264.133 22.3134 261.455 23.9597 258.704 25.5317L259.2 26.4ZM272.4 21.6L271.845 22.432C272.075 22.5849 272.153 22.6868 272.173 22.7211C272.181 22.7342 272.178 22.7321 272.175 22.7175C272.172 22.7026 272.173 22.6933 272.173 22.6961C272.162 22.7728 272.046 23.0395 271.493 23.5929C270.979 24.1071 270.272 24.6963 269.388 25.4524C268.52 26.194 267.521 27.0645 266.493 28.0929L267.2 28.8L267.907 29.5071C268.879 28.5355 269.83 27.7059 270.687 26.9725C271.528 26.2537 272.321 25.5928 272.907 25.0071C273.454 24.4605 274.038 23.7772 274.152 22.9789C274.294 21.9884 273.7 21.2646 272.955 20.7679L272.4 21.6ZM267.2 28.8L266.507 28.0786C256.484 37.7015 247.649 46.937 237.612 59.7843L238.4 60.4L239.188 61.0156C249.151 48.263 257.916 39.0984 267.893 29.5214L267.2 28.8ZM238.4 60.4L237.623 59.7702C231.612 67.1842 226.503 73.8954 221.951 79.9489C217.394 86.0081 213.406 91.3921 209.616 96.1793L210.4 96.8L211.184 97.4207C214.994 92.6079 219.006 87.1919 223.549 81.151C228.097 75.1045 233.188 68.4158 239.177 61.0298L238.4 60.4ZM210.4 96.8V97.8H267.6V96.8V95.8H210.4V96.8ZM267.6 96.8L268.365 97.4441C274.748 89.8641 282.318 80.6983 301.876 62.7365L301.2 62L300.524 61.2635C280.882 79.3017 273.252 88.5358 266.835 96.1558L267.6 96.8ZM301.2 62L301.883 62.73C320.636 45.1745 341.371 30.427 352.086 24.4741L351.6 23.6L351.114 22.7258C340.229 28.773 319.364 43.6255 300.517 61.27L301.2 62ZM351.6 23.6L352.086 24.4741C362.814 18.514 378.64 12.6 391.6 12.6V11.6V10.6C378.16 10.6 361.986 16.686 351.114 22.7258L351.6 23.6ZM391.6 11.6V12.6C406.11 12.6 414.04 19.646 415.858 24.7363L416.8 24.4L417.742 24.0636C415.56 17.954 406.69 10.6 391.6 10.6V11.6ZM416.8 24.4L415.864 24.7511C416.427 26.2524 416.586 27.4966 416.504 28.3552C416.416 29.2886 416.101 29.4456 416.084 29.4513L416.4 30.4L416.716 31.3487C417.899 30.9544 418.384 29.7113 418.495 28.5448C418.614 27.3033 418.373 25.7476 417.736 24.0489L416.8 24.4ZM416.4 30.4L415.953 29.5056C415.967 29.4985 416.083 29.4438 416.261 29.4668C416.452 29.4913 416.575 29.5861 416.626 29.6366C416.667 29.6775 416.618 29.6411 416.483 29.291C416.263 28.7191 415.923 27.6097 415.294 26.3528L414.4 26.8L413.506 27.2472C414.077 28.3902 414.337 29.2809 414.617 30.009C414.732 30.3089 414.908 30.7475 415.212 31.0508C415.393 31.2326 415.657 31.4055 416.006 31.4504C416.342 31.4937 416.633 31.4015 416.847 31.2944L416.4 30.4ZM414.4 26.8L415.294 26.3528C413.615 22.994 411.082 20.0347 407.286 17.9258C403.5 15.8228 398.522 14.6 392 14.6V15.6V16.6C398.278 16.6 402.9 17.7772 406.314 19.6741C409.718 21.5652 411.985 24.206 413.506 27.2472L414.4 26.8ZM392 15.6V14.6C378.905 14.6 365.1 21.1279 355.016 28.3884L355.6 29.2L356.184 30.0115C366.1 22.8721 379.495 16.6 392 16.6V15.6ZM355.6 29.2L355.01 28.3926C344.536 36.0463 334.487 45.2981 318.468 62.5189L319.2 63.2L319.932 63.8811C335.913 46.7018 345.864 37.5537 356.19 30.0074L355.6 29.2ZM319.2 63.2L318.467 62.5195C308.041 73.7482 296.017 88.5775 290.395 96.2068L291.2 96.8L292.005 97.3932C297.583 89.8225 309.559 75.0517 319.933 63.8804L319.2 63.2ZM291.2 96.8L291.163 97.7993C301.996 98.2005 315.938 98.5992 323.09 99.3939L323.2 98.4L323.31 97.4061C316.062 96.6008 302.004 96.1995 291.237 95.8007L291.2 96.8ZM323.2 98.4L323.076 99.3923C324.741 99.6004 326.958 99.7899 328.844 100.088C329.782 100.236 330.56 100.4 331.085 100.582C331.353 100.675 331.489 100.751 331.539 100.789C331.601 100.834 331.4 100.712 331.4 100.4H332.4H333.4C333.4 99.7882 333.011 99.3905 332.732 99.1833C332.442 98.9677 332.085 98.8122 331.74 98.6927C331.04 98.4498 330.118 98.2641 329.156 98.1122C327.242 97.8101 324.859 97.5995 323.324 97.4077L323.2 98.4ZM332.4 100.4H331.4C331.4 100.337 331.417 100.269 331.447 100.212C331.474 100.16 331.5 100.14 331.494 100.145C331.47 100.165 331.368 100.231 331.123 100.307C330.64 100.457 329.904 100.552 328.996 100.601C327.178 100.7 325.075 100.6 323.6 100.6V101.6V102.6C324.925 102.6 327.222 102.7 329.104 102.599C330.046 102.548 330.985 102.443 331.714 102.218C332.076 102.106 332.464 101.941 332.779 101.677C333.119 101.392 333.4 100.962 333.4 100.4H332.4ZM323.6 101.6V100.6C309.609 100.6 296.384 100.6 287.157 101.001L287.2 102L287.243 102.999C296.416 102.6 309.591 102.6 323.6 102.6V101.6ZM287.2 102L286.415 101.38C277.416 112.779 266.493 126.808 257.817 139.846C253.48 146.364 249.69 152.657 246.981 158.265C244.287 163.842 242.6 168.863 242.6 172.8H243.6H244.6C244.6 169.337 246.113 164.658 248.782 159.135C251.435 153.643 255.17 147.436 259.483 140.954C268.107 127.992 278.984 114.021 287.985 102.62L287.2 102ZM243.6 172.8H242.6C242.6 175.479 243.62 177.48 245.282 178.786C246.909 180.065 249.05 180.6 251.2 180.6V179.6V178.6C249.35 178.6 247.691 178.135 246.518 177.214C245.38 176.32 244.6 174.921 244.6 172.8H243.6ZM251.2 179.6V180.6C258.319 180.6 267.732 176.849 280.179 168.015L279.6 167.2L279.021 166.384C266.668 175.151 257.681 178.6 251.2 178.6V179.6ZM279.6 167.2L280.181 168.014C285.828 163.98 297.069 154.343 303.055 149.156L302.4 148.4L301.745 147.644C295.731 152.857 284.572 162.42 279.019 166.386L279.6 167.2ZM302.4 148.4L303.04 149.168C304.227 148.179 305.137 147.557 305.801 147.266C306.13 147.122 306.329 147.091 306.429 147.094C306.497 147.095 306.492 147.107 306.493 147.107L307.2 146.4L307.907 145.693C307.051 144.836 305.903 145.039 304.999 145.434C304.063 145.843 302.973 146.621 301.76 147.632L302.4 148.4ZM307.2 146.4L306.493 147.107C306.518 147.133 306.516 147.138 306.509 147.122C306.506 147.114 306.503 147.106 306.502 147.098C306.5 147.09 306.5 147.086 306.5 147.087C306.5 147.104 306.49 147.226 306.332 147.504C306.007 148.072 305.301 148.885 304.093 150.093L304.8 150.8L305.507 151.507C306.699 150.315 307.593 149.328 308.068 148.496C308.31 148.074 308.5 147.596 308.5 147.087C308.5 146.531 308.273 146.059 307.907 145.693L307.2 146.4ZM304.8 150.8L304.122 150.065C298.935 154.852 287.363 164.828 281 169.6L281.6 170.4L282.2 171.2C288.637 166.372 300.265 156.347 305.478 151.535L304.8 150.8ZM281.6 170.4L281.009 169.594C278.007 171.795 272.662 175.753 266.137 179.164C259.6 182.58 251.968 185.4 244.4 185.4V186.4V187.4C252.432 187.4 260.4 184.42 267.063 180.936C273.738 177.447 279.193 173.405 282.191 171.206L281.6 170.4ZM244.4 186.4V185.4C238.761 185.4 234.225 183.942 231.111 181.199C228.016 178.474 226.2 174.37 226.2 168.8H225.2H224.2C224.2 174.83 226.184 179.526 229.789 182.7C233.375 185.858 238.439 187.4 244.4 187.4V186.4ZM225.2 168.8H226.2C226.2 163.802 227.888 157.926 230.646 151.679C233.397 145.447 237.179 138.922 241.287 132.648C249.502 120.1 258.97 108.638 263.968 102.64L263.2 102L262.432 101.36C257.43 107.362 247.898 118.9 239.613 131.552C235.471 137.878 231.628 144.503 228.816 150.871C226.012 157.224 224.2 163.398 224.2 168.8H225.2ZM263.2 102L263.193 101L206.793 101.4L206.8 102.4L206.807 103.4L263.207 103L263.2 102ZM206.8 102.4L206.025 101.768C167.166 149.441 131.853 190.2 75.6 190.2V191.2V192.2C132.947 192.2 168.834 150.559 207.575 103.032L206.8 102.4ZM75.6 191.2V190.2C66.1225 190.2 56.3325 188.123 48.9458 183.312C41.6081 178.533 36.6 171.037 36.6 160H35.6H34.6C34.6 171.762 39.9919 179.867 47.8542 184.988C55.6675 190.077 65.8775 192.2 75.6 192.2V191.2ZM35.6 160H36.6C36.6 149.681 45.0123 139.821 56.3667 140.199L56.4 139.2L56.4333 138.201C43.7877 137.779 34.6 148.719 34.6 160H35.6ZM56.4 139.2L56.3501 140.199C60.109 140.387 63.2469 141.884 65.351 144.263C67.4518 146.637 68.5806 149.956 68.2045 153.905L69.2 154L70.1955 154.095C70.6194 149.644 69.3482 145.763 66.849 142.937C64.3531 140.116 60.691 138.413 56.4499 138.201L56.4 139.2ZM69.2 154L68.2035 153.917C67.8292 158.408 65.5878 162.184 62.1356 165.253L62.8 166L63.4644 166.747C67.2122 163.416 69.7708 159.192 70.1965 154.083L69.2 154ZM62.8 166L62.1356 165.253C58.3842 168.587 56.6 172.041 56.6 176H57.6H58.6C58.6 172.759 60.0158 169.813 63.4644 166.747L62.8 166ZM57.6 176L56.6045 176.095C57.0503 180.775 60.2922 183.917 64.3169 185.851C68.3376 187.783 73.2952 188.6 77.6 188.6V187.6V186.6C73.5048 186.6 68.8624 185.817 65.1831 184.049C61.5078 182.283 58.9497 179.625 58.5955 175.905L57.6 176ZM77.6 187.6V188.6C99.4188 188.6 120.068 174.346 138.002 156.662C155.962 138.953 171.42 117.574 182.788 103.015L182 102.4L181.212 101.785C169.78 116.426 154.438 137.647 136.598 155.238C118.732 172.854 98.5812 186.6 77.6 186.6V187.6ZM182 102.4V101.4C175.581 101.4 166.346 101.801 152.371 102.2L152.4 103.2L152.429 104.2C166.454 103.799 175.619 103.4 182 103.4V102.4ZM152.4 103.2V102.2C150.919 102.2 148.94 102.298 147.37 102.107C146.57 102.01 146.056 101.854 145.806 101.689C145.7 101.62 145.706 101.591 145.718 101.624C145.734 101.665 145.704 101.65 145.749 101.516L144.8 101.2L143.851 100.884C143.696 101.35 143.666 101.848 143.846 102.326C144.022 102.797 144.356 103.13 144.707 103.361C145.369 103.796 146.28 103.99 147.13 104.093C148.86 104.302 151.081 104.2 152.4 104.2V103.2ZM144.8 101.2L145.77 101.443C145.752 101.515 145.722 101.505 145.815 101.429C145.911 101.351 146.085 101.247 146.367 101.134C146.932 100.907 147.758 100.708 148.811 100.537C150.906 100.196 153.655 99.9986 156.471 99.7974L156.4 98.8L156.329 97.8025C153.545 98.0014 150.694 98.2041 148.489 98.563C147.392 98.7416 146.393 98.9681 145.621 99.2784C145.234 99.4337 144.861 99.6272 144.552 99.8786C144.241 100.132 143.948 100.485 143.83 100.957L144.8 101.2ZM156.4 98.8L156.51 99.7939C163.664 98.999 174.42 98.5999 186.034 98.1994L186 97.2L185.966 96.2006C174.38 96.6001 163.536 97.0009 156.29 97.8061L156.4 98.8ZM186 97.2L186.77 97.8378C207.938 72.2769 239.465 42.3593 255.75 31.6352L255.2 30.8L254.65 29.9648C238.135 40.8407 206.462 70.923 185.23 96.5622L186 97.2Z" fill="black" mask="url(#path-1-outside-1_481_2213)"/>
</g>
<defs>
<clipPath id="clip0_481_2213">
<rect width="429" height="201" fill="white"/>
</clipPath>
</defs>
</svg>
