<svg width="780" height="301" viewBox="0 0 780 301" fill="none" xmlns="http://www.w3.org/2000/svg">
<g clip-path="url(#clip0_577_2182)">
<mask id="path-1-outside-1_577_2182" maskUnits="userSpaceOnUse" x="8" y="12" width="576" height="272" fill="black">
<rect fill="white" x="8" y="12" width="576" height="272"/>
<path d="M338.8 42.2C316 50.6 275.2 49.4 210.4 47C140.8 44.6 79.6 71.6 79.6 131C79.6 151.4 94 179 123.4 188.6C128.8 190.4 131.2 189.8 130.6 191.6C130 193.4 123.4 193.4 119.2 192.2C88.6 183.2 68.8 156.8 67.6 129.8C65.8 75.2 111.4 32 202.6 34.4C243.4 35.6 325.6 46.4 344.8 35.6C353.2 30.8 360.4 26 364.6 28.4C368.2 30.8 362.8 33.2 356.8 39.2C341.8 53.6 328.6 67.4 313.6 86.6C295.6 108.8 283 126.8 271.6 141.2H357.4C367 129.8 378.4 116 407.8 89C436 62.6 467.2 40.4 483.4 31.4C499.6 22.4 523.6 13.4 543.4 13.4C565.6 13.4 578.2 24.2 581.2 32.6C583 37.4 582.4 41 580.6 41.6C579.4 42.2 579.4 39.8 577.6 36.2C572.8 26.6 563.2 19.4 544 19.4C524.8 19.4 504.4 29 489.4 39.8C473.8 51.2 458.8 65 434.8 90.8C419.2 107.6 401.2 129.8 392.8 141.2C409 141.8 430 142.4 440.8 143.6C445.6 144.2 454.6 144.8 454.6 146.6C454.6 149 445.6 148.4 441.4 148.4C420.4 148.4 400.6 148.4 386.8 149C359.8 183.2 321.4 233 321.4 255.2C321.4 262.4 326.8 265.4 332.8 265.4C343 265.4 356.8 260 375.4 246.8C383.8 240.8 400.6 226.4 409.6 218.6C413.2 215.6 415.6 214.4 416.8 215.6C418 216.8 416.8 218.6 413.2 222.2C405.4 229.4 388 244.4 378.4 251.6C369.4 258.2 346 275.6 322.6 275.6C305.2 275.6 293.8 266.6 293.8 249.2C293.8 218 335.8 167 350.8 149L266.2 149.6C208 221 154.6 282.8 69.4 282.8C40.6 282.8 9.4 270.2 9.4 236C9.4 219.8 22.6 204.2 40.6 204.8C52.6 205.4 61 214.4 59.8 227C59.2 234.2 55.6 240.2 50.2 245C44.8 249.8 42.4 254.6 42.4 260C43.6 272.6 59.8 277.4 72.4 277.4C136.6 277.4 194.8 193.4 229 149.6C219.4 149.6 205.6 150.2 184.6 150.8C180.4 150.8 172 151.4 173.2 147.8C173.8 145.4 182.2 144.8 190.6 144.2C201.4 143 217.6 142.4 235 141.8C266.8 103.4 314.2 58.4 338.8 42.2Z"/>
</mask>
<path d="M338.8 42.2C316 50.6 275.2 49.4 210.4 47C140.8 44.6 79.6 71.6 79.6 131C79.6 151.4 94 179 123.4 188.6C128.8 190.4 131.2 189.8 130.6 191.6C130 193.4 123.4 193.4 119.2 192.2C88.6 183.2 68.8 156.8 67.6 129.8C65.8 75.2 111.4 32 202.6 34.4C243.4 35.6 325.6 46.4 344.8 35.6C353.2 30.8 360.4 26 364.6 28.4C368.2 30.8 362.8 33.2 356.8 39.2C341.8 53.6 328.6 67.4 313.6 86.6C295.6 108.8 283 126.8 271.6 141.2H357.4C367 129.8 378.4 116 407.8 89C436 62.6 467.2 40.4 483.4 31.4C499.6 22.4 523.6 13.4 543.4 13.4C565.6 13.4 578.2 24.2 581.2 32.6C583 37.4 582.4 41 580.6 41.6C579.4 42.2 579.4 39.8 577.6 36.2C572.8 26.6 563.2 19.4 544 19.4C524.8 19.4 504.4 29 489.4 39.8C473.8 51.2 458.8 65 434.8 90.8C419.2 107.6 401.2 129.8 392.8 141.2C409 141.8 430 142.4 440.8 143.6C445.6 144.2 454.6 144.8 454.6 146.6C454.6 149 445.6 148.4 441.4 148.4C420.4 148.4 400.6 148.4 386.8 149C359.8 183.2 321.4 233 321.4 255.2C321.4 262.4 326.8 265.4 332.8 265.4C343 265.4 356.8 260 375.4 246.8C383.8 240.8 400.6 226.4 409.6 218.6C413.2 215.6 415.6 214.4 416.8 215.6C418 216.8 416.8 218.6 413.2 222.2C405.4 229.4 388 244.4 378.4 251.6C369.4 258.2 346 275.6 322.6 275.6C305.2 275.6 293.8 266.6 293.8 249.2C293.8 218 335.8 167 350.8 149L266.2 149.6C208 221 154.6 282.8 69.4 282.8C40.6 282.8 9.4 270.2 9.4 236C9.4 219.8 22.6 204.2 40.6 204.8C52.6 205.4 61 214.4 59.8 227C59.2 234.2 55.6 240.2 50.2 245C44.8 249.8 42.4 254.6 42.4 260C43.6 272.6 59.8 277.4 72.4 277.4C136.6 277.4 194.8 193.4 229 149.6C219.4 149.6 205.6 150.2 184.6 150.8C180.4 150.8 172 151.4 173.2 147.8C173.8 145.4 182.2 144.8 190.6 144.2C201.4 143 217.6 142.4 235 141.8C266.8 103.4 314.2 58.4 338.8 42.2Z" fill="#B4C372"/>
<path d="M338.8 42.2L339.35 43.0351L338.454 41.2616L338.8 42.2ZM210.4 47L210.437 46.0006L210.434 46.0006L210.4 47ZM123.4 188.6L123.716 187.651L123.71 187.649L123.4 188.6ZM130.6 191.6L131.549 191.916L131.549 191.916L130.6 191.6ZM119.2 192.2L118.918 193.159L118.925 193.162L119.2 192.2ZM67.6 129.8L66.6005 129.833L66.601 129.844L67.6 129.8ZM202.6 34.4L202.629 33.4004L202.626 33.4003L202.6 34.4ZM344.8 35.6L345.29 36.4716L345.296 36.4682L344.8 35.6ZM364.6 28.4L365.155 27.5679L365.126 27.5488L365.096 27.5317L364.6 28.4ZM356.8 39.2L357.493 39.9214L357.5 39.9143L357.507 39.9071L356.8 39.2ZM313.6 86.6L314.377 87.2298L314.382 87.2227L314.388 87.2156L313.6 86.6ZM271.6 141.2L270.816 140.579L269.533 142.2H271.6V141.2ZM357.4 141.2V142.2H357.865L358.165 141.844L357.4 141.2ZM407.8 89L408.476 89.7365L408.483 89.73L407.8 89ZM483.4 31.4L482.914 30.5258L482.914 30.5258L483.4 31.4ZM581.2 32.6L580.258 32.9363L580.261 32.9437L580.264 32.9511L581.2 32.6ZM580.6 41.6L580.284 40.6513L580.216 40.6738L580.153 40.7056L580.6 41.6ZM577.6 36.2L578.494 35.7528L578.494 35.7528L577.6 36.2ZM489.4 39.8L488.816 38.9884L488.81 38.9926L489.4 39.8ZM434.8 90.8L434.068 90.1189L434.067 90.1195L434.8 90.8ZM392.8 141.2L391.995 140.607L390.873 142.129L392.763 142.199L392.8 141.2ZM440.8 143.6L440.924 142.608L440.91 142.606L440.8 143.6ZM386.8 149L386.757 148.001L386.299 148.021L386.015 148.38L386.8 149ZM375.4 246.8L375.979 247.615L375.981 247.614L375.4 246.8ZM409.6 218.6L408.96 217.832L408.952 217.838L408.945 217.844L409.6 218.6ZM416.8 215.6L417.507 214.893L417.507 214.893L416.8 215.6ZM413.2 222.2L413.878 222.935L413.893 222.921L413.907 222.907L413.2 222.2ZM378.4 251.6L378.991 252.406L379 252.4L378.4 251.6ZM350.8 149L351.568 149.64L352.948 147.985L350.793 148L350.8 149ZM266.2 149.6L266.193 148.6L265.722 148.603L265.425 148.968L266.2 149.6ZM40.6 204.8L40.6499 203.801L40.6416 203.801L40.6333 203.801L40.6 204.8ZM59.8 227L58.8044 226.905L58.8035 226.917L59.8 227ZM42.4 260H41.4V260.047L41.4045 260.095L42.4 260ZM229 149.6L229.788 150.215L231.05 148.6H229V149.6ZM184.6 150.8V151.8H184.614L184.629 151.8L184.6 150.8ZM173.2 147.8L174.149 148.116L174.161 148.08L174.17 148.043L173.2 147.8ZM190.6 144.2L190.671 145.197L190.691 145.196L190.71 145.194L190.6 144.2ZM235 141.8L235.034 142.799L235.484 142.784L235.77 142.438L235 141.8ZM338.8 42.2L338.454 41.2616C327.22 45.4004 311.463 47.2005 290.329 47.6502C269.214 48.0995 242.845 47.201 210.437 46.0007L210.4 47L210.363 47.9993C242.755 49.199 269.186 50.1005 290.371 49.6497C311.537 49.1994 327.58 47.3995 339.146 43.1383L338.8 42.2ZM210.4 47L210.434 46.0006C175.517 44.7965 142.613 50.9608 118.399 64.9592C94.1431 78.9825 78.6 100.886 78.6 131H79.6H80.6C80.6 101.714 95.6569 80.4175 119.401 66.6907C143.187 52.9391 175.683 46.8034 210.366 47.9994L210.4 47ZM79.6 131H78.6C78.6 151.785 93.2348 179.802 123.09 189.551L123.4 188.6L123.71 187.649C94.7652 178.198 80.6 151.015 80.6 131H79.6ZM123.4 188.6L123.084 189.549C125.827 190.463 127.91 190.796 129.007 191.07C129.291 191.141 129.49 191.202 129.631 191.26C129.776 191.319 129.8 191.351 129.78 191.332C129.739 191.291 129.7 191.216 129.691 191.145C129.686 191.104 129.701 191.134 129.651 191.284L130.6 191.6L131.549 191.916C131.649 191.616 131.72 191.271 131.678 190.911C131.632 190.521 131.461 190.184 131.195 189.918C130.95 189.674 130.655 189.518 130.388 189.409C130.116 189.298 129.809 189.209 129.493 189.13C128.19 188.804 126.373 188.537 123.716 187.651L123.4 188.6ZM130.6 191.6L129.651 191.284C129.666 191.24 129.674 191.278 129.542 191.369C129.409 191.46 129.19 191.566 128.865 191.665C128.213 191.864 127.297 191.989 126.217 192.026C124.06 192.097 121.465 191.807 119.475 191.238L119.2 192.2L118.925 193.162C121.135 193.793 123.94 194.103 126.283 194.024C127.453 193.985 128.562 193.848 129.448 193.578C129.891 193.443 130.319 193.263 130.678 193.015C131.039 192.766 131.384 192.41 131.549 191.916L130.6 191.6ZM119.2 192.2L119.482 191.241C89.272 182.355 69.7791 156.308 68.599 129.756L67.6 129.8L66.601 129.844C67.8209 157.292 87.928 184.045 118.918 193.159L119.2 192.2ZM67.6 129.8L68.5995 129.767C67.7098 102.781 78.5213 78.6419 100.834 61.5183C123.172 44.3749 157.123 34.2035 202.574 35.3996L202.6 34.4L202.626 33.4003C156.877 32.1964 122.428 42.4251 99.6162 59.9317C76.7787 77.4581 65.6902 102.219 66.6005 129.833L67.6 129.8ZM202.6 34.4L202.571 35.3995C222.977 35.9997 253.605 38.9936 281.747 40.4985C295.781 41.2491 309.17 41.6262 320.263 41.1365C325.809 40.8917 330.802 40.4294 335.025 39.6832C339.234 38.9395 342.746 37.9025 345.29 36.4715L344.8 35.6L344.31 34.7284C342.054 35.9974 338.798 36.9855 334.677 37.7137C330.57 38.4393 325.672 38.8958 320.175 39.1384C309.18 39.6238 295.869 39.2509 281.853 38.5014C253.895 37.0063 223.023 34.0002 202.629 33.4004L202.6 34.4ZM344.8 35.6L345.296 36.4682C349.545 34.0403 353.367 31.6865 356.681 30.2138C358.329 29.4812 359.787 28.998 361.049 28.8286C362.301 28.6604 363.3 28.8089 364.104 29.2682L364.6 28.4L365.096 27.5317C363.8 26.7911 362.324 26.6395 360.783 26.8464C359.251 27.052 357.596 27.6187 355.869 28.3862C352.433 29.9134 348.455 32.3597 344.304 34.7317L344.8 35.6ZM364.6 28.4L364.045 29.232C364.8 29.7353 364.769 30.0115 364.754 30.1148C364.712 30.4102 364.421 30.9145 363.593 31.7429C362.804 32.5321 361.722 33.4338 360.406 34.5587C359.108 35.669 357.621 36.9645 356.093 38.4929L356.8 39.2L357.507 39.9071C358.979 38.4355 360.417 37.1809 361.706 36.0788C362.978 34.9912 364.146 34.0178 365.007 33.1571C365.829 32.3355 366.588 31.4147 366.734 30.3977C366.906 29.1884 366.2 28.2646 365.155 27.5679L364.6 28.4ZM356.8 39.2L356.107 38.4786C341.084 52.9015 327.849 66.737 312.812 85.9843L313.6 86.6L314.388 87.2156C329.351 68.063 342.516 54.2984 357.493 39.9214L356.8 39.2ZM313.6 86.6L312.823 85.9702C303.812 97.0842 296.153 107.145 289.326 116.224C282.494 125.308 276.506 133.392 270.816 140.579L271.6 141.2L272.384 141.821C278.094 134.608 284.106 126.492 290.924 117.426C297.747 108.355 305.388 98.3158 314.377 87.2298L313.6 86.6ZM271.6 141.2V142.2H357.4V141.2V140.2H271.6V141.2ZM357.4 141.2L358.165 141.844C367.748 130.464 379.118 116.698 408.476 89.7365L407.8 89L407.124 88.2634C377.682 115.302 366.252 129.136 356.635 140.556L357.4 141.2ZM407.8 89L408.483 89.73C436.636 63.3745 467.771 41.227 483.886 32.2741L483.4 31.4L482.914 30.5258C466.629 39.573 435.364 61.8255 407.117 88.27L407.8 89ZM483.4 31.4L483.886 32.2741C500.014 23.314 523.84 14.4 543.4 14.4V13.4V12.4C523.36 12.4 499.186 21.486 482.914 30.5258L483.4 31.4ZM543.4 13.4V14.4C565.31 14.4 577.44 25.046 580.258 32.9363L581.2 32.6L582.142 32.2636C578.96 23.354 565.89 12.4 543.4 12.4V13.4ZM581.2 32.6L580.264 32.9511C581.127 35.2523 581.386 37.1966 581.254 38.5802C581.116 40.0386 580.601 40.5456 580.284 40.6513L580.6 41.6L580.916 42.5487C582.399 42.0544 583.084 40.4613 583.245 38.7698C583.414 37.0033 583.073 34.7476 582.136 32.2488L581.2 32.6ZM580.6 41.6L580.153 40.7056C580.117 40.7235 580.189 40.6782 580.328 40.6961C580.479 40.7155 580.567 40.7908 580.585 40.8085C580.591 40.8139 580.555 40.7776 580.486 40.6452C580.421 40.5186 580.347 40.3471 580.258 40.116C579.913 39.2191 579.423 37.6097 578.494 35.7528L577.6 36.2L576.706 36.6472C577.577 38.3902 577.987 39.7809 578.392 40.834C578.569 41.2964 578.802 41.8537 579.171 42.2227C579.386 42.4373 579.685 42.6297 580.073 42.6797C580.448 42.7281 580.783 42.6265 581.047 42.4944L580.6 41.6ZM577.6 36.2L578.494 35.7528C576.015 30.7939 572.282 26.4347 566.686 23.3258C561.1 20.2228 553.722 18.4 544 18.4V19.4V20.4C553.478 20.4 560.5 22.1772 565.714 25.0741C570.918 27.9652 574.385 32.006 576.706 36.6472L577.6 36.2ZM544 19.4V18.4C524.505 18.4 503.9 28.1279 488.816 38.9884L489.4 39.8L489.984 40.6115C504.9 29.8721 525.095 20.4 544 20.4V19.4ZM489.4 39.8L488.81 38.9926C473.136 50.4463 458.087 64.2981 434.068 90.1189L434.8 90.8L435.532 91.4811C459.513 65.7018 474.463 51.9537 489.99 40.6074L489.4 39.8ZM434.8 90.8L434.067 90.1195C418.441 106.948 400.417 129.177 391.995 140.607L392.8 141.2L393.605 141.793C401.983 130.422 419.959 108.252 435.533 91.4804L434.8 90.8ZM392.8 141.2L392.763 142.199C408.996 142.801 429.938 143.399 440.69 144.594L440.8 143.6L440.91 142.606C430.062 141.401 409.004 140.799 392.837 140.201L392.8 141.2ZM440.8 143.6L440.676 144.592C443.141 144.9 446.508 145.19 449.344 145.638C450.757 145.861 451.96 146.113 452.791 146.401C453.212 146.547 453.472 146.681 453.607 146.782C453.754 146.891 453.6 146.837 453.6 146.6H454.6H455.6C455.6 145.913 455.164 145.447 454.8 145.176C454.425 144.897 453.944 144.684 453.447 144.511C452.44 144.162 451.093 143.889 449.656 143.662C446.792 143.21 443.259 142.9 440.924 142.608L440.8 143.6ZM454.6 146.6H453.6C453.6 146.538 453.646 146.53 453.562 146.6C453.454 146.691 453.229 146.816 452.833 146.938C452.046 147.182 450.891 147.327 449.521 147.401C446.778 147.55 443.575 147.4 441.4 147.4V148.4V149.4C443.425 149.4 446.822 149.55 449.629 149.399C451.034 149.323 452.392 149.168 453.424 148.849C453.937 148.69 454.448 148.468 454.848 148.133C455.273 147.776 455.6 147.262 455.6 146.6H454.6ZM441.4 148.4V147.4C420.409 147.4 400.584 147.4 386.757 148.001L386.8 149L386.843 149.999C400.616 149.4 420.391 149.4 441.4 149.4V148.4ZM386.8 149L386.015 148.38C372.516 165.479 356.143 186.508 343.142 206.046C336.643 215.814 330.971 225.232 326.921 233.615C322.887 241.967 320.4 249.413 320.4 255.2H321.4H322.4C322.4 249.887 324.713 242.783 328.722 234.485C332.716 226.218 338.332 216.886 344.808 207.154C357.757 187.692 374.084 166.721 387.585 149.62L386.8 149ZM321.4 255.2H320.4C320.4 259.079 321.87 261.93 324.232 263.786C326.559 265.615 329.65 266.4 332.8 266.4V265.4V264.4C329.95 264.4 327.341 263.685 325.468 262.214C323.63 260.77 322.4 258.521 322.4 255.2H321.4ZM332.8 265.4V266.4C343.319 266.4 357.332 260.849 375.979 247.615L375.4 246.8L374.821 245.984C356.268 259.151 342.681 264.4 332.8 264.4V265.4ZM375.4 246.8L375.981 247.614C384.428 241.58 401.269 227.143 410.255 219.356L409.6 218.6L408.945 217.844C399.931 225.657 383.172 240.02 374.819 245.986L375.4 246.8ZM409.6 218.6L410.24 219.368C412.027 217.879 413.437 216.907 414.501 216.441C415.597 215.961 415.949 216.163 416.093 216.307L416.8 215.6L417.507 214.893C416.451 213.836 415.003 214.038 413.699 214.609C412.363 215.193 410.773 216.321 408.96 217.832L409.6 218.6ZM416.8 215.6L416.093 216.307C416.227 216.441 416.25 216.531 416.25 216.631C416.25 216.779 416.19 217.051 415.932 217.504C415.407 218.422 414.301 219.685 412.493 221.493L413.2 222.2L413.907 222.907C415.699 221.115 416.993 219.678 417.668 218.496C418.01 217.899 418.25 217.271 418.25 216.631C418.25 215.944 417.973 215.359 417.507 214.893L416.8 215.6ZM413.2 222.2L412.522 221.465C404.735 228.652 387.363 243.628 377.8 250.8L378.4 251.6L379 252.4C388.637 245.172 406.065 230.147 413.878 222.935L413.2 222.2ZM378.4 251.6L377.809 250.794C373.307 254.095 365.262 260.053 355.437 265.189C345.6 270.33 334.068 274.6 322.6 274.6V275.6V276.6C334.532 276.6 346.4 272.17 356.363 266.961C366.338 261.747 374.493 255.705 378.991 252.406L378.4 251.6ZM322.6 275.6V274.6C314.061 274.6 307.125 272.392 302.336 268.174C297.566 263.974 294.8 257.67 294.8 249.2H293.8H292.8C292.8 258.13 295.734 265.026 301.014 269.675C306.275 274.308 313.739 276.6 322.6 276.6V275.6ZM293.8 249.2H294.8C294.8 241.602 297.363 232.713 301.512 223.316C305.654 213.934 311.341 204.122 317.512 194.698C329.852 175.85 344.07 158.638 351.568 149.64L350.8 149L350.032 148.36C342.53 157.362 328.248 174.65 315.838 193.602C309.634 203.078 303.884 212.991 299.682 222.509C295.487 232.012 292.8 241.198 292.8 249.2H293.8ZM350.8 149L350.793 148L266.193 148.6L266.2 149.6L266.207 150.6L350.807 150L350.8 149ZM266.2 149.6L265.425 148.968C207.166 220.441 154.053 281.8 69.4 281.8V282.8V283.8C155.147 283.8 208.834 221.559 266.975 150.232L266.2 149.6ZM69.4 282.8V281.8C55.1225 281.8 40.3325 278.673 29.1458 271.387C18.0081 264.133 10.4 252.737 10.4 236H9.4H8.4C8.4 253.462 16.3919 265.467 28.0542 273.063C39.6675 280.627 54.8775 283.8 69.4 283.8V282.8ZM9.4 236H10.4C10.4 220.281 23.2123 205.221 40.5667 205.799L40.6 204.8L40.6333 203.801C21.9877 203.179 8.4 219.319 8.4 236H9.4ZM40.6 204.8L40.5501 205.799C46.309 206.087 51.1469 208.384 54.401 212.063C57.6518 215.737 59.3806 220.856 58.8045 226.905L59.8 227L60.7955 227.095C61.4194 220.544 59.5482 214.863 55.899 210.737C52.2531 206.616 46.891 204.113 40.6499 203.801L40.6 204.8ZM59.8 227L58.8035 226.917C58.2292 233.808 54.7878 239.584 49.5356 244.253L50.2 245L50.8644 245.747C56.4122 240.816 60.1708 234.592 60.7965 227.083L59.8 227ZM50.2 245L49.5356 244.253C43.9842 249.187 41.4 254.241 41.4 260H42.4H43.4C43.4 254.959 45.6158 250.413 50.8644 245.747L50.2 245ZM42.4 260L41.4045 260.095C42.0503 266.875 46.7422 271.467 52.6919 274.326C58.6376 277.183 65.9952 278.4 72.4 278.4V277.4V276.4C66.2048 276.4 59.1624 275.217 53.5581 272.524C47.9578 269.833 43.9497 265.725 43.3955 259.905L42.4 260ZM72.4 277.4V278.4C104.919 278.4 135.768 257.146 162.652 230.637C189.562 204.103 212.72 172.074 229.788 150.215L229 149.6L228.212 148.985C211.08 170.926 188.038 202.797 161.248 229.213C134.432 255.654 104.081 276.4 72.4 276.4V277.4ZM229 149.6V148.6C219.381 148.6 205.546 149.201 184.571 149.8L184.6 150.8L184.629 151.8C205.654 151.199 219.419 150.6 229 150.6V149.6ZM184.6 150.8V149.8C182.419 149.8 179.39 149.948 176.995 149.657C175.782 149.51 174.913 149.267 174.434 148.952C174.214 148.807 174.138 148.688 174.109 148.611C174.084 148.543 174.054 148.4 174.149 148.116L173.2 147.8L172.251 147.484C172.046 148.1 172.016 148.726 172.237 149.314C172.454 149.894 172.87 150.318 173.335 150.623C174.225 151.208 175.493 151.49 176.755 151.643C179.31 151.952 182.581 151.8 184.6 151.8V150.8ZM173.2 147.8L174.17 148.043C174.177 148.015 174.212 147.915 174.407 147.756C174.604 147.595 174.914 147.418 175.364 147.237C176.263 146.876 177.546 146.571 179.136 146.312C182.306 145.796 186.455 145.499 190.671 145.197L190.6 144.2L190.529 143.203C186.345 143.501 182.094 143.804 178.814 144.338C177.179 144.604 175.724 144.937 174.618 145.381C174.064 145.604 173.554 145.872 173.144 146.206C172.731 146.542 172.373 146.985 172.23 147.557L173.2 147.8ZM190.6 144.2L190.71 145.194C201.464 143.999 217.62 143.4 235.034 142.799L235 141.8L234.966 140.801C217.58 141.4 201.336 142.001 190.49 143.206L190.6 144.2ZM235 141.8L235.77 142.438C267.538 104.077 314.865 59.1593 339.35 43.0351L338.8 42.2L338.25 41.3648C313.535 57.6407 266.062 102.723 234.23 141.162L235 141.8Z" fill="black" mask="url(#path-1-outside-1_577_2182)"/>
<mask id="path-3-outside-2_577_2182" maskUnits="userSpaceOnUse" x="432.527" y="110.846" width="333" height="166" fill="black">
<rect fill="white" x="432.527" y="110.846" width="333" height="166"/>
<path d="M507.079 255.8C506.477 258.361 504.593 261.148 501.429 264.162C498.265 267.175 494.122 269.736 488.999 271.846C483.877 273.955 478.001 275.01 471.371 275.01C464.742 275.01 458.565 272.976 452.839 268.908C447.265 264.689 442.745 258.964 439.279 251.732C435.965 244.5 434.307 236.288 434.307 227.098C434.307 217.907 436.266 209.62 440.183 202.238C444.251 194.855 449.675 189.054 456.455 184.836C463.235 180.466 470.844 178.282 479.281 178.282C488.321 178.282 495.403 180.165 500.525 183.932C505.799 187.698 508.435 192.821 508.435 199.3C508.435 205.778 506.778 209.846 503.463 211.504C500.299 213.01 496.156 213.764 491.033 213.764H453.969C451.86 213.764 450.353 214.291 449.449 215.346C448.696 216.25 448.319 218.51 448.319 222.126C448.319 229.056 449.826 235.535 452.839 241.562C455.853 247.588 459.845 252.41 464.817 256.026C469.94 259.642 475.665 261.45 481.993 261.45C491.184 261.45 498.416 258.135 503.689 251.506C504.744 250.451 505.573 249.924 506.175 249.924C507.23 249.924 507.757 250.677 507.757 252.184C507.757 253.238 507.531 254.444 507.079 255.8ZM452.613 203.368C452.613 205.628 454.045 206.758 456.907 206.758H475.439C478.905 206.758 481.993 206.682 484.705 206.532C487.568 206.23 489.979 205.929 491.937 205.628C493.444 205.477 494.197 203.292 494.197 199.074C494.197 195.006 492.314 191.691 488.547 189.13C484.781 186.568 480.261 185.288 474.987 185.288C471.371 185.288 467.831 186.342 464.365 188.452C461.051 190.41 458.263 192.821 456.003 195.684C453.743 198.396 452.613 200.957 452.613 203.368ZM537.746 271.394L519.44 272.524C516.427 272.524 514.92 271.77 514.92 270.264C514.92 268.908 517.03 267.552 521.248 266.196C525.618 264.84 528.104 263.408 528.706 261.902C529.46 260.395 529.836 259.039 529.836 257.834V143.93C529.836 134.438 526.371 128.938 519.44 127.432C518.235 127.13 517.632 126.151 517.632 124.494C517.632 122.836 518.16 121.932 519.214 121.782C523.132 120.878 531.87 117.864 545.43 112.742H545.656L545.882 112.516C546.786 112.516 547.238 113.043 547.238 114.098L546.786 118.166C546.485 121.028 546.184 124.72 545.882 129.24C545.732 133.609 545.656 138.807 545.656 144.834V257.834C545.656 260.847 546.56 262.806 548.368 263.71C550.327 264.614 552.888 265.593 556.052 266.648C559.066 267.853 560.572 269.058 560.572 270.264C560.572 271.77 559.066 272.524 556.052 272.524L537.746 271.394ZM587.74 271.394L569.434 272.524C566.421 272.524 564.914 271.77 564.914 270.264C564.914 268.908 567.023 267.552 571.242 266.196C575.611 264.84 578.097 263.408 578.7 261.902C579.453 260.395 579.83 259.039 579.83 257.834V143.93C579.83 134.438 576.365 128.938 569.434 127.432C568.229 127.13 567.626 126.151 567.626 124.494C567.626 122.836 568.153 121.932 569.208 121.782C573.125 120.878 581.864 117.864 595.424 112.742H595.65L595.876 112.516C596.78 112.516 597.232 113.043 597.232 114.098L596.78 118.166C596.479 121.028 596.177 124.72 595.876 129.24C595.725 133.609 595.65 138.807 595.65 144.834V257.834C595.65 260.847 596.554 262.806 598.362 263.71C600.321 264.614 602.882 265.593 606.046 266.648C609.059 267.853 610.566 269.058 610.566 270.264C610.566 271.77 609.059 272.524 606.046 272.524L587.74 271.394ZM714.574 225.064C714.574 233.802 712.54 242.014 708.472 249.698C704.555 257.231 698.754 263.333 691.07 268.004C683.537 272.674 674.346 275.01 663.498 275.01C655.06 275.01 647.376 273.051 640.446 269.134C633.666 265.216 628.317 259.868 624.4 253.088C620.482 246.157 618.524 238.322 618.524 229.584C618.524 223.105 619.804 216.852 622.366 210.826C624.927 204.648 628.468 199.149 632.988 194.328C637.658 189.356 642.932 185.438 648.808 182.576C654.684 179.713 660.936 178.282 667.566 178.282C676.455 178.282 684.441 180.391 691.522 184.61C698.603 188.678 704.178 194.252 708.246 201.334C712.464 208.264 714.574 216.174 714.574 225.064ZM637.056 224.386C637.056 232.07 638.412 239.302 641.124 246.082C643.986 252.711 647.753 258.06 652.424 262.128C657.245 266.196 662.519 268.23 668.244 268.23C675.777 268.23 681.503 266.648 685.42 263.484C689.488 260.169 692.275 255.649 693.782 249.924C695.289 244.048 696.042 237.268 696.042 229.584C696.042 221.749 694.611 214.517 691.748 207.888C689.036 201.108 685.269 195.684 680.448 191.616C675.777 187.397 670.353 185.288 664.176 185.288C646.096 185.288 637.056 198.32 637.056 224.386ZM754.376 216.702C753.774 222.578 752.418 225.516 750.308 225.516C748.199 225.516 746.918 223.03 746.466 218.058C746.165 215.496 745.713 212.031 745.11 207.662C744.658 203.142 744.056 197.642 743.302 191.164C741.796 178.206 740.666 167.886 739.912 160.202C739.31 152.518 739.008 146.416 739.008 141.896C739.008 137.376 739.988 133.458 741.946 130.144C744.056 126.829 746.994 125.172 750.76 125.172C754.527 125.172 757.39 126.829 759.348 130.144C761.458 133.458 762.512 137.376 762.512 141.896C762.512 144.909 762.362 148.525 762.06 152.744C761.759 156.962 761.382 161.181 760.93 165.4C760.629 169.468 760.252 173.008 759.8 176.022C759.198 180.692 758.294 187.924 757.088 197.718L754.376 216.702ZM764.32 261.45C764.32 265.216 762.964 268.456 760.252 271.168C757.691 273.729 754.527 275.01 750.76 275.01C746.994 275.01 743.754 273.729 741.042 271.168C738.481 268.456 737.2 265.216 737.2 261.45C737.2 257.683 738.556 254.444 741.268 251.732C743.83 249.17 746.994 247.89 750.76 247.89C754.527 247.89 757.691 249.246 760.252 251.958C762.964 254.519 764.32 257.683 764.32 261.45Z"/>
</mask>
<path d="M507.079 255.8C506.477 258.361 504.593 261.148 501.429 264.162C498.265 267.175 494.122 269.736 488.999 271.846C483.877 273.955 478.001 275.01 471.371 275.01C464.742 275.01 458.565 272.976 452.839 268.908C447.265 264.689 442.745 258.964 439.279 251.732C435.965 244.5 434.307 236.288 434.307 227.098C434.307 217.907 436.266 209.62 440.183 202.238C444.251 194.855 449.675 189.054 456.455 184.836C463.235 180.466 470.844 178.282 479.281 178.282C488.321 178.282 495.403 180.165 500.525 183.932C505.799 187.698 508.435 192.821 508.435 199.3C508.435 205.778 506.778 209.846 503.463 211.504C500.299 213.01 496.156 213.764 491.033 213.764H453.969C451.86 213.764 450.353 214.291 449.449 215.346C448.696 216.25 448.319 218.51 448.319 222.126C448.319 229.056 449.826 235.535 452.839 241.562C455.853 247.588 459.845 252.41 464.817 256.026C469.94 259.642 475.665 261.45 481.993 261.45C491.184 261.45 498.416 258.135 503.689 251.506C504.744 250.451 505.573 249.924 506.175 249.924C507.23 249.924 507.757 250.677 507.757 252.184C507.757 253.238 507.531 254.444 507.079 255.8ZM452.613 203.368C452.613 205.628 454.045 206.758 456.907 206.758H475.439C478.905 206.758 481.993 206.682 484.705 206.532C487.568 206.23 489.979 205.929 491.937 205.628C493.444 205.477 494.197 203.292 494.197 199.074C494.197 195.006 492.314 191.691 488.547 189.13C484.781 186.568 480.261 185.288 474.987 185.288C471.371 185.288 467.831 186.342 464.365 188.452C461.051 190.41 458.263 192.821 456.003 195.684C453.743 198.396 452.613 200.957 452.613 203.368ZM537.746 271.394L519.44 272.524C516.427 272.524 514.92 271.77 514.92 270.264C514.92 268.908 517.03 267.552 521.248 266.196C525.618 264.84 528.104 263.408 528.706 261.902C529.46 260.395 529.836 259.039 529.836 257.834V143.93C529.836 134.438 526.371 128.938 519.44 127.432C518.235 127.13 517.632 126.151 517.632 124.494C517.632 122.836 518.16 121.932 519.214 121.782C523.132 120.878 531.87 117.864 545.43 112.742H545.656L545.882 112.516C546.786 112.516 547.238 113.043 547.238 114.098L546.786 118.166C546.485 121.028 546.184 124.72 545.882 129.24C545.732 133.609 545.656 138.807 545.656 144.834V257.834C545.656 260.847 546.56 262.806 548.368 263.71C550.327 264.614 552.888 265.593 556.052 266.648C559.066 267.853 560.572 269.058 560.572 270.264C560.572 271.77 559.066 272.524 556.052 272.524L537.746 271.394ZM587.74 271.394L569.434 272.524C566.421 272.524 564.914 271.77 564.914 270.264C564.914 268.908 567.023 267.552 571.242 266.196C575.611 264.84 578.097 263.408 578.7 261.902C579.453 260.395 579.83 259.039 579.83 257.834V143.93C579.83 134.438 576.365 128.938 569.434 127.432C568.229 127.13 567.626 126.151 567.626 124.494C567.626 122.836 568.153 121.932 569.208 121.782C573.125 120.878 581.864 117.864 595.424 112.742H595.65L595.876 112.516C596.78 112.516 597.232 113.043 597.232 114.098L596.78 118.166C596.479 121.028 596.177 124.72 595.876 129.24C595.725 133.609 595.65 138.807 595.65 144.834V257.834C595.65 260.847 596.554 262.806 598.362 263.71C600.321 264.614 602.882 265.593 606.046 266.648C609.059 267.853 610.566 269.058 610.566 270.264C610.566 271.77 609.059 272.524 606.046 272.524L587.74 271.394ZM714.574 225.064C714.574 233.802 712.54 242.014 708.472 249.698C704.555 257.231 698.754 263.333 691.07 268.004C683.537 272.674 674.346 275.01 663.498 275.01C655.06 275.01 647.376 273.051 640.446 269.134C633.666 265.216 628.317 259.868 624.4 253.088C620.482 246.157 618.524 238.322 618.524 229.584C618.524 223.105 619.804 216.852 622.366 210.826C624.927 204.648 628.468 199.149 632.988 194.328C637.658 189.356 642.932 185.438 648.808 182.576C654.684 179.713 660.936 178.282 667.566 178.282C676.455 178.282 684.441 180.391 691.522 184.61C698.603 188.678 704.178 194.252 708.246 201.334C712.464 208.264 714.574 216.174 714.574 225.064ZM637.056 224.386C637.056 232.07 638.412 239.302 641.124 246.082C643.986 252.711 647.753 258.06 652.424 262.128C657.245 266.196 662.519 268.23 668.244 268.23C675.777 268.23 681.503 266.648 685.42 263.484C689.488 260.169 692.275 255.649 693.782 249.924C695.289 244.048 696.042 237.268 696.042 229.584C696.042 221.749 694.611 214.517 691.748 207.888C689.036 201.108 685.269 195.684 680.448 191.616C675.777 187.397 670.353 185.288 664.176 185.288C646.096 185.288 637.056 198.32 637.056 224.386ZM754.376 216.702C753.774 222.578 752.418 225.516 750.308 225.516C748.199 225.516 746.918 223.03 746.466 218.058C746.165 215.496 745.713 212.031 745.11 207.662C744.658 203.142 744.056 197.642 743.302 191.164C741.796 178.206 740.666 167.886 739.912 160.202C739.31 152.518 739.008 146.416 739.008 141.896C739.008 137.376 739.988 133.458 741.946 130.144C744.056 126.829 746.994 125.172 750.76 125.172C754.527 125.172 757.39 126.829 759.348 130.144C761.458 133.458 762.512 137.376 762.512 141.896C762.512 144.909 762.362 148.525 762.06 152.744C761.759 156.962 761.382 161.181 760.93 165.4C760.629 169.468 760.252 173.008 759.8 176.022C759.198 180.692 758.294 187.924 757.088 197.718L754.376 216.702ZM764.32 261.45C764.32 265.216 762.964 268.456 760.252 271.168C757.691 273.729 754.527 275.01 750.76 275.01C746.994 275.01 743.754 273.729 741.042 271.168C738.481 268.456 737.2 265.216 737.2 261.45C737.2 257.683 738.556 254.444 741.268 251.732C743.83 249.17 746.994 247.89 750.76 247.89C754.527 247.89 757.691 249.246 760.252 251.958C762.964 254.519 764.32 257.683 764.32 261.45Z" fill="#B4C372"/>
<path d="M507.079 255.8L506.131 255.483L506.116 255.527L506.106 255.571L507.079 255.8ZM501.429 264.162L500.74 263.438L500.74 263.438L501.429 264.162ZM488.999 271.846L488.619 270.921L488.999 271.846ZM452.839 268.908L452.236 269.705L452.248 269.714L452.26 269.723L452.839 268.908ZM439.279 251.732L438.37 252.148L438.374 252.156L438.378 252.164L439.279 251.732ZM440.183 202.238L439.308 201.755L439.304 201.762L439.3 201.769L440.183 202.238ZM456.455 184.836L456.984 185.685L456.99 185.681L456.997 185.676L456.455 184.836ZM500.525 183.932L499.933 184.737L499.944 184.745L500.525 183.932ZM503.463 211.504L503.893 212.407L503.902 212.402L503.911 212.398L503.463 211.504ZM449.449 215.346L448.69 214.695L448.681 214.706L449.449 215.346ZM452.839 241.562L451.945 242.009L451.945 242.009L452.839 241.562ZM464.817 256.026L464.229 256.835L464.241 256.843L464.817 256.026ZM503.689 251.506L502.982 250.799L502.942 250.839L502.907 250.883L503.689 251.506ZM484.705 206.532L484.761 207.53L484.785 207.529L484.81 207.526L484.705 206.532ZM491.937 205.628L491.838 204.633L491.811 204.635L491.785 204.639L491.937 205.628ZM488.547 189.13L489.11 188.303L489.11 188.303L488.547 189.13ZM464.365 188.452L464.874 189.313L464.885 189.306L464.365 188.452ZM456.003 195.684L456.772 196.324L456.78 196.314L456.788 196.303L456.003 195.684ZM507.079 255.8L506.106 255.571C505.568 257.855 503.846 260.479 500.74 263.438L501.429 264.162L502.119 264.886C505.34 261.818 507.385 258.867 508.053 256.029L507.079 255.8ZM501.429 264.162L500.74 263.438C497.686 266.346 493.656 268.847 488.619 270.921L488.999 271.846L489.38 272.77C494.588 270.626 498.845 268.004 502.119 264.886L501.429 264.162ZM488.999 271.846L488.619 270.921C483.638 272.972 477.895 274.01 471.371 274.01V275.01V276.01C478.106 276.01 484.115 274.938 489.38 272.77L488.999 271.846ZM471.371 275.01V274.01C464.962 274.01 458.985 272.048 453.419 268.093L452.839 268.908L452.26 269.723C458.144 273.904 464.522 276.01 471.371 276.01V275.01ZM452.839 268.908L453.443 268.11C448.013 264.001 443.588 258.409 440.181 251.3L439.279 251.732L438.378 252.164C441.902 259.518 446.517 265.377 452.236 269.705L452.839 268.908ZM439.279 251.732L440.188 251.315C436.942 244.233 435.307 236.167 435.307 227.098H434.307H433.307C433.307 236.41 434.987 244.767 438.37 252.148L439.279 251.732ZM434.307 227.098H435.307C435.307 218.054 437.233 209.931 441.067 202.706L440.183 202.238L439.3 201.769C435.299 209.31 433.307 217.76 433.307 227.098H434.307ZM440.183 202.238L441.059 202.72C445.049 195.479 450.357 189.808 456.984 185.685L456.455 184.836L455.927 183.987C448.994 188.301 443.453 194.231 439.308 201.755L440.183 202.238ZM456.455 184.836L456.997 185.676C463.608 181.416 471.027 179.282 479.281 179.282V178.282V177.282C470.661 177.282 462.863 179.517 455.914 183.995L456.455 184.836ZM479.281 178.282V179.282C488.195 179.282 495.041 181.14 499.933 184.737L500.525 183.932L501.118 183.126C495.764 179.19 488.447 177.282 479.281 177.282V178.282ZM500.525 183.932L499.944 184.745C504.955 188.324 507.435 193.144 507.435 199.3H508.435H509.435C509.435 192.498 506.643 187.072 501.107 183.118L500.525 183.932ZM508.435 199.3H507.435C507.435 205.695 505.791 209.222 503.016 210.609L503.463 211.504L503.911 212.398C507.765 210.471 509.435 205.862 509.435 199.3H508.435ZM503.463 211.504L503.033 210.601C500.051 212.021 496.071 212.764 491.033 212.764V213.764V214.764C496.241 214.764 500.548 214 503.893 212.407L503.463 211.504ZM491.033 213.764V212.764H453.969V213.764V214.764H491.033V213.764ZM453.969 213.764V212.764C451.721 212.764 449.865 213.324 448.69 214.695L449.449 215.346L450.209 215.996C450.842 215.258 451.999 214.764 453.969 214.764V213.764ZM449.449 215.346L448.681 214.706C448.126 215.371 447.81 216.386 447.615 217.554C447.414 218.76 447.319 220.29 447.319 222.126H448.319H449.319C449.319 220.345 449.413 218.937 449.588 217.883C449.77 216.791 450.019 216.224 450.218 215.986L449.449 215.346ZM448.319 222.126H447.319C447.319 229.207 448.86 235.839 451.945 242.009L452.839 241.562L453.734 241.114C450.792 235.231 449.319 228.906 449.319 222.126H448.319ZM452.839 241.562L451.945 242.009C455.023 248.165 459.115 253.115 464.229 256.834L464.817 256.026L465.406 255.217C460.575 251.704 456.682 247.012 453.734 241.114L452.839 241.562ZM464.817 256.026L464.241 256.843C469.534 260.579 475.461 262.45 481.993 262.45V261.45V260.45C475.87 260.45 470.346 258.704 465.394 255.209L464.817 256.026ZM481.993 261.45V262.45C491.459 262.45 498.991 259.018 504.472 252.128L503.689 251.506L502.907 250.883C497.841 257.252 490.909 260.45 481.993 260.45V261.45ZM503.689 251.506L504.396 252.213C504.896 251.713 505.309 251.373 505.639 251.163C505.984 250.943 506.149 250.924 506.175 250.924V249.924V248.924C505.599 248.924 505.049 249.168 504.565 249.476C504.066 249.793 503.538 250.243 502.982 250.799L503.689 251.506ZM506.175 249.924V250.924C506.432 250.924 506.496 250.995 506.543 251.062C506.635 251.194 506.757 251.516 506.757 252.184H507.757H508.757C508.757 251.344 508.616 250.537 508.181 249.915C507.701 249.229 506.974 248.924 506.175 248.924V249.924ZM507.757 252.184H506.757C506.757 253.1 506.56 254.196 506.131 255.483L507.079 255.8L508.028 256.116C508.503 254.692 508.757 253.376 508.757 252.184H507.757ZM452.613 203.368H451.613C451.613 204.723 452.054 205.895 453.067 206.695C454.035 207.459 455.371 207.758 456.907 207.758V206.758V205.758C455.581 205.758 454.77 205.491 454.306 205.125C453.888 204.795 453.613 204.272 453.613 203.368H452.613ZM456.907 206.758V207.758H475.439V206.758V205.758H456.907V206.758ZM475.439 206.758V207.758C478.918 207.758 482.026 207.682 484.761 207.53L484.705 206.532L484.65 205.533C481.961 205.683 478.891 205.758 475.439 205.758V206.758ZM484.705 206.532L484.81 207.526C487.682 207.224 490.11 206.921 492.089 206.616L491.937 205.628L491.785 204.639C489.848 204.937 487.454 205.237 484.601 205.537L484.705 206.532ZM491.937 205.628L492.037 206.623C493.365 206.49 494.149 205.445 494.578 204.202C495.009 202.952 495.197 201.218 495.197 199.074H494.197H493.197C493.197 201.148 493.009 202.616 492.687 203.55C492.362 204.492 492.016 204.615 491.838 204.633L491.937 205.628ZM494.197 199.074H495.197C495.197 194.631 493.112 191.024 489.11 188.303L488.547 189.13L487.985 189.957C491.516 192.358 493.197 195.381 493.197 199.074H494.197ZM488.547 189.13L489.11 188.303C485.152 185.612 480.429 184.288 474.987 184.288V185.288V186.288C480.093 186.288 484.409 187.525 487.985 189.957L488.547 189.13ZM474.987 185.288V184.288C471.166 184.288 467.448 185.405 463.845 187.598L464.365 188.452L464.885 189.306C468.214 187.28 471.576 186.288 474.987 186.288V185.288ZM464.365 188.452L463.857 187.591C460.442 189.609 457.559 192.099 455.218 195.064L456.003 195.684L456.788 196.303C458.968 193.543 461.66 191.212 464.874 189.313L464.365 188.452ZM456.003 195.684L455.235 195.044C452.893 197.854 451.613 200.636 451.613 203.368H452.613H453.613C453.613 201.278 454.594 198.937 456.772 196.324L456.003 195.684ZM537.746 271.394L537.808 270.396L537.746 270.392L537.685 270.396L537.746 271.394ZM519.44 272.524V273.524H519.471L519.502 273.522L519.44 272.524ZM521.248 266.196L520.952 265.241L520.942 265.244L521.248 266.196ZM528.706 261.902L527.812 261.454L527.793 261.492L527.778 261.53L528.706 261.902ZM519.44 127.432L519.198 128.402L519.213 128.406L519.228 128.409L519.44 127.432ZM519.214 121.782L519.356 122.772L519.398 122.766L519.439 122.756L519.214 121.782ZM545.43 112.742V111.742H545.248L545.077 111.806L545.43 112.742ZM545.656 112.742V113.742H546.071L546.364 113.449L545.656 112.742ZM545.882 112.516V111.516H545.468L545.175 111.809L545.882 112.516ZM547.238 114.098L548.232 114.208L548.238 114.153V114.098H547.238ZM546.786 118.166L545.793 118.055L545.792 118.061L546.786 118.166ZM545.882 129.24L544.885 129.173L544.884 129.189L544.883 129.205L545.882 129.24ZM548.368 263.71L547.921 264.604L547.935 264.611L547.949 264.618L548.368 263.71ZM556.052 266.648L556.424 265.719L556.397 265.708L556.369 265.699L556.052 266.648ZM556.052 272.524L555.991 273.522L556.022 273.524H556.052V272.524ZM537.746 271.394L537.685 270.396L519.379 271.526L519.44 272.524L519.502 273.522L537.808 272.392L537.746 271.394ZM519.44 272.524V271.524C517.985 271.524 517.042 271.336 516.498 271.064C516.24 270.935 516.106 270.805 516.035 270.698C515.968 270.597 515.92 270.465 515.92 270.264H514.92H513.92C513.92 270.815 514.061 271.343 514.371 271.807C514.676 272.265 515.108 272.605 515.603 272.853C516.566 273.334 517.883 273.524 519.44 273.524V272.524ZM514.92 270.264H515.92C515.92 270.134 516.039 269.716 517.043 269.071C517.989 268.463 519.475 267.816 521.554 267.148L521.248 266.196L520.942 265.244C518.803 265.931 517.125 266.641 515.962 267.389C514.856 268.099 513.92 269.038 513.92 270.264H514.92ZM521.248 266.196L521.545 267.151C523.764 266.462 525.556 265.739 526.889 264.972C528.193 264.221 529.207 263.343 529.635 262.273L528.706 261.902L527.778 261.53C527.603 261.967 527.073 262.558 525.891 263.239C524.738 263.902 523.103 264.573 520.952 265.241L521.248 266.196ZM528.706 261.902L529.601 262.349C530.398 260.755 530.836 259.243 530.836 257.834H529.836H528.836C528.836 258.835 528.522 260.035 527.812 261.454L528.706 261.902ZM529.836 257.834H530.836V143.93H529.836H528.836V257.834H529.836ZM529.836 143.93H530.836C530.836 139.077 529.953 135.12 528.084 132.153C526.194 129.154 523.354 127.259 519.653 126.455L519.44 127.432L519.228 128.409C522.458 129.111 524.816 130.719 526.391 133.219C527.987 135.752 528.836 139.29 528.836 143.93H529.836ZM519.44 127.432L519.683 126.462C519.311 126.369 519.089 126.195 518.936 125.947C518.766 125.67 518.632 125.215 518.632 124.494H517.632H516.632C516.632 125.43 516.801 126.293 517.233 126.995C517.683 127.726 518.364 128.193 519.198 128.402L519.44 127.432ZM517.632 124.494H518.632C518.632 123.748 518.755 123.311 518.892 123.077C518.998 122.894 519.125 122.805 519.356 122.772L519.214 121.782L519.073 120.792C518.25 120.909 517.585 121.347 517.164 122.069C516.774 122.738 516.632 123.582 516.632 124.494H517.632ZM519.214 121.782L519.439 122.756C523.436 121.834 532.243 118.793 545.784 113.677L545.43 112.742L545.077 111.806C531.498 116.936 522.828 119.922 518.99 120.807L519.214 121.782ZM545.43 112.742V113.742H545.656V112.742V111.742H545.43V112.742ZM545.656 112.742L546.364 113.449L546.59 113.223L545.882 112.516L545.175 111.809L544.949 112.035L545.656 112.742ZM545.882 112.516V113.516C546.014 113.516 546.084 113.535 546.113 113.547C546.137 113.556 546.139 113.561 546.14 113.562C546.148 113.571 546.238 113.69 546.238 114.098H547.238H548.238C548.238 113.451 548.103 112.779 547.659 112.26C547.189 111.712 546.532 111.516 545.882 111.516V112.516ZM547.238 114.098L546.245 113.987L545.793 118.055L546.786 118.166L547.78 118.276L548.232 114.208L547.238 114.098ZM546.786 118.166L545.792 118.061C545.489 120.941 545.186 124.647 544.885 129.173L545.882 129.24L546.88 129.306C547.181 124.793 547.482 121.115 547.781 118.27L546.786 118.166ZM545.882 129.24L544.883 129.205C544.732 133.589 544.656 138.799 544.656 144.834H545.656H546.656C546.656 138.815 546.732 133.629 546.882 129.274L545.882 129.24ZM545.656 144.834H544.656V257.834H545.656H546.656V144.834H545.656ZM545.656 257.834H544.656C544.656 261.018 545.622 263.454 547.921 264.604L548.368 263.71L548.816 262.815C547.499 262.157 546.656 260.676 546.656 257.834H545.656ZM548.368 263.71L547.949 264.618C549.954 265.543 552.554 266.536 555.736 267.596L556.052 266.648L556.369 265.699C553.223 264.65 550.7 263.684 548.788 262.802L548.368 263.71ZM556.052 266.648L555.681 267.576C557.15 268.164 558.176 268.723 558.818 269.237C559.476 269.763 559.572 270.109 559.572 270.264H560.572H561.572C561.572 269.213 560.916 268.354 560.067 267.675C559.203 266.983 557.969 266.337 556.424 265.719L556.052 266.648ZM560.572 270.264H559.572C559.572 270.465 559.525 270.597 559.458 270.698C559.387 270.805 559.253 270.935 558.995 271.064C558.451 271.336 557.508 271.524 556.052 271.524V272.524V273.524C557.61 273.524 558.927 273.334 559.89 272.853C560.385 272.605 560.817 272.265 561.122 271.807C561.432 271.343 561.572 270.815 561.572 270.264H560.572ZM556.052 272.524L556.114 271.526L537.808 270.396L537.746 271.394L537.685 272.392L555.991 273.522L556.052 272.524ZM587.74 271.394L587.802 270.396L587.74 270.392L587.679 270.396L587.74 271.394ZM569.434 272.524V273.524H569.465L569.496 273.522L569.434 272.524ZM571.242 266.196L570.946 265.241L570.936 265.244L571.242 266.196ZM578.7 261.902L577.806 261.454L577.787 261.492L577.772 261.53L578.7 261.902ZM569.434 127.432L569.192 128.402L569.207 128.406L569.222 128.409L569.434 127.432ZM569.208 121.782L569.35 122.772L569.392 122.766L569.433 122.756L569.208 121.782ZM595.424 112.742V111.742H595.242L595.071 111.806L595.424 112.742ZM595.65 112.742V113.742H596.064L596.357 113.449L595.65 112.742ZM595.876 112.516V111.516H595.462L595.169 111.809L595.876 112.516ZM597.232 114.098L598.226 114.208L598.232 114.153V114.098H597.232ZM596.78 118.166L595.786 118.055L595.786 118.061L596.78 118.166ZM595.876 129.24L594.878 129.173L594.877 129.189L594.877 129.205L595.876 129.24ZM598.362 263.71L597.915 264.604L597.929 264.611L597.943 264.618L598.362 263.71ZM606.046 266.648L606.418 265.719L606.39 265.708L606.362 265.699L606.046 266.648ZM606.046 272.524L605.985 273.522L606.015 273.524H606.046V272.524ZM587.74 271.394L587.679 270.396L569.373 271.526L569.434 272.524L569.496 273.522L587.802 272.392L587.74 271.394ZM569.434 272.524V271.524C567.979 271.524 567.036 271.336 566.491 271.064C566.233 270.935 566.1 270.805 566.029 270.698C565.962 270.597 565.914 270.465 565.914 270.264H564.914H563.914C563.914 270.815 564.055 271.343 564.365 271.807C564.67 272.265 565.102 272.605 565.597 272.853C566.559 273.334 567.876 273.524 569.434 273.524V272.524ZM564.914 270.264H565.914C565.914 270.134 566.033 269.716 567.037 269.071C567.983 268.463 569.469 267.816 571.548 267.148L571.242 266.196L570.936 265.244C568.797 265.931 567.119 266.641 565.955 267.389C564.85 268.099 563.914 269.038 563.914 270.264H564.914ZM571.242 266.196L571.539 267.151C573.757 266.462 575.549 265.739 576.883 264.972C578.187 264.221 579.201 263.343 579.629 262.273L578.7 261.902L577.772 261.53C577.597 261.967 577.066 262.558 575.885 263.239C574.732 263.902 573.096 264.573 570.946 265.241L571.242 266.196ZM578.7 261.902L579.595 262.349C580.391 260.755 580.83 259.243 580.83 257.834H579.83H578.83C578.83 258.835 578.516 260.035 577.806 261.454L578.7 261.902ZM579.83 257.834H580.83V143.93H579.83H578.83V257.834H579.83ZM579.83 143.93H580.83C580.83 139.077 579.947 135.12 578.077 132.153C576.188 129.154 573.348 127.259 569.647 126.455L569.434 127.432L569.222 128.409C572.451 129.111 574.809 130.719 576.385 133.219C577.981 135.752 578.83 139.29 578.83 143.93H579.83ZM569.434 127.432L569.677 126.462C569.305 126.369 569.083 126.195 568.93 125.947C568.759 125.67 568.626 125.215 568.626 124.494H567.626H566.626C566.626 125.43 566.794 126.293 567.227 126.995C567.676 127.726 568.358 128.193 569.192 128.402L569.434 127.432ZM567.626 124.494H568.626C568.626 123.748 568.749 123.311 568.885 123.077C568.992 122.894 569.118 122.805 569.35 122.772L569.208 121.782L569.067 120.792C568.243 120.909 567.579 121.347 567.158 122.069C566.767 122.738 566.626 123.582 566.626 124.494H567.626ZM569.208 121.782L569.433 122.756C573.43 121.834 582.237 118.793 595.778 113.677L595.424 112.742L595.071 111.806C581.492 116.936 572.821 119.922 568.983 120.807L569.208 121.782ZM595.424 112.742V113.742H595.65V112.742V111.742H595.424V112.742ZM595.65 112.742L596.357 113.449L596.583 113.223L595.876 112.516L595.169 111.809L594.943 112.035L595.65 112.742ZM595.876 112.516V113.516C596.007 113.516 596.077 113.535 596.107 113.547C596.131 113.556 596.133 113.561 596.134 113.562C596.142 113.571 596.232 113.69 596.232 114.098H597.232H598.232C598.232 113.451 598.097 112.779 597.652 112.26C597.183 111.712 596.526 111.516 595.876 111.516V112.516ZM597.232 114.098L596.238 113.987L595.786 118.055L596.78 118.166L597.774 118.276L598.226 114.208L597.232 114.098ZM596.78 118.166L595.786 118.061C595.482 120.941 595.18 124.647 594.878 129.173L595.876 129.24L596.874 129.306C597.175 124.793 597.475 121.115 597.775 118.27L596.78 118.166ZM595.876 129.24L594.877 129.205C594.726 133.589 594.65 138.799 594.65 144.834H595.65H596.65C596.65 138.815 596.725 133.629 596.876 129.274L595.876 129.24ZM595.65 144.834H594.65V257.834H595.65H596.65V144.834H595.65ZM595.65 257.834H594.65C594.65 261.018 595.615 263.454 597.915 264.604L598.362 263.71L598.809 262.815C597.493 262.157 596.65 260.676 596.65 257.834H595.65ZM598.362 263.71L597.943 264.618C599.948 265.543 602.548 266.536 605.73 267.596L606.046 266.648L606.362 265.699C603.217 264.65 600.694 263.684 598.781 262.802L598.362 263.71ZM606.046 266.648L605.675 267.576C607.143 268.164 608.169 268.723 608.811 269.237C609.47 269.763 609.566 270.109 609.566 270.264H610.566H611.566C611.566 269.213 610.909 268.354 610.061 267.675C609.196 266.983 607.962 266.337 606.418 265.719L606.046 266.648ZM610.566 270.264H609.566C609.566 270.465 609.519 270.597 609.452 270.698C609.38 270.805 609.247 270.935 608.989 271.064C608.445 271.336 607.502 271.524 606.046 271.524V272.524V273.524C607.604 273.524 608.921 273.334 609.883 272.853C610.379 272.605 610.81 272.265 611.116 271.807C611.425 271.343 611.566 270.815 611.566 270.264H610.566ZM606.046 272.524L606.108 271.526L587.802 270.396L587.74 271.394L587.679 272.392L605.985 273.522L606.046 272.524ZM708.472 249.698L707.588 249.23L707.585 249.236L708.472 249.698ZM691.07 268.004L690.55 267.149L690.543 267.154L691.07 268.004ZM640.446 269.134L639.946 270L639.954 270.004L640.446 269.134ZM624.4 253.088L623.529 253.58L623.534 253.588L624.4 253.088ZM622.366 210.826L623.286 211.217L623.29 211.209L622.366 210.826ZM632.988 194.328L632.259 193.643L632.258 193.644L632.988 194.328ZM648.808 182.576L649.246 183.475L649.246 183.475L648.808 182.576ZM691.522 184.61L691.01 185.469L691.017 185.473L691.024 185.477L691.522 184.61ZM708.246 201.334L707.379 201.832L707.385 201.843L707.392 201.854L708.246 201.334ZM641.124 246.082L640.195 246.453L640.2 246.466L640.206 246.478L641.124 246.082ZM652.424 262.128L651.767 262.882L651.773 262.887L651.779 262.892L652.424 262.128ZM685.42 263.484L686.048 264.262L686.052 264.259L685.42 263.484ZM693.782 249.924L694.749 250.178L694.751 250.172L693.782 249.924ZM691.748 207.888L690.819 208.259L690.824 208.272L690.83 208.284L691.748 207.888ZM680.448 191.616L679.778 192.358L679.79 192.369L679.803 192.38L680.448 191.616ZM714.574 225.064H713.574C713.574 233.64 711.579 241.691 707.588 249.23L708.472 249.698L709.356 250.166C713.5 242.337 715.574 233.965 715.574 225.064H714.574ZM708.472 249.698L707.585 249.236C703.757 256.598 698.088 262.568 690.55 267.149L691.07 268.004L691.589 268.858C699.42 264.098 705.352 257.864 709.359 250.159L708.472 249.698ZM691.07 268.004L690.543 267.154C683.2 271.706 674.201 274.01 663.498 274.01V275.01V276.01C674.49 276.01 683.873 273.642 691.597 268.854L691.07 268.004ZM663.498 275.01V274.01C655.222 274.01 647.709 272.091 640.938 268.263L640.446 269.134L639.954 270.004C647.044 274.012 654.899 276.01 663.498 276.01V275.01ZM640.446 269.134L640.946 268.268C634.318 264.438 629.095 259.216 625.266 252.587L624.4 253.088L623.534 253.588C627.539 260.52 633.014 265.995 639.946 270L640.446 269.134ZM624.4 253.088L625.27 252.596C621.446 245.829 619.524 238.167 619.524 229.584H618.524H617.524C617.524 238.478 619.519 246.485 623.529 253.58L624.4 253.088ZM618.524 229.584H619.524C619.524 223.241 620.777 217.121 623.286 211.217L622.366 210.826L621.445 210.435C618.832 216.584 617.524 222.969 617.524 229.584H618.524ZM622.366 210.826L623.29 211.209C625.805 205.141 629.281 199.744 633.717 195.012L632.988 194.328L632.258 193.644C627.655 198.554 624.049 204.156 621.442 210.443L622.366 210.826ZM632.988 194.328L633.717 195.012C638.308 190.125 643.484 186.282 649.246 183.475L648.808 182.576L648.37 181.677C642.38 184.595 637.009 188.586 632.259 193.643L632.988 194.328ZM648.808 182.576L649.246 183.475C654.983 180.679 661.086 179.282 667.566 179.282V178.282V177.282C660.787 177.282 654.384 178.747 648.37 181.677L648.808 182.576ZM667.566 178.282V179.282C676.29 179.282 684.096 181.35 691.01 185.469L691.522 184.61L692.034 183.751C684.785 179.432 676.621 177.282 667.566 177.282V178.282ZM691.522 184.61L691.024 185.477C697.952 189.457 703.399 194.904 707.379 201.832L708.246 201.334L709.113 200.836C704.957 193.601 699.255 187.899 692.02 183.743L691.522 184.61ZM708.246 201.334L707.392 201.854C711.506 208.613 713.574 216.34 713.574 225.064H714.574H715.574C715.574 216.009 713.423 207.916 709.1 200.814L708.246 201.334ZM637.056 224.386H636.056C636.056 232.19 637.434 239.549 640.195 246.453L641.124 246.082L642.052 245.71C639.39 239.055 638.056 231.949 638.056 224.386H637.056ZM641.124 246.082L640.206 246.478C643.118 253.222 646.966 258.701 651.767 262.882L652.424 262.128L653.081 261.374C648.54 257.419 644.855 252.2 642.042 245.685L641.124 246.082ZM652.424 262.128L651.779 262.892C656.761 267.096 662.258 269.23 668.244 269.23V268.23V267.23C662.779 267.23 657.729 265.296 653.069 261.363L652.424 262.128ZM668.244 268.23V269.23C675.897 269.23 681.884 267.625 686.048 264.262L685.42 263.484L684.792 262.706C681.121 265.67 675.657 267.23 668.244 267.23V268.23ZM685.42 263.484L686.052 264.259C690.304 260.794 693.196 256.081 694.749 250.178L693.782 249.924L692.815 249.669C691.355 255.217 688.671 259.544 684.788 262.708L685.42 263.484ZM693.782 249.924L694.751 250.172C696.283 244.197 697.042 237.33 697.042 229.584H696.042H695.042C695.042 237.205 694.294 243.899 692.813 249.675L693.782 249.924ZM696.042 229.584H697.042C697.042 221.624 695.587 214.256 692.666 207.491L691.748 207.888L690.83 208.284C693.634 214.778 695.042 221.874 695.042 229.584H696.042ZM691.748 207.888L692.676 207.516C689.913 200.608 686.058 195.041 681.093 190.851L680.448 191.616L679.803 192.38C684.481 196.327 688.159 201.607 690.819 208.259L691.748 207.888ZM680.448 191.616L681.118 190.874C676.267 186.492 670.606 184.288 664.176 184.288V185.288V186.288C670.1 186.288 675.287 188.302 679.778 192.358L680.448 191.616ZM664.176 185.288V184.288C654.861 184.288 647.749 187.666 643.014 194.492C638.325 201.253 636.056 211.268 636.056 224.386H637.056H638.056C638.056 211.438 640.307 201.905 644.658 195.632C648.962 189.426 655.411 186.288 664.176 186.288V185.288ZM754.376 216.702L753.386 216.56L753.384 216.58L753.382 216.6L754.376 216.702ZM746.466 218.058L747.462 217.967L747.461 217.954L747.459 217.941L746.466 218.058ZM745.11 207.662L744.115 207.761L744.117 207.78L744.12 207.798L745.11 207.662ZM743.302 191.164L742.309 191.279L742.309 191.279L743.302 191.164ZM739.912 160.202L738.915 160.28L738.916 160.29L738.917 160.299L739.912 160.202ZM741.946 130.144L741.103 129.607L741.094 129.621L741.085 129.635L741.946 130.144ZM759.348 130.144L758.487 130.652L758.496 130.667L758.505 130.681L759.348 130.144ZM760.93 165.4L759.936 165.293L759.934 165.309L759.933 165.326L760.93 165.4ZM759.8 176.022L758.811 175.873L758.81 175.884L758.809 175.894L759.8 176.022ZM757.088 197.718L758.078 197.859L758.08 197.85L758.081 197.84L757.088 197.718ZM760.252 271.168L759.545 270.461L759.545 270.461L760.252 271.168ZM741.042 271.168L740.315 271.854L740.335 271.875L740.356 271.895L741.042 271.168ZM741.268 251.732L741.975 252.439L741.975 252.439L741.268 251.732ZM760.252 251.958L759.525 252.644L759.545 252.665L759.566 252.685L760.252 251.958ZM754.376 216.702L753.382 216.6C753.084 219.503 752.608 221.575 751.999 222.893C751.387 224.22 750.784 224.516 750.308 224.516V225.516V226.516C751.942 226.516 753.072 225.342 753.815 223.731C754.563 222.111 755.066 219.777 755.371 216.804L754.376 216.702ZM750.308 225.516V224.516C749.752 224.516 749.189 224.23 748.655 223.193C748.103 222.122 747.684 220.41 747.462 217.967L746.466 218.058L745.47 218.148C745.7 220.678 746.148 222.695 746.877 224.109C747.624 225.559 748.756 226.516 750.308 226.516V225.516ZM746.466 218.058L747.459 217.941C747.157 215.37 746.704 211.897 746.101 207.525L745.11 207.662L744.12 207.798C744.722 212.165 745.173 215.623 745.473 218.175L746.466 218.058ZM745.11 207.662L746.105 207.562C745.653 203.035 745.049 197.53 744.296 191.048L743.302 191.164L742.309 191.279C743.062 197.755 743.664 203.248 744.115 207.761L745.11 207.662ZM743.302 191.164L744.296 191.048C742.789 178.093 741.66 167.779 740.908 160.104L739.912 160.202L738.917 160.299C739.671 167.992 740.802 178.319 742.309 191.279L743.302 191.164ZM739.912 160.202L740.909 160.124C740.307 152.45 740.008 146.378 740.008 141.896H739.008H738.008C738.008 146.454 738.312 152.585 738.915 160.28L739.912 160.202ZM739.008 141.896H740.008C740.008 137.523 740.954 133.788 742.807 130.652L741.946 130.144L741.085 129.635C739.021 133.129 738.008 137.228 738.008 141.896H739.008ZM741.946 130.144L742.79 130.681C744.725 127.639 747.353 126.172 750.76 126.172V125.172V124.172C746.634 124.172 743.386 126.019 741.103 129.607L741.946 130.144ZM750.76 125.172V126.172C754.164 126.172 756.704 127.634 758.487 130.652L759.348 130.144L760.209 129.635C758.076 126.024 754.89 124.172 750.76 124.172V125.172ZM759.348 130.144L758.505 130.681C760.497 133.812 761.512 137.537 761.512 141.896H762.512H763.512C763.512 137.215 762.418 133.105 760.192 129.607L759.348 130.144ZM762.512 141.896H761.512C761.512 144.878 761.363 148.469 761.063 152.672L762.06 152.744L763.058 152.815C763.36 148.581 763.512 144.94 763.512 141.896H762.512ZM762.06 152.744L761.063 152.672C760.762 156.879 760.387 161.086 759.936 165.293L760.93 165.4L761.925 165.506C762.378 161.276 762.756 157.045 763.058 152.815L762.06 152.744ZM760.93 165.4L759.933 165.326C759.633 169.377 759.259 172.891 758.811 175.873L759.8 176.022L760.789 176.17C761.246 173.125 761.625 169.559 761.928 165.474L760.93 165.4ZM759.8 176.022L758.809 175.894C758.205 180.567 757.301 187.802 756.096 197.596L757.088 197.718L758.081 197.84C759.286 188.047 760.19 180.817 760.792 176.15L759.8 176.022ZM757.088 197.718L756.098 197.576L753.386 216.56L754.376 216.702L755.366 216.843L758.078 197.859L757.088 197.718ZM764.32 261.45H763.32C763.32 264.946 762.074 267.932 759.545 270.461L760.252 271.168L760.959 271.875C763.855 268.979 765.32 265.487 765.32 261.45H764.32ZM760.252 271.168L759.545 270.461C757.18 272.826 754.274 274.01 750.76 274.01V275.01V276.01C754.78 276.01 758.202 274.632 760.959 271.875L760.252 271.168ZM750.76 275.01V274.01C747.246 274.01 744.253 272.825 741.729 270.441L741.042 271.168L740.356 271.895C743.255 274.633 746.741 276.01 750.76 276.01V275.01ZM741.042 271.168L741.769 270.481C739.385 267.957 738.2 264.964 738.2 261.45H737.2H736.2C736.2 265.469 737.577 268.955 740.315 271.854L741.042 271.168ZM737.2 261.45H738.2C738.2 257.954 739.447 254.967 741.975 252.439L741.268 251.732L740.561 251.025C737.666 253.92 736.2 257.412 736.2 261.45H737.2ZM741.268 251.732L741.975 252.439C744.341 250.073 747.247 248.89 750.76 248.89V247.89V246.89C746.74 246.89 743.318 248.268 740.561 251.025L741.268 251.732ZM750.76 247.89V248.89C754.255 248.89 757.155 250.135 759.525 252.644L760.252 251.958L760.979 251.271C758.227 248.357 754.799 246.89 750.76 246.89V247.89ZM760.252 251.958L759.566 252.685C762.075 255.055 763.32 257.955 763.32 261.45H764.32H765.32C765.32 257.411 763.853 253.983 760.939 251.231L760.252 251.958Z" fill="black" mask="url(#path-3-outside-2_577_2182)"/>
</g>
<defs>
<clipPath id="clip0_577_2182">
<rect width="780" height="301" fill="white"/>
</clipPath>
</defs>
</svg>
