<svg width="96" height="96" viewBox="0 0 96 96" fill="none" xmlns="http://www.w3.org/2000/svg">
<g clip-path="url(#clip0_513_2508)">
<rect x="0.5" y="0.5" width="95" height="95" rx="14.5" fill="#FB73B5" stroke="black"/>
<mask id="path-2-outside-1_513_2508" maskUnits="userSpaceOnUse" x="10" y="32" width="77" height="31" fill="black">
<rect fill="white" x="10" y="32" width="77" height="31"/>
<path d="M28.2344 46.0049V48.8413H13.998V46.0049H28.2344ZM14.54 34.6953V61H11.0532V34.6953H14.54ZM31.2695 34.6953V61H27.8008V34.6953H31.2695ZM45.1445 41.4521V44.0176H34.5757V41.4521H45.1445ZM38.1528 36.7007H41.4951V56.1582C41.4951 56.8206 41.5975 57.3205 41.8022 57.6577C42.007 57.995 42.272 58.2178 42.5972 58.3262C42.9224 58.4346 43.2716 58.4888 43.645 58.4888C43.922 58.4888 44.2111 58.4647 44.5122 58.4165C44.8254 58.3563 45.0602 58.3081 45.2168 58.272L45.2349 61C44.9699 61.0843 44.6206 61.1626 44.187 61.2349C43.7655 61.3192 43.2536 61.3613 42.6514 61.3613C41.8324 61.3613 41.0796 61.1987 40.3931 60.8735C39.7065 60.5483 39.1585 60.0063 38.749 59.2476C38.3516 58.4767 38.1528 57.4409 38.1528 56.1401V36.7007ZM52.3892 45.3364V61H49.0288V41.4521H52.2085L52.3892 45.3364ZM51.7026 50.4854L50.1489 50.4312C50.161 49.0942 50.3356 47.8597 50.6729 46.7275C51.0101 45.5833 51.5099 44.5897 52.1724 43.7466C52.8348 42.9035 53.6598 42.2531 54.6475 41.7954C55.6351 41.3257 56.7793 41.0908 58.0801 41.0908C58.9954 41.0908 59.8385 41.2233 60.6094 41.4883C61.3802 41.7412 62.0487 42.1447 62.6147 42.6987C63.1808 43.2528 63.6204 43.9634 63.9336 44.8306C64.2467 45.6978 64.4033 46.7456 64.4033 47.9741V61H61.061V48.1367C61.061 47.113 60.8864 46.2939 60.5371 45.6797C60.1999 45.0654 59.7181 44.6198 59.0918 44.3428C58.4655 44.0537 57.7308 43.9092 56.8877 43.9092C55.9001 43.9092 55.075 44.0838 54.4126 44.4331C53.7502 44.7824 53.2202 45.2642 52.8228 45.8784C52.4253 46.4927 52.1362 47.1973 51.9556 47.9922C51.7869 48.7751 51.7026 49.6061 51.7026 50.4854ZM64.3672 48.6426L62.127 49.3291C62.139 48.2572 62.3136 47.2274 62.6509 46.2397C63.0002 45.2521 63.5 44.3729 64.1504 43.6021C64.8128 42.8312 65.6258 42.223 66.5894 41.7773C67.5529 41.3197 68.6549 41.0908 69.8955 41.0908C70.9434 41.0908 71.8708 41.2293 72.6777 41.5063C73.4967 41.7834 74.1833 42.2109 74.7373 42.7891C75.3034 43.3551 75.731 44.0838 76.02 44.9751C76.3091 45.8664 76.4536 46.9263 76.4536 48.1548V61H73.0933V48.1187C73.0933 47.0226 72.9186 46.1735 72.5693 45.5713C72.2321 44.957 71.7503 44.5295 71.124 44.2886C70.5098 44.0356 69.7751 43.9092 68.9199 43.9092C68.1852 43.9092 67.5348 44.0356 66.9688 44.2886C66.4027 44.5415 65.9269 44.8908 65.5415 45.3364C65.1561 45.77 64.861 46.2699 64.6562 46.8359C64.4635 47.402 64.3672 48.0042 64.3672 48.6426ZM85.1436 33.25V61H81.7832V33.25H85.1436Z"/>
</mask>
<path d="M28.2344 46.0049V48.8413H13.998V46.0049H28.2344ZM14.54 34.6953V61H11.0532V34.6953H14.54ZM31.2695 34.6953V61H27.8008V34.6953H31.2695ZM45.1445 41.4521V44.0176H34.5757V41.4521H45.1445ZM38.1528 36.7007H41.4951V56.1582C41.4951 56.8206 41.5975 57.3205 41.8022 57.6577C42.007 57.995 42.272 58.2178 42.5972 58.3262C42.9224 58.4346 43.2716 58.4888 43.645 58.4888C43.922 58.4888 44.2111 58.4647 44.5122 58.4165C44.8254 58.3563 45.0602 58.3081 45.2168 58.272L45.2349 61C44.9699 61.0843 44.6206 61.1626 44.187 61.2349C43.7655 61.3192 43.2536 61.3613 42.6514 61.3613C41.8324 61.3613 41.0796 61.1987 40.3931 60.8735C39.7065 60.5483 39.1585 60.0063 38.749 59.2476C38.3516 58.4767 38.1528 57.4409 38.1528 56.1401V36.7007ZM52.3892 45.3364V61H49.0288V41.4521H52.2085L52.3892 45.3364ZM51.7026 50.4854L50.1489 50.4312C50.161 49.0942 50.3356 47.8597 50.6729 46.7275C51.0101 45.5833 51.5099 44.5897 52.1724 43.7466C52.8348 42.9035 53.6598 42.2531 54.6475 41.7954C55.6351 41.3257 56.7793 41.0908 58.0801 41.0908C58.9954 41.0908 59.8385 41.2233 60.6094 41.4883C61.3802 41.7412 62.0487 42.1447 62.6147 42.6987C63.1808 43.2528 63.6204 43.9634 63.9336 44.8306C64.2467 45.6978 64.4033 46.7456 64.4033 47.9741V61H61.061V48.1367C61.061 47.113 60.8864 46.2939 60.5371 45.6797C60.1999 45.0654 59.7181 44.6198 59.0918 44.3428C58.4655 44.0537 57.7308 43.9092 56.8877 43.9092C55.9001 43.9092 55.075 44.0838 54.4126 44.4331C53.7502 44.7824 53.2202 45.2642 52.8228 45.8784C52.4253 46.4927 52.1362 47.1973 51.9556 47.9922C51.7869 48.7751 51.7026 49.6061 51.7026 50.4854ZM64.3672 48.6426L62.127 49.3291C62.139 48.2572 62.3136 47.2274 62.6509 46.2397C63.0002 45.2521 63.5 44.3729 64.1504 43.6021C64.8128 42.8312 65.6258 42.223 66.5894 41.7773C67.5529 41.3197 68.6549 41.0908 69.8955 41.0908C70.9434 41.0908 71.8708 41.2293 72.6777 41.5063C73.4967 41.7834 74.1833 42.2109 74.7373 42.7891C75.3034 43.3551 75.731 44.0838 76.02 44.9751C76.3091 45.8664 76.4536 46.9263 76.4536 48.1548V61H73.0933V48.1187C73.0933 47.0226 72.9186 46.1735 72.5693 45.5713C72.2321 44.957 71.7503 44.5295 71.124 44.2886C70.5098 44.0356 69.7751 43.9092 68.9199 43.9092C68.1852 43.9092 67.5348 44.0356 66.9688 44.2886C66.4027 44.5415 65.9269 44.8908 65.5415 45.3364C65.1561 45.77 64.861 46.2699 64.6562 46.8359C64.4635 47.402 64.3672 48.0042 64.3672 48.6426ZM85.1436 33.25V61H81.7832V33.25H85.1436Z" fill="white"/>
<path d="M28.2344 46.0049H29.2344V45.0049H28.2344V46.0049ZM28.2344 48.8413V49.8413H29.2344V48.8413H28.2344ZM13.998 48.8413H12.998V49.8413H13.998V48.8413ZM13.998 46.0049V45.0049H12.998V46.0049H13.998ZM14.54 34.6953H15.54V33.6953H14.54V34.6953ZM14.54 61V62H15.54V61H14.54ZM11.0532 61H10.0532V62H11.0532V61ZM11.0532 34.6953V33.6953H10.0532V34.6953H11.0532ZM31.2695 34.6953H32.2695V33.6953H31.2695V34.6953ZM31.2695 61V62H32.2695V61H31.2695ZM27.8008 61H26.8008V62H27.8008V61ZM27.8008 34.6953V33.6953H26.8008V34.6953H27.8008ZM28.2344 46.0049H27.2344V48.8413H28.2344H29.2344V46.0049H28.2344ZM28.2344 48.8413V47.8413H13.998V48.8413V49.8413H28.2344V48.8413ZM13.998 48.8413H14.998V46.0049H13.998H12.998V48.8413H13.998ZM13.998 46.0049V47.0049H28.2344V46.0049V45.0049H13.998V46.0049ZM14.54 34.6953H13.54V61H14.54H15.54V34.6953H14.54ZM14.54 61V60H11.0532V61V62H14.54V61ZM11.0532 61H12.0532V34.6953H11.0532H10.0532V61H11.0532ZM11.0532 34.6953V35.6953H14.54V34.6953V33.6953H11.0532V34.6953ZM31.2695 34.6953H30.2695V61H31.2695H32.2695V34.6953H31.2695ZM31.2695 61V60H27.8008V61V62H31.2695V61ZM27.8008 61H28.8008V34.6953H27.8008H26.8008V61H27.8008ZM27.8008 34.6953V35.6953H31.2695V34.6953V33.6953H27.8008V34.6953ZM45.1445 41.4521H46.1445V40.4521H45.1445V41.4521ZM45.1445 44.0176V45.0176H46.1445V44.0176H45.1445ZM34.5757 44.0176H33.5757V45.0176H34.5757V44.0176ZM34.5757 41.4521V40.4521H33.5757V41.4521H34.5757ZM38.1528 36.7007V35.7007H37.1528V36.7007H38.1528ZM41.4951 36.7007H42.4951V35.7007H41.4951V36.7007ZM44.5122 58.4165L44.6702 59.4039L44.6857 59.4015L44.7011 59.3985L44.5122 58.4165ZM45.2168 58.272L46.2168 58.2654L46.2085 57.0168L44.9919 57.2976L45.2168 58.272ZM45.2349 61L45.5381 61.9529L46.2397 61.7297L46.2348 60.9934L45.2349 61ZM44.187 61.2349L44.0226 60.2485L44.0067 60.2511L43.9909 60.2543L44.187 61.2349ZM38.749 59.2476L37.8602 59.7058L37.8645 59.7142L37.869 59.7225L38.749 59.2476ZM45.1445 41.4521H44.1445V44.0176H45.1445H46.1445V41.4521H45.1445ZM45.1445 44.0176V43.0176H34.5757V44.0176V45.0176H45.1445V44.0176ZM34.5757 44.0176H35.5757V41.4521H34.5757H33.5757V44.0176H34.5757ZM34.5757 41.4521V42.4521H45.1445V41.4521V40.4521H34.5757V41.4521ZM38.1528 36.7007V37.7007H41.4951V36.7007V35.7007H38.1528V36.7007ZM41.4951 36.7007H40.4951V56.1582H41.4951H42.4951V36.7007H41.4951ZM41.4951 56.1582H40.4951C40.4951 56.8933 40.6033 57.6099 40.9475 58.1767L41.8022 57.6577L42.657 57.1387C42.5917 57.0311 42.4951 56.748 42.4951 56.1582H41.4951ZM41.8022 57.6577L40.9475 58.1767C41.2555 58.6841 41.6975 59.0804 42.2809 59.2749L42.5972 58.3262L42.9134 57.3775C42.8464 57.3552 42.7585 57.3058 42.657 57.1387L41.8022 57.6577ZM42.5972 58.3262L42.2809 59.2749C42.7168 59.4201 43.1737 59.4888 43.645 59.4888V58.4888V57.4888C43.3696 57.4888 43.1279 57.449 42.9134 57.3775L42.5972 58.3262ZM43.645 58.4888V59.4888C43.9799 59.4888 44.322 59.4597 44.6702 59.4039L44.5122 58.4165L44.3542 57.4291C44.1002 57.4697 43.8641 57.4888 43.645 57.4888V58.4888ZM44.5122 58.4165L44.7011 59.3985C45.017 59.3378 45.2665 59.2868 45.4417 59.2464L45.2168 58.272L44.9919 57.2976C44.8539 57.3294 44.6337 57.3748 44.3234 57.4345L44.5122 58.4165ZM45.2168 58.272L44.2168 58.2786L44.2349 61.0066L45.2349 61L46.2348 60.9934L46.2168 58.2654L45.2168 58.272ZM45.2349 61L44.9317 60.0471C44.7303 60.1111 44.4328 60.1801 44.0226 60.2485L44.187 61.2349L44.3514 62.2213C44.8084 62.1451 45.2095 62.0575 45.5381 61.9529L45.2349 61ZM44.187 61.2349L43.9909 60.2543C43.6538 60.3217 43.2117 60.3613 42.6514 60.3613V61.3613V62.3613C43.2954 62.3613 43.8771 62.3166 44.3831 62.2154L44.187 61.2349ZM42.6514 61.3613V60.3613C41.9686 60.3613 41.3636 60.2268 40.8212 59.9698L40.3931 60.8735L39.965 61.7773C40.7956 62.1707 41.6961 62.3613 42.6514 62.3613V61.3613ZM40.3931 60.8735L40.8212 59.9698C40.3525 59.7478 39.9517 59.3704 39.629 58.7726L38.749 59.2476L37.869 59.7225C38.3654 60.6423 39.0605 61.3489 39.965 61.7773L40.3931 60.8735ZM38.749 59.2476L39.6378 58.7893C39.3409 58.2133 39.1528 57.3546 39.1528 56.1401H38.1528H37.1528C37.1528 57.5272 37.3623 58.7401 37.8602 59.7058L38.749 59.2476ZM38.1528 56.1401H39.1528V36.7007H38.1528H37.1528V56.1401H38.1528ZM52.3892 45.3364H53.3892V45.3132L53.3881 45.29L52.3892 45.3364ZM52.3892 61V62H53.3892V61H52.3892ZM49.0288 61H48.0288V62H49.0288V61ZM49.0288 41.4521V40.4521H48.0288V41.4521H49.0288ZM52.2085 41.4521L53.2074 41.4057L53.1631 40.4521H52.2085V41.4521ZM51.7026 50.4854L51.6678 51.4847L52.7026 51.5208V50.4854H51.7026ZM50.1489 50.4312L49.149 50.4221L49.1402 51.3966L50.1141 51.4305L50.1489 50.4312ZM50.6729 46.7275L51.6312 47.013L51.6321 47.0103L50.6729 46.7275ZM54.6475 41.7954L55.0679 42.7028L55.077 42.6985L54.6475 41.7954ZM60.6094 41.4883L60.2843 42.4341L60.2976 42.4384L60.6094 41.4883ZM62.6147 42.6987L61.9153 43.4134L62.6147 42.6987ZM64.4033 61V62H65.4033V61H64.4033ZM61.061 61H60.061V62H61.061V61ZM60.5371 45.6797L59.6605 46.1609L59.6641 46.1675L59.6678 46.174L60.5371 45.6797ZM59.0918 44.3428L58.6727 45.2507L58.68 45.2541L58.6873 45.2573L59.0918 44.3428ZM51.9556 47.9922L50.9804 47.7706L50.978 47.7816L51.9556 47.9922ZM64.3672 48.6426L64.6602 49.5987L65.3672 49.382V48.6426H64.3672ZM62.127 49.3291L61.127 49.3179L61.1116 50.6861L62.42 50.2852L62.127 49.3291ZM62.6509 46.2397L61.708 45.9063L61.7045 45.9166L62.6509 46.2397ZM64.1504 43.6021L63.3919 42.9503L63.3861 42.9572L64.1504 43.6021ZM66.5894 41.7773L67.0092 42.685L67.0184 42.6806L66.5894 41.7773ZM72.6777 41.5063L72.353 42.4522L72.3573 42.4536L72.6777 41.5063ZM74.7373 42.7891L74.0153 43.481L74.0227 43.4886L74.0302 43.4962L74.7373 42.7891ZM76.4536 61V62H77.4536V61H76.4536ZM73.0933 61H72.0933V62H73.0933V61ZM72.5693 45.5713L71.6928 46.0525L71.6984 46.0628L71.7043 46.073L72.5693 45.5713ZM71.124 44.2886L70.7433 45.2133L70.7541 45.2177L70.765 45.2219L71.124 44.2886ZM65.5415 45.3364L66.289 46.0009L66.2979 45.9906L65.5415 45.3364ZM64.6562 46.8359L63.7159 46.4958L63.7127 46.5047L63.7096 46.5137L64.6562 46.8359ZM52.3892 45.3364H51.3892V61H52.3892H53.3892V45.3364H52.3892ZM52.3892 61V60H49.0288V61V62H52.3892V61ZM49.0288 61H50.0288V41.4521H49.0288H48.0288V61H49.0288ZM49.0288 41.4521V42.4521H52.2085V41.4521V40.4521H49.0288V41.4521ZM52.2085 41.4521L51.2096 41.4986L51.3902 45.3829L52.3892 45.3364L53.3881 45.29L53.2074 41.4057L52.2085 41.4521ZM51.7026 50.4854L51.7375 49.486L50.1838 49.4318L50.1489 50.4312L50.1141 51.4305L51.6678 51.4847L51.7026 50.4854ZM50.1489 50.4312L51.1489 50.4402C51.1602 49.1848 51.324 48.0445 51.6312 47.013L50.6729 46.7275L49.7145 46.4421C49.3472 47.6749 49.1617 49.0037 49.149 50.4221L50.1489 50.4312ZM50.6729 46.7275L51.6321 47.0103C51.9375 45.974 52.383 45.0971 52.9587 44.3644L52.1724 43.7466L51.386 43.1288C50.6369 44.0822 50.0827 45.1926 49.7136 46.4448L50.6729 46.7275ZM52.1724 43.7466L52.9587 44.3644C53.5222 43.6472 54.2211 43.0951 55.0679 42.7027L54.6475 41.7954L54.227 40.8881C53.0986 41.411 52.1474 42.1597 51.386 43.1288L52.1724 43.7466ZM54.6475 41.7954L55.077 42.6985C55.9074 42.3035 56.9001 42.0908 58.0801 42.0908V41.0908V40.0908C56.6585 40.0908 55.3628 40.3478 54.218 40.8923L54.6475 41.7954ZM58.0801 41.0908V42.0908C58.8983 42.0908 59.6301 42.2091 60.2843 42.434L60.6094 41.4883L60.9345 40.5426C60.047 40.2375 59.0926 40.0908 58.0801 40.0908V41.0908ZM60.6094 41.4883L60.2976 42.4384C60.9265 42.6448 61.4614 42.9692 61.9153 43.4134L62.6147 42.6987L63.3142 41.9841C62.6359 41.3202 61.8339 40.8376 60.9211 40.5381L60.6094 41.4883ZM62.6147 42.6987L61.9153 43.4134C62.3575 43.8462 62.7227 44.4214 62.993 45.1702L63.9336 44.8306L64.8741 44.4909C64.5182 43.5053 64.0041 42.6593 63.3142 41.9841L62.6147 42.6987ZM63.9336 44.8306L62.993 45.1702C63.2562 45.899 63.4033 46.8252 63.4033 47.9741H64.4033H65.4033C65.4033 46.666 65.2373 45.4965 64.8741 44.4909L63.9336 44.8306ZM64.4033 47.9741H63.4033V61H64.4033H65.4033V47.9741H64.4033ZM64.4033 61V60H61.061V61V62H64.4033V61ZM61.061 61H62.061V48.1367H61.061H60.061V61H61.061ZM61.061 48.1367H62.061C62.061 47.0125 61.8713 46.003 61.4064 45.1854L60.5371 45.6797L59.6678 46.174C59.9015 46.5849 60.061 47.2134 60.061 48.1367H61.061ZM60.5371 45.6797L61.4137 45.1984C60.9735 44.3967 60.3282 43.7962 59.4963 43.4282L59.0918 44.3428L58.6873 45.2573C59.108 45.4434 59.4262 45.7342 59.6605 46.1609L60.5371 45.6797ZM59.0918 44.3428L59.5109 43.4348C58.7273 43.0732 57.844 42.9092 56.8877 42.9092V43.9092V44.9092C57.6176 44.9092 58.2037 45.0342 58.6727 45.2507L59.0918 44.3428ZM56.8877 43.9092V42.9092C55.7874 42.9092 54.7909 43.1032 53.9462 43.5485L54.4126 44.4331L54.879 45.3177C55.3592 45.0645 56.0127 44.9092 56.8877 44.9092V43.9092ZM54.4126 44.4331L53.9462 43.5485C53.1359 43.9758 52.476 44.5735 51.9832 45.3352L52.8228 45.8784L53.6623 46.4217C53.9644 45.9548 54.3644 45.589 54.879 45.3177L54.4126 44.4331ZM52.8228 45.8784L51.9832 45.3352C51.5152 46.0584 51.1841 46.8743 50.9804 47.7706L51.9556 47.9922L52.9307 48.2138C53.0883 47.5202 53.3354 46.9269 53.6623 46.4217L52.8228 45.8784ZM51.9556 47.9922L50.978 47.7816C50.7931 48.6401 50.7026 49.5422 50.7026 50.4854H51.7026H52.7026C52.7026 49.6701 52.7808 48.9101 52.9331 48.2027L51.9556 47.9922ZM64.3672 48.6426L64.0742 47.6865L61.834 48.373L62.127 49.3291L62.42 50.2852L64.6602 49.5987L64.3672 48.6426ZM62.127 49.3291L63.1269 49.3403C63.1378 48.3716 63.2952 47.4473 63.5972 46.5629L62.6509 46.2397L61.7045 45.9166C61.3321 47.0074 61.1402 48.1427 61.127 49.3179L62.127 49.3291ZM62.6509 46.2397L63.5937 46.5732C63.9043 45.6948 64.3451 44.922 64.9147 44.2469L64.1504 43.6021L63.3861 42.9572C62.6549 43.8238 62.096 44.8094 61.7081 45.9063L62.6509 46.2397ZM64.1504 43.6021L64.9088 44.2538C65.4738 43.5964 66.1696 43.0733 67.0091 42.685L66.5894 41.7773L66.1696 40.8697C65.0821 41.3727 64.1518 42.0661 63.392 42.9503L64.1504 43.6021ZM66.5894 41.7773L67.0184 42.6806C67.8277 42.2962 68.7793 42.0908 69.8955 42.0908V41.0908V40.0908C68.5306 40.0908 67.2781 40.3431 66.1603 40.8741L66.5894 41.7773ZM69.8955 41.0908V42.0908C70.8572 42.0908 71.6713 42.2181 72.353 42.4522L72.6777 41.5063L73.0024 40.5605C72.0702 40.2405 71.0296 40.0908 69.8955 40.0908V41.0908ZM72.6777 41.5063L72.3573 42.4536C73.0363 42.6833 73.5814 43.0282 74.0153 43.481L74.7373 42.7891L75.4593 42.0972C74.7851 41.3937 73.9572 40.8834 72.9981 40.5591L72.6777 41.5063ZM74.7373 42.7891L74.0302 43.4962C74.467 43.933 74.8202 44.517 75.0688 45.2836L76.02 44.9751L76.9712 44.6666C76.6417 43.6506 76.1398 42.7773 75.4444 42.082L74.7373 42.7891ZM76.02 44.9751L75.0688 45.2836C75.3173 46.0497 75.4536 47.0004 75.4536 48.1548H76.4536H77.4536C77.4536 46.8522 77.3009 45.683 76.9712 44.6666L76.02 44.9751ZM76.4536 48.1548H75.4536V61H76.4536H77.4536V48.1548H76.4536ZM76.4536 61V60H73.0933V61V62H76.4536V61ZM73.0933 61H74.0933V48.1187H73.0933H72.0933V61H73.0933ZM73.0933 48.1187H74.0933C74.0933 46.9384 73.9089 45.8878 73.4344 45.0696L72.5693 45.5713L71.7043 46.073C71.9283 46.4592 72.0933 47.1069 72.0933 48.1187H73.0933ZM72.5693 45.5713L73.4459 45.09C73.0004 44.2786 72.3402 43.6849 71.483 43.3552L71.124 44.2886L70.765 45.2219C71.1604 45.374 71.4638 45.6354 71.6928 46.0525L72.5693 45.5713ZM71.124 44.2886L71.5048 43.3639C70.7405 43.0492 69.8698 42.9092 68.9199 42.9092V43.9092V44.9092C69.6803 44.9092 70.2791 45.0221 70.7433 45.2133L71.124 44.2886ZM68.9199 43.9092V42.9092C68.0703 42.9092 67.2768 43.0557 66.5608 43.3756L66.9688 44.2886L67.3767 45.2016C67.7929 45.0156 68.3002 44.9092 68.9199 44.9092V43.9092ZM66.9688 44.2886L66.5608 43.3756C65.8682 43.685 65.2713 44.1201 64.7851 44.6823L65.5415 45.3364L66.2979 45.9906C66.5825 45.6615 66.9371 45.398 67.3767 45.2016L66.9688 44.2886ZM65.5415 45.3364L64.7941 44.6721C64.3212 45.2041 63.9621 45.815 63.7159 46.4958L64.6562 46.8359L65.5966 47.1761C65.7599 46.7248 65.991 46.336 66.2889 46.0008L65.5415 45.3364ZM64.6562 46.8359L63.7096 46.5137C63.4792 47.1903 63.3672 47.902 63.3672 48.6426H64.3672H65.3672C65.3672 48.1064 65.4478 47.6137 65.6029 47.1582L64.6562 46.8359ZM85.1436 33.25H86.1436V32.25H85.1436V33.25ZM85.1436 61V62H86.1436V61H85.1436ZM81.7832 61H80.7832V62H81.7832V61ZM81.7832 33.25V32.25H80.7832V33.25H81.7832ZM85.1436 33.25H84.1436V61H85.1436H86.1436V33.25H85.1436ZM85.1436 61V60H81.7832V61V62H85.1436V61ZM81.7832 61H82.7832V33.25H81.7832H80.7832V61H81.7832ZM81.7832 33.25V34.25H85.1436V33.25V32.25H81.7832V33.25Z" fill="black" mask="url(#path-2-outside-1_513_2508)"/>
</g>
<defs>
<clipPath id="clip0_513_2508">
<rect width="96" height="96" fill="white"/>
</clipPath>
</defs>
</svg>
