<svg width="96" height="96" viewBox="0 0 96 96" fill="none" xmlns="http://www.w3.org/2000/svg">
<g clip-path="url(#clip0_513_2511)">
<rect x="0.5" y="0.5" width="95" height="95" rx="14.5" fill="#FFAAAA" stroke="black"/>
<mask id="path-2-outside-1_513_2511" maskUnits="userSpaceOnUse" x="14" y="25" width="66" height="45" fill="black">
<rect fill="white" x="14" y="25" width="66" height="45"/>
<path d="M36.0898 55.9639V26.7656H41.5273V55.9639C41.5273 58.6826 40.9704 60.9766 39.8564 62.8457C38.7425 64.7148 37.2038 66.1403 35.2402 67.1221C33.2956 68.085 31.0583 68.5664 28.5283 68.5664C25.9984 68.5664 23.7516 68.1322 21.7881 67.2637C19.8245 66.3952 18.2858 65.0736 17.1719 63.2988C16.0579 61.5241 15.501 59.2868 15.501 56.5869H20.9668C20.9668 58.3239 21.2878 59.7493 21.9297 60.8633C22.5716 61.9772 23.459 62.7985 24.5918 63.3271C25.7435 63.8558 27.0557 64.1201 28.5283 64.1201C29.9632 64.1201 31.2471 63.818 32.3799 63.2139C33.5316 62.5908 34.4378 61.6751 35.0986 60.4668C35.7594 59.2396 36.0898 57.7386 36.0898 55.9639ZM72.7646 57.5781C72.7646 56.6152 72.6136 55.7656 72.3115 55.0293C72.0283 54.2741 71.5186 53.5944 70.7822 52.9902C70.0648 52.3861 69.0641 51.8102 67.7803 51.2627C66.5153 50.7152 64.9105 50.1582 62.9658 49.5918C60.9268 48.9876 59.0859 48.3174 57.4434 47.5811C55.8008 46.8258 54.3942 45.9668 53.2236 45.0039C52.0531 44.041 51.1562 42.9365 50.5332 41.6904C49.9102 40.4443 49.5986 39.0189 49.5986 37.4141C49.5986 35.8092 49.929 34.3271 50.5898 32.9678C51.2507 31.6084 52.1947 30.4284 53.4219 29.4277C54.668 28.4082 56.1501 27.6152 57.8682 27.0488C59.5863 26.4824 61.5026 26.1992 63.6172 26.1992C66.7135 26.1992 69.3379 26.7939 71.4902 27.9834C73.6615 29.154 75.3135 30.6927 76.4463 32.5996C77.5791 34.4876 78.1455 36.5078 78.1455 38.6602H72.708C72.708 37.112 72.3776 35.7432 71.7168 34.5537C71.056 33.3454 70.0553 32.4014 68.7148 31.7217C67.3743 31.0231 65.6751 30.6738 63.6172 30.6738C61.6725 30.6738 60.0677 30.9665 58.8027 31.5518C57.5378 32.137 56.5938 32.93 55.9707 33.9307C55.3665 34.9313 55.0645 36.0736 55.0645 37.3574C55.0645 38.2259 55.2438 39.0189 55.6025 39.7363C55.9801 40.4349 56.556 41.0863 57.3301 41.6904C58.123 42.2946 59.1237 42.8516 60.332 43.3613C61.5592 43.8711 63.0225 44.362 64.7217 44.834C67.0628 45.4948 69.083 46.2311 70.7822 47.043C72.4814 47.8548 73.8786 48.7705 74.9736 49.79C76.0876 50.7907 76.9089 51.9329 77.4375 53.2168C77.985 54.4818 78.2588 55.9167 78.2588 57.5215C78.2588 59.2018 77.9189 60.7217 77.2393 62.0811C76.5596 63.4404 75.5872 64.6016 74.3223 65.5645C73.0573 66.5273 71.5374 67.2731 69.7627 67.8018C68.0068 68.3115 66.0433 68.5664 63.8721 68.5664C61.9652 68.5664 60.0866 68.3021 58.2363 67.7734C56.4049 67.2448 54.734 66.4518 53.2236 65.3945C51.7321 64.3372 50.5332 63.0345 49.627 61.4863C48.7396 59.9193 48.2959 58.1068 48.2959 56.0488H53.7334C53.7334 57.4648 54.0072 58.6826 54.5547 59.7021C55.1022 60.7028 55.848 61.5335 56.792 62.1943C57.7549 62.8551 58.8405 63.346 60.0488 63.667C61.276 63.9691 62.5505 64.1201 63.8721 64.1201C65.779 64.1201 67.3932 63.8558 68.7148 63.3271C70.0365 62.7985 71.0371 62.0433 71.7168 61.0615C72.4154 60.0798 72.7646 58.9186 72.7646 57.5781Z"/>
</mask>
<path d="M36.0898 55.9639V26.7656H41.5273V55.9639C41.5273 58.6826 40.9704 60.9766 39.8564 62.8457C38.7425 64.7148 37.2038 66.1403 35.2402 67.1221C33.2956 68.085 31.0583 68.5664 28.5283 68.5664C25.9984 68.5664 23.7516 68.1322 21.7881 67.2637C19.8245 66.3952 18.2858 65.0736 17.1719 63.2988C16.0579 61.5241 15.501 59.2868 15.501 56.5869H20.9668C20.9668 58.3239 21.2878 59.7493 21.9297 60.8633C22.5716 61.9772 23.459 62.7985 24.5918 63.3271C25.7435 63.8558 27.0557 64.1201 28.5283 64.1201C29.9632 64.1201 31.2471 63.818 32.3799 63.2139C33.5316 62.5908 34.4378 61.6751 35.0986 60.4668C35.7594 59.2396 36.0898 57.7386 36.0898 55.9639ZM72.7646 57.5781C72.7646 56.6152 72.6136 55.7656 72.3115 55.0293C72.0283 54.2741 71.5186 53.5944 70.7822 52.9902C70.0648 52.3861 69.0641 51.8102 67.7803 51.2627C66.5153 50.7152 64.9105 50.1582 62.9658 49.5918C60.9268 48.9876 59.0859 48.3174 57.4434 47.5811C55.8008 46.8258 54.3942 45.9668 53.2236 45.0039C52.0531 44.041 51.1562 42.9365 50.5332 41.6904C49.9102 40.4443 49.5986 39.0189 49.5986 37.4141C49.5986 35.8092 49.929 34.3271 50.5898 32.9678C51.2507 31.6084 52.1947 30.4284 53.4219 29.4277C54.668 28.4082 56.1501 27.6152 57.8682 27.0488C59.5863 26.4824 61.5026 26.1992 63.6172 26.1992C66.7135 26.1992 69.3379 26.7939 71.4902 27.9834C73.6615 29.154 75.3135 30.6927 76.4463 32.5996C77.5791 34.4876 78.1455 36.5078 78.1455 38.6602H72.708C72.708 37.112 72.3776 35.7432 71.7168 34.5537C71.056 33.3454 70.0553 32.4014 68.7148 31.7217C67.3743 31.0231 65.6751 30.6738 63.6172 30.6738C61.6725 30.6738 60.0677 30.9665 58.8027 31.5518C57.5378 32.137 56.5938 32.93 55.9707 33.9307C55.3665 34.9313 55.0645 36.0736 55.0645 37.3574C55.0645 38.2259 55.2438 39.0189 55.6025 39.7363C55.9801 40.4349 56.556 41.0863 57.3301 41.6904C58.123 42.2946 59.1237 42.8516 60.332 43.3613C61.5592 43.8711 63.0225 44.362 64.7217 44.834C67.0628 45.4948 69.083 46.2311 70.7822 47.043C72.4814 47.8548 73.8786 48.7705 74.9736 49.79C76.0876 50.7907 76.9089 51.9329 77.4375 53.2168C77.985 54.4818 78.2588 55.9167 78.2588 57.5215C78.2588 59.2018 77.9189 60.7217 77.2393 62.0811C76.5596 63.4404 75.5872 64.6016 74.3223 65.5645C73.0573 66.5273 71.5374 67.2731 69.7627 67.8018C68.0068 68.3115 66.0433 68.5664 63.8721 68.5664C61.9652 68.5664 60.0866 68.3021 58.2363 67.7734C56.4049 67.2448 54.734 66.4518 53.2236 65.3945C51.7321 64.3372 50.5332 63.0345 49.627 61.4863C48.7396 59.9193 48.2959 58.1068 48.2959 56.0488H53.7334C53.7334 57.4648 54.0072 58.6826 54.5547 59.7021C55.1022 60.7028 55.848 61.5335 56.792 62.1943C57.7549 62.8551 58.8405 63.346 60.0488 63.667C61.276 63.9691 62.5505 64.1201 63.8721 64.1201C65.779 64.1201 67.3932 63.8558 68.7148 63.3271C70.0365 62.7985 71.0371 62.0433 71.7168 61.0615C72.4154 60.0798 72.7646 58.9186 72.7646 57.5781Z" fill="white"/>
<path d="M36.0898 26.7656V25.7656H35.0898V26.7656H36.0898ZM41.5273 26.7656H42.5273V25.7656H41.5273V26.7656ZM35.2402 67.1221L35.684 68.0182L35.6874 68.0165L35.2402 67.1221ZM17.1719 63.2988L16.3249 63.8304L17.1719 63.2988ZM15.501 56.5869V55.5869H14.501V56.5869H15.501ZM20.9668 56.5869H21.9668V55.5869H20.9668V56.5869ZM24.5918 63.3271L24.1689 64.2333L24.1746 64.236L24.5918 63.3271ZM32.3799 63.2139L32.8505 64.0962L32.8557 64.0934L32.3799 63.2139ZM35.0986 60.4668L35.976 60.9466L35.9791 60.9409L35.0986 60.4668ZM36.0898 55.9639H37.0898V26.7656H36.0898H35.0898V55.9639H36.0898ZM36.0898 26.7656V27.7656H41.5273V26.7656V25.7656H36.0898V26.7656ZM41.5273 26.7656H40.5273V55.9639H41.5273H42.5273V26.7656H41.5273ZM41.5273 55.9639H40.5273C40.5273 58.5469 39.9987 60.6537 38.9974 62.3338L39.8564 62.8457L40.7155 63.3576C41.9421 61.2994 42.5273 58.8183 42.5273 55.9639H41.5273ZM39.8564 62.8457L38.9974 62.3338C37.9823 64.0371 36.5872 65.3306 34.793 66.2276L35.2402 67.1221L35.6874 68.0165C37.8204 66.95 39.5027 65.3926 40.7155 63.3576L39.8564 62.8457ZM35.2402 67.1221L34.7965 66.2259C33.0109 67.11 30.9298 67.5664 28.5283 67.5664V68.5664V69.5664C31.1867 69.5664 33.5802 69.0599 35.684 68.0182L35.2402 67.1221ZM28.5283 68.5664V67.5664C26.1132 67.5664 24.0081 67.1521 22.1926 66.3491L21.7881 67.2637L21.3836 68.1782C23.4952 69.1122 25.8836 69.5664 28.5283 69.5664V68.5664ZM21.7881 67.2637L22.1926 66.3491C20.4066 65.5592 19.024 64.3687 18.0189 62.7672L17.1719 63.2988L16.3249 63.8304C17.5476 65.7785 19.2424 67.2312 21.3836 68.1782L21.7881 67.2637ZM17.1719 63.2988L18.0189 62.7672C17.03 61.1917 16.501 59.1522 16.501 56.5869H15.501H14.501C14.501 59.4214 15.0859 61.8565 16.3249 63.8304L17.1719 63.2988ZM15.501 56.5869V57.5869H20.9668V56.5869V55.5869H15.501V56.5869ZM20.9668 56.5869H19.9668C19.9668 58.44 20.3084 60.0526 21.0633 61.3626L21.9297 60.8633L22.7961 60.364C22.2672 59.4461 21.9668 58.2078 21.9668 56.5869H20.9668ZM21.9297 60.8633L21.0633 61.3626C21.8046 62.6491 22.8444 63.6152 24.1689 64.2333L24.5918 63.3271L25.0147 62.421C24.0736 61.9818 23.3386 61.3054 22.7961 60.364L21.9297 60.8633ZM24.5918 63.3271L24.1746 64.236C25.4768 64.8337 26.9349 65.1201 28.5283 65.1201V64.1201V63.1201C27.1765 63.1201 26.0102 62.8779 25.009 62.4183L24.5918 63.3271ZM28.5283 64.1201V65.1201C30.1077 65.1201 31.5565 64.7864 32.8505 64.0962L32.3799 63.2139L31.9093 62.3315C30.9377 62.8497 29.8187 63.1201 28.5283 63.1201V64.1201ZM32.3799 63.2139L32.8557 64.0934C34.186 63.3738 35.2277 62.3149 35.976 60.9466L35.0986 60.4668L34.2213 59.987C33.6479 61.0354 32.8772 61.8079 31.9041 62.3343L32.3799 63.2139ZM35.0986 60.4668L35.9791 60.9409C36.7369 59.5335 37.0898 57.8599 37.0898 55.9639H36.0898H35.0898C35.0898 57.6173 34.7819 58.9457 34.2182 59.9927L35.0986 60.4668ZM72.3115 55.0293L71.3752 55.3804L71.3806 55.3947L71.3864 55.4089L72.3115 55.0293ZM70.7822 52.9902L70.138 53.7552L70.1479 53.7633L70.7822 52.9902ZM67.7803 51.2627L67.383 52.1804L67.388 52.1825L67.7803 51.2627ZM62.9658 49.5918L62.6817 50.5506L62.6862 50.5519L62.9658 49.5918ZM57.4434 47.5811L57.0256 48.4897L57.0343 48.4936L57.4434 47.5811ZM53.4219 29.4277L54.0538 30.2028L54.0551 30.2017L53.4219 29.4277ZM71.4902 27.9834L71.0065 28.8587L71.0157 28.8636L71.4902 27.9834ZM76.4463 32.5996L75.5865 33.1103L75.5888 33.1141L76.4463 32.5996ZM78.1455 38.6602V39.6602H79.1455V38.6602H78.1455ZM72.708 38.6602H71.708V39.6602H72.708V38.6602ZM71.7168 34.5537L70.8394 35.0335L70.8426 35.0394L71.7168 34.5537ZM68.7148 31.7217L68.2527 32.6085L68.2626 32.6136L68.7148 31.7217ZM55.9707 33.9307L55.1217 33.4021L55.1146 33.4138L55.9707 33.9307ZM55.6025 39.7363L54.7081 40.1835L54.7152 40.1978L54.7228 40.2118L55.6025 39.7363ZM57.3301 41.6904L56.7148 42.4788L56.724 42.4859L57.3301 41.6904ZM60.332 43.3613L59.9433 44.2827L59.9484 44.2848L60.332 43.3613ZM64.7217 44.834L64.9933 43.8716L64.9893 43.8705L64.7217 44.834ZM74.9736 49.79L74.2922 50.5219L74.2987 50.528L74.3054 50.534L74.9736 49.79ZM77.4375 53.2168L76.5128 53.5975L76.5162 53.6058L76.5198 53.614L77.4375 53.2168ZM74.3223 65.5645L73.7166 64.7687L74.3223 65.5645ZM69.7627 67.8018L70.0415 68.7621L70.0482 68.7601L69.7627 67.8018ZM58.2363 67.7734L57.959 68.7342L57.9616 68.735L58.2363 67.7734ZM53.2236 65.3945L52.6453 66.2104L52.6502 66.2138L53.2236 65.3945ZM49.627 61.4863L48.7568 61.9791L48.7603 61.9853L48.7639 61.9915L49.627 61.4863ZM48.2959 56.0488V55.0488H47.2959V56.0488H48.2959ZM53.7334 56.0488H54.7334V55.0488H53.7334V56.0488ZM54.5547 59.7021L53.6737 60.1753L53.6774 60.1822L54.5547 59.7021ZM56.792 62.1943L56.2185 63.0136L56.2261 63.0188L56.792 62.1943ZM60.0488 63.667L59.7921 64.6335L59.8009 64.6358L59.8098 64.638L60.0488 63.667ZM71.7168 61.0615L70.9019 60.4817L70.8946 60.4923L71.7168 61.0615ZM72.7646 57.5781H73.7646C73.7646 56.5117 73.5974 55.5289 73.2367 54.6497L72.3115 55.0293L71.3864 55.4089C71.6298 56.0023 71.7646 56.7188 71.7646 57.5781H72.7646ZM72.3115 55.0293L73.2479 54.6782C72.8925 53.7306 72.2642 52.9126 71.4165 52.2172L70.7822 52.9902L70.1479 53.7633C70.773 54.2762 71.1641 54.8176 71.3752 55.3804L72.3115 55.0293ZM70.7822 52.9902L71.4264 52.2253C70.6058 51.5344 69.5077 50.9122 68.1726 50.3429L67.7803 51.2627L67.388 52.1825C68.6206 52.7082 69.5237 53.2378 70.1381 53.7551L70.7822 52.9902ZM67.7803 51.2627L68.1775 50.345C66.861 49.7752 65.2134 49.2049 63.2455 48.6317L62.9658 49.5918L62.6862 50.5519C64.6075 51.1115 66.1696 51.6552 67.3831 52.1804L67.7803 51.2627ZM62.9658 49.5918L63.2499 48.633C61.2461 48.0393 59.4479 47.3838 57.8524 46.6685L57.4434 47.5811L57.0343 48.4936C58.724 49.251 60.6074 49.936 62.6817 50.5506L62.9658 49.5918ZM57.4434 47.5811L57.8611 46.6725C56.2821 45.9465 54.9518 45.1306 53.8589 44.2316L53.2236 45.0039L52.5884 45.7762C53.8366 46.803 55.3195 47.7052 57.0256 48.4896L57.4434 47.5811ZM53.2236 45.0039L53.8589 44.2316C52.7869 43.3498 51.9827 42.3533 51.4276 41.2432L50.5332 41.6904L49.6388 42.1376C50.3298 43.5197 51.3192 44.7322 52.5884 45.7762L53.2236 45.0039ZM50.5332 41.6904L51.4276 41.2432C50.8839 40.1557 50.5986 38.8873 50.5986 37.4141H49.5986H48.5986C48.5986 39.1505 48.9365 40.733 49.6388 42.1376L50.5332 41.6904ZM49.5986 37.4141H50.5986C50.5986 35.9511 50.8987 34.6198 51.4892 33.405L50.5898 32.9678L49.6905 32.5306C48.9594 34.0345 48.5986 35.6673 48.5986 37.4141H49.5986ZM50.5898 32.9678L51.4892 33.405C52.0835 32.1825 52.9337 31.116 54.0538 30.2028L53.4219 29.4277L52.7899 28.6527C51.4556 29.7407 50.4178 31.0343 49.6905 32.5306L50.5898 32.9678ZM53.4219 29.4277L54.0551 30.2017C55.1952 29.2689 56.5654 28.5312 58.1813 27.9985L57.8682 27.0488L57.5551 26.0991C55.7347 26.6992 54.1408 27.5475 52.7886 28.6538L53.4219 29.4277ZM57.8682 27.0488L58.1813 27.9985C59.7829 27.4705 61.5914 27.1992 63.6172 27.1992V26.1992V25.1992C61.4138 25.1992 59.3896 25.4943 57.5551 26.0991L57.8682 27.0488ZM63.6172 26.1992V27.1992C66.5874 27.1992 69.0359 27.7696 71.0065 28.8586L71.4902 27.9834L71.9739 27.1082C69.6399 25.8183 66.8397 25.1992 63.6172 25.1992V26.1992ZM71.4902 27.9834L71.0157 28.8636C73.0458 29.9581 74.5564 31.3762 75.5866 33.1103L76.4463 32.5996L77.306 32.0889C76.0706 30.0092 74.2771 28.3498 71.9648 27.1032L71.4902 27.9834ZM76.4463 32.5996L75.5888 33.1141C76.6306 34.8505 77.1455 36.6934 77.1455 38.6602H78.1455H79.1455C79.1455 36.3222 78.5276 34.1248 77.3038 32.0851L76.4463 32.5996ZM78.1455 38.6602V37.6602H72.708V38.6602V39.6602H78.1455V38.6602ZM72.708 38.6602H73.708C73.708 36.9658 73.3451 35.4255 72.591 34.0681L71.7168 34.5537L70.8426 35.0394C71.4101 36.0608 71.708 37.2582 71.708 38.6602H72.708ZM71.7168 34.5537L72.5942 34.0739C71.8276 32.6722 70.6704 31.592 69.1671 30.8298L68.7148 31.7217L68.2626 32.6136C69.4403 33.2107 70.2843 34.0185 70.8394 35.0335L71.7168 34.5537ZM68.7148 31.7217L69.177 30.8349C67.6517 30.04 65.7807 29.6738 63.6172 29.6738V30.6738V31.6738C65.5696 31.6738 67.097 32.0062 68.2527 32.6085L68.7148 31.7217ZM63.6172 30.6738V29.6738C61.5811 29.6738 59.8207 29.9789 58.3828 30.6442L58.8027 31.5518L59.2227 32.4593C60.3147 31.954 61.7639 31.6738 63.6172 31.6738V30.6738ZM58.8027 31.5518L58.3828 30.6442C56.9738 31.2961 55.8655 32.2078 55.1218 33.4021L55.9707 33.9307L56.8196 34.4592C57.322 33.6523 58.1017 32.978 59.2227 32.4593L58.8027 31.5518ZM55.9707 33.9307L55.1146 33.4138C54.4072 34.5855 54.0645 35.9099 54.0645 37.3574H55.0645H56.0645C56.0645 36.2373 56.3259 35.2771 56.8268 34.4475L55.9707 33.9307ZM55.0645 37.3574H54.0645C54.0645 38.3681 54.2743 39.316 54.7081 40.1835L55.6025 39.7363L56.497 39.2891C56.2133 38.7218 56.0645 38.0838 56.0645 37.3574H55.0645ZM55.6025 39.7363L54.7228 40.2118C55.1796 41.0569 55.857 41.8092 56.7148 42.4787L57.3301 41.6904L57.9453 40.9021C57.255 40.3633 56.7807 39.8129 56.4822 39.2608L55.6025 39.7363ZM57.3301 41.6904L56.724 42.4859C57.6011 43.1541 58.6804 43.7499 59.9433 44.2827L60.332 43.3613L60.7207 42.44C59.567 41.9532 58.645 41.4351 57.9361 40.895L57.3301 41.6904ZM60.332 43.3613L59.9484 44.2848C61.2233 44.8144 62.7273 45.3178 64.454 45.7975L64.7217 44.834L64.9893 43.8705C63.3176 43.4061 61.8951 42.9278 60.7156 42.4378L60.332 43.3613ZM64.7217 44.834L64.45 45.7964C66.7513 46.4459 68.7156 47.1638 70.3511 47.9453L70.7822 47.043L71.2133 46.1407C69.4505 45.2984 67.3743 44.5436 64.9933 43.8716L64.7217 44.834ZM70.7822 47.043L70.3511 47.9453C71.9813 48.7241 73.2878 49.5868 74.2922 50.5219L74.9736 49.79L75.6551 49.0581C74.4694 47.9542 72.9816 46.9855 71.2133 46.1407L70.7822 47.043ZM74.9736 49.79L74.3054 50.534C75.3166 51.4423 76.0457 52.4631 76.5128 53.5975L77.4375 53.2168L78.3622 52.836C77.772 51.4028 76.8585 50.139 75.6419 49.0461L74.9736 49.79ZM77.4375 53.2168L76.5198 53.614C77.0048 54.7347 77.2588 56.0311 77.2588 57.5215H78.2588H79.2588C79.2588 55.8022 78.9652 54.2288 78.3552 52.8196L77.4375 53.2168ZM78.2588 57.5215H77.2588C77.2588 59.0632 76.948 60.4275 76.3448 61.6338L77.2393 62.0811L78.1337 62.5283C78.8899 61.0159 79.2588 59.3404 79.2588 57.5215H78.2588ZM77.2393 62.0811L76.3448 61.6338C75.7367 62.8502 74.8657 63.8941 73.7166 64.7687L74.3223 65.5645L74.928 66.3602C76.3088 65.3091 77.3825 64.0307 78.1337 62.5283L77.2393 62.0811ZM74.3223 65.5645L73.7166 64.7687C72.5621 65.6476 71.155 66.3436 69.4772 66.8434L69.7627 67.8018L70.0482 68.7601C71.9199 68.2026 73.5525 67.4071 74.928 66.3602L74.3223 65.5645ZM69.7627 67.8018L69.4839 66.8414C67.8337 67.3205 65.9661 67.5664 63.8721 67.5664V68.5664V69.5664C66.1205 69.5664 68.18 69.3026 70.0415 68.7621L69.7627 67.8018ZM63.8721 68.5664V67.5664C62.0589 67.5664 60.2728 67.3153 58.511 66.8119L58.2363 67.7734L57.9616 68.735C59.9004 69.2889 61.8714 69.5664 63.8721 69.5664V68.5664ZM58.2363 67.7734L58.5137 66.8127C56.7845 66.3135 55.2142 65.5673 53.7971 64.5753L53.2236 65.3945L52.6502 66.2138C54.2539 67.3364 56.0254 68.1761 57.959 68.7342L58.2363 67.7734ZM53.2236 65.3945L53.8019 64.5787C52.424 63.6019 51.3231 62.4043 50.49 60.9811L49.627 61.4863L48.7639 61.9915C49.7434 63.6647 51.0402 65.0725 52.6453 66.2104L53.2236 65.3945ZM49.627 61.4863L50.4971 60.9936C49.7064 59.5972 49.2959 57.9591 49.2959 56.0488H48.2959H47.2959C47.2959 58.2545 47.7728 60.2414 48.7568 61.9791L49.627 61.4863ZM48.2959 56.0488V57.0488H53.7334V56.0488V55.0488H48.2959V56.0488ZM53.7334 56.0488H52.7334C52.7334 57.5934 53.0324 58.9812 53.6737 60.1753L54.5547 59.7021L55.4357 59.229C54.9819 58.384 54.7334 57.3362 54.7334 56.0488H53.7334ZM54.5547 59.7021L53.6774 60.1822C54.2996 61.3192 55.1498 62.2655 56.2185 63.0136L56.792 62.1943L57.3655 61.3751C56.5461 60.8016 55.9049 60.0864 55.4319 59.2221L54.5547 59.7021ZM56.792 62.1943L56.2261 63.0188C57.2897 63.7487 58.4812 64.2853 59.7921 64.6335L60.0488 63.667L60.3056 62.7005C59.1998 62.4068 58.2201 61.9616 57.3578 61.3698L56.792 62.1943ZM60.0488 63.667L59.8098 64.638C61.1187 64.9602 62.4736 65.1201 63.8721 65.1201V64.1201V63.1201C62.6273 63.1201 61.4334 62.9779 60.2878 62.696L60.0488 63.667ZM63.8721 64.1201V65.1201C65.8655 65.1201 67.6138 64.8446 69.0862 64.2556L68.7148 63.3271L68.3435 62.3987C67.1726 62.867 65.6925 63.1201 63.8721 63.1201V64.1201ZM68.7148 63.3271L69.0862 64.2556C70.5545 63.6683 71.7276 62.8028 72.539 61.6307L71.7168 61.0615L70.8946 60.4923C70.3466 61.2838 69.5184 61.9287 68.3435 62.3987L68.7148 63.3271ZM71.7168 61.0615L72.5316 61.6413C73.3641 60.4713 73.7646 59.102 73.7646 57.5781H72.7646H71.7646C71.7646 58.7353 71.4667 59.6882 70.902 60.4818L71.7168 61.0615Z" fill="black" mask="url(#path-2-outside-1_513_2511)"/>
</g>
<defs>
<clipPath id="clip0_513_2511">
<rect width="96" height="96" fill="white"/>
</clipPath>
</defs>
</svg>
