<svg width="429" height="201" viewBox="0 0 429 201" fill="none" xmlns="http://www.w3.org/2000/svg">
<g clip-path="url(#clip0_481_2213)">
<mask id="path-1-outside-1_481_2213" maskUnits="userSpaceOnUse" x="8" y="0.999992" width="419" height="198" fill="black">
<rect fill="white" x="8" y="0.999992" width="419" height="198"/>
<path d="M57 198H56.6C34.6 198 10.6 192 9.4 169.2C9 156 19 142 33.4 142C42.6 142 49.4 147.6 48.6 155.6C47.8 162 43.8 166 39.8 169.2C36.2 172.8 33 174.8 32.2 179.2C30.6 187.2 41 193.2 61 193.2C95.4 193.2 149.4 168.4 191.4 137.2C228.2 110.4 263.4 74.4 303 37.6C283.8 34 258.6 31.2 223.8 31.2C180.2 31.2 138.2 47.6 130.6 83.6C127.4 99.6 132.2 119.6 157.8 128.4C161 129.6 163 129.2 162.6 130.4C162.2 131.6 159.4 132 155 130.8C131.8 124 119.8 103.6 121.8 82.4C125.8 45.2 162.2 20.8 224.6 23.2C257.8 24.4 288.6 30.8 306.6 33.6C308.6 31.6 311.4 28.8 314.2 26.4C317.8 23.2 323 18.8 327 19.2C333 20 332.2 23.2 326.6 29.6C324.6 32 323 33.6 321 36C331 37.6 342.6 38.4 350.2 38C361 37.6 377.4 36.4 391.4 30.8C405 25.2 413.4 18.8 418.2 12.4C423.4 5.99998 420.6 3.59998 422.6 2.79998C425.4 1.99999 425.8 8.39998 423.8 12.8C421.4 18 417.8 23.6 408.6 32.8C389.4 52.8 360.6 84 341.8 107.6C321 133.6 299.4 162 299 176.8C299 180 301 182 304.2 182C310.6 182 321.8 176 334.6 165.6C342.6 159.2 349.4 153.2 353.8 149.2C355.8 147.6 357.4 146 358.6 147.2C359.4 148.4 357.8 150 355 152.8C349.8 157.6 342.6 164 332.6 172C324.6 178.4 311 187.6 299.8 188C289.8 188.4 282.2 184.8 281.8 173.2C281.4 158.8 294.2 140 311.4 118C327.4 97.2 357.4 64.4 377.8 47.2H377.4C350.6 67.2 323.4 89.6 297 112.4C266.6 138.8 243.4 159.6 220.6 181.2C215.8 185.6 213.8 188.8 210.2 186.4C207 183.6 209 178.8 211.4 175.6C234.6 143.2 274.6 76 296.2 49.2H295.8C281 63.6 229 115.2 193.4 141.2C153.8 170.8 98.6 198 57 198ZM250.2 147.6C265.8 133.6 297.8 105.6 325.4 83.2C347.4 65.2 366.6 50.4 387.4 36V35.6C375.8 40 361 41.6 349 42C339.8 42 328.2 41.2 318.2 40C298.6 68 269.8 121.6 250.2 147.6Z"/>
</mask>
<path d="M57 198H56.6C34.6 198 10.6 192 9.4 169.2C9 156 19 142 33.4 142C42.6 142 49.4 147.6 48.6 155.6C47.8 162 43.8 166 39.8 169.2C36.2 172.8 33 174.8 32.2 179.2C30.6 187.2 41 193.2 61 193.2C95.4 193.2 149.4 168.4 191.4 137.2C228.2 110.4 263.4 74.4 303 37.6C283.8 34 258.6 31.2 223.8 31.2C180.2 31.2 138.2 47.6 130.6 83.6C127.4 99.6 132.2 119.6 157.8 128.4C161 129.6 163 129.2 162.6 130.4C162.2 131.6 159.4 132 155 130.8C131.8 124 119.8 103.6 121.8 82.4C125.8 45.2 162.2 20.8 224.6 23.2C257.8 24.4 288.6 30.8 306.6 33.6C308.6 31.6 311.4 28.8 314.2 26.4C317.8 23.2 323 18.8 327 19.2C333 20 332.2 23.2 326.6 29.6C324.6 32 323 33.6 321 36C331 37.6 342.6 38.4 350.2 38C361 37.6 377.4 36.4 391.4 30.8C405 25.2 413.4 18.8 418.2 12.4C423.4 5.99998 420.6 3.59998 422.6 2.79998C425.4 1.99999 425.8 8.39998 423.8 12.8C421.4 18 417.8 23.6 408.6 32.8C389.4 52.8 360.6 84 341.8 107.6C321 133.6 299.4 162 299 176.8C299 180 301 182 304.2 182C310.6 182 321.8 176 334.6 165.6C342.6 159.2 349.4 153.2 353.8 149.2C355.8 147.6 357.4 146 358.6 147.2C359.4 148.4 357.8 150 355 152.8C349.8 157.6 342.6 164 332.6 172C324.6 178.4 311 187.6 299.8 188C289.8 188.4 282.2 184.8 281.8 173.2C281.4 158.8 294.2 140 311.4 118C327.4 97.2 357.4 64.4 377.8 47.2H377.4C350.6 67.2 323.4 89.6 297 112.4C266.6 138.8 243.4 159.6 220.6 181.2C215.8 185.6 213.8 188.8 210.2 186.4C207 183.6 209 178.8 211.4 175.6C234.6 143.2 274.6 76 296.2 49.2H295.8C281 63.6 229 115.2 193.4 141.2C153.8 170.8 98.6 198 57 198ZM250.2 147.6C265.8 133.6 297.8 105.6 325.4 83.2C347.4 65.2 366.6 50.4 387.4 36V35.6C375.8 40 361 41.6 349 42C339.8 42 328.2 41.2 318.2 40C298.6 68 269.8 121.6 250.2 147.6Z" fill="#B4C372"/>
<path d="M9.4 169.2L8.40046 169.23L8.4008 169.241L8.40138 169.253L9.4 169.2ZM48.6 155.6L49.5923 155.724L49.5938 155.712L49.595 155.699L48.6 155.6ZM39.8 169.2L39.1753 168.419L39.1321 168.454L39.0929 168.493L39.8 169.2ZM32.2 179.2L33.1806 179.396L33.1823 179.387L33.1839 179.379L32.2 179.2ZM191.4 137.2L190.811 136.392L190.804 136.397L191.4 137.2ZM303 37.6L303.681 38.3325L305.133 36.9826L303.184 36.6171L303 37.6ZM130.6 83.6L129.622 83.3934L129.619 83.4039L130.6 83.6ZM157.8 128.4L158.151 127.464L158.138 127.459L158.125 127.454L157.8 128.4ZM162.6 130.4L161.651 130.084L161.651 130.084L162.6 130.4ZM155 130.8L154.719 131.76L154.728 131.762L154.737 131.765L155 130.8ZM121.8 82.4L120.806 82.2931L120.804 82.3061L121.8 82.4ZM224.6 23.2L224.562 24.1993L224.564 24.1993L224.6 23.2ZM306.6 33.6L306.446 34.5881L306.948 34.6662L307.307 34.3071L306.6 33.6ZM314.2 26.4L314.851 27.1592L314.858 27.1534L314.864 27.1474L314.2 26.4ZM327 19.2L327.132 18.2088L327.116 18.2066L327.1 18.2049L327 19.2ZM326.6 29.6L325.847 28.9415L325.839 28.9505L325.832 28.9598L326.6 29.6ZM321 36L320.232 35.3598L319.107 36.7098L320.842 36.9874L321 36ZM350.2 38L350.163 37.0007L350.155 37.001L350.147 37.0014L350.2 38ZM391.4 30.8L391.771 31.7285L391.781 31.7247L391.4 30.8ZM418.2 12.4L417.424 11.7694L417.412 11.7845L417.4 11.8L418.2 12.4ZM422.6 2.79998L422.325 1.83845L422.276 1.85251L422.229 1.8715L422.6 2.79998ZM423.8 12.8L424.708 13.219L424.71 13.2138L423.8 12.8ZM408.6 32.8L407.893 32.0929L407.886 32.1001L407.879 32.1075L408.6 32.8ZM341.8 107.6L342.581 108.225L342.582 108.223L341.8 107.6ZM299 176.8L298 176.773L298 176.786V176.8H299ZM334.6 165.6L333.975 164.819L333.969 164.824L334.6 165.6ZM353.8 149.2L353.175 148.419L353.151 148.439L353.127 148.46L353.8 149.2ZM358.6 147.2L359.432 146.645L359.377 146.563L359.307 146.493L358.6 147.2ZM355 152.8L355.678 153.535L355.693 153.521L355.707 153.507L355 152.8ZM332.6 172L333.225 172.781L333.225 172.781L332.6 172ZM299.8 188L299.764 187.001L299.76 187.001L299.8 188ZM281.8 173.2L280.8 173.228L280.801 173.234L281.8 173.2ZM311.4 118L312.188 118.616L312.193 118.61L311.4 118ZM377.8 47.2L378.445 47.9645L380.537 46.2H377.8V47.2ZM377.4 47.2V46.2H377.068L376.802 46.3986L377.4 47.2ZM297 112.4L296.346 111.643L296.344 111.645L297 112.4ZM220.6 181.2L221.276 181.937L221.282 181.932L221.288 181.926L220.6 181.2ZM210.2 186.4L209.541 187.153L209.591 187.196L209.645 187.232L210.2 186.4ZM211.4 175.6L212.2 176.2L212.207 176.191L212.213 176.182L211.4 175.6ZM296.2 49.2L296.979 49.8275L298.29 48.2H296.2V49.2ZM295.8 49.2V48.2H295.394L295.103 48.4833L295.8 49.2ZM193.4 141.2L192.81 140.392L192.801 140.399L193.4 141.2ZM250.2 147.6L249.401 146.998L250.868 148.344L250.2 147.6ZM325.4 83.2L326.03 83.9765L326.033 83.9739L325.4 83.2ZM387.4 36L387.969 36.8222L388.4 36.5239V36H387.4ZM387.4 35.6H388.4V34.1512L387.045 34.665L387.4 35.6ZM349 42V43H349.017L349.033 42.9994L349 42ZM318.2 40L318.319 39.0071L317.724 38.9357L317.381 39.4265L318.2 40ZM57 198V197H56.6V198V199H57V198ZM56.6 198V197C45.6636 197 34.3404 195.504 25.6391 191.252C16.9957 187.027 10.9758 180.113 10.3986 169.147L9.4 169.2L8.40138 169.253C9.02422 181.086 15.6043 188.573 24.7609 193.048C33.8596 197.496 45.5364 199 56.6 199V198ZM9.4 169.2L10.3995 169.17C10.0118 156.374 19.7118 143 33.4 143V142V141C18.2882 141 7.98821 155.626 8.40046 169.23L9.4 169.2ZM33.4 142V143C37.8059 143 41.5576 144.341 44.0925 146.553C46.6079 148.749 47.9715 151.835 47.605 155.5L48.6 155.6L49.595 155.699C50.0285 151.365 48.3921 147.651 45.4075 145.047C42.4424 142.459 38.1941 141 33.4 141V142ZM48.6 155.6L47.6077 155.476C46.8581 161.473 43.1243 165.26 39.1753 168.419L39.8 169.2L40.4247 169.981C44.4757 166.74 48.7419 162.527 49.5923 155.724L48.6 155.6ZM39.8 169.2L39.0929 168.493C38.209 169.377 37.3519 170.16 36.5247 170.931C35.7055 171.694 34.9141 172.445 34.2067 173.231C32.7739 174.823 31.6588 176.586 31.2161 179.021L32.2 179.2L33.1839 179.379C33.5412 177.414 34.4261 175.977 35.6933 174.569C36.3359 173.855 37.0695 173.156 37.8878 172.394C38.6981 171.64 39.591 170.823 40.5071 169.907L39.8 169.2ZM32.2 179.2L31.2194 179.004C30.7695 181.254 31.1664 183.39 32.3663 185.295C33.5528 187.18 35.4897 188.787 38.0455 190.091C43.1459 192.693 50.9263 194.2 61 194.2V193.2V192.2C51.0737 192.2 43.6541 190.707 38.9545 188.309C36.6103 187.113 34.9972 185.72 34.0587 184.23C33.1336 182.76 32.8305 181.146 33.1806 179.396L32.2 179.2ZM61 193.2V194.2C78.4021 194.2 100.651 187.938 123.751 177.816C146.873 167.684 170.938 153.646 191.996 138.003L191.4 137.2L190.804 136.397C169.862 151.954 145.927 165.915 122.949 175.984C99.9493 186.062 77.9979 192.2 61 192.2V193.2ZM191.4 137.2L191.989 138.008C228.853 111.162 264.133 75.0837 303.681 38.3325L303 37.6L302.319 36.8675C262.667 73.7163 227.547 109.638 190.811 136.392L191.4 137.2ZM303 37.6L303.184 36.6171C283.917 33.0046 258.655 30.2 223.8 30.2V31.2V32.2C258.545 32.2 283.683 34.9954 302.816 38.5829L303 37.6ZM223.8 31.2V30.2C201.889 30.2 180.324 34.3186 163.246 43.0087C146.157 51.7053 133.5 65.0198 129.622 83.3934L130.6 83.6L131.578 83.8065C135.3 66.1801 147.443 53.2947 164.154 44.7912C180.876 36.2813 202.111 32.2 223.8 32.2V31.2ZM130.6 83.6L129.619 83.4039C127.987 91.5663 128.384 100.801 132.503 109.143C136.634 117.508 144.457 124.871 157.475 129.346L157.8 128.4L158.125 127.454C145.543 123.129 138.166 116.092 134.297 108.257C130.416 100.399 130.013 91.6337 131.581 83.7961L130.6 83.6ZM157.8 128.4L157.449 129.336C159.129 129.966 160.548 130.192 161.321 130.373C161.778 130.481 161.858 130.542 161.831 130.52C161.778 130.476 161.694 130.376 161.662 130.227C161.635 130.101 161.667 130.036 161.651 130.084L162.6 130.4L163.549 130.716C163.633 130.464 163.69 130.149 163.618 129.81C163.541 129.449 163.341 129.174 163.106 128.98C162.717 128.658 162.172 128.519 161.779 128.427C160.852 128.208 159.671 128.034 158.151 127.464L157.8 128.4ZM162.6 130.4L161.651 130.084C161.664 130.046 161.662 130.124 161.427 130.237C161.19 130.352 160.799 130.459 160.223 130.503C159.076 130.591 157.397 130.417 155.263 129.835L155 130.8L154.737 131.765C157.003 132.383 158.924 132.609 160.377 132.497C161.101 132.441 161.76 132.298 162.298 132.038C162.838 131.776 163.336 131.354 163.549 130.716L162.6 130.4ZM155 130.8L155.281 129.84C132.565 123.182 120.838 103.242 122.796 82.4939L121.8 82.4L120.804 82.3061C118.762 103.958 131.035 124.818 154.719 131.76L155 130.8ZM121.8 82.4L122.794 82.5069C124.758 64.2416 134.663 49.1085 151.815 38.8073C168.996 28.4886 193.485 23.004 224.562 24.1993L224.6 23.2L224.638 22.2007C193.315 20.996 168.404 26.5113 150.785 37.0927C133.137 47.6915 122.842 63.3584 120.806 82.2931L121.8 82.4ZM224.6 23.2L224.564 24.1993C257.686 25.3965 288.385 31.7786 306.446 34.5881L306.6 33.6L306.754 32.6119C288.815 29.8214 257.914 23.4035 224.636 22.2006L224.6 23.2ZM306.6 33.6L307.307 34.3071C309.311 32.3031 312.085 29.5303 314.851 27.1592L314.2 26.4L313.549 25.6407C310.715 28.0697 307.889 30.8968 305.893 32.8929L306.6 33.6ZM314.2 26.4L314.864 27.1474C316.664 25.5477 318.813 23.6945 320.992 22.2906C323.211 20.8603 325.261 20.031 326.9 20.195L327 19.2L327.1 18.2049C324.739 17.9689 322.189 19.1397 319.908 20.6094C317.587 22.1055 315.336 24.0523 313.536 25.6526L314.2 26.4ZM327 19.2L326.868 20.1912C328.312 20.3838 329.181 20.7047 329.655 21.0616C330.05 21.359 330.2 21.6936 330.154 22.2121C330.1 22.8217 329.766 23.6827 329.024 24.852C328.295 26.002 327.233 27.358 325.847 28.9415L326.6 29.6L327.353 30.2585C328.767 28.642 329.905 27.198 330.713 25.9229C331.509 24.6673 332.05 23.4782 332.146 22.3879C332.25 21.2064 331.825 20.1909 330.857 19.4634C329.969 18.7953 328.688 18.4162 327.132 18.2088L327 19.2ZM326.6 29.6L325.832 28.9598C324.845 30.1433 323.957 31.1303 323.057 32.131C322.157 33.1303 321.246 34.1433 320.232 35.3598L321 36L321.768 36.6402C322.755 35.4566 323.643 34.4697 324.543 33.4689C325.443 32.4697 326.354 31.4566 327.368 30.2402L326.6 29.6ZM321 36L320.842 36.9874C330.89 38.595 342.563 39.4033 350.253 38.9986L350.2 38L350.147 37.0014C342.637 37.3966 331.11 36.6049 321.158 35.0125L321 36ZM350.2 38L350.237 38.9993C361.049 38.5988 377.599 37.3973 391.771 31.7285L391.4 30.8L391.029 29.8715C377.201 35.4027 360.951 36.6011 350.163 37.0007L350.2 38ZM391.4 30.8L391.781 31.7247C405.485 26.0819 414.058 19.5898 419 13L418.2 12.4L417.4 11.8C412.742 18.0101 404.515 24.3181 391.019 29.8753L391.4 30.8ZM418.2 12.4L418.976 13.0306C421.686 9.69474 422.366 7.32404 422.591 5.63215C422.645 5.22792 422.672 4.86791 422.696 4.5868C422.722 4.28706 422.743 4.1011 422.775 3.96031C422.789 3.89628 422.803 3.85784 422.813 3.83568C422.822 3.81539 422.827 3.80889 422.828 3.80819C422.828 3.80785 422.833 3.80177 422.849 3.79004C422.868 3.77723 422.905 3.75511 422.971 3.72846L422.6 2.79998L422.229 1.8715C421.857 2.02013 421.528 2.23522 421.272 2.55114C421.02 2.86268 420.896 3.20451 420.825 3.51465C420.757 3.81136 420.728 4.13165 420.704 4.41629C420.678 4.71955 420.655 5.02205 420.609 5.36782C420.434 6.67592 419.914 8.70523 417.424 11.7694L418.2 12.4ZM422.6 2.79998L422.875 3.7615C423.044 3.71321 423.13 3.7339 423.175 3.75142C423.229 3.77242 423.322 3.82917 423.438 3.99006C423.688 4.33768 423.912 4.99483 424.005 5.94708C424.188 7.8228 423.817 10.3465 422.89 12.3862L423.8 12.8L424.71 13.2138C425.783 10.8534 426.212 7.97716 425.995 5.75288C425.888 4.65513 425.612 3.58729 425.062 2.82241C424.778 2.42705 424.396 2.08067 423.9 1.88761C423.395 1.69107 422.856 1.68675 422.325 1.83845L422.6 2.79998ZM423.8 12.8L422.892 12.3809C420.554 17.4457 417.035 22.9512 407.893 32.0929L408.6 32.8L409.307 33.5071C418.565 24.2488 422.246 18.5542 424.708 13.219L423.8 12.8ZM408.6 32.8L407.879 32.1075C388.673 52.1128 359.847 83.3397 341.018 106.977L341.8 107.6L342.582 108.223C361.353 84.6603 390.127 53.4871 409.321 33.4925L408.6 32.8ZM341.8 107.6L341.019 106.975C330.619 119.976 319.993 133.607 311.915 145.849C307.876 151.97 304.46 157.765 302.025 162.977C299.599 168.17 298.106 172.868 298 176.773L299 176.8L300 176.827C300.094 173.332 301.451 168.93 303.837 163.823C306.215 158.735 309.574 153.03 313.585 146.951C321.607 134.793 332.181 121.224 342.581 108.225L341.8 107.6ZM299 176.8H298C298 178.611 298.57 180.184 299.693 181.307C300.816 182.43 302.389 183 304.2 183V182V181C302.811 181 301.784 180.57 301.107 179.893C300.43 179.216 300 178.189 300 176.8H299ZM304.2 182V183C307.656 183 312.238 181.4 317.474 178.58C322.744 175.743 328.797 171.604 335.231 166.376L334.6 165.6L333.969 164.824C327.603 169.996 321.656 174.057 316.526 176.82C311.362 179.6 307.144 181 304.2 181V182ZM334.6 165.6L335.225 166.381C343.246 159.964 350.062 153.949 354.473 149.94L353.8 149.2L353.127 148.46C348.738 152.451 341.954 158.436 333.975 164.819L334.6 165.6ZM353.8 149.2L354.425 149.981C355.499 149.121 356.285 148.418 356.99 148.022C357.327 147.832 357.532 147.783 357.643 147.781C357.704 147.78 357.772 147.786 357.893 147.907L358.6 147.2L359.307 146.493C358.828 146.014 358.246 145.77 357.607 145.781C357.018 145.792 356.473 146.018 356.01 146.278C355.115 146.781 354.101 147.679 353.175 148.419L353.8 149.2ZM358.6 147.2L357.768 147.755C357.802 147.805 357.82 147.846 357.793 147.969C357.755 148.138 357.633 148.408 357.339 148.814C356.748 149.633 355.719 150.666 354.293 152.093L355 152.8L355.707 153.507C357.081 152.134 358.252 150.967 358.961 149.985C359.317 149.492 359.62 148.962 359.745 148.406C359.88 147.804 359.798 147.195 359.432 146.645L358.6 147.2ZM355 152.8L354.322 152.065C349.136 156.852 341.954 163.236 331.975 171.219L332.6 172L333.225 172.781C343.246 164.764 350.464 158.348 355.678 153.535L355 152.8ZM332.6 172L331.975 171.219C328.004 174.397 322.654 178.259 316.923 181.371C311.172 184.494 305.135 186.809 299.764 187.001L299.8 188L299.836 188.999C305.665 188.791 312.028 186.306 317.877 183.129C323.746 179.941 329.196 176.003 333.225 172.781L332.6 172ZM299.8 188L299.76 187.001C294.862 187.197 290.724 186.401 287.784 184.288C284.893 182.21 282.991 178.735 282.799 173.166L281.8 173.2L280.801 173.234C281.009 179.265 283.107 183.39 286.616 185.912C290.076 188.399 294.738 189.203 299.84 188.999L299.8 188ZM281.8 173.2L282.8 173.172C282.607 166.254 285.593 158.152 290.868 148.947C296.13 139.763 303.592 129.611 312.188 118.616L311.4 118L310.612 117.384C302.008 128.389 294.47 138.637 289.132 147.953C283.807 157.248 280.593 165.746 280.8 173.228L281.8 173.2ZM311.4 118L312.193 118.61C328.161 97.8511 358.112 65.1073 378.445 47.9645L377.8 47.2L377.155 46.4355C356.688 63.6926 326.639 96.5489 310.607 117.39L311.4 118ZM377.8 47.2V46.2H377.4V47.2V48.2H377.8V47.2ZM377.4 47.2L376.802 46.3986C349.977 66.4175 322.757 88.8339 296.346 111.643L297 112.4L297.654 113.157C324.043 90.3661 351.223 67.9825 377.998 48.0014L377.4 47.2ZM297 112.4L296.344 111.645C265.938 138.05 242.726 158.861 219.912 180.474L220.6 181.2L221.288 181.926C244.074 160.339 267.262 139.55 297.656 113.155L297 112.4ZM220.6 181.2L219.924 180.463C218.714 181.572 217.663 182.622 216.764 183.485C215.845 184.366 215.087 185.05 214.389 185.522C213.699 185.99 213.142 186.199 212.628 186.22C212.126 186.24 211.531 186.086 210.755 185.568L210.2 186.4L209.645 187.232C210.669 187.914 211.674 188.26 212.709 188.218C213.733 188.176 214.651 187.76 215.511 187.178C216.363 186.6 217.23 185.809 218.148 184.928C219.087 184.028 220.086 183.028 221.276 181.937L220.6 181.2ZM210.2 186.4L210.859 185.647C209.614 184.558 209.326 183.074 209.68 181.351C210.039 179.598 211.05 177.734 212.2 176.2L211.4 175.6L210.6 175C209.35 176.666 208.161 178.802 207.72 180.949C207.274 183.126 207.586 185.442 209.541 187.153L210.2 186.4ZM211.4 175.6L212.213 176.182C223.832 159.956 239.651 135.025 255.24 110.842C270.85 86.6265 286.219 63.1773 296.979 49.8275L296.2 49.2L295.421 48.5725C284.581 62.0227 269.15 85.5734 253.559 109.758C237.949 133.975 222.168 158.844 210.587 175.018L211.4 175.6ZM296.2 49.2V48.2H295.8V49.2V50.2H296.2V49.2ZM295.8 49.2L295.103 48.4833C280.275 62.9103 228.338 114.445 192.81 140.392L193.4 141.2L193.99 142.008C229.662 115.955 281.725 64.2897 296.497 49.9167L295.8 49.2ZM193.4 141.2L192.801 140.399C173.057 155.157 149.423 169.317 125.548 179.784C101.661 190.257 77.6054 197 57 197V198V199C77.9946 199 102.339 192.143 126.352 181.616C150.377 171.083 174.143 156.843 193.999 142.001L193.4 141.2ZM250.2 147.6L250.868 148.344C266.461 134.351 298.448 106.362 326.03 83.9764L325.4 83.2L324.77 82.4235C297.152 104.838 265.139 132.849 249.532 146.856L250.2 147.6ZM325.4 83.2L326.033 83.9739C348.02 65.985 367.198 51.2024 387.969 36.8222L387.4 36L386.831 35.1778C366.002 49.5975 346.78 64.415 324.767 82.426L325.4 83.2ZM387.4 36H388.4V35.6H387.4H386.4V36H387.4ZM387.4 35.6L387.045 34.665C375.601 39.0061 360.932 40.6017 348.967 41.0005L349 42L349.033 42.9994C361.068 42.5983 375.999 40.9939 387.755 36.535L387.4 35.6ZM349 42V41C339.848 41 328.288 40.2034 318.319 39.0071L318.2 40L318.081 40.9929C328.112 42.1966 339.752 43 349 43V42ZM318.2 40L317.381 39.4265C307.555 53.463 295.432 73.9027 283.343 94.0352C271.234 114.199 259.163 134.049 249.401 146.998L250.2 147.6L250.999 148.202C260.837 135.151 272.966 115.201 285.057 95.0648C297.168 74.8973 309.245 54.537 319.019 40.5734L318.2 40Z" fill="black" mask="url(#path-1-outside-1_481_2213)"/>
</g>
<defs>
<clipPath id="clip0_481_2213">
<rect width="429" height="201" fill="white"/>
</clipPath>
</defs>
</svg>
