<svg width="96" height="96" viewBox="0 0 96 96" fill="none" xmlns="http://www.w3.org/2000/svg">
<g clip-path="url(#clip0_584_2222)">
<rect x="0.5" y="0.5" width="95" height="95" rx="14.5" fill="#AAFFE8" stroke="black"/>
<mask id="path-2-outside-1_584_2222" maskUnits="userSpaceOnUse" x="5" y="22" width="85" height="56" fill="black">
<rect fill="white" x="5" y="22" width="85" height="56"/>
<path d="M29.7993 24.2266H32.082L37.9048 38.7163L43.7153 24.2266H46.0103L38.7837 42H37.0015L29.7993 24.2266ZM29.0547 24.2266H31.0688L31.3984 35.0664V42H29.0547V24.2266ZM44.7285 24.2266H46.7427V42H44.3989V35.0664L44.7285 24.2266ZM52.9927 28.792V42H50.7222V28.792H52.9927ZM50.5513 25.2886C50.5513 24.9224 50.6611 24.6131 50.8809 24.3608C51.1087 24.1086 51.4424 23.9824 51.8818 23.9824C52.3132 23.9824 52.6427 24.1086 52.8706 24.3608C53.1066 24.6131 53.2246 24.9224 53.2246 25.2886C53.2246 25.6385 53.1066 25.9396 52.8706 26.1919C52.6427 26.436 52.3132 26.5581 51.8818 26.5581C51.4424 26.5581 51.1087 26.436 50.8809 26.1919C50.6611 25.9396 50.5513 25.6385 50.5513 25.2886ZM64.9434 39.4365V23.25H67.2139V42H65.1387L64.9434 39.4365ZM56.0566 35.5425V35.2861C56.0566 34.277 56.1787 33.3615 56.4229 32.5396C56.6751 31.7095 57.0291 30.9974 57.4849 30.4033C57.9487 29.8092 58.498 29.3535 59.1328 29.0361C59.7757 28.7106 60.4919 28.5479 61.2812 28.5479C62.1113 28.5479 62.8356 28.6943 63.4541 28.9873C64.0807 29.2721 64.6097 29.6912 65.041 30.2446C65.4805 30.7899 65.8263 31.4491 66.0786 32.2222C66.3309 32.9953 66.5059 33.8701 66.6035 34.8467V35.9697C66.514 36.9382 66.339 37.8089 66.0786 38.582C65.8263 39.3551 65.4805 40.0143 65.041 40.5596C64.6097 41.1048 64.0807 41.5239 63.4541 41.8169C62.8275 42.1017 62.0951 42.2441 61.2568 42.2441C60.4837 42.2441 59.7757 42.0773 59.1328 41.7437C58.498 41.41 57.9487 40.9421 57.4849 40.3398C57.0291 39.7376 56.6751 39.0296 56.4229 38.2158C56.1787 37.3939 56.0566 36.5028 56.0566 35.5425ZM58.3271 35.2861V35.5425C58.3271 36.2017 58.3923 36.8201 58.5225 37.3979C58.6608 37.9757 58.8724 38.4844 59.1572 38.9238C59.4421 39.3633 59.8042 39.7091 60.2437 39.9614C60.6831 40.2056 61.208 40.3276 61.8184 40.3276C62.5671 40.3276 63.1815 40.1689 63.6616 39.8516C64.1499 39.5342 64.5405 39.1151 64.8335 38.5942C65.1265 38.0734 65.3543 37.5078 65.5171 36.8975V33.9556C65.4194 33.508 65.277 33.0767 65.0898 32.6616C64.9108 32.2384 64.6748 31.8641 64.3818 31.5386C64.097 31.2049 63.743 30.9404 63.3198 30.7451C62.9048 30.5498 62.4124 30.4521 61.8428 30.4521C61.2243 30.4521 60.6912 30.5824 60.2437 30.8428C59.8042 31.0951 59.4421 31.445 59.1572 31.8926C58.8724 32.332 58.6608 32.8447 58.5225 33.4307C58.3923 34.0085 58.3271 34.627 58.3271 35.2861ZM9.15723 57.792H11.4277V72.5747C11.4277 73.3804 11.2975 74.064 11.0371 74.6255C10.7848 75.187 10.4023 75.6102 9.88965 75.895C9.38509 76.188 8.74626 76.3345 7.97314 76.3345C7.76969 76.3345 7.53369 76.3141 7.26514 76.2734C6.98844 76.2327 6.75651 76.1839 6.56934 76.127L6.58154 74.3081C6.73617 74.3407 6.91113 74.3651 7.10645 74.3813C7.30176 74.4058 7.47266 74.418 7.61914 74.418C7.9528 74.418 8.23356 74.3569 8.46143 74.2349C8.68929 74.1128 8.86019 73.9175 8.97412 73.6489C9.09619 73.3804 9.15723 73.0223 9.15723 72.5747V57.792ZM8.92529 54.2886C8.92529 53.9224 9.03923 53.6131 9.26709 53.3608C9.49495 53.1086 9.82454 52.9824 10.2559 52.9824C10.6953 52.9824 11.029 53.1086 11.2568 53.3608C11.4847 53.6131 11.5986 53.9224 11.5986 54.2886C11.5986 54.6385 11.4847 54.9396 11.2568 55.1919C11.029 55.436 10.6953 55.5581 10.2559 55.5581C9.82454 55.5581 9.49495 55.436 9.26709 55.1919C9.03923 54.9396 8.92529 54.6385 8.92529 54.2886ZM14.4795 64.5425V64.2617C14.4795 63.3096 14.6178 62.4266 14.8945 61.6128C15.1712 60.7909 15.57 60.0788 16.0908 59.4766C16.6117 58.8662 17.2424 58.3942 17.9829 58.0605C18.7235 57.7188 19.5535 57.5479 20.4731 57.5479C21.4009 57.5479 22.235 57.7188 22.9756 58.0605C23.7243 58.3942 24.359 58.8662 24.8799 59.4766C25.4089 60.0788 25.8117 60.7909 26.0884 61.6128C26.3651 62.4266 26.5034 63.3096 26.5034 64.2617V64.5425C26.5034 65.4946 26.3651 66.3776 26.0884 67.1914C25.8117 68.0052 25.4089 68.7173 24.8799 69.3276C24.359 69.9299 23.7284 70.4019 22.9878 70.7437C22.2554 71.0773 21.4253 71.2441 20.4976 71.2441C19.5698 71.2441 18.7357 71.0773 17.9951 70.7437C17.2546 70.4019 16.6198 69.9299 16.0908 69.3276C15.57 68.7173 15.1712 68.0052 14.8945 67.1914C14.6178 66.3776 14.4795 65.4946 14.4795 64.5425ZM16.7378 64.2617V64.5425C16.7378 65.2017 16.8151 65.8242 16.9697 66.4102C17.1243 66.988 17.3563 67.5007 17.6655 67.9482C17.9829 68.3958 18.3776 68.7498 18.8496 69.0103C19.3216 69.2625 19.8709 69.3887 20.4976 69.3887C21.116 69.3887 21.6572 69.2625 22.1211 69.0103C22.5931 68.7498 22.9837 68.3958 23.293 67.9482C23.6022 67.5007 23.8341 66.988 23.9888 66.4102C24.1515 65.8242 24.2329 65.2017 24.2329 64.5425V64.2617C24.2329 63.6107 24.1515 62.9963 23.9888 62.4185C23.8341 61.8325 23.5981 61.3158 23.2808 60.8682C22.9715 60.4124 22.5809 60.0544 22.1089 59.7939C21.645 59.5335 21.0998 59.4033 20.4731 59.4033C19.8547 59.4033 19.3094 59.5335 18.8374 59.7939C18.3735 60.0544 17.9829 60.4124 17.6655 60.8682C17.3563 61.3158 17.1243 61.8325 16.9697 62.4185C16.8151 62.9963 16.7378 63.6107 16.7378 64.2617ZM37.4165 67.9482V57.792H39.687V71H37.5264L37.4165 67.9482ZM37.8438 65.165L38.7837 65.1406C38.7837 66.0195 38.6901 66.8333 38.5029 67.582C38.3239 68.3226 38.0309 68.9655 37.624 69.5107C37.2171 70.056 36.6841 70.4832 36.0249 70.7925C35.3657 71.0936 34.5641 71.2441 33.6201 71.2441C32.9772 71.2441 32.3872 71.1506 31.8501 70.9634C31.3211 70.7762 30.8654 70.4873 30.4829 70.0967C30.1004 69.7061 29.8034 69.1974 29.5918 68.5708C29.3883 67.9442 29.2866 67.1914 29.2866 66.3125V57.792H31.5449V66.3369C31.5449 66.931 31.61 67.4233 31.7402 67.814C31.8786 68.1965 32.0617 68.5016 32.2896 68.7295C32.5256 68.9492 32.786 69.1038 33.0708 69.1934C33.3638 69.2829 33.6649 69.3276 33.9741 69.3276C34.9344 69.3276 35.6953 69.1445 36.2568 68.7783C36.8184 68.404 37.2212 67.9035 37.4653 67.2769C37.7176 66.6421 37.8438 65.9382 37.8438 65.165ZM45.3877 59.8672V71H43.1294V57.792H45.3267L45.3877 59.8672ZM49.5137 57.7188L49.5015 59.8184C49.3143 59.7777 49.1353 59.7533 48.9644 59.7451C48.8016 59.7288 48.6144 59.7207 48.4028 59.7207C47.882 59.7207 47.4222 59.8021 47.0234 59.9648C46.6247 60.1276 46.2869 60.3555 46.0103 60.6484C45.7336 60.9414 45.5138 61.2913 45.3511 61.6982C45.1965 62.097 45.0947 62.5365 45.0459 63.0166L44.4111 63.3828C44.4111 62.5853 44.4884 61.8366 44.6431 61.1367C44.8058 60.4368 45.054 59.8184 45.3877 59.2812C45.7214 58.736 46.1445 58.3128 46.6572 58.0117C47.1781 57.7025 47.7965 57.5479 48.5127 57.5479C48.6755 57.5479 48.8626 57.5682 49.0742 57.6089C49.2858 57.6414 49.4323 57.6781 49.5137 57.7188ZM53.8594 60.6118V71H51.6011V57.792H53.7373L53.8594 60.6118ZM53.3223 63.8955L52.3823 63.8589C52.3905 62.9556 52.5247 62.1214 52.7852 61.3564C53.0456 60.5833 53.4118 59.9119 53.8838 59.3423C54.3558 58.7726 54.9173 58.3332 55.5684 58.0239C56.2275 57.7065 56.9559 57.5479 57.7534 57.5479C58.4045 57.5479 58.9904 57.6374 59.5112 57.8164C60.0321 57.9873 60.4756 58.264 60.8418 58.6465C61.2161 59.029 61.501 59.5254 61.6963 60.1357C61.8916 60.738 61.9893 61.4744 61.9893 62.3452V71H59.7188V62.3208C59.7188 61.6291 59.617 61.0757 59.4136 60.6606C59.2101 60.2375 58.9131 59.9323 58.5225 59.7451C58.1318 59.5498 57.6517 59.4521 57.082 59.4521C56.5205 59.4521 56.0078 59.5701 55.5439 59.8062C55.0882 60.0422 54.6935 60.3677 54.3599 60.7827C54.0343 61.1978 53.778 61.6738 53.5908 62.2109C53.4118 62.7399 53.3223 63.3014 53.3223 63.8955ZM70.9004 71.2441C69.9808 71.2441 69.1466 71.0895 68.3979 70.7803C67.6574 70.4629 67.0186 70.0194 66.4814 69.4497C65.9525 68.88 65.5456 68.2046 65.2607 67.4233C64.9759 66.6421 64.8335 65.7876 64.8335 64.8599V64.3472C64.8335 63.2729 64.9922 62.3167 65.3096 61.4785C65.627 60.6322 66.0583 59.916 66.6035 59.3301C67.1488 58.7441 67.7673 58.3006 68.459 57.9995C69.1507 57.6984 69.8669 57.5479 70.6074 57.5479C71.5514 57.5479 72.3652 57.7106 73.0488 58.0361C73.7406 58.3617 74.3062 58.8174 74.7456 59.4033C75.1851 59.9811 75.5106 60.6647 75.7222 61.4541C75.9338 62.2354 76.0396 63.0898 76.0396 64.0176V65.0308H66.1763V63.1875H73.7812V63.0166C73.7487 62.4307 73.6266 61.861 73.415 61.3076C73.2116 60.7542 72.8861 60.2985 72.4385 59.9404C71.9909 59.5824 71.3805 59.4033 70.6074 59.4033C70.0947 59.4033 69.6227 59.5132 69.1914 59.7329C68.7601 59.9445 68.3898 60.2619 68.0806 60.6851C67.7713 61.1082 67.5312 61.625 67.3604 62.2354C67.1895 62.8457 67.104 63.5496 67.104 64.3472V64.8599C67.104 65.4865 67.1895 66.0765 67.3604 66.6299C67.5394 67.1751 67.7957 67.6553 68.1294 68.0703C68.4712 68.4854 68.8822 68.8109 69.3623 69.0469C69.8506 69.2829 70.404 69.4009 71.0225 69.4009C71.82 69.4009 72.4954 69.2381 73.0488 68.9126C73.6022 68.5871 74.0864 68.1517 74.5015 67.6064L75.8687 68.6929C75.5838 69.1242 75.2217 69.5352 74.7822 69.9258C74.3428 70.3164 73.8016 70.6338 73.1587 70.8779C72.5239 71.1221 71.7712 71.2441 70.9004 71.2441ZM82.2163 69.6328L85.8906 57.792H88.3076L83.0098 73.0386C82.8877 73.3641 82.7249 73.714 82.5215 74.0884C82.3262 74.4709 82.0739 74.833 81.7646 75.1748C81.4554 75.5166 81.0811 75.7933 80.6416 76.0049C80.2103 76.2246 79.6935 76.3345 79.0913 76.3345C78.9123 76.3345 78.6844 76.3101 78.4077 76.2612C78.131 76.2124 77.9357 76.1717 77.8218 76.1392L77.8096 74.3081C77.8747 74.3162 77.9764 74.3244 78.1147 74.3325C78.2612 74.3488 78.363 74.3569 78.4199 74.3569C78.9326 74.3569 79.368 74.2878 79.7261 74.1494C80.0841 74.0192 80.3853 73.7954 80.6294 73.478C80.8817 73.1688 81.0973 72.7415 81.2764 72.1963L82.2163 69.6328ZM79.5186 57.792L82.9487 68.0459L83.5347 70.4263L81.9111 71.2563L77.0527 57.792H79.5186Z"/>
</mask>
<path d="M29.7993 24.2266H32.082L37.9048 38.7163L43.7153 24.2266H46.0103L38.7837 42H37.0015L29.7993 24.2266ZM29.0547 24.2266H31.0688L31.3984 35.0664V42H29.0547V24.2266ZM44.7285 24.2266H46.7427V42H44.3989V35.0664L44.7285 24.2266ZM52.9927 28.792V42H50.7222V28.792H52.9927ZM50.5513 25.2886C50.5513 24.9224 50.6611 24.6131 50.8809 24.3608C51.1087 24.1086 51.4424 23.9824 51.8818 23.9824C52.3132 23.9824 52.6427 24.1086 52.8706 24.3608C53.1066 24.6131 53.2246 24.9224 53.2246 25.2886C53.2246 25.6385 53.1066 25.9396 52.8706 26.1919C52.6427 26.436 52.3132 26.5581 51.8818 26.5581C51.4424 26.5581 51.1087 26.436 50.8809 26.1919C50.6611 25.9396 50.5513 25.6385 50.5513 25.2886ZM64.9434 39.4365V23.25H67.2139V42H65.1387L64.9434 39.4365ZM56.0566 35.5425V35.2861C56.0566 34.277 56.1787 33.3615 56.4229 32.5396C56.6751 31.7095 57.0291 30.9974 57.4849 30.4033C57.9487 29.8092 58.498 29.3535 59.1328 29.0361C59.7757 28.7106 60.4919 28.5479 61.2812 28.5479C62.1113 28.5479 62.8356 28.6943 63.4541 28.9873C64.0807 29.2721 64.6097 29.6912 65.041 30.2446C65.4805 30.7899 65.8263 31.4491 66.0786 32.2222C66.3309 32.9953 66.5059 33.8701 66.6035 34.8467V35.9697C66.514 36.9382 66.339 37.8089 66.0786 38.582C65.8263 39.3551 65.4805 40.0143 65.041 40.5596C64.6097 41.1048 64.0807 41.5239 63.4541 41.8169C62.8275 42.1017 62.0951 42.2441 61.2568 42.2441C60.4837 42.2441 59.7757 42.0773 59.1328 41.7437C58.498 41.41 57.9487 40.9421 57.4849 40.3398C57.0291 39.7376 56.6751 39.0296 56.4229 38.2158C56.1787 37.3939 56.0566 36.5028 56.0566 35.5425ZM58.3271 35.2861V35.5425C58.3271 36.2017 58.3923 36.8201 58.5225 37.3979C58.6608 37.9757 58.8724 38.4844 59.1572 38.9238C59.4421 39.3633 59.8042 39.7091 60.2437 39.9614C60.6831 40.2056 61.208 40.3276 61.8184 40.3276C62.5671 40.3276 63.1815 40.1689 63.6616 39.8516C64.1499 39.5342 64.5405 39.1151 64.8335 38.5942C65.1265 38.0734 65.3543 37.5078 65.5171 36.8975V33.9556C65.4194 33.508 65.277 33.0767 65.0898 32.6616C64.9108 32.2384 64.6748 31.8641 64.3818 31.5386C64.097 31.2049 63.743 30.9404 63.3198 30.7451C62.9048 30.5498 62.4124 30.4521 61.8428 30.4521C61.2243 30.4521 60.6912 30.5824 60.2437 30.8428C59.8042 31.0951 59.4421 31.445 59.1572 31.8926C58.8724 32.332 58.6608 32.8447 58.5225 33.4307C58.3923 34.0085 58.3271 34.627 58.3271 35.2861ZM9.15723 57.792H11.4277V72.5747C11.4277 73.3804 11.2975 74.064 11.0371 74.6255C10.7848 75.187 10.4023 75.6102 9.88965 75.895C9.38509 76.188 8.74626 76.3345 7.97314 76.3345C7.76969 76.3345 7.53369 76.3141 7.26514 76.2734C6.98844 76.2327 6.75651 76.1839 6.56934 76.127L6.58154 74.3081C6.73617 74.3407 6.91113 74.3651 7.10645 74.3813C7.30176 74.4058 7.47266 74.418 7.61914 74.418C7.9528 74.418 8.23356 74.3569 8.46143 74.2349C8.68929 74.1128 8.86019 73.9175 8.97412 73.6489C9.09619 73.3804 9.15723 73.0223 9.15723 72.5747V57.792ZM8.92529 54.2886C8.92529 53.9224 9.03923 53.6131 9.26709 53.3608C9.49495 53.1086 9.82454 52.9824 10.2559 52.9824C10.6953 52.9824 11.029 53.1086 11.2568 53.3608C11.4847 53.6131 11.5986 53.9224 11.5986 54.2886C11.5986 54.6385 11.4847 54.9396 11.2568 55.1919C11.029 55.436 10.6953 55.5581 10.2559 55.5581C9.82454 55.5581 9.49495 55.436 9.26709 55.1919C9.03923 54.9396 8.92529 54.6385 8.92529 54.2886ZM14.4795 64.5425V64.2617C14.4795 63.3096 14.6178 62.4266 14.8945 61.6128C15.1712 60.7909 15.57 60.0788 16.0908 59.4766C16.6117 58.8662 17.2424 58.3942 17.9829 58.0605C18.7235 57.7188 19.5535 57.5479 20.4731 57.5479C21.4009 57.5479 22.235 57.7188 22.9756 58.0605C23.7243 58.3942 24.359 58.8662 24.8799 59.4766C25.4089 60.0788 25.8117 60.7909 26.0884 61.6128C26.3651 62.4266 26.5034 63.3096 26.5034 64.2617V64.5425C26.5034 65.4946 26.3651 66.3776 26.0884 67.1914C25.8117 68.0052 25.4089 68.7173 24.8799 69.3276C24.359 69.9299 23.7284 70.4019 22.9878 70.7437C22.2554 71.0773 21.4253 71.2441 20.4976 71.2441C19.5698 71.2441 18.7357 71.0773 17.9951 70.7437C17.2546 70.4019 16.6198 69.9299 16.0908 69.3276C15.57 68.7173 15.1712 68.0052 14.8945 67.1914C14.6178 66.3776 14.4795 65.4946 14.4795 64.5425ZM16.7378 64.2617V64.5425C16.7378 65.2017 16.8151 65.8242 16.9697 66.4102C17.1243 66.988 17.3563 67.5007 17.6655 67.9482C17.9829 68.3958 18.3776 68.7498 18.8496 69.0103C19.3216 69.2625 19.8709 69.3887 20.4976 69.3887C21.116 69.3887 21.6572 69.2625 22.1211 69.0103C22.5931 68.7498 22.9837 68.3958 23.293 67.9482C23.6022 67.5007 23.8341 66.988 23.9888 66.4102C24.1515 65.8242 24.2329 65.2017 24.2329 64.5425V64.2617C24.2329 63.6107 24.1515 62.9963 23.9888 62.4185C23.8341 61.8325 23.5981 61.3158 23.2808 60.8682C22.9715 60.4124 22.5809 60.0544 22.1089 59.7939C21.645 59.5335 21.0998 59.4033 20.4731 59.4033C19.8547 59.4033 19.3094 59.5335 18.8374 59.7939C18.3735 60.0544 17.9829 60.4124 17.6655 60.8682C17.3563 61.3158 17.1243 61.8325 16.9697 62.4185C16.8151 62.9963 16.7378 63.6107 16.7378 64.2617ZM37.4165 67.9482V57.792H39.687V71H37.5264L37.4165 67.9482ZM37.8438 65.165L38.7837 65.1406C38.7837 66.0195 38.6901 66.8333 38.5029 67.582C38.3239 68.3226 38.0309 68.9655 37.624 69.5107C37.2171 70.056 36.6841 70.4832 36.0249 70.7925C35.3657 71.0936 34.5641 71.2441 33.6201 71.2441C32.9772 71.2441 32.3872 71.1506 31.8501 70.9634C31.3211 70.7762 30.8654 70.4873 30.4829 70.0967C30.1004 69.7061 29.8034 69.1974 29.5918 68.5708C29.3883 67.9442 29.2866 67.1914 29.2866 66.3125V57.792H31.5449V66.3369C31.5449 66.931 31.61 67.4233 31.7402 67.814C31.8786 68.1965 32.0617 68.5016 32.2896 68.7295C32.5256 68.9492 32.786 69.1038 33.0708 69.1934C33.3638 69.2829 33.6649 69.3276 33.9741 69.3276C34.9344 69.3276 35.6953 69.1445 36.2568 68.7783C36.8184 68.404 37.2212 67.9035 37.4653 67.2769C37.7176 66.6421 37.8438 65.9382 37.8438 65.165ZM45.3877 59.8672V71H43.1294V57.792H45.3267L45.3877 59.8672ZM49.5137 57.7188L49.5015 59.8184C49.3143 59.7777 49.1353 59.7533 48.9644 59.7451C48.8016 59.7288 48.6144 59.7207 48.4028 59.7207C47.882 59.7207 47.4222 59.8021 47.0234 59.9648C46.6247 60.1276 46.2869 60.3555 46.0103 60.6484C45.7336 60.9414 45.5138 61.2913 45.3511 61.6982C45.1965 62.097 45.0947 62.5365 45.0459 63.0166L44.4111 63.3828C44.4111 62.5853 44.4884 61.8366 44.6431 61.1367C44.8058 60.4368 45.054 59.8184 45.3877 59.2812C45.7214 58.736 46.1445 58.3128 46.6572 58.0117C47.1781 57.7025 47.7965 57.5479 48.5127 57.5479C48.6755 57.5479 48.8626 57.5682 49.0742 57.6089C49.2858 57.6414 49.4323 57.6781 49.5137 57.7188ZM53.8594 60.6118V71H51.6011V57.792H53.7373L53.8594 60.6118ZM53.3223 63.8955L52.3823 63.8589C52.3905 62.9556 52.5247 62.1214 52.7852 61.3564C53.0456 60.5833 53.4118 59.9119 53.8838 59.3423C54.3558 58.7726 54.9173 58.3332 55.5684 58.0239C56.2275 57.7065 56.9559 57.5479 57.7534 57.5479C58.4045 57.5479 58.9904 57.6374 59.5112 57.8164C60.0321 57.9873 60.4756 58.264 60.8418 58.6465C61.2161 59.029 61.501 59.5254 61.6963 60.1357C61.8916 60.738 61.9893 61.4744 61.9893 62.3452V71H59.7188V62.3208C59.7188 61.6291 59.617 61.0757 59.4136 60.6606C59.2101 60.2375 58.9131 59.9323 58.5225 59.7451C58.1318 59.5498 57.6517 59.4521 57.082 59.4521C56.5205 59.4521 56.0078 59.5701 55.5439 59.8062C55.0882 60.0422 54.6935 60.3677 54.3599 60.7827C54.0343 61.1978 53.778 61.6738 53.5908 62.2109C53.4118 62.7399 53.3223 63.3014 53.3223 63.8955ZM70.9004 71.2441C69.9808 71.2441 69.1466 71.0895 68.3979 70.7803C67.6574 70.4629 67.0186 70.0194 66.4814 69.4497C65.9525 68.88 65.5456 68.2046 65.2607 67.4233C64.9759 66.6421 64.8335 65.7876 64.8335 64.8599V64.3472C64.8335 63.2729 64.9922 62.3167 65.3096 61.4785C65.627 60.6322 66.0583 59.916 66.6035 59.3301C67.1488 58.7441 67.7673 58.3006 68.459 57.9995C69.1507 57.6984 69.8669 57.5479 70.6074 57.5479C71.5514 57.5479 72.3652 57.7106 73.0488 58.0361C73.7406 58.3617 74.3062 58.8174 74.7456 59.4033C75.1851 59.9811 75.5106 60.6647 75.7222 61.4541C75.9338 62.2354 76.0396 63.0898 76.0396 64.0176V65.0308H66.1763V63.1875H73.7812V63.0166C73.7487 62.4307 73.6266 61.861 73.415 61.3076C73.2116 60.7542 72.8861 60.2985 72.4385 59.9404C71.9909 59.5824 71.3805 59.4033 70.6074 59.4033C70.0947 59.4033 69.6227 59.5132 69.1914 59.7329C68.7601 59.9445 68.3898 60.2619 68.0806 60.6851C67.7713 61.1082 67.5312 61.625 67.3604 62.2354C67.1895 62.8457 67.104 63.5496 67.104 64.3472V64.8599C67.104 65.4865 67.1895 66.0765 67.3604 66.6299C67.5394 67.1751 67.7957 67.6553 68.1294 68.0703C68.4712 68.4854 68.8822 68.8109 69.3623 69.0469C69.8506 69.2829 70.404 69.4009 71.0225 69.4009C71.82 69.4009 72.4954 69.2381 73.0488 68.9126C73.6022 68.5871 74.0864 68.1517 74.5015 67.6064L75.8687 68.6929C75.5838 69.1242 75.2217 69.5352 74.7822 69.9258C74.3428 70.3164 73.8016 70.6338 73.1587 70.8779C72.5239 71.1221 71.7712 71.2441 70.9004 71.2441ZM82.2163 69.6328L85.8906 57.792H88.3076L83.0098 73.0386C82.8877 73.3641 82.7249 73.714 82.5215 74.0884C82.3262 74.4709 82.0739 74.833 81.7646 75.1748C81.4554 75.5166 81.0811 75.7933 80.6416 76.0049C80.2103 76.2246 79.6935 76.3345 79.0913 76.3345C78.9123 76.3345 78.6844 76.3101 78.4077 76.2612C78.131 76.2124 77.9357 76.1717 77.8218 76.1392L77.8096 74.3081C77.8747 74.3162 77.9764 74.3244 78.1147 74.3325C78.2612 74.3488 78.363 74.3569 78.4199 74.3569C78.9326 74.3569 79.368 74.2878 79.7261 74.1494C80.0841 74.0192 80.3853 73.7954 80.6294 73.478C80.8817 73.1688 81.0973 72.7415 81.2764 72.1963L82.2163 69.6328ZM79.5186 57.792L82.9487 68.0459L83.5347 70.4263L81.9111 71.2563L77.0527 57.792H79.5186Z" fill="white"/>
<path d="M29.7993 24.2266V23.2266H28.3151L28.8725 24.6021L29.7993 24.2266ZM32.082 24.2266L33.0099 23.8537L32.7579 23.2266H32.082V24.2266ZM37.9048 38.7163L36.9769 39.0892L37.9058 41.4006L38.8329 39.0885L37.9048 38.7163ZM43.7153 24.2266V23.2266H43.0389L42.7872 23.8544L43.7153 24.2266ZM46.0103 24.2266L46.9366 24.6032L47.4963 23.2266H46.0103V24.2266ZM38.7837 42V43H39.4566L39.71 42.3767L38.7837 42ZM37.0015 42L36.0747 42.3756L36.3277 43H37.0015V42ZM29.0547 24.2266V23.2266H28.0547V24.2266H29.0547ZM31.0688 24.2266L32.0684 24.1962L32.0389 23.2266H31.0688V24.2266ZM31.3984 35.0664H32.3984V35.0512L32.398 35.036L31.3984 35.0664ZM31.3984 42V43H32.3984V42H31.3984ZM29.0547 42H28.0547V43H29.0547V42ZM44.7285 24.2266V23.2266H43.7585L43.729 24.1962L44.7285 24.2266ZM46.7427 24.2266H47.7427V23.2266H46.7427V24.2266ZM46.7427 42V43H47.7427V42H46.7427ZM44.3989 42H43.3989V43H44.3989V42ZM44.3989 35.0664L43.3994 35.036L43.3989 35.0512V35.0664H44.3989ZM29.7993 24.2266V25.2266H32.082V24.2266V23.2266H29.7993V24.2266ZM32.082 24.2266L31.1541 24.5994L36.9769 39.0892L37.9048 38.7163L38.8327 38.3434L33.0099 23.8537L32.082 24.2266ZM37.9048 38.7163L38.8329 39.0885L44.6435 24.5988L43.7153 24.2266L42.7872 23.8544L36.9766 38.3441L37.9048 38.7163ZM43.7153 24.2266V25.2266H46.0103V24.2266V23.2266H43.7153V24.2266ZM46.0103 24.2266L45.0839 23.8499L37.8573 41.6233L38.7837 42L39.71 42.3767L46.9366 24.6032L46.0103 24.2266ZM38.7837 42V41H37.0015V42V43H38.7837V42ZM37.0015 42L37.9283 41.6244L30.7261 23.851L29.7993 24.2266L28.8725 24.6021L36.0747 42.3756L37.0015 42ZM29.0547 24.2266V25.2266H31.0688V24.2266V23.2266H29.0547V24.2266ZM31.0688 24.2266L30.0693 24.257L30.3989 35.0968L31.3984 35.0664L32.398 35.036L32.0684 24.1962L31.0688 24.2266ZM31.3984 35.0664H30.3984V42H31.3984H32.3984V35.0664H31.3984ZM31.3984 42V41H29.0547V42V43H31.3984V42ZM29.0547 42H30.0547V24.2266H29.0547H28.0547V42H29.0547ZM44.7285 24.2266V25.2266H46.7427V24.2266V23.2266H44.7285V24.2266ZM46.7427 24.2266H45.7427V42H46.7427H47.7427V24.2266H46.7427ZM46.7427 42V41H44.3989V42V43H46.7427V42ZM44.3989 42H45.3989V35.0664H44.3989H43.3989V42H44.3989ZM44.3989 35.0664L45.3985 35.0968L45.7281 24.257L44.7285 24.2266L43.729 24.1962L43.3994 35.036L44.3989 35.0664ZM52.9927 28.792H53.9927V27.792H52.9927V28.792ZM52.9927 42V43H53.9927V42H52.9927ZM50.7222 42H49.7222V43H50.7222V42ZM50.7222 28.792V27.792H49.7222V28.792H50.7222ZM50.8809 24.3608L50.1388 23.6906L50.1327 23.6973L50.1268 23.7041L50.8809 24.3608ZM52.8706 24.3608L52.1285 25.0311L52.1344 25.0376L52.1403 25.044L52.8706 24.3608ZM52.8706 26.1919L52.1403 25.5087L52.1396 25.5096L52.8706 26.1919ZM50.8809 26.1919L50.1268 26.8487L50.1381 26.8616L50.1498 26.8742L50.8809 26.1919ZM52.9927 28.792H51.9927V42H52.9927H53.9927V28.792H52.9927ZM52.9927 42V41H50.7222V42V43H52.9927V42ZM50.7222 42H51.7222V28.792H50.7222H49.7222V42H50.7222ZM50.7222 28.792V29.792H52.9927V28.792V27.792H50.7222V28.792ZM50.5513 25.2886H51.5513C51.5513 25.1392 51.5892 25.0701 51.6349 25.0176L50.8809 24.3608L50.1268 23.7041C49.733 24.1561 49.5513 24.7056 49.5513 25.2886H50.5513ZM50.8809 24.3608L51.623 25.0311C51.625 25.0288 51.63 25.0221 51.6556 25.0124C51.6866 25.0007 51.7558 24.9824 51.8818 24.9824V23.9824V22.9824C51.2474 22.9824 50.6081 23.171 50.1388 23.6906L50.8809 24.3608ZM51.8818 23.9824V24.9824C52.0016 24.9824 52.0666 25.0001 52.0951 25.011C52.1185 25.0199 52.1243 25.0265 52.1285 25.0311L52.8706 24.3608L53.6127 23.6906C53.1469 23.1748 52.5148 22.9824 51.8818 22.9824V23.9824ZM52.8706 24.3608L52.1403 25.044C52.1919 25.0991 52.2246 25.1593 52.2246 25.2886H53.2246H54.2246C54.2246 24.6854 54.0213 24.1271 53.6009 23.6777L52.8706 24.3608ZM53.2246 25.2886H52.2246C52.2246 25.3885 52.2005 25.4444 52.1403 25.5087L52.8706 26.1919L53.6009 26.8751C54.0127 26.4349 54.2246 25.8885 54.2246 25.2886H53.2246ZM52.8706 26.1919L52.1396 25.5096C52.1375 25.5118 52.1318 25.5189 52.1052 25.5288C52.0736 25.5405 52.005 25.5581 51.8818 25.5581V26.5581V27.5581C52.505 27.5581 53.1334 27.3759 53.6017 26.8742L52.8706 26.1919ZM51.8818 26.5581V25.5581C51.7526 25.5581 51.6797 25.5399 51.6456 25.5274C51.6291 25.5214 51.6209 25.5165 51.6179 25.5145C51.6151 25.5127 51.6136 25.5114 51.6119 25.5096L50.8809 26.1919L50.1498 26.8742C50.6215 27.3796 51.2571 27.5581 51.8818 27.5581V26.5581ZM50.8809 26.1919L51.6349 25.5351C51.5816 25.4738 51.5513 25.4092 51.5513 25.2886H50.5513H49.5513C49.5513 25.8678 49.7407 26.4054 50.1268 26.8487L50.8809 26.1919ZM64.9434 39.4365H63.9434V39.4746L63.9462 39.5125L64.9434 39.4365ZM64.9434 23.25V22.25H63.9434V23.25H64.9434ZM67.2139 23.25H68.2139V22.25H67.2139V23.25ZM67.2139 42V43H68.2139V42H67.2139ZM65.1387 42L64.1416 42.076L64.212 43H65.1387V42ZM56.4229 32.5396L55.466 32.2488L55.4642 32.2548L56.4229 32.5396ZM57.4849 30.4033L56.6966 29.7879L56.6914 29.7947L57.4849 30.4033ZM59.1328 29.0361L59.58 29.9306L59.5845 29.9283L59.1328 29.0361ZM63.4541 28.9873L63.026 29.891L63.0331 29.8944L63.0403 29.8977L63.4541 28.9873ZM65.041 30.2446L64.2523 30.8594L64.2573 30.8658L64.2624 30.8722L65.041 30.2446ZM66.6035 34.8467H67.6035V34.7968L67.5986 34.7472L66.6035 34.8467ZM66.6035 35.9697L67.5993 36.0618L67.6035 36.0158V35.9697H66.6035ZM66.0786 38.582L65.1309 38.2628L65.1279 38.2718L66.0786 38.582ZM65.041 40.5596L64.2624 39.932L64.2567 39.9392L65.041 40.5596ZM63.4541 41.8169L63.8679 42.7273L63.8776 42.7228L63.4541 41.8169ZM59.1328 41.7437L58.6675 42.6288L58.6722 42.6312L59.1328 41.7437ZM57.4849 40.3398L56.6874 40.9433L56.6926 40.9501L57.4849 40.3398ZM56.4229 38.2158L55.4642 38.5006L55.4677 38.5119L56.4229 38.2158ZM58.5225 37.3979L57.5468 37.6178L57.5499 37.6308L58.5225 37.3979ZM59.1572 38.9238L59.9964 38.3799L59.1572 38.9238ZM60.2437 39.9614L59.7457 40.8288L59.758 40.8356L60.2437 39.9614ZM63.6616 39.8516L63.1166 39.0131L63.1102 39.0173L63.6616 39.8516ZM65.5171 36.8975L66.4833 37.1551L66.5171 37.0285V36.8975H65.5171ZM65.5171 33.9556H66.5171V33.8477L66.4941 33.7424L65.5171 33.9556ZM65.0898 32.6616L64.1689 33.0513L64.1734 33.062L64.1783 33.0727L65.0898 32.6616ZM64.3818 31.5386L63.6213 32.1878L63.6298 32.1978L63.6385 32.2075L64.3818 31.5386ZM63.3198 30.7451L62.894 31.65L62.9008 31.6531L63.3198 30.7451ZM60.2437 30.8428L60.7415 31.71L60.7465 31.7071L60.2437 30.8428ZM59.1572 31.8926L59.9964 32.4365L60.0009 32.4295L59.1572 31.8926ZM58.5225 33.4307L57.5492 33.2009L57.5469 33.2108L58.5225 33.4307ZM64.9434 39.4365H65.9434V23.25H64.9434H63.9434V39.4365H64.9434ZM64.9434 23.25V24.25H67.2139V23.25V22.25H64.9434V23.25ZM67.2139 23.25H66.2139V42H67.2139H68.2139V23.25H67.2139ZM67.2139 42V41H65.1387V42V43H67.2139V42ZM65.1387 42L66.1358 41.924L65.9405 39.3606L64.9434 39.4365L63.9462 39.5125L64.1416 42.076L65.1387 42ZM56.0566 35.5425H57.0566V35.2861H56.0566H55.0566V35.5425H56.0566ZM56.0566 35.2861H57.0566C57.0566 34.3569 57.1691 33.5392 57.3815 32.8243L56.4229 32.5396L55.4642 32.2548C55.1883 33.1838 55.0566 34.1972 55.0566 35.2861H56.0566ZM56.4229 32.5396L57.3796 32.8303C57.6024 32.0972 57.9063 31.4969 58.2783 31.012L57.4849 30.4033L56.6914 29.7947C56.152 30.4979 55.7478 31.3217 55.4661 32.2488L56.4229 32.5396ZM57.4849 30.4033L58.2731 31.0188C58.6512 30.5344 59.0864 30.1774 59.58 29.9306L59.1328 29.0361L58.6856 28.1417C57.9097 28.5297 57.2462 29.0841 56.6967 29.7879L57.4849 30.4033ZM59.1328 29.0361L59.5845 29.9283C60.0744 29.6802 60.6336 29.5479 61.2812 29.5479V28.5479V27.5479C60.3502 27.5479 59.477 27.741 58.6811 28.144L59.1328 29.0361ZM61.2812 28.5479V29.5479C61.9942 29.5479 62.5668 29.6735 63.026 29.891L63.4541 28.9873L63.8822 28.0836C63.1045 27.7152 62.2284 27.5479 61.2812 27.5479V28.5479ZM63.4541 28.9873L63.0403 29.8977C63.517 30.1143 63.9183 30.4308 64.2523 30.8594L65.041 30.2446L65.8297 29.6299C65.3011 28.9517 64.6445 28.4299 63.8679 28.0769L63.4541 28.9873ZM65.041 30.2446L64.2624 30.8722C64.6145 31.309 64.9073 31.8563 65.1279 32.5324L66.0786 32.2222L67.0293 31.912C66.7453 31.0418 66.3464 30.2707 65.8196 29.6171L65.041 30.2446ZM66.0786 32.2222L65.1279 32.5324C65.3539 33.2247 65.5166 34.0271 65.6085 34.9462L66.6035 34.8467L67.5986 34.7472C67.4952 33.7132 67.3079 32.7658 67.0293 31.912L66.0786 32.2222ZM66.6035 34.8467H65.6035V35.9697H66.6035H67.6035V34.8467H66.6035ZM66.6035 35.9697L65.6078 35.8777C65.5241 36.7831 65.3624 37.5758 65.1309 38.2628L66.0786 38.582L67.0263 38.9013C67.3157 38.0421 67.5039 37.0932 67.5993 36.0618L66.6035 35.9697ZM66.0786 38.582L65.1279 38.2718C64.9073 38.9479 64.6145 39.4952 64.2624 39.932L65.041 40.5596L65.8196 41.1871C66.3464 40.5335 66.7453 39.7624 67.0293 38.8922L66.0786 38.582ZM65.041 40.5596L64.2567 39.9392C63.9213 40.3632 63.5157 40.6842 63.0306 40.911L63.4541 41.8169L63.8776 42.7228C64.6458 42.3636 65.2981 41.8465 65.8253 41.18L65.041 40.5596ZM63.4541 41.8169L63.0403 40.9065C62.5687 41.1209 61.9827 41.2441 61.2568 41.2441V42.2441V43.2441C62.2074 43.2441 63.0862 43.0826 63.8679 42.7273L63.4541 41.8169ZM61.2568 42.2441V41.2441C60.633 41.2441 60.0845 41.1109 59.5935 40.8561L59.1328 41.7437L58.6722 42.6312C59.4669 43.0437 60.3345 43.2441 61.2568 43.2441V42.2441ZM59.1328 41.7437L59.5981 40.8585C59.0984 40.5958 58.6584 40.2247 58.2771 39.7296L57.4849 40.3398L56.6926 40.9501C57.239 41.6594 57.8977 42.2241 58.6675 42.6288L59.1328 41.7437ZM57.4849 40.3398L58.2823 39.7364C57.9049 39.2378 57.6003 38.6368 57.378 37.9197L56.4229 38.2158L55.4677 38.5119C55.75 39.4225 56.1533 40.2375 56.6875 40.9433L57.4849 40.3398ZM56.4229 38.2158L57.3815 37.9311C57.1678 37.2119 57.0566 36.4178 57.0566 35.5425H56.0566H55.0566C55.0566 36.5878 55.1896 37.5759 55.4642 38.5006L56.4229 38.2158ZM58.3271 35.2861H57.3271V35.5425H58.3271H59.3271V35.2861H58.3271ZM58.3271 35.5425H57.3271C57.3271 36.2674 57.3988 36.9603 57.5469 37.6178L58.5225 37.3979L59.498 37.1781C59.3858 36.68 59.3271 36.1359 59.3271 35.5425H58.3271ZM58.5225 37.3979L57.5499 37.6308C57.7112 38.3044 57.9637 38.921 58.3181 39.4677L59.1572 38.9238L59.9964 38.3799C59.7811 38.0477 59.6104 37.6471 59.495 37.1651L58.5225 37.3979ZM59.1572 38.9238L58.3181 39.4677C58.6864 40.0359 59.1638 40.4946 59.7458 40.8287L60.2437 39.9614L60.7415 39.0942C60.4446 38.9237 60.1978 38.6906 59.9964 38.3799L59.1572 38.9238ZM60.2437 39.9614L59.758 40.8356C60.3747 41.1782 61.0742 41.3276 61.8184 41.3276V40.3276V39.3276C61.3418 39.3276 60.9915 39.2329 60.7293 39.0873L60.2437 39.9614ZM61.8184 40.3276V41.3276C62.7049 41.3276 63.5267 41.1395 64.2131 40.6858L63.6616 39.8516L63.1102 39.0173C62.8363 39.1984 62.4292 39.3276 61.8184 39.3276V40.3276ZM63.6616 39.8516L64.2066 40.69C64.8339 40.2823 65.3351 39.7422 65.7051 39.0845L64.8335 38.5942L63.9619 38.104C63.746 38.4879 63.4659 38.7861 63.1166 39.0131L63.6616 39.8516ZM64.8335 38.5942L65.7051 39.0845C66.0415 38.4864 66.3001 37.8421 66.4833 37.1551L65.5171 36.8975L64.5509 36.6398C64.4085 37.1736 64.2114 37.6604 63.9619 38.104L64.8335 38.5942ZM65.5171 36.8975H66.5171V33.9556H65.5171H64.5171V36.8975H65.5171ZM65.5171 33.9556L66.4941 33.7424C66.3817 33.2272 66.2174 32.7295 66.0014 32.2505L65.0898 32.6616L64.1783 33.0727C64.3366 33.4239 64.4572 33.7888 64.5401 34.1687L65.5171 33.9556ZM65.0898 32.6616L66.0108 32.272C65.7906 31.7515 65.496 31.2817 65.1251 30.8696L64.3818 31.5386L63.6385 32.2075C63.8536 32.4465 64.031 32.7253 64.1689 33.0513L65.0898 32.6616ZM64.3818 31.5386L65.1424 30.8893C64.758 30.439 64.2849 30.0892 63.7389 29.8372L63.3198 30.7451L62.9008 31.6531C63.2011 31.7917 63.436 31.9709 63.6213 32.1878L64.3818 31.5386ZM63.3198 30.7451L63.7456 29.8403C63.1692 29.569 62.5249 29.4521 61.8428 29.4521V30.4521V31.4521C62.2999 31.4521 62.6404 31.5306 62.894 31.6499L63.3198 30.7451ZM61.8428 30.4521V29.4521C61.0821 29.4521 60.3683 29.6133 59.7408 29.9784L60.2437 30.8428L60.7465 31.7071C61.0142 31.5514 61.3665 31.4521 61.8428 31.4521V30.4521ZM60.2437 30.8428L59.7458 29.9755C59.1594 30.3122 58.681 30.7783 58.3136 31.3557L59.1572 31.8926L60.0009 32.4295C60.2031 32.1117 60.449 31.8779 60.7415 31.71L60.2437 30.8428ZM59.1572 31.8926L58.3181 31.3487C57.9623 31.8976 57.71 32.5198 57.5492 33.2009L58.5225 33.4307L59.4957 33.6605C59.6116 33.1697 59.7825 32.7665 59.9964 32.4365L59.1572 31.8926ZM58.5225 33.4307L57.5469 33.2108C57.3988 33.8684 57.3271 34.5612 57.3271 35.2861H58.3271H59.3271C59.3271 34.6927 59.3858 34.1486 59.498 33.6505L58.5225 33.4307ZM9.15723 57.792V56.792H8.15723V57.792H9.15723ZM11.4277 57.792H12.4277V56.792H11.4277V57.792ZM11.0371 74.6255L10.1299 74.2047L10.1249 74.2157L11.0371 74.6255ZM9.88965 75.895L9.40401 75.0209L9.39571 75.0255L9.38751 75.0302L9.88965 75.895ZM7.26514 76.2734L7.41494 75.2847L7.41063 75.2841L7.26514 76.2734ZM6.56934 76.127L5.56936 76.1202L5.56435 76.8664L6.27817 77.0836L6.56934 76.127ZM6.58154 74.3081L6.78755 73.3296L5.58978 73.0774L5.58157 74.3014L6.58154 74.3081ZM7.10645 74.3813L7.23048 73.3891L7.21003 73.3865L7.18949 73.3848L7.10645 74.3813ZM8.97412 73.6489L8.06375 73.2351L8.0585 73.2467L8.05354 73.2584L8.97412 73.6489ZM11.2568 53.3608L10.5147 54.0311L11.2568 53.3608ZM11.2568 55.1919L11.9879 55.8742L11.9935 55.8682L11.9989 55.8622L11.2568 55.1919ZM9.26709 55.1919L8.52499 55.8622L8.53046 55.8682L8.53603 55.8742L9.26709 55.1919ZM9.15723 57.792V58.792H11.4277V57.792V56.792H9.15723V57.792ZM11.4277 57.792H10.4277V72.5747H11.4277H12.4277V57.792H11.4277ZM11.4277 72.5747H10.4277C10.4277 73.2771 10.3137 73.8085 10.1299 74.2048L11.0371 74.6255L11.9443 75.0462C12.2814 74.3194 12.4277 73.4837 12.4277 72.5747H11.4277ZM11.0371 74.6255L10.1249 74.2157C9.95636 74.5909 9.71842 74.8462 9.40401 75.0209L9.88965 75.895L10.3753 76.7692C11.0863 76.3742 11.6133 75.7831 11.9493 75.0353L11.0371 74.6255ZM9.88965 75.895L9.38751 75.0302C9.07727 75.2104 8.62546 75.3345 7.97314 75.3345V76.3345V77.3345C8.86705 77.3345 9.69292 77.1656 10.3918 76.7598L9.88965 75.895ZM7.97314 76.3345V75.3345C7.83326 75.3345 7.64923 75.3202 7.41494 75.2847L7.26514 76.2734L7.11533 77.2622C7.41815 77.308 7.70613 77.3345 7.97314 77.3345V76.3345ZM7.26514 76.2734L7.41063 75.2841C7.16419 75.2478 6.98457 75.208 6.8605 75.1703L6.56934 76.127L6.27817 77.0836C6.52845 77.1598 6.8127 77.2177 7.11964 77.2628L7.26514 76.2734ZM6.56934 76.127L7.56931 76.1337L7.58152 74.3148L6.58154 74.3081L5.58157 74.3014L5.56936 76.1202L6.56934 76.127ZM6.58154 74.3081L6.37553 75.2867C6.57899 75.3295 6.79613 75.359 7.0234 75.3779L7.10645 74.3813L7.18949 73.3848C7.02613 73.3712 6.89334 73.3518 6.78755 73.3296L6.58154 74.3081ZM7.10645 74.3813L6.98241 75.3736C7.20588 75.4016 7.41989 75.418 7.61914 75.418V74.418V73.418C7.52542 73.418 7.39764 73.41 7.23048 73.3891L7.10645 74.3813ZM7.61914 74.418V75.418C8.07102 75.418 8.52441 75.3356 8.93365 75.1163L8.46143 74.2349L7.9892 73.3534C7.94271 73.3783 7.83458 73.418 7.61914 73.418V74.418ZM8.46143 74.2349L8.93365 75.1163C9.3883 74.8728 9.70379 74.4895 9.8947 74.0395L8.97412 73.6489L8.05354 73.2584C8.03293 73.307 8.01544 73.3297 8.00792 73.3383C8.00142 73.3458 7.9966 73.3494 7.9892 73.3534L8.46143 74.2349ZM8.97412 73.6489L9.88449 74.0627C10.0882 73.6147 10.1572 73.0982 10.1572 72.5747H9.15723H8.15723C8.15723 72.9464 8.10423 73.1461 8.06375 73.2351L8.97412 73.6489ZM9.15723 72.5747H10.1572V57.792H9.15723H8.15723V72.5747H9.15723ZM8.92529 54.2886H9.92529C9.92529 54.1492 9.96077 54.0847 10.0092 54.0311L9.26709 53.3608L8.52499 52.6906C8.11768 53.1415 7.92529 53.6955 7.92529 54.2886H8.92529ZM9.26709 53.3608L10.0092 54.0311C10.0134 54.0265 10.0192 54.0199 10.0426 54.011C10.0711 54.0001 10.1361 53.9824 10.2559 53.9824V52.9824V51.9824C9.6229 51.9824 8.99081 52.1748 8.52499 52.6906L9.26709 53.3608ZM10.2559 52.9824V53.9824C10.3818 53.9824 10.4511 54.0007 10.4821 54.0124C10.5077 54.0221 10.5127 54.0288 10.5147 54.0311L11.2568 53.3608L11.9989 52.6906C11.5296 52.171 10.8903 51.9824 10.2559 51.9824V52.9824ZM11.2568 53.3608L10.5147 54.0311C10.5632 54.0847 10.5986 54.1492 10.5986 54.2886H11.5986H12.5986C12.5986 53.6955 12.4062 53.1415 11.9989 52.6906L11.2568 53.3608ZM11.5986 54.2886H10.5986C10.5986 54.3989 10.5713 54.459 10.5147 54.5216L11.2568 55.1919L11.9989 55.8622C12.3981 55.4203 12.5986 54.8782 12.5986 54.2886H11.5986ZM11.2568 55.1919L10.5258 54.5096C10.5241 54.5114 10.5226 54.5127 10.5198 54.5145C10.5168 54.5165 10.5086 54.5214 10.4921 54.5274C10.458 54.5399 10.3851 54.5581 10.2559 54.5581V55.5581V56.5581C10.8806 56.5581 11.5162 56.3796 11.9879 55.8742L11.2568 55.1919ZM10.2559 55.5581V54.5581C10.1327 54.5581 10.0641 54.5405 10.0325 54.5288C10.0059 54.5189 10.0002 54.5118 9.99815 54.5096L9.26709 55.1919L8.53603 55.8742C9.0043 56.3759 9.63271 56.5581 10.2559 56.5581V55.5581ZM9.26709 55.1919L10.0092 54.5216C9.95262 54.459 9.92529 54.3989 9.92529 54.2886H8.92529H7.92529C7.92529 54.8782 8.12583 55.4203 8.52499 55.8622L9.26709 55.1919ZM14.8945 61.6128L15.8413 61.9347L15.8423 61.9318L14.8945 61.6128ZM16.0908 59.4766L16.8472 60.1307L16.8515 60.1257L16.0908 59.4766ZM17.9829 58.0605L18.3937 58.9723L18.402 58.9685L17.9829 58.0605ZM22.9756 58.0605L22.5565 58.9686L22.5685 58.9739L22.9756 58.0605ZM24.8799 59.4766L24.1192 60.1257L24.1238 60.1311L24.1286 60.1365L24.8799 59.4766ZM26.0884 61.6128L25.1406 61.9318L25.1416 61.9347L26.0884 61.6128ZM26.0884 67.1914L25.1416 66.8695L26.0884 67.1914ZM24.8799 69.3276L24.1242 68.6727L24.1235 68.6735L24.8799 69.3276ZM22.9878 70.7437L23.4024 71.6537L23.4069 71.6516L22.9878 70.7437ZM17.9951 70.7437L17.576 71.6516L17.5843 71.6554L17.9951 70.7437ZM16.0908 69.3276L15.3301 69.9768L15.3348 69.9822L15.3395 69.9876L16.0908 69.3276ZM16.9697 66.4102L16.0028 66.6653L16.0037 66.6687L16.9697 66.4102ZM17.6655 67.9482L16.8427 68.5167L16.8498 68.5267L17.6655 67.9482ZM18.8496 69.0103L18.3665 69.8859L18.3782 69.8922L18.8496 69.0103ZM22.1211 69.0103L22.5989 69.8888L22.6042 69.8858L22.1211 69.0103ZM23.9888 66.4102L23.0252 66.1425L23.0228 66.1516L23.9888 66.4102ZM23.9888 62.4185L23.0219 62.6736L23.024 62.6816L23.0262 62.6896L23.9888 62.4185ZM23.2808 60.8682L22.4533 61.4297L22.4591 61.4382L22.465 61.4466L23.2808 60.8682ZM22.1089 59.7939L21.6193 60.666L21.6258 60.6695L22.1089 59.7939ZM18.8374 59.7939L18.3543 58.9183L18.3479 58.922L18.8374 59.7939ZM17.6655 60.8682L16.8449 60.2967L16.8428 60.2997L17.6655 60.8682ZM16.9697 62.4185L17.9357 62.677L17.9366 62.6736L16.9697 62.4185ZM14.4795 64.5425H15.4795V64.2617H14.4795H13.4795V64.5425H14.4795ZM14.4795 64.2617H15.4795C15.4795 63.4073 15.6034 62.6343 15.8413 61.9347L14.8945 61.6128L13.9478 61.2909C13.6322 62.2189 13.4795 63.2118 13.4795 64.2617H14.4795ZM14.8945 61.6128L15.8423 61.9318C16.0813 61.2219 16.4186 60.6263 16.8472 60.1307L16.0908 59.4766L15.3345 58.8224C14.7214 59.5313 14.2612 60.3598 13.9468 61.2938L14.8945 61.6128ZM16.0908 59.4766L16.8515 60.1257C17.2753 59.629 17.786 59.2461 18.3937 58.9723L17.9829 58.0605L17.5721 57.1488C16.6987 57.5423 15.948 58.1034 15.3301 58.8274L16.0908 59.4766ZM17.9829 58.0605L18.402 58.9685C18.9953 58.6946 19.6797 58.5479 20.4731 58.5479V57.5479V56.5479C19.4273 56.5479 18.4516 56.7429 17.5639 57.1526L17.9829 58.0605ZM20.4731 57.5479V58.5479C21.2761 58.5479 21.9643 58.6952 22.5565 58.9685L22.9756 58.0605L23.3946 57.1526C22.5058 56.7423 21.5257 56.5479 20.4731 56.5479V57.5479ZM22.9756 58.0605L22.5685 58.9739C23.1842 59.2483 23.6972 59.6312 24.1192 60.1257L24.8799 59.4766L25.6406 58.8274C25.0209 58.1013 24.2644 57.5401 23.3826 57.1471L22.9756 58.0605ZM24.8799 59.4766L24.1286 60.1365C24.5632 60.6313 24.9027 61.225 25.1406 61.9318L26.0884 61.6128L27.0361 61.2938C26.7207 60.3567 26.2545 59.5263 25.6312 58.8166L24.8799 59.4766ZM26.0884 61.6128L25.1416 61.9347C25.3795 62.6343 25.5034 63.4073 25.5034 64.2617H26.5034H27.5034C27.5034 63.2118 27.3507 62.2189 27.0352 61.2909L26.0884 61.6128ZM26.5034 64.2617H25.5034V64.5425H26.5034H27.5034V64.2617H26.5034ZM26.5034 64.5425H25.5034C25.5034 65.3969 25.3795 66.1699 25.1416 66.8695L26.0884 67.1914L27.0352 67.5133C27.3507 66.5853 27.5034 65.5924 27.5034 64.5425H26.5034ZM26.0884 67.1914L25.1416 66.8695C24.9038 67.5689 24.5632 68.1661 24.1242 68.6727L24.8799 69.3276L25.6356 69.9826C26.2545 69.2684 26.7196 68.4415 27.0352 67.5133L26.0884 67.1914ZM24.8799 69.3276L24.1235 68.6735C23.6981 69.1654 23.1833 69.552 22.5687 69.8357L22.9878 70.7437L23.4069 71.6516C24.2734 71.2517 25.02 70.6943 25.6362 69.9818L24.8799 69.3276ZM22.9878 70.7437L22.5732 69.8336C21.9894 70.0996 21.304 70.2441 20.4976 70.2441V71.2441V72.2441C21.5466 72.2441 22.5213 72.055 23.4024 71.6537L22.9878 70.7437ZM20.4976 71.2441V70.2441C19.6914 70.2441 19.0002 70.0997 18.4059 69.8319L17.9951 70.7437L17.5843 71.6554C18.4712 72.0549 19.4483 72.2441 20.4976 72.2441V71.2441ZM17.9951 70.7437L18.4142 69.8357C17.7982 69.5514 17.2772 69.163 16.8421 68.6677L16.0908 69.3276L15.3395 69.9876C15.9623 70.6967 16.7109 71.2523 17.5761 71.6516L17.9951 70.7437ZM16.0908 69.3276L16.8515 68.6785C16.4186 68.1712 16.0802 67.5721 15.8413 66.8695L14.8945 67.1914L13.9478 67.5133C14.2623 68.4384 14.7214 69.2634 15.3301 69.9768L16.0908 69.3276ZM14.8945 67.1914L15.8413 66.8695C15.6034 66.1699 15.4795 65.3969 15.4795 64.5425H14.4795H13.4795C13.4795 65.5924 13.6322 66.5853 13.9478 67.5133L14.8945 67.1914ZM16.7378 64.2617H15.7378V64.5425H16.7378H17.7378V64.2617H16.7378ZM16.7378 64.5425H15.7378C15.7378 65.2803 15.8244 65.9892 16.0028 66.6653L16.9697 66.4102L17.9366 66.155C17.8058 65.6593 17.7378 65.123 17.7378 64.5425H16.7378ZM16.9697 66.4102L16.0037 66.6687C16.185 67.3462 16.4622 67.9658 16.8428 68.5167L17.6655 67.9482L18.4883 67.3798C18.2503 67.0355 18.0637 66.6297 17.9357 66.1516L16.9697 66.4102ZM17.6655 67.9482L16.8498 68.5267C17.2527 69.0948 17.7603 69.5513 18.3665 69.8858L18.8496 69.0103L19.3327 68.1347C18.9949 67.9483 18.7132 67.6968 18.4813 67.3698L17.6655 67.9482ZM18.8496 69.0103L18.3782 69.8922C19.0182 70.2342 19.7346 70.3887 20.4976 70.3887V69.3887V68.3887C20.0072 68.3887 19.625 68.2908 19.321 68.1283L18.8496 69.0103ZM20.4976 69.3887V70.3887C21.2543 70.3887 21.9651 70.2334 22.5989 69.8887L22.1211 69.0103L21.6433 68.1318C21.3494 68.2916 20.9778 68.3887 20.4976 68.3887V69.3887ZM22.1211 69.0103L22.6042 69.8858C23.2129 69.55 23.7194 69.0903 24.1157 68.5167L23.293 67.9482L22.4702 67.3798C22.2481 67.7013 21.9733 67.9497 21.638 68.1347L22.1211 69.0103ZM23.293 67.9482L24.1157 68.5167C24.4963 67.9658 24.7735 67.3462 24.9548 66.6687L23.9888 66.4102L23.0228 66.1516C22.8948 66.6297 22.7081 67.0355 22.4702 67.3798L23.293 67.9482ZM23.9888 66.4102L24.9523 66.6778C25.1412 65.9977 25.2329 65.2846 25.2329 64.5425H24.2329H23.2329C23.2329 65.1187 23.1619 65.6507 23.0253 66.1425L23.9888 66.4102ZM24.2329 64.5425H25.2329V64.2617H24.2329H23.2329V64.5425H24.2329ZM24.2329 64.2617H25.2329C25.2329 63.5267 25.1409 62.8205 24.9513 62.1473L23.9888 62.4185L23.0262 62.6896C23.1621 63.172 23.2329 63.6947 23.2329 64.2617H24.2329ZM23.9888 62.4185L24.9557 62.1633C24.7736 61.4735 24.4901 60.8448 24.0965 60.2897L23.2808 60.8682L22.465 61.4466C22.7062 61.7867 22.8947 62.1915 23.0219 62.6736L23.9888 62.4185ZM23.2808 60.8682L24.1082 60.3067C23.7125 59.7235 23.205 59.2566 22.592 58.9184L22.1089 59.7939L21.6258 60.6695C21.9568 60.8521 22.2305 61.1014 22.4533 61.4297L23.2808 60.8682ZM22.1089 59.7939L22.5984 58.922C21.9604 58.5638 21.2406 58.4033 20.4731 58.4033V59.4033V60.4033C20.959 60.4033 21.3296 60.5033 21.6194 60.6659L22.1089 59.7939ZM20.4731 59.4033V58.4033C19.7109 58.4033 18.9948 58.565 18.3543 58.9184L18.8374 59.7939L19.3205 60.6695C19.624 60.5021 19.9984 60.4033 20.4731 60.4033V59.4033ZM18.8374 59.7939L18.3479 58.922C17.7466 59.2595 17.2447 59.7227 16.8449 60.2967L17.6655 60.8682L18.4861 61.4397C18.7212 61.1022 19.0005 60.8492 19.3269 60.6659L18.8374 59.7939ZM17.6655 60.8682L16.8428 60.2997C16.4607 60.8528 16.1837 61.4781 16.0028 62.1633L16.9697 62.4185L17.9366 62.6736C18.065 62.187 18.2519 61.7787 18.4883 61.4366L17.6655 60.8682ZM16.9697 62.4185L16.0037 62.1599C15.8246 62.8291 15.7378 63.531 15.7378 64.2617H16.7378H17.7378C17.7378 63.6903 17.8056 63.1634 17.9357 62.677L16.9697 62.4185ZM37.4165 67.9482H36.4165V67.9662L36.4172 67.9842L37.4165 67.9482ZM37.4165 57.792V56.792H36.4165V57.792H37.4165ZM39.687 57.792H40.687V56.792H39.687V57.792ZM39.687 71V72H40.687V71H39.687ZM37.5264 71L36.527 71.036L36.5617 72H37.5264V71ZM37.8438 65.165L37.8178 64.1654L36.8438 64.1907V65.165H37.8438ZM38.7837 65.1406H39.7837V64.1143L38.7577 64.141L38.7837 65.1406ZM38.5029 67.582L37.5328 67.3395L37.5309 67.347L38.5029 67.582ZM36.0249 70.7925L36.4404 71.7021L36.4496 71.6978L36.0249 70.7925ZM31.8501 70.9634L31.5165 71.9061L31.521 71.9077L31.8501 70.9634ZM29.5918 68.5708L28.6406 68.8796L28.6444 68.8907L29.5918 68.5708ZM29.2866 57.792V56.792H28.2866V57.792H29.2866ZM31.5449 57.792H32.5449V56.792H31.5449V57.792ZM31.7402 67.814L30.7916 68.1302L30.7956 68.1422L30.7999 68.1541L31.7402 67.814ZM32.2896 68.7295L31.5824 69.4366L31.5951 69.4492L31.6081 69.4614L32.2896 68.7295ZM33.0708 69.1934L32.771 70.1474L32.7786 70.1497L33.0708 69.1934ZM36.2568 68.7783L36.8031 69.616L36.8115 69.6104L36.2568 68.7783ZM37.4653 67.2769L36.536 66.9075L36.5336 66.9138L37.4653 67.2769ZM37.4165 67.9482H38.4165V57.792H37.4165H36.4165V67.9482H37.4165ZM37.4165 57.792V58.792H39.687V57.792V56.792H37.4165V57.792ZM39.687 57.792H38.687V71H39.687H40.687V57.792H39.687ZM39.687 71V70H37.5264V71V72H39.687V71ZM37.5264 71L38.5257 70.964L38.4159 67.9123L37.4165 67.9482L36.4172 67.9842L36.527 71.036L37.5264 71ZM37.8438 65.165L37.8697 66.1647L38.8097 66.1403L38.7837 65.1406L38.7577 64.141L37.8178 64.1654L37.8438 65.165ZM38.7837 65.1406H37.7837C37.7837 65.9489 37.6976 66.6802 37.5328 67.3395L38.5029 67.582L39.4731 67.8246C39.6826 66.9865 39.7837 66.0902 39.7837 65.1406H38.7837ZM38.5029 67.582L37.5309 67.347C37.3798 67.972 37.1395 68.4879 36.8226 68.9127L37.624 69.5107L38.4255 70.1088C38.9223 69.443 39.268 68.6731 39.4749 67.817L38.5029 67.582ZM37.624 69.5107L36.8226 68.9127C36.5209 69.3169 36.1212 69.6427 35.6002 69.8872L36.0249 70.7925L36.4496 71.6978C37.247 71.3237 37.9133 70.7951 38.4255 70.1088L37.624 69.5107ZM36.0249 70.7925L35.6094 69.8829C35.1138 70.1093 34.4623 70.2441 33.6201 70.2441V71.2441V72.2441C34.6659 72.2441 35.6177 72.0779 36.4404 71.7021L36.0249 70.7925ZM33.6201 71.2441V70.2441C33.0748 70.2441 32.5977 70.1649 32.1792 70.0191L31.8501 70.9634L31.521 71.9077C32.1767 72.1362 32.8796 72.2441 33.6201 72.2441V71.2441ZM31.8501 70.9634L32.1837 70.0207C31.7947 69.883 31.4703 69.6757 31.1974 69.3971L30.4829 70.0967L29.7684 70.7963C30.2605 71.2989 30.8476 71.6694 31.5165 71.9061L31.8501 70.9634ZM30.4829 70.0967L31.1974 69.3971C30.9399 69.1341 30.7127 68.7645 30.5392 68.2509L29.5918 68.5708L28.6444 68.8907C28.8941 69.6304 29.2609 70.278 29.7684 70.7963L30.4829 70.0967ZM29.5918 68.5708L30.5429 68.262C30.3806 67.7621 30.2866 67.1193 30.2866 66.3125H29.2866H28.2866C28.2866 67.2635 28.3961 68.1262 28.6407 68.8796L29.5918 68.5708ZM29.2866 66.3125H30.2866V57.792H29.2866H28.2866V66.3125H29.2866ZM29.2866 57.792V58.792H31.5449V57.792V56.792H29.2866V57.792ZM31.5449 57.792H30.5449V66.3369H31.5449H32.5449V57.792H31.5449ZM31.5449 66.3369H30.5449C30.5449 66.9952 30.6159 67.6033 30.7916 68.1302L31.7402 67.814L32.6889 67.4977C32.6041 67.2433 32.5449 66.8668 32.5449 66.3369H31.5449ZM31.7402 67.814L30.7999 68.1541C30.9754 68.6395 31.2274 69.0815 31.5824 69.4366L32.2896 68.7295L32.9967 68.0224C32.896 67.9217 32.7817 67.7534 32.6806 67.4738L31.7402 67.814ZM32.2896 68.7295L31.6081 69.4614C31.9443 69.7744 32.3329 70.0097 32.771 70.1474L33.0708 69.1934L33.3706 68.2394C33.2391 68.198 33.1068 68.1241 32.971 67.9976L32.2896 68.7295ZM33.0708 69.1934L32.7786 70.1497C33.1672 70.2684 33.5668 70.3276 33.9741 70.3276V69.3276V68.3276C33.763 68.3276 33.5604 68.2973 33.363 68.237L33.0708 69.1934ZM33.9741 69.3276V70.3276C35.0485 70.3276 36.0231 70.1246 36.8031 69.6159L36.2568 68.7783L35.7106 67.9407C35.3676 68.1644 34.8204 68.3276 33.9741 68.3276V69.3276ZM36.2568 68.7783L36.8115 69.6104C37.5433 69.1225 38.0781 68.4586 38.3971 67.6399L37.4653 67.2769L36.5336 66.9138C36.3642 67.3484 36.0934 67.6854 35.7021 67.9463L36.2568 68.7783ZM37.4653 67.2769L38.3946 67.6462C38.6994 66.8794 38.8438 66.0481 38.8438 65.165H37.8438H36.8438C36.8438 65.8282 36.7359 66.4048 36.536 66.9075L37.4653 67.2769ZM45.3877 59.8672H46.3877V59.8525L46.3873 59.8378L45.3877 59.8672ZM45.3877 71V72H46.3877V71H45.3877ZM43.1294 71H42.1294V72H43.1294V71ZM43.1294 57.792V56.792H42.1294V57.792H43.1294ZM45.3267 57.792L46.3262 57.7626L46.2977 56.792H45.3267V57.792ZM49.5137 57.7188L50.5137 57.7246L50.5173 57.1025L49.9609 56.8243L49.5137 57.7188ZM49.5015 59.8184L49.289 60.7955L50.4943 61.0575L50.5014 59.8242L49.5015 59.8184ZM48.9644 59.7451L48.8649 60.7402L48.8908 60.7427L48.9168 60.744L48.9644 59.7451ZM45.3511 61.6982L44.4225 61.3268L44.4187 61.3367L45.3511 61.6982ZM45.0459 63.0166L45.5456 63.8828L45.989 63.627L46.0408 63.1178L45.0459 63.0166ZM44.4111 63.3828H43.4111V65.1142L44.9109 64.249L44.4111 63.3828ZM44.6431 61.1367L43.669 60.9102L43.6666 60.921L44.6431 61.1367ZM45.3877 59.2812L46.2372 59.8089L46.2407 59.8032L45.3877 59.2812ZM46.6572 58.0117L47.1637 58.874L47.1678 58.8716L46.6572 58.0117ZM49.0742 57.6089L48.8854 58.5909L48.9037 58.5944L48.9222 58.5973L49.0742 57.6089ZM45.3877 59.8672H44.3877V71H45.3877H46.3877V59.8672H45.3877ZM45.3877 71V70H43.1294V71V72H45.3877V71ZM43.1294 71H44.1294V57.792H43.1294H42.1294V71H43.1294ZM43.1294 57.792V58.792H45.3267V57.792V56.792H43.1294V57.792ZM45.3267 57.792L44.3271 57.8214L44.3881 59.8966L45.3877 59.8672L46.3873 59.8378L46.3262 57.7626L45.3267 57.792ZM49.5137 57.7188L48.5137 57.7129L48.5015 59.8125L49.5015 59.8184L50.5014 59.8242L50.5137 57.7246L49.5137 57.7188ZM49.5015 59.8184L49.7139 58.8412C49.4788 58.7901 49.2444 58.7573 49.0119 58.7462L48.9644 59.7451L48.9168 60.744C49.0261 60.7492 49.1498 60.7653 49.289 60.7955L49.5015 59.8184ZM48.9644 59.7451L49.0639 58.7501C48.8601 58.7297 48.6386 58.7207 48.4028 58.7207V59.7207V60.7207C48.5903 60.7207 48.7431 60.728 48.8649 60.7402L48.9644 59.7451ZM48.4028 59.7207V58.7207C47.7789 58.7207 47.1865 58.8182 46.6455 59.039L47.0234 59.9648L47.4013 60.8907C47.6579 60.786 47.9851 60.7207 48.4028 60.7207V59.7207ZM47.0234 59.9648L46.6455 59.039C46.1239 59.2519 45.6645 59.5581 45.2832 59.9618L46.0103 60.6484L46.7373 61.3351C46.9094 61.1528 47.1254 61.0033 47.4013 60.8907L47.0234 59.9648ZM46.0103 60.6484L45.2832 59.9618C44.9129 60.354 44.628 60.8134 44.4226 61.3269L45.3511 61.6982L46.2796 62.0696C46.3997 61.7693 46.5542 61.5288 46.7373 61.3351L46.0103 60.6484ZM45.3511 61.6982L44.4187 61.3367C44.2278 61.829 44.1078 62.3573 44.051 62.9154L45.0459 63.0166L46.0408 63.1178C46.0817 62.7156 46.1651 62.365 46.2834 62.0598L45.3511 61.6982ZM45.0459 63.0166L44.5462 62.1504L43.9114 62.5166L44.4111 63.3828L44.9109 64.249L45.5456 63.8828L45.0459 63.0166ZM44.4111 63.3828H45.4111C45.4111 62.6498 45.4822 61.9741 45.6195 61.3524L44.6431 61.1367L43.6666 60.921C43.4947 61.6991 43.4111 62.5208 43.4111 63.3828H44.4111ZM44.6431 61.1367L45.6171 61.3632C45.7584 60.7556 45.9685 60.2414 46.2371 59.8089L45.3877 59.2812L44.5383 58.7536C44.1396 59.3953 43.8533 60.1181 43.6691 60.9102L44.6431 61.1367ZM45.3877 59.2812L46.2407 59.8032C46.4951 59.3873 46.8032 59.0857 47.1636 58.874L46.6572 58.0117L46.1508 57.1494C45.4858 57.54 44.9476 58.0847 44.5347 58.7593L45.3877 59.2812ZM46.6572 58.0117L47.1678 58.8716C47.508 58.6696 47.9432 58.5479 48.5127 58.5479V57.5479V56.5479C47.6499 56.5479 46.8481 56.7354 46.1467 57.1519L46.6572 58.0117ZM48.5127 57.5479V58.5479C48.5955 58.5479 48.7173 58.5586 48.8854 58.5909L49.0742 57.6089L49.2631 56.6269C49.0079 56.5778 48.7554 56.5479 48.5127 56.5479V57.5479ZM49.0742 57.6089L48.9222 58.5973C49.009 58.6106 49.0663 58.6224 49.1002 58.6309C49.1167 58.635 49.1221 58.637 49.1191 58.636C49.1173 58.6354 49.0974 58.6286 49.0665 58.6132L49.5137 57.7188L49.9609 56.8243C49.7258 56.7068 49.4394 56.6533 49.2263 56.6205L49.0742 57.6089ZM53.8594 60.6118H54.8594V60.5902L54.8584 60.5686L53.8594 60.6118ZM53.8594 71V72H54.8594V71H53.8594ZM51.6011 71H50.6011V72H51.6011V71ZM51.6011 57.792V56.792H50.6011V57.792H51.6011ZM53.7373 57.792L54.7364 57.7487L54.695 56.792H53.7373V57.792ZM53.3223 63.8955L53.2833 64.8947L54.3223 64.9352V63.8955H53.3223ZM52.3823 63.8589L51.3824 63.8499L51.3736 64.8203L52.3434 64.8581L52.3823 63.8589ZM52.7852 61.3564L53.7318 61.6787L53.7328 61.6757L52.7852 61.3564ZM53.8838 59.3423L53.1138 58.7043L53.8838 59.3423ZM55.5684 58.0239L55.9974 58.9272L56.0022 58.9249L55.5684 58.0239ZM59.5112 57.8164L59.1861 58.7622L59.1995 58.7666L59.5112 57.8164ZM60.8418 58.6465L60.1194 59.3381L60.1271 59.3459L60.8418 58.6465ZM61.6963 60.1357L60.7439 60.4405L60.7451 60.4442L61.6963 60.1357ZM61.9893 71V72H62.9893V71H61.9893ZM59.7188 71H58.7188V72H59.7188V71ZM59.4136 60.6606L58.5123 61.094L58.5157 61.1008L59.4136 60.6606ZM58.5225 59.7451L58.0752 60.6395L58.0828 60.6433L58.0903 60.6469L58.5225 59.7451ZM55.5439 59.8062L55.0905 58.9149L55.0841 58.9182L55.5439 59.8062ZM54.3599 60.7827L53.5804 60.1561L53.573 60.1656L54.3599 60.7827ZM53.5908 62.2109L52.6465 61.8818L52.6436 61.8903L53.5908 62.2109ZM53.8594 60.6118H52.8594V71H53.8594H54.8594V60.6118H53.8594ZM53.8594 71V70H51.6011V71V72H53.8594V71ZM51.6011 71H52.6011V57.792H51.6011H50.6011V71H51.6011ZM51.6011 57.792V58.792H53.7373V57.792V56.792H51.6011V57.792ZM53.7373 57.792L52.7382 57.8352L52.8603 60.6551L53.8594 60.6118L54.8584 60.5686L54.7364 57.7487L53.7373 57.792ZM53.3223 63.8955L53.3612 62.8963L52.4213 62.8596L52.3823 63.8589L52.3434 64.8581L53.2833 64.8947L53.3223 63.8955ZM52.3823 63.8589L53.3823 63.8679C53.3896 63.0587 53.5095 62.3316 53.7318 61.6787L52.7852 61.3564L51.8385 61.0342C51.5399 61.9112 51.3914 62.8524 51.3824 63.8499L52.3823 63.8589ZM52.7852 61.3564L53.7328 61.6757C53.9581 61.0069 54.2677 60.4463 54.6538 59.9803L53.8838 59.3423L53.1138 58.7043C52.5558 59.3776 52.133 60.1598 51.8375 61.0372L52.7852 61.3564ZM53.8838 59.3423L54.6538 59.9803C55.0354 59.5198 55.4815 59.1722 55.9974 58.9272L55.5684 58.0239L55.1393 57.1206C54.3531 57.4941 53.6762 58.0255 53.1138 58.7043L53.8838 59.3423ZM55.5684 58.0239L56.0022 58.9249C56.5142 58.6784 57.0924 58.5479 57.7534 58.5479V57.5479V56.5479C56.8194 56.5479 55.9409 56.7347 55.1345 57.1229L55.5684 58.0239ZM57.7534 57.5479V58.5479C58.3135 58.5479 58.787 58.6249 59.1862 58.7621L59.5112 57.8164L59.8363 56.8707C59.1938 56.6499 58.4954 56.5479 57.7534 56.5479V57.5479ZM59.5112 57.8164L59.1995 58.7666C59.57 58.8881 59.8709 59.0784 60.1195 59.3381L60.8418 58.6465L61.5641 57.9549C61.0803 57.4496 60.4941 57.0865 59.823 56.8662L59.5112 57.8164ZM60.8418 58.6465L60.1271 59.3459C60.3731 59.5973 60.5867 59.9494 60.7439 60.4405L61.6963 60.1357L62.6487 59.831C62.4152 59.1013 62.0592 58.4607 61.5565 57.947L60.8418 58.6465ZM61.6963 60.1357L60.7451 60.4442C60.8985 60.9173 60.9893 61.5428 60.9893 62.3452H61.9893H62.9893C62.9893 61.4061 62.8847 60.5586 62.6475 59.8272L61.6963 60.1357ZM61.9893 62.3452H60.9893V71H61.9893H62.9893V62.3452H61.9893ZM61.9893 71V70H59.7188V71V72H61.9893V71ZM59.7188 71H60.7188V62.3208H59.7188H58.7188V71H59.7188ZM59.7188 62.3208H60.7188C60.7188 61.5458 60.6071 60.8235 60.3115 60.2205L59.4136 60.6606L58.5157 61.1008C58.6269 61.3278 58.7188 61.7123 58.7188 62.3208H59.7188ZM59.4136 60.6606L60.3148 60.2274C60.0217 59.6176 59.568 59.1372 58.9546 58.8433L58.5225 59.7451L58.0903 60.6469C58.2582 60.7274 58.3986 60.8573 58.5123 61.0939L59.4136 60.6606ZM58.5225 59.7451L58.9697 58.8507C58.4045 58.5681 57.7614 58.4521 57.082 58.4521V59.4521V60.4521C57.542 60.4521 57.8591 60.5315 58.0752 60.6395L58.5225 59.7451ZM57.082 59.4521V58.4521C56.3756 58.4521 55.7057 58.6019 55.0905 58.9149L55.5439 59.8062L55.9974 60.6974C56.3099 60.5384 56.6654 60.4521 57.082 60.4521V59.4521ZM55.5439 59.8062L55.0841 58.9182C54.5002 59.2206 53.998 59.6369 53.5805 60.1562L54.3599 60.7827L55.1392 61.4093C55.3891 61.0985 55.6763 60.8638 56.0038 60.6941L55.5439 59.8062ZM54.3599 60.7827L53.573 60.1656C53.1744 60.6739 52.8671 61.2489 52.6465 61.8819L53.5908 62.2109L54.5351 62.54C54.6889 62.0988 54.8943 61.7217 55.1467 61.3999L54.3599 60.7827ZM53.5908 62.2109L52.6436 61.8903C52.4274 62.529 52.3223 63.1994 52.3223 63.8955H53.3223H54.3223C54.3223 63.4035 54.3961 62.9508 54.538 62.5315L53.5908 62.2109ZM68.3979 70.7803L68.004 71.6995L68.0162 71.7045L68.3979 70.7803ZM66.4814 69.4497L65.7486 70.1302L65.7539 70.1357L66.4814 69.4497ZM65.2607 67.4233L64.3212 67.7659L65.2607 67.4233ZM65.3096 61.4785L66.2448 61.8326L66.2459 61.8296L65.3096 61.4785ZM66.6035 59.3301L65.8714 58.6488L66.6035 59.3301ZM73.0488 58.0361L72.6189 58.939L72.623 58.941L73.0488 58.0361ZM74.7456 59.4033L73.9456 60.0033L73.9497 60.0087L74.7456 59.4033ZM75.7222 61.4541L74.7563 61.713L74.7569 61.7155L75.7222 61.4541ZM76.0396 65.0308V66.0308H77.0396V65.0308H76.0396ZM66.1763 65.0308H65.1763V66.0308H66.1763V65.0308ZM66.1763 63.1875V62.1875H65.1763V63.1875H66.1763ZM73.7812 63.1875V64.1875H74.7812V63.1875H73.7812ZM73.7812 63.0166H74.7812V62.9888L74.7797 62.9611L73.7812 63.0166ZM73.415 61.3076L72.4764 61.6527L72.481 61.6648L73.415 61.3076ZM69.1914 59.7329L69.6318 60.6307L69.6386 60.6274L69.6453 60.6239L69.1914 59.7329ZM67.3604 66.6299L66.4049 66.925L66.4075 66.9334L66.4103 66.9419L67.3604 66.6299ZM68.1294 68.0703L67.35 68.6969L67.3575 68.706L68.1294 68.0703ZM69.3623 69.0469L68.9212 69.9443L68.9271 69.9472L69.3623 69.0469ZM73.0488 68.9126L72.5418 68.0507L73.0488 68.9126ZM74.5015 67.6064L75.1236 66.8235L74.3242 66.1883L73.7058 67.0008L74.5015 67.6064ZM75.8687 68.6929L76.7031 69.2439L77.2078 68.4797L76.4908 67.91L75.8687 68.6929ZM73.1587 70.8779L72.8037 69.9431L72.7997 69.9446L73.1587 70.8779ZM70.9004 71.2441V70.2441C70.0942 70.2441 69.3921 70.1089 68.7797 69.856L68.3979 70.7803L68.0162 71.7045C68.9012 72.0701 69.8674 72.2441 70.9004 72.2441V71.2441ZM68.3979 70.7803L68.7919 69.8611C68.1736 69.5961 67.6493 69.2307 67.209 68.7637L66.4814 69.4497L65.7539 70.1357C66.3878 70.8081 67.1412 71.3296 68.004 71.6994L68.3979 70.7803ZM66.4814 69.4497L67.2142 68.7693C66.7822 68.304 66.4426 67.7456 66.2002 67.0808L65.2607 67.4233L64.3212 67.7659C64.6485 68.6636 65.1227 69.4561 65.7487 70.1302L66.4814 69.4497ZM65.2607 67.4233L66.2002 67.0808C65.9598 66.4213 65.8335 65.6842 65.8335 64.8599H64.8335H63.8335C63.8335 65.891 63.992 66.8629 64.3212 67.7659L65.2607 67.4233ZM64.8335 64.8599H65.8335V64.3472H64.8335H63.8335V64.8599H64.8335ZM64.8335 64.3472H65.8335C65.8335 63.3705 65.9778 62.5377 66.2448 61.8326L65.3096 61.4785L64.3744 61.1244C64.0066 62.0958 63.8335 63.1754 63.8335 64.3472H64.8335ZM65.3096 61.4785L66.2459 61.8296C66.5233 61.0898 66.8901 60.49 67.3356 60.0113L66.6035 59.3301L65.8714 58.6488C65.2264 59.342 64.7306 60.1745 64.3732 61.1274L65.3096 61.4785ZM66.6035 59.3301L67.3356 60.0113C67.793 59.5197 68.2999 59.1594 68.8581 58.9164L68.459 57.9995L68.0599 57.0826C67.2346 57.4419 66.5045 57.9685 65.8714 58.6488L66.6035 59.3301ZM68.459 57.9995L68.8581 58.9164C69.4263 58.6691 70.0068 58.5479 70.6074 58.5479V57.5479V56.5479C69.7269 56.5479 68.8751 56.7277 68.0599 57.0826L68.459 57.9995ZM70.6074 57.5479V58.5479C71.4385 58.5479 72.0985 58.6912 72.6189 58.939L73.0488 58.0361L73.4788 57.1333C72.6319 56.73 71.6644 56.5479 70.6074 56.5479V57.5479ZM73.0488 58.0361L72.623 58.941C73.1737 59.2001 73.6085 59.5538 73.9456 60.0033L74.7456 59.4033L75.5456 58.8033C75.0038 58.081 74.3074 57.5232 73.4746 57.1313L73.0488 58.0361ZM74.7456 59.4033L73.9497 60.0087C74.3012 60.4709 74.5741 61.0333 74.7563 61.713L75.7222 61.4541L76.6881 61.1952C76.4471 60.2961 76.0689 59.4913 75.5416 58.798L74.7456 59.4033ZM75.7222 61.4541L74.7569 61.7155C74.9424 62.4002 75.0396 63.1655 75.0396 64.0176H76.0396H77.0396C77.0396 63.0142 76.9251 62.0705 76.6874 61.1927L75.7222 61.4541ZM76.0396 64.0176H75.0396V65.0308H76.0396H77.0396V64.0176H76.0396ZM76.0396 65.0308V64.0308H66.1763V65.0308V66.0308H76.0396V65.0308ZM66.1763 65.0308H67.1763V63.1875H66.1763H65.1763V65.0308H66.1763ZM66.1763 63.1875V64.1875H73.7812V63.1875V62.1875H66.1763V63.1875ZM73.7812 63.1875H74.7812V63.0166H73.7812H72.7812V63.1875H73.7812ZM73.7812 63.0166L74.7797 62.9611C74.7414 62.2709 74.5973 61.5995 74.3491 60.9505L73.415 61.3076L72.481 61.6648C72.656 62.1225 72.756 62.5904 72.7828 63.0721L73.7812 63.0166ZM73.415 61.3076L74.3536 60.9626C74.0891 60.2431 73.6574 59.6349 73.0632 59.1596L72.4385 59.9404L71.8138 60.7213C72.1147 60.9621 72.334 61.2653 72.4765 61.6527L73.415 61.3076ZM72.4385 59.9404L73.0632 59.1596C72.3851 58.6171 71.5287 58.4033 70.6074 58.4033V59.4033V60.4033C71.2324 60.4033 71.5966 60.5476 71.8138 60.7213L72.4385 59.9404ZM70.6074 59.4033V58.4033C69.9465 58.4033 69.3177 58.5463 68.7375 58.8419L69.1914 59.7329L69.6453 60.6239C69.9277 60.4801 70.2429 60.4033 70.6074 60.4033V59.4033ZM69.1914 59.7329L68.751 58.8351C68.1613 59.1244 67.6691 59.5532 67.2732 60.095L68.0806 60.6851L68.888 61.2751C69.1105 60.9705 69.3589 60.7646 69.6318 60.6307L69.1914 59.7329ZM68.0806 60.6851L67.2732 60.095C66.8803 60.6327 66.594 61.2636 66.3974 61.9657L67.3604 62.2354L68.3233 62.505C68.4685 61.9864 68.6624 61.5838 68.888 61.2751L68.0806 60.6851ZM67.3604 62.2354L66.3974 61.9657C66.1965 62.683 66.104 63.4808 66.104 64.3472H67.104H68.104C68.104 63.6184 68.1824 63.0084 68.3233 62.505L67.3604 62.2354ZM67.104 64.3472H66.104V64.8599H67.104H68.104V64.3472H67.104ZM67.104 64.8599H66.104C66.104 65.5784 66.2021 66.2685 66.4049 66.925L67.3604 66.6299L68.3158 66.3348C68.1768 65.8845 68.104 65.3946 68.104 64.8599H67.104ZM67.3604 66.6299L66.4103 66.9419C66.6239 67.5925 66.9353 68.181 67.35 68.6969L68.1294 68.0703L68.9088 67.4438C68.6561 67.1295 68.4549 66.7578 68.3104 66.3179L67.3604 66.6299ZM68.1294 68.0703L67.3575 68.706C67.7892 69.2303 68.3128 69.6453 68.9212 69.9443L69.3623 69.0469L69.8034 68.1494C69.4516 67.9765 69.1532 67.7404 68.9013 67.4346L68.1294 68.0703ZM69.3623 69.0469L68.9271 69.9472C69.569 70.2575 70.2745 70.4009 71.0225 70.4009V69.4009V68.4009C70.5335 68.4009 70.1322 68.3083 69.7975 68.1465L69.3623 69.0469ZM71.0225 69.4009V70.4009C71.9555 70.4009 72.8157 70.2099 73.5558 69.7745L73.0488 68.9126L72.5418 68.0507C72.1752 68.2663 71.6845 68.4009 71.0225 68.4009V69.4009ZM73.0488 68.9126L73.5558 69.7745C74.2286 69.3788 74.8088 68.8537 75.2972 68.2121L74.5015 67.6064L73.7058 67.0008C73.364 67.4497 72.9759 67.7953 72.5418 68.0507L73.0488 68.9126ZM74.5015 67.6064L73.8793 68.3894L75.2465 69.4758L75.8687 68.6929L76.4908 67.91L75.1236 66.8235L74.5015 67.6064ZM75.8687 68.6929L75.0342 68.1418C74.8033 68.4914 74.5011 68.8377 74.1179 69.1784L74.7822 69.9258L75.4466 70.6732C75.9423 70.2326 76.3643 69.757 76.7031 69.2439L75.8687 68.6929ZM74.7822 69.9258L74.1179 69.1784C73.7833 69.4758 73.3519 69.7349 72.8037 69.9431L73.1587 70.8779L73.5137 71.8128C74.2513 71.5327 74.9023 71.157 75.4466 70.6732L74.7822 69.9258ZM73.1587 70.8779L72.7997 69.9446C72.3066 70.1342 71.6813 70.2441 70.9004 70.2441V71.2441V72.2441C71.861 72.2441 72.7412 72.1099 73.5177 71.8113L73.1587 70.8779ZM82.2163 69.6328L83.1552 69.9771L83.1639 69.9533L83.1714 69.9292L82.2163 69.6328ZM85.8906 57.792V56.792H85.1539L84.9356 57.4956L85.8906 57.792ZM88.3076 57.792L89.2522 58.1202L89.7137 56.792H88.3076V57.792ZM83.0098 73.0386L83.9461 73.3897L83.9504 73.3783L83.9544 73.3668L83.0098 73.0386ZM82.5215 74.0884L81.6429 73.6109L81.6367 73.6222L81.6309 73.6336L82.5215 74.0884ZM80.6416 76.0049L80.2078 75.1039L80.1977 75.1087L80.1877 75.1138L80.6416 76.0049ZM77.8218 76.1392L76.8218 76.1458L76.8268 76.8949L77.5471 77.1007L77.8218 76.1392ZM77.8096 74.3081L77.9336 73.3158L76.802 73.1744L76.8096 74.3148L77.8096 74.3081ZM78.1147 74.3325L78.2252 73.3386L78.1994 73.3358L78.1735 73.3342L78.1147 74.3325ZM79.7261 74.1494L79.3843 73.2096L79.375 73.213L79.3657 73.2166L79.7261 74.1494ZM80.6294 73.478L79.8545 72.8459L79.8455 72.857L79.8368 72.8683L80.6294 73.478ZM81.2764 72.1963L80.3375 71.852L80.3316 71.8681L80.3263 71.8843L81.2764 72.1963ZM79.5186 57.792L80.4669 57.4747L80.2385 56.792H79.5186V57.792ZM82.9487 68.0459L83.9197 67.8069L83.91 67.7673L83.8971 67.7287L82.9487 68.0459ZM83.5347 70.4263L83.9899 71.3166L84.695 70.9562L84.5057 70.1873L83.5347 70.4263ZM81.9111 71.2563L80.9705 71.5958L81.3557 72.6634L82.3664 72.1467L81.9111 71.2563ZM77.0527 57.792V56.792H75.6288L76.1121 58.1314L77.0527 57.792ZM82.2163 69.6328L83.1714 69.9292L86.8457 58.0884L85.8906 57.792L84.9356 57.4956L81.2612 69.3364L82.2163 69.6328ZM85.8906 57.792V58.792H88.3076V57.792V56.792H85.8906V57.792ZM88.3076 57.792L87.363 57.4638L82.0652 72.7103L83.0098 73.0386L83.9544 73.3668L89.2522 58.1202L88.3076 57.792ZM83.0098 73.0386L82.0734 72.6875C81.9708 72.9612 81.8289 73.2686 81.6429 73.6109L82.5215 74.0884L83.4001 74.5659C83.621 74.1595 83.8046 73.767 83.9461 73.3897L83.0098 73.0386ZM82.5215 74.0884L81.6309 73.6336C81.4784 73.9323 81.2777 74.2225 81.0231 74.5039L81.7646 75.1748L82.5062 75.8457C82.8701 75.4435 83.174 75.0094 83.4121 74.5432L82.5215 74.0884ZM81.7646 75.1748L81.0231 74.5039C80.8056 74.7443 80.5376 74.9451 80.2078 75.1039L80.6416 76.0049L81.0754 76.9059C81.6245 76.6415 82.1052 76.2889 82.5062 75.8457L81.7646 75.1748ZM80.6416 76.0049L80.1877 75.1138C79.9271 75.2466 79.5735 75.3345 79.0913 75.3345V76.3345V77.3345C79.8136 77.3345 80.4935 77.2026 81.0955 76.8959L80.6416 76.0049ZM79.0913 76.3345V75.3345C78.9936 75.3345 78.8292 75.3202 78.5815 75.2764L78.4077 76.2612L78.2339 77.246C78.5396 77.3 78.8309 77.3345 79.0913 77.3345V76.3345ZM78.4077 76.2612L78.5815 75.2764C78.3055 75.2277 78.1556 75.1945 78.0965 75.1776L77.8218 76.1392L77.5471 77.1007C77.7158 77.1489 77.9566 77.1971 78.2339 77.246L78.4077 76.2612ZM77.8218 76.1392L78.8218 76.1325L78.8095 74.3014L77.8096 74.3081L76.8096 74.3148L76.8218 76.1458L77.8218 76.1392ZM77.8096 74.3081L77.6855 75.3004C77.7851 75.3128 77.9143 75.3225 78.056 75.3308L78.1147 74.3325L78.1735 73.3342C78.0385 73.3263 77.9643 73.3197 77.9336 73.3158L77.8096 74.3081ZM78.1147 74.3325L78.0043 75.3264C78.1478 75.3423 78.3006 75.3569 78.4199 75.3569V74.3569V73.3569C78.431 73.3569 78.4222 73.3573 78.3806 73.354C78.3434 73.351 78.2923 73.3461 78.2252 73.3386L78.1147 74.3325ZM78.4199 74.3569V75.3569C79.0169 75.3569 79.582 75.2771 80.0865 75.0822L79.7261 74.1494L79.3657 73.2166C79.154 73.2984 78.8483 73.3569 78.4199 73.3569V74.3569ZM79.7261 74.1494L80.0678 75.0892C80.6138 74.8907 81.0682 74.5477 81.422 74.0877L80.6294 73.478L79.8368 72.8683C79.7023 73.0431 79.5545 73.1477 79.3843 73.2096L79.7261 74.1494ZM80.6294 73.478L81.4043 74.1102C81.7601 73.674 82.0245 73.1233 82.2265 72.5083L81.2764 72.1963L80.3263 71.8843C80.1701 72.3598 80.0033 72.6636 79.8545 72.8459L80.6294 73.478ZM81.2764 72.1963L82.2152 72.5405L83.1552 69.9771L82.2163 69.6328L81.2774 69.2886L80.3375 71.852L81.2764 72.1963ZM79.5186 57.792L78.5702 58.1092L82.0004 68.3631L82.9487 68.0459L83.8971 67.7287L80.4669 57.4747L79.5186 57.792ZM82.9487 68.0459L81.9777 68.2849L82.5637 70.6653L83.5347 70.4263L84.5057 70.1873L83.9197 67.8069L82.9487 68.0459ZM83.5347 70.4263L83.0794 69.5359L81.4559 70.366L81.9111 71.2563L82.3664 72.1467L83.9899 71.3166L83.5347 70.4263ZM81.9111 71.2563L82.8518 70.9169L77.9934 57.4526L77.0527 57.792L76.1121 58.1314L80.9705 71.5958L81.9111 71.2563ZM77.0527 57.792V58.792H79.5186V57.792V56.792H77.0527V57.792Z" fill="black" mask="url(#path-2-outside-1_584_2222)"/>
</g>
<defs>
<clipPath id="clip0_584_2222">
<rect width="96" height="96" fill="white"/>
</clipPath>
</defs>
</svg>
