<svg width="443" height="247" viewBox="0 0 443 247" fill="none" xmlns="http://www.w3.org/2000/svg">
<g clip-path="url(#clip0_577_2189)">
<mask id="path-1-outside-1_577_2189" maskUnits="userSpaceOnUse" x="5" y="5.99999" width="419" height="198" fill="black">
<rect fill="white" x="5" y="5.99999" width="419" height="198"/>
<path d="M54 203H53.6C31.6 203 7.6 197 6.4 174.2C6 161 16 147 30.4 147C39.6 147 46.4 152.6 45.6 160.6C44.8 167 40.8 171 36.8 174.2C33.2 177.8 30 179.8 29.2 184.2C27.6 192.2 38 198.2 58 198.2C92.4 198.2 146.4 173.4 188.4 142.2C225.2 115.4 260.4 79.4 300 42.6C280.8 39 255.6 36.2 220.8 36.2C177.2 36.2 135.2 52.6 127.6 88.6C124.4 104.6 129.2 124.6 154.8 133.4C158 134.6 160 134.2 159.6 135.4C159.2 136.6 156.4 137 152 135.8C128.8 129 116.8 108.6 118.8 87.4C122.8 50.2 159.2 25.8 221.6 28.2C254.8 29.4 285.6 35.8 303.6 38.6C305.6 36.6 308.4 33.8 311.2 31.4C314.8 28.2 320 23.8 324 24.2C330 25 329.2 28.2 323.6 34.6C321.6 37 320 38.6 318 41C328 42.6 339.6 43.4 347.2 43C358 42.6 374.4 41.4 388.4 35.8C402 30.2 410.4 23.8 415.2 17.4C420.4 11 417.6 8.59998 419.6 7.79998C422.4 6.99999 422.8 13.4 420.8 17.8C418.4 23 414.8 28.6 405.6 37.8C386.4 57.8 357.6 89 338.8 112.6C318 138.6 296.4 167 296 181.8C296 185 298 187 301.2 187C307.6 187 318.8 181 331.6 170.6C339.6 164.2 346.4 158.2 350.8 154.2C352.8 152.6 354.4 151 355.6 152.2C356.4 153.4 354.8 155 352 157.8C346.8 162.6 339.6 169 329.6 177C321.6 183.4 308 192.6 296.8 193C286.8 193.4 279.2 189.8 278.8 178.2C278.4 163.8 291.2 145 308.4 123C324.4 102.2 354.4 69.4 374.8 52.2H374.4C347.6 72.2 320.4 94.6 294 117.4C263.6 143.8 240.4 164.6 217.6 186.2C212.8 190.6 210.8 193.8 207.2 191.4C204 188.6 206 183.8 208.4 180.6C231.6 148.2 271.6 81 293.2 54.2H292.8C278 68.6 226 120.2 190.4 146.2C150.8 175.8 95.6 203 54 203ZM247.2 152.6C262.8 138.6 294.8 110.6 322.4 88.2C344.4 70.2 363.6 55.4 384.4 41V40.6C372.8 45 358 46.6 346 47C336.8 47 325.2 46.2 315.2 45C295.6 73 266.8 126.6 247.2 152.6Z"/>
</mask>
<path d="M54 203H53.6C31.6 203 7.6 197 6.4 174.2C6 161 16 147 30.4 147C39.6 147 46.4 152.6 45.6 160.6C44.8 167 40.8 171 36.8 174.2C33.2 177.8 30 179.8 29.2 184.2C27.6 192.2 38 198.2 58 198.2C92.4 198.2 146.4 173.4 188.4 142.2C225.2 115.4 260.4 79.4 300 42.6C280.8 39 255.6 36.2 220.8 36.2C177.2 36.2 135.2 52.6 127.6 88.6C124.4 104.6 129.2 124.6 154.8 133.4C158 134.6 160 134.2 159.6 135.4C159.2 136.6 156.4 137 152 135.8C128.8 129 116.8 108.6 118.8 87.4C122.8 50.2 159.2 25.8 221.6 28.2C254.8 29.4 285.6 35.8 303.6 38.6C305.6 36.6 308.4 33.8 311.2 31.4C314.8 28.2 320 23.8 324 24.2C330 25 329.2 28.2 323.6 34.6C321.6 37 320 38.6 318 41C328 42.6 339.6 43.4 347.2 43C358 42.6 374.4 41.4 388.4 35.8C402 30.2 410.4 23.8 415.2 17.4C420.4 11 417.6 8.59998 419.6 7.79998C422.4 6.99999 422.8 13.4 420.8 17.8C418.4 23 414.8 28.6 405.6 37.8C386.4 57.8 357.6 89 338.8 112.6C318 138.6 296.4 167 296 181.8C296 185 298 187 301.2 187C307.6 187 318.8 181 331.6 170.6C339.6 164.2 346.4 158.2 350.8 154.2C352.8 152.6 354.4 151 355.6 152.2C356.4 153.4 354.8 155 352 157.8C346.8 162.6 339.6 169 329.6 177C321.6 183.4 308 192.6 296.8 193C286.8 193.4 279.2 189.8 278.8 178.2C278.4 163.8 291.2 145 308.4 123C324.4 102.2 354.4 69.4 374.8 52.2H374.4C347.6 72.2 320.4 94.6 294 117.4C263.6 143.8 240.4 164.6 217.6 186.2C212.8 190.6 210.8 193.8 207.2 191.4C204 188.6 206 183.8 208.4 180.6C231.6 148.2 271.6 81 293.2 54.2H292.8C278 68.6 226 120.2 190.4 146.2C150.8 175.8 95.6 203 54 203ZM247.2 152.6C262.8 138.6 294.8 110.6 322.4 88.2C344.4 70.2 363.6 55.4 384.4 41V40.6C372.8 45 358 46.6 346 47C336.8 47 325.2 46.2 315.2 45C295.6 73 266.8 126.6 247.2 152.6Z" fill="#B4C372"/>
<path d="M6.4 174.2L5.40046 174.23L5.4008 174.241L5.40138 174.253L6.4 174.2ZM45.6 160.6L46.5923 160.724L46.5938 160.712L46.595 160.699L45.6 160.6ZM36.8 174.2L36.1753 173.419L36.1321 173.454L36.0929 173.493L36.8 174.2ZM29.2 184.2L30.1806 184.396L30.1823 184.387L30.1839 184.379L29.2 184.2ZM188.4 142.2L187.811 141.392L187.804 141.397L188.4 142.2ZM300 42.6L300.681 43.3325L302.133 41.9826L300.184 41.6171L300 42.6ZM127.6 88.6L126.622 88.3934L126.619 88.4039L127.6 88.6ZM154.8 133.4L155.151 132.464L155.138 132.459L155.125 132.454L154.8 133.4ZM159.6 135.4L158.651 135.084L158.651 135.084L159.6 135.4ZM152 135.8L151.719 136.76L151.728 136.762L151.737 136.765L152 135.8ZM118.8 87.4L117.806 87.2931L117.804 87.3061L118.8 87.4ZM221.6 28.2L221.562 29.1993L221.564 29.1993L221.6 28.2ZM303.6 38.6L303.446 39.5881L303.948 39.6662L304.307 39.3071L303.6 38.6ZM311.2 31.4L311.851 32.1592L311.858 32.1534L311.864 32.1474L311.2 31.4ZM324 24.2L324.132 23.2088L324.116 23.2066L324.1 23.2049L324 24.2ZM323.6 34.6L322.847 33.9415L322.839 33.9505L322.832 33.9598L323.6 34.6ZM318 41L317.232 40.3598L316.107 41.7098L317.842 41.9874L318 41ZM347.2 43L347.163 42.0007L347.155 42.001L347.147 42.0014L347.2 43ZM388.4 35.8L388.771 36.7285L388.781 36.7247L388.4 35.8ZM415.2 17.4L414.424 16.7694L414.412 16.7845L414.4 16.8L415.2 17.4ZM419.6 7.79998L419.325 6.83845L419.276 6.85251L419.229 6.8715L419.6 7.79998ZM420.8 17.8L421.708 18.219L421.71 18.2138L420.8 17.8ZM405.6 37.8L404.893 37.0929L404.886 37.1001L404.879 37.1075L405.6 37.8ZM338.8 112.6L339.581 113.225L339.582 113.223L338.8 112.6ZM296 181.8L295 181.773L295 181.786V181.8H296ZM331.6 170.6L330.975 169.819L330.969 169.824L331.6 170.6ZM350.8 154.2L350.175 153.419L350.151 153.439L350.127 153.46L350.8 154.2ZM355.6 152.2L356.432 151.645L356.377 151.563L356.307 151.493L355.6 152.2ZM352 157.8L352.678 158.535L352.693 158.521L352.707 158.507L352 157.8ZM329.6 177L330.225 177.781L330.225 177.781L329.6 177ZM296.8 193L296.764 192.001L296.76 192.001L296.8 193ZM278.8 178.2L277.8 178.228L277.801 178.234L278.8 178.2ZM308.4 123L309.188 123.616L309.193 123.61L308.4 123ZM374.8 52.2L375.445 52.9645L377.537 51.2H374.8V52.2ZM374.4 52.2V51.2H374.068L373.802 51.3986L374.4 52.2ZM294 117.4L293.346 116.643L293.344 116.645L294 117.4ZM217.6 186.2L218.276 186.937L218.282 186.932L218.288 186.926L217.6 186.2ZM207.2 191.4L206.541 192.153L206.591 192.196L206.645 192.232L207.2 191.4ZM208.4 180.6L209.2 181.2L209.207 181.191L209.213 181.182L208.4 180.6ZM293.2 54.2L293.979 54.8275L295.29 53.2H293.2V54.2ZM292.8 54.2V53.2H292.394L292.103 53.4833L292.8 54.2ZM190.4 146.2L189.81 145.392L189.801 145.399L190.4 146.2ZM247.2 152.6L246.401 151.998L247.868 153.344L247.2 152.6ZM322.4 88.2L323.03 88.9765L323.033 88.9739L322.4 88.2ZM384.4 41L384.969 41.8222L385.4 41.5239V41H384.4ZM384.4 40.6H385.4V39.1512L384.045 39.665L384.4 40.6ZM346 47V48H346.017L346.033 47.9994L346 47ZM315.2 45L315.319 44.0071L314.724 43.9357L314.381 44.4265L315.2 45ZM54 203V202H53.6V203V204H54V203ZM53.6 203V202C42.6636 202 31.3404 200.504 22.6391 196.252C13.9957 192.027 7.97578 185.113 7.39862 174.147L6.4 174.2L5.40138 174.253C6.02422 186.086 12.6043 193.573 21.7609 198.048C30.8596 202.496 42.5364 204 53.6 204V203ZM6.4 174.2L7.39954 174.17C7.0118 161.374 16.7118 148 30.4 148V147V146C15.2882 146 4.98821 160.626 5.40046 174.23L6.4 174.2ZM30.4 147V148C34.8059 148 38.5576 149.341 41.0925 151.553C43.6079 153.749 44.9715 156.835 44.605 160.5L45.6 160.6L46.595 160.699C47.0285 156.365 45.3921 152.651 42.4075 150.047C39.4424 147.459 35.1941 146 30.4 146V147ZM45.6 160.6L44.6077 160.476C43.8581 166.473 40.1243 170.26 36.1753 173.419L36.8 174.2L37.4247 174.981C41.4757 171.74 45.7419 167.527 46.5923 160.724L45.6 160.6ZM36.8 174.2L36.0929 173.493C35.209 174.377 34.3519 175.16 33.5247 175.931C32.7055 176.694 31.9141 177.445 31.2067 178.231C29.7739 179.823 28.6588 181.586 28.2161 184.021L29.2 184.2L30.1839 184.379C30.5412 182.414 31.4261 180.977 32.6933 179.569C33.3359 178.855 34.0695 178.156 34.8878 177.394C35.6981 176.64 36.591 175.823 37.5071 174.907L36.8 174.2ZM29.2 184.2L28.2194 184.004C27.7695 186.254 28.1664 188.39 29.3663 190.295C30.5528 192.18 32.4897 193.787 35.0455 195.091C40.1459 197.693 47.9263 199.2 58 199.2V198.2V197.2C48.0737 197.2 40.6541 195.707 35.9545 193.309C33.6103 192.113 31.9972 190.72 31.0587 189.23C30.1336 187.76 29.8305 186.146 30.1806 184.396L29.2 184.2ZM58 198.2V199.2C75.4021 199.2 97.6507 192.938 120.751 182.816C143.873 172.684 167.938 158.646 188.996 143.003L188.4 142.2L187.804 141.397C166.862 156.954 142.927 170.915 119.949 180.984C96.9493 191.062 74.9979 197.2 58 197.2V198.2ZM188.4 142.2L188.989 143.008C225.853 116.162 261.133 80.0837 300.681 43.3325L300 42.6L299.319 41.8675C259.667 78.7163 224.547 114.638 187.811 141.392L188.4 142.2ZM300 42.6L300.184 41.6171C280.917 38.0046 255.655 35.2 220.8 35.2V36.2V37.2C255.545 37.2 280.683 39.9954 299.816 43.5829L300 42.6ZM220.8 36.2V35.2C198.889 35.2 177.324 39.3186 160.246 48.0087C143.157 56.7053 130.5 70.0198 126.622 88.3934L127.6 88.6L128.578 88.8065C132.3 71.1801 144.443 58.2947 161.154 49.7912C177.876 41.2813 199.111 37.2 220.8 37.2V36.2ZM127.6 88.6L126.619 88.4039C124.987 96.5663 125.384 105.801 129.503 114.143C133.634 122.508 141.457 129.871 154.475 134.346L154.8 133.4L155.125 132.454C142.543 128.129 135.166 121.092 131.297 113.257C127.416 105.399 127.013 96.6337 128.581 88.7961L127.6 88.6ZM154.8 133.4L154.449 134.336C156.129 134.966 157.548 135.192 158.321 135.373C158.778 135.481 158.858 135.542 158.831 135.52C158.778 135.476 158.694 135.376 158.662 135.227C158.635 135.101 158.667 135.036 158.651 135.084L159.6 135.4L160.549 135.716C160.633 135.464 160.69 135.149 160.618 134.81C160.541 134.449 160.341 134.174 160.106 133.98C159.717 133.658 159.172 133.519 158.779 133.427C157.852 133.208 156.671 133.034 155.151 132.464L154.8 133.4ZM159.6 135.4L158.651 135.084C158.664 135.046 158.662 135.124 158.427 135.237C158.19 135.352 157.799 135.459 157.223 135.503C156.076 135.591 154.397 135.417 152.263 134.835L152 135.8L151.737 136.765C154.003 137.383 155.924 137.609 157.377 137.497C158.101 137.441 158.76 137.298 159.298 137.038C159.838 136.776 160.336 136.354 160.549 135.716L159.6 135.4ZM152 135.8L152.281 134.84C129.565 128.182 117.838 108.242 119.796 87.4939L118.8 87.4L117.804 87.3061C115.762 108.958 128.035 129.818 151.719 136.76L152 135.8ZM118.8 87.4L119.794 87.5069C121.758 69.2416 131.663 54.1085 148.815 43.8073C165.996 33.4886 190.485 28.004 221.562 29.1993L221.6 28.2L221.638 27.2007C190.315 25.996 165.404 31.5113 147.785 42.0927C130.137 52.6915 119.842 68.3584 117.806 87.2931L118.8 87.4ZM221.6 28.2L221.564 29.1993C254.686 30.3965 285.385 36.7786 303.446 39.5881L303.6 38.6L303.754 37.6119C285.815 34.8214 254.914 28.4035 221.636 27.2006L221.6 28.2ZM303.6 38.6L304.307 39.3071C306.311 37.3031 309.085 34.5303 311.851 32.1592L311.2 31.4L310.549 30.6407C307.715 33.0697 304.889 35.8968 302.893 37.8929L303.6 38.6ZM311.2 31.4L311.864 32.1474C313.664 30.5477 315.813 28.6945 317.992 27.2906C320.211 25.8603 322.261 25.031 323.9 25.195L324 24.2L324.1 23.2049C321.739 22.9689 319.189 24.1397 316.908 25.6094C314.587 27.1055 312.336 29.0523 310.536 30.6526L311.2 31.4ZM324 24.2L323.868 25.1912C325.312 25.3838 326.181 25.7047 326.655 26.0616C327.05 26.359 327.2 26.6936 327.154 27.2121C327.1 27.8217 326.766 28.6827 326.024 29.852C325.295 31.002 324.233 32.358 322.847 33.9415L323.6 34.6L324.353 35.2585C325.767 33.642 326.905 32.198 327.713 30.9229C328.509 29.6673 329.05 28.4782 329.146 27.3879C329.25 26.2064 328.825 25.1909 327.857 24.4634C326.969 23.7953 325.688 23.4162 324.132 23.2088L324 24.2ZM323.6 34.6L322.832 33.9598C321.845 35.1433 320.957 36.1303 320.057 37.131C319.157 38.1303 318.246 39.1433 317.232 40.3598L318 41L318.768 41.6402C319.755 40.4566 320.643 39.4697 321.543 38.4689C322.443 37.4697 323.354 36.4566 324.368 35.2402L323.6 34.6ZM318 41L317.842 41.9874C327.89 43.595 339.563 44.4033 347.253 43.9986L347.2 43L347.147 42.0014C339.637 42.3966 328.11 41.6049 318.158 40.0125L318 41ZM347.2 43L347.237 43.9993C358.049 43.5988 374.599 42.3973 388.771 36.7285L388.4 35.8L388.029 34.8715C374.201 40.4027 357.951 41.6011 347.163 42.0007L347.2 43ZM388.4 35.8L388.781 36.7247C402.485 31.0819 411.058 24.5898 416 18L415.2 17.4L414.4 16.8C409.742 23.0101 401.515 29.3181 388.019 34.8753L388.4 35.8ZM415.2 17.4L415.976 18.0306C418.686 14.6947 419.366 12.324 419.591 10.6321C419.645 10.2279 419.672 9.86791 419.696 9.5868C419.722 9.28706 419.743 9.1011 419.775 8.96031C419.789 8.89628 419.803 8.85784 419.813 8.83568C419.822 8.81539 419.827 8.80889 419.828 8.80819C419.828 8.80785 419.833 8.80177 419.849 8.79004C419.868 8.77723 419.905 8.75511 419.971 8.72846L419.6 7.79998L419.229 6.8715C418.857 7.02013 418.528 7.23522 418.272 7.55114C418.02 7.86268 417.896 8.20451 417.825 8.51465C417.757 8.81136 417.728 9.13165 417.704 9.41629C417.678 9.71955 417.655 10.022 417.609 10.3678C417.434 11.6759 416.914 13.7052 414.424 16.7694L415.2 17.4ZM419.6 7.79998L419.875 8.7615C420.044 8.71321 420.13 8.7339 420.175 8.75142C420.229 8.77242 420.322 8.82917 420.438 8.99006C420.688 9.33768 420.912 9.99483 421.005 10.9471C421.188 12.8228 420.817 15.3465 419.89 17.3862L420.8 17.8L421.71 18.2138C422.783 15.8534 423.212 12.9772 422.995 10.7529C422.888 9.65513 422.612 8.58729 422.062 7.82241C421.778 7.42705 421.396 7.08067 420.9 6.88761C420.395 6.69107 419.856 6.68675 419.325 6.83845L419.6 7.79998ZM420.8 17.8L419.892 17.3809C417.554 22.4457 414.035 27.9512 404.893 37.0929L405.6 37.8L406.307 38.5071C415.565 29.2488 419.246 23.5542 421.708 18.219L420.8 17.8ZM405.6 37.8L404.879 37.1075C385.673 57.1128 356.847 88.3397 338.018 111.977L338.8 112.6L339.582 113.223C358.353 89.6603 387.127 58.4871 406.321 38.4925L405.6 37.8ZM338.8 112.6L338.019 111.975C327.619 124.976 316.993 138.607 308.915 150.849C304.876 156.97 301.46 162.765 299.025 167.977C296.599 173.17 295.106 177.868 295 181.773L296 181.8L297 181.827C297.094 178.332 298.451 173.93 300.837 168.823C303.215 163.735 306.574 158.03 310.585 151.951C318.607 139.793 329.181 126.224 339.581 113.225L338.8 112.6ZM296 181.8H295C295 183.611 295.57 185.184 296.693 186.307C297.816 187.43 299.389 188 301.2 188V187V186C299.811 186 298.784 185.57 298.107 184.893C297.43 184.216 297 183.189 297 181.8H296ZM301.2 187V188C304.656 188 309.238 186.4 314.474 183.58C319.744 180.743 325.797 176.604 332.231 171.376L331.6 170.6L330.969 169.824C324.603 174.996 318.656 179.057 313.526 181.82C308.362 184.6 304.144 186 301.2 186V187ZM331.6 170.6L332.225 171.381C340.246 164.964 347.062 158.949 351.473 154.94L350.8 154.2L350.127 153.46C345.738 157.451 338.954 163.436 330.975 169.819L331.6 170.6ZM350.8 154.2L351.425 154.981C352.499 154.121 353.285 153.418 353.99 153.022C354.327 152.832 354.532 152.783 354.643 152.781C354.704 152.78 354.772 152.786 354.893 152.907L355.6 152.2L356.307 151.493C355.828 151.014 355.246 150.77 354.607 150.781C354.018 150.792 353.473 151.018 353.01 151.278C352.115 151.781 351.101 152.679 350.175 153.419L350.8 154.2ZM355.6 152.2L354.768 152.755C354.802 152.805 354.82 152.846 354.793 152.969C354.755 153.138 354.633 153.408 354.339 153.814C353.748 154.633 352.719 155.666 351.293 157.093L352 157.8L352.707 158.507C354.081 157.134 355.252 155.967 355.961 154.985C356.317 154.492 356.62 153.962 356.745 153.406C356.88 152.804 356.798 152.195 356.432 151.645L355.6 152.2ZM352 157.8L351.322 157.065C346.136 161.852 338.954 168.236 328.975 176.219L329.6 177L330.225 177.781C340.246 169.764 347.464 163.348 352.678 158.535L352 157.8ZM329.6 177L328.975 176.219C325.004 179.397 319.654 183.259 313.923 186.371C308.172 189.494 302.135 191.809 296.764 192.001L296.8 193L296.836 193.999C302.665 193.791 309.028 191.306 314.877 188.129C320.746 184.941 326.196 181.003 330.225 177.781L329.6 177ZM296.8 193L296.76 192.001C291.862 192.197 287.724 191.401 284.784 189.288C281.893 187.21 279.991 183.735 279.799 178.166L278.8 178.2L277.801 178.234C278.009 184.265 280.107 188.39 283.616 190.912C287.076 193.399 291.738 194.203 296.84 193.999L296.8 193ZM278.8 178.2L279.8 178.172C279.607 171.254 282.593 163.152 287.868 153.947C293.13 144.763 300.592 134.611 309.188 123.616L308.4 123L307.612 122.384C299.008 133.389 291.47 143.637 286.132 152.953C280.807 162.248 277.593 170.746 277.8 178.228L278.8 178.2ZM308.4 123L309.193 123.61C325.161 102.851 355.112 70.1073 375.445 52.9645L374.8 52.2L374.155 51.4355C353.688 68.6926 323.639 101.549 307.607 122.39L308.4 123ZM374.8 52.2V51.2H374.4V52.2V53.2H374.8V52.2ZM374.4 52.2L373.802 51.3986C346.977 71.4175 319.757 93.8339 293.346 116.643L294 117.4L294.654 118.157C321.043 95.3661 348.223 72.9825 374.998 53.0014L374.4 52.2ZM294 117.4L293.344 116.645C262.938 143.05 239.726 163.861 216.912 185.474L217.6 186.2L218.288 186.926C241.074 165.339 264.262 144.55 294.656 118.155L294 117.4ZM217.6 186.2L216.924 185.463C215.714 186.572 214.663 187.622 213.764 188.485C212.845 189.366 212.087 190.05 211.389 190.522C210.699 190.99 210.142 191.199 209.628 191.22C209.126 191.24 208.531 191.086 207.755 190.568L207.2 191.4L206.645 192.232C207.669 192.914 208.674 193.26 209.709 193.218C210.733 193.176 211.651 192.76 212.511 192.178C213.363 191.6 214.23 190.809 215.148 189.928C216.087 189.028 217.086 188.028 218.276 186.937L217.6 186.2ZM207.2 191.4L207.859 190.647C206.614 189.558 206.326 188.074 206.68 186.351C207.039 184.598 208.05 182.734 209.2 181.2L208.4 180.6L207.6 180C206.35 181.666 205.161 183.802 204.72 185.949C204.274 188.126 204.586 190.442 206.541 192.153L207.2 191.4ZM208.4 180.6L209.213 181.182C220.832 164.956 236.651 140.025 252.24 115.842C267.85 91.6265 283.219 68.1773 293.979 54.8275L293.2 54.2L292.421 53.5725C281.581 67.0227 266.15 90.5734 250.559 114.758C234.949 138.975 219.168 163.844 207.587 180.018L208.4 180.6ZM293.2 54.2V53.2H292.8V54.2V55.2H293.2V54.2ZM292.8 54.2L292.103 53.4833C277.275 67.9103 225.338 119.445 189.81 145.392L190.4 146.2L190.99 147.008C226.662 120.955 278.725 69.2897 293.497 54.9167L292.8 54.2ZM190.4 146.2L189.801 145.399C170.057 160.157 146.423 174.317 122.548 184.784C98.6605 195.257 74.6054 202 54 202V203V204C74.9946 204 99.3395 197.143 123.352 186.616C147.377 176.083 171.143 161.843 190.999 147.001L190.4 146.2ZM247.2 152.6L247.868 153.344C263.461 139.351 295.448 111.362 323.03 88.9764L322.4 88.2L321.77 87.4235C294.152 109.838 262.139 137.849 246.532 151.856L247.2 152.6ZM322.4 88.2L323.033 88.9739C345.02 70.985 364.198 56.2024 384.969 41.8222L384.4 41L383.831 40.1778C363.002 54.5975 343.78 69.415 321.767 87.426L322.4 88.2ZM384.4 41H385.4V40.6H384.4H383.4V41H384.4ZM384.4 40.6L384.045 39.665C372.601 44.0061 357.932 45.6017 345.967 46.0005L346 47L346.033 47.9994C358.068 47.5983 372.999 45.9939 384.755 41.535L384.4 40.6ZM346 47V46C336.848 46 325.288 45.2034 315.319 44.0071L315.2 45L315.081 45.9929C325.112 47.1966 336.752 48 346 48V47ZM315.2 45L314.381 44.4265C304.555 58.463 292.432 78.9027 280.343 99.0352C268.234 119.199 256.163 139.049 246.401 151.998L247.2 152.6L247.999 153.202C257.837 140.151 269.966 120.201 282.057 100.065C294.168 79.8973 306.245 59.537 316.019 45.5734L315.2 45Z" fill="black" mask="url(#path-1-outside-1_577_2189)"/>
<mask id="path-3-outside-2_577_2189" maskUnits="userSpaceOnUse" x="365" y="123" width="76" height="117" fill="black">
<rect fill="white" x="365" y="123" width="76" height="117"/>
<path d="M394.05 215.09C392.4 219.16 390.86 222.955 389.43 226.475C388.11 229.995 386.515 232.8 384.645 234.89C382.775 236.98 380.08 238.025 376.56 238.025C374.47 238.025 372.545 237.475 370.785 236.375C369.025 235.275 368.145 233.845 368.145 232.085C368.145 228.785 369.63 227.135 372.6 227.135L379.2 228.125C380.41 228.125 381.455 227.52 382.335 226.31C384.865 221.91 387.395 216.96 389.925 211.46C392.455 206.07 394.93 200.13 397.35 193.64C397.68 192.65 397.845 191.275 397.845 189.515C397.845 187.535 397.625 186.05 397.185 185.06L378.045 136.715C376.175 132.095 373.7 129.4 370.62 128.63C368.09 127.75 366.825 126.76 366.825 125.66C366.825 124.67 367.925 124.175 370.125 124.175L382.17 125L394.71 124.175C396.91 124.175 398.01 124.78 398.01 125.99C398.01 127.53 396.415 128.74 393.225 129.62C391.025 130.28 389.925 132.04 389.925 134.9C389.925 135.67 390.365 137.21 391.245 139.52L404.28 171.86C404.61 172.85 404.995 173.345 405.435 173.345C405.875 173.345 406.315 172.795 406.755 171.695L417.81 142.325C418.69 140.235 419.13 137.87 419.13 135.23C419.13 132.48 417.81 130.555 415.17 129.455C412.42 128.355 411.045 127.2 411.045 125.99C411.045 124.78 412.145 124.175 414.345 124.175L426.06 125L435.795 124.175C437.995 124.175 439.095 124.67 439.095 125.66C439.095 126.76 438.05 127.64 435.96 128.3C433.87 129.07 431.89 130.5 430.02 132.59C428.15 134.68 426.665 137.045 425.565 139.685L403.125 193.145L400.485 199.745C398.725 203.815 396.58 208.93 394.05 215.09Z"/>
</mask>
<path d="M394.05 215.09C392.4 219.16 390.86 222.955 389.43 226.475C388.11 229.995 386.515 232.8 384.645 234.89C382.775 236.98 380.08 238.025 376.56 238.025C374.47 238.025 372.545 237.475 370.785 236.375C369.025 235.275 368.145 233.845 368.145 232.085C368.145 228.785 369.63 227.135 372.6 227.135L379.2 228.125C380.41 228.125 381.455 227.52 382.335 226.31C384.865 221.91 387.395 216.96 389.925 211.46C392.455 206.07 394.93 200.13 397.35 193.64C397.68 192.65 397.845 191.275 397.845 189.515C397.845 187.535 397.625 186.05 397.185 185.06L378.045 136.715C376.175 132.095 373.7 129.4 370.62 128.63C368.09 127.75 366.825 126.76 366.825 125.66C366.825 124.67 367.925 124.175 370.125 124.175L382.17 125L394.71 124.175C396.91 124.175 398.01 124.78 398.01 125.99C398.01 127.53 396.415 128.74 393.225 129.62C391.025 130.28 389.925 132.04 389.925 134.9C389.925 135.67 390.365 137.21 391.245 139.52L404.28 171.86C404.61 172.85 404.995 173.345 405.435 173.345C405.875 173.345 406.315 172.795 406.755 171.695L417.81 142.325C418.69 140.235 419.13 137.87 419.13 135.23C419.13 132.48 417.81 130.555 415.17 129.455C412.42 128.355 411.045 127.2 411.045 125.99C411.045 124.78 412.145 124.175 414.345 124.175L426.06 125L435.795 124.175C437.995 124.175 439.095 124.67 439.095 125.66C439.095 126.76 438.05 127.64 435.96 128.3C433.87 129.07 431.89 130.5 430.02 132.59C428.15 134.68 426.665 137.045 425.565 139.685L403.125 193.145L400.485 199.745C398.725 203.815 396.58 208.93 394.05 215.09Z" fill="#B4C372"/>
<path d="M394.05 215.09L393.125 214.71L393.123 214.714L394.05 215.09ZM389.43 226.475L388.504 226.099L388.498 226.111L388.494 226.124L389.43 226.475ZM384.645 234.89L383.9 234.223L383.9 234.223L384.645 234.89ZM370.785 236.375L371.315 235.527L371.315 235.527L370.785 236.375ZM372.6 227.135L372.748 226.146L372.675 226.135H372.6V227.135ZM379.2 228.125L379.052 229.114L379.125 229.125H379.2V228.125ZM382.335 226.31L383.144 226.898L383.175 226.855L383.202 226.808L382.335 226.31ZM389.925 211.46L389.02 211.035L389.017 211.042L389.925 211.46ZM397.35 193.64L398.287 193.989L398.293 193.973L398.299 193.956L397.35 193.64ZM397.185 185.06L396.255 185.428L396.263 185.447L396.271 185.466L397.185 185.06ZM378.045 136.715L378.975 136.347L378.972 136.34L378.045 136.715ZM370.62 128.63L370.291 129.574L370.334 129.589L370.377 129.6L370.62 128.63ZM370.125 124.175L370.193 123.177L370.159 123.175H370.125V124.175ZM382.17 125L382.102 125.998L382.169 126.002L382.236 125.998L382.17 125ZM394.71 124.175V123.175H394.677L394.644 123.177L394.71 124.175ZM393.225 129.62L392.959 128.656L392.948 128.659L392.938 128.662L393.225 129.62ZM391.245 139.52L390.311 139.876L390.314 139.885L390.318 139.894L391.245 139.52ZM404.28 171.86L405.229 171.544L405.219 171.515L405.207 171.486L404.28 171.86ZM406.755 171.695L407.683 172.066L407.687 172.057L407.691 172.047L406.755 171.695ZM417.81 142.325L416.888 141.937L416.881 141.955L416.874 141.973L417.81 142.325ZM415.17 129.455L415.555 128.532L415.548 128.529L415.541 128.527L415.17 129.455ZM414.345 124.175L414.415 123.177L414.38 123.175H414.345V124.175ZM426.06 125L425.99 125.998L426.067 126.003L426.144 125.996L426.06 125ZM435.795 124.175V123.175H435.753L435.711 123.179L435.795 124.175ZM435.96 128.3L435.659 127.346L435.636 127.354L435.614 127.362L435.96 128.3ZM430.02 132.59L429.275 131.923L429.275 131.923L430.02 132.59ZM425.565 139.685L426.487 140.072L426.488 140.07L425.565 139.685ZM403.125 193.145L402.203 192.758L402.2 192.766L402.197 192.774L403.125 193.145ZM400.485 199.745L401.403 200.142L401.408 200.129L401.413 200.116L400.485 199.745ZM394.05 215.09L393.123 214.714C391.473 218.784 389.933 222.579 388.504 226.099L389.43 226.475L390.356 226.851C391.787 223.331 393.327 219.536 394.977 215.466L394.05 215.09ZM389.43 226.475L388.494 226.124C387.203 229.565 385.664 232.251 383.9 234.223L384.645 234.89L385.39 235.557C387.366 233.349 389.017 230.425 390.366 226.826L389.43 226.475ZM384.645 234.89L383.9 234.223C382.266 236.049 379.873 237.025 376.56 237.025V238.025V239.025C380.287 239.025 383.284 237.911 385.39 235.557L384.645 234.89ZM376.56 238.025V237.025C374.656 237.025 372.915 236.527 371.315 235.527L370.785 236.375L370.255 237.223C372.175 238.423 374.284 239.025 376.56 239.025V238.025ZM370.785 236.375L371.315 235.527C369.786 234.571 369.145 233.434 369.145 232.085H368.145H367.145C367.145 234.256 368.264 235.979 370.255 237.223L370.785 236.375ZM368.145 232.085H369.145C369.145 230.565 369.489 229.611 370.002 229.041C370.497 228.492 371.298 228.135 372.6 228.135V227.135V226.135C370.932 226.135 369.506 226.603 368.515 227.704C367.543 228.784 367.145 230.305 367.145 232.085H368.145ZM372.6 227.135L372.452 228.124L379.052 229.114L379.2 228.125L379.348 227.136L372.748 226.146L372.6 227.135ZM379.2 228.125V229.125C380.806 229.125 382.125 228.298 383.144 226.898L382.335 226.31L381.526 225.722C380.785 226.742 380.014 227.125 379.2 227.125V228.125ZM382.335 226.31L383.202 226.808C385.75 222.378 388.293 217.4 390.833 211.878L389.925 211.46L389.017 211.042C386.497 216.52 383.98 221.442 381.468 225.812L382.335 226.31ZM389.925 211.46L390.83 211.885C393.374 206.467 395.859 200.501 398.287 193.989L397.35 193.64L396.413 193.291C394.001 199.759 391.536 205.673 389.02 211.035L389.925 211.46ZM397.35 193.64L398.299 193.956C398.678 192.818 398.845 191.319 398.845 189.515H397.845H396.845C396.845 191.231 396.682 192.482 396.401 193.324L397.35 193.64ZM397.845 189.515H398.845C398.845 187.492 398.625 185.838 398.099 184.654L397.185 185.06L396.271 185.466C396.625 186.262 396.845 187.578 396.845 189.515H397.845ZM397.185 185.06L398.115 184.692L378.975 136.347L378.045 136.715L377.115 137.083L396.255 185.428L397.185 185.06ZM378.045 136.715L378.972 136.34C377.052 131.596 374.397 128.544 370.863 127.66L370.62 128.63L370.377 129.6C373.003 130.256 375.298 132.594 377.118 137.09L378.045 136.715ZM370.62 128.63L370.949 127.685C369.728 127.261 368.897 126.837 368.39 126.44C367.884 126.044 367.825 125.78 367.825 125.66H366.825H365.825C365.825 126.64 366.399 127.421 367.157 128.015C367.915 128.608 368.982 129.119 370.291 129.574L370.62 128.63ZM366.825 125.66H367.825C367.825 125.611 367.834 125.606 367.835 125.606C367.844 125.593 367.895 125.533 368.06 125.458C368.415 125.299 369.069 125.175 370.125 125.175V124.175V123.175C368.981 123.175 367.985 123.299 367.24 123.634C366.855 123.807 366.493 124.056 366.228 124.415C365.953 124.786 365.825 125.214 365.825 125.66H366.825ZM370.125 124.175L370.057 125.173L382.102 125.998L382.17 125L382.238 124.002L370.193 123.177L370.125 124.175ZM382.17 125L382.236 125.998L394.776 125.173L394.71 124.175L394.644 123.177L382.104 124.002L382.17 125ZM394.71 124.175V125.175C395.751 125.175 396.374 125.324 396.703 125.505C396.853 125.587 396.917 125.663 396.949 125.714C396.979 125.764 397.01 125.844 397.01 125.99H398.01H399.01C399.01 125.531 398.904 125.082 398.659 124.678C398.415 124.275 398.067 123.973 397.667 123.753C396.896 123.329 395.869 123.175 394.71 123.175V124.175ZM398.01 125.99H397.01C397.01 126.357 396.839 126.778 396.209 127.256C395.558 127.75 394.501 128.231 392.959 128.656L393.225 129.62L393.491 130.584C395.139 130.129 396.475 129.565 397.418 128.849C398.383 128.117 399.01 127.163 399.01 125.99H398.01ZM393.225 129.62L392.938 128.662C391.632 129.054 390.595 129.797 389.902 130.905C389.222 131.993 388.925 133.351 388.925 134.9H389.925H390.925C390.925 133.589 391.178 132.637 391.598 131.965C392.005 131.313 392.618 130.846 393.512 130.578L393.225 129.62ZM389.925 134.9H388.925C388.925 135.432 389.069 136.123 389.293 136.907C389.524 137.715 389.865 138.707 390.311 139.876L391.245 139.52L392.179 139.164C391.745 138.023 391.426 137.09 391.217 136.358C391.001 135.602 390.925 135.138 390.925 134.9H389.925ZM391.245 139.52L390.318 139.894L403.353 172.234L404.28 171.86L405.207 171.486L392.172 139.146L391.245 139.52ZM404.28 171.86L403.331 172.176C403.512 172.717 403.734 173.211 404.027 173.588C404.324 173.97 404.791 174.345 405.435 174.345V173.345V172.345C405.639 172.345 405.693 172.473 405.606 172.36C405.514 172.242 405.378 171.993 405.229 171.544L404.28 171.86ZM405.435 173.345V174.345C406.103 174.345 406.58 173.927 406.876 173.557C407.185 173.171 407.448 172.654 407.683 172.066L406.755 171.695L405.827 171.324C405.622 171.835 405.445 172.144 405.314 172.308C405.17 172.488 405.207 172.345 405.435 172.345V173.345ZM406.755 171.695L407.691 172.047L418.746 142.677L417.81 142.325L416.874 141.973L405.819 171.343L406.755 171.695ZM417.81 142.325L418.732 142.713C419.671 140.482 420.13 137.982 420.13 135.23H419.13H418.13C418.13 137.758 417.709 139.988 416.888 141.937L417.81 142.325ZM419.13 135.23H420.13C420.13 133.69 419.758 132.315 418.965 131.158C418.173 130.004 417.012 129.139 415.555 128.532L415.17 129.455L414.785 130.378C415.968 130.871 416.787 131.519 417.315 132.289C417.842 133.057 418.13 134.02 418.13 135.23H419.13ZM415.17 129.455L415.541 128.527C414.21 127.994 413.29 127.477 412.719 126.998C412.146 126.517 412.045 126.179 412.045 125.99H411.045H410.045C410.045 127.01 410.631 127.856 411.433 128.529C412.238 129.205 413.38 129.816 414.799 130.383L415.17 129.455ZM411.045 125.99H412.045C412.045 125.844 412.076 125.764 412.106 125.714C412.138 125.663 412.202 125.587 412.352 125.505C412.681 125.324 413.304 125.175 414.345 125.175V124.175V123.175C413.186 123.175 412.159 123.329 411.388 123.753C410.988 123.973 410.64 124.275 410.396 124.678C410.151 125.082 410.045 125.531 410.045 125.99H411.045ZM414.345 124.175L414.275 125.173L425.99 125.998L426.06 125L426.13 124.002L414.415 123.177L414.345 124.175ZM426.06 125L426.144 125.996L435.879 125.171L435.795 124.175L435.711 123.179L425.976 124.004L426.06 125ZM435.795 124.175V125.175C436.851 125.175 437.505 125.299 437.86 125.458C438.025 125.533 438.076 125.593 438.085 125.606C438.086 125.606 438.095 125.611 438.095 125.66H439.095H440.095C440.095 125.214 439.967 124.786 439.692 124.415C439.427 124.056 439.065 123.807 438.68 123.634C437.935 123.299 436.939 123.175 435.795 123.175V124.175ZM439.095 125.66H438.095C438.095 125.845 438.023 126.08 437.667 126.38C437.288 126.699 436.645 127.035 435.659 127.346L435.96 128.3L436.261 129.254C437.365 128.905 438.29 128.471 438.955 127.91C439.644 127.33 440.095 126.575 440.095 125.66H439.095ZM435.96 128.3L435.614 127.362C433.336 128.201 431.226 129.742 429.275 131.923L430.02 132.59L430.765 133.257C432.554 131.258 434.404 129.939 436.306 129.238L435.96 128.3ZM430.02 132.59L429.275 131.923C427.329 134.098 425.784 136.559 424.642 139.3L425.565 139.685L426.488 140.07C427.546 137.531 428.971 135.262 430.765 133.257L430.02 132.59ZM425.565 139.685L424.643 139.298L402.203 192.758L403.125 193.145L404.047 193.532L426.487 140.072L425.565 139.685ZM403.125 193.145L402.197 192.774L399.557 199.374L400.485 199.745L401.413 200.116L404.053 193.516L403.125 193.145ZM400.485 199.745L399.567 199.348C397.804 203.426 395.656 208.547 393.125 214.71L394.05 215.09L394.975 215.47C397.504 209.313 399.646 204.204 401.403 200.142L400.485 199.745Z" fill="black" mask="url(#path-3-outside-2_577_2189)"/>
</g>
<defs>
<clipPath id="clip0_577_2189">
<rect width="443" height="247" fill="white"/>
</clipPath>
</defs>
</svg>
