<svg width="491" height="343" viewBox="0 0 491 343" fill="none" xmlns="http://www.w3.org/2000/svg">
<g clip-path="url(#clip0_407_2176)">
<mask id="path-1-outside-1_407_2176" maskUnits="userSpaceOnUse" x="-31.8265" y="-1.86716" width="554.646" height="342.812" fill="black">
<rect fill="white" x="-31.8265" y="-1.86716" width="554.646" height="342.812"/>
<path d="M227.333 131.885C225.378 117.013 213.184 107.119 198.829 108.401C182.094 109.996 168.395 120.874 162.117 128.357C155.322 136.512 154.241 142.101 152.378 141.74C151.11 141.302 152.551 133.85 158.673 125.178C164.356 117.774 177.664 103.922 199.831 102.217C217.161 100.544 234.114 109.813 237.008 131.824C242.795 175.845 192.648 236.298 129.873 242.131C88.0746 246.416 60.383 233.717 56.8017 197.273C50.0303 127.359 138.532 59.4431 246.8 45.2082C292.606 39.1858 324.431 46.4996 343.685 54.8611C352.782 45.798 368.703 33.4168 382.198 25.5909C395.099 17.8432 418.628 8.09277 440.639 5.19887C459.675 2.69604 478.225 5.70356 486.177 15.5511C487.68 17.7741 488.587 20.0755 486.881 20.905C485.691 21.0614 485.535 19.8717 482.842 17.805C474.687 11.0101 459.784 8.12818 441.938 10.4746C424.091 12.821 403.301 20.3957 387.067 30.3973C371.943 39.6477 358.323 51.1211 350.855 58.7598C375.29 74.3072 398.941 106.902 375.267 152.376C356.086 190.603 311.892 204.281 291.9 208.724C281.866 210.649 267.51 211.931 261.922 210.85C227.696 258.922 190.342 283.199 171.211 294.186L171.289 294.781C188.337 295.565 218.863 297.604 232.545 295.805C249.797 293.537 266.063 288.372 279.01 276.382C284.411 271.436 284.772 269.573 286.118 270.606C287.386 271.045 287.26 274.692 282.015 280.828C269.897 294.525 251.361 305.434 227.566 308.563C201.391 312.004 172.055 309.809 149.935 307.271C126.718 319.401 90.9 327.742 59.9662 331.809C38.5505 334.624 5.44101 335.952 3.25103 319.295C1.21748 303.828 23.7613 291.181 61.4734 288.039C87.2097 285.865 133.672 289.439 159.439 292.103C190.171 268.092 212.874 233.639 242.419 186.787C266.358 147.935 299.802 93.9148 336.139 61.9049C322.395 54.0293 286.172 45.4783 248.694 50.4057C150.539 63.3109 77.755 121.899 82.1778 196.963C83.5217 220.992 99.1901 238.903 129.169 236.777C188.97 231.335 231.87 166.389 227.333 131.885ZM265.899 204.276C270.814 204.84 279.221 204.34 287.988 201.977C315.478 194.732 338.789 174.117 353.273 146.191C371.654 111.095 360.214 79.3151 344.06 66.9151C319.824 94.3081 293.299 159.522 276.436 187.761C271.504 196.277 267.965 201.584 265.899 204.276ZM139.948 304.953C118.58 303.527 82.4649 300.408 60.8928 302.034C31.4308 303.487 9.57664 307.57 10.9845 318.278C12.4705 329.581 43.1223 327.972 59.1841 325.86C89.523 321.871 124.668 313.014 139.948 304.953Z"/>
</mask>
<path d="M227.333 131.885C225.378 117.013 213.184 107.119 198.829 108.401C182.094 109.996 168.395 120.874 162.117 128.357C155.322 136.512 154.241 142.101 152.378 141.74C151.11 141.302 152.551 133.85 158.673 125.178C164.356 117.774 177.664 103.922 199.831 102.217C217.161 100.544 234.114 109.813 237.008 131.824C242.795 175.845 192.648 236.298 129.873 242.131C88.0746 246.416 60.383 233.717 56.8017 197.273C50.0303 127.359 138.532 59.4431 246.8 45.2082C292.606 39.1858 324.431 46.4996 343.685 54.8611C352.782 45.798 368.703 33.4168 382.198 25.5909C395.099 17.8432 418.628 8.09277 440.639 5.19887C459.675 2.69604 478.225 5.70356 486.177 15.5511C487.68 17.7741 488.587 20.0755 486.881 20.905C485.691 21.0614 485.535 19.8717 482.842 17.805C474.687 11.0101 459.784 8.12818 441.938 10.4746C424.091 12.821 403.301 20.3957 387.067 30.3973C371.943 39.6477 358.323 51.1211 350.855 58.7598C375.29 74.3072 398.941 106.902 375.267 152.376C356.086 190.603 311.892 204.281 291.9 208.724C281.866 210.649 267.51 211.931 261.922 210.85C227.696 258.922 190.342 283.199 171.211 294.186L171.289 294.781C188.337 295.565 218.863 297.604 232.545 295.805C249.797 293.537 266.063 288.372 279.01 276.382C284.411 271.436 284.772 269.573 286.118 270.606C287.386 271.045 287.26 274.692 282.015 280.828C269.897 294.525 251.361 305.434 227.566 308.563C201.391 312.004 172.055 309.809 149.935 307.271C126.718 319.401 90.9 327.742 59.9662 331.809C38.5505 334.624 5.44101 335.952 3.25103 319.295C1.21748 303.828 23.7613 291.181 61.4734 288.039C87.2097 285.865 133.672 289.439 159.439 292.103C190.171 268.092 212.874 233.639 242.419 186.787C266.358 147.935 299.802 93.9148 336.139 61.9049C322.395 54.0293 286.172 45.4783 248.694 50.4057C150.539 63.3109 77.755 121.899 82.1778 196.963C83.5217 220.992 99.1901 238.903 129.169 236.777C188.97 231.335 231.87 166.389 227.333 131.885ZM265.899 204.276C270.814 204.84 279.221 204.34 287.988 201.977C315.478 194.732 338.789 174.117 353.273 146.191C371.654 111.095 360.214 79.3151 344.06 66.9151C319.824 94.3081 293.299 159.522 276.436 187.761C271.504 196.277 267.965 201.584 265.899 204.276ZM139.948 304.953C118.58 303.527 82.4649 300.408 60.8928 302.034C31.4308 303.487 9.57664 307.57 10.9845 318.278C12.4705 329.581 43.1223 327.972 59.1841 325.86C89.523 321.871 124.668 313.014 139.948 304.953Z" fill="#B4C372"/>
<path d="M198.829 108.401L198.74 107.405L198.734 107.405L198.829 108.401ZM162.117 128.357L161.351 127.714L161.348 127.717L162.117 128.357ZM152.378 141.74L152.051 142.685L152.119 142.709L152.188 142.722L152.378 141.74ZM158.673 125.178L157.88 124.57L157.868 124.585L157.856 124.602L158.673 125.178ZM199.831 102.217L199.908 103.214L199.917 103.214L199.927 103.213L199.831 102.217ZM129.873 242.131L129.78 241.135L129.771 241.136L129.873 242.131ZM56.8017 197.273L55.8064 197.37L55.8065 197.371L56.8017 197.273ZM343.685 54.8611L343.287 55.7783L343.91 56.0489L344.391 55.5695L343.685 54.8611ZM382.198 25.5909L382.7 26.456L382.707 26.4521L382.713 26.4482L382.198 25.5909ZM486.177 15.5511L487.005 14.9911L486.982 14.9559L486.955 14.9228L486.177 15.5511ZM486.881 20.905L487.011 21.8965L487.172 21.8753L487.318 21.8043L486.881 20.905ZM482.842 17.805L482.202 18.5733L482.218 18.5861L482.233 18.5982L482.842 17.805ZM387.067 30.3973L387.588 31.2504L387.591 31.2487L387.067 30.3973ZM350.855 58.7598L350.14 58.0607L349.278 58.9419L350.318 59.6035L350.855 58.7598ZM375.267 152.376L374.38 151.915L374.376 151.921L374.373 151.928L375.267 152.376ZM291.9 208.724L292.089 209.707L292.103 209.704L292.117 209.701L291.9 208.724ZM261.922 210.85L262.112 209.869L261.48 209.747L261.107 210.27L261.922 210.85ZM171.211 294.186L170.713 293.319L170.132 293.653L170.22 294.317L171.211 294.186ZM171.289 294.781L170.298 294.911L170.407 295.742L171.243 295.78L171.289 294.781ZM279.01 276.382L278.335 275.645L278.331 275.648L279.01 276.382ZM286.118 270.606L285.509 271.399L285.638 271.498L285.791 271.551L286.118 270.606ZM282.015 280.828L282.764 281.491L282.77 281.484L282.775 281.478L282.015 280.828ZM149.935 307.271L150.049 306.278L149.744 306.243L149.472 306.385L149.935 307.271ZM61.4734 288.039L61.5564 289.035L61.5575 289.035L61.4734 288.039ZM159.439 292.103L159.336 293.098L159.737 293.139L160.055 292.891L159.439 292.103ZM242.419 186.787L243.265 187.321L243.27 187.312L242.419 186.787ZM336.139 61.9049L336.8 62.6552L337.849 61.7318L336.636 61.0372L336.139 61.9049ZM82.1778 196.963L83.1762 196.907L83.176 196.904L82.1778 196.963ZM129.169 236.777L129.239 237.774L129.249 237.774L129.259 237.773L129.169 236.777ZM265.899 204.276L265.105 203.667L264.03 205.068L265.785 205.269L265.899 204.276ZM287.988 201.977L287.733 201.01L287.727 201.011L287.988 201.977ZM353.273 146.191L352.387 145.727L352.385 145.73L353.273 146.191ZM344.06 66.9151L344.669 66.1219L343.929 65.554L343.311 66.2525L344.06 66.9151ZM276.436 187.761L275.577 187.249L275.571 187.26L276.436 187.761ZM139.948 304.953L140.415 305.838L143.537 304.191L140.015 303.956L139.948 304.953ZM60.8928 302.034L60.942 303.033L60.955 303.032L60.9679 303.031L60.8928 302.034ZM227.333 131.885L228.325 131.755C226.302 116.373 213.65 106.073 198.74 107.405L198.829 108.401L198.918 109.397C212.718 108.164 224.453 117.654 226.342 132.016L227.333 131.885ZM198.829 108.401L198.734 107.405C181.652 109.034 167.733 120.108 161.351 127.714L162.117 128.357L162.883 128.999C169.057 121.641 182.536 110.958 198.923 109.396L198.829 108.401ZM162.117 128.357L161.348 127.717C157.893 131.864 155.889 135.362 154.529 137.747C153.835 138.963 153.356 139.803 152.942 140.332C152.497 140.902 152.423 140.73 152.568 140.759L152.378 141.74L152.188 142.722C153.265 142.93 154.024 142.196 154.518 141.564C155.044 140.891 155.608 139.892 156.267 138.737C157.612 136.378 159.546 133.005 162.885 128.997L162.117 128.357ZM152.378 141.74L152.705 140.795C153.023 140.905 153.041 141.154 153 141.001C152.969 140.884 152.941 140.643 152.964 140.246C153.01 139.464 153.237 138.309 153.706 136.854C154.64 133.956 156.483 130.015 159.49 125.755L158.673 125.178L157.856 124.602C154.742 129.014 152.803 133.135 151.803 136.24C151.305 137.787 151.027 139.118 150.968 140.129C150.939 140.627 150.958 141.107 151.067 141.516C151.166 141.888 151.417 142.466 152.051 142.685L152.378 141.74ZM158.673 125.178L159.466 125.787C165.073 118.483 178.151 104.887 199.908 103.214L199.831 102.217L199.754 101.22C177.178 102.956 163.64 117.066 157.88 124.57L158.673 125.178ZM199.831 102.217L199.927 103.213C208.392 102.395 216.711 104.255 223.249 108.951C229.772 113.636 234.602 121.198 236.016 131.954L237.008 131.824L237.999 131.693C236.519 120.439 231.426 112.362 224.416 107.327C217.422 102.304 208.6 100.366 199.735 101.222L199.831 102.217ZM237.008 131.824L236.016 131.954C238.857 153.564 227.962 179.399 208.416 200.62C188.892 221.817 160.879 238.245 129.78 241.135L129.873 242.131L129.965 243.126C161.641 240.183 190.09 223.469 209.887 201.975C229.661 180.506 240.946 154.105 237.999 131.693L237.008 131.824ZM129.873 242.131L129.771 241.136C108.965 243.269 91.8368 241.153 79.5019 234.107C67.2309 227.098 59.561 215.127 57.7969 197.175L56.8017 197.273L55.8065 197.371C57.6237 215.863 65.5903 228.464 78.5099 235.844C91.3656 243.187 108.982 245.278 129.975 243.125L129.873 242.131ZM56.8017 197.273L57.7971 197.177C54.4574 162.696 74.6051 128.536 109.281 101.146C143.936 73.773 192.953 53.2965 246.931 46.1997L246.8 45.2082L246.67 44.2167C192.379 51.3548 143.012 71.9539 108.041 99.5763C73.0921 127.182 52.3746 161.937 55.8064 197.37L56.8017 197.273ZM246.8 45.2082L246.931 46.1997C292.569 40.1993 324.21 47.4936 343.287 55.7783L343.685 54.8611L344.084 53.9438C324.653 45.5056 292.644 38.1722 246.67 44.2167L246.8 45.2082ZM343.685 54.8611L344.391 55.5695C353.425 46.5685 369.278 34.2396 382.7 26.456L382.198 25.5909L381.697 24.7258C368.129 32.594 352.138 45.0275 342.98 54.1527L343.685 54.8611ZM382.198 25.5909L382.713 26.4482C395.516 18.759 418.916 9.06352 440.769 6.19034L440.639 5.19887L440.509 4.2074C418.34 7.12201 394.681 16.9274 381.684 24.7336L382.198 25.5909ZM440.639 5.19887L440.769 6.19034C450.203 4.95004 459.483 5.08044 467.361 6.72255C475.256 8.36833 481.626 11.5066 485.399 16.1793L486.177 15.5511L486.955 14.9228C482.776 9.74798 475.896 6.45878 467.769 4.76463C459.624 3.06681 450.111 2.94486 440.509 4.2074L440.639 5.19887ZM486.177 15.5511L485.348 16.1111C486.081 17.1952 486.593 18.195 486.754 18.9566C486.832 19.3291 486.808 19.5613 486.761 19.6942C486.724 19.795 486.655 19.9029 486.444 20.0056L486.881 20.905L487.318 21.8043C487.96 21.4923 488.417 21.0014 488.644 20.368C488.859 19.7666 488.834 19.129 488.711 18.5446C488.468 17.3924 487.775 16.13 487.005 14.9911L486.177 15.5511ZM486.881 20.905L486.751 19.9135C486.648 19.927 486.63 19.9127 486.604 19.8987C486.526 19.8563 486.403 19.7587 486.14 19.4895C485.638 18.9757 484.867 18.0988 483.451 17.0117L482.842 17.805L482.233 18.5982C483.51 19.5778 484.164 20.3291 484.71 20.8878C484.971 21.1548 485.279 21.4545 485.649 21.6557C486.071 21.8854 486.519 21.9612 487.011 21.8965L486.881 20.905ZM482.842 17.805L483.482 17.0367C475.013 9.98008 459.768 7.12166 441.807 9.48311L441.938 10.4746L442.068 11.466C459.8 9.13469 474.361 12.0401 482.202 18.5733L482.842 17.805ZM441.938 10.4746L441.807 9.48311C423.812 11.8491 402.888 19.4755 386.542 29.5459L387.067 30.3973L387.591 31.2487C403.714 21.3159 424.371 13.7928 442.068 11.466L441.938 10.4746ZM387.067 30.3973L386.545 29.5443C371.349 38.8388 357.664 50.3644 350.14 58.0607L350.855 58.7598L351.57 59.4588C358.981 51.8778 372.537 40.4565 387.588 31.2504L387.067 30.3973ZM350.855 58.7598L350.318 59.6035C362.407 67.2952 374.256 79.1777 380.167 94.7014C386.065 110.188 386.097 129.408 374.38 151.915L375.267 152.376L376.154 152.838C388.111 129.87 388.154 110.056 382.036 93.9897C375.932 77.9605 363.738 65.7717 351.392 57.9161L350.855 58.7598ZM375.267 152.376L374.373 151.928C355.415 189.711 311.65 203.31 291.683 207.748L291.9 208.724L292.117 209.701C312.134 205.251 356.757 191.495 376.16 152.825L375.267 152.376ZM291.9 208.724L291.712 207.742C286.735 208.697 280.675 209.494 275.167 209.917C269.623 210.344 264.759 210.381 262.112 209.869L261.922 210.85L261.732 211.832C264.673 212.401 269.781 212.337 275.32 211.911C280.896 211.483 287.031 210.676 292.089 209.707L291.9 208.724ZM261.922 210.85L261.107 210.27C226.993 258.186 189.768 282.375 170.713 293.319L171.211 294.186L171.709 295.053C190.916 284.022 228.4 259.658 262.736 211.43L261.922 210.85ZM171.211 294.186L170.22 294.317L170.298 294.911L171.289 294.781L172.281 294.651L172.203 294.056L171.211 294.186ZM171.289 294.781L171.243 295.78C179.747 296.171 191.666 296.878 203.146 297.261C214.609 297.643 225.741 297.708 232.676 296.796L232.545 295.805L232.415 294.813C225.668 295.7 214.695 295.645 203.213 295.262C191.747 294.88 179.88 294.175 171.335 293.782L171.289 294.781ZM232.545 295.805L232.676 296.796C250.033 294.514 266.53 289.302 279.69 277.116L279.01 276.382L278.331 275.648C265.595 287.442 249.561 292.559 232.415 294.813L232.545 295.805ZM279.01 276.382L279.685 277.12C282.41 274.624 283.918 272.853 284.8 271.951C285.024 271.722 285.192 271.564 285.327 271.456C285.392 271.403 285.441 271.37 285.477 271.348C285.512 271.327 285.528 271.321 285.526 271.322C285.506 271.329 285.451 271.337 285.399 271.323C285.369 271.316 285.399 271.315 285.509 271.399L286.118 270.606L286.727 269.813C286.5 269.639 286.224 269.47 285.896 269.386C285.545 269.296 285.199 269.319 284.871 269.432C284.308 269.628 283.815 270.097 283.37 270.553C282.384 271.56 281.011 273.194 278.335 275.645L279.01 276.382ZM286.118 270.606L285.791 271.551C285.639 271.499 285.714 271.403 285.763 271.692C285.813 271.984 285.791 272.506 285.552 273.289C285.078 274.844 283.827 277.169 281.255 280.178L282.015 280.828L282.775 281.478C285.448 278.351 286.882 275.785 287.465 273.872C287.755 272.922 287.855 272.066 287.735 271.359C287.615 270.649 287.231 269.933 286.445 269.661L286.118 270.606ZM282.015 280.828L281.266 280.166C269.31 293.68 250.994 304.474 227.436 307.571L227.566 308.563L227.696 309.554C251.728 306.394 270.485 295.37 282.764 281.491L282.015 280.828ZM227.566 308.563L227.436 307.571C201.387 310.996 172.151 308.814 150.049 306.278L149.935 307.271L149.821 308.265C171.959 310.805 201.395 313.012 227.696 309.554L227.566 308.563ZM149.935 307.271L149.472 306.385C126.411 318.433 90.7307 326.755 59.8358 330.817L59.9662 331.809L60.0965 332.8C91.0692 328.728 127.026 320.369 150.398 308.158L149.935 307.271ZM59.9662 331.809L59.8358 330.817C49.1526 332.222 35.6223 333.244 24.5225 331.862C18.9679 331.17 14.1066 329.885 10.527 327.808C6.97757 325.749 4.73993 322.948 4.2425 319.165L3.25103 319.295L2.25957 319.425C2.85712 323.97 5.57941 327.25 9.52322 329.538C13.4367 331.809 18.602 333.14 24.2754 333.846C35.6318 335.261 49.3641 334.211 60.0965 332.8L59.9662 331.809ZM3.25103 319.295L4.2425 319.165C3.30699 312.049 7.97501 305.338 17.9352 299.924C27.8632 294.527 42.775 290.6 61.5564 289.035L61.4734 288.039L61.3903 287.042C42.4597 288.62 27.2435 292.588 16.98 298.167C6.74863 303.728 1.16153 311.074 2.25957 319.425L3.25103 319.295ZM61.4734 288.039L61.5575 289.035C87.187 286.871 133.56 290.433 159.336 293.098L159.439 292.103L159.542 291.108C133.784 288.445 87.2323 284.86 61.3892 287.042L61.4734 288.039ZM159.439 292.103L160.055 292.891C190.948 268.754 213.737 234.144 243.265 187.321L242.419 186.787L241.573 186.254C212.01 233.133 189.395 267.429 158.823 291.315L159.439 292.103ZM242.419 186.787L243.27 187.312C267.232 148.423 300.597 94.5466 336.8 62.6552L336.139 61.9049L335.478 61.1545C299.006 93.283 265.485 147.447 241.567 186.263L242.419 186.787ZM336.139 61.9049L336.636 61.0372C329.618 57.0156 316.994 52.8829 301.477 50.367C285.937 47.8477 267.413 46.936 248.564 49.4142L248.694 50.4057L248.824 51.3972C267.452 48.948 285.779 49.8481 301.157 52.3413C316.556 54.8379 328.916 58.9185 335.642 62.7725L336.139 61.9049ZM248.694 50.4057L248.564 49.4142C199.335 55.8867 156.407 73.8215 126.318 99.6154C96.2188 125.419 78.9462 159.117 81.1795 197.021L82.1778 196.963L83.176 196.904C80.9866 159.744 97.8945 126.617 127.62 101.134C157.357 75.6416 199.898 57.8299 248.824 51.3972L248.694 50.4057ZM82.1778 196.963L81.1793 197.018C81.8623 209.231 86.193 219.984 94.2577 227.414C102.332 234.852 114.033 238.853 129.239 237.774L129.169 236.777L129.098 235.779C114.326 236.827 103.203 232.936 95.6128 225.943C88.0126 218.941 83.8371 208.724 83.1762 196.907L82.1778 196.963ZM129.169 236.777L129.259 237.773C159.498 235.021 185.398 217.237 203.147 195.868C212.026 185.177 218.889 173.563 223.249 162.43C227.605 151.31 229.488 140.605 228.325 131.755L227.333 131.885L226.342 132.016C227.446 140.418 225.669 150.769 221.387 161.701C217.111 172.619 210.362 184.051 201.608 194.59C184.091 215.68 158.64 233.091 129.078 235.781L129.169 236.777ZM265.899 204.276L265.785 205.269C270.848 205.85 279.382 205.332 288.248 202.942L287.988 201.977L287.727 201.011C279.059 203.348 270.781 203.83 266.013 203.282L265.899 204.276ZM287.988 201.977L288.242 202.944C316.055 195.614 339.573 174.779 354.16 146.651L353.273 146.191L352.385 145.73C338.006 173.455 314.9 193.85 287.733 201.01L287.988 201.977ZM353.273 146.191L354.158 146.655C372.739 111.18 361.253 78.8522 344.669 66.1219L344.06 66.9151L343.451 67.7084C359.175 79.7781 370.57 111.01 352.387 145.727L353.273 146.191ZM344.06 66.9151L343.311 66.2525C331.094 80.0603 318.351 103.328 306.591 126.569C294.793 149.884 283.985 173.169 275.577 187.249L276.436 187.761L277.294 188.274C285.749 174.115 296.636 150.673 308.375 127.472C320.152 104.199 332.789 81.1629 344.809 67.5777L344.06 66.9151ZM276.436 187.761L275.571 187.26C270.647 195.761 267.134 201.025 265.105 203.667L265.899 204.276L266.692 204.885C268.797 202.143 272.36 196.793 277.301 188.263L276.436 187.761ZM139.948 304.953L140.015 303.956C118.705 302.533 82.4823 299.404 60.8176 301.037L60.8928 302.034L60.9679 303.031C82.4475 301.412 118.455 304.521 139.881 305.951L139.948 304.953ZM60.8928 302.034L60.8435 301.035C46.1017 301.762 33.1764 303.149 24.0899 305.723C19.5546 307.008 15.8776 308.614 13.4083 310.656C10.8983 312.732 9.586 315.313 9.99301 318.409L10.9845 318.278L11.9759 318.148C11.679 315.89 12.5706 313.944 14.6829 312.198C16.836 310.417 20.1999 308.904 24.635 307.648C33.4891 305.139 46.2218 303.758 60.942 303.033L60.8928 302.034ZM10.9845 318.278L9.99301 318.409C10.4328 321.754 13.0279 323.988 16.4954 325.45C19.9761 326.917 24.5746 327.72 29.5428 328.097C39.4973 328.851 51.2525 327.911 59.3144 326.851L59.1841 325.86L59.0537 324.868C51.0538 325.92 39.4523 326.841 29.6939 326.102C24.8057 325.732 20.4588 324.95 17.2724 323.607C14.0729 322.258 12.2792 320.454 11.9759 318.148L10.9845 318.278ZM59.1841 325.86L59.3144 326.851C74.5251 324.851 90.9357 321.632 105.462 317.902C119.968 314.177 132.667 309.925 140.415 305.838L139.948 304.953L139.481 304.069C131.949 308.043 119.436 312.249 104.964 315.965C90.5134 319.676 74.1819 322.879 59.0537 324.868L59.1841 325.86Z" fill="black" mask="url(#path-1-outside-1_407_2176)"/>
</g>
<defs>
<clipPath id="clip0_407_2176">
<rect width="491" height="343" fill="white"/>
</clipPath>
</defs>
</svg>
