<svg width="353" height="191" viewBox="0 0 353 191" fill="none" xmlns="http://www.w3.org/2000/svg">
<g clip-path="url(#clip0_501_2257)">
<mask id="path-1-outside-1_501_2257" maskUnits="userSpaceOnUse" x="1" y="0.999992" width="349" height="185" fill="black">
<rect fill="white" x="1" y="0.999992" width="349" height="185"/>
<path d="M166.6 67.2C166.6 57.2 159.4 49.6 149.8 49.2C138.6 48.8 128.6 54.8 123.8 59.2C118.6 64 117.4 67.6 116.2 67.2C115.4 66.8 117 62 121.8 56.8C126.2 52.4 136.2 44.4 151 45.2C162.6 45.6 173 53.2 173 68C173 97.6 134.6 133.2 92.6 131.6C64.6 130.8 47.4 120 48.2 95.6C49.8 48.8 114.2 11.6 187 11.6C217.8 11.6 238.2 19.2 250.2 26.4C257 21.2 268.6 14.4 278.2 10.4C287.4 6.39999 303.8 1.99998 318.6 1.99998C331.4 1.99998 343.4 5.59998 347.8 12.8C348.6 14.4 349 16 347.8 16.4C347 16.4 347 15.6 345.4 14C340.6 8.79998 331 5.59998 319 5.59998C307 5.59998 292.6 8.79998 281 14C270.2 18.8 260.2 25.2 254.6 29.6C269.4 42 282.2 65.6 262.6 93.6C246.6 117.2 216.2 122.4 202.6 123.6C195.8 124 186.2 123.6 182.6 122.4C155.8 151.2 129 164 115.4 169.6V170C126.6 172 146.6 176 155.8 176C167.4 176 178.6 174 188.2 167.2C192.2 164.4 192.6 163.2 193.4 164C194.2 164.4 193.8 166.8 189.8 170.4C180.6 178.4 167.4 184 151.4 184C133.8 184 114.6 180 100.2 176.4C83.8 182.4 59.4 184.8 38.6 184.8C24.2 184.8 2.2 182.8 2.2 171.6C2.2 161.2 18.2 154.8 43.4 156C60.6 156.8 91 163.2 107.8 167.2C130.2 154 148.2 133.2 171.8 104.8C191 81.2 217.8 48.4 244.6 30.4C236.2 24 213 15.2 187.8 15.2C121.8 15.2 68.6 47.6 65 97.6C63.8 113.6 72.6 126.8 92.6 128C132.6 129.6 166.6 90.4 166.6 67.2ZM185.8 118.4C189 119.2 194.6 119.6 200.6 118.8C219.4 116.4 236.6 104.8 248.6 87.6C263.8 66 259 44 249.4 34.4C231 50.4 207.8 91.2 194.2 108.4C190.2 113.6 187.4 116.8 185.8 118.4ZM93.8 174C79.8 171.2 56.2 166 41.8 165.2C22.2 163.6 7.4 164.4 7.4 171.6C7.4 179.2 27.8 180.8 38.6 180.8C59 180.8 83 178 93.8 174Z"/>
</mask>
<path d="M166.6 67.2C166.6 57.2 159.4 49.6 149.8 49.2C138.6 48.8 128.6 54.8 123.8 59.2C118.6 64 117.4 67.6 116.2 67.2C115.4 66.8 117 62 121.8 56.8C126.2 52.4 136.2 44.4 151 45.2C162.6 45.6 173 53.2 173 68C173 97.6 134.6 133.2 92.6 131.6C64.6 130.8 47.4 120 48.2 95.6C49.8 48.8 114.2 11.6 187 11.6C217.8 11.6 238.2 19.2 250.2 26.4C257 21.2 268.6 14.4 278.2 10.4C287.4 6.39999 303.8 1.99998 318.6 1.99998C331.4 1.99998 343.4 5.59998 347.8 12.8C348.6 14.4 349 16 347.8 16.4C347 16.4 347 15.6 345.4 14C340.6 8.79998 331 5.59998 319 5.59998C307 5.59998 292.6 8.79998 281 14C270.2 18.8 260.2 25.2 254.6 29.6C269.4 42 282.2 65.6 262.6 93.6C246.6 117.2 216.2 122.4 202.6 123.6C195.8 124 186.2 123.6 182.6 122.4C155.8 151.2 129 164 115.4 169.6V170C126.6 172 146.6 176 155.8 176C167.4 176 178.6 174 188.2 167.2C192.2 164.4 192.6 163.2 193.4 164C194.2 164.4 193.8 166.8 189.8 170.4C180.6 178.4 167.4 184 151.4 184C133.8 184 114.6 180 100.2 176.4C83.8 182.4 59.4 184.8 38.6 184.8C24.2 184.8 2.2 182.8 2.2 171.6C2.2 161.2 18.2 154.8 43.4 156C60.6 156.8 91 163.2 107.8 167.2C130.2 154 148.2 133.2 171.8 104.8C191 81.2 217.8 48.4 244.6 30.4C236.2 24 213 15.2 187.8 15.2C121.8 15.2 68.6 47.6 65 97.6C63.8 113.6 72.6 126.8 92.6 128C132.6 129.6 166.6 90.4 166.6 67.2ZM185.8 118.4C189 119.2 194.6 119.6 200.6 118.8C219.4 116.4 236.6 104.8 248.6 87.6C263.8 66 259 44 249.4 34.4C231 50.4 207.8 91.2 194.2 108.4C190.2 113.6 187.4 116.8 185.8 118.4ZM93.8 174C79.8 171.2 56.2 166 41.8 165.2C22.2 163.6 7.4 164.4 7.4 171.6C7.4 179.2 27.8 180.8 38.6 180.8C59 180.8 83 178 93.8 174Z" fill="#B4C372"/>
<path d="M149.8 49.2L149.842 48.2008L149.836 48.2006L149.8 49.2ZM123.8 59.2L123.124 58.4628L123.122 58.4652L123.8 59.2ZM116.2 67.2L115.753 68.0944L115.816 68.1262L115.884 68.1487L116.2 67.2ZM121.8 56.8L121.093 56.0929L121.079 56.107L121.065 56.1217L121.8 56.8ZM151 45.2L150.946 46.1985L150.956 46.1991L150.966 46.1994L151 45.2ZM92.6 131.6L92.6381 130.601L92.6286 130.6L92.6 131.6ZM48.2 95.6L47.2006 95.5658L47.2005 95.5672L48.2 95.6ZM250.2 26.4L249.686 27.2575L250.268 27.6069L250.807 27.1943L250.2 26.4ZM278.2 10.4L278.585 11.3231L278.592 11.3201L278.599 11.3171L278.2 10.4ZM347.8 12.8L348.694 12.3528L348.675 12.3148L348.653 12.2785L347.8 12.8ZM347.8 16.4V17.4H347.962L348.116 17.3487L347.8 16.4ZM345.4 14L344.665 14.6783L344.679 14.693L344.693 14.7071L345.4 14ZM281 14L281.406 14.9138L281.409 14.9125L281 14ZM254.6 29.6L253.982 28.8137L253.013 29.5751L253.958 30.3665L254.6 29.6ZM262.6 93.6L261.781 93.0265L261.776 93.0326L261.772 93.0388L262.6 93.6ZM202.6 123.6L202.659 124.598L202.673 124.597L202.688 124.596L202.6 123.6ZM182.6 122.4L182.916 121.451L182.306 121.248L181.868 121.719L182.6 122.4ZM115.4 169.6L115.019 168.675L114.4 168.93V169.6H115.4ZM115.4 170H114.4V170.837L115.224 170.984L115.4 170ZM188.2 167.2L187.627 166.381L187.622 166.384L188.2 167.2ZM193.4 164L192.693 164.707L192.808 164.822L192.953 164.894L193.4 164ZM189.8 170.4L190.456 171.155L190.463 171.149L190.469 171.143L189.8 170.4ZM100.2 176.4L100.443 175.43L100.145 175.355L99.8564 175.461L100.2 176.4ZM43.4 156L43.3524 156.999L43.3535 156.999L43.4 156ZM107.8 167.2L107.568 168.173L107.96 168.266L108.308 168.062L107.8 167.2ZM171.8 104.8L172.569 105.439L172.576 105.431L171.8 104.8ZM244.6 30.4L245.158 31.2301L246.317 30.4512L245.206 29.6046L244.6 30.4ZM65 97.6L65.9972 97.6748L65.9974 97.6718L65 97.6ZM92.6 128L92.5401 128.998L92.5501 128.999L92.56 128.999L92.6 128ZM185.8 118.4L185.093 117.693L183.844 118.942L185.557 119.37L185.8 118.4ZM200.6 118.8L200.473 117.808L200.468 117.809L200.6 118.8ZM248.6 87.6L247.782 87.0245L247.78 87.0278L248.6 87.6ZM249.4 34.4L250.107 33.6929L249.448 33.0334L248.744 33.6454L249.4 34.4ZM194.2 108.4L193.416 107.78L193.407 107.79L194.2 108.4ZM93.8 174L94.1473 174.938L97.4576 173.712L93.9961 173.019L93.8 174ZM41.8 165.2L41.7186 166.197L41.7316 166.198L41.7445 166.198L41.8 165.2ZM166.6 67.2H167.6C167.6 56.6851 159.998 48.624 149.842 48.2008L149.8 49.2L149.758 50.1991C158.802 50.5759 165.6 57.7148 165.6 67.2H166.6ZM149.8 49.2L149.836 48.2006C138.287 47.7882 128.043 53.9538 123.124 58.4628L123.8 59.2L124.476 59.9371C129.157 55.6462 138.913 49.8118 149.764 50.1993L149.8 49.2ZM123.8 59.2L123.122 58.4652C120.455 60.9268 118.812 63.0841 117.703 64.5456C117.132 65.2991 116.759 65.7881 116.462 66.0805C116.127 66.4091 116.226 66.1545 116.516 66.2513L116.2 67.2L115.884 68.1487C116.774 68.4455 117.473 67.8908 117.863 67.507C118.291 67.0868 118.768 66.4508 119.297 65.7544C120.388 64.3159 121.945 62.2731 124.478 59.9348L123.8 59.2ZM116.2 67.2L116.647 66.3056C116.998 66.4809 117.014 66.7895 117.006 66.7222C117.002 66.6922 116.998 66.5698 117.045 66.3256C117.136 65.8508 117.374 65.135 117.804 64.2281C118.657 62.4269 120.198 60.0101 122.535 57.4783L121.8 56.8L121.065 56.1217C118.602 58.7898 116.943 61.3731 115.996 63.3719C115.526 64.365 115.214 65.2492 115.08 65.9494C115.015 66.2927 114.979 66.6515 115.022 66.9809C115.061 67.2729 115.202 67.8191 115.753 68.0944L116.2 67.2ZM121.8 56.8L122.507 57.5071C126.818 53.1958 136.557 45.4207 150.946 46.1985L151 45.2L151.054 44.2014C135.843 43.3793 125.582 51.6041 121.093 56.0929L121.8 56.8ZM151 45.2L150.966 46.1994C156.564 46.3924 161.82 48.321 165.666 51.9292C169.497 55.5236 172 60.8511 172 68H173H174C174 60.3489 171.303 54.4763 167.034 50.4707C162.78 46.479 157.036 44.4075 151.034 44.2006L151 45.2ZM173 68H172C172 82.3959 162.63 98.4405 147.909 110.732C133.214 123.003 113.349 131.39 92.6381 130.601L92.6 131.6L92.5619 132.599C113.851 133.41 134.186 124.797 149.191 112.268C164.17 99.7595 174 83.2041 174 68H173ZM92.6 131.6L92.6286 130.6C78.7225 130.203 67.6662 127.322 60.205 121.654C52.8024 116.03 48.8084 107.562 49.1995 95.6328L48.2 95.6L47.2005 95.5672C46.7916 108.038 50.9976 117.17 58.995 123.246C66.9338 129.278 78.4774 132.197 92.5714 132.6L92.6 131.6ZM48.2 95.6L49.1994 95.6342C49.9831 72.7119 66.1618 51.9696 91.4123 36.9088C116.639 21.862 150.758 12.6 187 12.6V11.6V10.6C150.442 10.6 115.961 19.938 90.3877 35.1911C64.8382 50.4303 48.0169 71.6881 47.2006 95.5658L48.2 95.6ZM187 11.6V12.6C217.631 12.6 237.851 20.1566 249.686 27.2575L250.2 26.4L250.714 25.5425C238.549 18.2433 217.969 10.6 187 10.6V11.6ZM250.2 26.4L250.807 27.1943C257.538 22.0478 269.062 15.2907 278.585 11.3231L278.2 10.4L277.815 9.4769C268.138 13.5093 256.462 20.3522 249.593 25.6056L250.2 26.4ZM278.2 10.4L278.599 11.3171C287.694 7.36239 303.959 2.99998 318.6 2.99998V1.99998V0.999983C303.641 0.999983 287.106 5.43758 277.801 9.48291L278.2 10.4ZM318.6 1.99998V2.99998C324.915 2.99998 330.999 3.88903 336.02 5.64398C341.058 7.40489 344.915 9.99682 346.947 13.3214L347.8 12.8L348.653 12.2785C346.285 8.40315 341.942 5.59508 336.68 3.75598C331.401 1.91094 325.085 0.999983 318.6 0.999983V1.99998ZM347.8 12.8L346.906 13.2472C347.291 14.0177 347.518 14.6757 347.553 15.1267C347.57 15.3437 347.534 15.4271 347.529 15.4369C347.529 15.4376 347.533 15.4317 347.538 15.4274C347.542 15.424 347.53 15.436 347.484 15.4513L347.8 16.4L348.116 17.3487C348.643 17.173 349.06 16.8334 349.308 16.3505C349.541 15.8979 349.58 15.4063 349.547 14.9733C349.482 14.1243 349.109 13.1823 348.694 12.3528L347.8 12.8ZM347.8 16.4V15.4C347.797 15.4 347.856 15.4085 347.901 15.4412C347.907 15.4455 347.893 15.4368 347.856 15.3952C347.818 15.3527 347.769 15.2925 347.7 15.2C347.419 14.8251 346.97 14.1553 346.107 13.2929L345.4 14L344.693 14.7071C345.43 15.4446 345.781 15.9748 346.1 16.4C346.249 16.5988 346.452 16.861 346.724 17.0587C347.044 17.2915 347.403 17.4 347.8 17.4V16.4ZM345.4 14L346.135 13.3217C341.057 7.82125 331.115 4.59998 319 4.59998V5.59998V6.59998C330.885 6.59998 340.143 9.77871 344.665 14.6783L345.4 14ZM319 5.59998V4.59998C306.849 4.59998 292.311 7.83385 280.591 13.0875L281 14L281.409 14.9125C292.889 9.76611 307.151 6.59998 319 6.59998V5.59998ZM281 14L280.594 13.0862C269.716 17.9206 259.646 24.3639 253.982 28.8137L254.6 29.6L255.218 30.3863C260.754 26.0361 270.684 19.6794 281.406 14.9138L281 14ZM254.6 29.6L253.958 30.3665C261.241 36.4685 267.99 45.2941 270.527 55.981C273.055 66.6293 271.432 79.2396 261.781 93.0265L262.6 93.6L263.419 94.1734C273.368 79.9604 275.145 66.7706 272.473 55.519C269.81 44.3059 262.759 35.1315 255.242 28.8335L254.6 29.6ZM262.6 93.6L261.772 93.0388C246.051 116.228 216.087 121.406 202.512 122.604L202.6 123.6L202.688 124.596C216.313 123.394 247.149 118.172 263.428 94.1611L262.6 93.6ZM202.6 123.6L202.541 122.602C199.182 122.799 195.12 122.8 191.454 122.601C187.752 122.401 184.575 122.004 182.916 121.451L182.6 122.4L182.284 123.349C184.225 123.996 187.648 124.399 191.346 124.599C195.08 124.8 199.218 124.801 202.659 124.598L202.6 123.6ZM182.6 122.4L181.868 121.719C155.198 150.379 128.538 163.109 115.019 168.675L115.4 169.6L115.781 170.525C129.462 164.891 156.402 152.021 183.332 123.081L182.6 122.4ZM115.4 169.6H114.4V170H115.4H116.4V169.6H115.4ZM115.4 170L115.224 170.984C120.804 171.981 128.63 173.485 136.187 174.737C143.727 175.985 151.106 177 155.8 177V176V175C151.294 175 144.073 174.015 136.513 172.763C128.97 171.515 121.196 170.019 115.576 169.016L115.4 170ZM155.8 176V177C167.506 177 178.942 174.983 188.778 168.016L188.2 167.2L187.622 166.384C178.258 173.017 167.294 175 155.8 175V176ZM188.2 167.2L188.773 168.019C190.801 166.6 191.976 165.541 192.618 165.036C192.992 164.742 193.067 164.737 193.014 164.748C192.94 164.763 192.836 164.76 192.738 164.721C192.662 164.69 192.645 164.66 192.693 164.707L193.4 164L194.107 163.293C193.955 163.14 193.75 162.972 193.484 162.865C193.195 162.749 192.898 162.73 192.611 162.789C192.133 162.888 191.708 163.208 191.382 163.464C190.624 164.059 189.599 165 187.627 166.381L188.2 167.2ZM193.4 164L192.953 164.894C192.709 164.772 192.734 164.574 192.738 164.699C192.743 164.826 192.703 165.116 192.49 165.586C192.067 166.516 191.074 167.908 189.131 169.657L189.8 170.4L190.469 171.143C192.526 169.292 193.733 167.684 194.31 166.414C194.597 165.784 194.757 165.174 194.737 164.625C194.716 164.076 194.491 163.428 193.847 163.106L193.4 164ZM189.8 170.4L189.144 169.645C180.128 177.486 167.161 183 151.4 183V184V185C167.639 185 181.072 179.314 190.456 171.155L189.8 170.4ZM151.4 184V183C133.927 183 114.825 179.026 100.443 175.43L100.2 176.4L99.9575 177.37C114.375 180.974 133.673 185 151.4 185V184ZM100.2 176.4L99.8564 175.461C83.6215 181.4 59.3608 183.8 38.6 183.8V184.8V185.8C59.4392 185.8 83.9785 183.399 100.544 177.339L100.2 176.4ZM38.6 184.8V183.8C31.4248 183.8 22.4268 183.3 15.2519 181.432C11.6598 180.497 8.60746 179.24 6.47284 177.595C4.36595 175.972 3.2 174.016 3.2 171.6H2.2H1.2C1.2 174.784 2.78405 177.278 5.25216 179.18C7.69254 181.06 11.0402 182.403 14.7481 183.368C22.1732 185.3 31.3752 185.8 38.6 185.8V184.8ZM2.2 171.6H3.2C3.2 167.023 6.70304 163.078 13.709 160.383C20.6808 157.702 30.8272 156.402 43.3524 156.999L43.4 156L43.4476 155.001C30.7728 154.398 20.3192 155.698 12.991 158.517C5.69696 161.322 1.2 165.777 1.2 171.6H2.2ZM43.4 156L43.3535 156.999C60.4465 157.794 90.7595 164.171 107.568 168.173L107.8 167.2L108.032 166.227C91.2405 162.229 60.7535 155.806 43.4465 155.001L43.4 156ZM107.8 167.2L108.308 168.062C130.883 154.758 148.99 133.814 172.569 105.439L171.8 104.8L171.031 104.161C147.41 132.586 129.517 153.242 107.292 166.338L107.8 167.2ZM171.8 104.8L172.576 105.431C191.803 81.7979 218.506 49.1301 245.158 31.2301L244.6 30.4L244.042 29.5698C217.094 47.6698 190.197 80.6021 171.024 104.169L171.8 104.8ZM244.6 30.4L245.206 29.6046C240.872 26.3024 232.845 22.4593 222.787 19.4422C212.709 16.4186 200.512 14.2 187.8 14.2V15.2V16.2C200.288 16.2 212.291 18.3813 222.213 21.3578C232.155 24.3406 239.928 28.0976 243.994 31.1954L244.6 30.4ZM187.8 15.2V14.2C154.647 14.2 124.648 22.3358 102.454 36.8124C80.2473 51.297 65.8294 72.1559 64.0026 97.5282L65 97.6L65.9974 97.6718C67.7706 73.0441 81.7526 52.703 103.546 38.4876C125.352 24.2641 154.953 16.2 187.8 16.2V15.2ZM65 97.6L64.0028 97.5252C63.388 105.723 65.33 113.298 70.0824 118.991C74.843 124.693 82.323 128.385 92.5401 128.998L92.6 128L92.6599 127.002C82.877 126.415 75.957 122.907 71.6176 117.709C67.27 112.502 65.412 105.477 65.9972 97.6748L65 97.6ZM92.6 128L92.56 128.999C112.899 129.813 131.646 120.257 145.279 107.634C152.102 101.317 157.67 94.2086 161.538 87.1954C165.399 80.1945 167.6 73.2258 167.6 67.2H166.6H165.6C165.6 72.7742 163.551 79.4055 159.787 86.2295C156.03 93.0414 150.598 99.9831 143.921 106.166C130.554 118.543 112.301 127.787 92.64 127.001L92.6 128ZM185.8 118.4L185.557 119.37C188.901 120.206 194.631 120.605 200.732 119.791L200.6 118.8L200.468 117.809C194.569 118.595 189.099 118.194 186.043 117.43L185.8 118.4ZM200.6 118.8L200.727 119.792C219.857 117.35 237.29 105.558 249.42 88.1722L248.6 87.6L247.78 87.0278C235.91 104.042 218.943 115.45 200.473 117.808L200.6 118.8ZM248.6 87.6L249.418 88.1755C264.864 66.2257 260.091 43.6765 250.107 33.6929L249.4 34.4L248.693 35.1071C257.909 44.3235 262.736 65.7742 247.782 87.0245L248.6 87.6ZM249.4 34.4L248.744 33.6454C239.432 41.7429 228.964 56.051 219.174 70.386C209.338 84.789 200.187 99.2157 193.416 107.78L194.2 108.4L194.984 109.02C201.813 100.384 211.062 85.811 220.826 71.5139C230.636 57.149 240.968 43.057 250.056 35.1546L249.4 34.4ZM194.2 108.4L193.407 107.79C189.418 112.976 186.648 116.137 185.093 117.693L185.8 118.4L186.507 119.107C188.152 117.463 190.982 114.224 194.993 109.01L194.2 108.4ZM93.8 174L93.9961 173.019C80.0535 170.231 56.3482 165.007 41.8555 164.202L41.8 165.2L41.7445 166.198C56.0518 166.993 79.5464 172.169 93.6039 174.981L93.8 174ZM41.8 165.2L41.8814 164.203C32.0706 163.402 23.3747 163.193 17.1052 164.111C13.9787 164.568 11.3549 165.319 9.48735 166.49C7.57498 167.69 6.4 169.378 6.4 171.6H7.4H8.4C8.4 170.222 9.07502 169.11 10.5502 168.185C12.0701 167.231 14.3713 166.532 17.3948 166.089C23.4253 165.207 31.9294 165.398 41.7186 166.197L41.8 165.2ZM7.4 171.6H6.4C6.4 174.024 8.04422 175.814 10.2509 177.107C12.47 178.406 15.4808 179.346 18.7451 180.029C25.2913 181.399 33.1687 181.8 38.6 181.8V180.8V179.8C33.2313 179.8 25.5087 179.401 19.1549 178.071C15.9692 177.404 13.205 176.519 11.2616 175.381C9.30578 174.236 8.4 172.976 8.4 171.6H7.4ZM38.6 180.8V181.8C48.8416 181.8 59.9818 181.097 69.9203 179.893C79.8382 178.691 88.6335 176.98 94.1473 174.938L93.8 174L93.4527 173.062C88.1665 175.02 79.5618 176.709 69.6797 177.907C59.8182 179.103 48.7584 179.8 38.6 179.8V180.8Z" fill="black" mask="url(#path-1-outside-1_501_2257)"/>
</g>
<defs>
<clipPath id="clip0_501_2257">
<rect width="353" height="191" fill="white"/>
</clipPath>
</defs>
</svg>
