<svg width="525" height="282" viewBox="0 0 525 282" fill="none" xmlns="http://www.w3.org/2000/svg">
<g clip-path="url(#clip0_518_2515)">
<mask id="path-1-outside-1_518_2515" maskUnits="userSpaceOnUse" x="1" y="1.99999" width="523" height="277" fill="black">
<rect fill="white" x="1" y="1.99999" width="523" height="277"/>
<path d="M249.4 100.8C249.4 85.8 238.6 74.4 224.2 73.8C207.4 73.2 192.4 82.2 185.2 88.8C177.4 96 175.6 101.4 173.8 100.8C172.6 100.2 175 93 182.2 85.2C188.8 78.6 203.8 66.6 226 67.8C243.4 68.4 259 79.8 259 102C259 146.4 201.4 199.8 138.4 197.4C96.4 196.2 70.6 180 71.8 143.4C74.2 73.2 170.8 17.4 280 17.4C326.2 17.4 356.8 28.8 374.8 39.6C385 31.8 402.4 21.6 416.8 15.6C430.6 9.59998 455.2 2.99997 477.4 2.99997C496.6 2.99997 514.6 8.39998 521.2 19.2C522.4 21.6 523 24 521.2 24.6C520 24.6 520 23.4 517.6 21C510.4 13.2 496 8.39998 478 8.39998C460 8.39998 438.4 13.2 421 21C404.8 28.2 389.8 37.8 381.4 44.4C403.6 63 422.8 98.4 393.4 140.4C369.4 175.8 323.8 183.6 303.4 185.4C293.2 186 278.8 185.4 273.4 183.6C233.2 226.8 193 246 172.6 254.4V255C189.4 258 219.4 264 233.2 264C250.6 264 267.4 261 281.8 250.8C287.8 246.6 288.4 244.8 289.6 246C290.8 246.6 290.2 250.2 284.2 255.6C270.4 267.6 250.6 276 226.6 276C200.2 276 171.4 270 149.8 264.6C125.2 273.6 88.6 277.2 57.4 277.2C35.8 277.2 2.8 274.2 2.8 257.4C2.8 241.8 26.8 232.2 64.6 234C90.4 235.2 136 244.8 161.2 250.8C194.8 231 221.8 199.8 257.2 157.2C286 121.8 326.2 72.6 366.4 45.6C353.8 36 319 22.8 281.2 22.8C182.2 22.8 102.4 71.4 97 146.4C95.2 170.4 108.4 190.2 138.4 192C198.4 194.4 249.4 135.6 249.4 100.8ZM278.2 177.6C283 178.8 291.4 179.4 300.4 178.2C328.6 174.6 354.4 157.2 372.4 131.4C395.2 99 388 66 373.6 51.6C346 75.6 311.2 136.8 290.8 162.6C284.8 170.4 280.6 175.2 278.2 177.6ZM140.2 261C119.2 256.8 83.8 249 62.2 247.8C32.8 245.4 10.6 246.6 10.6 257.4C10.6 268.8 41.2 271.2 57.4 271.2C88 271.2 124 267 140.2 261Z"/>
</mask>
<path d="M249.4 100.8C249.4 85.8 238.6 74.4 224.2 73.8C207.4 73.2 192.4 82.2 185.2 88.8C177.4 96 175.6 101.4 173.8 100.8C172.6 100.2 175 93 182.2 85.2C188.8 78.6 203.8 66.6 226 67.8C243.4 68.4 259 79.8 259 102C259 146.4 201.4 199.8 138.4 197.4C96.4 196.2 70.6 180 71.8 143.4C74.2 73.2 170.8 17.4 280 17.4C326.2 17.4 356.8 28.8 374.8 39.6C385 31.8 402.4 21.6 416.8 15.6C430.6 9.59998 455.2 2.99997 477.4 2.99997C496.6 2.99997 514.6 8.39998 521.2 19.2C522.4 21.6 523 24 521.2 24.6C520 24.6 520 23.4 517.6 21C510.4 13.2 496 8.39998 478 8.39998C460 8.39998 438.4 13.2 421 21C404.8 28.2 389.8 37.8 381.4 44.4C403.6 63 422.8 98.4 393.4 140.4C369.4 175.8 323.8 183.6 303.4 185.4C293.2 186 278.8 185.4 273.4 183.6C233.2 226.8 193 246 172.6 254.4V255C189.4 258 219.4 264 233.2 264C250.6 264 267.4 261 281.8 250.8C287.8 246.6 288.4 244.8 289.6 246C290.8 246.6 290.2 250.2 284.2 255.6C270.4 267.6 250.6 276 226.6 276C200.2 276 171.4 270 149.8 264.6C125.2 273.6 88.6 277.2 57.4 277.2C35.8 277.2 2.8 274.2 2.8 257.4C2.8 241.8 26.8 232.2 64.6 234C90.4 235.2 136 244.8 161.2 250.8C194.8 231 221.8 199.8 257.2 157.2C286 121.8 326.2 72.6 366.4 45.6C353.8 36 319 22.8 281.2 22.8C182.2 22.8 102.4 71.4 97 146.4C95.2 170.4 108.4 190.2 138.4 192C198.4 194.4 249.4 135.6 249.4 100.8ZM278.2 177.6C283 178.8 291.4 179.4 300.4 178.2C328.6 174.6 354.4 157.2 372.4 131.4C395.2 99 388 66 373.6 51.6C346 75.6 311.2 136.8 290.8 162.6C284.8 170.4 280.6 175.2 278.2 177.6ZM140.2 261C119.2 256.8 83.8 249 62.2 247.8C32.8 245.4 10.6 246.6 10.6 257.4C10.6 268.8 41.2 271.2 57.4 271.2C88 271.2 124 267 140.2 261Z" fill="#B4C372"/>
<path d="M224.2 73.8L224.242 72.8008L224.236 72.8006L224.2 73.8ZM185.2 88.8L184.524 88.0628L184.522 88.0652L185.2 88.8ZM173.8 100.8L173.353 101.694L173.416 101.726L173.484 101.749L173.8 100.8ZM182.2 85.2L181.493 84.4929L181.479 84.507L181.465 84.5217L182.2 85.2ZM226 67.8L225.946 68.7985L225.956 68.799L225.966 68.7994L226 67.8ZM138.4 197.4L138.438 196.401L138.429 196.4L138.4 197.4ZM71.8 143.4L70.8006 143.366L70.8005 143.367L71.8 143.4ZM374.8 39.6L374.286 40.4575L374.868 40.8069L375.407 40.3943L374.8 39.6ZM416.8 15.6L417.185 16.523L417.192 16.5201L417.199 16.517L416.8 15.6ZM521.2 19.2L522.094 18.7528L522.075 18.7148L522.053 18.6785L521.2 19.2ZM521.2 24.6V25.6H521.362L521.516 25.5487L521.2 24.6ZM517.6 21L516.865 21.6783L516.879 21.6929L516.893 21.7071L517.6 21ZM421 21L421.406 21.9138L421.409 21.9125L421 21ZM381.4 44.4L380.782 43.6137L379.813 44.375L380.758 45.1665L381.4 44.4ZM393.4 140.4L392.581 139.827L392.576 139.833L392.572 139.839L393.4 140.4ZM303.4 185.4L303.459 186.398L303.473 186.397L303.488 186.396L303.4 185.4ZM273.4 183.6L273.716 182.651L273.106 182.448L272.668 182.919L273.4 183.6ZM172.6 254.4L172.219 253.475L171.6 253.73V254.4H172.6ZM172.6 255H171.6V255.837L172.424 255.984L172.6 255ZM281.8 250.8L281.227 249.981L281.222 249.984L281.8 250.8ZM289.6 246L288.893 246.707L289.008 246.822L289.153 246.894L289.6 246ZM284.2 255.6L284.856 256.355L284.863 256.349L284.869 256.343L284.2 255.6ZM149.8 264.6L150.043 263.63L149.745 263.555L149.456 263.661L149.8 264.6ZM64.6 234L64.5524 234.999L64.5535 234.999L64.6 234ZM161.2 250.8L160.968 251.773L161.36 251.866L161.708 251.662L161.2 250.8ZM257.2 157.2L257.969 157.839L257.976 157.831L257.2 157.2ZM366.4 45.6L366.958 46.4301L368.117 45.6512L367.006 44.8045L366.4 45.6ZM97 146.4L97.9972 146.475L97.9974 146.472L97 146.4ZM138.4 192L138.34 192.998L138.35 192.999L138.36 192.999L138.4 192ZM278.2 177.6L277.493 176.893L276.244 178.142L277.957 178.57L278.2 177.6ZM300.4 178.2L300.273 177.208L300.268 177.209L300.4 178.2ZM372.4 131.4L371.582 130.824L371.58 130.828L372.4 131.4ZM373.6 51.6L374.307 50.8929L373.648 50.2334L372.944 50.8454L373.6 51.6ZM290.8 162.6L290.016 161.98L290.007 161.99L290.8 162.6ZM140.2 261L140.547 261.938L143.858 260.712L140.396 260.019L140.2 261ZM62.2 247.8L62.1186 248.797L62.1316 248.798L62.1445 248.798L62.2 247.8ZM249.4 100.8H250.4C250.4 85.2851 239.198 73.424 224.242 72.8008L224.2 73.8L224.158 74.7991C238.002 75.3759 248.4 86.3148 248.4 100.8H249.4ZM224.2 73.8L224.236 72.8006C207.087 72.1882 191.843 81.3538 184.524 88.0628L185.2 88.8L185.876 89.5371C192.957 83.0461 207.713 74.2118 224.164 74.7993L224.2 73.8ZM185.2 88.8L184.522 88.0652C180.555 91.7268 178.112 94.9341 176.453 97.1206C175.607 98.2366 175.022 99.0069 174.543 99.4774C174.027 99.9841 173.976 99.8045 174.116 99.8513L173.8 100.8L173.484 101.749C174.524 102.095 175.373 101.466 175.945 100.904C176.553 100.306 177.243 99.3883 178.047 98.3294C179.688 96.1659 182.045 93.0731 185.878 89.5348L185.2 88.8ZM173.8 100.8L174.247 99.9056C174.548 100.056 174.533 100.305 174.513 100.148C174.497 100.028 174.501 99.7854 174.576 99.3943C174.723 98.6258 175.099 97.51 175.754 96.1281C177.057 93.3769 179.398 89.7101 182.935 85.8782L182.2 85.2L181.465 84.5217C177.802 88.4898 175.343 92.3231 173.946 95.2719C173.251 96.74 172.802 98.0242 172.612 99.0182C172.518 99.5083 172.475 99.9874 172.529 100.407C172.579 100.789 172.752 101.394 173.353 101.694L173.8 100.8ZM182.2 85.2L182.907 85.9071C189.418 79.3958 204.157 67.6207 225.946 68.7985L226 67.8L226.054 66.8014C203.443 65.5792 188.182 77.8041 181.493 84.4929L182.2 85.2ZM226 67.8L225.966 68.7994C234.464 69.0924 242.47 72.021 248.341 77.5292C254.197 83.0236 258 91.1511 258 102H259H260C260 90.6489 256.003 81.9763 249.709 76.0707C243.43 70.179 234.936 67.1075 226.034 66.8006L226 67.8ZM259 102H258C258 123.796 243.83 147.99 221.684 166.482C199.564 184.953 169.649 197.59 138.438 196.401L138.4 197.4L138.362 198.399C170.151 199.61 200.536 186.747 222.966 168.018C245.37 149.309 260 124.604 260 102H259ZM138.4 197.4L138.429 196.4C117.523 195.803 100.816 191.472 89.505 182.879C78.2524 174.33 72.2084 161.462 72.7995 143.433L71.8 143.4L70.8005 143.367C70.1916 161.938 76.4476 175.47 88.295 184.471C100.084 193.428 117.277 197.797 138.371 198.4L138.4 197.4ZM71.8 143.4L72.7994 143.434C73.9831 108.812 98.4118 77.5696 136.362 54.9338C174.289 32.312 225.558 18.4 280 18.4V17.4V16.4C225.242 16.4 173.611 30.388 135.338 53.2161C97.0882 76.0303 72.0169 107.788 70.8006 143.366L71.8 143.4ZM280 17.4V18.4C326.031 18.4 356.451 29.7566 374.286 40.4575L374.8 39.6L375.315 38.7425C357.149 27.8433 326.369 16.4 280 16.4V17.4ZM374.8 39.6L375.407 40.3943C385.538 32.6478 402.862 22.4906 417.185 16.523L416.8 15.6L416.415 14.6769C401.938 20.7093 384.462 30.9521 374.193 38.8056L374.8 39.6ZM416.8 15.6L417.199 16.517C430.894 10.5624 455.359 3.99997 477.4 3.99997V2.99997V1.99997C455.041 1.99997 430.306 8.63757 416.401 14.6829L416.8 15.6ZM477.4 2.99997V3.99997C486.915 3.99997 496.099 5.33902 503.695 7.99398C511.308 10.6549 517.215 14.5968 520.347 19.7214L521.2 19.2L522.053 18.6785C518.585 13.0031 512.192 8.84507 504.355 6.10597C496.501 3.36093 487.085 1.99997 477.4 1.99997V2.99997ZM521.2 19.2L520.306 19.6472C520.891 20.8176 521.268 21.8757 521.328 22.6517C521.357 23.0312 521.303 23.2583 521.239 23.3838C521.19 23.4791 521.107 23.577 520.884 23.6513L521.2 24.6L521.516 25.5487C522.193 25.323 522.71 24.8959 523.018 24.2974C523.309 23.7291 523.368 23.0938 523.322 22.4983C523.232 21.3243 522.709 19.9823 522.094 18.7528L521.2 19.2ZM521.2 24.6V23.6C521.097 23.6 521.081 23.5835 521.057 23.5662C520.985 23.514 520.876 23.4012 520.65 23.1C520.219 22.5251 519.57 21.5553 518.307 20.2929L517.6 21L516.893 21.7071C518.03 22.8446 518.581 23.6748 519.05 24.3C519.274 24.5987 519.54 24.936 519.881 25.1837C520.269 25.4665 520.703 25.6 521.2 25.6V24.6ZM517.6 21L518.335 20.3217C510.857 12.2212 496.115 7.39998 478 7.39998V8.39998V9.39998C495.885 9.39998 509.943 14.1787 516.865 21.6783L517.6 21ZM478 8.39998V7.39998C459.849 7.39998 438.111 12.2338 420.591 20.0875L421 21L421.409 21.9125C438.689 14.1661 460.151 9.39998 478 9.39998V8.39998ZM421 21L420.594 20.0862C404.316 27.3206 389.246 36.9639 380.782 43.6137L381.4 44.4L382.018 45.1863C390.354 38.6361 405.284 29.0794 421.406 21.9138L421 21ZM381.4 44.4L380.758 45.1665C391.741 54.3684 401.94 67.6941 405.777 83.856C409.605 99.9793 407.132 119.04 392.581 139.827L393.4 140.4L394.219 140.973C409.068 119.76 411.695 100.121 407.723 83.394C403.76 66.7058 393.259 53.0315 382.042 43.6335L381.4 44.4ZM393.4 140.4L392.572 139.839C368.851 174.828 323.687 182.606 303.312 184.404L303.4 185.4L303.488 186.396C323.913 184.594 369.949 176.772 394.228 140.961L393.4 140.4ZM303.4 185.4L303.341 184.402C298.282 184.699 292.17 184.7 286.654 184.401C281.102 184.101 276.275 183.504 273.716 182.651L273.4 183.6L273.084 184.549C275.925 185.496 280.998 186.099 286.546 186.399C292.13 186.7 298.318 186.701 303.459 186.398L303.4 185.4ZM273.4 183.6L272.668 182.919C232.598 225.979 192.538 245.109 172.219 253.475L172.6 254.4L172.981 255.325C193.462 246.891 233.802 227.621 274.132 184.281L273.4 183.6ZM172.6 254.4H171.6V255H172.6H173.6V254.4H172.6ZM172.6 255L172.424 255.984C180.804 257.481 192.53 259.735 203.862 261.612C215.177 263.485 226.206 265 233.2 265V264V263C226.394 263 215.523 261.515 204.188 259.638C192.87 257.765 181.196 255.519 172.776 254.016L172.6 255ZM233.2 264V265C250.706 265 267.742 261.983 282.378 251.616L281.8 250.8L281.222 249.984C267.058 260.017 250.494 263 233.2 263V264ZM281.8 250.8L282.373 251.619C285.401 249.5 287.126 247.941 288.118 247.161C288.37 246.963 288.558 246.829 288.705 246.739C288.777 246.696 288.83 246.669 288.868 246.652C288.906 246.635 288.922 246.632 288.92 246.633C288.899 246.637 288.844 246.638 288.794 246.617C288.765 246.606 288.795 246.61 288.893 246.707L289.6 246L290.307 245.293C290.105 245.09 289.854 244.888 289.539 244.761C289.203 244.626 288.857 244.604 288.517 244.674C287.933 244.794 287.383 245.195 286.882 245.589C285.774 246.459 284.199 247.9 281.227 249.981L281.8 250.8ZM289.6 246L289.153 246.894C289.009 246.822 289.096 246.737 289.107 247.031C289.118 247.326 289.028 247.841 288.69 248.586C288.017 250.066 286.474 252.208 283.531 254.857L284.2 255.6L284.869 256.343C287.926 253.592 289.683 251.234 290.51 249.414C290.922 248.509 291.132 247.674 291.106 246.957C291.079 246.238 290.791 245.478 290.047 245.106L289.6 246ZM284.2 255.6L283.544 254.845C269.928 266.686 250.361 275 226.6 275V276V277C250.839 277 270.872 268.514 284.856 256.355L284.2 255.6ZM226.6 276V275C200.327 275 171.625 269.025 150.043 263.63L149.8 264.6L149.557 265.57C171.175 270.974 200.073 277 226.6 277V276ZM149.8 264.6L149.456 263.661C125.021 272.6 88.5608 276.2 57.4 276.2V277.2V278.2C88.6392 278.2 125.379 274.599 150.144 265.539L149.8 264.6ZM57.4 277.2V276.2C46.6248 276.2 33.0768 275.45 22.2519 272.632C16.8348 271.222 12.1825 269.315 8.90409 266.789C5.65345 264.284 3.8 261.216 3.8 257.4H2.8H1.8C1.8 261.984 4.07155 265.59 7.68341 268.373C11.2675 271.135 16.2152 273.128 21.7481 274.568C32.8232 277.45 46.5752 278.2 57.4 278.2V277.2ZM2.8 257.4H3.8C3.8 250.223 9.30304 244.178 19.884 240.108C30.4308 236.052 45.7272 234.102 64.5524 234.999L64.6 234L64.6476 233.001C45.6728 232.098 30.0692 234.048 19.166 238.242C8.29696 242.422 1.8 248.977 1.8 257.4H2.8ZM64.6 234L64.5535 234.999C90.2465 236.194 135.759 245.771 160.968 251.773L161.2 250.8L161.432 249.827C136.241 243.829 90.5535 234.206 64.6465 233.001L64.6 234ZM161.2 250.8L161.708 251.662C195.483 231.758 222.59 200.414 257.969 157.839L257.2 157.2L256.431 156.561C221.01 199.186 194.117 230.242 160.692 249.938L161.2 250.8ZM257.2 157.2L257.976 157.831C286.803 122.398 326.906 73.3301 366.958 46.4301L366.4 45.6L365.842 44.7698C325.494 71.8698 285.197 121.202 256.424 156.569L257.2 157.2ZM366.4 45.6L367.006 44.8045C360.572 39.9024 348.595 34.1593 333.537 29.6421C318.459 25.1186 300.212 21.8 281.2 21.8V22.8V23.8C299.988 23.8 318.041 27.0813 332.963 31.5578C347.905 36.0406 359.628 41.6976 365.794 46.3954L366.4 45.6ZM281.2 22.8V21.8C231.547 21.8 186.648 33.9858 153.454 55.6374C120.247 77.297 98.7294 108.456 96.0026 146.328L97 146.4L97.9974 146.472C100.671 109.344 121.753 78.703 154.546 57.3125C187.352 35.9141 231.853 23.8 281.2 23.8V22.8ZM97 146.4L96.0028 146.325C95.088 158.523 97.98 169.748 105.007 178.166C112.043 186.593 123.123 192.085 138.34 192.998L138.4 192L138.46 191.002C123.677 190.115 113.157 184.807 106.543 176.884C99.92 168.952 97.112 158.277 97.9972 146.475L97 146.4ZM138.4 192L138.36 192.999C168.699 194.213 196.696 179.957 217.079 161.084C227.277 151.642 235.595 141.021 241.369 130.552C247.137 120.094 250.4 109.726 250.4 100.8H249.4H248.4C248.4 109.274 245.288 119.305 239.618 129.586C233.955 139.854 225.773 150.308 215.721 159.616C195.604 178.243 168.101 192.187 138.44 191.001L138.4 192ZM278.2 177.6L277.957 178.57C282.901 179.806 291.431 180.405 300.532 179.191L300.4 178.2L300.268 177.209C291.369 178.395 283.099 177.794 278.443 176.63L278.2 177.6ZM300.4 178.2L300.527 179.192C329.057 175.55 355.09 157.958 373.22 131.972L372.4 131.4L371.58 130.828C353.71 156.442 328.143 173.65 300.273 177.208L300.4 178.2ZM372.4 131.4L373.218 131.975C396.264 99.2257 389.091 65.6765 374.307 50.8929L373.6 51.6L372.893 52.3071C386.909 66.3235 394.136 98.7742 371.582 130.824L372.4 131.4ZM373.6 51.6L372.944 50.8454C359.032 62.9429 343.364 84.3509 328.674 105.861C313.938 127.439 300.187 149.116 290.016 161.98L290.8 162.6L291.584 163.22C301.813 150.284 315.662 128.461 330.326 106.989C345.036 85.449 360.568 64.257 374.256 52.3546L373.6 51.6ZM290.8 162.6L290.007 161.99C284.018 169.776 279.848 174.537 277.493 176.893L278.2 177.6L278.907 178.307C281.352 175.863 285.582 171.024 291.593 163.21L290.8 162.6ZM140.2 261L140.396 260.019C119.454 255.831 83.9482 248.007 62.2555 246.802L62.2 247.8L62.1445 248.798C83.6518 249.993 118.946 257.769 140.004 261.981L140.2 261ZM62.2 247.8L62.2814 246.803C47.5706 245.602 34.5747 245.293 25.2302 246.661C20.5662 247.343 16.7111 248.456 13.9967 250.159C11.2375 251.89 9.6 254.278 9.6 257.4H10.6H11.6C11.6 255.122 12.7375 253.31 15.0595 251.853C17.4264 250.369 20.9588 249.307 25.5198 248.639C34.6253 247.307 47.4294 247.598 62.1186 248.797L62.2 247.8ZM10.6 257.4H9.6C9.6 260.774 11.8817 263.327 15.1291 265.229C18.3887 267.137 22.8433 268.533 27.7201 269.554C37.4913 271.599 49.2687 272.2 57.4 272.2V271.2V270.2C49.3313 270.2 37.7087 269.601 28.1299 267.596C23.3317 266.592 19.1238 265.25 16.1397 263.503C13.1433 261.748 11.6 259.726 11.6 257.4H10.6ZM57.4 271.2V272.2C72.7416 272.2 89.4318 271.147 104.32 269.343C119.188 267.541 132.334 264.98 140.547 261.938L140.2 261L139.853 260.062C131.866 263.02 118.912 265.559 104.08 267.357C89.2682 269.153 72.6584 270.2 57.4 270.2V271.2Z" fill="black" mask="url(#path-1-outside-1_518_2515)"/>
</g>
<defs>
<clipPath id="clip0_518_2515">
<rect width="525" height="282" fill="white"/>
</clipPath>
</defs>
</svg>
