<svg width="68" height="68" viewBox="0 0 68 68" fill="none" xmlns="http://www.w3.org/2000/svg">
<rect x="0.451315" y="0.353659" width="67.1951" height="67.1951" rx="10.2561" fill="#B4C471" stroke="black" stroke-width="0.707317"/>
<mask id="path-2-outside-1_394_3663" maskUnits="userSpaceOnUse" x="12" y="17.9023" width="44" height="32" fill="black">
<rect fill="white" x="12" y="17.9023" width="44" height="32"/>
<path d="M24.1422 36.4644H16.35V33.3195H24.1422C25.6512 33.3195 26.8731 33.0791 27.8079 32.5983C28.7427 32.1176 29.4238 31.4499 29.8512 30.5952C30.2918 29.7405 30.5122 28.7656 30.5122 27.6706C30.5122 26.669 30.2918 25.7275 29.8512 24.8462C29.4238 23.9648 28.7427 23.257 27.8079 22.7228C26.8731 22.1753 25.6512 21.9015 24.1422 21.9015H17.2514V47.9023H13.3853V18.7366H24.1422C26.3457 18.7366 28.2086 19.1172 29.731 19.8784C31.2534 20.6396 32.4085 21.6945 33.1964 23.0433C33.9843 24.3788 34.3783 25.9078 34.3783 27.6305C34.3783 29.5001 33.9843 31.096 33.1964 32.418C32.4085 33.7401 31.2534 34.7484 29.731 35.4428C28.2086 36.1239 26.3457 36.4644 24.1422 36.4644ZM51.3249 42.1533C51.3249 41.6191 51.2047 41.125 50.9643 40.671C50.7373 40.2036 50.2632 39.7829 49.5421 39.409C48.8343 39.0217 47.7659 38.6879 46.337 38.4074C45.1351 38.1537 44.0468 37.8532 43.0719 37.506C42.1104 37.1588 41.2891 36.7382 40.608 36.244C39.9403 35.7499 39.4262 35.169 39.0656 34.5013C38.7051 33.8336 38.5248 33.0524 38.5248 32.1576C38.5248 31.303 38.7117 30.495 39.0856 29.7338C39.4729 28.9726 40.0138 28.2982 40.7082 27.7107C41.416 27.1231 42.264 26.6623 43.2522 26.3285C44.2404 25.9946 45.3421 25.8277 46.5574 25.8277C48.2934 25.8277 49.7758 26.1348 51.0044 26.7491C52.233 27.3634 53.1744 28.1847 53.8288 29.213C54.4831 30.2279 54.8103 31.3564 54.8103 32.5983H51.1045C51.1045 31.9974 50.9242 31.4165 50.5637 30.8556C50.2165 30.2814 49.7023 29.8073 49.0212 29.4334C48.3535 29.0594 47.5322 28.8725 46.5574 28.8725C45.5291 28.8725 44.6945 29.0327 44.0534 29.3532C43.4258 29.6604 42.9651 30.0543 42.6713 30.5351C42.3908 31.0158 42.2506 31.5233 42.2506 32.0575C42.2506 32.4581 42.3174 32.8187 42.4509 33.1392C42.5978 33.4463 42.8516 33.7334 43.2121 34.0005C43.5727 34.2543 44.0802 34.4946 44.7345 34.7217C45.3889 34.9487 46.2235 35.1757 47.2384 35.4027C49.0146 35.8034 50.4769 36.2841 51.6253 36.845C52.7738 37.4059 53.6285 38.0936 54.1894 38.9082C54.7502 39.7228 55.0307 40.7111 55.0307 41.8729C55.0307 42.821 54.8304 43.6891 54.4297 44.477C54.0425 45.2649 53.4749 45.9459 52.7271 46.5202C51.9926 47.0811 51.1112 47.5217 50.0829 47.8422C49.068 48.1494 47.9262 48.303 46.6575 48.303C44.7479 48.303 43.132 47.9624 41.8099 47.2814C40.4879 46.6003 39.4863 45.7189 38.8052 44.6372C38.1241 43.5555 37.7836 42.4137 37.7836 41.2118H41.5095C41.5629 42.2268 41.8567 43.0347 42.3908 43.6356C42.925 44.2232 43.5794 44.6439 44.3539 44.8976C45.1285 45.138 45.8963 45.2582 46.6575 45.2582C47.6725 45.2582 48.5205 45.1247 49.2015 44.8576C49.8959 44.5905 50.4234 44.2232 50.784 43.7558C51.1446 43.2884 51.3249 42.7543 51.3249 42.1533Z"/>
</mask>
<path d="M24.1422 36.4644H16.35V33.3195H24.1422C25.6512 33.3195 26.8731 33.0791 27.8079 32.5983C28.7427 32.1176 29.4238 31.4499 29.8512 30.5952C30.2918 29.7405 30.5122 28.7656 30.5122 27.6706C30.5122 26.669 30.2918 25.7275 29.8512 24.8462C29.4238 23.9648 28.7427 23.257 27.8079 22.7228C26.8731 22.1753 25.6512 21.9015 24.1422 21.9015H17.2514V47.9023H13.3853V18.7366H24.1422C26.3457 18.7366 28.2086 19.1172 29.731 19.8784C31.2534 20.6396 32.4085 21.6945 33.1964 23.0433C33.9843 24.3788 34.3783 25.9078 34.3783 27.6305C34.3783 29.5001 33.9843 31.096 33.1964 32.418C32.4085 33.7401 31.2534 34.7484 29.731 35.4428C28.2086 36.1239 26.3457 36.4644 24.1422 36.4644ZM51.3249 42.1533C51.3249 41.6191 51.2047 41.125 50.9643 40.671C50.7373 40.2036 50.2632 39.7829 49.5421 39.409C48.8343 39.0217 47.7659 38.6879 46.337 38.4074C45.1351 38.1537 44.0468 37.8532 43.0719 37.506C42.1104 37.1588 41.2891 36.7382 40.608 36.244C39.9403 35.7499 39.4262 35.169 39.0656 34.5013C38.7051 33.8336 38.5248 33.0524 38.5248 32.1576C38.5248 31.303 38.7117 30.495 39.0856 29.7338C39.4729 28.9726 40.0138 28.2982 40.7082 27.7107C41.416 27.1231 42.264 26.6623 43.2522 26.3285C44.2404 25.9946 45.3421 25.8277 46.5574 25.8277C48.2934 25.8277 49.7758 26.1348 51.0044 26.7491C52.233 27.3634 53.1744 28.1847 53.8288 29.213C54.4831 30.2279 54.8103 31.3564 54.8103 32.5983H51.1045C51.1045 31.9974 50.9242 31.4165 50.5637 30.8556C50.2165 30.2814 49.7023 29.8073 49.0212 29.4334C48.3535 29.0594 47.5322 28.8725 46.5574 28.8725C45.5291 28.8725 44.6945 29.0327 44.0534 29.3532C43.4258 29.6604 42.9651 30.0543 42.6713 30.5351C42.3908 31.0158 42.2506 31.5233 42.2506 32.0575C42.2506 32.4581 42.3174 32.8187 42.4509 33.1392C42.5978 33.4463 42.8516 33.7334 43.2121 34.0005C43.5727 34.2543 44.0802 34.4946 44.7345 34.7217C45.3889 34.9487 46.2235 35.1757 47.2384 35.4027C49.0146 35.8034 50.4769 36.2841 51.6253 36.845C52.7738 37.4059 53.6285 38.0936 54.1894 38.9082C54.7502 39.7228 55.0307 40.7111 55.0307 41.8729C55.0307 42.821 54.8304 43.6891 54.4297 44.477C54.0425 45.2649 53.4749 45.9459 52.7271 46.5202C51.9926 47.0811 51.1112 47.5217 50.0829 47.8422C49.068 48.1494 47.9262 48.303 46.6575 48.303C44.7479 48.303 43.132 47.9624 41.8099 47.2814C40.4879 46.6003 39.4863 45.7189 38.8052 44.6372C38.1241 43.5555 37.7836 42.4137 37.7836 41.2118H41.5095C41.5629 42.2268 41.8567 43.0347 42.3908 43.6356C42.925 44.2232 43.5794 44.6439 44.3539 44.8976C45.1285 45.138 45.8963 45.2582 46.6575 45.2582C47.6725 45.2582 48.5205 45.1247 49.2015 44.8576C49.8959 44.5905 50.4234 44.2232 50.784 43.7558C51.1446 43.2884 51.3249 42.7543 51.3249 42.1533Z" fill="white"/>
<path d="M16.35 36.4644H15.6426V37.1717H16.35V36.4644ZM16.35 33.3195V32.6121H15.6426V33.3195H16.35ZM29.8512 30.5952L29.2224 30.271L29.2185 30.2789L29.8512 30.5952ZM29.8512 24.8462L29.2147 25.1548L29.2185 25.1625L29.8512 24.8462ZM27.8079 22.7228L27.4504 23.3332L27.457 23.3369L27.8079 22.7228ZM17.2514 21.9015V21.1942H16.5441V21.9015H17.2514ZM17.2514 47.9023V48.6097H17.9587V47.9023H17.2514ZM13.3853 47.9023H12.678V48.6097H13.3853V47.9023ZM13.3853 18.7366V18.0293H12.678V18.7366H13.3853ZM33.1964 23.0433L32.5857 23.4001L32.5872 23.4028L33.1964 23.0433ZM29.731 35.4428L30.0198 36.0885L30.0245 36.0863L29.731 35.4428ZM24.1422 36.4644V35.7571H16.35V36.4644V37.1717H24.1422V36.4644ZM16.35 36.4644H17.0573V33.3195H16.35H15.6426V36.4644H16.35ZM16.35 33.3195V34.0268H24.1422V33.3195V32.6121H16.35V33.3195ZM24.1422 33.3195V34.0268C25.718 34.0268 27.0626 33.777 28.1314 33.2273L27.8079 32.5983L27.4845 31.9693C26.6837 32.3811 25.5844 32.6121 24.1422 32.6121V33.3195ZM27.8079 32.5983L28.1314 33.2273C29.1858 32.6851 29.9825 31.9141 30.4838 30.9115L29.8512 30.5952L29.2185 30.2789C28.8651 30.9856 28.2997 31.5501 27.4845 31.9693L27.8079 32.5983ZM29.8512 30.5952L30.4798 30.9193C30.979 29.9513 31.2195 28.8626 31.2195 27.6706H30.5122H29.8049C29.8049 28.6686 29.6047 29.5297 29.2225 30.271L29.8512 30.5952ZM30.5122 27.6706H31.2195C31.2195 26.5611 30.9744 25.5111 30.4838 24.5298L29.8512 24.8462L29.2185 25.1625C29.6093 25.944 29.8049 26.777 29.8049 27.6706H30.5122ZM29.8512 24.8462L30.4876 24.5376C29.9919 23.5152 29.2046 22.7063 28.1589 22.1087L27.8079 22.7228L27.457 23.3369C28.2809 23.8077 28.8557 24.4143 29.2147 25.1547L29.8512 24.8462ZM27.8079 22.7228L28.1654 22.1125C27.0878 21.4813 25.7298 21.1942 24.1422 21.1942V21.9015V22.6089C25.5726 22.6089 26.6585 22.8693 27.4505 23.3332L27.8079 22.7228ZM24.1422 21.9015V21.1942H17.2514V21.9015V22.6089H24.1422V21.9015ZM17.2514 21.9015H16.5441V47.9023H17.2514H17.9587V21.9015H17.2514ZM17.2514 47.9023V47.195H13.3853V47.9023V48.6097H17.2514V47.9023ZM13.3853 47.9023H14.0926V18.7366H13.3853H12.678V47.9023H13.3853ZM13.3853 18.7366V19.4439H24.1422V18.7366V18.0293H13.3853V18.7366ZM24.1422 18.7366V19.4439C26.2671 19.4439 28.015 19.8112 29.4146 20.511L29.731 19.8784L30.0473 19.2457C28.4021 18.4231 26.4242 18.0293 24.1422 18.0293V18.7366ZM29.731 19.8784L29.4146 20.511C30.8257 21.2165 31.8732 22.1805 32.5857 23.4001L33.1964 23.0433L33.8072 22.6866C32.9438 21.2086 31.681 20.0626 30.0473 19.2457L29.731 19.8784ZM33.1964 23.0433L32.5872 23.4028C33.3039 24.6175 33.6709 26.0198 33.6709 27.6305H34.3783H35.0856C35.0856 25.7958 34.6647 24.14 33.8056 22.6839L33.1964 23.0433ZM34.3783 27.6305H33.6709C33.6709 29.4 33.2987 30.8647 32.5888 32.0559L33.1964 32.418L33.804 32.7801C34.6699 31.3272 35.0856 29.6002 35.0856 27.6305H34.3783ZM33.1964 32.418L32.5888 32.0559C31.881 33.2436 30.8409 34.1591 29.4374 34.7993L29.731 35.4428L30.0245 36.0863C31.6658 35.3377 32.936 34.2366 33.804 32.7801L33.1964 32.418ZM29.731 35.4428L29.4421 34.7971C28.0348 35.4267 26.2766 35.7571 24.1422 35.7571V36.4644V37.1717C26.4148 37.1717 28.3824 36.821 30.0198 36.0884L29.731 35.4428ZM50.9643 40.671L50.3281 40.98L50.3334 40.9911L50.3392 41.0019L50.9643 40.671ZM49.5421 39.409L49.2025 40.0295L49.2095 40.0333L49.2165 40.0369L49.5421 39.409ZM46.337 38.4074L46.1909 39.0996L46.2008 39.1015L46.337 38.4074ZM43.0719 37.506L42.8317 38.1713L42.8346 38.1723L43.0719 37.506ZM40.608 36.244L40.1873 36.8126L40.1927 36.8166L40.608 36.244ZM39.0856 29.7338L38.4552 29.4131L38.4508 29.422L39.0856 29.7338ZM40.7082 27.7107L40.2564 27.1664L40.2513 27.1707L40.7082 27.7107ZM51.0044 26.7491L50.688 27.3818L51.0044 26.7491ZM53.8288 29.213L53.232 29.5928L53.2343 29.5963L53.8288 29.213ZM54.8103 32.5983V33.3056H55.5176V32.5983H54.8103ZM51.1045 32.5983H50.3972V33.3056H51.1045V32.5983ZM50.5637 30.8556L49.9584 31.2216L49.9634 31.2299L49.9687 31.2381L50.5637 30.8556ZM49.0212 29.4334L48.6756 30.0505L48.6808 30.0534L49.0212 29.4334ZM44.0534 29.3532L44.3644 29.9886L44.3698 29.9859L44.0534 29.3532ZM42.6713 30.5351L42.0677 30.1663L42.064 30.1724L42.0603 30.1787L42.6713 30.5351ZM42.4509 33.1392L41.798 33.4112L41.805 33.428L41.8128 33.4443L42.4509 33.1392ZM43.2121 34.0005L42.7911 34.5689L42.798 34.574L42.8051 34.579L43.2121 34.0005ZM47.2384 35.4027L47.3941 34.7127L47.3928 34.7125L47.2384 35.4027ZM51.6253 36.845L51.3149 37.4806L51.6253 36.845ZM54.4297 44.477L53.7992 44.1563L53.795 44.165L54.4297 44.477ZM52.7271 46.5202L53.1563 47.0823L53.1578 47.0812L52.7271 46.5202ZM50.0829 47.8423L50.2878 48.5193L50.2934 48.5175L50.0829 47.8423ZM37.7836 41.2118V40.5045H37.0763V41.2118H37.7836ZM41.5095 41.2118L42.2158 41.1747L42.1805 40.5045H41.5095V41.2118ZM42.3908 43.6356L41.8621 44.1056L41.8675 44.1114L42.3908 43.6356ZM44.3539 44.8976L44.1337 45.5699L44.1443 45.5732L44.3539 44.8976ZM49.2015 44.8576L48.9476 44.1974L48.9433 44.1991L49.2015 44.8576ZM50.784 43.7558L51.3441 44.1879L50.784 43.7558ZM51.3249 42.1533H52.0322C52.0322 41.5085 51.8859 40.9002 51.5894 40.34L50.9643 40.671L50.3392 41.0019C50.5234 41.3499 50.6175 41.7298 50.6175 42.1533H51.3249ZM50.9643 40.671L51.6005 40.362C51.2789 39.6998 50.6528 39.1882 49.8676 38.7811L49.5421 39.409L49.2165 40.0369C49.8736 40.3776 50.1956 40.7074 50.3281 40.98L50.9643 40.671ZM49.5421 39.409L49.8816 38.7885C49.0784 38.349 47.9258 37.9985 46.4733 37.7134L46.337 38.4074L46.2008 39.1015C47.6061 39.3773 48.5902 39.6944 49.2025 40.0295L49.5421 39.409ZM46.337 38.4074L46.4831 37.7154C45.3067 37.467 44.2494 37.1746 43.3092 36.8397L43.0719 37.506L42.8346 38.1723C43.8441 38.5319 44.9636 38.8404 46.1909 39.0995L46.337 38.4074ZM43.0719 37.506L43.3121 36.8408C42.4002 36.5114 41.6407 36.1194 41.0234 35.6715L40.608 36.244L40.1927 36.8166C40.9376 37.357 41.8206 37.8062 42.8317 38.1713L43.0719 37.506ZM40.608 36.244L41.0288 35.6755C40.4365 35.2372 39.9947 34.7332 39.688 34.1652L39.0656 34.5013L38.4432 34.8374C38.8577 35.6048 39.4441 36.2627 40.1873 36.8126L40.608 36.244ZM39.0656 34.5013L39.688 34.1652C39.3924 33.6178 39.2321 32.9561 39.2321 32.1576H38.5248H37.8175C37.8175 33.1487 38.0177 34.0494 38.4432 34.8374L39.0656 34.5013ZM38.5248 32.1576H39.2321C39.2321 31.4102 39.3946 30.7091 39.7205 30.0457L39.0856 29.7338L38.4508 29.422C38.0288 30.281 37.8175 31.1957 37.8175 32.1576H38.5248ZM39.0856 29.7338L39.7161 30.0546C40.0579 29.3826 40.5378 28.7814 41.1651 28.2506L40.7082 27.7107L40.2513 27.1707C39.4898 27.8151 38.8879 28.5626 38.4552 29.4131L39.0856 29.7338ZM40.7082 27.7107L41.16 28.2549C41.7927 27.7296 42.5617 27.3084 43.4786 26.9986L43.2522 26.3285L43.0258 25.6584C41.9663 26.0163 41.0393 26.5165 40.2564 27.1664L40.7082 27.7107ZM43.2522 26.3285L43.4786 26.9986C44.3829 26.6931 45.4067 26.535 46.5574 26.535V25.8277V25.1204C45.2776 25.1204 44.0979 25.2962 43.0258 25.6584L43.2522 26.3285ZM46.5574 25.8277V26.535C48.2118 26.535 49.5801 26.8278 50.688 27.3818L51.0044 26.7491L51.3207 26.1165C49.9714 25.4419 48.375 25.1204 46.5574 25.1204V25.8277ZM51.0044 26.7491L50.688 27.3818C51.8169 27.9462 52.6549 28.6859 53.2321 29.5928L53.8288 29.213L54.4255 28.8333C53.6939 27.6836 52.649 26.7807 51.3207 26.1165L51.0044 26.7491ZM53.8288 29.213L53.2343 29.5963C53.8128 30.4936 54.103 31.4882 54.103 32.5983H54.8103H55.5176C55.5176 31.2245 55.1535 29.9623 54.4233 28.8297L53.8288 29.213ZM54.8103 32.5983V31.891H51.1045V32.5983V33.3056H54.8103V32.5983ZM51.1045 32.5983H51.8118C51.8118 31.8472 51.5842 31.1351 51.1586 30.4731L50.5637 30.8556L49.9687 31.2381C50.2642 31.6978 50.3972 32.1476 50.3972 32.5983H51.1045ZM50.5637 30.8556L51.1689 30.4896C50.7478 29.793 50.1344 29.2376 49.3616 28.8133L49.0212 29.4334L48.6808 30.0534C49.2702 30.377 49.6851 30.7697 49.9584 31.2216L50.5637 30.8556ZM49.0212 29.4334L49.3668 28.8162C48.5684 28.3691 47.6208 28.1652 46.5574 28.1652V28.8725V29.5798C47.4437 29.5798 48.1386 29.7498 48.6756 30.0505L49.0212 29.4334ZM46.5574 28.8725V28.1652C45.4637 28.1652 44.5096 28.3344 43.7371 28.7206L44.0534 29.3532L44.3698 29.9859C44.8793 29.7311 45.5944 29.5798 46.5574 29.5798V28.8725ZM44.0534 29.3532L43.7425 28.7179C43.023 29.07 42.4469 29.5459 42.0677 30.1663L42.6713 30.5351L43.2748 30.9039C43.4833 30.5628 43.8286 30.2507 44.3643 29.9886L44.0534 29.3532ZM42.6713 30.5351L42.0603 30.1787C41.7195 30.7629 41.5433 31.3927 41.5433 32.0575H42.2506H42.9579C42.9579 31.6539 43.0621 31.2688 43.2822 30.8915L42.6713 30.5351ZM42.2506 32.0575H41.5433C41.5433 32.5373 41.6235 32.9923 41.798 33.4112L42.4509 33.1392L43.1038 32.8671C43.0113 32.6451 42.9579 32.3789 42.9579 32.0575H42.2506ZM42.4509 33.1392L41.8128 33.4443C42.0228 33.8834 42.3662 34.2542 42.7911 34.5689L43.2121 34.0005L43.6331 33.4322C43.3369 33.2127 43.1728 33.0092 43.089 32.834L42.4509 33.1392ZM43.2121 34.0005L42.8051 34.579C43.2412 34.8859 43.8172 35.1521 44.5027 35.3899L44.7345 34.7217L44.9664 34.0534C44.3431 33.8372 43.9042 33.6227 43.6192 33.4221L43.2121 34.0005ZM44.7345 34.7217L44.5027 35.3899C45.1916 35.6289 46.0545 35.8627 47.084 36.093L47.2384 35.4027L47.3928 34.7125C46.3925 34.4887 45.5862 34.2684 44.9664 34.0534L44.7345 34.7217ZM47.2384 35.4027L47.0828 36.0927C48.826 36.4859 50.2317 36.9515 51.3149 37.4806L51.6253 36.845L51.9357 36.2094C50.722 35.6167 49.2031 35.1208 47.3941 34.7127L47.2384 35.4027ZM51.6253 36.845L51.3149 37.4806C52.3852 38.0032 53.1323 38.6202 53.6068 39.3093L54.1894 38.9082L54.7719 38.5071C54.1247 37.5671 53.1624 36.8085 51.9357 36.2094L51.6253 36.845ZM54.1894 38.9082L53.6068 39.3093C54.073 39.9865 54.3234 40.8287 54.3234 41.8729H55.0307H55.738C55.738 40.5935 55.4275 39.4592 54.7719 38.5071L54.1894 38.9082ZM55.0307 41.8729H54.3234C54.3234 42.7179 54.1457 43.4749 53.7992 44.1564L54.4297 44.477L55.0602 44.7976C55.515 43.9032 55.738 42.9242 55.738 41.8729H55.0307ZM54.4297 44.477L53.795 44.165C53.4591 44.8482 52.9644 45.4461 52.2963 45.9592L52.7271 46.5202L53.1578 47.0812C53.9854 46.4457 54.6258 45.6816 55.0645 44.789L54.4297 44.477ZM52.7271 46.5202L52.2978 45.958C51.6389 46.4611 50.8345 46.8671 49.8724 47.167L50.0829 47.8423L50.2934 48.5175C51.3878 48.1764 52.3462 47.701 53.1563 47.0823L52.7271 46.5202ZM50.0829 47.8423L49.878 47.1653C48.9411 47.4488 47.87 47.5957 46.6575 47.5957V48.303V49.0103C47.9824 49.0103 49.1949 48.85 50.2878 48.5192L50.0829 47.8423ZM46.6575 48.303V47.5957C44.8295 47.5957 43.3314 47.2695 42.1338 46.6526L41.8099 47.2814L41.486 47.9102C42.9326 48.6554 44.6662 49.0103 46.6575 49.0103V48.303ZM41.8099 47.2814L42.1338 46.6526C40.9056 46.0198 40.0071 45.2186 39.4038 44.2604L38.8052 44.6372L38.2067 45.0141C38.9654 46.2192 40.0701 47.1808 41.486 47.9102L41.8099 47.2814ZM38.8052 44.6372L39.4038 44.2604C38.789 43.284 38.4909 42.2718 38.4909 41.2118H37.7836H37.0763C37.0763 42.5557 37.4592 43.827 38.2067 45.0141L38.8052 44.6372ZM37.7836 41.2118V41.9192H41.5095V41.2118V40.5045H37.7836V41.2118ZM41.5095 41.2118L40.8031 41.249C40.8627 42.3811 41.1959 43.356 41.8622 44.1056L42.3908 43.6356L42.9195 43.1657C42.5174 42.7134 42.263 42.0725 42.2158 41.1747L41.5095 41.2118ZM42.3908 43.6356L41.8675 44.1114C42.4862 44.7921 43.246 45.279 44.1337 45.5698L44.3539 44.8976L44.5741 44.2255C43.9127 44.0088 43.3638 43.6544 42.9142 43.1599L42.3908 43.6356ZM44.3539 44.8976L44.1443 45.5732C44.9823 45.8332 45.8207 45.9655 46.6575 45.9655V45.2582V44.5509C45.9719 44.5509 45.2747 44.4428 44.5636 44.2221L44.3539 44.8976ZM46.6575 45.2582V45.9655C47.729 45.9655 48.6712 45.8253 49.4598 45.5161L49.2015 44.8576L48.9433 44.1991C48.3697 44.424 47.6159 44.5509 46.6575 44.5509V45.2582ZM49.2015 44.8576L49.4554 45.5177C50.2397 45.2161 50.8861 44.7815 51.3441 44.1879L50.784 43.7558L50.224 43.3238C49.9608 43.665 49.5522 43.9649 48.9476 44.1974L49.2015 44.8576ZM50.784 43.7558L51.3441 44.1879C51.8019 43.5943 52.0322 42.9075 52.0322 42.1533H51.3249H50.6175C50.6175 42.601 50.4872 42.9826 50.224 43.3238L50.784 43.7558Z" fill="black" mask="url(#path-2-outside-1_394_3663)"/>
</svg>
