<svg width="96" height="96" viewBox="0 0 96 96" fill="none" xmlns="http://www.w3.org/2000/svg">
<g clip-path="url(#clip0_513_2512)">
<rect x="0.5" y="0.5" width="95" height="95" rx="14.5" fill="#8682FF" stroke="black"/>
<mask id="path-2-outside-1_513_2512" maskUnits="userSpaceOnUse" x="9" y="35" width="78" height="26" fill="black">
<rect fill="white" x="9" y="35" width="78" height="26"/>
<path d="M10.5581 36.9609H17.854C19.509 36.9609 20.9066 37.2132 22.0469 37.7178C23.1973 38.2223 24.0701 38.9691 24.6655 39.958C25.271 40.9368 25.5737 42.1427 25.5737 43.5757C25.5737 44.5848 25.3669 45.5081 24.9531 46.3457C24.5495 47.1732 23.9642 47.8796 23.1973 48.4648C22.4404 49.04 21.5322 49.4689 20.4727 49.7515L19.6553 50.0693H12.7983L12.7681 47.6929H17.9448C18.9943 47.6929 19.8672 47.5112 20.5635 47.1479C21.2598 46.7746 21.7845 46.2751 22.1377 45.6494C22.4909 45.0238 22.6675 44.3325 22.6675 43.5757C22.6675 42.728 22.501 41.9863 22.168 41.3506C21.835 40.7148 21.3102 40.2254 20.5938 39.8823C19.8874 39.5291 18.9741 39.3525 17.854 39.3525H13.4795V59H10.5581V36.9609ZM23.4395 59L18.0811 49.0098L21.1235 48.9946L26.5576 58.8184V59H23.4395ZM36.0332 59.3027C34.8929 59.3027 33.8586 59.111 32.9302 58.7275C32.0119 58.334 31.2197 57.784 30.5537 57.0776C29.8978 56.3713 29.3932 55.5337 29.04 54.5649C28.6868 53.5962 28.5103 52.5366 28.5103 51.3862V50.7505C28.5103 49.4185 28.707 48.2327 29.1006 47.1934C29.4941 46.1439 30.029 45.2559 30.7051 44.5293C31.3812 43.8027 32.1481 43.2528 33.0059 42.8794C33.8636 42.506 34.7516 42.3193 35.6699 42.3193C36.8405 42.3193 37.8496 42.5212 38.6973 42.9248C39.555 43.3285 40.2563 43.8936 40.8013 44.6201C41.3462 45.3366 41.7498 46.1842 42.0122 47.1631C42.2746 48.1318 42.4058 49.1914 42.4058 50.3418V51.5981H30.1753V49.3125H39.6055V49.1006C39.5651 48.374 39.4137 47.6676 39.1514 46.9814C38.8991 46.2952 38.4954 45.7301 37.9404 45.2861C37.3854 44.8421 36.6286 44.6201 35.6699 44.6201C35.0342 44.6201 34.4489 44.7563 33.9141 45.0288C33.3792 45.2912 32.9201 45.6847 32.5366 46.2095C32.1532 46.7342 31.8555 47.375 31.6436 48.1318C31.4316 48.8887 31.3257 49.7616 31.3257 50.7505V51.3862C31.3257 52.1632 31.4316 52.8949 31.6436 53.5811C31.8656 54.2572 32.1834 54.8525 32.5972 55.3672C33.021 55.8818 33.5306 56.2855 34.126 56.5781C34.7314 56.8708 35.4176 57.0171 36.1846 57.0171C37.1735 57.0171 38.0111 56.8153 38.6973 56.4116C39.3835 56.008 39.9839 55.4681 40.4985 54.792L42.1938 56.1392C41.8407 56.674 41.3916 57.1836 40.8467 57.668C40.3018 58.1523 39.6307 58.5459 38.8335 58.8486C38.0464 59.1514 37.113 59.3027 36.0332 59.3027ZM55.3325 56.1997V47.7686C55.3325 47.1227 55.2013 46.5627 54.939 46.0884C54.6867 45.604 54.3032 45.2306 53.7886 44.9683C53.2739 44.7059 52.6382 44.5747 51.8813 44.5747C51.175 44.5747 50.5544 44.6958 50.0195 44.938C49.4948 45.1802 49.0811 45.498 48.7783 45.8916C48.4857 46.2852 48.3394 46.709 48.3394 47.1631H45.5391C45.5391 46.5778 45.6904 45.9976 45.9932 45.4224C46.2959 44.8472 46.7298 44.3275 47.2949 43.8633C47.8701 43.389 48.5563 43.0156 49.3535 42.7432C50.1608 42.4606 51.0589 42.3193 52.0479 42.3193C53.2386 42.3193 54.2881 42.5212 55.1963 42.9248C56.1146 43.3285 56.8311 43.939 57.3457 44.7563C57.8704 45.5636 58.1328 46.5778 58.1328 47.7988V55.4277C58.1328 55.9727 58.1782 56.5529 58.269 57.1685C58.37 57.784 58.5163 58.3138 58.708 58.7578V59H55.7866C55.6453 58.6771 55.5343 58.2482 55.4536 57.7134C55.3729 57.1685 55.3325 56.6639 55.3325 56.1997ZM55.8169 49.0703L55.8472 51.0381H53.0166C52.2194 51.0381 51.508 51.1037 50.8823 51.2349C50.2567 51.356 49.7319 51.5426 49.3081 51.7949C48.8843 52.0472 48.5614 52.3651 48.3394 52.7485C48.1174 53.1219 48.0063 53.5609 48.0063 54.0654C48.0063 54.5801 48.1224 55.0493 48.3545 55.4731C48.5866 55.897 48.9347 56.235 49.3989 56.4873C49.8732 56.7295 50.4535 56.8506 51.1396 56.8506C51.9974 56.8506 52.7542 56.6689 53.4102 56.3057C54.0661 55.9424 54.5858 55.4984 54.9692 54.9736C55.3628 54.4489 55.5747 53.9393 55.605 53.4448L56.8008 54.792C56.7301 55.2158 56.5384 55.6851 56.2256 56.1997C55.9128 56.7144 55.494 57.2088 54.9692 57.6831C54.4546 58.1473 53.839 58.5358 53.1226 58.8486C52.4162 59.1514 51.619 59.3027 50.731 59.3027C49.6209 59.3027 48.6471 59.0858 47.8096 58.6519C46.9821 58.2179 46.3363 57.6377 45.8721 56.9111C45.418 56.1745 45.1909 55.3521 45.1909 54.4438C45.1909 53.5659 45.3625 52.7939 45.7056 52.1279C46.0487 51.4518 46.5431 50.8918 47.189 50.4478C47.8348 49.9937 48.6118 49.6506 49.52 49.4185C50.4282 49.1864 51.4424 49.0703 52.5625 49.0703H55.8169ZM69.0918 57.002C69.7578 57.002 70.3734 56.8657 70.9385 56.5933C71.5036 56.3208 71.9678 55.9474 72.3311 55.4731C72.6943 54.9888 72.9012 54.4388 72.9517 53.8232H75.6157C75.5653 54.792 75.2373 55.6951 74.6318 56.5327C74.0365 57.3602 73.2544 58.0312 72.2856 58.5459C71.3169 59.0505 70.2523 59.3027 69.0918 59.3027C67.8607 59.3027 66.786 59.0858 65.8677 58.6519C64.9595 58.2179 64.2026 57.6226 63.5972 56.8657C63.0018 56.1089 62.5527 55.241 62.25 54.2622C61.9574 53.2733 61.811 52.2288 61.811 51.1289V50.4932C61.811 49.3932 61.9574 48.3538 62.25 47.375C62.5527 46.3861 63.0018 45.5132 63.5972 44.7563C64.2026 43.9995 64.9595 43.4041 65.8677 42.9702C66.786 42.5363 67.8607 42.3193 69.0918 42.3193C70.3734 42.3193 71.4935 42.5817 72.4521 43.1064C73.4108 43.6211 74.1626 44.3275 74.7075 45.2256C75.2625 46.1136 75.5653 47.1227 75.6157 48.2529H72.9517C72.9012 47.5768 72.7095 46.9663 72.3765 46.4214C72.0535 45.8765 71.6095 45.4425 71.0444 45.1196C70.4894 44.7866 69.8385 44.6201 69.0918 44.6201C68.234 44.6201 67.5125 44.7917 66.9272 45.1348C66.3521 45.4678 65.8929 45.9219 65.5498 46.4971C65.2168 47.0622 64.9746 47.6929 64.8232 48.3892C64.682 49.0754 64.6113 49.7767 64.6113 50.4932V51.1289C64.6113 51.8454 64.682 52.5518 64.8232 53.248C64.9645 53.9443 65.2017 54.575 65.5347 55.1401C65.8778 55.7052 66.3369 56.1593 66.9121 56.5024C67.4974 56.8354 68.224 57.002 69.0918 57.002ZM85.6211 42.6221V44.7715H76.7661V42.6221H85.6211ZM79.7632 38.6411H82.5635V54.9434C82.5635 55.4984 82.6493 55.9172 82.8208 56.1997C82.9924 56.4823 83.2144 56.6689 83.4868 56.7598C83.7593 56.8506 84.0519 56.896 84.3647 56.896C84.5968 56.896 84.839 56.8758 85.0913 56.8354C85.3537 56.785 85.5505 56.7446 85.6816 56.7144L85.6968 59C85.4748 59.0706 85.1821 59.1362 84.8188 59.1968C84.4657 59.2674 84.0368 59.3027 83.5322 59.3027C82.846 59.3027 82.2153 59.1665 81.6401 58.894C81.0649 58.6216 80.6058 58.1675 80.2627 57.5317C79.9297 56.8859 79.7632 56.0181 79.7632 54.9282V38.6411Z"/>
</mask>
<path d="M10.5581 36.9609H17.854C19.509 36.9609 20.9066 37.2132 22.0469 37.7178C23.1973 38.2223 24.0701 38.9691 24.6655 39.958C25.271 40.9368 25.5737 42.1427 25.5737 43.5757C25.5737 44.5848 25.3669 45.5081 24.9531 46.3457C24.5495 47.1732 23.9642 47.8796 23.1973 48.4648C22.4404 49.04 21.5322 49.4689 20.4727 49.7515L19.6553 50.0693H12.7983L12.7681 47.6929H17.9448C18.9943 47.6929 19.8672 47.5112 20.5635 47.1479C21.2598 46.7746 21.7845 46.2751 22.1377 45.6494C22.4909 45.0238 22.6675 44.3325 22.6675 43.5757C22.6675 42.728 22.501 41.9863 22.168 41.3506C21.835 40.7148 21.3102 40.2254 20.5938 39.8823C19.8874 39.5291 18.9741 39.3525 17.854 39.3525H13.4795V59H10.5581V36.9609ZM23.4395 59L18.0811 49.0098L21.1235 48.9946L26.5576 58.8184V59H23.4395ZM36.0332 59.3027C34.8929 59.3027 33.8586 59.111 32.9302 58.7275C32.0119 58.334 31.2197 57.784 30.5537 57.0776C29.8978 56.3713 29.3932 55.5337 29.04 54.5649C28.6868 53.5962 28.5103 52.5366 28.5103 51.3862V50.7505C28.5103 49.4185 28.707 48.2327 29.1006 47.1934C29.4941 46.1439 30.029 45.2559 30.7051 44.5293C31.3812 43.8027 32.1481 43.2528 33.0059 42.8794C33.8636 42.506 34.7516 42.3193 35.6699 42.3193C36.8405 42.3193 37.8496 42.5212 38.6973 42.9248C39.555 43.3285 40.2563 43.8936 40.8013 44.6201C41.3462 45.3366 41.7498 46.1842 42.0122 47.1631C42.2746 48.1318 42.4058 49.1914 42.4058 50.3418V51.5981H30.1753V49.3125H39.6055V49.1006C39.5651 48.374 39.4137 47.6676 39.1514 46.9814C38.8991 46.2952 38.4954 45.7301 37.9404 45.2861C37.3854 44.8421 36.6286 44.6201 35.6699 44.6201C35.0342 44.6201 34.4489 44.7563 33.9141 45.0288C33.3792 45.2912 32.9201 45.6847 32.5366 46.2095C32.1532 46.7342 31.8555 47.375 31.6436 48.1318C31.4316 48.8887 31.3257 49.7616 31.3257 50.7505V51.3862C31.3257 52.1632 31.4316 52.8949 31.6436 53.5811C31.8656 54.2572 32.1834 54.8525 32.5972 55.3672C33.021 55.8818 33.5306 56.2855 34.126 56.5781C34.7314 56.8708 35.4176 57.0171 36.1846 57.0171C37.1735 57.0171 38.0111 56.8153 38.6973 56.4116C39.3835 56.008 39.9839 55.4681 40.4985 54.792L42.1938 56.1392C41.8407 56.674 41.3916 57.1836 40.8467 57.668C40.3018 58.1523 39.6307 58.5459 38.8335 58.8486C38.0464 59.1514 37.113 59.3027 36.0332 59.3027ZM55.3325 56.1997V47.7686C55.3325 47.1227 55.2013 46.5627 54.939 46.0884C54.6867 45.604 54.3032 45.2306 53.7886 44.9683C53.2739 44.7059 52.6382 44.5747 51.8813 44.5747C51.175 44.5747 50.5544 44.6958 50.0195 44.938C49.4948 45.1802 49.0811 45.498 48.7783 45.8916C48.4857 46.2852 48.3394 46.709 48.3394 47.1631H45.5391C45.5391 46.5778 45.6904 45.9976 45.9932 45.4224C46.2959 44.8472 46.7298 44.3275 47.2949 43.8633C47.8701 43.389 48.5563 43.0156 49.3535 42.7432C50.1608 42.4606 51.0589 42.3193 52.0479 42.3193C53.2386 42.3193 54.2881 42.5212 55.1963 42.9248C56.1146 43.3285 56.8311 43.939 57.3457 44.7563C57.8704 45.5636 58.1328 46.5778 58.1328 47.7988V55.4277C58.1328 55.9727 58.1782 56.5529 58.269 57.1685C58.37 57.784 58.5163 58.3138 58.708 58.7578V59H55.7866C55.6453 58.6771 55.5343 58.2482 55.4536 57.7134C55.3729 57.1685 55.3325 56.6639 55.3325 56.1997ZM55.8169 49.0703L55.8472 51.0381H53.0166C52.2194 51.0381 51.508 51.1037 50.8823 51.2349C50.2567 51.356 49.7319 51.5426 49.3081 51.7949C48.8843 52.0472 48.5614 52.3651 48.3394 52.7485C48.1174 53.1219 48.0063 53.5609 48.0063 54.0654C48.0063 54.5801 48.1224 55.0493 48.3545 55.4731C48.5866 55.897 48.9347 56.235 49.3989 56.4873C49.8732 56.7295 50.4535 56.8506 51.1396 56.8506C51.9974 56.8506 52.7542 56.6689 53.4102 56.3057C54.0661 55.9424 54.5858 55.4984 54.9692 54.9736C55.3628 54.4489 55.5747 53.9393 55.605 53.4448L56.8008 54.792C56.7301 55.2158 56.5384 55.6851 56.2256 56.1997C55.9128 56.7144 55.494 57.2088 54.9692 57.6831C54.4546 58.1473 53.839 58.5358 53.1226 58.8486C52.4162 59.1514 51.619 59.3027 50.731 59.3027C49.6209 59.3027 48.6471 59.0858 47.8096 58.6519C46.9821 58.2179 46.3363 57.6377 45.8721 56.9111C45.418 56.1745 45.1909 55.3521 45.1909 54.4438C45.1909 53.5659 45.3625 52.7939 45.7056 52.1279C46.0487 51.4518 46.5431 50.8918 47.189 50.4478C47.8348 49.9937 48.6118 49.6506 49.52 49.4185C50.4282 49.1864 51.4424 49.0703 52.5625 49.0703H55.8169ZM69.0918 57.002C69.7578 57.002 70.3734 56.8657 70.9385 56.5933C71.5036 56.3208 71.9678 55.9474 72.3311 55.4731C72.6943 54.9888 72.9012 54.4388 72.9517 53.8232H75.6157C75.5653 54.792 75.2373 55.6951 74.6318 56.5327C74.0365 57.3602 73.2544 58.0312 72.2856 58.5459C71.3169 59.0505 70.2523 59.3027 69.0918 59.3027C67.8607 59.3027 66.786 59.0858 65.8677 58.6519C64.9595 58.2179 64.2026 57.6226 63.5972 56.8657C63.0018 56.1089 62.5527 55.241 62.25 54.2622C61.9574 53.2733 61.811 52.2288 61.811 51.1289V50.4932C61.811 49.3932 61.9574 48.3538 62.25 47.375C62.5527 46.3861 63.0018 45.5132 63.5972 44.7563C64.2026 43.9995 64.9595 43.4041 65.8677 42.9702C66.786 42.5363 67.8607 42.3193 69.0918 42.3193C70.3734 42.3193 71.4935 42.5817 72.4521 43.1064C73.4108 43.6211 74.1626 44.3275 74.7075 45.2256C75.2625 46.1136 75.5653 47.1227 75.6157 48.2529H72.9517C72.9012 47.5768 72.7095 46.9663 72.3765 46.4214C72.0535 45.8765 71.6095 45.4425 71.0444 45.1196C70.4894 44.7866 69.8385 44.6201 69.0918 44.6201C68.234 44.6201 67.5125 44.7917 66.9272 45.1348C66.3521 45.4678 65.8929 45.9219 65.5498 46.4971C65.2168 47.0622 64.9746 47.6929 64.8232 48.3892C64.682 49.0754 64.6113 49.7767 64.6113 50.4932V51.1289C64.6113 51.8454 64.682 52.5518 64.8232 53.248C64.9645 53.9443 65.2017 54.575 65.5347 55.1401C65.8778 55.7052 66.3369 56.1593 66.9121 56.5024C67.4974 56.8354 68.224 57.002 69.0918 57.002ZM85.6211 42.6221V44.7715H76.7661V42.6221H85.6211ZM79.7632 38.6411H82.5635V54.9434C82.5635 55.4984 82.6493 55.9172 82.8208 56.1997C82.9924 56.4823 83.2144 56.6689 83.4868 56.7598C83.7593 56.8506 84.0519 56.896 84.3647 56.896C84.5968 56.896 84.839 56.8758 85.0913 56.8354C85.3537 56.785 85.5505 56.7446 85.6816 56.7144L85.6968 59C85.4748 59.0706 85.1821 59.1362 84.8188 59.1968C84.4657 59.2674 84.0368 59.3027 83.5322 59.3027C82.846 59.3027 82.2153 59.1665 81.6401 58.894C81.0649 58.6216 80.6058 58.1675 80.2627 57.5317C79.9297 56.8859 79.7632 56.0181 79.7632 54.9282V38.6411Z" fill="white"/>
<path d="M10.5581 36.9609V35.9609H9.55811V36.9609H10.5581ZM22.0469 37.7178L21.6422 38.6323L21.6452 38.6336L22.0469 37.7178ZM24.6655 39.958L23.8087 40.4738L23.8151 40.4841L24.6655 39.958ZM24.9531 46.3457L24.0565 45.9028L24.0544 45.9073L24.9531 46.3457ZM23.1973 48.4648L23.8024 49.261L23.8039 49.2598L23.1973 48.4648ZM20.4727 49.7515L20.215 48.7852L20.1617 48.7995L20.1102 48.8195L20.4727 49.7515ZM19.6553 50.0693V51.0693H19.8429L20.0177 51.0013L19.6553 50.0693ZM12.7983 50.0693L11.7984 50.0821L11.811 51.0693H12.7983V50.0693ZM12.7681 47.6929V46.6929H11.7552L11.7681 47.7056L12.7681 47.6929ZM20.5635 47.1479L21.0261 48.0346L21.0361 48.0292L20.5635 47.1479ZM20.5938 39.8823L20.1465 40.7768L20.1542 40.7806L20.1618 40.7842L20.5938 39.8823ZM13.4795 39.3525V38.3525H12.4795V39.3525H13.4795ZM13.4795 59V60H14.4795V59H13.4795ZM10.5581 59H9.55811V60H10.5581V59ZM23.4395 59L22.5582 59.4727L22.8411 60H23.4395V59ZM18.0811 49.0098L18.0761 48.0098L16.4144 48.018L17.1998 49.4824L18.0811 49.0098ZM21.1235 48.9946L21.9986 48.5106L21.7115 47.9917L21.1186 47.9946L21.1235 48.9946ZM26.5576 58.8184H27.5576V58.5602L27.4327 58.3343L26.5576 58.8184ZM26.5576 59V60H27.5576V59H26.5576ZM10.5581 36.9609V37.9609H17.854V36.9609V35.9609H10.5581V36.9609ZM17.854 36.9609V37.9609C19.4129 37.9609 20.6638 38.1993 21.6422 38.6323L22.0469 37.7178L22.4515 36.8033C21.1493 36.2271 19.605 35.9609 17.854 35.9609V36.9609ZM22.0469 37.7178L21.6452 38.6336C22.6238 39.0628 23.3296 39.6778 23.8088 40.4738L24.6655 39.958L25.5222 39.4422C24.8107 38.2604 23.7708 37.3819 22.4485 36.802L22.0469 37.7178ZM24.6655 39.958L23.8151 40.4841C24.3014 41.2703 24.5737 42.2833 24.5737 43.5757H25.5737H26.5737C26.5737 42.0022 26.2406 40.6034 25.516 39.432L24.6655 39.958ZM25.5737 43.5757H24.5737C24.5737 44.4438 24.3969 45.2138 24.0565 45.9028L24.9531 46.3457L25.8497 46.7886C26.3368 45.8025 26.5737 44.7258 26.5737 43.5757H25.5737ZM24.9531 46.3457L24.0544 45.9073C23.7223 46.5881 23.2398 47.1744 22.5906 47.6699L23.1973 48.4648L23.8039 49.2598C24.6886 48.5847 25.3767 47.7583 25.8519 46.7841L24.9531 46.3457ZM23.1973 48.4648L22.5922 47.6687C21.9536 48.154 21.1679 48.5311 20.215 48.7852L20.4727 49.7515L20.7303 50.7177C21.8965 50.4067 22.9272 49.9261 23.8023 49.261L23.1973 48.4648ZM20.4727 49.7515L20.1102 48.8195L19.2928 49.1373L19.6553 50.0693L20.0177 51.0013L20.8351 50.6835L20.4727 49.7515ZM19.6553 50.0693V49.0693H12.7983V50.0693V51.0693H19.6553V50.0693ZM12.7983 50.0693L13.7983 50.0566L13.768 47.6801L12.7681 47.6929L11.7681 47.7056L11.7984 50.0821L12.7983 50.0693ZM12.7681 47.6929V48.6929H17.9448V47.6929V46.6929H12.7681V47.6929ZM17.9448 47.6929V48.6929C19.1035 48.6929 20.1471 48.4931 21.026 48.0345L20.5635 47.1479L20.1009 46.2614C19.5873 46.5294 18.8851 46.6929 17.9448 46.6929V47.6929ZM20.5635 47.1479L21.0361 48.0292C21.8821 47.5756 22.553 46.9479 23.0085 46.141L22.1377 45.6494L21.2669 45.1578C21.016 45.6022 20.6374 45.9736 20.0909 46.2667L20.5635 47.1479ZM22.1377 45.6494L23.0085 46.141C23.451 45.3573 23.6675 44.4952 23.6675 43.5757H22.6675H21.6675C21.6675 44.1698 21.5308 44.6903 21.2669 45.1578L22.1377 45.6494ZM22.6675 43.5757H23.6675C23.6675 42.5956 23.4743 41.6893 23.0538 40.8866L22.168 41.3506L21.2821 41.8146C21.5277 42.2834 21.6675 42.8604 21.6675 43.5757H22.6675ZM22.168 41.3506L23.0538 40.8866C22.61 40.0393 21.9148 39.4062 21.0257 38.9804L20.5938 39.8823L20.1618 40.7842C20.7056 41.0446 21.0599 41.3904 21.2821 41.8146L22.168 41.3506ZM20.5938 39.8823L21.041 38.9879C20.1501 38.5424 19.0686 38.3525 17.854 38.3525V39.3525V40.3525C18.8796 40.3525 19.6247 40.5158 20.1465 40.7768L20.5938 39.8823ZM17.854 39.3525V38.3525H13.4795V39.3525V40.3525H17.854V39.3525ZM13.4795 39.3525H12.4795V59H13.4795H14.4795V39.3525H13.4795ZM13.4795 59V58H10.5581V59V60H13.4795V59ZM10.5581 59H11.5581V36.9609H10.5581H9.55811V59H10.5581ZM23.4395 59L24.3207 58.5273L18.9623 48.5371L18.0811 49.0098L17.1998 49.4824L22.5582 59.4727L23.4395 59ZM18.0811 49.0098L18.086 50.0098L21.1285 49.9946L21.1235 48.9946L21.1186 47.9946L18.0761 48.0098L18.0811 49.0098ZM21.1235 48.9946L20.2485 49.4787L25.6826 59.3024L26.5576 58.8184L27.4327 58.3343L21.9986 48.5106L21.1235 48.9946ZM26.5576 58.8184H25.5576V59H26.5576H27.5576V58.8184H26.5576ZM26.5576 59V58H23.4395V59V60H26.5576V59ZM32.9302 58.7275L32.5362 59.6468L32.5484 59.6518L32.9302 58.7275ZM30.5537 57.0776L29.8209 57.7581L29.8261 57.7636L30.5537 57.0776ZM29.04 54.5649L28.1005 54.9075L29.04 54.5649ZM29.1006 47.1934L30.0358 47.5475L30.0369 47.5445L29.1006 47.1934ZM30.7051 44.5293L29.973 43.8481L30.7051 44.5293ZM33.0059 42.8794L33.405 43.7963L33.0059 42.8794ZM38.6973 42.9248L38.2673 43.8277L38.2715 43.8296L38.6973 42.9248ZM40.8013 44.6201L40.0013 45.2201L40.0053 45.2255L40.8013 44.6201ZM42.0122 47.1631L41.0463 47.422L41.047 47.4245L42.0122 47.1631ZM42.4058 51.5981V52.5981H43.4058V51.5981H42.4058ZM30.1753 51.5981H29.1753V52.5981H30.1753V51.5981ZM30.1753 49.3125V48.3125H29.1753V49.3125H30.1753ZM39.6055 49.3125V50.3125H40.6055V49.3125H39.6055ZM39.6055 49.1006H40.6055V49.0728L40.6039 49.0451L39.6055 49.1006ZM39.1514 46.9814L38.2127 47.3265L38.2173 47.3386L39.1514 46.9814ZM33.9141 45.0288L34.3545 45.9266L34.3613 45.9233L34.368 45.9198L33.9141 45.0288ZM31.6436 53.5811L30.6881 53.8761L30.6907 53.8846L30.6935 53.893L31.6436 53.5811ZM32.5972 55.3672L31.8177 55.9938L31.8252 56.0029L32.5972 55.3672ZM34.126 56.5781L33.6848 57.4756L33.6908 57.4785L34.126 56.5781ZM40.4985 54.792L41.1207 54.0091L40.3213 53.3738L39.7028 54.1863L40.4985 54.792ZM42.1938 56.1392L43.0283 56.6902L43.533 55.926L42.816 55.3562L42.1938 56.1392ZM38.8335 58.8486L38.4785 57.9138L38.4745 57.9153L38.8335 58.8486ZM36.0332 59.3027V58.3027C35.0063 58.3027 34.104 58.1304 33.3119 57.8033L32.9302 58.7275L32.5484 59.6518C33.6132 60.0916 34.7795 60.3027 36.0332 60.3027V59.3027ZM32.9302 58.7275L33.3241 57.8084C32.5281 57.4672 31.8505 56.9953 31.2813 56.3916L30.5537 57.0776L29.8261 57.7636C30.589 58.5727 31.4957 59.2007 32.5363 59.6467L32.9302 58.7275ZM30.5537 57.0776L31.2865 56.3972C30.7275 55.7952 30.2903 55.0747 29.9795 54.2224L29.04 54.5649L28.1005 54.9075C28.4962 55.9927 29.0681 56.9473 29.8209 57.7581L30.5537 57.0776ZM29.04 54.5649L29.9795 54.2224C29.6707 53.3754 29.5103 52.4332 29.5103 51.3862H28.5103H27.5103C27.5103 52.64 27.703 53.817 28.1005 54.9075L29.04 54.5649ZM28.5103 51.3862H29.5103V50.7505H28.5103H27.5103V51.3862H28.5103ZM28.5103 50.7505H29.5103C29.5103 49.516 29.6926 48.4537 30.0358 47.5475L29.1006 47.1934L28.1654 46.8393C27.7214 48.0118 27.5103 49.3209 27.5103 50.7505H28.5103ZM29.1006 47.1934L30.0369 47.5445C30.3905 46.6016 30.8608 45.8299 31.4371 45.2105L30.7051 44.5293L29.973 43.8481C29.1971 44.6819 28.5978 45.6862 28.1643 46.8422L29.1006 47.1934ZM30.7051 44.5293L31.4371 45.2105C32.0254 44.5783 32.6808 44.1115 33.405 43.7963L33.0059 42.8794L32.6067 41.9625C31.6154 42.394 30.7369 43.0271 29.973 43.8481L30.7051 44.5293ZM33.0059 42.8794L33.405 43.7963C34.1392 43.4767 34.8916 43.3193 35.6699 43.3193V42.3193V41.3193C34.6117 41.3193 33.588 41.5354 32.6067 41.9625L33.0059 42.8794ZM35.6699 42.3193V43.3193C36.7275 43.3193 37.5829 43.5018 38.2673 43.8277L38.6973 42.9248L39.1272 42.0219C38.1163 41.5406 36.9535 41.3193 35.6699 41.3193V42.3193ZM38.6973 42.9248L38.2715 43.8296C38.9882 44.1669 39.5587 44.63 40.0013 45.2201L40.8013 44.6201L41.6013 44.0201C40.954 43.1571 40.1219 42.49 39.1231 42.02L38.6973 42.9248ZM40.8013 44.6201L40.0053 45.2255C40.4623 45.8264 40.8133 46.5528 41.0463 47.422L42.0122 47.1631L42.9781 46.9042C42.6863 45.8156 42.23 44.8468 41.5972 44.0147L40.8013 44.6201ZM42.0122 47.1631L41.047 47.4245C41.2832 48.2967 41.4058 49.2671 41.4058 50.3418H42.4058H43.4058C43.4058 49.1157 43.266 47.967 42.9774 46.9017L42.0122 47.1631ZM42.4058 50.3418H41.4058V51.5981H42.4058H43.4058V50.3418H42.4058ZM42.4058 51.5981V50.5981H30.1753V51.5981V52.5981H42.4058V51.5981ZM30.1753 51.5981H31.1753V49.3125H30.1753H29.1753V51.5981H30.1753ZM30.1753 49.3125V50.3125H39.6055V49.3125V48.3125H30.1753V49.3125ZM39.6055 49.3125H40.6055V49.1006H39.6055H38.6055V49.3125H39.6055ZM39.6055 49.1006L40.6039 49.0451C40.5578 48.2143 40.3844 47.4062 40.0854 46.6243L39.1514 46.9814L38.2173 47.3386C38.4431 47.9291 38.5724 48.5338 38.607 49.1561L39.6055 49.1006ZM39.1514 46.9814L40.0899 46.6364C39.7766 45.7842 39.2668 45.0666 38.5651 44.5053L37.9404 45.2861L37.3157 46.067C37.7241 46.3937 38.0215 46.8063 38.2128 47.3265L39.1514 46.9814ZM37.9404 45.2861L38.5651 44.5053C37.7797 43.8769 36.7767 43.6201 35.6699 43.6201V44.6201V45.6201C36.4805 45.6201 36.9912 45.8074 37.3157 46.067L37.9404 45.2861ZM35.6699 44.6201V43.6201C34.886 43.6201 34.1439 43.7895 33.4601 44.1378L33.9141 45.0288L34.368 45.9198C34.7539 45.7232 35.1824 45.6201 35.6699 45.6201V44.6201ZM33.9141 45.0288L33.4736 44.131C32.7804 44.4711 32.1994 44.9761 31.7292 45.6195L32.5366 46.2095L33.344 46.7995C33.6408 46.3934 33.978 46.1113 34.3545 45.9266L33.9141 45.0288ZM32.5366 46.2095L31.7292 45.6195C31.2621 46.2587 30.9182 47.0136 30.6806 47.8622L31.6436 48.1318L32.6065 48.4015C32.7927 47.7364 33.0442 47.2097 33.344 46.7995L32.5366 46.2095ZM31.6436 48.1318L30.6806 47.8622C30.4387 48.726 30.3257 49.6928 30.3257 50.7505H31.3257H32.3257C32.3257 49.8304 32.4246 49.0513 32.6065 48.4015L31.6436 48.1318ZM31.3257 50.7505H30.3257V51.3862H31.3257H32.3257V50.7505H31.3257ZM31.3257 51.3862H30.3257C30.3257 52.2551 30.4443 53.0869 30.6881 53.8761L31.6436 53.5811L32.599 53.286C32.4189 52.7029 32.3257 52.0714 32.3257 51.3862H31.3257ZM31.6436 53.5811L30.6935 53.893C30.9501 54.6745 31.323 55.3783 31.8178 55.9937L32.5972 55.3672L33.3765 54.7406C33.0438 54.3268 32.7811 53.8398 32.5936 53.2691L31.6436 53.5811ZM32.5972 55.3672L31.8252 56.0029C32.339 56.6268 32.9612 57.1199 33.6849 57.4756L34.126 56.5781L34.5671 55.6807C34.1 55.4511 33.703 55.1369 33.3691 54.7315L32.5972 55.3672ZM34.126 56.5781L33.6908 57.4785C34.4499 57.8454 35.2882 58.0171 36.1846 58.0171V57.0171V56.0171C35.5471 56.0171 35.013 55.8962 34.5611 55.6778L34.126 56.5781ZM36.1846 57.0171V58.0171C37.309 58.0171 38.3313 57.7871 39.2043 57.2736L38.6973 56.4116L38.1902 55.5497C37.6909 55.8434 37.038 56.0171 36.1846 56.0171V57.0171ZM38.6973 56.4116L39.2043 57.2736C40.0098 56.7997 40.7063 56.1701 41.2942 55.3977L40.4985 54.792L39.7028 54.1863C39.2615 54.7661 38.7571 55.2162 38.1902 55.5497L38.6973 56.4116ZM40.4985 54.792L39.8764 55.5749L41.5717 56.9221L42.1938 56.1392L42.816 55.3562L41.1207 54.0091L40.4985 54.792ZM42.1938 56.1392L41.3594 55.5881C41.0602 56.0412 40.671 56.4862 40.1823 56.9206L40.8467 57.668L41.511 58.4154C42.1122 57.881 42.6212 57.3068 43.0283 56.6902L42.1938 56.1392ZM40.8467 57.668L40.1823 56.9206C39.7423 57.3117 39.181 57.647 38.4785 57.9138L38.8335 58.8486L39.1885 59.7835C40.0804 59.4448 40.8613 58.993 41.511 58.4154L40.8467 57.668ZM38.8335 58.8486L38.4745 57.9153C37.8291 58.1635 37.0231 58.3027 36.0332 58.3027V59.3027V60.3027C37.2028 60.3027 38.2637 60.1392 39.1925 59.782L38.8335 58.8486ZM54.939 46.0884L54.0521 46.5503L54.0579 46.5615L54.0639 46.5724L54.939 46.0884ZM50.0195 44.938L49.607 44.027L49.6005 44.03L50.0195 44.938ZM48.7783 45.8916L47.9857 45.2819L47.9807 45.2884L47.9759 45.2949L48.7783 45.8916ZM48.3394 47.1631V48.1631H49.3394V47.1631H48.3394ZM45.5391 47.1631H44.5391V48.1631H45.5391V47.1631ZM47.2949 43.8633L47.9297 44.636L47.9311 44.6348L47.2949 43.8633ZM49.3535 42.7432L49.6769 43.6895L49.6839 43.687L49.3535 42.7432ZM55.1963 42.9248L54.7901 43.8386L54.7939 43.8403L55.1963 42.9248ZM57.3457 44.7563L56.4995 45.2892L56.5033 45.2953L56.5073 45.3013L57.3457 44.7563ZM58.269 57.1685L57.2798 57.3144L57.2809 57.3223L57.2822 57.3302L58.269 57.1685ZM58.708 58.7578H59.708V58.5511L59.6261 58.3614L58.708 58.7578ZM58.708 59V60H59.708V59H58.708ZM55.7866 59L54.8705 59.4008L55.1326 60H55.7866V59ZM55.4536 57.7134L54.4644 57.8599L54.4648 57.8626L55.4536 57.7134ZM55.8169 49.0703L56.8168 49.0549L56.8016 48.0703H55.8169V49.0703ZM55.8472 51.0381V52.0381H56.8627L56.847 51.0227L55.8472 51.0381ZM50.8823 51.2349L51.0723 52.2166L51.08 52.2152L51.0875 52.2136L50.8823 51.2349ZM48.3394 52.7485L49.1989 53.2596L49.2048 53.2496L48.3394 52.7485ZM49.3989 56.4873L48.9214 57.3659L48.9327 57.3721L48.9441 57.3779L49.3989 56.4873ZM54.9692 54.9736L54.1692 54.3736L54.1618 54.3836L54.9692 54.9736ZM55.605 53.4448L56.3529 52.781L54.754 50.9798L54.6068 53.3837L55.605 53.4448ZM56.8008 54.792L57.7872 54.9564L57.8657 54.4853L57.5487 54.1282L56.8008 54.792ZM54.9692 57.6831L55.639 58.4257L55.6398 58.425L54.9692 57.6831ZM53.1226 58.8486L53.5165 59.7678L53.5227 59.7651L53.1226 58.8486ZM47.8096 58.6519L47.3452 59.5375L47.3496 59.5398L47.8096 58.6519ZM45.8721 56.9111L45.0208 57.4359L45.025 57.4427L45.0294 57.4495L45.8721 56.9111ZM45.7056 52.1279L46.5946 52.5859L46.5973 52.5805L45.7056 52.1279ZM47.189 50.4478L47.7555 51.2718L47.7641 51.2658L47.189 50.4478ZM55.3325 56.1997H56.3325V47.7686H55.3325H54.3325V56.1997H55.3325ZM55.3325 47.7686H56.3325C56.3325 46.9858 56.1727 46.2528 55.814 45.6043L54.939 46.0884L54.0639 46.5724C54.23 46.8726 54.3325 47.2596 54.3325 47.7686H55.3325ZM54.939 46.0884L55.8259 45.6264C55.4718 44.9466 54.9314 44.4284 54.2428 44.0774L53.7886 44.9683L53.3344 45.8592C53.675 46.0328 53.9016 46.2614 54.0521 46.5503L54.939 46.0884ZM53.7886 44.9683L54.2428 44.0774C53.5507 43.7245 52.7489 43.5747 51.8813 43.5747V44.5747V45.5747C52.5275 45.5747 52.9971 45.6872 53.3344 45.8592L53.7886 44.9683ZM51.8813 44.5747V43.5747C51.0611 43.5747 50.295 43.7155 49.607 44.027L50.0195 44.938L50.432 45.8489C50.8137 45.6761 51.2888 45.5747 51.8813 45.5747V44.5747ZM50.0195 44.938L49.6005 44.03C48.9531 44.3288 48.402 44.7407 47.9857 45.2819L48.7783 45.8916L49.5709 46.5013C49.7601 46.2554 50.0365 46.0315 50.4386 45.8459L50.0195 44.938ZM48.7783 45.8916L47.9759 45.2949C47.5658 45.8463 47.3394 46.4765 47.3394 47.1631H48.3394H49.3394C49.3394 46.9415 49.4055 46.724 49.5808 46.4883L48.7783 45.8916ZM48.3394 47.1631V46.1631H45.5391V47.1631V48.1631H48.3394V47.1631ZM45.5391 47.1631H46.5391C46.5391 46.7574 46.6424 46.3358 46.8781 45.8881L45.9932 45.4224L45.1082 44.9566C44.7384 45.6593 44.5391 46.3982 44.5391 47.1631H45.5391ZM45.9932 45.4224L46.8781 45.8881C47.1114 45.4448 47.4547 45.0261 47.9297 44.636L47.2949 43.8633L46.6602 43.0906C46.0049 43.6288 45.4804 44.2495 45.1082 44.9566L45.9932 45.4224ZM47.2949 43.8633L47.9311 44.6348C48.4021 44.2464 48.979 43.928 49.6769 43.6894L49.3535 42.7432L49.0301 41.7969C48.1337 42.1033 47.3381 42.5316 46.6587 43.0917L47.2949 43.8633ZM49.3535 42.7432L49.6839 43.687C50.3698 43.4469 51.1542 43.3193 52.0479 43.3193V42.3193V41.3193C50.9637 41.3193 49.9518 41.4743 49.0232 41.7993L49.3535 42.7432ZM52.0479 42.3193V43.3193C53.1259 43.3193 54.0326 43.5019 54.7902 43.8386L55.1963 42.9248L55.6024 42.011C54.5436 41.5404 53.3513 41.3193 52.0479 41.3193V42.3193ZM55.1963 42.9248L54.7939 43.8403C55.5368 44.1668 56.0955 44.6476 56.4995 45.2892L57.3457 44.7563L58.1919 44.2235C57.5666 43.2304 56.6924 42.4901 55.5987 42.0093L55.1963 42.9248ZM57.3457 44.7563L56.5073 45.3013C56.9016 45.908 57.1328 46.7197 57.1328 47.7988H58.1328H59.1328C59.1328 46.4359 58.8393 45.2193 58.1841 44.2114L57.3457 44.7563ZM58.1328 47.7988H57.1328V55.4277H58.1328H59.1328V47.7988H58.1328ZM58.1328 55.4277H57.1328C57.1328 56.0278 57.1828 56.6572 57.2798 57.3144L58.269 57.1685L59.2583 57.0225C59.1737 56.4486 59.1328 55.9175 59.1328 55.4277H58.1328ZM58.269 57.1685L57.2822 57.3302C57.3928 58.0046 57.558 58.6171 57.7899 59.1542L58.708 58.7578L59.6261 58.3614C59.4745 58.0105 59.3471 57.5635 59.2559 57.0067L58.269 57.1685ZM58.708 58.7578H57.708V59H58.708H59.708V58.7578H58.708ZM58.708 59V58H55.7866V59V60H58.708V59ZM55.7866 59L56.7028 58.5992C56.6101 58.3873 56.5162 58.0532 56.4424 57.5641L55.4536 57.7134L54.4648 57.8626C54.5524 58.4432 54.6806 58.9669 54.8705 59.4008L55.7866 59ZM55.4536 57.7134L56.4428 57.5668C56.368 57.0618 56.3325 56.6068 56.3325 56.1997H55.3325H54.3325C54.3325 56.721 54.3778 57.2752 54.4644 57.8599L55.4536 57.7134ZM55.8169 49.0703L54.817 49.0857L54.8473 51.0535L55.8472 51.0381L56.847 51.0227L56.8168 49.0549L55.8169 49.0703ZM55.8472 51.0381V50.0381H53.0166V51.0381V52.0381H55.8472V51.0381ZM53.0166 51.0381V50.0381C52.1666 50.0381 51.3844 50.1078 50.6771 50.2561L50.8823 51.2349L51.0875 52.2136C51.6316 52.0995 52.2722 52.0381 53.0166 52.0381V51.0381ZM50.8823 51.2349L50.6923 50.2531C49.9847 50.39 49.3439 50.6098 48.7966 50.9356L49.3081 51.7949L49.8196 52.6542C50.1199 52.4754 50.5287 52.3219 51.0723 52.2166L50.8823 51.2349ZM49.3081 51.7949L48.7966 50.9356C48.2431 51.2651 47.7908 51.7002 47.4739 52.2475L48.3394 52.7485L49.2048 53.2496C49.3319 53.0299 49.5254 52.8293 49.8196 52.6542L49.3081 51.7949ZM48.3394 52.7485L47.4798 52.2375C47.1519 52.789 47.0063 53.4104 47.0063 54.0654H48.0063H49.0063C49.0063 53.7113 49.0828 53.4549 49.1989 53.2596L48.3394 52.7485ZM48.0063 54.0654H47.0063C47.0063 54.7367 47.1594 55.3728 47.4774 55.9535L48.3545 55.4731L49.2316 54.9928C49.0854 54.7258 49.0063 54.4235 49.0063 54.0654H48.0063ZM48.3545 55.4731L47.4774 55.9535C47.8103 56.5613 48.3049 57.0309 48.9214 57.3659L49.3989 56.4873L49.8764 55.6087C49.5645 55.4392 49.3629 55.2327 49.2316 54.9928L48.3545 55.4731ZM49.3989 56.4873L48.9441 57.3779C49.5939 57.7097 50.3395 57.8506 51.1396 57.8506V56.8506V55.8506C50.5674 55.8506 50.1525 55.7493 49.8537 55.5967L49.3989 56.4873ZM51.1396 56.8506V57.8506C52.1422 57.8506 53.0703 57.637 53.8947 57.1805L53.4102 56.3057L52.9257 55.4309C52.4382 55.7008 51.8526 55.8506 51.1396 55.8506V56.8506ZM53.4102 56.3057L53.8947 57.1805C54.6582 56.7576 55.2953 56.2224 55.7766 55.5636L54.9692 54.9736L54.1618 54.3836C53.8763 54.7744 53.474 55.1272 52.9257 55.4309L53.4102 56.3057ZM54.9692 54.9736L55.7692 55.5736C56.2428 54.9422 56.5576 54.2495 56.6031 53.5059L55.605 53.4448L54.6068 53.3837C54.5918 53.6291 54.4828 53.9556 54.1692 54.3736L54.9692 54.9736ZM55.605 53.4448L54.8571 54.1087L56.0529 55.4558L56.8008 54.792L57.5487 54.1282L56.3529 52.781L55.605 53.4448ZM56.8008 54.792L55.8144 54.6276C55.7713 54.8862 55.6424 55.234 55.3711 55.6803L56.2256 56.1997L57.0801 56.7191C57.4345 56.1361 57.689 55.5454 57.7872 54.9564L56.8008 54.792ZM56.2256 56.1997L55.3711 55.6803C55.1163 56.0993 54.7638 56.5208 54.2987 56.9412L54.9692 57.6831L55.6398 58.425C56.2241 57.8968 56.7092 57.3294 57.0801 56.7191L56.2256 56.1997ZM54.9692 57.6831L54.2995 56.9405C53.8743 57.3241 53.3527 57.657 52.7224 57.9322L53.1226 58.8486L53.5227 59.7651C54.3254 59.4146 55.0349 58.9705 55.639 58.4257L54.9692 57.6831ZM53.1226 58.8486L52.7286 57.9295C52.1646 58.1712 51.5044 58.3027 50.731 58.3027V59.3027V60.3027C51.7335 60.3027 52.6678 60.1315 53.5165 59.7678L53.1226 58.8486ZM50.731 59.3027V58.3027C49.7528 58.3027 48.9419 58.1122 48.2696 57.7639L47.8096 58.6519L47.3496 59.5398C48.3524 60.0593 49.4891 60.3027 50.731 60.3027V59.3027ZM47.8096 58.6519L48.274 57.7662C47.5874 57.4062 47.0775 56.9405 46.7148 56.3727L45.8721 56.9111L45.0294 57.4495C45.5951 58.3349 46.3768 59.0297 47.3452 59.5375L47.8096 58.6519ZM45.8721 56.9111L46.7233 56.3864C46.3714 55.8155 46.1909 55.1763 46.1909 54.4438H45.1909H44.1909C44.1909 55.5278 44.4645 56.5335 45.0208 57.4359L45.8721 56.9111ZM45.1909 54.4438H46.1909C46.1909 53.6979 46.336 53.0878 46.5945 52.5859L45.7056 52.1279L44.8166 51.67C44.389 52.5001 44.1909 53.434 44.1909 54.4438H45.1909ZM45.7056 52.1279L46.5973 52.5805C46.8622 52.0586 47.2426 51.6244 47.7555 51.2718L47.189 50.4478L46.6224 49.6237C45.8437 50.1591 45.2352 50.8451 44.8138 51.6754L45.7056 52.1279ZM47.189 50.4478L47.7641 51.2658C48.2942 50.8931 48.9553 50.5949 49.7676 50.3873L49.52 49.4185L49.2724 48.4496C48.2683 48.7062 47.3754 49.0942 46.6138 49.6297L47.189 50.4478ZM49.52 49.4185L49.7676 50.3873C50.581 50.1795 51.5102 50.0703 52.5625 50.0703V49.0703V48.0703C51.3745 48.0703 50.2754 48.1933 49.2724 48.4496L49.52 49.4185ZM52.5625 49.0703V50.0703H55.8169V49.0703V48.0703H52.5625V49.0703ZM72.3311 55.4731L73.125 56.0813L73.1311 56.0731L72.3311 55.4731ZM72.9517 53.8232V52.8232H72.0303L71.955 53.7415L72.9517 53.8232ZM75.6157 53.8232L76.6144 53.8753L76.6692 52.8232H75.6157V53.8232ZM74.6318 56.5327L73.8214 55.9469L73.8201 55.9487L74.6318 56.5327ZM72.2856 58.5459L72.7476 59.4328L72.7548 59.429L72.2856 58.5459ZM65.8677 58.6519L65.4366 59.5542L65.4404 59.556L65.8677 58.6519ZM63.5972 56.8657L62.8112 57.484L62.8163 57.4904L63.5972 56.8657ZM62.25 54.2622L61.291 54.546L61.2946 54.5577L62.25 54.2622ZM62.25 47.375L61.2938 47.0823L61.2919 47.0886L62.25 47.375ZM63.5972 44.7563L62.8163 44.1316L62.8112 44.1381L63.5972 44.7563ZM65.8677 42.9702L65.4404 42.0661L65.4366 42.0679L65.8677 42.9702ZM72.4521 43.1064L71.972 43.9837L71.9792 43.9875L72.4521 43.1064ZM74.7075 45.2256L73.8525 45.7444L73.8595 45.7556L74.7075 45.2256ZM75.6157 48.2529V49.2529H76.6614L76.6147 48.2083L75.6157 48.2529ZM72.9517 48.2529L71.9544 48.3273L72.0235 49.2529H72.9517V48.2529ZM72.3765 46.4214L71.5161 46.9312L71.5232 46.9428L72.3765 46.4214ZM71.0444 45.1196L70.5299 45.9771L70.5391 45.9826L70.5483 45.9879L71.0444 45.1196ZM66.9272 45.1348L67.4283 46.0002L67.433 45.9975L66.9272 45.1348ZM65.5498 46.4971L64.691 45.9848L64.6883 45.9894L65.5498 46.4971ZM64.8232 48.3892L63.846 48.1767L63.8438 48.1875L64.8232 48.3892ZM65.5347 55.1401L64.6731 55.6479L64.6799 55.6591L65.5347 55.1401ZM66.9121 56.5024L66.3998 57.3613L66.4087 57.3665L66.4176 57.3716L66.9121 56.5024ZM69.0918 57.002V58.002C69.8987 58.002 70.6639 57.8358 71.3728 57.494L70.9385 56.5933L70.5042 55.6925C70.0828 55.8956 69.6169 56.002 69.0918 56.002V57.002ZM70.9385 56.5933L71.3728 57.494C72.0717 57.157 72.6616 56.6862 73.1249 56.0812L72.3311 55.4731L71.5372 54.8651C71.274 55.2087 70.9354 55.4846 70.5042 55.6925L70.9385 56.5933ZM72.3311 55.4731L73.1311 56.0731C73.6098 55.4348 73.8828 54.7044 73.9483 53.9049L72.9517 53.8232L71.955 53.7415C71.9196 54.1732 71.7789 54.5427 71.5311 54.8731L72.3311 55.4731ZM72.9517 53.8232V54.8232H75.6157V53.8232V52.8232H72.9517V53.8232ZM75.6157 53.8232L74.6171 53.7712C74.5773 54.5349 74.3218 55.2547 73.8214 55.9469L74.6318 56.5327L75.4423 57.1186C76.1528 56.1356 76.5532 55.0491 76.6144 53.8753L75.6157 53.8232ZM74.6318 56.5327L73.8201 55.9487C73.3212 56.6421 72.6601 57.2146 71.8165 57.6628L72.2856 58.5459L72.7548 59.429C73.8487 58.8479 74.7518 58.0782 75.4436 57.1168L74.6318 56.5327ZM72.2856 58.5459L71.8237 57.659C71.0065 58.0846 70.1018 58.3027 69.0918 58.3027V59.3027V60.3027C70.4028 60.3027 71.6273 60.0163 72.7476 59.4328L72.2856 58.5459ZM69.0918 59.3027V58.3027C67.9776 58.3027 67.0543 58.1066 66.2949 57.7477L65.8677 58.6519L65.4404 59.556C66.5176 60.065 67.7437 60.3027 69.0918 60.3027V59.3027ZM65.8677 58.6519L66.2988 57.7496C65.5212 57.378 64.8857 56.8756 64.378 56.241L63.5972 56.8657L62.8163 57.4904C63.5196 58.3695 64.3977 59.0578 65.4366 59.5542L65.8677 58.6519ZM63.5972 56.8657L64.3831 56.2474C63.8683 55.593 63.4742 54.8361 63.2054 53.9667L62.25 54.2622L61.2946 54.5577C61.6313 55.646 62.1353 56.6248 62.8112 57.484L63.5972 56.8657ZM62.25 54.2622L63.2089 53.9785C62.9453 53.0876 62.811 52.1392 62.811 51.1289H61.811H60.811C60.811 52.3185 60.9694 53.459 61.2911 54.546L62.25 54.2622ZM61.811 51.1289H62.811V50.4932H61.811H60.811V51.1289H61.811ZM61.811 50.4932H62.811C62.811 49.4828 62.9453 48.5405 63.2081 47.6614L62.25 47.375L61.2919 47.0886C60.9694 48.1672 60.811 49.3036 60.811 50.4932H61.811ZM62.25 47.375L63.2062 47.6677C63.4755 46.7881 63.8696 46.0274 64.3831 45.3746L63.5972 44.7563L62.8112 44.1381C62.134 44.999 61.63 45.9841 61.2938 47.0823L62.25 47.375ZM63.5972 44.7563L64.378 45.381C64.8857 44.7465 65.5212 44.244 66.2988 43.8725L65.8677 42.9702L65.4366 42.0679C64.3977 42.5642 63.5196 43.2525 62.8163 44.1317L63.5972 44.7563ZM65.8677 42.9702L66.2949 43.8744C67.0543 43.5155 67.9776 43.3193 69.0918 43.3193V42.3193V41.3193C67.7437 41.3193 66.5176 41.5571 65.4404 42.0661L65.8677 42.9702ZM69.0918 42.3193V43.3193C70.2346 43.3193 71.1841 43.5524 71.972 43.9836L72.4521 43.1064L72.9323 42.2293C71.8029 41.611 70.5121 41.3193 69.0918 41.3193V42.3193ZM72.4521 43.1064L71.9792 43.9875C72.7863 44.4208 73.4037 45.0045 73.8526 45.7443L74.7075 45.2256L75.5625 44.7069C74.9215 43.6504 74.0353 42.8214 72.9251 42.2254L72.4521 43.1064ZM74.7075 45.2256L73.8595 45.7556C74.316 46.4859 74.5733 47.3252 74.6167 48.2975L75.6157 48.2529L76.6147 48.2083C76.5572 46.9203 76.2091 45.7413 75.5555 44.6956L74.7075 45.2256ZM75.6157 48.2529V47.2529H72.9517V48.2529V49.2529H75.6157V48.2529ZM72.9517 48.2529L73.9489 48.1785C73.8874 47.3541 73.6506 46.5887 73.2297 45.8999L72.3765 46.4214L71.5232 46.9428C71.7683 47.344 71.915 47.7995 71.9544 48.3273L72.9517 48.2529ZM72.3765 46.4214L73.2368 45.9116C72.823 45.2134 72.2517 44.6578 71.5406 44.2514L71.0444 45.1196L70.5483 45.9879C70.9673 46.2273 71.2841 46.5395 71.5162 46.9312L72.3765 46.4214ZM71.0444 45.1196L71.5589 44.2621C70.8259 43.8223 69.9915 43.6201 69.0918 43.6201V44.6201V45.6201C69.6856 45.6201 70.153 45.7509 70.5299 45.9771L71.0444 45.1196ZM69.0918 44.6201V43.6201C68.1026 43.6201 67.1957 43.8182 66.4215 44.2721L66.9272 45.1348L67.433 45.9975C67.8293 45.7651 68.3655 45.6201 69.0918 45.6201V44.6201ZM66.9272 45.1348L66.4262 44.2693C65.7024 44.6884 65.1206 45.2645 64.691 45.9848L65.5498 46.4971L66.4086 47.0093C66.6652 46.5792 67.0017 46.2472 67.4283 46.0002L66.9272 45.1348ZM65.5498 46.4971L64.6883 45.9894C64.2968 46.6537 64.0181 47.3854 63.8461 48.1767L64.8232 48.3892L65.8004 48.6016C65.9311 48.0003 66.1368 47.4707 66.4113 47.0048L65.5498 46.4971ZM64.8232 48.3892L63.8438 48.1875C63.6885 48.9415 63.6113 49.7105 63.6113 50.4932H64.6113H65.6113C65.6113 49.8429 65.6754 49.2092 65.8027 48.5908L64.8232 48.3892ZM64.6113 50.4932H63.6113V51.1289H64.6113H65.6113V50.4932H64.6113ZM64.6113 51.1289H63.6113C63.6113 51.9116 63.6885 52.6846 63.8432 53.4469L64.8232 53.248L65.8033 53.0492C65.6754 52.4189 65.6113 51.7792 65.6113 51.1289H64.6113ZM64.8232 53.248L63.8432 53.4469C64.0047 54.2429 64.2792 54.9794 64.6731 55.6478L65.5347 55.1401L66.3962 54.6324C66.1241 54.1706 65.9243 53.6457 65.8033 53.0492L64.8232 53.248ZM65.5347 55.1401L64.6799 55.6591C65.1088 56.3656 65.6864 56.9357 66.3998 57.3613L66.9121 56.5024L67.4244 55.6436C66.9875 55.383 66.6467 55.0448 66.3895 54.6212L65.5347 55.1401ZM66.9121 56.5024L66.4176 57.3716C67.1911 57.8117 68.0995 58.002 69.0918 58.002V57.002V56.002C68.3484 56.002 67.8037 55.8592 67.4066 55.6333L66.9121 56.5024ZM85.6211 42.6221H86.6211V41.6221H85.6211V42.6221ZM85.6211 44.7715V45.7715H86.6211V44.7715H85.6211ZM76.7661 44.7715H75.7661V45.7715H76.7661V44.7715ZM76.7661 42.6221V41.6221H75.7661V42.6221H76.7661ZM79.7632 38.6411V37.6411H78.7632V38.6411H79.7632ZM82.5635 38.6411H83.5635V37.6411H82.5635V38.6411ZM85.0913 56.8354L85.2493 57.8229L85.2648 57.8204L85.2802 57.8175L85.0913 56.8354ZM85.6816 56.7144L86.6816 56.7077L86.6734 55.4592L85.4568 55.74L85.6816 56.7144ZM85.6968 59L86 59.9529L86.7016 59.7297L86.6968 58.9934L85.6968 59ZM84.8188 59.1968L84.6544 58.2104L84.6385 58.213L84.6227 58.2162L84.8188 59.1968ZM80.2627 57.5317L79.3739 57.99L79.3782 57.9984L79.3827 58.0067L80.2627 57.5317ZM85.6211 42.6221H84.6211V44.7715H85.6211H86.6211V42.6221H85.6211ZM85.6211 44.7715V43.7715H76.7661V44.7715V45.7715H85.6211V44.7715ZM76.7661 44.7715H77.7661V42.6221H76.7661H75.7661V44.7715H76.7661ZM76.7661 42.6221V43.6221H85.6211V42.6221V41.6221H76.7661V42.6221ZM79.7632 38.6411V39.6411H82.5635V38.6411V37.6411H79.7632V38.6411ZM82.5635 38.6411H81.5635V54.9434H82.5635H83.5635V38.6411H82.5635ZM82.5635 54.9434H81.5635C81.5635 55.571 81.6551 56.2066 81.966 56.7187L82.8208 56.1997L83.6756 55.6807C83.6434 55.6277 83.5635 55.4257 83.5635 54.9434H82.5635ZM82.8208 56.1997L81.966 56.7187C82.2409 57.1714 82.6399 57.5316 83.1706 57.7084L83.4868 56.7598L83.803 55.8111C83.7888 55.8063 83.7438 55.7931 83.6756 55.6807L82.8208 56.1997ZM83.4868 56.7598L83.1706 57.7084C83.5537 57.8362 83.954 57.896 84.3647 57.896V56.896V55.896C84.1498 55.896 83.9648 55.865 83.803 55.8111L83.4868 56.7598ZM84.3647 56.896V57.896C84.6547 57.896 84.9499 57.8708 85.2493 57.8229L85.0913 56.8354L84.9333 55.848C84.7281 55.8808 84.539 55.896 84.3647 55.896V56.896ZM85.0913 56.8354L85.2802 57.8175C85.5453 57.7665 85.7568 57.7233 85.9065 57.6887L85.6816 56.7144L85.4568 55.74C85.3441 55.766 85.162 55.8035 84.9025 55.8534L85.0913 56.8354ZM85.6816 56.7144L84.6817 56.721L84.6968 59.0066L85.6968 59L86.6968 58.9934L86.6816 56.7077L85.6816 56.7144ZM85.6968 59L85.3936 58.0471C85.2352 58.0975 84.9944 58.1537 84.6544 58.2104L84.8188 59.1968L84.9832 60.1832C85.3699 60.1187 85.7144 60.0438 86 59.9529L85.6968 59ZM84.8188 59.1968L84.6227 58.2162C84.354 58.2699 83.9949 58.3027 83.5322 58.3027V59.3027V60.3027C84.0786 60.3027 84.5773 60.2649 85.015 60.1774L84.8188 59.1968ZM83.5322 59.3027V58.3027C82.9823 58.3027 82.4994 58.1945 82.0682 57.9903L81.6401 58.894L81.2121 59.7978C81.9313 60.1385 82.7097 60.3027 83.5322 60.3027V59.3027ZM81.6401 58.894L82.0682 57.9903C81.7109 57.8211 81.3989 57.5315 81.1427 57.0568L80.2627 57.5317L79.3827 58.0067C79.8127 58.8034 80.4189 59.4221 81.2121 59.7978L81.6401 58.894ZM80.2627 57.5317L81.1515 57.0734C80.919 56.6225 80.7632 55.9318 80.7632 54.9282H79.7632H78.7632C78.7632 56.1044 78.9404 57.1493 79.3739 57.99L80.2627 57.5317ZM79.7632 54.9282H80.7632V38.6411H79.7632H78.7632V54.9282H79.7632Z" fill="black" mask="url(#path-2-outside-1_513_2512)"/>
</g>
<defs>
<clipPath id="clip0_513_2512">
<rect width="96" height="96" fill="white"/>
</clipPath>
</defs>
</svg>
