<svg width="319" height="217" viewBox="0 0 319 217" fill="none" xmlns="http://www.w3.org/2000/svg">
<g clip-path="url(#clip0_501_2259)">
<mask id="path-1-outside-1_501_2259" maskUnits="userSpaceOnUse" x="2" y="-8.16584e-06" width="315" height="214" fill="black">
<rect fill="white" x="2" y="-8.16584e-06" width="315" height="214"/>
<path d="M168.2 88.6C190.2 79.4 209.4 71 230.6 62.6C245 40.6 261 22.6 277 11.4C285.4 5.79999 294.2 2.19999 301.8 1.79998C308.2 1.39999 316.2 3.79998 315.4 12.6C314.2 25.8 292.2 43 265.4 54.2C262.6 55.4 257.8 57.4 254.6 58.6C247 72.6 240.6 86.2 234.2 98.2C203.4 158.2 157 181.8 105 185.4C83.8 186.6 57.4 184.2 39.8 171.8C25 185 12.6 198.2 7.8 209C6.6 211.4 5.8 213 4.6 212.6C3.4 212.2 4.2 209 4.6 207.8C8.6 196.2 19.8 181.8 34.6 167.8C26.2 160.2 18.6 147 19.8 130.2C23 91 73.8 70.2 103.4 68.2C124.6 66.2 156.6 71 168.2 88.6ZM257 53C259 52.2 262.2 51 264.2 50.2C286.2 41 309.4 25.8 311 12.6C311.8 6.99998 307 4.59998 301.8 5.39998C296.2 6.19998 289.8 10.2 283.4 16.6C276.2 23.4 265 39.4 257 53ZM114.6 147C105 147 93.4 144.6 84.2 138.6C75.8 144.2 68.2 149.4 60.2 155.4C55.4 159 51.4 162.2 47 165.8C61.8 180.2 87.4 183.4 108.6 181.8C151 178.2 181.8 150.6 210.6 97.8C216.6 87.4 222.2 77.4 228.2 68.6V68.2C208.6 76.2 190.6 83.8 171 93C172.6 96.6 173.4 101 173.4 105.4C172.6 132.2 140.6 147 114.6 147ZM113.8 143C135.8 143 163 128.6 164.2 105.8C164.2 102.2 163.8 99 163 96.2C154.6 100.2 145.8 104.2 136.2 108.6C123 115 105 124.6 87.4 136.2C96.2 141 106.2 143 113.8 143ZM161.8 91.8C152.6 73.8 123 69.8 103.4 71.8C75.4 73.8 36.6 91.4 33.8 128.6C33 142.2 37 153.8 42.6 160.6C45.8 157.4 50.6 153.4 55 150.2C62.6 144.6 69 140.2 78.2 134.2C73.8 130.2 70.6 125 69.8 119C69.4 117 69.8 115 71 115C71.8 115 71.8 116.6 72.2 118.2C73.8 123.8 77.4 128.2 81.8 131.8C99 121.4 117.8 111.8 135.4 103.8C144.2 99.8 153 95.8 161.8 91.8Z"/>
</mask>
<path d="M168.2 88.6C190.2 79.4 209.4 71 230.6 62.6C245 40.6 261 22.6 277 11.4C285.4 5.79999 294.2 2.19999 301.8 1.79998C308.2 1.39999 316.2 3.79998 315.4 12.6C314.2 25.8 292.2 43 265.4 54.2C262.6 55.4 257.8 57.4 254.6 58.6C247 72.6 240.6 86.2 234.2 98.2C203.4 158.2 157 181.8 105 185.4C83.8 186.6 57.4 184.2 39.8 171.8C25 185 12.6 198.2 7.8 209C6.6 211.4 5.8 213 4.6 212.6C3.4 212.2 4.2 209 4.6 207.8C8.6 196.2 19.8 181.8 34.6 167.8C26.2 160.2 18.6 147 19.8 130.2C23 91 73.8 70.2 103.4 68.2C124.6 66.2 156.6 71 168.2 88.6ZM257 53C259 52.2 262.2 51 264.2 50.2C286.2 41 309.4 25.8 311 12.6C311.8 6.99998 307 4.59998 301.8 5.39998C296.2 6.19998 289.8 10.2 283.4 16.6C276.2 23.4 265 39.4 257 53ZM114.6 147C105 147 93.4 144.6 84.2 138.6C75.8 144.2 68.2 149.4 60.2 155.4C55.4 159 51.4 162.2 47 165.8C61.8 180.2 87.4 183.4 108.6 181.8C151 178.2 181.8 150.6 210.6 97.8C216.6 87.4 222.2 77.4 228.2 68.6V68.2C208.6 76.2 190.6 83.8 171 93C172.6 96.6 173.4 101 173.4 105.4C172.6 132.2 140.6 147 114.6 147ZM113.8 143C135.8 143 163 128.6 164.2 105.8C164.2 102.2 163.8 99 163 96.2C154.6 100.2 145.8 104.2 136.2 108.6C123 115 105 124.6 87.4 136.2C96.2 141 106.2 143 113.8 143ZM161.8 91.8C152.6 73.8 123 69.8 103.4 71.8C75.4 73.8 36.6 91.4 33.8 128.6C33 142.2 37 153.8 42.6 160.6C45.8 157.4 50.6 153.4 55 150.2C62.6 144.6 69 140.2 78.2 134.2C73.8 130.2 70.6 125 69.8 119C69.4 117 69.8 115 71 115C71.8 115 71.8 116.6 72.2 118.2C73.8 123.8 77.4 128.2 81.8 131.8C99 121.4 117.8 111.8 135.4 103.8C144.2 99.8 153 95.8 161.8 91.8Z" fill="#B4C372"/>
<path d="M168.2 88.6L167.365 89.1503L167.821 89.8423L168.586 89.5226L168.2 88.6ZM230.6 62.6L230.968 63.5297L231.263 63.4129L231.437 63.1476L230.6 62.6ZM277 11.4L276.445 10.5679L276.436 10.5742L276.427 10.5808L277 11.4ZM301.8 1.79998L301.853 2.79865L301.862 2.79803L301.8 1.79998ZM315.4 12.6L316.396 12.6905L316.396 12.6905L315.4 12.6ZM265.4 54.2L265.014 53.2773L265.006 53.2808L265.4 54.2ZM254.6 58.6L254.249 57.6637L253.899 57.7948L253.721 58.1229L254.6 58.6ZM234.2 98.2L233.318 97.7294L233.314 97.7363L233.31 97.7433L234.2 98.2ZM105 185.4L105.057 186.398L105.069 186.398L105 185.4ZM39.8 171.8L40.376 170.982L39.7269 170.525L39.1344 171.054L39.8 171.8ZM7.8 209L8.69443 209.447L8.70459 209.427L8.71381 209.406L7.8 209ZM4.6 212.6L4.91623 211.651L4.91623 211.651L4.6 212.6ZM4.6 207.8L3.65458 207.474L3.65132 207.484L4.6 207.8ZM34.6 167.8L35.2872 168.526L36.0724 167.784L35.2709 167.058L34.6 167.8ZM19.8 130.2L18.8033 130.119L18.8025 130.129L19.8 130.2ZM103.4 68.2L103.467 69.1977L103.481 69.1968L103.494 69.1956L103.4 68.2ZM257 53L256.138 52.493L254.654 55.0153L257.371 53.9285L257 53ZM264.2 50.2L264.571 51.1285L264.579 51.1256L264.586 51.1226L264.2 50.2ZM311 12.6L310.01 12.4586L310.009 12.4691L310.007 12.4797L311 12.6ZM301.8 5.39998L301.941 6.38999L301.952 6.38835L301.8 5.39998ZM283.4 16.6L284.087 17.327L284.097 17.3172L284.107 17.3071L283.4 16.6ZM84.2 138.6L84.7463 137.762L84.1939 137.402L83.6453 137.768L84.2 138.6ZM60.2 155.4L60.8 156.2L60.8 156.2L60.2 155.4ZM47 165.8L46.3668 165.026L45.4997 165.735L46.3026 166.517L47 165.8ZM108.6 181.8L108.675 182.797L108.685 182.796L108.6 181.8ZM210.6 97.8L209.734 97.3003L209.728 97.3106L209.722 97.3211L210.6 97.8ZM228.2 68.6L229.026 69.1633L229.2 68.9085V68.6H228.2ZM228.2 68.2H229.2V66.7117L227.822 67.2741L228.2 68.2ZM171 93L170.575 92.0947L169.688 92.511L170.086 93.4061L171 93ZM173.4 105.4L174.4 105.43L174.4 105.415V105.4H173.4ZM164.2 105.8L165.199 105.853L165.2 105.826V105.8H164.2ZM163 96.2L163.962 95.9253L163.637 94.7891L162.57 95.2971L163 96.2ZM136.2 108.6L135.783 107.691L135.773 107.695L135.764 107.7L136.2 108.6ZM87.4 136.2L86.8497 135.365L85.4601 136.281L86.9211 137.078L87.4 136.2ZM161.8 91.8L162.214 92.7104L163.167 92.2771L162.69 91.3449L161.8 91.8ZM103.4 71.8L103.471 72.7974L103.486 72.7964L103.502 72.7948L103.4 71.8ZM33.8 128.6L32.8028 128.525L32.8022 128.533L32.8017 128.541L33.8 128.6ZM42.6 160.6L41.8281 161.236L42.5283 162.086L43.3071 161.307L42.6 160.6ZM55 150.2L55.5882 151.009L55.5932 151.005L55 150.2ZM78.2 134.2L78.7463 135.038L79.8303 134.331L78.8727 133.46L78.2 134.2ZM69.8 119L70.7912 118.868L70.7869 118.836L70.7806 118.804L69.8 119ZM72.2 118.2L71.2299 118.443L71.2339 118.459L71.2385 118.475L72.2 118.2ZM81.8 131.8L81.1668 132.574L81.7132 133.021L82.3174 132.656L81.8 131.8ZM135.4 103.8L135.814 104.71L135.814 104.71L135.4 103.8ZM168.2 88.6L168.586 89.5226C190.605 80.3145 209.779 71.9253 230.968 63.5297L230.6 62.6L230.232 61.6703C209.021 70.0747 189.795 78.4854 167.814 87.6774L168.2 88.6ZM230.6 62.6L231.437 63.1476C245.796 41.2093 261.714 23.3208 277.573 12.2192L277 11.4L276.427 10.5808C260.286 21.8791 244.204 39.9906 229.763 62.0523L230.6 62.6ZM277 11.4L277.555 12.232C285.874 6.68613 294.499 3.18563 301.853 2.7986L301.8 1.79998L301.747 0.801363C293.901 1.21434 284.926 4.91385 276.445 10.5679L277 11.4ZM301.8 1.79998L301.862 2.79803C304.946 2.6053 308.317 3.09877 310.779 4.60326C311.996 5.34703 312.979 6.32971 313.62 7.59553C314.261 8.86027 314.59 10.4676 314.404 12.5094L315.4 12.6L316.396 12.6905C316.61 10.3324 316.239 8.33969 315.405 6.69193C314.571 5.04526 313.304 3.80293 311.821 2.8967C308.883 1.10119 305.054 0.594666 301.738 0.801928L301.8 1.79998ZM315.4 12.6L314.404 12.5094C314.126 15.5637 312.632 18.9428 310.041 22.5056C307.456 26.0601 303.823 29.7367 299.367 33.3755C290.457 40.6526 278.345 47.7065 265.014 53.2773L265.4 54.2L265.786 55.1227C279.255 49.4934 291.543 42.3474 300.633 34.9245C305.177 31.2132 308.944 27.4149 311.659 23.6819C314.368 19.9572 316.074 16.2362 316.396 12.6905L315.4 12.6ZM265.4 54.2L265.006 53.2808C262.21 54.4793 257.427 56.472 254.249 57.6637L254.6 58.6L254.951 59.5363C258.173 58.328 262.99 56.3206 265.794 55.1191L265.4 54.2ZM254.6 58.6L253.721 58.1229C249.913 65.1376 246.407 72.0496 243.057 78.7001C239.704 85.3552 236.511 91.7423 233.318 97.7294L234.2 98.2L235.082 98.6706C238.289 92.6577 241.496 86.2448 244.843 79.5999C248.193 72.9504 251.687 66.0624 255.479 59.0771L254.6 58.6ZM234.2 98.2L233.31 97.7433C202.684 157.405 156.613 180.824 104.931 184.402L105 185.4L105.069 186.398C157.387 182.776 204.116 158.995 235.09 98.6567L234.2 98.2ZM105 185.4L104.943 184.402C83.7974 185.599 57.6883 183.18 40.376 170.982L39.8 171.8L39.224 172.617C57.1117 185.22 83.8026 187.601 105.057 186.398L105 185.4ZM39.8 171.8L39.1344 171.054C24.3417 184.247 11.7838 197.574 6.88619 208.594L7.8 209L8.71381 209.406C13.4162 198.826 25.6583 185.753 40.4656 172.546L39.8 171.8ZM7.8 209L6.90557 208.553C6.2868 209.79 5.8345 210.685 5.40738 211.24C5.19895 211.511 5.05911 211.615 4.99029 211.649C4.96247 211.663 4.96195 211.667 4.91623 211.651L4.6 212.6L4.28377 213.549C4.83805 213.733 5.38753 213.687 5.88471 213.438C6.34089 213.21 6.70105 212.839 6.99262 212.46C7.5655 211.715 8.1132 210.61 8.69443 209.447L7.8 209ZM4.6 212.6L4.91623 211.651C5.09558 211.711 5.06399 211.848 5.01134 211.623C4.96058 211.405 4.94923 211.058 4.99504 210.599C5.08503 209.7 5.36194 208.676 5.54868 208.116L4.6 207.8L3.65132 207.484C3.43806 208.124 3.11497 209.3 3.00496 210.4C2.95077 210.942 2.93942 211.545 3.06366 212.077C3.18601 212.602 3.50442 213.289 4.28377 213.549L4.6 212.6ZM4.6 207.8L5.54537 208.126C9.46426 196.761 20.5174 182.498 35.2872 168.526L34.6 167.8L33.9128 167.074C19.0826 181.102 7.73574 195.639 3.65463 207.474L4.6 207.8ZM34.6 167.8L35.2709 167.058C27.0611 159.631 19.6228 146.717 20.7975 130.271L19.8 130.2L18.8025 130.129C17.5772 147.283 25.3389 160.769 33.9291 168.542L34.6 167.8ZM19.8 130.2L20.7967 130.281C22.36 111.13 35.5588 96.3687 52.2245 86.1014C68.8828 75.8387 88.8253 70.187 103.467 69.1977L103.4 68.2L103.333 67.2023C88.3747 68.2129 68.1172 73.9613 51.1755 84.3986C34.2412 94.8313 20.44 110.07 18.8033 130.119L19.8 130.2ZM103.4 68.2L103.494 69.1956C113.99 68.2054 127.172 68.8999 139.148 72.0177C151.153 75.1431 161.766 80.6545 167.365 89.1503L168.2 88.6L169.035 88.0497C163.034 78.9455 151.847 73.2569 139.652 70.0822C127.428 66.9001 114.01 66.1946 103.306 67.2044L103.4 68.2ZM257 53L257.371 53.9285C258.364 53.5315 259.657 53.0342 260.959 52.5333C262.257 52.0342 263.564 51.5315 264.571 51.1285L264.2 50.2L263.829 49.2715C262.836 49.6685 261.543 50.1658 260.241 50.6666C258.943 51.1658 257.636 51.6685 256.629 52.0715L257 53ZM264.2 50.2L264.586 51.1226C275.641 46.4994 287.019 40.361 295.852 33.6983C300.268 30.3672 304.074 26.8858 306.887 23.3752C309.692 19.8729 311.562 16.2758 311.993 12.7203L311 12.6L310.007 12.4797C309.638 15.5242 308.008 18.7771 305.326 22.1248C302.651 25.4642 298.982 28.8328 294.648 32.1016C285.981 38.639 274.759 44.7006 263.814 49.2774L264.2 50.2ZM311 12.6L311.99 12.7414C312.44 9.59218 311.301 7.20556 309.216 5.77525C307.196 4.39017 304.416 3.9857 301.648 4.41161L301.8 5.39998L301.952 6.38835C304.384 6.01426 306.604 6.40979 308.084 7.42471C309.499 8.39441 310.36 10.0078 310.01 12.4586L311 12.6ZM301.8 5.39998L301.659 4.41003C295.74 5.25553 289.149 9.43651 282.693 15.8929L283.4 16.6L284.107 17.3071C290.451 10.9634 296.66 7.14443 301.941 6.38993L301.8 5.39998ZM283.4 16.6L282.713 15.873C275.404 22.776 264.145 38.8806 256.138 52.493L257 53L257.862 53.507C265.855 39.9193 276.996 24.024 284.087 17.327L283.4 16.6ZM114.6 147V146C105.139 146 93.7431 143.63 84.7463 137.762L84.2 138.6L83.6537 139.438C93.0569 145.57 104.861 148 114.6 148V147ZM84.2 138.6L83.6453 137.768C75.2395 143.372 67.6218 148.584 59.6 154.6L60.2 155.4L60.8 156.2C68.7782 150.216 76.3605 145.028 84.7547 139.432L84.2 138.6ZM60.2 155.4L59.6 154.6C54.7845 158.212 50.7726 161.421 46.3668 165.026L47 165.8L47.6332 166.574C52.0274 162.979 56.0155 159.788 60.8 156.2L60.2 155.4ZM47 165.8L46.3026 166.517C53.8801 173.889 64.1742 178.352 75.185 180.777C86.2016 183.202 98.0026 183.603 108.675 182.797L108.6 181.8L108.525 180.803C97.9974 181.597 86.3984 181.198 75.615 178.823C64.8258 176.448 54.9199 172.111 47.6974 165.083L47 165.8ZM108.6 181.8L108.685 182.796C151.58 179.154 182.614 151.195 211.478 98.2788L210.6 97.8L209.722 97.3211C180.986 150.005 150.42 177.246 108.515 180.804L108.6 181.8ZM210.6 97.8L211.466 98.2997C217.478 87.8801 223.053 77.9237 229.026 69.1633L228.2 68.6L227.374 68.0366C221.347 76.8762 215.722 86.9199 209.734 97.3003L210.6 97.8ZM228.2 68.6H229.2V68.2H228.2H227.2V68.6H228.2ZM228.2 68.2L227.822 67.2741C208.215 75.277 190.197 82.8843 170.575 92.0947L171 93L171.425 93.9052C191.003 84.7157 208.985 77.123 228.578 69.1258L228.2 68.2ZM171 93L170.086 93.4061C171.618 96.8535 172.4 101.11 172.4 105.4H173.4H174.4C174.4 100.89 173.582 96.3464 171.914 92.5938L171 93ZM173.4 105.4L172.4 105.37C172.014 118.328 164.093 128.462 152.922 135.401C141.746 142.343 127.433 146 114.6 146V147V148C127.767 148 142.454 144.257 153.978 137.099C165.507 129.938 173.986 119.272 174.4 105.43L173.4 105.4ZM113.8 143V144C124.996 144 137.489 140.342 147.354 133.783C157.219 127.223 164.577 117.67 165.199 105.853L164.2 105.8L163.201 105.747C162.623 116.73 155.781 125.777 146.246 132.117C136.711 138.458 124.604 142 113.8 142V143ZM164.2 105.8H165.2C165.2 102.128 164.792 98.8327 163.962 95.9253L163 96.2L162.038 96.4747C162.808 99.1672 163.2 102.272 163.2 105.8H164.2ZM163 96.2L162.57 95.2971C154.179 99.2931 145.388 103.289 135.783 107.691L136.2 108.6L136.617 109.509C146.212 105.111 155.021 101.107 163.43 97.1028L163 96.2ZM136.2 108.6L135.764 107.7C122.536 114.114 104.496 123.735 86.8497 135.365L87.4 136.2L87.9503 137.035C105.504 125.465 123.464 115.886 136.636 109.5L136.2 108.6ZM87.4 136.2L86.9211 137.078C95.8827 141.966 106.05 144 113.8 144V143V142C106.35 142 96.5173 140.034 87.8789 135.322L87.4 136.2ZM161.8 91.8L162.69 91.3449C157.903 81.9785 147.877 76.3662 136.763 73.3352C125.624 70.2973 113.198 69.795 103.298 70.8051L103.4 71.8L103.502 72.7948C113.202 71.805 125.376 72.3027 136.237 75.2647C147.123 78.2337 156.497 83.6215 160.91 92.2551L161.8 91.8ZM103.4 71.8L103.329 70.8025C89.1768 71.8134 72.3004 76.7614 58.5841 86.1755C44.8506 95.6015 34.231 109.551 32.8028 128.525L33.8 128.6L34.7972 128.675C36.169 110.449 46.3494 96.9985 59.7159 87.8245C73.0996 78.6386 89.6232 73.7866 103.471 72.7974L103.4 71.8ZM33.8 128.6L32.8017 128.541C31.9895 142.349 36.0419 154.21 41.8281 161.236L42.6 160.6L43.3719 159.964C37.9581 153.39 34.0105 142.051 34.7983 128.659L33.8 128.6ZM42.6 160.6L43.3071 161.307C46.4613 158.153 51.2188 154.186 55.5882 151.009L55 150.2L54.4118 149.391C49.9812 152.614 45.1387 156.647 41.8929 159.893L42.6 160.6ZM55 150.2L55.5932 151.005C63.1748 145.419 69.5587 141.03 78.7463 135.038L78.2 134.2L77.6537 133.362C68.4413 139.37 62.0252 143.781 54.4068 149.395L55 150.2ZM78.2 134.2L78.8727 133.46C74.6095 129.584 71.5539 124.588 70.7912 118.868L69.8 119L68.8088 119.132C69.6461 125.412 72.9904 130.815 77.5273 134.94L78.2 134.2ZM69.8 119L70.7806 118.804C70.6016 117.909 70.6161 117.071 70.7662 116.508C70.8414 116.226 70.933 116.079 70.988 116.019C71.0115 115.993 71.0206 115.991 71.0119 115.995C71.0011 116 70.9933 116 71 116V115V114C69.6876 114 69.0664 115.12 68.8338 115.992C68.5839 116.929 68.5984 118.091 68.8194 119.196L69.8 119ZM71 115V116C70.7864 116 70.6572 115.86 70.6413 115.836C70.6412 115.836 70.6465 115.844 70.6558 115.863C70.6651 115.882 70.6768 115.908 70.6904 115.944C70.7183 116.018 70.7481 116.115 70.7799 116.243C70.8453 116.504 70.9013 116.816 70.9726 117.205C71.0413 117.58 71.1213 118.008 71.2299 118.443L72.2 118.2L73.1701 117.957C73.0787 117.592 73.0087 117.22 72.9399 116.845C72.8737 116.484 72.8047 116.096 72.7201 115.757C72.6393 115.434 72.5183 115.041 72.2962 114.713C72.0428 114.34 71.6135 114 71 114V115ZM72.2 118.2L71.2385 118.475C72.9125 124.334 76.6687 128.894 81.1668 132.574L81.8 131.8L82.4332 131.026C78.1313 127.506 74.6875 123.266 73.1615 117.925L72.2 118.2ZM81.8 131.8L82.3174 132.656C99.4772 122.28 118.241 112.698 135.814 104.71L135.4 103.8L134.986 102.89C117.359 110.902 98.5228 120.52 81.2826 130.944L81.8 131.8ZM135.4 103.8L135.814 104.71C144.614 100.71 153.414 96.7103 162.214 92.7104L161.8 91.8L161.386 90.8896C152.586 94.8896 143.786 98.8896 134.986 102.89L135.4 103.8Z" fill="black" mask="url(#path-1-outside-1_501_2259)"/>
</g>
<defs>
<clipPath id="clip0_501_2259">
<rect width="319" height="217" fill="white"/>
</clipPath>
</defs>
</svg>
