<svg width="589" height="241" viewBox="0 0 589 241" fill="none" xmlns="http://www.w3.org/2000/svg">
<g clip-path="url(#clip0_577_2197)">
<mask id="path-1-outside-1_577_2197" maskUnits="userSpaceOnUse" x="1" y="4.99999" width="315" height="214" fill="black">
<rect fill="white" x="1" y="4.99999" width="315" height="214"/>
<path d="M167.2 93.6C189.2 84.4 208.4 76 229.6 67.6C244 45.6 260 27.6 276 16.4C284.4 10.8 293.2 7.19999 300.8 6.79998C307.2 6.39999 315.2 8.79998 314.4 17.6C313.2 30.8 291.2 48 264.4 59.2C261.6 60.4 256.8 62.4 253.6 63.6C246 77.6 239.6 91.2 233.2 103.2C202.4 163.2 156 186.8 104 190.4C82.8 191.6 56.4 189.2 38.8 176.8C24 190 11.6 203.2 6.8 214C5.6 216.4 4.8 218 3.6 217.6C2.4 217.2 3.2 214 3.6 212.8C7.6 201.2 18.8 186.8 33.6 172.8C25.2 165.2 17.6 152 18.8 135.2C22 96 72.8 75.2 102.4 73.2C123.6 71.2 155.6 76 167.2 93.6ZM256 58C258 57.2 261.2 56 263.2 55.2C285.2 46 308.4 30.8 310 17.6C310.8 12 306 9.59998 300.8 10.4C295.2 11.2 288.8 15.2 282.4 21.6C275.2 28.4 264 44.4 256 58ZM113.6 152C104 152 92.4 149.6 83.2 143.6C74.8 149.2 67.2 154.4 59.2 160.4C54.4 164 50.4 167.2 46 170.8C60.8 185.2 86.4 188.4 107.6 186.8C150 183.2 180.8 155.6 209.6 102.8C215.6 92.4 221.2 82.4 227.2 73.6V73.2C207.6 81.2 189.6 88.8 170 98C171.6 101.6 172.4 106 172.4 110.4C171.6 137.2 139.6 152 113.6 152ZM112.8 148C134.8 148 162 133.6 163.2 110.8C163.2 107.2 162.8 104 162 101.2C153.6 105.2 144.8 109.2 135.2 113.6C122 120 104 129.6 86.4 141.2C95.2 146 105.2 148 112.8 148ZM160.8 96.8C151.6 78.8 122 74.8 102.4 76.8C74.4 78.8 35.6 96.4 32.8 133.6C32 147.2 36 158.8 41.6 165.6C44.8 162.4 49.6 158.4 54 155.2C61.6 149.6 68 145.2 77.2 139.2C72.8 135.2 69.6 130 68.8 124C68.4 122 68.8 120 70 120C70.8 120 70.8 121.6 71.2 123.2C72.8 128.8 76.4 133.2 80.8 136.8C98 126.4 116.8 116.8 134.4 108.8C143.2 104.8 152 100.8 160.8 96.8Z"/>
</mask>
<path d="M167.2 93.6C189.2 84.4 208.4 76 229.6 67.6C244 45.6 260 27.6 276 16.4C284.4 10.8 293.2 7.19999 300.8 6.79998C307.2 6.39999 315.2 8.79998 314.4 17.6C313.2 30.8 291.2 48 264.4 59.2C261.6 60.4 256.8 62.4 253.6 63.6C246 77.6 239.6 91.2 233.2 103.2C202.4 163.2 156 186.8 104 190.4C82.8 191.6 56.4 189.2 38.8 176.8C24 190 11.6 203.2 6.8 214C5.6 216.4 4.8 218 3.6 217.6C2.4 217.2 3.2 214 3.6 212.8C7.6 201.2 18.8 186.8 33.6 172.8C25.2 165.2 17.6 152 18.8 135.2C22 96 72.8 75.2 102.4 73.2C123.6 71.2 155.6 76 167.2 93.6ZM256 58C258 57.2 261.2 56 263.2 55.2C285.2 46 308.4 30.8 310 17.6C310.8 12 306 9.59998 300.8 10.4C295.2 11.2 288.8 15.2 282.4 21.6C275.2 28.4 264 44.4 256 58ZM113.6 152C104 152 92.4 149.6 83.2 143.6C74.8 149.2 67.2 154.4 59.2 160.4C54.4 164 50.4 167.2 46 170.8C60.8 185.2 86.4 188.4 107.6 186.8C150 183.2 180.8 155.6 209.6 102.8C215.6 92.4 221.2 82.4 227.2 73.6V73.2C207.6 81.2 189.6 88.8 170 98C171.6 101.6 172.4 106 172.4 110.4C171.6 137.2 139.6 152 113.6 152ZM112.8 148C134.8 148 162 133.6 163.2 110.8C163.2 107.2 162.8 104 162 101.2C153.6 105.2 144.8 109.2 135.2 113.6C122 120 104 129.6 86.4 141.2C95.2 146 105.2 148 112.8 148ZM160.8 96.8C151.6 78.8 122 74.8 102.4 76.8C74.4 78.8 35.6 96.4 32.8 133.6C32 147.2 36 158.8 41.6 165.6C44.8 162.4 49.6 158.4 54 155.2C61.6 149.6 68 145.2 77.2 139.2C72.8 135.2 69.6 130 68.8 124C68.4 122 68.8 120 70 120C70.8 120 70.8 121.6 71.2 123.2C72.8 128.8 76.4 133.2 80.8 136.8C98 126.4 116.8 116.8 134.4 108.8C143.2 104.8 152 100.8 160.8 96.8Z" fill="#B4C372"/>
<path d="M167.2 93.6L166.365 94.1503L166.821 94.8423L167.586 94.5226L167.2 93.6ZM229.6 67.6L229.968 68.5297L230.263 68.4129L230.437 68.1476L229.6 67.6ZM276 16.4L275.445 15.5679L275.436 15.5742L275.427 15.5808L276 16.4ZM300.8 6.79998L300.853 7.79865L300.862 7.79803L300.8 6.79998ZM314.4 17.6L315.396 17.6905L315.396 17.6905L314.4 17.6ZM264.4 59.2L264.014 58.2773L264.006 58.2808L264.4 59.2ZM253.6 63.6L253.249 62.6637L252.899 62.7948L252.721 63.1229L253.6 63.6ZM233.2 103.2L232.318 102.729L232.314 102.736L232.31 102.743L233.2 103.2ZM104 190.4L104.057 191.398L104.069 191.398L104 190.4ZM38.8 176.8L39.376 175.982L38.7269 175.525L38.1344 176.054L38.8 176.8ZM6.8 214L7.69443 214.447L7.70459 214.427L7.71381 214.406L6.8 214ZM3.6 217.6L3.91623 216.651L3.91623 216.651L3.6 217.6ZM3.6 212.8L2.65458 212.474L2.65132 212.484L3.6 212.8ZM33.6 172.8L34.2872 173.526L35.0724 172.784L34.2709 172.058L33.6 172.8ZM18.8 135.2L17.8033 135.119L17.8025 135.129L18.8 135.2ZM102.4 73.2L102.467 74.1977L102.481 74.1968L102.494 74.1956L102.4 73.2ZM256 58L255.138 57.493L253.654 60.0153L256.371 58.9285L256 58ZM263.2 55.2L263.571 56.1285L263.579 56.1256L263.586 56.1226L263.2 55.2ZM310 17.6L309.01 17.4586L309.009 17.4691L309.007 17.4797L310 17.6ZM300.8 10.4L300.941 11.39L300.952 11.3884L300.8 10.4ZM282.4 21.6L283.087 22.327L283.097 22.3172L283.107 22.3071L282.4 21.6ZM83.2 143.6L83.7463 142.762L83.1939 142.402L82.6453 142.768L83.2 143.6ZM59.2 160.4L59.8 161.2L59.8 161.2L59.2 160.4ZM46 170.8L45.3668 170.026L44.4997 170.735L45.3026 171.517L46 170.8ZM107.6 186.8L107.675 187.797L107.685 187.796L107.6 186.8ZM209.6 102.8L208.734 102.3L208.728 102.311L208.722 102.321L209.6 102.8ZM227.2 73.6L228.026 74.1633L228.2 73.9085V73.6H227.2ZM227.2 73.2H228.2V71.7117L226.822 72.2741L227.2 73.2ZM170 98L169.575 97.0947L168.688 97.511L169.086 98.4061L170 98ZM172.4 110.4L173.4 110.43L173.4 110.415V110.4H172.4ZM163.2 110.8L164.199 110.853L164.2 110.826V110.8H163.2ZM162 101.2L162.962 100.925L162.637 99.7891L161.57 100.297L162 101.2ZM135.2 113.6L134.783 112.691L134.773 112.695L134.764 112.7L135.2 113.6ZM86.4 141.2L85.8497 140.365L84.4601 141.281L85.9211 142.078L86.4 141.2ZM160.8 96.8L161.214 97.7104L162.167 97.2771L161.69 96.3449L160.8 96.8ZM102.4 76.8L102.471 77.7974L102.486 77.7964L102.502 77.7948L102.4 76.8ZM32.8 133.6L31.8028 133.525L31.8022 133.533L31.8017 133.541L32.8 133.6ZM41.6 165.6L40.8281 166.236L41.5283 167.086L42.3071 166.307L41.6 165.6ZM54 155.2L54.5882 156.009L54.5932 156.005L54 155.2ZM77.2 139.2L77.7463 140.038L78.8303 139.331L77.8727 138.46L77.2 139.2ZM68.8 124L69.7912 123.868L69.7869 123.836L69.7806 123.804L68.8 124ZM71.2 123.2L70.2299 123.443L70.2339 123.459L70.2385 123.475L71.2 123.2ZM80.8 136.8L80.1668 137.574L80.7132 138.021L81.3174 137.656L80.8 136.8ZM134.4 108.8L134.814 109.71L134.814 109.71L134.4 108.8ZM167.2 93.6L167.586 94.5226C189.605 85.3145 208.779 76.9253 229.968 68.5297L229.6 67.6L229.232 66.6703C208.021 75.0747 188.795 83.4854 166.814 92.6774L167.2 93.6ZM229.6 67.6L230.437 68.1476C244.796 46.2093 260.714 28.3208 276.573 17.2192L276 16.4L275.427 15.5808C259.286 26.8791 243.204 44.9906 228.763 67.0523L229.6 67.6ZM276 16.4L276.555 17.232C284.874 11.6861 293.499 8.18563 300.853 7.7986L300.8 6.79998L300.747 5.80136C292.901 6.21434 283.926 9.91385 275.445 15.5679L276 16.4ZM300.8 6.79998L300.862 7.79803C303.946 7.6053 307.317 8.09877 309.779 9.60326C310.996 10.347 311.979 11.3297 312.62 12.5955C313.261 13.8603 313.59 15.4676 313.404 17.5094L314.4 17.6L315.396 17.6905C315.61 15.3324 315.239 13.3397 314.405 11.6919C313.571 10.0453 312.304 8.80293 310.821 7.8967C307.883 6.10119 304.054 5.59467 300.738 5.80193L300.8 6.79998ZM314.4 17.6L313.404 17.5094C313.126 20.5637 311.632 23.9428 309.041 27.5056C306.456 31.0601 302.823 34.7367 298.367 38.3755C289.457 45.6526 277.345 52.7065 264.014 58.2773L264.4 59.2L264.786 60.1227C278.255 54.4934 290.543 47.3474 299.633 39.9245C304.177 36.2132 307.944 32.4149 310.659 28.6819C313.368 24.9572 315.074 21.2362 315.396 17.6905L314.4 17.6ZM264.4 59.2L264.006 58.2808C261.21 59.4793 256.427 61.472 253.249 62.6637L253.6 63.6L253.951 64.5363C257.173 63.328 261.99 61.3206 264.794 60.1191L264.4 59.2ZM253.6 63.6L252.721 63.1229C248.913 70.1376 245.407 77.0496 242.057 83.7001C238.704 90.3552 235.511 96.7423 232.318 102.729L233.2 103.2L234.082 103.671C237.289 97.6577 240.496 91.2448 243.843 84.5999C247.193 77.9504 250.687 71.0624 254.479 64.0771L253.6 63.6ZM233.2 103.2L232.31 102.743C201.684 162.405 155.613 185.824 103.931 189.402L104 190.4L104.069 191.398C156.387 187.776 203.116 163.995 234.09 103.657L233.2 103.2ZM104 190.4L103.943 189.402C82.7974 190.599 56.6883 188.18 39.376 175.982L38.8 176.8L38.224 177.617C56.1117 190.22 82.8026 192.601 104.057 191.398L104 190.4ZM38.8 176.8L38.1344 176.054C23.3417 189.247 10.7838 202.574 5.88619 213.594L6.8 214L7.71381 214.406C12.4162 203.826 24.6583 190.753 39.4656 177.546L38.8 176.8ZM6.8 214L5.90557 213.553C5.2868 214.79 4.8345 215.685 4.40738 216.24C4.19895 216.511 4.05911 216.615 3.99029 216.649C3.96247 216.663 3.96195 216.667 3.91623 216.651L3.6 217.6L3.28377 218.549C3.83805 218.733 4.38753 218.687 4.88471 218.438C5.34089 218.21 5.70105 217.839 5.99262 217.46C6.5655 216.715 7.1132 215.61 7.69443 214.447L6.8 214ZM3.6 217.6L3.91623 216.651C4.09558 216.711 4.06399 216.848 4.01134 216.623C3.96058 216.405 3.94923 216.058 3.99504 215.599C4.08503 214.7 4.36194 213.676 4.54868 213.116L3.6 212.8L2.65132 212.484C2.43806 213.124 2.11497 214.3 2.00496 215.4C1.95077 215.942 1.93942 216.545 2.06366 217.077C2.18601 217.602 2.50442 218.289 3.28377 218.549L3.6 217.6ZM3.6 212.8L4.54537 213.126C8.46426 201.761 19.5174 187.498 34.2872 173.526L33.6 172.8L32.9128 172.074C18.0826 186.102 6.73574 200.639 2.65463 212.474L3.6 212.8ZM33.6 172.8L34.2709 172.058C26.0611 164.631 18.6228 151.717 19.7975 135.271L18.8 135.2L17.8025 135.129C16.5772 152.283 24.3389 165.769 32.9291 173.542L33.6 172.8ZM18.8 135.2L19.7967 135.281C21.36 116.13 34.5588 101.369 51.2245 91.1014C67.8828 80.8387 87.8253 75.187 102.467 74.1977L102.4 73.2L102.333 72.2023C87.3747 73.2129 67.1172 78.9613 50.1755 89.3986C33.2412 99.8313 19.44 115.07 17.8033 135.119L18.8 135.2ZM102.4 73.2L102.494 74.1956C112.99 73.2054 126.172 73.8999 138.148 77.0177C150.153 80.1431 160.766 85.6545 166.365 94.1503L167.2 93.6L168.035 93.0497C162.034 83.9455 150.847 78.2569 138.652 75.0822C126.428 71.9001 113.01 71.1946 102.306 72.2044L102.4 73.2ZM256 58L256.371 58.9285C257.364 58.5315 258.657 58.0342 259.959 57.5333C261.257 57.0342 262.564 56.5315 263.571 56.1285L263.2 55.2L262.829 54.2715C261.836 54.6685 260.543 55.1658 259.241 55.6666C257.943 56.1658 256.636 56.6685 255.629 57.0715L256 58ZM263.2 55.2L263.586 56.1226C274.641 51.4994 286.019 45.361 294.852 38.6983C299.268 35.3672 303.074 31.8858 305.887 28.3752C308.692 24.8729 310.562 21.2758 310.993 17.7203L310 17.6L309.007 17.4797C308.638 20.5242 307.008 23.7771 304.326 27.1248C301.651 30.4642 297.982 33.8328 293.648 37.1016C284.981 43.639 273.759 49.7006 262.814 54.2774L263.2 55.2ZM310 17.6L310.99 17.7414C311.44 14.5922 310.301 12.2056 308.216 10.7753C306.196 9.39017 303.416 8.9857 300.648 9.41161L300.8 10.4L300.952 11.3884C303.384 11.0143 305.604 11.4098 307.084 12.4247C308.499 13.3944 309.36 15.0078 309.01 17.4586L310 17.6ZM300.8 10.4L300.659 9.41003C294.74 10.2555 288.149 14.4365 281.693 20.8929L282.4 21.6L283.107 22.3071C289.451 15.9634 295.66 12.1444 300.941 11.3899L300.8 10.4ZM282.4 21.6L281.713 20.873C274.404 27.776 263.145 43.8806 255.138 57.493L256 58L256.862 58.507C264.855 44.9193 275.996 29.024 283.087 22.327L282.4 21.6ZM113.6 152V151C104.139 151 92.7431 148.63 83.7463 142.762L83.2 143.6L82.6537 144.438C92.0569 150.57 103.861 153 113.6 153V152ZM83.2 143.6L82.6453 142.768C74.2395 148.372 66.6218 153.584 58.6 159.6L59.2 160.4L59.8 161.2C67.7782 155.216 75.3605 150.028 83.7547 144.432L83.2 143.6ZM59.2 160.4L58.6 159.6C53.7845 163.212 49.7726 166.421 45.3668 170.026L46 170.8L46.6332 171.574C51.0274 167.979 55.0155 164.788 59.8 161.2L59.2 160.4ZM46 170.8L45.3026 171.517C52.8801 178.889 63.1742 183.352 74.185 185.777C85.2016 188.202 97.0026 188.603 107.675 187.797L107.6 186.8L107.525 185.803C96.9974 186.597 85.3984 186.198 74.615 183.823C63.8258 181.448 53.9199 177.111 46.6974 170.083L46 170.8ZM107.6 186.8L107.685 187.796C150.58 184.154 181.614 156.195 210.478 103.279L209.6 102.8L208.722 102.321C179.986 155.005 149.42 182.246 107.515 185.804L107.6 186.8ZM209.6 102.8L210.466 103.3C216.478 92.8801 222.053 82.9237 228.026 74.1633L227.2 73.6L226.374 73.0366C220.347 81.8762 214.722 91.9199 208.734 102.3L209.6 102.8ZM227.2 73.6H228.2V73.2H227.2H226.2V73.6H227.2ZM227.2 73.2L226.822 72.2741C207.215 80.277 189.197 87.8843 169.575 97.0947L170 98L170.425 98.9052C190.003 89.7157 207.985 82.123 227.578 74.1258L227.2 73.2ZM170 98L169.086 98.4061C170.618 101.854 171.4 106.11 171.4 110.4H172.4H173.4C173.4 105.89 172.582 101.346 170.914 97.5938L170 98ZM172.4 110.4L171.4 110.37C171.014 123.328 163.093 133.462 151.922 140.401C140.746 147.343 126.433 151 113.6 151V152V153C126.767 153 141.454 149.257 152.978 142.099C164.507 134.938 172.986 124.272 173.4 110.43L172.4 110.4ZM112.8 148V149C123.996 149 136.489 145.342 146.354 138.783C156.219 132.223 163.577 122.67 164.199 110.853L163.2 110.8L162.201 110.747C161.623 121.73 154.781 130.777 145.246 137.117C135.711 143.458 123.604 147 112.8 147V148ZM163.2 110.8H164.2C164.2 107.128 163.792 103.833 162.962 100.925L162 101.2L161.038 101.475C161.808 104.167 162.2 107.272 162.2 110.8H163.2ZM162 101.2L161.57 100.297C153.179 104.293 144.388 108.289 134.783 112.691L135.2 113.6L135.617 114.509C145.212 110.111 154.021 106.107 162.43 102.103L162 101.2ZM135.2 113.6L134.764 112.7C121.536 119.114 103.496 128.735 85.8497 140.365L86.4 141.2L86.9503 142.035C104.504 130.465 122.464 120.886 135.636 114.5L135.2 113.6ZM86.4 141.2L85.9211 142.078C94.8827 146.966 105.05 149 112.8 149V148V147C105.35 147 95.5173 145.034 86.8789 140.322L86.4 141.2ZM160.8 96.8L161.69 96.3449C156.903 86.9785 146.877 81.3662 135.763 78.3352C124.624 75.2973 112.198 74.795 102.298 75.8051L102.4 76.8L102.502 77.7948C112.202 76.805 124.376 77.3027 135.237 80.2647C146.123 83.2337 155.497 88.6215 159.91 97.2551L160.8 96.8ZM102.4 76.8L102.329 75.8025C88.1768 76.8134 71.3004 81.7614 57.5841 91.1755C43.8506 100.601 33.231 114.551 31.8028 133.525L32.8 133.6L33.7972 133.675C35.169 115.449 45.3494 101.998 58.7159 92.8245C72.0996 83.6386 88.6232 78.7866 102.471 77.7974L102.4 76.8ZM32.8 133.6L31.8017 133.541C30.9895 147.349 35.0419 159.21 40.8281 166.236L41.6 165.6L42.3719 164.964C36.9581 158.39 33.0105 147.051 33.7983 133.659L32.8 133.6ZM41.6 165.6L42.3071 166.307C45.4613 163.153 50.2188 159.186 54.5882 156.009L54 155.2L53.4118 154.391C48.9812 157.614 44.1387 161.647 40.8929 164.893L41.6 165.6ZM54 155.2L54.5932 156.005C62.1748 150.419 68.5587 146.03 77.7463 140.038L77.2 139.2L76.6537 138.362C67.4413 144.37 61.0252 148.781 53.4068 154.395L54 155.2ZM77.2 139.2L77.8727 138.46C73.6095 134.584 70.5539 129.588 69.7912 123.868L68.8 124L67.8088 124.132C68.6461 130.412 71.9904 135.815 76.5273 139.94L77.2 139.2ZM68.8 124L69.7806 123.804C69.6016 122.909 69.6161 122.071 69.7662 121.508C69.8414 121.226 69.933 121.079 69.988 121.019C70.0115 120.993 70.0206 120.991 70.0119 120.995C70.0011 121 69.9933 121 70 121V120V119C68.6876 119 68.0664 120.12 67.8338 120.992C67.5839 121.929 67.5984 123.091 67.8194 124.196L68.8 124ZM70 120V121C69.7864 121 69.6572 120.86 69.6413 120.836C69.6412 120.836 69.6465 120.844 69.6558 120.863C69.6651 120.882 69.6768 120.908 69.6904 120.944C69.7183 121.018 69.7481 121.115 69.7799 121.243C69.8453 121.504 69.9013 121.816 69.9726 122.205C70.0413 122.58 70.1213 123.008 70.2299 123.443L71.2 123.2L72.1701 122.957C72.0787 122.592 72.0087 122.22 71.9399 121.845C71.8737 121.484 71.8047 121.096 71.7201 120.757C71.6393 120.434 71.5183 120.041 71.2962 119.713C71.0428 119.34 70.6135 119 70 119V120ZM71.2 123.2L70.2385 123.475C71.9125 129.334 75.6687 133.894 80.1668 137.574L80.8 136.8L81.4332 136.026C77.1313 132.506 73.6875 128.266 72.1615 122.925L71.2 123.2ZM80.8 136.8L81.3174 137.656C98.4772 127.28 117.241 117.698 134.814 109.71L134.4 108.8L133.986 107.89C116.359 115.902 97.5228 125.52 80.2826 135.944L80.8 136.8ZM134.4 108.8L134.814 109.71C143.614 105.71 152.414 101.71 161.214 97.7104L160.8 96.8L160.386 95.8896C151.586 99.8896 142.786 103.89 133.986 107.89L134.4 108.8Z" fill="black" mask="url(#path-1-outside-1_577_2197)"/>
<mask id="path-3-outside-2_577_2197" maskUnits="userSpaceOnUse" x="243" y="101" width="332" height="128" fill="black">
<rect fill="white" x="243" y="101" width="332" height="128"/>
<path d="M270.185 182.31C259.46 182.31 253.025 175.875 253.025 162.675V124.395C253.025 123.405 252.695 122.745 251.87 122.415C251.045 122.085 249.23 121.92 246.755 121.92C246.095 121.92 244.775 119.61 244.775 118.62C244.775 118.125 245.105 117.795 245.6 117.465C250.715 115.98 256.49 110.04 259.79 105.915C261.44 103.77 262.43 102.78 262.76 102.78C264.245 102.78 265.07 103.275 265.07 104.43L264.74 111.69C264.74 113.175 266.06 114 268.7 114H287.51C288.665 114 289.16 115.32 289.16 117.96C289.16 120.6 288.665 121.92 287.51 121.92H271.175C265.235 121.92 264.575 122.085 264.575 126.54V157.725C264.575 168.945 269.36 173.235 275.465 173.235C280.91 173.235 285.035 172.245 287.84 170.1C288.005 169.935 288.17 169.935 288.335 169.935C288.995 169.935 289.49 170.925 289.49 172.08C289.49 172.905 288.665 174.06 286.85 175.545C283.385 178.845 276.29 182.31 270.185 182.31ZM295.67 180.495C293.525 180.495 292.37 180 292.37 178.845C292.37 177.855 293.36 177.03 295.34 176.37C299.3 175.05 299.96 175.05 301.445 173.235C302.105 172.41 302.435 171.255 302.435 169.77V134.295C302.435 127.365 300.125 123.405 295.67 122.415C294.845 122.25 294.35 121.425 294.35 120.27C294.35 119.115 294.68 118.455 295.505 118.29C299.63 117.465 302.765 116.31 304.745 114.99C308.54 112.515 311.015 111.03 312.17 110.205C313.325 109.545 313.985 109.215 313.985 109.05H314.48C314.645 109.05 314.975 109.38 315.14 110.205C315.14 113.175 315.14 115.98 314.975 118.785C314.81 121.59 314.81 122.91 314.975 122.91C315.14 122.91 315.305 122.58 315.8 122.085C317.285 120.27 318.275 119.115 318.77 118.785C324.05 114 329.165 111.69 333.95 111.69C338.57 111.69 341.87 113.835 341.87 117.135C341.87 120.435 338.405 125.55 335.93 125.55C334.775 125.55 332.96 125.055 330.65 124.065C328.34 123.075 326.69 122.58 325.535 122.58C319.1 122.58 313.985 126.375 313.985 136.44V168.945C314.15 171.915 317.12 174.225 322.895 176.04C325.37 176.865 326.69 177.855 326.69 178.845C326.69 180 325.535 180.495 323.39 180.495L309.035 179.67L295.67 180.495ZM378.002 182.31C359.357 182.31 345.167 168.285 345.167 149.145C345.167 130.17 361.667 111.69 380.972 111.69C400.277 111.69 415.292 126.54 415.292 145.845C415.292 165.15 401.597 182.31 378.002 182.31ZM381.467 177.36C397.967 177.36 401.762 166.14 401.762 149.145C401.762 132.15 391.862 116.805 378.497 116.805C365.297 116.805 358.697 126.375 358.697 145.35C358.697 162.345 368.762 177.36 381.467 177.36ZM425.047 180.495C422.902 180.495 421.747 180 421.747 178.845C421.747 176.865 427.027 175.545 427.687 175.38C428.182 175.38 430.492 174.225 430.987 173.565C432.142 172.41 432.637 171.09 432.637 169.77V134.295C432.637 127.2 430.327 123.24 425.872 122.415C425.047 122.25 424.552 121.425 424.552 120.27C424.552 119.115 424.882 118.455 425.707 118.29C431.482 116.97 437.422 114 443.857 109.215C444.022 109.05 444.187 109.05 444.517 109.05C444.682 109.05 445.012 109.545 445.342 110.535L444.187 121.26C444.187 122.085 444.187 122.415 444.352 122.58C450.457 117.465 462.172 111.69 472.072 111.69C481.972 111.69 490.222 121.59 490.222 134.625V169.77C490.222 174.225 493.192 174.72 497.812 176.205C499.957 177.03 501.112 177.855 501.112 178.845C501.112 180 499.957 180.495 497.812 180.495L484.612 179.67L471.082 180.495C468.937 180.495 467.782 180 467.782 178.845C467.782 177.855 469.102 176.865 471.577 176.04C471.742 176.04 471.907 176.04 472.237 175.875C475.867 174.72 478.012 173.235 478.507 171.42C478.672 170.925 478.672 170.265 478.672 169.77V135.12C478.672 125.715 473.062 119.775 462.502 119.775C451.777 119.775 444.187 123.735 444.187 135.78V169.77C444.187 174.225 447.157 174.72 451.777 176.205C453.922 177.03 455.077 177.855 455.077 178.845C455.077 180 453.922 180.495 451.777 180.495L438.412 179.67L425.047 180.495ZM534.003 227.85C517.173 227.85 503.313 222.24 503.313 209.04C503.313 202.275 506.448 197.82 514.533 192.705C518.493 190.23 521.298 187.59 522.948 185.115C515.523 183.63 508.098 179.505 508.098 172.74C508.098 170.595 509.418 168.615 511.893 166.635C512.553 166.14 513.543 165.48 515.028 164.655C517.998 162.84 520.143 161.025 521.628 159.045C520.143 158.715 517.998 157.23 515.358 154.755C509.913 149.64 507.273 143.535 507.273 136.44C507.273 122.085 521.298 111.36 536.643 111.36C539.448 111.36 542.583 112.02 546.378 113.175C553.308 115.32 558.918 116.475 563.043 116.475L568.323 116.31H570.303C571.953 116.31 573.273 116.64 573.273 119.445C573.273 121.425 572.778 122.415 571.788 122.415C567.663 122.415 565.353 122.58 564.858 122.745L563.538 123.24L562.383 123.735C561.888 124.89 561.723 127.53 561.723 131.325C561.723 147.825 549.843 162.51 534.003 162.51C530.538 162.51 527.568 161.85 525.093 160.53C520.308 164.325 517.833 166.965 517.833 168.615C517.833 172.08 523.113 174.39 533.673 175.38C548.028 176.7 556.443 177.855 558.918 179.01C563.868 181.155 570.468 183.3 570.468 192.705C570.468 210.36 550.833 227.85 534.003 227.85ZM535.323 156.735C543.903 156.735 550.173 147.165 550.173 136.44C550.173 125.88 543.408 116.31 534.663 116.31C525.918 116.31 520.143 126.21 520.143 136.11C520.143 146.01 526.743 156.735 535.323 156.735ZM536.148 221.25C549.183 221.25 560.403 211.35 560.403 197.985C560.403 192.54 554.133 188.58 546.708 187.095C542.913 186.435 537.798 185.94 531.033 185.61H527.238C525.918 186.435 523.113 189.075 518.988 193.2C516.348 196.335 515.028 199.305 515.028 202.11C515.028 213.33 523.113 221.25 536.148 221.25Z"/>
</mask>
<path d="M270.185 182.31C259.46 182.31 253.025 175.875 253.025 162.675V124.395C253.025 123.405 252.695 122.745 251.87 122.415C251.045 122.085 249.23 121.92 246.755 121.92C246.095 121.92 244.775 119.61 244.775 118.62C244.775 118.125 245.105 117.795 245.6 117.465C250.715 115.98 256.49 110.04 259.79 105.915C261.44 103.77 262.43 102.78 262.76 102.78C264.245 102.78 265.07 103.275 265.07 104.43L264.74 111.69C264.74 113.175 266.06 114 268.7 114H287.51C288.665 114 289.16 115.32 289.16 117.96C289.16 120.6 288.665 121.92 287.51 121.92H271.175C265.235 121.92 264.575 122.085 264.575 126.54V157.725C264.575 168.945 269.36 173.235 275.465 173.235C280.91 173.235 285.035 172.245 287.84 170.1C288.005 169.935 288.17 169.935 288.335 169.935C288.995 169.935 289.49 170.925 289.49 172.08C289.49 172.905 288.665 174.06 286.85 175.545C283.385 178.845 276.29 182.31 270.185 182.31ZM295.67 180.495C293.525 180.495 292.37 180 292.37 178.845C292.37 177.855 293.36 177.03 295.34 176.37C299.3 175.05 299.96 175.05 301.445 173.235C302.105 172.41 302.435 171.255 302.435 169.77V134.295C302.435 127.365 300.125 123.405 295.67 122.415C294.845 122.25 294.35 121.425 294.35 120.27C294.35 119.115 294.68 118.455 295.505 118.29C299.63 117.465 302.765 116.31 304.745 114.99C308.54 112.515 311.015 111.03 312.17 110.205C313.325 109.545 313.985 109.215 313.985 109.05H314.48C314.645 109.05 314.975 109.38 315.14 110.205C315.14 113.175 315.14 115.98 314.975 118.785C314.81 121.59 314.81 122.91 314.975 122.91C315.14 122.91 315.305 122.58 315.8 122.085C317.285 120.27 318.275 119.115 318.77 118.785C324.05 114 329.165 111.69 333.95 111.69C338.57 111.69 341.87 113.835 341.87 117.135C341.87 120.435 338.405 125.55 335.93 125.55C334.775 125.55 332.96 125.055 330.65 124.065C328.34 123.075 326.69 122.58 325.535 122.58C319.1 122.58 313.985 126.375 313.985 136.44V168.945C314.15 171.915 317.12 174.225 322.895 176.04C325.37 176.865 326.69 177.855 326.69 178.845C326.69 180 325.535 180.495 323.39 180.495L309.035 179.67L295.67 180.495ZM378.002 182.31C359.357 182.31 345.167 168.285 345.167 149.145C345.167 130.17 361.667 111.69 380.972 111.69C400.277 111.69 415.292 126.54 415.292 145.845C415.292 165.15 401.597 182.31 378.002 182.31ZM381.467 177.36C397.967 177.36 401.762 166.14 401.762 149.145C401.762 132.15 391.862 116.805 378.497 116.805C365.297 116.805 358.697 126.375 358.697 145.35C358.697 162.345 368.762 177.36 381.467 177.36ZM425.047 180.495C422.902 180.495 421.747 180 421.747 178.845C421.747 176.865 427.027 175.545 427.687 175.38C428.182 175.38 430.492 174.225 430.987 173.565C432.142 172.41 432.637 171.09 432.637 169.77V134.295C432.637 127.2 430.327 123.24 425.872 122.415C425.047 122.25 424.552 121.425 424.552 120.27C424.552 119.115 424.882 118.455 425.707 118.29C431.482 116.97 437.422 114 443.857 109.215C444.022 109.05 444.187 109.05 444.517 109.05C444.682 109.05 445.012 109.545 445.342 110.535L444.187 121.26C444.187 122.085 444.187 122.415 444.352 122.58C450.457 117.465 462.172 111.69 472.072 111.69C481.972 111.69 490.222 121.59 490.222 134.625V169.77C490.222 174.225 493.192 174.72 497.812 176.205C499.957 177.03 501.112 177.855 501.112 178.845C501.112 180 499.957 180.495 497.812 180.495L484.612 179.67L471.082 180.495C468.937 180.495 467.782 180 467.782 178.845C467.782 177.855 469.102 176.865 471.577 176.04C471.742 176.04 471.907 176.04 472.237 175.875C475.867 174.72 478.012 173.235 478.507 171.42C478.672 170.925 478.672 170.265 478.672 169.77V135.12C478.672 125.715 473.062 119.775 462.502 119.775C451.777 119.775 444.187 123.735 444.187 135.78V169.77C444.187 174.225 447.157 174.72 451.777 176.205C453.922 177.03 455.077 177.855 455.077 178.845C455.077 180 453.922 180.495 451.777 180.495L438.412 179.67L425.047 180.495ZM534.003 227.85C517.173 227.85 503.313 222.24 503.313 209.04C503.313 202.275 506.448 197.82 514.533 192.705C518.493 190.23 521.298 187.59 522.948 185.115C515.523 183.63 508.098 179.505 508.098 172.74C508.098 170.595 509.418 168.615 511.893 166.635C512.553 166.14 513.543 165.48 515.028 164.655C517.998 162.84 520.143 161.025 521.628 159.045C520.143 158.715 517.998 157.23 515.358 154.755C509.913 149.64 507.273 143.535 507.273 136.44C507.273 122.085 521.298 111.36 536.643 111.36C539.448 111.36 542.583 112.02 546.378 113.175C553.308 115.32 558.918 116.475 563.043 116.475L568.323 116.31H570.303C571.953 116.31 573.273 116.64 573.273 119.445C573.273 121.425 572.778 122.415 571.788 122.415C567.663 122.415 565.353 122.58 564.858 122.745L563.538 123.24L562.383 123.735C561.888 124.89 561.723 127.53 561.723 131.325C561.723 147.825 549.843 162.51 534.003 162.51C530.538 162.51 527.568 161.85 525.093 160.53C520.308 164.325 517.833 166.965 517.833 168.615C517.833 172.08 523.113 174.39 533.673 175.38C548.028 176.7 556.443 177.855 558.918 179.01C563.868 181.155 570.468 183.3 570.468 192.705C570.468 210.36 550.833 227.85 534.003 227.85ZM535.323 156.735C543.903 156.735 550.173 147.165 550.173 136.44C550.173 125.88 543.408 116.31 534.663 116.31C525.918 116.31 520.143 126.21 520.143 136.11C520.143 146.01 526.743 156.735 535.323 156.735ZM536.148 221.25C549.183 221.25 560.403 211.35 560.403 197.985C560.403 192.54 554.133 188.58 546.708 187.095C542.913 186.435 537.798 185.94 531.033 185.61H527.238C525.918 186.435 523.113 189.075 518.988 193.2C516.348 196.335 515.028 199.305 515.028 202.11C515.028 213.33 523.113 221.25 536.148 221.25Z" fill="#B4C372"/>
<path d="M251.87 122.415L251.499 123.343L251.499 123.343L251.87 122.415ZM245.6 117.465L245.321 116.505L245.173 116.548L245.045 116.633L245.6 117.465ZM259.79 105.915L260.571 106.54L260.577 106.532L260.583 106.525L259.79 105.915ZM265.07 104.43L266.069 104.475L266.07 104.453V104.43H265.07ZM264.74 111.69L263.741 111.645L263.74 111.667V111.69H264.74ZM287.84 170.1L288.447 170.894L288.5 170.854L288.547 170.807L287.84 170.1ZM286.85 175.545L286.217 174.771L286.188 174.795L286.16 174.821L286.85 175.545ZM270.185 182.31V181.31C265.026 181.31 261.037 179.768 258.325 176.771C255.598 173.759 254.025 169.126 254.025 162.675H253.025H252.025C252.025 169.424 253.67 174.609 256.842 178.114C260.028 181.634 264.619 183.31 270.185 183.31V182.31ZM253.025 162.675H254.025V124.395H253.025H252.025V162.675H253.025ZM253.025 124.395H254.025C254.025 123.799 253.927 123.198 253.628 122.667C253.318 122.115 252.839 121.726 252.241 121.487L251.87 122.415L251.499 123.343C251.726 123.434 251.825 123.54 251.885 123.648C251.958 123.777 252.025 124.001 252.025 124.395H253.025ZM251.87 122.415L252.241 121.487C251.689 121.266 250.909 121.132 250.026 121.048C249.118 120.962 248.012 120.92 246.755 120.92V121.92V122.92C247.973 122.92 249.012 122.961 249.836 123.039C250.686 123.12 251.226 123.234 251.499 123.343L251.87 122.415ZM246.755 121.92V120.92C246.95 120.92 247.052 120.998 247.029 120.983C247.019 120.976 246.974 120.943 246.898 120.861C246.748 120.7 246.563 120.446 246.379 120.134C246.199 119.827 246.039 119.497 245.927 119.201C245.807 118.882 245.775 118.686 245.775 118.62H244.775H243.775C243.775 119.049 243.908 119.513 244.056 119.906C244.212 120.321 244.424 120.754 244.656 121.148C244.885 121.538 245.154 121.923 245.436 122.226C245.577 122.376 245.743 122.531 245.932 122.655C246.107 122.77 246.395 122.92 246.755 122.92V121.92ZM244.775 118.62H245.775C245.775 118.611 245.776 118.614 245.773 118.621C245.771 118.626 245.773 118.618 245.791 118.595C245.837 118.536 245.937 118.442 246.155 118.297L245.6 117.465L245.045 116.633C244.518 116.984 243.775 117.576 243.775 118.62H244.775ZM245.6 117.465L245.879 118.425C248.648 117.621 251.503 115.65 254.035 113.432C256.585 111.198 258.894 108.636 260.571 106.54L259.79 105.915L259.009 105.29C257.386 107.319 255.158 109.789 252.717 111.928C250.257 114.083 247.667 115.824 245.321 116.505L245.6 117.465ZM259.79 105.915L260.583 106.525C261.398 105.465 262.033 104.713 262.491 104.236C262.723 103.994 262.889 103.844 262.997 103.762C263.051 103.721 263.069 103.713 263.056 103.719C263.049 103.723 263.022 103.736 262.979 103.749C262.938 103.762 262.861 103.78 262.76 103.78V102.78V101.78C262.491 101.78 262.275 101.873 262.154 101.934C262.018 102.003 261.892 102.089 261.781 102.174C261.558 102.345 261.312 102.576 261.049 102.851C260.517 103.404 259.832 104.22 258.997 105.305L259.79 105.915ZM262.76 102.78V103.78C263.424 103.78 263.761 103.897 263.907 103.997C263.983 104.049 264.07 104.125 264.07 104.43H265.07H266.07C266.07 103.58 265.745 102.831 265.037 102.347C264.4 101.911 263.581 101.78 262.76 101.78V102.78ZM265.07 104.43L264.071 104.385L263.741 111.645L264.74 111.69L265.739 111.735L266.069 104.475L265.07 104.43ZM264.74 111.69H263.74C263.74 112.794 264.263 113.694 265.219 114.262C266.104 114.787 267.305 115 268.7 115V114V113C267.455 113 266.676 112.8 266.241 112.542C265.877 112.326 265.74 112.071 265.74 111.69H264.74ZM268.7 114V115H287.51V114V113H268.7V114ZM287.51 114V115C287.593 115 287.617 115.018 287.635 115.032C287.668 115.058 287.75 115.142 287.842 115.366C288.034 115.84 288.16 116.669 288.16 117.96H289.16H290.16C290.16 116.611 290.038 115.46 289.695 114.614C289.518 114.178 289.26 113.767 288.875 113.463C288.475 113.147 288.005 113 287.51 113V114ZM289.16 117.96H288.16C288.16 119.251 288.034 120.08 287.842 120.554C287.75 120.778 287.668 120.862 287.635 120.888C287.617 120.902 287.593 120.92 287.51 120.92V121.92V122.92C288.005 122.92 288.475 122.773 288.875 122.457C289.26 122.153 289.518 121.742 289.695 121.306C290.038 120.46 290.16 119.309 290.16 117.96H289.16ZM287.51 121.92V120.92H271.175V121.92V122.92H287.51V121.92ZM271.175 121.92V120.92C269.7 120.92 268.496 120.929 267.543 121.02C266.605 121.109 265.762 121.286 265.097 121.724C264.375 122.2 263.995 122.89 263.799 123.704C263.613 124.474 263.575 125.428 263.575 126.54H264.575H265.575C265.575 125.425 265.619 124.687 265.743 124.173C265.856 123.703 266.012 123.517 266.198 123.394C266.44 123.235 266.876 123.092 267.732 123.011C268.574 122.931 269.68 122.92 271.175 122.92V121.92ZM264.575 126.54H263.575V157.725H264.575H265.575V126.54H264.575ZM264.575 157.725H263.575C263.575 163.457 264.795 167.59 266.947 170.308C269.126 173.061 272.16 174.235 275.465 174.235V173.235V172.235C272.665 172.235 270.254 171.264 268.515 169.067C266.748 166.835 265.575 163.213 265.575 157.725H264.575ZM275.465 173.235V174.235C281.001 174.235 285.388 173.234 288.447 170.894L287.84 170.1L287.233 169.306C284.682 171.256 280.819 172.235 275.465 172.235V173.235ZM287.84 170.1L288.547 170.807C288.528 170.826 288.497 170.852 288.454 170.876C288.41 170.901 288.367 170.917 288.33 170.926C288.313 170.93 288.298 170.933 288.289 170.934C288.284 170.935 288.28 170.935 288.278 170.935C288.275 170.936 288.274 170.936 288.274 170.936C288.274 170.936 288.275 170.936 288.277 170.935C288.28 170.935 288.284 170.935 288.289 170.935C288.3 170.935 288.313 170.935 288.335 170.935V169.935V168.935C288.155 168.935 287.609 168.917 287.133 169.393L287.84 170.1ZM288.335 169.935V170.935C288.114 170.935 288.138 170.78 288.275 171.04C288.391 171.261 288.49 171.631 288.49 172.08H289.49H290.49C290.49 171.374 290.341 170.671 290.045 170.109C289.769 169.585 289.216 168.935 288.335 168.935V169.935ZM289.49 172.08H288.49C288.49 172.175 288.431 172.457 288.051 172.965C287.684 173.454 287.091 174.056 286.217 174.771L286.85 175.545L287.483 176.319C288.424 175.549 289.151 174.831 289.651 174.165C290.136 173.518 290.49 172.81 290.49 172.08H289.49ZM286.85 175.545L286.16 174.821C284.532 176.372 282 178.003 279.112 179.247C276.225 180.489 273.063 181.31 270.185 181.31V182.31V183.31C273.412 183.31 276.85 182.398 279.903 181.083C282.955 179.769 285.703 178.018 287.54 176.269L286.85 175.545ZM295.67 180.495V181.495H295.701L295.731 181.493L295.67 180.495ZM295.34 176.37L295.024 175.421L295.024 175.421L295.34 176.37ZM301.445 173.235L302.219 173.868L302.226 173.86L301.445 173.235ZM295.67 122.415L295.887 121.439L295.876 121.437L295.866 121.434L295.67 122.415ZM295.505 118.29L295.701 119.271L295.701 119.271L295.505 118.29ZM304.745 114.99L304.198 114.152L304.19 114.158L304.745 114.99ZM312.17 110.205L311.674 109.337L311.63 109.362L311.589 109.391L312.17 110.205ZM313.985 109.05V108.05H312.985V109.05H313.985ZM315.14 110.205H316.14V110.106L316.12 110.009L315.14 110.205ZM314.975 118.785L313.976 118.726L313.976 118.726L314.975 118.785ZM315.8 122.085L316.507 122.792L316.542 122.757L316.574 122.718L315.8 122.085ZM318.77 118.785L319.324 119.617L319.386 119.576L319.441 119.526L318.77 118.785ZM313.985 168.945H312.985V168.973L312.986 169L313.985 168.945ZM322.895 176.04L323.211 175.091L323.203 175.089L323.195 175.086L322.895 176.04ZM323.39 180.495L323.332 181.493L323.361 181.495H323.39V180.495ZM309.035 179.67L309.092 178.672L309.033 178.668L308.973 178.672L309.035 179.67ZM295.67 180.495V179.495C294.64 179.495 293.999 179.371 293.649 179.202C293.489 179.125 293.432 179.059 293.411 179.028C293.395 179.005 293.37 178.959 293.37 178.845H292.37H291.37C291.37 179.309 291.489 179.758 291.756 180.152C292.02 180.539 292.384 180.813 292.782 181.004C293.545 181.372 294.555 181.495 295.67 181.495V180.495ZM292.37 178.845H293.37C293.37 178.731 293.412 178.536 293.752 178.252C294.111 177.953 294.72 177.631 295.656 177.319L295.34 176.37L295.024 175.421C293.979 175.769 293.104 176.189 292.472 176.716C291.823 177.256 291.37 177.969 291.37 178.845H292.37ZM295.34 176.37L295.656 177.319C297.565 176.682 298.827 176.319 299.741 175.895C300.761 175.422 301.411 174.855 302.219 173.868L301.445 173.235L300.671 172.602C299.993 173.43 299.571 173.77 298.9 174.081C298.122 174.441 297.075 174.738 295.024 175.421L295.34 176.37ZM301.445 173.235L302.226 173.86C303.075 172.798 303.435 171.392 303.435 169.77H302.435H301.435C301.435 171.118 301.134 172.022 300.664 172.61L301.445 173.235ZM302.435 169.77H303.435V134.295H302.435H301.435V169.77H302.435ZM302.435 134.295H303.435C303.435 130.736 302.844 127.819 301.591 125.63C300.315 123.404 298.387 121.994 295.887 121.439L295.67 122.415L295.453 123.391C297.408 123.826 298.862 124.891 299.855 126.625C300.87 128.396 301.435 130.924 301.435 134.295H302.435ZM295.67 122.415L295.866 121.434C295.721 121.406 295.35 121.206 295.35 120.27H294.35H293.35C293.35 121.644 293.968 123.094 295.474 123.396L295.67 122.415ZM294.35 120.27H295.35C295.35 119.763 295.427 119.511 295.489 119.399C295.515 119.354 295.536 119.336 295.551 119.325C295.568 119.313 295.609 119.289 295.701 119.271L295.505 118.29L295.309 117.309C294.634 117.444 294.086 117.814 293.746 118.418C293.438 118.967 293.35 119.622 293.35 120.27H294.35ZM295.505 118.29L295.701 119.271C299.884 118.434 303.164 117.246 305.299 115.822L304.745 114.99L304.19 114.158C302.366 115.374 299.376 116.496 295.309 117.309L295.505 118.29ZM304.745 114.99L305.291 115.828C309.028 113.391 311.578 111.857 312.751 111.019L312.17 110.205L311.589 109.391C310.452 110.203 308.052 111.639 304.198 114.152L304.745 114.99ZM312.17 110.205L312.666 111.073C313.215 110.76 313.705 110.491 314.025 110.299C314.185 110.203 314.354 110.096 314.491 109.986C314.559 109.931 314.656 109.847 314.744 109.734C314.819 109.636 314.985 109.396 314.985 109.05H313.985H312.985C312.985 108.745 313.13 108.551 313.165 108.506C313.212 108.445 313.248 108.419 313.236 108.429C313.213 108.447 313.145 108.495 312.996 108.584C312.697 108.764 312.28 108.99 311.674 109.337L312.17 110.205ZM313.985 109.05V110.05H314.48V109.05V108.05H313.985V109.05ZM314.48 109.05V110.05C314.337 110.05 314.226 110.015 314.159 109.987C314.09 109.958 314.043 109.925 314.018 109.906C313.968 109.867 313.96 109.846 313.978 109.873C314.012 109.924 314.095 110.082 314.159 110.401L315.14 110.205L316.12 110.009C316.019 109.503 315.855 109.084 315.642 108.763C315.536 108.605 315.404 108.449 315.241 108.323C315.097 108.212 314.832 108.05 314.48 108.05V109.05ZM315.14 110.205H314.14C314.14 113.18 314.139 115.956 313.976 118.726L314.975 118.785L315.973 118.844C316.14 116.004 316.14 113.17 316.14 110.205H315.14ZM314.975 118.785L313.976 118.726C313.894 120.132 313.851 121.188 313.851 121.899C313.851 122.248 313.861 122.551 313.889 122.782C313.902 122.888 313.926 123.043 313.983 123.197C314.011 123.27 314.07 123.412 314.192 123.552C314.325 123.704 314.589 123.91 314.975 123.91V122.91V121.91C315.34 121.91 315.584 122.105 315.7 122.237C315.803 122.356 315.846 122.467 315.858 122.499C315.884 122.569 315.882 122.6 315.874 122.538C315.862 122.433 315.851 122.231 315.851 121.899C315.851 121.25 315.891 120.243 315.973 118.844L314.975 118.785ZM314.975 122.91V123.91C315.363 123.91 315.63 123.714 315.744 123.619C315.863 123.52 315.963 123.403 316.023 123.334C316.166 123.167 316.295 123.004 316.507 122.792L315.8 122.085L315.093 121.378C314.81 121.661 314.608 121.911 314.504 122.032C314.44 122.107 314.438 122.104 314.463 122.082C314.484 122.065 314.669 121.91 314.975 121.91V122.91ZM315.8 122.085L316.574 122.718C317.316 121.811 317.923 121.083 318.403 120.542C318.911 119.972 319.201 119.699 319.324 119.617L318.77 118.785L318.215 117.953C317.844 118.201 317.391 118.671 316.909 119.214C316.399 119.787 315.769 120.544 315.026 121.452L315.8 122.085ZM318.77 118.785L319.441 119.526C324.613 114.839 329.499 112.69 333.95 112.69V111.69V110.69C328.831 110.69 323.487 113.161 318.098 118.044L318.77 118.785ZM333.95 111.69V112.69C336.119 112.69 337.888 113.196 339.082 114.003C340.252 114.795 340.87 115.865 340.87 117.135H341.87H342.87C342.87 115.105 341.838 113.453 340.203 112.347C338.592 111.257 336.4 110.69 333.95 110.69V111.69ZM341.87 117.135H340.87C340.87 118.501 340.122 120.405 339.007 122.009C338.459 122.797 337.859 123.459 337.282 123.914C336.685 124.386 336.222 124.55 335.93 124.55V125.55V126.55C336.875 126.55 337.773 126.075 338.522 125.484C339.291 124.877 340.021 124.055 340.649 123.151C341.885 121.373 342.87 119.069 342.87 117.135H341.87ZM335.93 125.55V124.55C334.989 124.55 333.331 124.126 331.044 123.146L330.65 124.065L330.256 124.984C332.588 125.984 334.561 126.55 335.93 126.55V125.55ZM330.65 124.065L331.044 123.146C328.733 122.155 326.915 121.58 325.535 121.58V122.58V123.58C326.465 123.58 327.947 123.995 330.256 124.984L330.65 124.065ZM325.535 122.58V121.58C322.122 121.58 318.94 122.59 316.619 125.049C314.305 127.501 312.985 131.248 312.985 136.44H313.985H314.985C314.985 131.567 316.222 128.384 318.074 126.422C319.919 124.467 322.512 123.58 325.535 123.58V122.58ZM313.985 136.44H312.985V168.945H313.985H314.985V136.44H313.985ZM313.985 168.945L312.986 169C313.089 170.848 314.074 172.41 315.715 173.71C317.338 174.994 319.655 176.07 322.595 176.994L322.895 176.04L323.195 175.086C320.359 174.195 318.305 173.209 316.957 172.142C315.628 171.09 315.046 170.012 314.983 168.89L313.985 168.945ZM322.895 176.04L322.579 176.989C323.767 177.385 324.605 177.798 325.125 178.184C325.669 178.588 325.69 178.823 325.69 178.845H326.69H327.69C327.69 177.877 327.05 177.122 326.316 176.578C325.557 176.014 324.497 175.52 323.211 175.091L322.895 176.04ZM326.69 178.845H325.69C325.69 178.959 325.664 179.005 325.648 179.028C325.628 179.059 325.57 179.125 325.41 179.202C325.06 179.371 324.42 179.495 323.39 179.495V180.495V181.495C324.505 181.495 325.514 181.372 326.278 181.004C326.675 180.813 327.04 180.539 327.303 180.152C327.571 179.758 327.69 179.309 327.69 178.845H326.69ZM323.39 180.495L323.447 179.497L309.092 178.672L309.035 179.67L308.977 180.668L323.332 181.493L323.39 180.495ZM309.035 179.67L308.973 178.672L295.608 179.497L295.67 180.495L295.731 181.493L309.096 180.668L309.035 179.67ZM378.002 182.31V181.31C359.913 181.31 346.167 167.736 346.167 149.145H345.167H344.167C344.167 168.834 358.802 183.31 378.002 183.31V182.31ZM345.167 149.145H346.167C346.167 139.941 350.174 130.815 356.561 123.985C362.946 117.157 371.645 112.69 380.972 112.69V111.69V110.69C370.994 110.69 361.791 115.463 355.1 122.619C348.41 129.773 344.167 139.374 344.167 149.145H345.167ZM380.972 111.69V112.69C399.731 112.69 414.292 127.099 414.292 145.845H415.292H416.292C416.292 125.981 400.823 110.69 380.972 110.69V111.69ZM415.292 145.845H414.292C414.292 164.646 400.998 181.31 378.002 181.31V182.31V183.31C402.196 183.31 416.292 165.654 416.292 145.845H415.292ZM381.467 177.36V178.36C389.98 178.36 395.422 175.44 398.656 170.147C401.821 164.965 402.762 157.668 402.762 149.145H401.762H400.762C400.762 157.617 399.806 164.427 396.949 169.104C394.16 173.67 389.455 176.36 381.467 176.36V177.36ZM401.762 149.145H402.762C402.762 140.465 400.237 132.176 395.963 126.031C391.688 119.885 385.597 115.805 378.497 115.805V116.805V117.805C384.762 117.805 390.304 121.397 394.321 127.173C398.338 132.949 400.762 140.83 400.762 149.145H401.762ZM378.497 116.805V115.805C371.621 115.805 366.339 118.319 362.825 123.392C359.357 128.4 357.697 135.777 357.697 145.35H358.697H359.697C359.697 135.948 361.338 129.052 364.469 124.531C367.555 120.076 372.174 117.805 378.497 117.805V116.805ZM358.697 145.35H357.697C357.697 154.034 360.266 162.24 364.498 168.301C368.726 174.356 374.691 178.36 381.467 178.36V177.36V176.36C375.538 176.36 370.119 172.857 366.138 167.156C362.16 161.46 359.697 153.661 359.697 145.35H358.697ZM425.047 180.495V181.495H425.077L425.108 181.493L425.047 180.495ZM427.687 175.38V174.38H427.563L427.444 174.41L427.687 175.38ZM430.987 173.565L430.279 172.858L430.229 172.908L430.187 172.965L430.987 173.565ZM425.872 122.415L425.675 123.396L425.682 123.397L425.689 123.398L425.872 122.415ZM425.707 118.29L425.903 119.271L425.916 119.268L425.929 119.265L425.707 118.29ZM443.857 109.215L444.453 110.017L444.512 109.974L444.564 109.922L443.857 109.215ZM445.342 110.535L446.336 110.642L446.359 110.425L446.29 110.219L445.342 110.535ZM444.187 121.26L443.192 121.153L443.187 121.206V121.26H444.187ZM444.352 122.58L443.644 123.287L444.292 123.935L444.994 123.347L444.352 122.58ZM497.812 176.205L498.171 175.272L498.144 175.262L498.118 175.253L497.812 176.205ZM497.812 180.495L497.749 181.493L497.78 181.495H497.812V180.495ZM484.612 179.67L484.674 178.672L484.612 178.668L484.551 178.672L484.612 179.67ZM471.082 180.495V181.495H471.112L471.142 181.493L471.082 180.495ZM471.577 176.04V175.04H471.414L471.26 175.091L471.577 176.04ZM472.237 175.875L471.933 174.922L471.859 174.946L471.789 174.981L472.237 175.875ZM478.507 171.42L477.558 171.104L477.549 171.13L477.542 171.157L478.507 171.42ZM451.777 176.205L452.136 175.272L452.109 175.262L452.083 175.253L451.777 176.205ZM451.777 180.495L451.715 181.493L451.746 181.495H451.777V180.495ZM438.412 179.67L438.473 178.672L438.412 178.668L438.35 178.672L438.412 179.67ZM425.047 180.495V179.495C424.017 179.495 423.376 179.371 423.026 179.202C422.866 179.125 422.808 179.059 422.788 179.028C422.772 179.005 422.747 178.959 422.747 178.845H421.747H420.747C420.747 179.309 420.866 179.758 421.133 180.152C421.396 180.539 421.761 180.813 422.158 181.004C422.922 181.372 423.931 181.495 425.047 181.495V180.495ZM421.747 178.845H422.747C422.747 178.814 422.776 178.617 423.207 178.272C423.609 177.95 424.194 177.636 424.861 177.352C426.185 176.787 427.604 176.432 427.929 176.35L427.687 175.38L427.444 174.41C427.109 174.493 425.558 174.88 424.077 175.512C423.341 175.826 422.565 176.223 421.957 176.711C421.377 177.175 420.747 177.886 420.747 178.845H421.747ZM427.687 175.38V176.38C427.899 176.38 428.104 176.326 428.233 176.288C428.385 176.243 428.55 176.183 428.716 176.117C429.048 175.983 429.43 175.802 429.804 175.604C430.179 175.406 430.564 175.18 430.896 174.952C431.202 174.743 431.558 174.47 431.787 174.165L430.987 173.565L430.187 172.965C430.187 172.964 430.159 173 430.075 173.07C429.998 173.136 429.894 173.215 429.767 173.302C429.512 173.476 429.195 173.663 428.869 173.836C428.542 174.009 428.223 174.159 427.967 174.262C427.839 174.314 427.738 174.349 427.667 174.37C427.573 174.398 427.598 174.38 427.687 174.38V175.38ZM430.987 173.565L431.694 174.272C433.032 172.934 433.637 171.362 433.637 169.77H432.637H431.637C431.637 170.818 431.251 171.886 430.279 172.858L430.987 173.565ZM432.637 169.77H433.637V134.295H432.637H431.637V169.77H432.637ZM432.637 134.295H433.637C433.637 130.658 433.048 127.698 431.792 125.507C430.512 123.272 428.57 121.898 426.054 121.432L425.872 122.415L425.689 123.398C427.628 123.757 429.068 124.775 430.057 126.501C431.07 128.27 431.637 130.837 431.637 134.295H432.637ZM425.872 122.415L426.068 121.434C425.923 121.406 425.552 121.206 425.552 120.27H424.552H423.552C423.552 121.644 424.17 123.094 425.675 123.396L425.872 122.415ZM424.552 120.27H425.552C425.552 119.763 425.628 119.511 425.691 119.399C425.717 119.354 425.737 119.336 425.752 119.325C425.769 119.313 425.811 119.289 425.903 119.271L425.707 118.29L425.51 117.309C424.835 117.444 424.288 117.814 423.948 118.418C423.64 118.967 423.552 119.622 423.552 120.27H424.552ZM425.707 118.29L425.929 119.265C431.878 117.905 437.944 114.858 444.453 110.017L443.857 109.215L443.26 108.413C436.899 113.142 431.085 116.035 425.484 117.315L425.707 118.29ZM443.857 109.215L444.564 109.922C444.544 109.942 444.506 109.974 444.451 110.003C444.395 110.033 444.347 110.046 444.321 110.051C444.3 110.055 444.299 110.053 444.337 110.052C444.355 110.051 444.378 110.051 444.409 110.05C444.44 110.05 444.474 110.05 444.517 110.05V109.05V108.05C444.268 108.05 443.653 108.004 443.149 108.508L443.857 109.215ZM444.517 109.05V110.05C444.291 110.05 444.133 109.968 444.067 109.928C443.994 109.884 443.955 109.843 443.947 109.835C443.931 109.818 443.952 109.837 444.003 109.925C444.102 110.094 444.241 110.396 444.393 110.851L445.342 110.535L446.29 110.219C446.112 109.684 445.921 109.244 445.731 108.917C445.638 108.758 445.525 108.591 445.391 108.451C445.323 108.38 445.228 108.293 445.105 108.219C444.987 108.147 444.783 108.05 444.517 108.05V109.05ZM445.342 110.535L444.347 110.428L443.192 121.153L444.187 121.26L445.181 121.367L446.336 110.642L445.342 110.535ZM444.187 121.26H443.187C443.187 121.648 443.185 121.999 443.212 122.267C443.238 122.526 443.306 122.949 443.644 123.287L444.352 122.58L445.059 121.873C445.232 122.046 445.218 122.222 445.202 122.068C445.196 122.006 445.191 121.914 445.189 121.774C445.187 121.635 445.187 121.469 445.187 121.26H444.187ZM444.352 122.58L444.994 123.347C447.96 120.861 452.327 118.188 457.178 116.138C462.033 114.086 467.3 112.69 472.072 112.69V111.69V110.69C466.943 110.69 461.403 112.181 456.399 114.296C451.392 116.412 446.848 119.184 443.709 121.813L444.352 122.58ZM472.072 111.69V112.69C481.227 112.69 489.222 121.928 489.222 134.625H490.222H491.222C491.222 121.252 482.716 110.69 472.072 110.69V111.69ZM490.222 134.625H489.222V169.77H490.222H491.222V134.625H490.222ZM490.222 169.77H489.222C489.222 170.993 489.425 172.024 489.865 172.896C490.309 173.777 490.958 174.427 491.735 174.937C492.498 175.438 493.393 175.81 494.346 176.143C495.288 176.473 496.386 176.797 497.506 177.157L497.812 176.205L498.118 175.253C496.927 174.87 495.921 174.576 495.007 174.256C494.104 173.94 493.39 173.631 492.833 173.265C492.29 172.909 491.908 172.507 491.651 171.996C491.389 171.476 491.222 170.775 491.222 169.77H490.222ZM497.812 176.205L497.453 177.138C498.495 177.539 499.212 177.91 499.652 178.252C500.092 178.595 500.112 178.79 500.112 178.845H501.112H502.112C502.112 177.91 501.553 177.198 500.88 176.674C500.206 176.15 499.273 175.696 498.171 175.272L497.812 176.205ZM501.112 178.845H500.112C500.112 178.959 500.086 179.005 500.07 179.028C500.05 179.059 499.992 179.125 499.832 179.202C499.482 179.371 498.841 179.495 497.812 179.495V180.495V181.495C498.927 181.495 499.936 181.372 500.7 181.004C501.097 180.813 501.462 180.539 501.725 180.152C501.993 179.758 502.112 179.309 502.112 178.845H501.112ZM497.812 180.495L497.874 179.497L484.674 178.672L484.612 179.67L484.549 180.668L497.749 181.493L497.812 180.495ZM484.612 179.67L484.551 178.672L471.021 179.497L471.082 180.495L471.142 181.493L484.672 180.668L484.612 179.67ZM471.082 180.495V179.495C470.052 179.495 469.411 179.371 469.061 179.202C468.901 179.125 468.843 179.059 468.823 179.028C468.807 179.005 468.782 178.959 468.782 178.845H467.782H466.782C466.782 179.309 466.901 179.758 467.168 180.152C467.431 180.539 467.796 180.813 468.193 181.004C468.957 181.372 469.966 181.495 471.082 181.495V180.495ZM467.782 178.845H468.782C468.782 178.823 468.802 178.588 469.347 178.184C469.866 177.798 470.704 177.385 471.893 176.989L471.577 176.04L471.26 175.091C469.974 175.52 468.914 176.014 468.155 176.578C467.421 177.122 466.782 177.877 466.782 178.845H467.782ZM471.577 176.04V177.04C471.661 177.04 471.831 177.042 472.041 177C472.25 176.958 472.458 176.882 472.684 176.769L472.237 175.875L471.789 174.981C471.736 175.007 471.701 175.022 471.679 175.03C471.658 175.037 471.649 175.039 471.649 175.039C471.648 175.039 471.648 175.039 471.648 175.039C471.648 175.039 471.648 175.039 471.648 175.039C471.648 175.039 471.649 175.039 471.648 175.039C471.648 175.039 471.648 175.039 471.648 175.039C471.648 175.039 471.648 175.039 471.648 175.039C471.647 175.039 471.646 175.039 471.644 175.039C471.634 175.04 471.621 175.04 471.577 175.04V176.04ZM472.237 175.875L472.54 176.828C474.408 176.233 475.957 175.535 477.124 174.712C478.291 173.888 479.142 172.89 479.471 171.683L478.507 171.42L477.542 171.157C477.376 171.765 476.907 172.417 475.97 173.078C475.033 173.74 473.695 174.362 471.933 174.922L472.237 175.875ZM478.507 171.42L479.455 171.736C479.682 171.056 479.672 170.218 479.672 169.77H478.672H477.672C477.672 170.312 477.661 170.794 477.558 171.104L478.507 171.42ZM478.672 169.77H479.672V135.12H478.672H477.672V169.77H478.672ZM478.672 135.12H479.672C479.672 130.219 478.206 126.098 475.245 123.205C472.288 120.315 467.966 118.775 462.502 118.775V119.775V120.775C467.597 120.775 471.36 122.205 473.848 124.636C476.332 127.064 477.672 130.616 477.672 135.12H478.672ZM462.502 119.775V118.775C457.046 118.775 452.205 119.777 448.712 122.469C445.167 125.2 443.187 129.533 443.187 135.78H444.187H445.187C445.187 129.982 447.001 126.312 449.933 124.053C452.916 121.753 457.232 120.775 462.502 120.775V119.775ZM444.187 135.78H443.187V169.77H444.187H445.187V135.78H444.187ZM444.187 169.77H443.187C443.187 170.993 443.39 172.024 443.83 172.896C444.274 173.777 444.923 174.427 445.7 174.937C446.463 175.438 447.358 175.81 448.311 176.143C449.253 176.473 450.351 176.797 451.471 177.157L451.777 176.205L452.083 175.253C450.892 174.87 449.886 174.576 448.972 174.256C448.069 173.94 447.355 173.631 446.798 173.265C446.255 172.909 445.873 172.507 445.616 171.996C445.354 171.476 445.187 170.775 445.187 169.77H444.187ZM451.777 176.205L451.418 177.138C452.46 177.539 453.177 177.91 453.617 178.252C454.057 178.595 454.077 178.79 454.077 178.845H455.077H456.077C456.077 177.91 455.518 177.198 454.845 176.674C454.171 176.15 453.238 175.696 452.136 175.272L451.777 176.205ZM455.077 178.845H454.077C454.077 178.959 454.051 179.005 454.035 179.028C454.015 179.059 453.957 179.125 453.797 179.202C453.447 179.371 452.806 179.495 451.777 179.495V180.495V181.495C452.892 181.495 453.901 181.372 454.665 181.004C455.062 180.813 455.427 180.539 455.69 180.152C455.958 179.758 456.077 179.309 456.077 178.845H455.077ZM451.777 180.495L451.838 179.497L438.473 178.672L438.412 179.67L438.35 180.668L451.715 181.493L451.777 180.495ZM438.412 179.67L438.35 178.672L424.985 179.497L425.047 180.495L425.108 181.493L438.473 180.668L438.412 179.67ZM514.533 192.705L514.003 191.857L513.999 191.86L514.533 192.705ZM522.948 185.115L523.78 185.67L524.609 184.427L523.144 184.134L522.948 185.115ZM511.893 166.635L511.293 165.835L511.281 165.844L511.269 165.854L511.893 166.635ZM515.028 164.655L515.514 165.529L515.532 165.519L515.55 165.508L515.028 164.655ZM521.628 159.045L522.428 159.645L523.358 158.405L521.845 158.069L521.628 159.045ZM515.358 154.755L514.674 155.484L514.674 155.485L515.358 154.755ZM546.378 113.175L546.674 112.22L546.669 112.218L546.378 113.175ZM563.043 116.475V117.475H563.059L563.074 117.475L563.043 116.475ZM568.323 116.31V115.31H568.308L568.292 115.31L568.323 116.31ZM564.858 122.745L564.542 121.796L564.524 121.802L564.507 121.809L564.858 122.745ZM563.538 123.24L563.187 122.304L563.166 122.312L563.144 122.321L563.538 123.24ZM562.383 123.735L561.989 122.816L561.622 122.973L561.464 123.341L562.383 123.735ZM525.093 160.53L525.564 159.648L524.985 159.339L524.472 159.747L525.093 160.53ZM533.673 175.38L533.58 176.376L533.582 176.376L533.673 175.38ZM558.918 179.01L558.495 179.916L558.508 179.922L558.521 179.928L558.918 179.01ZM546.708 187.095L546.904 186.114L546.892 186.112L546.88 186.11L546.708 187.095ZM531.033 185.61L531.082 184.611L531.058 184.61H531.033V185.61ZM527.238 185.61V184.61H526.951L526.708 184.762L527.238 185.61ZM518.988 193.2L518.281 192.493L518.251 192.523L518.223 192.556L518.988 193.2ZM534.003 227.85V226.85C525.675 226.85 518.191 225.458 512.828 222.518C507.515 219.606 504.313 215.207 504.313 209.04H503.313H502.313C502.313 216.073 506.042 221.079 511.866 224.272C517.64 227.437 525.502 228.85 534.003 228.85V227.85ZM503.313 209.04H504.313C504.313 205.832 505.05 203.232 506.714 200.822C508.398 198.383 511.074 196.077 515.068 193.55L514.533 192.705L513.999 191.86C509.907 194.448 506.973 196.927 505.068 199.686C503.143 202.473 502.313 205.483 502.313 209.04H503.313ZM514.533 192.705L515.063 193.553C519.105 191.027 522.03 188.296 523.78 185.67L522.948 185.115L522.116 184.56C520.567 186.884 517.882 189.433 514.003 191.857L514.533 192.705ZM522.948 185.115L523.144 184.134C519.527 183.411 515.965 182.053 513.334 180.104C510.713 178.162 509.098 175.707 509.098 172.74H508.098H507.098C507.098 176.538 509.196 179.528 512.144 181.711C515.081 183.887 518.945 185.334 522.752 186.096L522.948 185.115ZM508.098 172.74H509.098C509.098 171.049 510.13 169.326 512.518 167.416L511.893 166.635L511.269 165.854C508.706 167.904 507.098 170.141 507.098 172.74H508.098ZM511.893 166.635L512.493 167.435C513.111 166.972 514.061 166.336 515.514 165.529L515.028 164.655L514.543 163.781C513.025 164.624 511.996 165.308 511.293 165.835L511.893 166.635ZM515.028 164.655L515.55 165.508C518.585 163.653 520.842 161.76 522.428 159.645L521.628 159.045L520.828 158.445C519.444 160.29 517.412 162.027 514.507 163.802L515.028 164.655ZM521.628 159.045L521.845 158.069C521.287 157.945 520.504 157.574 519.492 156.88C518.496 156.196 517.34 155.242 516.042 154.025L515.358 154.755L514.674 155.485C516.017 156.743 517.253 157.769 518.361 158.529C519.453 159.279 520.485 159.815 521.411 160.021L521.628 159.045ZM515.358 154.755L516.043 154.026C510.793 149.095 508.273 143.251 508.273 136.44H507.273H506.273C506.273 143.819 509.033 150.185 514.674 155.484L515.358 154.755ZM507.273 136.44H508.273C508.273 122.809 521.662 112.36 536.643 112.36V111.36V110.36C520.934 110.36 506.273 121.361 506.273 136.44H507.273ZM536.643 111.36V112.36C539.301 112.36 542.324 112.986 546.087 114.132L546.378 113.175L546.669 112.218C542.842 111.054 539.596 110.36 536.643 110.36V111.36ZM546.378 113.175L546.083 114.13C553.038 116.283 558.764 117.475 563.043 117.475V116.475V115.475C559.072 115.475 553.579 114.357 546.674 112.22L546.378 113.175ZM563.043 116.475L563.074 117.475L568.354 117.31L568.323 116.31L568.292 115.31L563.012 115.475L563.043 116.475ZM568.323 116.31V117.31H570.303V116.31V115.31H568.323V116.31ZM570.303 116.31V117.31C571.122 117.31 571.538 117.41 571.779 117.604C571.97 117.758 572.273 118.168 572.273 119.445H573.273H574.273C574.273 117.917 573.916 116.759 573.035 116.048C572.203 115.375 571.135 115.31 570.303 115.31V116.31ZM573.273 119.445H572.273C572.273 120.384 572.151 120.939 572.008 121.225C571.943 121.354 571.893 121.391 571.883 121.397C571.88 121.4 571.861 121.415 571.788 121.415V122.415V123.415C572.211 123.415 572.625 123.307 572.993 123.061C573.354 122.821 573.613 122.486 573.796 122.12C574.148 121.416 574.273 120.486 574.273 119.445H573.273ZM571.788 122.415V121.415C569.714 121.415 568.087 121.456 566.908 121.52C566.32 121.551 565.836 121.588 565.46 121.63C565.114 121.668 564.779 121.717 564.542 121.796L564.858 122.745L565.174 123.694C565.164 123.697 565.196 123.686 565.298 123.669C565.391 123.653 565.517 123.636 565.679 123.618C566.005 123.582 566.449 123.547 567.015 123.517C568.147 123.456 569.737 123.415 571.788 123.415V122.415ZM564.858 122.745L564.507 121.809L563.187 122.304L563.538 123.24L563.889 124.176L565.209 123.681L564.858 122.745ZM563.538 123.24L563.144 122.321L561.989 122.816L562.383 123.735L562.777 124.654L563.932 124.159L563.538 123.24ZM562.383 123.735L561.464 123.341C561.147 124.082 560.974 125.175 560.871 126.46C560.765 127.778 560.723 129.418 560.723 131.325H561.723H562.723C562.723 129.437 562.764 127.86 562.864 126.62C562.967 125.348 563.125 124.543 563.302 124.129L562.383 123.735ZM561.723 131.325H560.723C560.723 147.416 549.158 161.51 534.003 161.51V162.51V163.51C550.528 163.51 562.723 148.234 562.723 131.325H561.723ZM534.003 162.51V161.51C530.664 161.51 527.864 160.874 525.564 159.648L525.093 160.53L524.623 161.412C527.273 162.826 530.412 163.51 534.003 163.51V162.51ZM525.093 160.53L524.472 159.747C522.065 161.655 520.2 163.304 518.928 164.705C518.292 165.406 517.782 166.069 517.426 166.695C517.074 167.312 516.833 167.961 516.833 168.615H517.833H518.833C518.833 168.444 518.902 168.145 519.164 167.684C519.421 167.232 519.829 166.689 520.409 166.049C521.571 164.769 523.336 163.2 525.715 161.313L525.093 160.53ZM517.833 168.615H516.833C516.833 170.971 518.653 172.665 521.398 173.844C524.183 175.041 528.266 175.877 533.58 176.376L533.673 175.38L533.767 174.384C528.52 173.893 524.684 173.079 522.188 172.007C519.653 170.918 518.833 169.724 518.833 168.615H517.833ZM533.673 175.38L533.582 176.376C540.754 177.035 546.427 177.652 550.61 178.247C552.702 178.544 554.409 178.834 555.739 179.119C557.087 179.408 557.984 179.678 558.495 179.916L558.918 179.01L559.341 178.104C558.615 177.765 557.532 177.457 556.158 177.163C554.765 176.865 553.007 176.568 550.891 176.267C546.659 175.665 540.948 175.045 533.765 174.384L533.673 175.38ZM558.918 179.01L558.521 179.928C561.073 181.034 563.771 182.038 565.892 183.888C567.936 185.673 569.468 188.282 569.468 192.705H570.468H571.468C571.468 187.723 569.7 184.557 567.207 182.382C564.79 180.272 561.713 179.131 559.316 178.092L558.918 179.01ZM570.468 192.705H569.468C569.468 201.171 564.746 209.711 557.863 216.169C550.98 222.627 542.096 226.85 534.003 226.85V227.85V228.85C542.74 228.85 552.089 224.328 559.231 217.627C566.373 210.926 571.468 201.894 571.468 192.705H570.468ZM535.323 156.735V157.735C540.02 157.735 544.008 155.11 546.782 151.187C549.554 147.267 551.173 141.986 551.173 136.44H550.173H549.173C549.173 141.619 547.657 146.486 545.149 150.032C542.644 153.575 539.207 155.735 535.323 155.735V156.735ZM550.173 136.44H551.173C551.173 130.956 549.419 125.71 546.498 121.815C543.576 117.919 539.427 115.31 534.663 115.31V116.31V117.31C538.644 117.31 542.251 119.486 544.898 123.015C547.545 126.545 549.173 131.364 549.173 136.44H550.173ZM534.663 116.31V115.31C529.871 115.31 525.965 118.031 523.298 121.933C520.636 125.829 519.143 130.981 519.143 136.11H520.143H521.143C521.143 131.339 522.538 126.591 524.95 123.062C527.357 119.539 530.71 117.31 534.663 117.31V116.31ZM520.143 136.11H519.143C519.143 141.265 520.856 146.62 523.694 150.706C526.526 154.781 530.589 157.735 535.323 157.735V156.735V155.735C531.477 155.735 527.951 153.327 525.337 149.564C522.73 145.812 521.143 140.855 521.143 136.11H520.143ZM536.148 221.25V222.25C549.671 222.25 561.403 211.965 561.403 197.985H560.403H559.403C559.403 210.735 548.695 220.25 536.148 220.25V221.25ZM560.403 197.985H561.403C561.403 194.837 559.583 192.221 556.937 190.253C554.291 188.284 550.717 186.877 546.904 186.114L546.708 187.095L546.512 188.076C550.125 188.798 553.398 190.113 555.743 191.857C558.088 193.601 559.403 195.688 559.403 197.985H560.403ZM546.708 187.095L546.88 186.11C543.026 185.44 537.865 184.942 531.082 184.611L531.033 185.61L530.985 186.609C537.732 186.938 542.8 187.43 546.537 188.08L546.708 187.095ZM531.033 185.61V184.61H527.238V185.61V186.61H531.033V185.61ZM527.238 185.61L526.708 184.762C525.958 185.231 524.863 186.16 523.486 187.434C522.09 188.725 520.347 190.427 518.281 192.493L518.988 193.2L519.695 193.907C521.755 191.848 523.477 190.167 524.844 188.901C526.231 187.618 527.199 186.814 527.768 186.458L527.238 185.61ZM518.988 193.2L518.223 192.556C515.5 195.79 514.028 198.982 514.028 202.11H515.028H516.028C516.028 199.628 517.197 196.88 519.753 193.844L518.988 193.2ZM515.028 202.11H514.028C514.028 207.97 516.146 213.031 520.02 216.621C523.889 220.206 529.428 222.25 536.148 222.25V221.25V220.25C529.833 220.25 524.812 218.334 521.38 215.154C517.953 211.979 516.028 207.47 516.028 202.11H515.028Z" fill="black" mask="url(#path-3-outside-2_577_2197)"/>
</g>
<defs>
<clipPath id="clip0_577_2197">
<rect width="589" height="241" fill="white"/>
</clipPath>
</defs>
</svg>
