<svg width="464" height="289" viewBox="0 0 464 289" fill="none" xmlns="http://www.w3.org/2000/svg">
<g clip-path="url(#clip0_518_2517)">
<mask id="path-1-outside-1_518_2517" maskUnits="userSpaceOnUse" x="5" y="5.99999" width="455" height="277" fill="black">
<rect fill="white" x="5" y="5.99999" width="455" height="277"/>
<path d="M157 25.8C127 25.8 92.8 42 67.6 61.2C41.8 81.6 22.6 112.8 19.6 137.4C17.2 157.8 23.8 174.6 45.4 175.8C68.2 177 92.2 157.2 109 139.2C122.2 124.8 134.2 103.2 135.4 90.6C136 84.6 135.4 79.8 132.4 75C131.2 72.6 130 72 130.6 70.8C131.2 69.6 133.6 70.8 135.4 72.6C137.2 74.4 143.2 81.6 142 95.4C141.4 111.6 130.6 130.8 117.4 145.8C101.8 162.6 71.2 183 44.2 181.2C17.2 179.4 4 162 7 136.2C10 112.2 30.4 81 62.2 57C91 35.4 127 20.4 158.2 20.4C192.4 20.4 230.8 33.6 224.8 83.4C221.2 120 157 200.4 117.4 240V240.6C136.6 227.4 156.4 212.4 185.8 190.8C211 172.8 241 150.6 260.2 135.6C267.4 115.2 275.8 93.6 286.6 76.2C301 53.4 316.6 42 329.2 42C340 42 347.8 51.6 343 66C335.2 90.6 304.6 111.6 288.4 127.2C279.4 164.4 268 214.8 248.8 240.6V241.2C269.2 221.4 320.8 178.2 356.8 145.8C414.4 93.6 435.4 54.6 439 33.6C440.2 25.2 439.6 17.4 435.4 13.2C431.2 9.59998 427 10.8 427.6 8.99997C428.2 7.79997 431.8 7.19998 433.6 7.19998C451 7.19998 459.4 21 458.2 36.6C455.2 61.2 429.4 99 362.8 153.6C315.4 192.6 268.6 231.6 229.6 268.8C226 272.4 220 277.8 212.8 277.8C206.8 277.8 206.8 272.4 210.4 267.6C230.8 240 243.4 180.6 257.2 146.4V145.8C245.8 155.4 209.2 183 179.8 204.6C154.6 222.6 101.2 261.6 79 276C75.4 278.4 70.6 282 66.4 282C59.2 282 57.4 277.2 62.8 270.6C85.6 246.6 112.6 216.6 139 179.4C165.4 142.2 188.8 102 193.6 71.4C198.4 40.2 181.6 25.8 157 25.8ZM290.2 116.4C301.6 105.6 328 86.4 335.8 66.6C340 55.2 335.8 48 328 48C319 48 310 61.2 306.4 69.6C299.8 83.4 293.8 103.2 290.2 116.4Z"/>
</mask>
<path d="M157 25.8C127 25.8 92.8 42 67.6 61.2C41.8 81.6 22.6 112.8 19.6 137.4C17.2 157.8 23.8 174.6 45.4 175.8C68.2 177 92.2 157.2 109 139.2C122.2 124.8 134.2 103.2 135.4 90.6C136 84.6 135.4 79.8 132.4 75C131.2 72.6 130 72 130.6 70.8C131.2 69.6 133.6 70.8 135.4 72.6C137.2 74.4 143.2 81.6 142 95.4C141.4 111.6 130.6 130.8 117.4 145.8C101.8 162.6 71.2 183 44.2 181.2C17.2 179.4 4 162 7 136.2C10 112.2 30.4 81 62.2 57C91 35.4 127 20.4 158.2 20.4C192.4 20.4 230.8 33.6 224.8 83.4C221.2 120 157 200.4 117.4 240V240.6C136.6 227.4 156.4 212.4 185.8 190.8C211 172.8 241 150.6 260.2 135.6C267.4 115.2 275.8 93.6 286.6 76.2C301 53.4 316.6 42 329.2 42C340 42 347.8 51.6 343 66C335.2 90.6 304.6 111.6 288.4 127.2C279.4 164.4 268 214.8 248.8 240.6V241.2C269.2 221.4 320.8 178.2 356.8 145.8C414.4 93.6 435.4 54.6 439 33.6C440.2 25.2 439.6 17.4 435.4 13.2C431.2 9.59998 427 10.8 427.6 8.99997C428.2 7.79997 431.8 7.19998 433.6 7.19998C451 7.19998 459.4 21 458.2 36.6C455.2 61.2 429.4 99 362.8 153.6C315.4 192.6 268.6 231.6 229.6 268.8C226 272.4 220 277.8 212.8 277.8C206.8 277.8 206.8 272.4 210.4 267.6C230.8 240 243.4 180.6 257.2 146.4V145.8C245.8 155.4 209.2 183 179.8 204.6C154.6 222.6 101.2 261.6 79 276C75.4 278.4 70.6 282 66.4 282C59.2 282 57.4 277.2 62.8 270.6C85.6 246.6 112.6 216.6 139 179.4C165.4 142.2 188.8 102 193.6 71.4C198.4 40.2 181.6 25.8 157 25.8ZM290.2 116.4C301.6 105.6 328 86.4 335.8 66.6C340 55.2 335.8 48 328 48C319 48 310 61.2 306.4 69.6C299.8 83.4 293.8 103.2 290.2 116.4Z" fill="#B4C372"/>
<path d="M67.6 61.2L66.994 60.4045L66.9868 60.41L66.9798 60.4156L67.6 61.2ZM19.6 137.4L18.6073 137.279L18.6068 137.283L19.6 137.4ZM45.4 175.8L45.3445 176.798L45.3474 176.799L45.4 175.8ZM109 139.2L109.731 139.882L109.737 139.876L109 139.2ZM135.4 90.6L134.405 90.5005L134.405 90.5052L135.4 90.6ZM132.4 75L131.506 75.4472L131.527 75.4897L131.552 75.53L132.4 75ZM130.6 70.8L129.706 70.3528L129.706 70.3528L130.6 70.8ZM135.4 72.6L136.107 71.8929L136.107 71.8929L135.4 72.6ZM142 95.4L141.004 95.3134L141.002 95.3381L141.001 95.363L142 95.4ZM117.4 145.8L118.133 146.48L118.142 146.471L118.151 146.461L117.4 145.8ZM44.2 181.2L44.2665 180.202L44.2665 180.202L44.2 181.2ZM7 136.2L6.00769 136.076L6.00669 136.084L7 136.2ZM62.2 57L61.6 56.2L61.5976 56.2018L62.2 57ZM224.8 83.4L223.807 83.2804L223.806 83.2912L223.805 83.3021L224.8 83.4ZM117.4 240L116.693 239.293L116.4 239.586V240H117.4ZM117.4 240.6H116.4V242.501L117.967 241.424L117.4 240.6ZM185.8 190.8L185.219 189.986L185.208 189.994L185.8 190.8ZM260.2 135.6L260.816 136.388L261.046 136.208L261.143 135.933L260.2 135.6ZM286.6 76.2L285.754 75.666L285.75 75.6726L286.6 76.2ZM343 66L342.051 65.6837L342.049 65.6907L342.047 65.6977L343 66ZM288.4 127.2L287.706 126.48L287.497 126.682L287.428 126.965L288.4 127.2ZM248.8 240.6L247.998 240.003L247.8 240.269V240.6H248.8ZM248.8 241.2H247.8V243.564L249.496 241.918L248.8 241.2ZM356.8 145.8L357.469 146.543L357.472 146.541L356.8 145.8ZM439 33.6L439.986 33.7689L439.988 33.7552L439.99 33.7414L439 33.6ZM435.4 13.2L436.107 12.4929L436.08 12.4657L436.051 12.4407L435.4 13.2ZM427.6 8.99997L426.706 8.55276L426.674 8.61633L426.651 8.68375L427.6 8.99997ZM458.2 36.6L459.193 36.721L459.195 36.6989L459.197 36.6767L458.2 36.6ZM362.8 153.6L362.166 152.827L362.165 152.828L362.8 153.6ZM229.6 268.8L228.91 268.076L228.901 268.085L228.893 268.093L229.6 268.8ZM210.4 267.6L211.2 268.2L211.204 268.194L210.4 267.6ZM257.2 146.4L258.127 146.774L258.2 146.594V146.4H257.2ZM257.2 145.8H258.2V143.651L256.556 145.035L257.2 145.8ZM179.8 204.6L180.381 205.414L180.392 205.406L179.8 204.6ZM79 276L78.4558 275.161L78.4453 275.168L79 276ZM62.8 270.6L62.075 269.911L62.0495 269.938L62.026 269.967L62.8 270.6ZM139 179.4L139.816 179.979L139.816 179.979L139 179.4ZM193.6 71.4L194.588 71.5549L194.588 71.552L193.6 71.4ZM290.2 116.4L289.235 116.137L288.296 119.581L290.888 117.126L290.2 116.4ZM335.8 66.6L336.73 66.9665L336.734 66.9561L336.738 66.9457L335.8 66.6ZM306.4 69.6L307.302 70.0314L307.311 70.0128L307.319 69.9939L306.4 69.6ZM157 25.8V24.8C126.693 24.8 92.2818 41.1376 66.994 60.4045L67.6 61.2L68.206 61.9954C93.3182 42.8623 127.307 26.8 157 26.8V25.8ZM67.6 61.2L66.9798 60.4156C41.0299 80.934 21.6471 112.353 18.6074 137.279L19.6 137.4L20.5926 137.521C23.5529 113.247 42.5701 82.2659 68.2202 61.9844L67.6 61.2ZM19.6 137.4L18.6068 137.283C17.3939 147.593 18.4332 157.143 22.6376 164.306C26.8793 171.533 34.2562 176.182 45.3445 176.798L45.4 175.8L45.4555 174.802C34.9438 174.218 28.2207 169.867 24.3624 163.294C20.4668 156.657 19.4061 147.607 20.5932 137.517L19.6 137.4ZM45.4 175.8L45.3474 176.799C57.0463 177.414 68.9588 172.644 79.9913 165.541C91.0365 158.429 101.3 148.915 109.731 139.882L109 139.2L108.269 138.518C99.8999 147.485 89.7634 156.87 78.9087 163.859C68.0412 170.856 56.5537 175.386 45.4526 174.801L45.4 175.8ZM109 139.2L109.737 139.876C116.397 132.61 122.743 123.543 127.577 114.705C132.398 105.892 135.776 97.1985 136.395 90.6948L135.4 90.6L134.405 90.5052C133.824 96.6014 130.602 105.008 125.823 113.745C121.057 122.457 114.803 131.39 108.263 138.524L109 139.2ZM135.4 90.6L136.395 90.6995C137.009 84.5621 136.403 79.5179 133.248 74.47L132.4 75L131.552 75.53C134.397 80.082 134.991 84.6379 134.405 90.5005L135.4 90.6ZM132.4 75L133.294 74.5528C132.67 73.3034 131.976 72.4048 131.673 71.92C131.502 71.6471 131.456 71.5174 131.444 71.4492C131.439 71.424 131.429 71.379 131.494 71.2472L130.6 70.8L129.706 70.3528C129.471 70.8209 129.386 71.301 129.475 71.8008C129.557 72.2575 129.773 72.6529 129.977 72.98C130.424 73.6952 130.93 74.2965 131.506 75.4472L132.4 75ZM130.6 70.8L131.494 71.2472C131.495 71.247 131.493 71.2495 131.49 71.254C131.487 71.2586 131.483 71.2645 131.477 71.2713C131.464 71.2856 131.448 71.2987 131.432 71.3087C131.398 71.3294 131.389 71.3221 131.433 71.3184C131.543 71.3092 131.784 71.3391 132.165 71.4981C132.912 71.8091 133.856 72.4703 134.693 73.3071L135.4 72.6L136.107 71.8929C135.144 70.9297 133.988 70.0909 132.935 69.6519C132.416 69.4358 131.832 69.2782 131.267 69.3253C130.645 69.3772 130.038 69.688 129.706 70.3528L130.6 70.8ZM135.4 72.6L134.693 73.3071C136.337 74.951 142.172 81.8747 141.004 95.3134L142 95.4L142.996 95.4866C144.228 81.3252 138.063 73.8489 136.107 71.8929L135.4 72.6ZM142 95.4L141.001 95.363C140.413 111.22 129.793 130.203 116.649 145.139L117.4 145.8L118.151 146.461C131.407 131.397 142.387 111.98 142.999 95.437L142 95.4ZM117.4 145.8L116.667 145.12C108.941 153.44 97.4784 162.672 84.6015 169.594C71.714 176.522 57.507 181.085 44.2665 180.202L44.2 181.2L44.1335 182.198C57.893 183.115 72.486 178.378 85.5485 171.356C98.6216 164.328 110.259 154.96 118.133 146.48L117.4 145.8ZM44.2 181.2L44.2665 180.202C30.9698 179.316 21.2105 174.602 15.1279 167.072C9.04096 159.535 6.51513 149.028 7.99331 136.315L7 136.2L6.00669 136.084C4.48487 149.172 7.05904 160.265 13.5721 168.328C20.0895 176.398 30.4302 181.284 44.1335 182.198L44.2 181.2ZM7 136.2L7.99228 136.324C10.9463 112.692 31.1223 81.7076 62.8024 57.7982L62.2 57L61.5976 56.2018C29.6777 80.2923 9.05367 111.708 6.00772 136.076L7 136.2ZM62.2 57L62.8 57.8C91.4885 36.2836 127.282 21.4 158.2 21.4V20.4V19.4C126.718 19.4 90.5115 34.5163 61.6 56.2L62.2 57ZM158.2 20.4V21.4C175.208 21.4 193.11 24.6885 205.988 34.0343C218.78 43.3182 226.77 58.6908 223.807 83.2804L224.8 83.4L225.793 83.5196C228.83 58.3092 220.62 42.1817 207.162 32.4156C193.79 22.7115 175.392 19.4 158.2 19.4V20.4ZM224.8 83.4L223.805 83.3021C222.925 92.2472 218.318 103.99 211.188 117.267C204.072 130.518 194.5 145.197 183.79 159.989C162.37 189.572 136.455 219.531 116.693 239.293L117.4 240L118.107 240.707C137.945 220.869 163.93 190.828 185.41 161.161C196.15 146.328 205.778 131.569 212.95 118.214C220.107 104.885 224.875 92.8528 225.795 83.4979L224.8 83.4ZM117.4 240H116.4V240.6H117.4H118.4V240H117.4ZM117.4 240.6L117.967 241.424C137.184 228.212 157.009 213.193 186.392 191.606L185.8 190.8L185.208 189.994C155.791 211.606 136.016 226.588 116.833 239.776L117.4 240.6ZM185.8 190.8L186.381 191.614C211.588 173.609 241.601 151.4 260.816 136.388L260.2 135.6L259.584 134.812C240.399 149.8 210.412 171.991 185.219 189.986L185.8 190.8ZM260.2 135.6L261.143 135.933C268.341 115.538 276.711 94.0277 287.45 76.7273L286.6 76.2L285.75 75.6726C274.889 93.1722 266.459 114.862 259.257 135.267L260.2 135.6ZM286.6 76.2L287.445 76.734C294.602 65.4022 302.03 56.9482 309.192 51.3371C316.361 45.7199 323.199 43 329.2 43V42V41C322.601 41 315.339 43.98 307.958 49.7628C300.57 55.5517 292.998 64.1977 285.755 75.666L286.6 76.2ZM329.2 42V43C334.294 43 338.611 45.255 341.109 49.1407C343.609 53.0294 344.379 58.7003 342.051 65.6837L343 66L343.949 66.3162C346.421 58.8997 345.691 52.5706 342.791 48.0592C339.889 43.545 334.906 41 329.2 41V42ZM343 66L342.047 65.6977C338.226 77.7472 328.783 89.0019 318.156 99.2553C312.853 104.371 307.285 109.211 302.015 113.759C296.756 118.297 291.781 122.556 287.706 126.48L288.4 127.2L289.094 127.92C293.119 124.044 298.044 119.828 303.322 115.273C308.59 110.726 314.197 105.854 319.544 100.695C330.217 90.398 339.974 78.8528 343.953 66.3022L343 66ZM288.4 127.2L287.428 126.965C282.925 145.579 277.833 167.441 271.47 187.878C265.101 208.333 257.491 227.246 247.998 240.003L248.8 240.6L249.602 241.197C259.309 228.154 266.999 208.967 273.38 188.472C279.767 167.959 284.875 146.021 289.372 127.435L288.4 127.2ZM248.8 240.6H247.8V241.2H248.8H249.8V240.6H248.8ZM248.8 241.2L249.496 241.918C269.886 222.127 321.407 178.999 357.469 146.543L356.8 145.8L356.131 145.057C320.193 177.401 268.514 220.673 248.104 240.482L248.8 241.2ZM356.8 145.8L357.472 146.541C415.122 94.2951 436.328 55.1048 439.986 33.7689L439 33.6L438.014 33.431C434.472 54.0951 413.678 92.9048 356.128 145.059L356.8 145.8ZM439 33.6L439.99 33.7414C440.598 29.4844 440.758 25.3306 440.214 21.6777C439.671 18.0293 438.412 14.7974 436.107 12.4929L435.4 13.2L434.693 13.9071C436.588 15.8025 437.729 18.5707 438.236 21.9723C438.742 25.3693 438.602 29.3155 438.01 33.4586L439 33.6ZM435.4 13.2L436.051 12.4407C433.772 10.4876 431.489 9.84147 429.943 9.45484C429.548 9.35628 429.239 9.28343 428.965 9.20728C428.689 9.13037 428.529 9.07096 428.44 9.02396C428.351 8.9772 428.44 8.99917 428.503 9.14074C428.574 9.29802 428.522 9.39527 428.549 9.31619L427.6 8.99997L426.651 8.68375C426.528 9.05468 426.476 9.50818 426.678 9.95843C426.873 10.393 427.224 10.6446 427.51 10.7947C427.796 10.9446 428.124 11.0493 428.429 11.1341C428.736 11.2197 429.102 11.3062 429.457 11.3951C430.911 11.7585 432.828 12.3124 434.749 13.9592L435.4 13.2ZM427.6 8.99997L428.494 9.44718C428.489 9.45812 428.505 9.42187 428.592 9.35002C428.677 9.27969 428.806 9.19647 428.985 9.1069C429.345 8.92652 429.831 8.76039 430.393 8.62012C431.516 8.33934 432.784 8.19998 433.6 8.19998V7.19998V6.19998C432.616 6.19998 431.184 6.36061 429.907 6.67983C429.269 6.83955 428.63 7.04842 428.09 7.31804C427.585 7.5705 427.004 7.95568 426.706 8.55276L427.6 8.99997ZM433.6 7.19998V8.19998C442.008 8.19998 448.156 11.5201 452.08 16.657C456.025 21.821 457.788 28.912 457.203 36.5233L458.2 36.6L459.197 36.6767C459.812 28.688 457.975 21.0789 453.67 15.4429C449.344 9.77985 442.592 6.19998 433.6 6.19998V7.19998ZM458.2 36.6L457.207 36.4789C455.739 48.5182 448.663 63.9464 433.563 83.2335C418.473 102.506 395.433 125.554 362.166 152.827L362.8 153.6L363.434 154.373C396.767 127.046 419.927 103.894 435.137 84.4664C450.337 65.0535 457.661 49.2817 459.193 36.721L458.2 36.6ZM362.8 153.6L362.165 152.828C314.767 191.826 267.94 230.848 228.91 268.076L229.6 268.8L230.29 269.524C269.26 232.352 316.033 193.374 363.435 154.372L362.8 153.6ZM229.6 268.8L228.893 268.093C227.108 269.878 224.77 272.065 222.016 273.804C219.262 275.544 216.147 276.8 212.8 276.8V277.8V278.8C216.653 278.8 220.138 277.356 223.084 275.495C226.03 273.635 228.492 271.322 230.307 269.507L229.6 268.8ZM212.8 277.8V276.8C211.442 276.8 210.547 276.494 209.981 276.077C209.433 275.672 209.103 275.096 208.988 274.348C208.747 272.779 209.474 270.501 211.2 268.2L210.4 267.6L209.6 267C207.726 269.499 206.653 272.321 207.012 274.652C207.197 275.854 207.767 276.928 208.794 277.686C209.803 278.431 211.158 278.8 212.8 278.8V277.8ZM210.4 267.6L211.204 268.194C221.513 254.247 229.805 232.348 237.225 209.787C244.672 187.145 251.243 163.835 258.127 146.774L257.2 146.4L256.273 146.026C249.357 163.165 242.728 186.655 235.325 209.163C227.895 231.752 219.687 253.353 209.596 267.006L210.4 267.6ZM257.2 146.4H258.2V145.8H257.2H256.2V146.4H257.2ZM257.2 145.8L256.556 145.035C245.186 154.609 208.615 182.189 179.208 203.794L179.8 204.6L180.392 205.406C209.785 183.811 246.414 156.19 257.844 146.565L257.2 145.8ZM179.8 204.6L179.219 203.786C153.992 221.805 100.631 260.777 78.4558 275.161L79 276L79.5442 276.839C101.769 262.423 155.208 223.395 180.381 205.414L179.8 204.6ZM79 276L78.4453 275.168C76.608 276.393 74.5682 277.851 72.4419 279.024C70.3077 280.202 68.2407 281 66.4 281V282V283C68.7594 283 71.1923 281.998 73.4081 280.776C75.6318 279.549 77.792 278.007 79.5547 276.832L79 276ZM66.4 282V281C62.9445 281 61.29 279.858 60.8237 278.459C60.32 276.948 60.9251 274.471 63.574 271.233L62.8 270.6L62.026 269.967C59.2749 273.329 58.08 276.552 58.9263 279.091C59.81 281.742 62.6555 283 66.4 283V282ZM62.8 270.6L63.525 271.289C86.3404 247.273 113.376 217.234 139.816 179.979L139 179.4L138.184 178.821C111.824 215.966 84.8596 245.927 62.075 269.911L62.8 270.6ZM139 179.4L139.816 179.979C153.031 161.357 165.507 141.968 175.285 123.391C185.056 104.826 192.163 87.0129 194.588 71.5549L193.6 71.4L192.612 71.245C190.237 86.3871 183.244 103.974 173.515 122.459C163.793 140.932 151.369 160.243 138.184 178.821L139 179.4ZM193.6 71.4L194.588 71.552C197.018 55.762 194.006 44.0264 187.072 36.2351C180.147 28.4544 169.48 24.8 157 24.8V25.8V26.8C169.12 26.8 179.153 30.3456 185.578 37.5648C191.994 44.7736 194.982 55.838 192.612 71.2479L193.6 71.4ZM290.2 116.4L290.888 117.126C293.716 114.446 297.479 111.243 301.691 107.604C305.893 103.974 310.522 99.9285 315.042 95.597C324.057 86.9575 332.746 77.0813 336.73 66.9665L335.8 66.6L334.87 66.2335C331.054 75.9186 322.643 85.5425 313.658 94.153C309.178 98.4464 304.582 102.463 300.384 106.09C296.196 109.707 292.384 112.954 289.512 115.674L290.2 116.4ZM335.8 66.6L336.738 66.9457C338.89 61.1051 338.96 56.1579 337.307 52.6032C335.624 48.9859 332.243 47 328 47V48V49C331.557 49 334.176 50.614 335.493 53.4467C336.84 56.342 336.91 60.6949 334.862 66.2543L335.8 66.6ZM328 48V47C323.041 47 318.285 50.5992 314.424 54.9896C310.52 59.4296 307.317 64.9227 305.481 69.2061L306.4 69.6L307.319 69.9939C309.083 65.8772 312.18 60.5704 315.926 56.3103C319.715 52.0007 323.959 49 328 49V48ZM306.4 69.6L305.498 69.1685C298.856 83.0563 292.837 102.932 289.235 116.137L290.2 116.4L291.165 116.663C294.763 103.468 300.744 83.7437 307.302 70.0314L306.4 69.6Z" fill="black" mask="url(#path-1-outside-1_518_2517)"/>
</g>
<defs>
<clipPath id="clip0_518_2517">
<rect width="464" height="289" fill="white"/>
</clipPath>
</defs>
</svg>
