<svg width="479" height="486" viewBox="0 0 479 486" fill="none" xmlns="http://www.w3.org/2000/svg">
<g clip-path="url(#clip0_407_2176)">
<mask id="path-1-outside-1_407_2176" maskUnits="userSpaceOnUse" x="1" y="4.99999" width="463" height="475" fill="black">
<rect fill="white" x="1" y="4.99999" width="463" height="475"/>
<path d="M294.6 171.2C256.8 210.8 187.2 265.4 148.2 265.4C129.6 265.4 119.4 256.4 121.8 237.8C125.4 212.6 151.8 180.8 198 129.2C235.8 86 258 59 264.6 37.4C269.4 19.4 253.8 13.4 238.8 13.4C208.2 13.4 168 32.6 134.4 65.6C109.8 89.6 86.4 119.6 86.4 143.6C86.4 158 93.6 168.2 108 168.2C117.6 168.2 125.4 165.2 129.6 162.2C134.4 159.2 136.8 155 138.6 156.2C140.4 157.4 135.6 162.8 131.4 165.8C125.4 170 117.6 173.6 106.8 173.6C90 173.6 78 162.2 76.8 144.2C75.6 117.8 93 81.8 123 54.8C159.6 21.8 209.4 7.99998 238.8 7.99998C267 7.99998 288 18.8 287.4 42.2C286.8 68.6 259.2 102.2 229.2 136.4C182.4 188.6 156 219.8 153 239.6C151.2 249.2 155.4 253.4 161.4 254C175.8 255.8 205.2 237.8 227.4 221.6C264 194.6 292.2 165.8 315.6 137.6C359.4 84.8 379.2 62 409.8 30.8C424.2 17 441.6 4.99998 454.2 6.19998C466.2 7.39997 465 21.2 456 33.2C444.6 47.6 428.4 61.4 416.4 71C398.4 85.4 388.2 93.2 367.8 113C345.6 143 311.4 189.8 289.8 219.8C266.4 252.8 251.4 275 237.6 293.6C298.8 291.8 333.6 321.2 326.4 366.2C325.2 372.8 322.2 378.8 319.8 378.2C318.6 377.6 320.4 375.8 321.6 366.8C326.4 324.2 294 296.6 234 299.6C216 325.4 200.4 345.2 169.8 381.2C122.4 436.4 61.8 478.4 28.2 478.4C17.4 478.4 1.2 473.6 3 453.2C6 418.4 60.6 369.8 91.8 348.2C130.8 322.4 174.6 304.4 207 297.8C237.6 254 276 197.6 294.6 171.2ZM381.6 93.2C392.4 84.2 402 76.4 412.2 68C427.8 55.4 441.6 42.2 447 35.6C457.8 22.4 459.6 14 454.8 12.2C448.2 9.79997 436.8 21.2 426 35C411 53 397.2 72.2 381.6 93.2ZM203.4 304.4C172.8 311 133.2 328.4 96.6 353.6C66 374.6 20.4 425 20.4 454.4C20.4 465.2 27 469.4 33 470C43.2 471.2 55.2 467 70.2 458C90.6 445.4 121.8 414.2 147 380.6C161.4 361.4 182.4 332.6 203.4 304.4Z"/>
</mask>
<path d="M294.6 171.2C256.8 210.8 187.2 265.4 148.2 265.4C129.6 265.4 119.4 256.4 121.8 237.8C125.4 212.6 151.8 180.8 198 129.2C235.8 86 258 59 264.6 37.4C269.4 19.4 253.8 13.4 238.8 13.4C208.2 13.4 168 32.6 134.4 65.6C109.8 89.6 86.4 119.6 86.4 143.6C86.4 158 93.6 168.2 108 168.2C117.6 168.2 125.4 165.2 129.6 162.2C134.4 159.2 136.8 155 138.6 156.2C140.4 157.4 135.6 162.8 131.4 165.8C125.4 170 117.6 173.6 106.8 173.6C90 173.6 78 162.2 76.8 144.2C75.6 117.8 93 81.8 123 54.8C159.6 21.8 209.4 7.99998 238.8 7.99998C267 7.99998 288 18.8 287.4 42.2C286.8 68.6 259.2 102.2 229.2 136.4C182.4 188.6 156 219.8 153 239.6C151.2 249.2 155.4 253.4 161.4 254C175.8 255.8 205.2 237.8 227.4 221.6C264 194.6 292.2 165.8 315.6 137.6C359.4 84.8 379.2 62 409.8 30.8C424.2 17 441.6 4.99998 454.2 6.19998C466.2 7.39997 465 21.2 456 33.2C444.6 47.6 428.4 61.4 416.4 71C398.4 85.4 388.2 93.2 367.8 113C345.6 143 311.4 189.8 289.8 219.8C266.4 252.8 251.4 275 237.6 293.6C298.8 291.8 333.6 321.2 326.4 366.2C325.2 372.8 322.2 378.8 319.8 378.2C318.6 377.6 320.4 375.8 321.6 366.8C326.4 324.2 294 296.6 234 299.6C216 325.4 200.4 345.2 169.8 381.2C122.4 436.4 61.8 478.4 28.2 478.4C17.4 478.4 1.2 473.6 3 453.2C6 418.4 60.6 369.8 91.8 348.2C130.8 322.4 174.6 304.4 207 297.8C237.6 254 276 197.6 294.6 171.2ZM381.6 93.2C392.4 84.2 402 76.4 412.2 68C427.8 55.4 441.6 42.2 447 35.6C457.8 22.4 459.6 14 454.8 12.2C448.2 9.79997 436.8 21.2 426 35C411 53 397.2 72.2 381.6 93.2ZM203.4 304.4C172.8 311 133.2 328.4 96.6 353.6C66 374.6 20.4 425 20.4 454.4C20.4 465.2 27 469.4 33 470C43.2 471.2 55.2 467 70.2 458C90.6 445.4 121.8 414.2 147 380.6C161.4 361.4 182.4 332.6 203.4 304.4Z" fill="#B5C572"/>
<path d="M294.6 171.2L295.417 171.776L293.877 170.51L294.6 171.2ZM121.8 237.8L120.81 237.659L120.808 237.672L121.8 237.8ZM198 129.2L198.745 129.867L198.753 129.858L198 129.2ZM264.6 37.4L265.556 37.6922L265.562 37.675L265.566 37.6576L264.6 37.4ZM134.4 65.6L135.098 66.3158L135.101 66.3134L134.4 65.6ZM129.6 162.2L129.07 161.352L129.044 161.368L129.019 161.386L129.6 162.2ZM138.6 156.2L139.155 155.368L139.155 155.368L138.6 156.2ZM131.4 165.8L131.973 166.619L131.981 166.614L131.4 165.8ZM76.8 144.2L75.801 144.245L75.8015 144.256L75.8022 144.266L76.8 144.2ZM123 54.8L123.669 55.5433L123.67 55.5427L123 54.8ZM287.4 42.2L286.4 42.1743L286.4 42.1773L287.4 42.2ZM229.2 136.4L229.945 137.068L229.952 137.059L229.2 136.4ZM153 239.6L153.983 239.784L153.986 239.767L153.989 239.75L153 239.6ZM161.4 254L161.524 253.008L161.512 253.006L161.5 253.005L161.4 254ZM227.4 221.6L227.989 222.408L227.994 222.405L227.4 221.6ZM315.6 137.6L316.37 138.239L316.37 138.238L315.6 137.6ZM409.8 30.8L409.108 30.078L409.097 30.0887L409.086 30.0998L409.8 30.8ZM454.2 6.19998L454.3 5.20493L454.295 5.20449L454.2 6.19998ZM456 33.2L456.784 33.8207L456.792 33.8104L456.8 33.8L456 33.2ZM416.4 71L415.775 70.2191L415.775 70.2191L416.4 71ZM367.8 113L367.104 112.282L367.045 112.339L366.996 112.405L367.8 113ZM289.8 219.8L288.988 219.216L288.984 219.222L289.8 219.8ZM237.6 293.6L236.797 293.004L235.568 294.66L237.629 294.6L237.6 293.6ZM326.4 366.2L327.384 366.379L327.386 366.368L327.387 366.358L326.4 366.2ZM319.8 378.2L319.353 379.094L319.451 379.143L319.557 379.17L319.8 378.2ZM321.6 366.8L322.591 366.932L322.593 366.922L322.594 366.912L321.6 366.8ZM234 299.6L233.95 298.601L233.46 298.626L233.18 299.028L234 299.6ZM169.8 381.2L170.559 381.851L170.562 381.848L169.8 381.2ZM3 453.2L3.99613 453.288L3.9963 453.286L3 453.2ZM91.8 348.2L91.2483 347.366L91.2395 347.372L91.2308 347.378L91.8 348.2ZM207 297.8L207.2 298.78L207.591 298.7L207.82 298.373L207 297.8ZM381.6 93.2L380.797 92.6036L382.24 93.9682L381.6 93.2ZM412.2 68L411.572 67.222L411.564 67.228L412.2 68ZM454.8 12.2L455.151 11.2636L455.142 11.2602L454.8 12.2ZM426 35L426.768 35.6402L426.778 35.6284L426.788 35.6163L426 35ZM203.4 304.4L204.202 304.997L205.793 302.861L203.189 303.422L203.4 304.4ZM96.6 353.6L97.1658 354.424L97.1671 354.424L96.6 353.6ZM33 470L33.1168 469.007L33.1082 469.006L33.0995 469.005L33 470ZM70.2 458L70.7145 458.858L70.7255 458.851L70.2 458ZM147 380.6L146.2 380L146.2 380L147 380.6ZM294.6 171.2L293.877 170.51C275.021 190.263 248.223 213.768 221.283 232.326C207.813 241.605 194.328 249.634 181.798 255.34C169.252 261.053 157.742 264.4 148.2 264.4V265.4V266.4C158.158 266.4 169.973 262.922 182.627 257.16C195.297 251.391 208.887 243.295 222.417 233.973C249.477 215.332 276.379 191.737 295.323 171.89L294.6 171.2ZM148.2 265.4V264.4C139.035 264.4 132.144 262.18 127.832 257.868C123.546 253.582 121.617 247.033 122.792 237.928L121.8 237.8L120.808 237.672C119.583 247.167 121.554 254.418 126.418 259.282C131.256 264.12 138.765 266.4 148.2 266.4V265.4ZM121.8 237.8L122.79 237.941C124.554 225.596 131.928 211.512 144.732 193.99C157.524 176.486 175.641 155.671 198.745 129.867L198 129.2L197.255 128.533C174.159 154.329 155.976 175.214 143.118 192.81C130.272 210.388 122.646 224.804 120.81 237.659L121.8 237.8ZM198 129.2L198.753 129.858C217.651 108.261 232.675 90.6837 243.801 75.7987C254.92 60.9235 262.205 48.6614 265.556 37.6922L264.6 37.4L263.644 37.1078C260.395 47.7385 253.28 59.7764 242.199 74.6013C231.125 89.4163 216.149 106.939 197.247 128.541L198 129.2ZM264.6 37.4L265.566 37.6576C266.805 33.0136 266.748 29.06 265.653 25.7426C264.555 22.4203 262.443 19.8191 259.712 17.8402C254.289 13.911 246.391 12.4 238.8 12.4V13.4V14.4C246.209 14.4 253.611 15.889 258.538 19.4597C260.982 21.2309 262.807 23.5046 263.754 26.3699C264.702 29.2399 264.795 32.7864 263.634 37.1423L264.6 37.4ZM238.8 13.4V12.4C207.845 12.4 167.408 31.7801 133.699 64.8865L134.4 65.6L135.101 66.3134C168.592 33.4199 208.555 14.4 238.8 14.4V13.4ZM134.4 65.6L133.702 64.8842C121.372 76.9133 109.319 90.4686 100.341 104.048C91.3794 117.604 85.4 131.305 85.4 143.6H86.4H87.4C87.4 131.895 93.1206 118.596 102.009 105.151C110.881 91.7313 122.828 78.2866 135.098 66.3158L134.4 65.6ZM86.4 143.6H85.4C85.4 150.953 87.2373 157.355 91.0296 161.938C94.8445 166.547 100.543 169.2 108 169.2V168.2V167.2C101.057 167.2 95.9555 164.753 92.5704 160.662C89.1627 156.545 87.4 150.647 87.4 143.6H86.4ZM108 168.2V169.2C117.79 169.2 125.797 166.145 130.181 163.014L129.6 162.2L129.019 161.386C125.003 164.255 117.41 167.2 108 167.2V168.2ZM129.6 162.2L130.13 163.048C132.624 161.489 134.514 159.603 135.892 158.37C136.612 157.726 137.137 157.31 137.55 157.107C137.916 156.927 137.997 157 138.045 157.032L138.6 156.2L139.155 155.368C138.303 154.8 137.409 154.948 136.668 155.312C135.976 155.652 135.263 156.249 134.558 156.88C133.086 158.197 131.376 159.911 129.07 161.352L129.6 162.2ZM138.6 156.2L138.045 157.032C138.005 157.005 137.986 156.948 137.987 156.955C137.993 157.005 137.989 157.157 137.885 157.443C137.678 158.011 137.196 158.792 136.469 159.7C135.032 161.497 132.851 163.535 130.819 164.986L131.4 165.8L131.981 166.614C134.149 165.065 136.468 162.903 138.031 160.95C138.804 159.983 139.447 159.001 139.765 158.126C139.924 157.69 140.032 157.199 139.972 156.713C139.908 156.183 139.645 155.695 139.155 155.368L138.6 156.2ZM131.4 165.8L130.827 164.981C124.955 169.091 117.351 172.6 106.8 172.6V173.6V174.6C117.849 174.6 125.845 170.909 131.973 166.619L131.4 165.8ZM106.8 173.6V172.6C98.6338 172.6 91.6921 169.834 86.6468 164.933C81.5991 160.029 78.3838 152.924 77.7978 144.133L76.8 144.2L75.8022 144.266C76.4162 153.476 79.8009 161.071 85.2532 166.367C90.7079 171.666 98.1662 174.6 106.8 174.6V173.6ZM76.8 144.2L77.799 144.155C76.6171 118.153 93.8052 82.4206 123.669 55.5433L123 54.8L122.331 54.0567C92.1948 81.1793 74.5829 117.447 75.801 144.245L76.8 144.2ZM123 54.8L123.67 55.5427C160.069 22.7233 209.624 8.99998 238.8 8.99998V7.99998V6.99998C209.176 6.99998 159.131 20.8766 122.33 54.0573L123 54.8ZM238.8 7.99998V8.99998C252.797 8.99998 264.88 11.6841 273.357 17.1647C281.777 22.6087 286.691 30.8375 286.4 42.1743L287.4 42.2L288.4 42.2256C288.709 30.1625 283.423 21.2912 274.443 15.4852C265.52 9.7159 253.003 6.99998 238.8 6.99998V7.99998ZM287.4 42.2L286.4 42.1773C286.107 55.0766 279.198 69.8745 268.495 85.8176C257.81 101.733 243.449 118.639 228.448 135.741L229.2 136.4L229.952 137.059C244.951 119.961 259.39 102.967 270.155 86.9324C280.902 70.9255 288.093 55.7233 288.4 42.2227L287.4 42.2ZM229.2 136.4L228.455 135.732C205.059 161.828 186.733 182.707 173.88 199.543C161.06 216.337 153.554 229.27 152.011 239.45L153 239.6L153.989 239.75C155.446 230.13 162.64 217.563 175.47 200.757C188.267 183.993 206.541 163.172 229.945 137.068L229.2 136.4ZM153 239.6L152.017 239.416C151.089 244.364 151.671 248.114 153.447 250.736C155.234 253.373 158.096 254.675 161.3 254.995L161.4 254L161.5 253.005C158.704 252.725 156.466 251.627 155.103 249.614C153.729 247.586 153.111 244.436 153.983 239.784L153 239.6ZM161.4 254L161.276 254.992C165.093 255.469 169.798 254.63 174.978 252.925C180.178 251.214 185.951 248.599 191.942 245.434C203.925 239.103 216.868 230.523 227.989 222.408L227.4 221.6L226.811 220.792C215.732 228.877 202.875 237.397 191.008 243.666C185.074 246.801 179.409 249.361 174.353 251.025C169.277 252.695 164.907 253.431 161.524 253.008L161.4 254ZM227.4 221.6L227.994 222.405C264.672 195.347 292.929 166.487 316.37 138.239L315.6 137.6L314.83 136.961C291.471 165.113 263.328 193.853 226.806 220.795L227.4 221.6ZM315.6 137.6L316.37 138.238C360.164 85.4448 379.943 62.6702 410.514 31.5002L409.8 30.8L409.086 30.0998C378.457 61.3298 358.636 84.1551 314.83 136.962L315.6 137.6ZM409.8 30.8L410.492 31.522C417.657 24.6551 425.546 18.2591 433.185 13.7354C440.855 9.19282 448.127 6.62608 454.105 7.19548L454.2 6.19998L454.295 5.20449C447.673 4.57388 439.945 7.40714 432.165 12.0145C424.354 16.6409 416.343 23.1448 409.108 30.078L409.8 30.8ZM454.2 6.19998L454.1 7.19502C456.904 7.4754 458.822 8.47547 460.055 9.89355C461.295 11.3201 461.94 13.2829 461.975 15.6647C462.046 20.4623 459.626 26.699 455.2 32.6L456 33.2L456.8 33.8C461.374 27.7009 464.054 21.0376 463.975 15.6353C463.935 12.9171 463.193 10.4548 461.564 8.5814C459.928 6.69948 457.496 5.52456 454.299 5.20495L454.2 6.19998ZM456 33.2L455.216 32.5793C443.891 46.8843 427.768 60.625 415.775 70.2191L416.4 71L417.025 71.7808C429.032 62.1749 445.309 48.3157 456.784 33.8207L456 33.2ZM416.4 71L415.775 70.2191C397.775 84.619 387.542 92.4455 367.104 112.282L367.8 113L368.496 113.718C388.858 93.9544 399.025 86.1809 417.025 71.7808L416.4 71ZM367.8 113L366.996 112.405C344.794 142.408 310.591 189.212 288.988 219.216L289.8 219.8L290.612 220.384C312.209 190.388 346.406 143.592 368.604 113.595L367.8 113ZM289.8 219.8L288.984 219.222C265.565 252.248 250.59 274.414 236.797 293.004L237.6 293.6L238.403 294.196C252.21 275.586 267.235 253.352 290.616 220.378L289.8 219.8ZM237.6 293.6L237.629 294.6C268.086 293.704 291.815 300.579 307.014 313.121C322.166 325.626 328.962 343.86 325.413 366.042L326.4 366.2L327.387 366.358C331.038 343.54 324.034 324.574 308.286 311.579C292.585 298.621 268.314 291.696 237.571 292.6L237.6 293.6ZM326.4 366.2L325.416 366.021C324.83 369.243 323.809 372.29 322.668 374.429C322.094 375.505 321.52 376.294 321.001 376.767C320.467 377.254 320.166 377.261 320.043 377.23L319.8 378.2L319.557 379.17C320.634 379.439 321.608 378.921 322.349 378.245C323.105 377.556 323.806 376.544 324.432 375.371C325.691 373.01 326.77 369.757 327.384 366.379L326.4 366.2ZM319.8 378.2L320.247 377.306C320.24 377.302 320.319 377.343 320.375 377.453C320.42 377.543 320.4 377.583 320.405 377.479C320.417 377.222 320.526 376.789 320.765 375.913C321.219 374.246 321.983 371.497 322.591 366.932L321.6 366.8L320.609 366.668C320.017 371.103 319.281 373.754 318.835 375.387C318.624 376.161 318.433 376.853 318.407 377.384C318.394 377.673 318.42 378.023 318.593 378.361C318.775 378.719 319.06 378.948 319.353 379.094L319.8 378.2ZM321.6 366.8L322.594 366.912C325.028 345.309 318.021 327.403 302.72 315.315C287.463 303.262 264.09 297.094 233.95 298.601L234 299.6L234.05 300.599C263.91 299.106 286.737 305.238 301.48 316.885C316.179 328.497 322.972 345.691 320.606 366.688L321.6 366.8ZM234 299.6L233.18 299.028C215.205 324.792 199.627 344.565 169.038 380.552L169.8 381.2L170.562 381.848C201.173 345.835 216.795 326.008 234.82 300.172L234 299.6ZM169.8 381.2L169.041 380.548C145.392 408.089 118.456 432.329 93.258 449.676C80.6592 458.35 68.5107 465.289 57.4389 470.057C46.3553 474.829 36.41 477.4 28.2 477.4V478.4V479.4C36.79 479.4 47.0197 476.721 58.2299 471.893C69.4518 467.061 81.7158 460.05 94.392 451.324C119.744 433.871 146.808 409.511 170.559 381.851L169.8 381.2ZM28.2 478.4V477.4C22.9132 477.4 16.4012 476.22 11.4618 472.64C6.59587 469.114 3.12432 463.168 3.99613 453.288L3 453.2L2.00387 453.112C1.07568 463.632 4.80413 470.286 10.2882 474.26C15.6988 478.18 22.6868 479.4 28.2 479.4V478.4ZM3 453.2L3.9963 453.286C4.72725 444.807 8.61491 435.399 14.6046 425.674C20.5868 415.961 28.6215 406.002 37.556 396.432C55.4259 377.291 76.8199 359.787 92.3692 349.022L91.8 348.2L91.2308 347.378C75.5801 358.213 54.0741 375.809 36.094 395.068C27.1035 404.698 18.9757 414.763 12.9017 424.626C6.83509 434.475 2.77275 444.193 2.00369 453.114L3 453.2ZM91.8 348.2L92.3517 349.034C131.261 323.294 174.943 305.351 207.2 298.78L207 297.8L206.8 296.82C174.257 303.449 130.339 321.506 91.2483 347.366L91.8 348.2ZM207 297.8L207.82 298.373C238.441 254.543 276.81 198.187 295.417 171.776L294.6 171.2L293.783 170.624C275.19 197.013 236.759 253.457 206.18 297.227L207 297.8ZM381.6 93.2L382.24 93.9682C393.038 84.9703 402.629 77.1774 412.836 68.7719L412.2 68L411.564 67.228C401.371 75.6226 391.762 83.4296 380.96 92.4317L381.6 93.2ZM412.2 68L412.828 68.7779C428.448 56.1623 442.31 42.9119 447.774 36.2332L447 35.6L446.226 34.9667C440.89 41.488 427.152 54.6376 411.572 67.222L412.2 68ZM447 35.6L447.774 36.2332C453.205 29.5955 456.451 24.0749 457.707 19.914C458.335 17.8361 458.496 15.9979 458.09 14.4981C457.669 12.9406 456.653 11.8267 455.151 11.2636L454.8 12.2L454.449 13.1363C455.347 13.4732 455.906 14.0844 456.16 15.0206C456.429 16.0146 456.365 17.4388 455.793 19.336C454.649 23.125 451.595 28.4044 446.226 34.9667L447 35.6ZM454.8 12.2L455.142 11.2602C453.153 10.5368 450.918 10.8945 448.634 11.8931C446.342 12.8951 443.876 14.5949 441.327 16.7633C436.225 21.1036 430.626 27.4659 425.212 34.3837L426 35L426.788 35.6163C432.174 28.7341 437.675 22.4963 442.623 18.2866C445.099 16.1801 447.395 14.6173 449.435 13.7256C451.482 12.8304 453.147 12.6631 454.458 13.1398L454.8 12.2ZM426 35L425.232 34.3598C410.208 52.3878 396.384 71.6217 380.797 92.6036L381.6 93.2L382.403 93.7963C398.016 72.7782 411.792 53.6122 426.768 35.6402L426 35ZM203.4 304.4L203.189 303.422C172.437 310.055 132.718 327.518 96.0329 352.776L96.6 353.6L97.1671 354.424C133.682 329.282 173.163 311.945 203.611 305.377L203.4 304.4ZM96.6 353.6L96.0342 352.775C80.6412 363.339 61.5217 381.26 46.2462 400.223C38.606 409.707 31.9078 419.476 27.1149 428.74C22.3314 437.987 19.4 446.817 19.4 454.4H20.4H21.4C21.4 447.283 24.1686 438.788 28.8913 429.659C33.6047 420.549 40.219 410.893 47.8038 401.477C62.9783 382.64 81.9588 364.861 97.1658 354.424L96.6 353.6ZM20.4 454.4H19.4C19.4 460.015 21.1223 464.03 23.7321 466.721C26.3283 469.398 29.7155 470.677 32.9005 470.995L33 470L33.0995 469.005C30.2845 468.723 27.3717 467.601 25.1679 465.329C22.9777 463.07 21.4 459.585 21.4 454.4H20.4ZM33 470L32.8832 470.993C43.4282 472.234 55.6732 467.882 70.7145 458.857L70.2 458L69.6855 457.142C54.7268 466.118 42.9718 470.166 33.1168 469.007L33 470ZM70.2 458L70.7255 458.851C91.2801 446.155 122.569 414.841 147.8 381.2L147 380.6L146.2 380C121.031 413.558 89.9199 444.645 69.6745 457.149L70.2 458ZM147 380.6L147.8 381.2C162.196 362.006 183.217 333.178 204.202 304.997L203.4 304.4L202.598 303.803C181.583 332.022 160.604 360.794 146.2 380L147 380.6Z" fill="black" mask="url(#path-1-outside-1_407_2176)"/>
</g>
<defs>
<clipPath id="clip0_407_2176">
<rect width="479" height="486" fill="white"/>
</clipPath>
</defs>
</svg>
