<svg width="1920" height="989" viewBox="0 0 1920 989" fill="none" xmlns="http://www.w3.org/2000/svg">
<mask id="path-1-inside-1_698_2408" fill="white">
<path d="M1920 0V888.516C1890.5 908.239 1854.23 919.871 1815 919.871C1761.36 919.871 1713.23 898.121 1680.42 863.67C1660.71 905.424 1615.56 934.619 1563 934.619C1515.18 934.619 1473.48 910.443 1451.51 874.629C1427.51 923.589 1374.07 957.662 1312 957.662C1229.26 957.662 1161.86 897.122 1159.09 821.479C1132.68 841.491 1098.86 853.508 1062 853.508C1035.37 853.508 1010.33 847.236 988.525 836.21C965.617 887.472 910.881 923.559 847 923.559C810.378 923.559 776.762 911.697 750.425 891.917C730.39 948.286 672.854 989 605 989C548.338 989 498.872 960.61 472.428 918.421C447.095 935.556 415.831 945.68 382 945.68C310.529 945.68 250.505 900.509 233.694 839.452C207.193 859.741 173.143 871.942 136 871.942C76.7883 871.942 25.435 840.938 0 795.584V0H1920Z"/>
</mask>
<path d="M1920 0V888.516C1890.5 908.239 1854.23 919.871 1815 919.871C1761.36 919.871 1713.23 898.121 1680.42 863.67C1660.71 905.424 1615.56 934.619 1563 934.619C1515.18 934.619 1473.48 910.443 1451.51 874.629C1427.51 923.589 1374.07 957.662 1312 957.662C1229.26 957.662 1161.86 897.122 1159.09 821.479C1132.68 841.491 1098.86 853.508 1062 853.508C1035.37 853.508 1010.33 847.236 988.525 836.21C965.617 887.472 910.881 923.559 847 923.559C810.378 923.559 776.762 911.697 750.425 891.917C730.39 948.286 672.854 989 605 989C548.338 989 498.872 960.61 472.428 918.421C447.095 935.556 415.831 945.68 382 945.68C310.529 945.68 250.505 900.509 233.694 839.452C207.193 859.741 173.143 871.942 136 871.942C76.7883 871.942 25.435 840.938 0 795.584V0H1920Z" fill="#FBE3A4"/>
<path d="M1920 0H1921V-1H1920V0ZM1920 888.516L1920.56 889.347L1921 889.05V888.516H1920ZM1680.42 863.67L1681.15 862.98L1680.14 861.924L1679.52 863.243L1680.42 863.67ZM1451.51 874.629L1452.36 874.106L1451.41 872.557L1450.61 874.189L1451.51 874.629ZM1159.09 821.479L1160.09 821.442L1160.02 819.52L1158.49 820.681L1159.09 821.479ZM988.525 836.21L988.977 835.318L988.04 834.844L987.612 835.802L988.525 836.21ZM750.425 891.917L751.025 891.117L749.938 890.301L749.483 891.582L750.425 891.917ZM472.428 918.421L473.275 917.89L472.725 917.012L471.867 917.593L472.428 918.421ZM233.694 839.452L234.658 839.187L234.265 837.756L233.086 838.658L233.694 839.452ZM136 871.942L136 872.942L136 871.942ZM0 795.584H-1V795.845L-0.872207 796.073L0 795.584ZM0 0V-1H-1V0H0ZM1920 0H1919V888.516H1920H1921V0H1920ZM1920 888.516L1919.44 887.684C1890.11 907.298 1854.03 918.871 1815 918.871V919.871V920.871C1854.43 920.871 1890.9 909.18 1920.56 889.347L1920 888.516ZM1815 919.871V918.871C1761.63 918.871 1713.76 897.232 1681.15 862.98L1680.42 863.67L1679.7 864.36C1712.7 899.011 1761.09 920.871 1815 920.871V919.871ZM1680.42 863.67L1679.52 863.243C1659.98 904.629 1615.19 933.619 1563 933.619V934.619V935.619C1615.92 935.619 1661.44 906.219 1681.33 864.097L1680.42 863.67ZM1563 934.619V933.619C1515.51 933.619 1474.14 909.614 1452.36 874.106L1451.51 874.629L1450.65 875.152C1472.81 911.273 1514.84 935.619 1563 935.619V934.619ZM1451.51 874.629L1450.61 874.189C1426.79 922.79 1373.71 956.662 1312 956.662V957.662V958.662C1374.44 958.662 1428.23 924.389 1452.4 875.069L1451.51 874.629ZM1312 957.662V956.662C1229.72 956.662 1162.84 896.479 1160.09 821.442L1159.09 821.479L1158.09 821.515C1160.88 897.766 1228.79 958.662 1312 958.662V957.662ZM1159.09 821.479L1158.49 820.681C1132.25 840.563 1098.64 852.508 1062 852.508V853.508V854.508C1099.08 854.508 1133.11 842.42 1159.69 822.276L1159.09 821.479ZM1062 853.508V852.508C1035.53 852.508 1010.65 846.273 988.977 835.318L988.525 836.21L988.074 837.102C1010.02 848.198 1035.21 854.508 1062 854.508V853.508ZM988.525 836.21L987.612 835.802C964.873 886.684 910.509 922.559 847 922.559V923.559V924.559C911.254 924.559 966.36 888.26 989.438 836.618L988.525 836.21ZM847 923.559V922.559C810.595 922.559 777.19 910.767 751.025 891.117L750.425 891.917L749.824 892.717C776.335 912.626 810.161 924.559 847 924.559V923.559ZM750.425 891.917L749.483 891.582C729.599 947.525 672.461 988 605 988V989V990C673.247 990 731.18 949.047 751.367 892.252L750.425 891.917ZM605 989V988C548.671 988 499.53 959.777 473.275 917.89L472.428 918.421L471.58 918.952C498.213 961.442 548.005 990 605 990V989ZM472.428 918.421L471.867 917.593C446.7 934.617 415.63 944.68 382 944.68V945.68V946.68C416.031 946.68 447.491 936.496 472.988 919.249L472.428 918.421ZM382 945.68V944.68C310.94 944.68 251.34 899.774 234.658 839.187L233.694 839.452L232.73 839.718C249.67 901.245 310.117 946.68 382 946.68V945.68ZM233.694 839.452L233.086 838.658C206.759 858.813 172.923 870.942 136 870.942L136 871.942L136 872.942C173.363 872.942 207.627 860.668 234.302 840.246L233.694 839.452ZM136 871.942V870.942C77.1353 870.942 26.1232 840.121 0.872207 795.095L0 795.584L-0.872207 796.073C24.7469 841.756 76.4413 872.942 136 872.942V871.942ZM0 795.584H1V0H0H-1V795.584H0ZM0 0V1H1920V0V-1H0V0Z" fill="black" mask="url(#path-1-inside-1_698_2408)"/>
</svg>
