<svg width="1920" height="70" viewBox="0 0 1920 70" fill="none" xmlns="http://www.w3.org/2000/svg">
<g clip-path="url(#clip0_528_2202)">
<path d="M48 16C48 36.9868 30.9868 54 10 54C-10.9868 54 -28 36.9868 -28 16H-27C-27 36.4345 -10.4345 53 10 53C30.4345 53 47 36.4345 47 16H48ZM124 16C124 36.9868 106.987 54 86 54C65.0132 54 48 36.9868 48 16H49C49 36.4345 65.5655 53 86 53C106.435 53 123 36.4345 123 16H124ZM200 16C200 36.9868 182.987 54 162 54C141.013 54 124 36.9868 124 16H125C125 36.4345 141.565 53 162 53C182.435 53 199 36.4345 199 16H200ZM276 16C276 36.9868 258.987 54 238 54C217.013 54 200 36.9868 200 16H201C201 36.4345 217.565 53 238 53C258.435 53 275 36.4345 275 16H276ZM352 16C352 36.9868 334.987 54 314 54C293.013 54 276 36.9868 276 16H277C277 36.4345 293.565 53 314 53C334.435 53 351 36.4345 351 16H352ZM428 16C428 36.9868 410.987 54 390 54C369.013 54 352 36.9868 352 16H353C353 36.4345 369.565 53 390 53C410.435 53 427 36.4345 427 16H428ZM504 16C504 36.9868 486.987 54 466 54C445.013 54 428 36.9868 428 16H429C429 36.4345 445.565 53 466 53C486.435 53 503 36.4345 503 16H504ZM580 16C580 36.9868 562.987 54 542 54C521.013 54 504 36.9868 504 16H505C505 36.4345 521.565 53 542 53C562.435 53 579 36.4345 579 16H580ZM656 16C656 36.9868 638.987 54 618 54C597.013 54 580 36.9868 580 16H581C581 36.4345 597.565 53 618 53C638.435 53 655 36.4345 655 16H656ZM732 16C732 36.9868 714.987 54 694 54C673.013 54 656 36.9868 656 16H657C657 36.4345 673.565 53 694 53C714.435 53 731 36.4345 731 16H732ZM808 16C808 36.9868 790.987 54 770 54C749.013 54 732 36.9868 732 16H733C733 36.4345 749.565 53 770 53C790.435 53 807 36.4345 807 16H808ZM884 16C884 36.9868 866.987 54 846 54C825.013 54 808 36.9868 808 16H809C809 36.4345 825.565 53 846 53C866.435 53 883 36.4345 883 16H884ZM960 16C960 36.9868 942.987 54 922 54C901.013 54 884 36.9868 884 16H885C885 36.4345 901.565 53 922 53C942.435 53 959 36.4345 959 16H960ZM1036 16C1036 36.9868 1018.99 54 998 54C977.013 54 960 36.9868 960 16H961C961 36.4345 977.565 53 998 53C1018.43 53 1035 36.4345 1035 16H1036ZM1112 16C1112 36.9868 1094.99 54 1074 54C1053.01 54 1036 36.9868 1036 16H1037C1037 36.4345 1053.57 53 1074 53C1094.43 53 1111 36.4345 1111 16H1112ZM1188 16C1188 36.9868 1170.99 54 1150 54C1129.01 54 1112 36.9868 1112 16H1113C1113 36.4345 1129.57 53 1150 53C1170.43 53 1187 36.4345 1187 16H1188ZM1264 16C1264 36.9868 1246.99 54 1226 54C1205.01 54 1188 36.9868 1188 16H1189C1189 36.4345 1205.57 53 1226 53C1246.43 53 1263 36.4345 1263 16H1264ZM1340 16C1340 36.9868 1322.99 54 1302 54C1281.01 54 1264 36.9868 1264 16H1265C1265 36.4345 1281.57 53 1302 53C1322.43 53 1339 36.4345 1339 16H1340ZM1416 16C1416 36.9868 1398.99 54 1378 54C1357.01 54 1340 36.9868 1340 16H1341C1341 36.4345 1357.57 53 1378 53C1398.43 53 1415 36.4345 1415 16H1416ZM1492 16C1492 36.9868 1474.99 54 1454 54C1433.01 54 1416 36.9868 1416 16H1417C1417 36.4345 1433.57 53 1454 53C1474.43 53 1491 36.4345 1491 16H1492ZM1568 16C1568 36.9868 1550.99 54 1530 54C1509.01 54 1492 36.9868 1492 16H1493C1493 36.4345 1509.57 53 1530 53C1550.43 53 1567 36.4345 1567 16H1568ZM1644 16C1644 36.9868 1626.99 54 1606 54C1585.01 54 1568 36.9868 1568 16H1569C1569 36.4345 1585.57 53 1606 53C1626.43 53 1643 36.4345 1643 16H1644ZM1720 16C1720 36.9868 1702.99 54 1682 54C1661.01 54 1644 36.9868 1644 16H1645C1645 36.4345 1661.57 53 1682 53C1702.43 53 1719 36.4345 1719 16H1720ZM1796 16C1796 36.9868 1778.99 54 1758 54C1737.01 54 1720 36.9868 1720 16H1721C1721 36.4345 1737.57 53 1758 53C1778.43 53 1795 36.4345 1795 16H1796ZM1872 16C1872 36.9868 1854.99 54 1834 54C1813.01 54 1796 36.9868 1796 16H1797C1797 36.4345 1813.57 53 1834 53C1854.43 53 1871 36.4345 1871 16H1872ZM1948 16C1948 36.9868 1930.99 54 1910 54C1889.01 54 1872 36.9868 1872 16H1873C1873 36.4345 1889.57 53 1910 53C1930.43 53 1947 36.4345 1947 16H1948Z" fill="black"/>
</g>
<defs>
<clipPath id="clip0_528_2202">
<rect width="1920" height="70" fill="white"/>
</clipPath>
</defs>
</svg>
