<svg width="272" height="241" viewBox="0 0 272 241" fill="none" xmlns="http://www.w3.org/2000/svg">
<g clip-path="url(#clip0_407_2176)">
<path d="M134.099 22.0817C171.09 10.3337 204.787 4.45129 229.359 4.42815C241.648 4.4166 251.627 5.8715 258.592 8.77022C265.569 11.6741 269.429 15.9846 269.696 21.6057C269.964 27.2268 266.624 33.824 260.127 41.0071C253.642 48.1776 244.096 55.8324 232.173 63.5106C208.331 78.8635 175.086 94.2424 138.096 105.991C101.105 117.739 67.409 123.62 42.8371 123.643C30.5481 123.654 20.5684 122.201 13.6033 119.302C6.62601 116.398 2.76647 112.088 2.49865 106.467C2.23091 100.845 5.57092 94.2484 12.0678 87.0651C18.5533 79.8945 28.0991 72.2387 40.0229 64.5604C63.8647 49.2076 97.1087 33.8297 134.099 22.0817Z" stroke="black"/>
<path d="M134.099 76.9782C171.09 65.2301 204.787 59.3478 229.359 59.3246C241.648 59.3131 251.627 60.768 258.592 63.6667C265.569 66.5706 269.429 70.8811 269.696 76.5022C269.964 82.1233 266.624 88.7204 260.127 95.9036C253.642 103.074 244.096 110.729 232.173 118.407C208.331 133.76 175.086 149.139 138.096 160.887C101.105 172.635 67.409 178.516 42.8371 178.539C30.5481 178.551 20.5684 177.097 13.6033 174.199C6.62601 171.295 2.76647 166.984 2.49865 161.363C2.23091 155.742 5.57092 149.145 12.0678 141.962C18.5533 134.791 28.0991 127.135 40.0229 119.457C63.8647 104.104 97.1087 88.7262 134.099 76.9782Z" stroke="black"/>
<path d="M134.099 133.248C171.09 121.5 204.787 115.617 229.359 115.594C241.648 115.583 251.627 117.038 258.592 119.936C265.569 122.84 269.429 127.151 269.696 132.772C269.964 138.393 266.624 144.99 260.127 152.173C253.642 159.344 244.096 166.998 232.173 174.677C208.331 190.029 175.086 205.408 138.096 217.157C101.105 228.905 67.409 234.786 42.8371 234.809C30.5481 234.82 20.5684 233.367 13.6033 230.468C6.62601 227.564 2.76647 223.254 2.49865 217.633C2.23091 212.011 5.57092 205.414 12.0678 198.231C18.5533 191.061 28.0991 183.405 40.0229 175.726C63.8647 160.374 97.1087 144.996 134.099 133.248Z" stroke="black"/>
</g>
<defs>
<clipPath id="clip0_407_2176">
<rect width="272" height="241" fill="white"/>
</clipPath>
</defs>
</svg>
