<svg width="96" height="96" viewBox="0 0 96 96" fill="none" xmlns="http://www.w3.org/2000/svg">
<g clip-path="url(#clip0_513_2507)">
<rect x="0.5" y="0.5" width="95" height="95" rx="14.5" fill="#DF4286" stroke="black"/>
<mask id="path-2-outside-1_513_2507" maskUnits="userSpaceOnUse" x="21" y="25" width="51" height="44" fill="black">
<rect fill="white" x="21" y="25" width="51" height="44"/>
<path d="M42.0508 30.4189L28.4004 68H22.8213L38.5391 26.7656H42.1357L42.0508 30.4189ZM53.4922 68L39.8135 30.4189L39.7285 26.7656H43.3252L59.0996 68H53.4922ZM52.7842 52.7354V57.21H29.6182V52.7354H52.7842ZM69.5215 37.3574V68H64.2539V37.3574H69.5215ZM63.8574 29.2295C63.8574 28.3799 64.1123 27.6624 64.6221 27.0771C65.1507 26.4919 65.9248 26.1992 66.9443 26.1992C67.945 26.1992 68.7096 26.4919 69.2383 27.0771C69.7858 27.6624 70.0596 28.3799 70.0596 29.2295C70.0596 30.0413 69.7858 30.7399 69.2383 31.3252C68.7096 31.8916 67.945 32.1748 66.9443 32.1748C65.9248 32.1748 65.1507 31.8916 64.6221 31.3252C64.1123 30.7399 63.8574 30.0413 63.8574 29.2295Z"/>
</mask>
<path d="M42.0508 30.4189L28.4004 68H22.8213L38.5391 26.7656H42.1357L42.0508 30.4189ZM53.4922 68L39.8135 30.4189L39.7285 26.7656H43.3252L59.0996 68H53.4922ZM52.7842 52.7354V57.21H29.6182V52.7354H52.7842ZM69.5215 37.3574V68H64.2539V37.3574H69.5215ZM63.8574 29.2295C63.8574 28.3799 64.1123 27.6624 64.6221 27.0771C65.1507 26.4919 65.9248 26.1992 66.9443 26.1992C67.945 26.1992 68.7096 26.4919 69.2383 27.0771C69.7858 27.6624 70.0596 28.3799 70.0596 29.2295C70.0596 30.0413 69.7858 30.7399 69.2383 31.3252C68.7096 31.8916 67.945 32.1748 66.9443 32.1748C65.9248 32.1748 65.1507 31.8916 64.6221 31.3252C64.1123 30.7399 63.8574 30.0413 63.8574 29.2295Z" fill="white"/>
<path d="M42.0508 30.4189L42.9907 30.7603L43.0467 30.6062L43.0505 30.4422L42.0508 30.4189ZM28.4004 68V69H29.1011L29.3403 68.3414L28.4004 68ZM22.8213 68L21.8869 67.6438L21.3699 69H22.8213V68ZM38.5391 26.7656V25.7656H37.8501L37.6046 26.4094L38.5391 26.7656ZM42.1357 26.7656L43.1355 26.7889L43.1593 25.7656H42.1357V26.7656ZM53.4922 68L52.5525 68.342L52.792 69H53.4922V68ZM39.8135 30.4189L38.8137 30.4422L38.8176 30.6065L38.8738 30.761L39.8135 30.4189ZM39.7285 26.7656V25.7656H38.705L38.7288 26.7889L39.7285 26.7656ZM43.3252 26.7656L44.2592 26.4083L44.0133 25.7656H43.3252V26.7656ZM59.0996 68V69H60.5528L60.0336 67.6427L59.0996 68ZM52.7842 52.7354H53.7842V51.7354H52.7842V52.7354ZM52.7842 57.21V58.21H53.7842V57.21H52.7842ZM29.6182 57.21H28.6182V58.21H29.6182V57.21ZM29.6182 52.7354V51.7354H28.6182V52.7354H29.6182ZM42.0508 30.4189L41.1109 30.0775L27.4605 67.6586L28.4004 68L29.3403 68.3414L42.9907 30.7603L42.0508 30.4189ZM28.4004 68V67H22.8213V68V69H28.4004V68ZM22.8213 68L23.7557 68.3562L39.4735 27.1218L38.5391 26.7656L37.6046 26.4094L21.8869 67.6438L22.8213 68ZM38.5391 26.7656V27.7656H42.1357V26.7656V25.7656H38.5391V26.7656ZM42.1357 26.7656L41.136 26.7424L41.0511 30.3957L42.0508 30.4189L43.0505 30.4422L43.1355 26.7889L42.1357 26.7656ZM53.4922 68L54.4319 67.658L40.7532 30.0769L39.8135 30.4189L38.8738 30.761L52.5525 68.342L53.4922 68ZM39.8135 30.4189L40.8132 30.3957L40.7282 26.7424L39.7285 26.7656L38.7288 26.7889L38.8137 30.4422L39.8135 30.4189ZM39.7285 26.7656V27.7656H43.3252V26.7656V25.7656H39.7285V26.7656ZM43.3252 26.7656L42.3912 27.1229L58.1656 68.3573L59.0996 68L60.0336 67.6427L44.2592 26.4083L43.3252 26.7656ZM59.0996 68V67H53.4922V68V69H59.0996V68ZM52.7842 52.7354H51.7842V57.21H52.7842H53.7842V52.7354H52.7842ZM52.7842 57.21V56.21H29.6182V57.21V58.21H52.7842V57.21ZM29.6182 57.21H30.6182V52.7354H29.6182H28.6182V57.21H29.6182ZM29.6182 52.7354V53.7354H52.7842V52.7354V51.7354H29.6182V52.7354ZM69.5215 37.3574H70.5215V36.3574H69.5215V37.3574ZM69.5215 68V69H70.5215V68H69.5215ZM64.2539 68H63.2539V69H64.2539V68ZM64.2539 37.3574V36.3574H63.2539V37.3574H64.2539ZM64.6221 27.0771L63.88 26.4069L63.8739 26.4136L63.868 26.4204L64.6221 27.0771ZM69.2383 27.0771L68.4962 27.7474L68.502 27.7539L68.508 27.7603L69.2383 27.0771ZM69.2383 31.3252L68.508 30.642L68.5072 30.6429L69.2383 31.3252ZM64.6221 31.3252L63.868 31.982L63.8793 31.9949L63.891 32.0075L64.6221 31.3252ZM69.5215 37.3574H68.5215V68H69.5215H70.5215V37.3574H69.5215ZM69.5215 68V67H64.2539V68V69H69.5215V68ZM64.2539 68H65.2539V37.3574H64.2539H63.2539V68H64.2539ZM64.2539 37.3574V38.3574H69.5215V37.3574V36.3574H64.2539V37.3574ZM63.8574 29.2295H64.8574C64.8574 28.5967 65.0404 28.1194 65.3762 27.7339L64.6221 27.0771L63.868 26.4204C63.1842 27.2055 62.8574 28.1631 62.8574 29.2295H63.8574ZM64.6221 27.0771L65.3642 27.7474C65.6514 27.4295 66.1198 27.1992 66.9443 27.1992V26.1992V25.1992C65.7298 25.1992 64.6501 25.5543 63.88 26.4069L64.6221 27.0771ZM66.9443 26.1992V27.1992C67.7433 27.1992 68.2055 27.4256 68.4962 27.7474L69.2383 27.0771L69.9804 26.4069C69.2138 25.5581 68.1466 25.1992 66.9443 25.1992V26.1992ZM69.2383 27.0771L68.508 27.7603C68.8711 28.1485 69.0596 28.6168 69.0596 29.2295H70.0596H71.0596C71.0596 28.1429 70.7005 27.1764 69.9686 26.394L69.2383 27.0771ZM70.0596 29.2295H69.0596C69.0596 29.7913 68.8797 30.2447 68.508 30.642L69.2383 31.3252L69.9686 32.0084C70.6919 31.2352 71.0596 30.2914 71.0596 29.2295H70.0596ZM69.2383 31.3252L68.5072 30.6429C68.219 30.9517 67.7532 31.1748 66.9443 31.1748V32.1748V33.1748C68.1368 33.1748 69.2003 32.8315 69.9693 32.0075L69.2383 31.3252ZM66.9443 32.1748V31.1748C66.1101 31.1748 65.638 30.948 65.3531 30.6429L64.6221 31.3252L63.891 32.0075C64.6635 32.8352 65.7395 33.1748 66.9443 33.1748V32.1748ZM64.6221 31.3252L65.3762 30.6684C65.0327 30.2741 64.8574 29.812 64.8574 29.2295H63.8574H62.8574C62.8574 30.2707 63.1919 31.2057 63.868 31.982L64.6221 31.3252Z" fill="black" mask="url(#path-2-outside-1_513_2507)"/>
</g>
<defs>
<clipPath id="clip0_513_2507">
<rect width="96" height="96" fill="white"/>
</clipPath>
</defs>
</svg>
