<svg width="1920" height="85" viewBox="0 0 1920 85" fill="none" xmlns="http://www.w3.org/2000/svg">
<g clip-path="url(#clip0_450_2197)">
<rect width="1920" height="85" fill="white"/>
<g clip-path="url(#clip1_450_2197)">
<rect x="623.5" y="42.5" width="42" height="42" fill="#FBF7F4" stroke="black"/>
<rect x="1295.5" y="42.5" width="42" height="42" fill="#FBF7F4" stroke="black"/>
<rect x="287.5" y="42.5" width="42" height="42" fill="#FBF7F4" stroke="black"/>
<rect x="959.5" y="42.5" width="42" height="42" fill="#FBF7F4" stroke="black"/>
<rect x="1631.5" y="42.5" width="42" height="42" fill="#FBF7F4" stroke="black"/>
<rect x="119.5" y="42.5" width="42" height="42" fill="#FBF7F4" stroke="black"/>
<rect x="791.5" y="42.5" width="42" height="42" fill="#FBF7F4" stroke="black"/>
<rect x="1463.5" y="42.5" width="42" height="42" fill="#FBF7F4" stroke="black"/>
<rect x="455.5" y="42.5" width="42" height="42" fill="#FBF7F4" stroke="black"/>
<rect x="1127.5" y="42.5" width="42" height="42" fill="#FBF7F4" stroke="black"/>
<rect x="1799.5" y="42.5" width="42" height="42" fill="#FBF7F4" stroke="black"/>
<rect x="35.5" y="42.5" width="42" height="42" fill="#FBF7F4" stroke="black"/>
<rect x="707.5" y="42.5" width="42" height="42" fill="#FBF7F4" stroke="black"/>
<rect x="1379.5" y="42.5" width="42" height="42" fill="#FBF7F4" stroke="black"/>
<rect x="371.5" y="42.5" width="42" height="42" fill="#FBF7F4" stroke="black"/>
<rect x="1043.5" y="42.5" width="42" height="42" fill="#FBF7F4" stroke="black"/>
<rect x="1715.5" y="42.5" width="42" height="42" fill="#FBF7F4" stroke="black"/>
<rect x="203.5" y="42.5" width="42" height="42" fill="#FBF7F4" stroke="black"/>
<rect x="875.5" y="42.5" width="42" height="42" fill="#FBF7F4" stroke="black"/>
<rect x="1547.5" y="42.5" width="42" height="42" fill="#FBF7F4" stroke="black"/>
<rect x="539.5" y="42.5" width="42" height="42" fill="#FBF7F4" stroke="black"/>
<rect x="1211.5" y="42.5" width="42" height="42" fill="#FBF7F4" stroke="black"/>
<rect x="1883.5" y="42.5" width="42" height="42" fill="#FBF7F4" stroke="black"/>
<rect x="623.5" y="0.5" width="42" height="42" fill="#B5C572" stroke="black"/>
<rect x="1295.5" y="0.5" width="42" height="42" fill="#B5C572" stroke="black"/>
<rect x="287.5" y="0.5" width="42" height="42" fill="#B5C572" stroke="black"/>
<rect x="959.5" y="0.5" width="42" height="42" fill="#B5C572" stroke="black"/>
<rect x="1631.5" y="0.5" width="42" height="42" fill="#B5C572" stroke="black"/>
<rect x="119.5" y="0.5" width="42" height="42" fill="#B5C572" stroke="black"/>
<rect x="791.5" y="0.5" width="42" height="42" fill="#B5C572" stroke="black"/>
<rect x="1463.5" y="0.5" width="42" height="42" fill="#B5C572" stroke="black"/>
<rect x="455.5" y="0.5" width="42" height="42" fill="#B5C572" stroke="black"/>
<rect x="1127.5" y="0.5" width="42" height="42" fill="#B5C572" stroke="black"/>
<rect x="1799.5" y="0.5" width="42" height="42" fill="#B5C572" stroke="black"/>
<rect x="35.5" y="0.5" width="42" height="42" fill="#B5C572" stroke="black"/>
<rect x="707.5" y="0.5" width="42" height="42" fill="#B5C572" stroke="black"/>
<rect x="1379.5" y="0.5" width="42" height="42" fill="#B5C572" stroke="black"/>
<rect x="371.5" y="0.5" width="42" height="42" fill="#B5C572" stroke="black"/>
<rect x="1043.5" y="0.5" width="42" height="42" fill="#B5C572" stroke="black"/>
<rect x="1715.5" y="0.5" width="42" height="42" fill="#B5C572" stroke="black"/>
<rect x="203.5" y="0.5" width="42" height="42" fill="#B5C572" stroke="black"/>
<rect x="875.5" y="0.5" width="42" height="42" fill="#B5C572" stroke="black"/>
<rect x="1547.5" y="0.5" width="42" height="42" fill="#B5C572" stroke="black"/>
<rect x="539.5" y="0.5" width="42" height="42" fill="#B5C572" stroke="black"/>
<rect x="1211.5" y="0.5" width="42" height="42" fill="#B5C572" stroke="black"/>
<rect x="1883.5" y="0.5" width="42" height="42" fill="#B5C572" stroke="black"/>
<rect x="-6.5" y="42.5" width="42" height="42" fill="#B5C572" stroke="black"/>
<rect x="665.5" y="42.5" width="42" height="42" fill="#B5C572" stroke="black"/>
<rect x="1337.5" y="42.5" width="42" height="42" fill="#B5C572" stroke="black"/>
<rect x="329.5" y="42.5" width="42" height="42" fill="#B5C572" stroke="black"/>
<rect x="1001.5" y="42.5" width="42" height="42" fill="#B5C572" stroke="black"/>
<rect x="1673.5" y="42.5" width="42" height="42" fill="#B5C572" stroke="black"/>
<rect x="161.5" y="42.5" width="42" height="42" fill="#B5C572" stroke="black"/>
<rect x="833.5" y="42.5" width="42" height="42" fill="#B5C572" stroke="black"/>
<rect x="1505.5" y="42.5" width="42" height="42" fill="#B5C572" stroke="black"/>
<rect x="497.5" y="42.5" width="42" height="42" fill="#B5C572" stroke="black"/>
<rect x="1169.5" y="42.5" width="42" height="42" fill="#B5C572" stroke="black"/>
<rect x="1841.5" y="42.5" width="42" height="42" fill="#B5C572" stroke="black"/>
<rect x="77.5" y="42.5" width="42" height="42" fill="#B5C572" stroke="black"/>
<rect x="749.5" y="42.5" width="42" height="42" fill="#B5C572" stroke="black"/>
<rect x="1421.5" y="42.5" width="42" height="42" fill="#B5C572" stroke="black"/>
<rect x="413.5" y="42.5" width="42" height="42" fill="#B5C572" stroke="black"/>
<rect x="1085.5" y="42.5" width="42" height="42" fill="#B5C572" stroke="black"/>
<rect x="1757.5" y="42.5" width="42" height="42" fill="#B5C572" stroke="black"/>
<rect x="245.5" y="42.5" width="42" height="42" fill="#B5C572" stroke="black"/>
<rect x="917.5" y="42.5" width="42" height="42" fill="#B5C572" stroke="black"/>
<rect x="1589.5" y="42.5" width="42" height="42" fill="#B5C572" stroke="black"/>
<rect x="581.5" y="42.5" width="42" height="42" fill="#B5C572" stroke="black"/>
<rect x="1253.5" y="42.5" width="42" height="42" fill="#B5C572" stroke="black"/>
<rect x="-6.5" y="0.5" width="42" height="42" fill="#FBF7F4" stroke="black"/>
<rect x="665.5" y="0.5" width="42" height="42" fill="#FBF7F4" stroke="black"/>
<rect x="1337.5" y="0.5" width="42" height="42" fill="#FBF7F4" stroke="black"/>
<rect x="329.5" y="0.5" width="42" height="42" fill="#FBF7F4" stroke="black"/>
<rect x="1001.5" y="0.5" width="42" height="42" fill="#FBF7F4" stroke="black"/>
<rect x="1673.5" y="0.5" width="42" height="42" fill="#FBF7F4" stroke="black"/>
<rect x="161.5" y="0.5" width="42" height="42" fill="#FBF7F4" stroke="black"/>
<rect x="833.5" y="0.5" width="42" height="42" fill="#FBF7F4" stroke="black"/>
<rect x="1505.5" y="0.5" width="42" height="42" fill="#FBF7F4" stroke="black"/>
<rect x="497.5" y="0.5" width="42" height="42" fill="#FBF7F4" stroke="black"/>
<rect x="1169.5" y="0.5" width="42" height="42" fill="#FBF7F4" stroke="black"/>
<rect x="1841.5" y="0.5" width="42" height="42" fill="#FBF7F4" stroke="black"/>
<rect x="77.5" y="0.5" width="42" height="42" fill="#FBF7F4" stroke="black"/>
<rect x="749.5" y="0.5" width="42" height="42" fill="#FBF7F4" stroke="black"/>
<rect x="1421.5" y="0.5" width="42" height="42" fill="#FBF7F4" stroke="black"/>
<rect x="413.5" y="0.5" width="42" height="42" fill="#FBF7F4" stroke="black"/>
<rect x="1085.5" y="0.5" width="42" height="42" fill="#FBF7F4" stroke="black"/>
<rect x="1757.5" y="0.5" width="42" height="42" fill="#FBF7F4" stroke="black"/>
<rect x="245.5" y="0.5" width="42" height="42" fill="#FBF7F4" stroke="black"/>
<rect x="917.5" y="0.5" width="42" height="42" fill="#FBF7F4" stroke="black"/>
<rect x="1589.5" y="0.5" width="42" height="42" fill="#FBF7F4" stroke="black"/>
<rect x="581.5" y="0.5" width="42" height="42" fill="#FBF7F4" stroke="black"/>
<rect x="1253.5" y="0.5" width="42" height="42" fill="#FBF7F4" stroke="black"/>
</g>
</g>
<defs>
<clipPath id="clip0_450_2197">
<rect width="1920" height="85" fill="white"/>
</clipPath>
<clipPath id="clip1_450_2197">
<rect width="2017" height="85" fill="white" transform="translate(-49)"/>
</clipPath>
</defs>
</svg>
