<svg width="106" height="106" viewBox="0 0 106 106" fill="none" xmlns="http://www.w3.org/2000/svg">
<mask id="path-1-inside-1_447_2195" fill="white">
<path d="M54.708 39.9443L75.6865 3.24316L83.5 7.70898L61.8525 45.582L102.976 35.2432L105.17 43.9717L65.8682 53.8525L100.999 73.9326L96.5332 81.7461L59.9629 60.8438L70.5576 102.976L61.8291 105.17L51.4297 63.8174L30.8105 99.8945L22.9961 95.4287L43.5518 59.4639L2.19434 69.8643L0 61.1357L41.9961 50.5752L4.34766 29.0566L8.81348 21.2422L46.0811 42.543L35.9365 2.19434L44.665 0L54.708 39.9443Z"/>
</mask>
<path d="M54.708 39.9443L75.6865 3.24316L83.5 7.70898L61.8525 45.582L102.976 35.2432L105.17 43.9717L65.8682 53.8525L100.999 73.9326L96.5332 81.7461L59.9629 60.8438L70.5576 102.976L61.8291 105.17L51.4297 63.8174L30.8105 99.8945L22.9961 95.4287L43.5518 59.4639L2.19434 69.8643L0 61.1357L41.9961 50.5752L4.34766 29.0566L8.81348 21.2422L46.0811 42.543L35.9365 2.19434L44.665 0L54.708 39.9443Z" fill="#B1C2FC"/>
<path d="M54.708 39.9443L53.7382 40.1882L54.3438 42.5967L55.5762 40.4406L54.708 39.9443ZM75.6865 3.24316L76.1827 2.37497L75.3146 1.87877L74.8183 2.74691L75.6865 3.24316ZM83.5 7.70898L84.3682 8.20522L84.8644 7.33702L83.9962 6.84079L83.5 7.70898ZM61.8525 45.582L60.9844 45.0858L59.8191 47.1244L62.0964 46.5519L61.8525 45.582ZM102.976 35.2432L103.945 34.9994L103.702 34.0295L102.732 34.2733L102.976 35.2432ZM105.17 43.9717L105.414 44.9415L106.384 44.6977L106.14 43.7279L105.17 43.9717ZM65.8682 53.8525L65.6243 52.8827L63.2157 53.4883L65.3719 54.7207L65.8682 53.8525ZM100.999 73.9326L101.867 74.4288L102.363 73.5607L101.495 73.0644L100.999 73.9326ZM96.5332 81.7461L96.037 82.6143L96.9052 83.1105L97.4014 82.2423L96.5332 81.7461ZM59.9629 60.8438L60.4591 59.9756L58.4204 58.8103L58.9931 61.0876L59.9629 60.8438ZM70.5576 102.976L70.8014 103.945L71.7713 103.702L71.5274 102.732L70.5576 102.976ZM61.8291 105.17L60.8593 105.414L61.1032 106.384L62.0729 106.14L61.8291 105.17ZM51.4297 63.8174L52.3995 63.5735L51.7938 61.165L50.5615 63.3212L51.4297 63.8174ZM30.8105 99.8945L30.3144 100.763L31.1826 101.259L31.6788 100.391L30.8105 99.8945ZM22.9961 95.4287L22.1279 94.9325L21.6317 95.8007L22.4999 96.2969L22.9961 95.4287ZM43.5518 59.4639L44.42 59.9601L45.5852 57.9214L43.3079 58.4941L43.5518 59.4639ZM2.19434 69.8643L1.22451 70.1081L1.46834 71.078L2.43822 70.8341L2.19434 69.8643ZM0 61.1357L-0.243873 60.1659L-1.21362 60.4098L-0.969823 61.3796L0 61.1357ZM41.9961 50.5752L42.24 51.545L44.6484 50.9394L42.4923 49.707L41.9961 50.5752ZM4.34766 29.0566L3.47943 28.5605L2.98329 29.4286L3.85143 29.9248L4.34766 29.0566ZM8.81348 21.2422L9.3097 20.374L8.44146 19.8777L7.94525 20.746L8.81348 21.2422ZM46.0811 42.543L45.5848 43.4112L47.6234 44.5763L47.0509 42.2991L46.0811 42.543ZM35.9365 2.19434L35.6927 1.22451L34.7229 1.46833L34.9667 2.43817L35.9365 2.19434ZM44.665 0L45.6349 -0.243835L45.391 -1.21363L44.4212 -0.969823L44.665 0ZM54.708 39.9443L55.5762 40.4406L76.5547 3.73942L75.6865 3.24316L74.8183 2.74691L53.8398 39.4481L54.708 39.9443ZM75.6865 3.24316L75.1903 4.11136L83.0038 8.57718L83.5 7.70898L83.9962 6.84079L76.1827 2.37497L75.6865 3.24316ZM83.5 7.70898L82.6318 7.21275L60.9844 45.0858L61.8525 45.582L62.7207 46.0783L84.3682 8.20522L83.5 7.70898ZM61.8525 45.582L62.0964 46.5519L103.219 36.213L102.976 35.2432L102.732 34.2733L61.6087 44.6122L61.8525 45.582ZM102.976 35.2432L102.006 35.487L104.2 44.2155L105.17 43.9717L106.14 43.7279L103.945 34.9994L102.976 35.2432ZM105.17 43.9717L104.926 43.0019L65.6243 52.8827L65.8682 53.8525L66.112 54.8224L105.414 44.9415L105.17 43.9717ZM65.8682 53.8525L65.3719 54.7207L100.503 74.8008L100.999 73.9326L101.495 73.0644L66.3644 52.9844L65.8682 53.8525ZM100.999 73.9326L100.131 73.4364L95.665 81.2499L96.5332 81.7461L97.4014 82.2423L101.867 74.4288L100.999 73.9326ZM96.5332 81.7461L97.0294 80.8779L60.4591 59.9756L59.9629 60.8438L59.4667 61.7119L96.037 82.6143L96.5332 81.7461ZM59.9629 60.8438L58.9931 61.0876L69.5878 103.219L70.5576 102.976L71.5274 102.732L60.9327 60.5999L59.9629 60.8438ZM70.5576 102.976L70.3138 102.006L61.5853 104.2L61.8291 105.17L62.0729 106.14L70.8014 103.945L70.5576 102.976ZM61.8291 105.17L62.7989 104.926L52.3995 63.5735L51.4297 63.8174L50.4599 64.0613L60.8593 105.414L61.8291 105.17ZM51.4297 63.8174L50.5615 63.3212L29.9423 99.3983L30.8105 99.8945L31.6788 100.391L52.2979 64.3136L51.4297 63.8174ZM30.8105 99.8945L31.3067 99.0263L23.4923 94.5605L22.9961 95.4287L22.4999 96.2969L30.3144 100.763L30.8105 99.8945ZM22.9961 95.4287L23.8643 95.9249L44.42 59.9601L43.5518 59.4639L42.6836 58.9676L22.1279 94.9325L22.9961 95.4287ZM43.5518 59.4639L43.3079 58.4941L1.95045 68.8945L2.19434 69.8643L2.43822 70.8341L43.7956 60.4337L43.5518 59.4639ZM2.19434 69.8643L3.16416 69.6204L0.969823 60.8919L0 61.1357L-0.969823 61.3796L1.22451 70.1081L2.19434 69.8643ZM0 61.1357L0.243873 62.1055L42.24 51.545L41.9961 50.5752L41.7522 49.6054L-0.243873 60.1659L0 61.1357ZM41.9961 50.5752L42.4923 49.707L4.84388 28.1884L4.34766 29.0566L3.85143 29.9248L41.4999 51.4434L41.9961 50.5752ZM4.34766 29.0566L5.21588 29.5528L9.6817 21.7384L8.81348 21.2422L7.94525 20.746L3.47943 28.5605L4.34766 29.0566ZM8.81348 21.2422L8.31725 22.1104L45.5848 43.4112L46.0811 42.543L46.5773 41.6748L9.3097 20.374L8.81348 21.2422ZM46.0811 42.543L47.0509 42.2991L36.9063 1.9505L35.9365 2.19434L34.9667 2.43817L45.1112 42.7868L46.0811 42.543ZM35.9365 2.19434L36.1803 3.16416L44.9089 0.969823L44.665 0L44.4212 -0.969823L35.6927 1.22451L35.9365 2.19434ZM44.665 0L43.6952 0.243835L53.7382 40.1882L54.708 39.9443L55.6778 39.7005L45.6349 -0.243835L44.665 0Z" fill="black" mask="url(#path-1-inside-1_447_2195)"/>
</svg>
