<svg width="96" height="96" viewBox="0 0 96 96" fill="none" xmlns="http://www.w3.org/2000/svg">
<g clip-path="url(#clip0_513_2510)">
<rect x="0.5" y="0.5" width="95" height="95" rx="14.5" fill="#B4C471" stroke="black"/>
<mask id="path-2-outside-1_513_2510" maskUnits="userSpaceOnUse" x="17" y="25" width="62" height="45" fill="black">
<rect fill="white" x="17" y="25" width="62" height="45"/>
<path d="M33.9941 51.8291H22.9775V47.3828H33.9941C36.1276 47.3828 37.8551 47.043 39.1768 46.3633C40.4984 45.6836 41.4613 44.7396 42.0654 43.5312C42.6885 42.3229 43 40.9447 43 39.3965C43 37.9805 42.6885 36.6494 42.0654 35.4033C41.4613 34.1572 40.4984 33.1566 39.1768 32.4014C37.8551 31.6273 36.1276 31.2402 33.9941 31.2402H24.252V68H18.7861V26.7656H33.9941C37.1094 26.7656 39.7432 27.3037 41.8955 28.3799C44.0479 29.4561 45.681 30.9476 46.7949 32.8545C47.9089 34.7425 48.4658 36.9043 48.4658 39.3398C48.4658 41.9831 47.9089 44.2393 46.7949 46.1084C45.681 47.9775 44.0479 49.403 41.8955 50.3848C39.7432 51.3477 37.1094 51.8291 33.9941 51.8291ZM72.4248 59.8721C72.4248 59.1169 72.2549 58.4183 71.915 57.7764C71.5941 57.1156 70.9238 56.5208 69.9043 55.9922C68.9036 55.4447 67.3932 54.9727 65.373 54.5762C63.6738 54.2174 62.1351 53.7926 60.7568 53.3018C59.3975 52.8109 58.2363 52.2161 57.2734 51.5176C56.3294 50.819 55.6025 49.9977 55.0928 49.0537C54.583 48.1097 54.3281 47.0052 54.3281 45.7402C54.3281 44.5319 54.5924 43.3896 55.1211 42.3135C55.6686 41.2373 56.4333 40.2839 57.415 39.4531C58.4157 38.6224 59.6146 37.971 61.0117 37.499C62.4089 37.027 63.9665 36.791 65.6846 36.791C68.139 36.791 70.2347 37.2253 71.9717 38.0938C73.7087 38.9622 75.0397 40.1234 75.9648 41.5771C76.89 43.012 77.3525 44.6074 77.3525 46.3633H72.1133C72.1133 45.5137 71.8584 44.6924 71.3486 43.8994C70.8577 43.0876 70.1309 42.4173 69.168 41.8887C68.224 41.36 67.0628 41.0957 65.6846 41.0957C64.2308 41.0957 63.0508 41.3223 62.1445 41.7754C61.2572 42.2096 60.6058 42.7666 60.1904 43.4463C59.7939 44.126 59.5957 44.8434 59.5957 45.5986C59.5957 46.165 59.6901 46.6748 59.8789 47.1279C60.0866 47.5622 60.4453 47.9681 60.9551 48.3457C61.4648 48.7044 62.1823 49.0443 63.1074 49.3652C64.0326 49.6862 65.2126 50.0072 66.6475 50.3281C69.1585 50.8945 71.2259 51.5742 72.8496 52.3672C74.4733 53.1602 75.6816 54.1325 76.4746 55.2842C77.2676 56.4359 77.6641 57.833 77.6641 59.4756C77.6641 60.8161 77.3809 62.0433 76.8145 63.1572C76.2669 64.2712 75.4645 65.234 74.4072 66.0459C73.3688 66.8389 72.1227 67.4619 70.6689 67.915C69.234 68.3493 67.6198 68.5664 65.8262 68.5664C63.1263 68.5664 60.8418 68.085 58.9727 67.1221C57.1035 66.1592 55.6875 64.9131 54.7246 63.3838C53.7617 61.8545 53.2803 60.2402 53.2803 58.541H58.5479C58.6234 59.9759 59.0387 61.1182 59.7939 61.9678C60.5492 62.7985 61.4743 63.3932 62.5693 63.752C63.6644 64.0918 64.75 64.2617 65.8262 64.2617C67.2611 64.2617 68.46 64.0729 69.4229 63.6953C70.4046 63.3177 71.1504 62.7985 71.6602 62.1377C72.1699 61.4769 72.4248 60.7217 72.4248 59.8721Z"/>
</mask>
<path d="M33.9941 51.8291H22.9775V47.3828H33.9941C36.1276 47.3828 37.8551 47.043 39.1768 46.3633C40.4984 45.6836 41.4613 44.7396 42.0654 43.5312C42.6885 42.3229 43 40.9447 43 39.3965C43 37.9805 42.6885 36.6494 42.0654 35.4033C41.4613 34.1572 40.4984 33.1566 39.1768 32.4014C37.8551 31.6273 36.1276 31.2402 33.9941 31.2402H24.252V68H18.7861V26.7656H33.9941C37.1094 26.7656 39.7432 27.3037 41.8955 28.3799C44.0479 29.4561 45.681 30.9476 46.7949 32.8545C47.9089 34.7425 48.4658 36.9043 48.4658 39.3398C48.4658 41.9831 47.9089 44.2393 46.7949 46.1084C45.681 47.9775 44.0479 49.403 41.8955 50.3848C39.7432 51.3477 37.1094 51.8291 33.9941 51.8291ZM72.4248 59.8721C72.4248 59.1169 72.2549 58.4183 71.915 57.7764C71.5941 57.1156 70.9238 56.5208 69.9043 55.9922C68.9036 55.4447 67.3932 54.9727 65.373 54.5762C63.6738 54.2174 62.1351 53.7926 60.7568 53.3018C59.3975 52.8109 58.2363 52.2161 57.2734 51.5176C56.3294 50.819 55.6025 49.9977 55.0928 49.0537C54.583 48.1097 54.3281 47.0052 54.3281 45.7402C54.3281 44.5319 54.5924 43.3896 55.1211 42.3135C55.6686 41.2373 56.4333 40.2839 57.415 39.4531C58.4157 38.6224 59.6146 37.971 61.0117 37.499C62.4089 37.027 63.9665 36.791 65.6846 36.791C68.139 36.791 70.2347 37.2253 71.9717 38.0938C73.7087 38.9622 75.0397 40.1234 75.9648 41.5771C76.89 43.012 77.3525 44.6074 77.3525 46.3633H72.1133C72.1133 45.5137 71.8584 44.6924 71.3486 43.8994C70.8577 43.0876 70.1309 42.4173 69.168 41.8887C68.224 41.36 67.0628 41.0957 65.6846 41.0957C64.2308 41.0957 63.0508 41.3223 62.1445 41.7754C61.2572 42.2096 60.6058 42.7666 60.1904 43.4463C59.7939 44.126 59.5957 44.8434 59.5957 45.5986C59.5957 46.165 59.6901 46.6748 59.8789 47.1279C60.0866 47.5622 60.4453 47.9681 60.9551 48.3457C61.4648 48.7044 62.1823 49.0443 63.1074 49.3652C64.0326 49.6862 65.2126 50.0072 66.6475 50.3281C69.1585 50.8945 71.2259 51.5742 72.8496 52.3672C74.4733 53.1602 75.6816 54.1325 76.4746 55.2842C77.2676 56.4359 77.6641 57.833 77.6641 59.4756C77.6641 60.8161 77.3809 62.0433 76.8145 63.1572C76.2669 64.2712 75.4645 65.234 74.4072 66.0459C73.3688 66.8389 72.1227 67.4619 70.6689 67.915C69.234 68.3493 67.6198 68.5664 65.8262 68.5664C63.1263 68.5664 60.8418 68.085 58.9727 67.1221C57.1035 66.1592 55.6875 64.9131 54.7246 63.3838C53.7617 61.8545 53.2803 60.2402 53.2803 58.541H58.5479C58.6234 59.9759 59.0387 61.1182 59.7939 61.9678C60.5492 62.7985 61.4743 63.3932 62.5693 63.752C63.6644 64.0918 64.75 64.2617 65.8262 64.2617C67.2611 64.2617 68.46 64.0729 69.4229 63.6953C70.4046 63.3177 71.1504 62.7985 71.6602 62.1377C72.1699 61.4769 72.4248 60.7217 72.4248 59.8721Z" fill="white"/>
<path d="M22.9775 51.8291H21.9775V52.8291H22.9775V51.8291ZM22.9775 47.3828V46.3828H21.9775V47.3828H22.9775ZM42.0654 43.5312L41.1766 43.0729L41.171 43.084L42.0654 43.5312ZM42.0654 35.4033L41.1655 35.8396L41.171 35.8505L42.0654 35.4033ZM39.1768 32.4014L38.6713 33.2643L38.6806 33.2696L39.1768 32.4014ZM24.252 31.2402V30.2402H23.252V31.2402H24.252ZM24.252 68V69H25.252V68H24.252ZM18.7861 68H17.7861V69H18.7861V68ZM18.7861 26.7656V25.7656H17.7861V26.7656H18.7861ZM46.7949 32.8545L45.9314 33.3589L45.9337 33.3626L46.7949 32.8545ZM41.8955 50.3848L42.3039 51.2976L42.3105 51.2946L41.8955 50.3848ZM33.9941 51.8291V50.8291H22.9775V51.8291V52.8291H33.9941V51.8291ZM22.9775 51.8291H23.9775V47.3828H22.9775H21.9775V51.8291H22.9775ZM22.9775 47.3828V48.3828H33.9941V47.3828V46.3828H22.9775V47.3828ZM33.9941 47.3828V48.3828C36.2221 48.3828 38.123 48.0297 39.6341 47.2526L39.1768 46.3633L38.7194 45.474C37.5873 46.0562 36.0332 46.3828 33.9941 46.3828V47.3828ZM39.1768 46.3633L39.6341 47.2526C41.1248 46.4859 42.2511 45.3959 42.9599 43.9785L42.0654 43.5312L41.171 43.084C40.6714 44.0832 39.872 44.8813 38.7194 45.474L39.1768 46.3633ZM42.0654 43.5312L42.9542 43.9895C43.6599 42.6209 44 41.0818 44 39.3965H43H42C42 40.8075 41.717 42.0249 41.1766 43.073L42.0654 43.5312ZM43 39.3965H44C44 37.8279 43.6535 36.3434 42.9599 34.9561L42.0654 35.4033L41.171 35.8505C41.7235 36.9554 42 38.1331 42 39.3965H43ZM42.0654 35.4033L42.9652 34.967C42.2644 33.5216 41.1514 32.378 39.6729 31.5331L39.1768 32.4014L38.6806 33.2696C39.8453 33.9352 40.6581 34.7928 41.1656 35.8396L42.0654 35.4033ZM39.1768 32.4014L39.6822 31.5385C38.1585 30.6461 36.2387 30.2402 33.9941 30.2402V31.2402V32.2402C36.0165 32.2402 37.5517 32.6085 38.6714 33.2643L39.1768 32.4014ZM33.9941 31.2402V30.2402H24.252V31.2402V32.2402H33.9941V31.2402ZM24.252 31.2402H23.252V68H24.252H25.252V31.2402H24.252ZM24.252 68V67H18.7861V68V69H24.252V68ZM18.7861 68H19.7861V26.7656H18.7861H17.7861V68H18.7861ZM18.7861 26.7656V27.7656H33.9941V26.7656V25.7656H18.7861V26.7656ZM33.9941 26.7656V27.7656C36.9983 27.7656 39.4695 28.2849 41.4483 29.2743L41.8955 28.3799L42.3427 27.4855C40.0168 26.3225 37.2205 25.7656 33.9941 25.7656V26.7656ZM41.8955 28.3799L41.4483 29.2743C43.4432 30.2718 44.9242 31.6347 45.9315 33.3589L46.7949 32.8545L47.6584 32.3501C46.4378 30.2605 44.6525 28.6404 42.3427 27.4855L41.8955 28.3799ZM46.7949 32.8545L45.9337 33.3626C46.9469 35.0801 47.4658 37.0627 47.4658 39.3398H48.4658H49.4658C49.4658 36.7459 48.8708 34.4049 47.6562 32.3463L46.7949 32.8545ZM48.4658 39.3398H47.4658C47.4658 41.8415 46.9396 43.9123 45.9359 45.5965L46.7949 46.1084L47.6539 46.6203C48.8781 44.5662 49.4658 42.1246 49.4658 39.3398H48.4658ZM46.7949 46.1084L45.9359 45.5965C44.9352 47.2756 43.4648 48.5698 41.4805 49.4749L41.8955 50.3848L42.3105 51.2946C44.6309 50.2361 46.4268 48.6795 47.6539 46.6203L46.7949 46.1084ZM41.8955 50.3848L41.4871 49.4719C39.4975 50.3621 37.0117 50.8291 33.9941 50.8291V51.8291V52.8291C37.2071 52.8291 39.9889 52.3333 42.3039 51.2976L41.8955 50.3848ZM71.915 57.7764L71.0155 58.2133L71.0231 58.2289L71.0313 58.2443L71.915 57.7764ZM69.9043 55.9922L69.4243 56.8694L69.4341 56.8748L69.444 56.8799L69.9043 55.9922ZM65.373 54.5762L65.1665 55.5546L65.1735 55.5561L65.1805 55.5575L65.373 54.5762ZM60.7568 53.3018L60.4172 54.2423L60.4213 54.2438L60.7568 53.3018ZM57.2734 51.5176L56.6786 52.3215L56.6862 52.327L57.2734 51.5176ZM55.1211 42.3135L54.2297 41.86L54.2235 41.8726L55.1211 42.3135ZM57.415 39.4531L56.7763 38.6837L56.7691 38.6897L57.415 39.4531ZM75.9648 41.5771L75.1212 42.114L75.1244 42.119L75.9648 41.5771ZM77.3525 46.3633V47.3633H78.3525V46.3633H77.3525ZM72.1133 46.3633H71.1133V47.3633H72.1133V46.3633ZM71.3486 43.8994L70.4929 44.4168L70.5 44.4286L70.5075 44.4402L71.3486 43.8994ZM69.168 41.8887L68.6793 42.7612L68.6867 42.7653L69.168 41.8887ZM62.1445 41.7754L62.5841 42.6736L62.5917 42.6698L62.1445 41.7754ZM60.1904 43.4463L59.3371 42.9248L59.3318 42.9336L59.3267 42.9424L60.1904 43.4463ZM59.8789 47.1279L58.9558 47.5125L58.9657 47.5362L58.9768 47.5594L59.8789 47.1279ZM60.9551 48.3457L60.3599 49.1493L60.3696 49.1565L60.3796 49.1635L60.9551 48.3457ZM66.6475 50.3281L66.8675 49.3526L66.8658 49.3522L66.6475 50.3281ZM76.8145 63.1572L75.923 62.7039L75.917 62.7161L76.8145 63.1572ZM74.4072 66.0459L75.0141 66.8407L75.0163 66.839L74.4072 66.0459ZM70.6689 67.915L70.9586 68.8722L70.9665 68.8697L70.6689 67.915ZM53.2803 58.541V57.541H52.2803V58.541H53.2803ZM58.5479 58.541L59.5465 58.4885L59.4966 57.541H58.5479V58.541ZM59.7939 61.9678L59.0465 62.6322L59.054 62.6404L59.7939 61.9678ZM62.5693 63.752L62.258 64.7023L62.2655 64.7047L62.2729 64.707L62.5693 63.752ZM69.4229 63.6953L69.0639 62.7619L69.0578 62.7643L69.4229 63.6953ZM72.4248 59.8721H73.4248C73.4248 58.9605 73.2181 58.1004 72.7988 57.3085L71.915 57.7764L71.0313 58.2443C71.2917 58.7362 71.4248 59.2733 71.4248 59.8721H72.4248ZM71.915 57.7764L72.8145 57.3395C72.3598 56.4033 71.4747 55.68 70.3646 55.1044L69.9043 55.9922L69.444 56.8799C70.373 57.3616 70.8283 57.8278 71.0155 58.2133L71.915 57.7764ZM69.9043 55.9922L70.3843 55.1149C69.2488 54.4936 67.6193 53.9979 65.5656 53.5949L65.373 54.5762L65.1805 55.5575C67.1672 55.9474 68.5585 56.3957 69.4243 56.8694L69.9043 55.9922ZM65.373 54.5762L65.5796 53.5977C63.9163 53.2466 62.4216 52.8331 61.0924 52.3597L60.7568 53.3018L60.4213 54.2438C61.8486 54.7521 63.4313 55.1883 65.1665 55.5546L65.373 54.5762ZM60.7568 53.3018L61.0965 52.3612C59.8071 51.8956 58.7334 51.3413 57.8607 50.7082L57.2734 51.5176L56.6862 52.327C57.7393 53.091 58.9878 53.7261 60.4172 54.2423L60.7568 53.3018ZM57.2734 51.5176L57.8683 50.7137C57.031 50.0941 56.4063 49.3816 55.9727 48.5786L55.0928 49.0537L54.2129 49.5289C54.7988 50.6139 55.6279 51.5439 56.6786 52.3214L57.2734 51.5176ZM55.0928 49.0537L55.9727 48.5786C55.5547 47.8046 55.3281 46.869 55.3281 45.7402H54.3281H53.3281C53.3281 47.1414 53.6113 48.4148 54.2129 49.5289L55.0928 49.0537ZM54.3281 45.7402H55.3281C55.3281 44.6835 55.5579 43.6922 56.0186 42.7544L55.1211 42.3135L54.2235 41.8726C53.627 43.0871 53.3281 44.3803 53.3281 45.7402H54.3281ZM55.1211 42.3135L56.0124 42.7669C56.4957 41.817 57.1741 40.967 58.061 40.2165L57.415 39.4531L56.7691 38.6897C55.6924 39.6008 54.8415 40.6577 54.2298 41.86L55.1211 42.3135ZM57.415 39.4531L58.0538 40.2225C58.9483 39.48 60.0355 38.8844 61.3318 38.4464L61.0117 37.499L60.6917 36.5516C59.1937 37.0577 57.8831 37.7648 56.7763 38.6837L57.415 39.4531ZM61.0117 37.499L61.3318 38.4464C62.6104 38.0145 64.0577 37.791 65.6846 37.791V36.791V35.791C63.8752 35.791 62.2073 36.0396 60.6917 36.5516L61.0117 37.499ZM65.6846 36.791V37.791C68.0236 37.791 69.9581 38.205 71.5245 38.9882L71.9717 38.0938L72.4189 37.1993C70.5113 36.2455 68.2544 35.791 65.6846 35.791V36.791ZM71.9717 38.0938L71.5245 38.9882C73.1204 39.7861 74.3053 40.8319 75.1212 42.114L75.9648 41.5771L76.8085 41.0403C75.7742 39.4149 74.2969 38.1383 72.4189 37.1993L71.9717 38.0938ZM75.9648 41.5771L75.1244 42.119C75.9423 43.3876 76.3525 44.7938 76.3525 46.3633H77.3525H78.3525C78.3525 44.421 77.8377 42.6365 76.8053 41.0353L75.9648 41.5771ZM77.3525 46.3633V45.3633H72.1133V46.3633V47.3633H77.3525V46.3633ZM72.1133 46.3633H73.1133C73.1133 45.3013 72.7915 44.2946 72.1898 43.3587L71.3486 43.8994L70.5075 44.4402C70.9253 45.0901 71.1133 45.7261 71.1133 46.3633H72.1133ZM71.3486 43.8994L72.2044 43.382C71.6089 42.3972 70.7417 41.6119 69.6492 41.0121L69.168 41.8887L68.6867 42.7653C69.52 43.2227 70.1066 43.7779 70.4929 44.4168L71.3486 43.8994ZM69.168 41.8887L69.6566 41.0162C68.5278 40.384 67.188 40.0957 65.6846 40.0957V41.0957V42.0957C66.9376 42.0957 67.9201 42.336 68.6794 42.7612L69.168 41.8887ZM65.6846 41.0957V40.0957C64.1384 40.0957 62.7894 40.3349 61.6973 40.881L62.1445 41.7754L62.5917 42.6698C63.3121 42.3096 64.3232 42.0957 65.6846 42.0957V41.0957ZM62.1445 41.7754L61.705 40.8772C60.6877 41.375 59.8732 42.0477 59.3371 42.9248L60.1904 43.4463L61.0437 43.9677C61.3384 43.4855 61.8266 43.0443 62.5841 42.6736L62.1445 41.7754ZM60.1904 43.4463L59.3267 42.9424C58.8449 43.7683 58.5957 44.6588 58.5957 45.5986H59.5957H60.5957C60.5957 45.0281 60.743 44.4836 61.0542 43.9502L60.1904 43.4463ZM59.5957 45.5986H58.5957C58.5957 46.2769 58.709 46.9203 58.9558 47.5125L59.8789 47.1279L60.802 46.7433C60.6712 46.4293 60.5957 46.0531 60.5957 45.5986H59.5957ZM59.8789 47.1279L58.9768 47.5594C59.2737 48.1802 59.7591 48.7043 60.3599 49.1493L60.9551 48.3457L61.5503 47.5421C61.1315 47.2319 60.8995 46.9442 60.781 46.6965L59.8789 47.1279ZM60.9551 48.3457L60.3796 49.1635C60.9961 49.5974 61.8105 49.9738 62.7796 50.31L63.1074 49.3652L63.4352 48.4205C62.5541 48.1148 61.9335 47.8115 61.5306 47.5279L60.9551 48.3457ZM63.1074 49.3652L62.7796 50.31C63.7536 50.6479 64.9736 50.9784 66.4292 51.304L66.6475 50.3281L66.8658 49.3522C65.4515 49.0359 64.3115 48.7245 63.4352 48.4205L63.1074 49.3652ZM66.6475 50.3281L66.4274 51.3036C68.8919 51.8595 70.8793 52.5178 72.4108 53.2658L72.8496 52.3672L73.2884 51.4686C71.5725 50.6306 69.4251 49.9295 66.8675 49.3526L66.6475 50.3281ZM72.8496 52.3672L72.4108 53.2658C73.9239 54.0047 74.9801 54.8769 75.651 55.8513L76.4746 55.2842L77.2983 54.7171C76.3832 53.3881 75.0227 52.3156 73.2884 51.4686L72.8496 52.3672ZM76.4746 55.2842L75.651 55.8513C76.3101 56.8086 76.6641 57.9993 76.6641 59.4756H77.6641H78.6641C78.6641 57.6668 78.2251 56.0632 77.2983 54.7171L76.4746 55.2842ZM77.6641 59.4756H76.6641C76.6641 60.6703 76.4129 61.7406 75.9231 62.704L76.8145 63.1572L77.7058 63.6105C78.3488 62.346 78.6641 60.9619 78.6641 59.4756H77.6641ZM76.8145 63.1572L75.917 62.7161C75.4422 63.682 74.7428 64.5274 73.7982 65.2527L74.4072 66.0459L75.0163 66.839C76.1863 65.9407 77.0916 64.8603 77.7119 63.5983L76.8145 63.1572ZM74.4072 66.0459L73.8003 65.2511C72.8689 65.9624 71.7316 66.5364 70.3714 66.9603L70.6689 67.915L70.9665 68.8697C72.5138 68.3875 73.8688 67.7153 75.0141 66.8407L74.4072 66.0459ZM70.6689 67.915L70.3793 66.9579C69.0546 67.3588 67.5403 67.5664 65.8262 67.5664V68.5664V69.5664C67.6993 69.5664 69.4135 69.3398 70.9586 68.8722L70.6689 67.915ZM65.8262 68.5664V67.5664C63.2417 67.5664 61.1237 67.1053 59.4306 66.2331L58.9727 67.1221L58.5147 68.011C60.5599 69.0647 63.0109 69.5664 65.8262 69.5664V68.5664ZM58.9727 67.1221L59.4306 66.2331C57.6941 65.3385 56.4239 64.2058 55.5708 62.851L54.7246 63.3838L53.8784 63.9166C54.9511 65.6204 56.5129 66.9798 58.5147 68.011L58.9727 67.1221ZM54.7246 63.3838L55.5708 62.851C54.7017 61.4706 54.2803 60.0395 54.2803 58.541H53.2803H52.2803C52.2803 60.4409 52.8217 62.2383 53.8784 63.9166L54.7246 63.3838ZM53.2803 58.541V59.541H58.5479V58.541V57.541H53.2803V58.541ZM58.5479 58.541L57.5492 58.5936C57.6335 60.194 58.1045 61.5724 59.0465 62.6321L59.7939 61.9678L60.5414 61.3034C59.9729 60.6639 59.6133 59.7578 59.5465 58.4885L58.5479 58.541ZM59.7939 61.9678L59.054 62.6404C59.9288 63.6027 61.003 64.2911 62.258 64.7023L62.5693 63.752L62.8806 62.8016C61.9456 62.4953 61.1695 61.9943 60.5339 61.2951L59.7939 61.9678ZM62.5693 63.752L62.2729 64.707C63.4577 65.0747 64.6431 65.2617 65.8262 65.2617V64.2617V63.2617C64.8569 63.2617 63.8711 63.1089 62.8657 62.7969L62.5693 63.752ZM65.8262 64.2617V65.2617C67.341 65.2617 68.6731 65.0635 69.7879 64.6263L69.4229 63.6953L69.0578 62.7643C68.2468 63.0824 67.1811 63.2617 65.8262 63.2617V64.2617ZM69.4229 63.6953L69.7818 64.6287C70.8906 64.2022 71.8045 63.5878 72.4519 62.7485L71.6602 62.1377L70.8684 61.5269C70.4963 62.0092 69.9186 62.4332 69.0639 62.762L69.4229 63.6953ZM71.6602 62.1377L72.4519 62.7485C73.0993 61.9093 73.4248 60.9384 73.4248 59.8721H72.4248H71.4248C71.4248 60.505 71.2405 61.0445 70.8684 61.5269L71.6602 62.1377Z" fill="black" mask="url(#path-2-outside-1_513_2510)"/>
</g>
<defs>
<clipPath id="clip0_513_2510">
<rect width="96" height="96" fill="white"/>
</clipPath>
</defs>
</svg>
