<svg width="96" height="96" viewBox="0 0 96 96" fill="none" xmlns="http://www.w3.org/2000/svg">
<g clip-path="url(#clip0_513_2506)">
<rect x="0.5" y="0.5" width="95" height="95" rx="14.5" fill="#B2C1FE" stroke="black"/>
<mask id="path-2-inside-1_513_2506" fill="white">
<path d="M48 59H35.5C29.1487 59 24 53.8513 24 47.5C24 41.1487 29.1487 36 35.5 36H48V59Z"/>
</mask>
<path d="M48 59H35.5C29.1487 59 24 53.8513 24 47.5C24 41.1487 29.1487 36 35.5 36H48V59Z" fill="white"/>
<path d="M48 59V60H49V59H48ZM35.5 36L35.5 35L35.5 36ZM48 36H49V35H48V36ZM48 59V58H35.5V59V60H48V59ZM35.5 59V58C29.701 58 25 53.299 25 47.5H24H23C23 54.4036 28.5964 60 35.5 60V59ZM24 47.5H25C25 41.701 29.701 37 35.5 37L35.5 36L35.5 35C28.5964 35 23 40.5964 23 47.5H24ZM35.5 36V37H48V36V35H35.5V36ZM48 36H47V59H48H49V36H48Z" fill="black" mask="url(#path-2-inside-1_513_2506)"/>
<mask id="path-4-inside-2_513_2506" fill="white">
<path d="M48 37H35.5C29.1487 37 24 31.8513 24 25.5C24 19.1487 29.1487 14 35.5 14H48V37Z"/>
</mask>
<path d="M48 37H35.5C29.1487 37 24 31.8513 24 25.5C24 19.1487 29.1487 14 35.5 14H48V37Z" fill="white"/>
<path d="M48 37V38H49V37H48ZM35.5 14L35.5 13L35.5 14ZM48 14H49V13H48V14ZM48 37V36H35.5V37V38H48V37ZM35.5 37V36C29.701 36 25 31.299 25 25.5H24H23C23 32.4036 28.5964 38 35.5 38V37ZM24 25.5H25C25 19.701 29.701 15 35.5 15L35.5 14L35.5 13C28.5964 13 23 18.5964 23 25.5H24ZM35.5 14V15H48V14V13H35.5V14ZM48 14H47V37H48H49V14H48Z" fill="black" mask="url(#path-4-inside-2_513_2506)"/>
<mask id="path-6-inside-3_513_2506" fill="white">
<path d="M47 37H59.5C65.8513 37 71 31.8513 71 25.5C71 19.1487 65.8513 14 59.5 14H47V37Z"/>
</mask>
<path d="M47 37H59.5C65.8513 37 71 31.8513 71 25.5C71 19.1487 65.8513 14 59.5 14H47V37Z" fill="white"/>
<path d="M47 37V38H46V37H47ZM59.5 14L59.5 13L59.5 14ZM47 14H46V13H47V14ZM47 37V36H59.5V37V38H47V37ZM59.5 37V36C65.299 36 70 31.299 70 25.5H71H72C72 32.4036 66.4036 38 59.5 38V37ZM71 25.5H70C70 19.701 65.299 15 59.5 15L59.5 14L59.5 13C66.4036 13 72 18.5964 72 25.5H71ZM59.5 14V15H47V14V13H59.5V14ZM47 14H48V37H47H46V14H47Z" fill="black" mask="url(#path-6-inside-3_513_2506)"/>
<path d="M36 58.5H47.5V70C47.5 76.3513 42.3513 81.5 36 81.5C29.6487 81.5 24.5 76.3513 24.5 70C24.5 63.6487 29.6487 58.5 36 58.5Z" fill="white" stroke="black"/>
<path d="M59.5 36.5C65.5751 36.5 70.5 41.4249 70.5 47.5C70.5 53.5751 65.5751 58.5 59.5 58.5C53.4249 58.5 48.5 53.5751 48.5 47.5C48.5 41.4249 53.4249 36.5 59.5 36.5Z" fill="white" stroke="black"/>
</g>
<defs>
<clipPath id="clip0_513_2506">
<rect width="96" height="96" fill="white"/>
</clipPath>
</defs>
</svg>
