<svg width="68" height="69" viewBox="0 0 68 69" fill="none" xmlns="http://www.w3.org/2000/svg">
<rect x="0.353659" y="1.06069" width="67.1951" height="67.1951" rx="10.2561" fill="#B2C1FE" stroke="black" stroke-width="0.707317"/>
<mask id="path-2-inside-1_394_3649" fill="white">
<path d="M33.9502 42.4404H25.1084C20.6162 42.4402 16.9746 38.7979 16.9746 34.3057C16.9747 29.8135 20.6163 26.1721 25.1084 26.1719H33.9502V42.4404Z"/>
</mask>
<path d="M33.9502 42.4404H25.1084C20.6162 42.4402 16.9746 38.7979 16.9746 34.3057C16.9747 29.8135 20.6163 26.1721 25.1084 26.1719H33.9502V42.4404Z" fill="white"/>
<path d="M33.9502 42.4404V43.1477H34.6575V42.4404H33.9502ZM25.1084 42.4404L25.1084 43.1477H25.1084V42.4404ZM16.9746 34.3057L16.2673 34.3056V34.3057H16.9746ZM25.1084 26.1719V25.4646H25.1084L25.1084 26.1719ZM33.9502 26.1719H34.6575V25.4646H33.9502V26.1719ZM33.9502 42.4404V41.7331H25.1084V42.4404V43.1477H33.9502V42.4404ZM25.1084 42.4404L25.1084 41.7331C21.0069 41.7329 17.6819 38.4073 17.6819 34.3057H16.9746H16.2673C16.2673 39.1885 20.2255 43.1475 25.1084 43.1477L25.1084 42.4404ZM16.9746 34.3057L17.6819 34.3057C17.682 30.2042 21.0069 26.8794 25.1084 26.8792L25.1084 26.1719L25.1084 25.4646C20.2256 25.4648 16.2674 29.4229 16.2673 34.3056L16.9746 34.3057ZM25.1084 26.1719V26.8792H33.9502V26.1719V25.4646H25.1084V26.1719ZM33.9502 26.1719H33.2429V42.4404H33.9502H34.6575V26.1719H33.9502Z" fill="black" mask="url(#path-2-inside-1_394_3649)"/>
<mask id="path-4-inside-2_394_3649" fill="white">
<path d="M33.9502 26.8779H25.1084C20.6163 26.8777 16.9747 23.2363 16.9746 18.7441C16.9746 14.2519 20.6162 10.6096 25.1084 10.6094H33.9502V26.8779Z"/>
</mask>
<path d="M33.9502 26.8779H25.1084C20.6163 26.8777 16.9747 23.2363 16.9746 18.7441C16.9746 14.2519 20.6162 10.6096 25.1084 10.6094H33.9502V26.8779Z" fill="white"/>
<path d="M33.9502 26.8779V27.5852H34.6575V26.8779H33.9502ZM25.1084 26.8779L25.1084 27.5852H25.1084V26.8779ZM16.9746 18.7441H16.2673V18.7442L16.9746 18.7441ZM25.1084 10.6094V9.90206H25.1084L25.1084 10.6094ZM33.9502 10.6094H34.6575V9.90206H33.9502V10.6094ZM33.9502 26.8779V26.1706H25.1084V26.8779V27.5852H33.9502V26.8779ZM25.1084 26.8779L25.1084 26.1706C21.0069 26.1704 17.682 22.8456 17.6819 18.7441L16.9746 18.7441L16.2673 18.7442C16.2674 23.6269 20.2257 27.585 25.1084 27.5852L25.1084 26.8779ZM16.9746 18.7441H17.6819C17.6819 14.6425 21.0069 11.3169 25.1084 11.3167L25.1084 10.6094L25.1084 9.90206C20.2255 9.90228 16.2673 13.8613 16.2673 18.7441H16.9746ZM25.1084 10.6094V11.3167H33.9502V10.6094V9.90206H25.1084V10.6094ZM33.9502 10.6094H33.2429V26.8779H33.9502H34.6575V10.6094H33.9502Z" fill="black" mask="url(#path-4-inside-2_394_3649)"/>
<mask id="path-6-inside-3_394_3649" fill="white">
<path d="M33.2451 26.8779H42.0859C46.5782 26.8779 50.2206 23.2364 50.2207 18.7441C50.2207 14.2518 46.5783 10.6094 42.0859 10.6094H33.2451V26.8779Z"/>
</mask>
<path d="M33.2451 26.8779H42.0859C46.5782 26.8779 50.2206 23.2364 50.2207 18.7441C50.2207 14.2518 46.5783 10.6094 42.0859 10.6094H33.2451V26.8779Z" fill="white"/>
<path d="M33.2451 26.8779V27.5852H32.5378V26.8779H33.2451ZM50.2207 18.7441H50.928V18.7442L50.2207 18.7441ZM33.2451 10.6094H32.5378V9.90206H33.2451V10.6094ZM33.2451 26.8779V26.1706H42.0859V26.8779V27.5852H33.2451V26.8779ZM42.0859 26.8779V26.1706C46.1877 26.1706 49.5133 22.8457 49.5134 18.7441L50.2207 18.7441L50.928 18.7442C50.9279 23.6271 46.9688 27.5852 42.0859 27.5852V26.8779ZM50.2207 18.7441H49.5134C49.5134 14.6424 46.1877 11.3167 42.0859 11.3167V10.6094V9.90206C46.9689 9.90206 50.928 13.8611 50.928 18.7441H50.2207ZM42.0859 10.6094V11.3167H33.2451V10.6094V9.90206H42.0859V10.6094ZM33.2451 10.6094H33.9524V26.8779H33.2451H32.5378V10.6094H33.2451Z" fill="black" mask="url(#path-6-inside-3_394_3649)"/>
<path d="M25.4648 42.084H33.5986V50.2188C33.5984 54.7107 29.9568 58.3523 25.4648 58.3525C20.9726 58.3525 17.3303 54.7109 17.3301 50.2188C17.3301 45.7264 20.9725 42.084 25.4648 42.084Z" fill="white" stroke="black" stroke-width="0.707317"/>
<path d="M42.085 26.5234C46.3819 26.5234 49.866 30.0068 49.8662 34.3037C49.8662 38.6008 46.382 42.085 42.085 42.085C37.7881 42.0848 34.3047 38.6006 34.3047 34.3037C34.3049 30.007 37.7882 26.5236 42.085 26.5234Z" fill="white" stroke="black" stroke-width="0.707317"/>
</svg>
